<svg width="40" height="40" viewBox="0 0 40 40" fill="none" xmlns="http://www.w3.org/2000/svg">
<path fill-rule="evenodd" clip-rule="evenodd" d="M27.2235 3.3335C32.8718 3.3335 36.6668 7.29683 36.6668 13.1935V26.8068C36.6668 32.7035 32.8718 36.6668 27.2218 36.6668H12.7752C7.12683 36.6668 3.3335 32.7035 3.3335 26.8068V13.1935C3.3335 7.29683 7.12683 3.3335 12.7752 3.3335H27.2235ZM27.2235 5.8335H12.7752C8.5585 5.8335 5.8335 8.72183 5.8335 13.1935V26.8068C5.8335 31.2785 8.5585 34.1668 12.7752 34.1668H27.2218C31.4402 34.1668 34.1668 31.2785 34.1668 26.8068V13.1935C34.1668 8.72183 31.4402 5.8335 27.2235 5.8335ZM16.8843 15.1045L19.9968 18.2168L23.1077 15.108C23.596 14.6197 24.386 14.6197 24.8743 15.108C25.3627 15.5963 25.3627 16.3863 24.8743 16.8747L21.7635 19.9835L24.8777 23.0995C25.366 23.5878 25.366 24.3778 24.8777 24.8662C24.6343 25.1112 24.3127 25.2328 23.9943 25.2328C23.6743 25.2328 23.3543 25.1112 23.111 24.8662L19.9968 21.7502L16.8877 24.8613C16.6443 25.1063 16.3243 25.228 16.0043 25.228C15.6843 25.228 15.3643 25.1063 15.121 24.8613C14.6327 24.373 14.6327 23.583 15.121 23.0947L18.2302 19.9835L15.1177 16.8712C14.6293 16.3828 14.6293 15.5928 15.1177 15.1045C15.6077 14.6162 16.3977 14.6162 16.8843 15.1045Z" fill="#EC4794"/>
</svg>
