<svg width="24" height="24" viewBox="0 0 24 24" fill="none" xmlns="http://www.w3.org/2000/svg">
<path d="M19.5264 5.47381C17.5864 3.53381 15.6864 3.48381 13.6964 5.47381L12.4864 6.68381C12.3864 6.78381 12.3464 6.94381 12.3864 7.08381C13.1464 9.73381 15.2664 11.8538 17.9164 12.6138C17.9564 12.6238 17.9964 12.6338 18.0364 12.6338C18.1464 12.6338 18.2464 12.5938 18.3264 12.5138L19.5264 11.3038C20.5164 10.3238 20.9964 9.37381 20.9964 8.41381C21.0064 7.42381 20.5264 6.46381 19.5264 5.47381Z" fill="white"/>
<path d="M16.1162 13.5235C15.8262 13.3835 15.5462 13.2435 15.2762 13.0835C15.0562 12.9535 14.8462 12.8135 14.6362 12.6635C14.4662 12.5535 14.2662 12.3935 14.0762 12.2335C14.0562 12.2235 13.9862 12.1635 13.9062 12.0835C13.5762 11.8035 13.2062 11.4435 12.8762 11.0435C12.8462 11.0235 12.7962 10.9535 12.7262 10.8635C12.6262 10.7435 12.4562 10.5435 12.3062 10.3135C12.1862 10.1635 12.0462 9.94346 11.9162 9.72346C11.7562 9.45346 11.6162 9.18346 11.4762 8.90346C11.455 8.85806 11.4345 8.8129 11.4146 8.76799C11.267 8.43468 10.8324 8.33723 10.5746 8.59499L4.84618 14.3235C4.71618 14.4535 4.59618 14.7035 4.56618 14.8735L4.02618 18.7035C3.92618 19.3835 4.11618 20.0235 4.53618 20.4535C4.89618 20.8035 5.39618 20.9935 5.93618 20.9935C6.05618 20.9935 6.17618 20.9835 6.29618 20.9635L10.1362 20.4235C10.3162 20.3935 10.5662 20.2735 10.6862 20.1435L16.4075 14.4221C16.667 14.1626 16.5691 13.7171 16.2315 13.5731C16.1935 13.5569 16.1551 13.5403 16.1162 13.5235Z" fill="white"/>
</svg>
