<svg width="25" height="25" viewBox="0 0 25 25" fill="none" xmlns="http://www.w3.org/2000/svg">
<path fill-rule="evenodd" clip-rule="evenodd" d="M16.4517 1.04175C16.883 1.04175 17.233 1.39175 17.233 1.823L17.2335 2.70613C18.7544 2.81041 20.0176 3.33138 20.9116 4.22727C21.8877 5.20748 22.4012 6.61685 22.396 8.30748V17.8106C22.396 21.2814 20.1918 23.4377 16.645 23.4377H7.83454C4.28766 23.4377 2.0835 21.2512 2.0835 17.7314V8.30539C2.0835 5.03164 4.04918 2.93023 7.25504 2.70649L7.25568 1.823C7.25568 1.39175 7.60568 1.04175 8.03693 1.04175C8.46818 1.04175 8.81818 1.39175 8.81818 1.823L8.81787 2.68654H15.67L15.6705 1.823C15.6705 1.39175 16.0205 1.04175 16.4517 1.04175ZM20.8335 10.3167H3.646V17.7314C3.646 20.4044 5.1335 21.8752 7.83454 21.8752H16.645C19.346 21.8752 20.8335 20.4314 20.8335 17.8106L20.8335 10.3167ZM16.8764 16.8712C17.3077 16.8712 17.6577 17.2212 17.6577 17.6525C17.6577 18.0837 17.3077 18.4337 16.8764 18.4337C16.4452 18.4337 16.091 18.0837 16.091 17.6525C16.091 17.2212 16.4358 16.8712 16.867 16.8712H16.8764ZM12.254 16.8712C12.6853 16.8712 13.0353 17.2212 13.0353 17.6525C13.0353 18.0837 12.6853 18.4337 12.254 18.4337C11.8228 18.4337 11.4686 18.0837 11.4686 17.6525C11.4686 17.2212 11.8134 16.8712 12.2446 16.8712H12.254ZM7.62193 16.8712C8.05318 16.8712 8.40318 17.2212 8.40318 17.6525C8.40318 18.0837 8.05318 18.4337 7.62193 18.4337C7.19068 18.4337 6.83548 18.0837 6.83548 17.6525C6.83548 17.2212 7.18131 16.8712 7.61256 16.8712H7.62193ZM16.8764 12.8226C17.3077 12.8226 17.6577 13.1726 17.6577 13.6038C17.6577 14.0351 17.3077 14.3851 16.8764 14.3851C16.4452 14.3851 16.091 14.0351 16.091 13.6038C16.091 13.1726 16.4358 12.8226 16.867 12.8226H16.8764ZM12.254 12.8226C12.6853 12.8226 13.0353 13.1726 13.0353 13.6038C13.0353 14.0351 12.6853 14.3851 12.254 14.3851C11.8228 14.3851 11.4686 14.0351 11.4686 13.6038C11.4686 13.1726 11.8134 12.8226 12.2446 12.8226H12.254ZM7.62193 12.8226C8.05318 12.8226 8.40318 13.1726 8.40318 13.6038C8.40318 14.0351 8.05318 14.3851 7.62193 14.3851C7.19068 14.3851 6.83548 14.0351 6.83548 13.6038C6.83548 13.1726 7.18131 12.8226 7.61256 12.8226H7.62193ZM15.67 4.24904H8.81787L8.81818 5.25112C8.81818 5.68237 8.46818 6.03237 8.03693 6.03237C7.60568 6.03237 7.25568 5.68237 7.25568 5.25112L7.25513 4.27269C4.92156 4.46872 3.646 5.88326 3.646 8.30539V8.75425H20.8335L20.8335 8.30539C20.8377 7.01894 20.4918 6.01894 19.8054 5.33144C19.2028 4.72707 18.3219 4.36612 17.2339 4.27319L17.233 5.25112C17.233 5.68237 16.883 6.03237 16.4517 6.03237C16.0205 6.03237 15.6705 5.68237 15.6705 5.25112L15.67 4.24904Z" fill="#333333"/>
</svg>
