<svg width="24" height="24" viewBox="0 0 24 24" fill="none" xmlns="http://www.w3.org/2000/svg">
<path d="M16.3402 2C19.7302 2 22.0002 4.38 22.0002 7.92V16.091C22.0002 19.62 19.7302 22 16.3402 22H7.67024C4.28024 22 2.00024 19.62 2.00024 16.091V7.92C2.00024 4.38 4.28024 2 7.67024 2H16.3402ZM16.1802 9C15.8402 8.66 15.2802 8.66 14.9402 9L10.8102 13.13L9.06024 11.38C8.72024 11.04 8.16024 11.04 7.82024 11.38C7.48024 11.72 7.48024 12.27 7.82024 12.62L10.2002 14.99C10.3702 15.16 10.5902 15.24 10.8102 15.24C11.0402 15.24 11.2602 15.16 11.4302 14.99L16.1802 10.24C16.5202 9.9 16.5202 9.35 16.1802 9Z" fill="#404040"/>
</svg>
