<svg width="24" height="24" viewBox="0 0 24 24" fill="none" xmlns="http://www.w3.org/2000/svg">
<path d="M19.5264 5.47381C17.5864 3.53381 15.6864 3.48381 13.6964 5.47381L12.4864 6.68381C12.3864 6.78381 12.3464 6.94381 12.3864 7.08381C13.1464 9.73381 15.2664 11.8538 17.9164 12.6138C17.9564 12.6238 17.9964 12.6338 18.0364 12.6338C18.1464 12.6338 18.2464 12.5938 18.3264 12.5138L19.5264 11.3038C20.5164 10.3238 20.9964 9.37381 20.9964 8.41381C21.0064 7.42381 20.5264 6.46381 19.5264 5.47381Z" fill="#EC4794"/>
<path d="M16.1162 13.523C15.8262 13.383 15.5462 13.243 15.2762 13.083C15.0562 12.953 14.8462 12.813 14.6362 12.663C14.4662 12.553 14.2662 12.393 14.0762 12.233C14.0562 12.223 13.9862 12.163 13.9062 12.083C13.5762 11.803 13.2062 11.443 12.8762 11.043C12.8462 11.023 12.7962 10.953 12.7262 10.863C12.6262 10.743 12.4562 10.543 12.3062 10.313C12.1862 10.163 12.0462 9.94297 11.9162 9.72297C11.7562 9.45297 11.6162 9.18297 11.4762 8.90297C11.455 8.85757 11.4345 8.81241 11.4146 8.7675C11.267 8.43419 10.8324 8.33674 10.5746 8.5945L4.84618 14.323C4.71618 14.453 4.59618 14.703 4.56618 14.873L4.02618 18.703C3.92618 19.383 4.11618 20.023 4.53618 20.453C4.89618 20.803 5.39618 20.993 5.93618 20.993C6.05618 20.993 6.17618 20.983 6.29618 20.963L10.1362 20.423C10.3162 20.393 10.5662 20.273 10.6862 20.143L16.4075 14.4217C16.667 14.1621 16.5691 13.7166 16.2315 13.5726C16.1935 13.5564 16.1551 13.5398 16.1162 13.523Z" fill="#EC4794"/>
</svg>
