<svg width="26" height="20" viewBox="0 0 26 20" fill="none" xmlns="http://www.w3.org/2000/svg">
<path d="M12.9405 12.9627C16.9436 12.9627 20.3616 13.5974 20.3616 16.1369C20.3616 18.6754 16.9655 19.3332 12.9405 19.3332C8.93748 19.3332 5.51943 18.6985 5.51943 16.16C5.51943 13.6205 8.91554 12.9627 12.9405 12.9627ZM19.3409 11.4335C20.8713 11.4052 22.5166 11.6153 23.1246 11.7645C24.4126 12.0177 25.2598 12.5347 25.6108 13.2859C25.9075 13.9027 25.9075 14.6182 25.6108 15.2339C25.0739 16.3992 23.3429 16.7732 22.6702 16.8699C22.5312 16.8909 22.4194 16.7701 22.4341 16.6303C22.7778 13.4015 20.0439 11.8706 19.3367 11.5186C19.3064 11.5029 19.3002 11.4787 19.3033 11.464C19.3054 11.4535 19.3179 11.4367 19.3409 11.4335ZM6.37167 11.4313L6.65986 11.4339C6.68284 11.4371 6.69433 11.4539 6.69642 11.4634C6.69955 11.4791 6.69328 11.5022 6.66403 11.5191C5.95577 11.871 3.22196 13.4019 3.56564 16.6297C3.58027 16.7705 3.46954 16.8903 3.3306 16.8703C2.65785 16.7736 0.926891 16.3996 0.389948 15.2344C0.0922261 14.6176 0.0922261 13.9031 0.389948 13.2863C0.740945 12.5351 1.5871 12.0181 2.87514 11.7639C3.48416 11.6157 5.12842 11.4056 6.65986 11.4339L6.37167 11.4313ZM12.9405 0.666504C15.666 0.666504 17.8514 2.86248 17.8514 5.60483C17.8514 8.34613 15.666 10.5442 12.9405 10.5442C10.2151 10.5442 8.02969 8.34613 8.02969 5.60483C8.02969 2.86248 10.2151 0.666504 12.9405 0.666504ZM19.6073 1.49005C22.2398 1.49005 24.3071 3.98128 23.603 6.7562C23.1277 8.62435 21.4072 9.86524 19.4903 9.81481C19.2981 9.80955 19.109 9.79169 18.9262 9.76017C18.7935 9.73705 18.7267 9.5868 18.8019 9.47543C19.5331 8.3932 19.9499 7.09137 19.9499 5.69393C19.9499 4.23555 19.4945 2.87593 18.7037 1.76113C18.6786 1.72646 18.6598 1.67287 18.6849 1.63294C18.7058 1.60037 18.7444 1.58356 18.781 1.57516C19.0474 1.52052 19.3211 1.49005 19.6073 1.49005ZM6.39191 1.48994C6.67814 1.48994 6.95183 1.52041 7.21926 1.57505C7.25478 1.58346 7.29447 1.60132 7.31537 1.63284C7.33939 1.67277 7.32163 1.72635 7.29656 1.76103C6.50577 2.87583 6.05031 4.23544 6.05031 5.69383C6.05031 7.09127 6.46712 8.39309 7.19837 9.47532C7.27358 9.5867 7.20672 9.73695 7.07405 9.76007C6.8902 9.79264 6.70216 9.80945 6.50995 9.8147C4.59304 9.86514 2.87253 8.62425 2.39722 6.75609C1.69209 3.98117 3.75942 1.48994 6.39191 1.48994Z" fill="#1FA0BD"/>
</svg>
