<svg width="28" height="28" viewBox="0 0 28 28" fill="none" xmlns="http://www.w3.org/2000/svg">
<path d="M14 2.3335C20.4517 2.3335 25.6667 7.56016 25.6667 14.0002C25.6667 20.4518 20.4517 25.6668 14 25.6668C7.56001 25.6668 2.33334 20.4518 2.33334 14.0002C2.33334 7.56016 7.56001 2.3335 14 2.3335ZM13.5917 8.08516C13.1133 8.08516 12.7167 8.47016 12.7167 8.96016V14.8518C12.7167 15.1552 12.88 15.4352 13.1483 15.5985L17.7217 18.3285C17.8617 18.4102 18.0133 18.4568 18.1767 18.4568C18.4683 18.4568 18.76 18.3052 18.9233 18.0252C19.1683 17.6168 19.04 17.0802 18.62 16.8235L14.4667 14.3502V8.96016C14.4667 8.47016 14.07 8.08516 13.5917 8.08516Z" fill="#1FA0BD"/>
</svg>
