<svg width="41" height="40" viewBox="0 0 41 40" fill="none" xmlns="http://www.w3.org/2000/svg">
<path fill-rule="evenodd" clip-rule="evenodd" d="M28.7445 0C31.9763 0 34.7639 1.07648 36.8038 3.11517C38.9363 5.24406 40.106 8.34119 40.102 11.8372L40.1049 25.8623C40.1084 25.9163 40.109 25.9704 40.1068 26.0244L40.102 28.1648C40.102 35.2431 35.5336 40 28.7344 40H11.3575C4.5643 40 0 35.2431 0 28.1648V11.8352C0 4.75694 4.5643 0 11.3575 0H28.7445ZM29.3004 21.7146C28.1186 21.7146 26.7318 23.665 25.5038 25.387C23.8196 27.7524 22.0771 30.2001 19.4523 30.2001C17.6776 30.2001 16.0516 29.5185 14.6186 28.9151C12.3395 27.9569 11.3064 27.6502 10.2955 28.4801C8.27181 30.1434 6.27221 33.1722 5.35341 34.6626C6.8036 36.1539 8.86363 36.9931 11.3575 36.9931H28.7344C33.8092 36.9931 37.0872 33.5291 37.0872 28.1648L37.0872 26.5631L37.0409 26.5144C35.2815 24.7064 32.2433 21.7146 29.3004 21.7146ZM28.7445 3.00692H11.3575C6.29074 3.00692 3.01473 6.47289 3.01473 11.8352V28.1648C3.01473 29.5051 3.21923 30.7267 3.60506 31.8053C4.76812 30.0538 6.52467 27.6825 8.38015 26.1588C10.8964 24.094 13.6057 25.2286 15.7884 26.1448C17.0726 26.684 18.2866 27.1932 19.4523 27.1932C20.5215 27.1932 21.862 25.3088 23.0478 23.647C24.6939 21.3297 26.563 18.7076 29.3004 18.7076C32.3045 18.7076 35.0254 20.549 37.0894 22.3764L37.0872 11.8352C37.0912 9.10294 36.2552 6.82169 34.6714 5.24006C33.2083 3.77869 31.1603 3.00692 28.7445 3.00692ZM13.7813 8.39832C16.6574 8.40033 18.9968 10.7337 18.9988 13.6003V13.6023C18.9988 16.4709 16.6594 18.8043 13.7813 18.8043C10.9033 18.8043 8.56385 16.4709 8.56385 13.6023C8.56385 10.7317 10.9033 8.39832 13.7813 8.39832ZM13.7793 11.4052C12.5654 11.4052 11.5786 12.3895 11.5786 13.6023C11.5786 14.8131 12.5654 15.7973 13.7813 15.7973C14.9953 15.7973 15.9841 14.8131 15.9841 13.6043C15.9821 12.3915 14.9933 11.4072 13.7793 11.4052Z" fill="#999999"/>
</svg>
