<svg width="24" height="24" viewBox="0 0 24 24" fill="none" xmlns="http://www.w3.org/2000/svg">
<path fill-rule="evenodd" clip-rule="evenodd" d="M19.8399 18.1929C19.8399 21.4889 15.3199 21.8699 11.9209 21.8699L11.6777 21.8697C9.51211 21.8644 3.99991 21.7277 3.99991 18.1729C3.99991 14.9442 8.33826 14.5127 11.7114 14.4964L12.1641 14.4961C14.3296 14.5014 19.8399 14.6381 19.8399 18.1929ZM11.9209 15.9959C7.65991 15.9959 5.49991 16.7279 5.49991 18.1729C5.49991 19.6309 7.65991 20.3699 11.9209 20.3699C16.1809 20.3699 18.3399 19.6379 18.3399 18.1929C18.3399 16.7349 16.1809 15.9959 11.9209 15.9959ZM11.9209 1.99951C14.8489 1.99951 17.2299 4.38151 17.2299 7.30951C17.2299 10.2375 14.8489 12.6185 11.9209 12.6185H11.8889C8.96691 12.6095 6.59991 10.2265 6.60988 7.30651C6.60988 4.38151 8.99191 1.99951 11.9209 1.99951ZM11.9209 3.42751C9.77991 3.42751 8.03789 5.16851 8.03789 7.30951C8.03091 9.44351 9.75991 11.1835 11.8919 11.1915L11.9209 11.9055V11.1915C14.0609 11.1915 15.8019 9.44951 15.8019 7.30951C15.8019 5.16851 14.0609 3.42751 11.9209 3.42751Z" fill="#1FA0BD"/>
</svg>
