<svg width="24" height="24" viewBox="0 0 24 24" fill="none" xmlns="http://www.w3.org/2000/svg">
<path d="M12.8366 0.333496C13.7189 0.333496 14.5178 0.823496 14.9589 1.54683C15.1735 1.89683 15.3166 2.3285 15.2808 2.7835C15.257 3.1335 15.3643 3.4835 15.555 3.81016C16.1631 4.80183 17.5104 5.17516 18.5596 4.61516C19.74 3.9385 21.2303 4.34683 21.9099 5.50183L22.7087 6.8785C23.4003 8.0335 23.0187 9.51516 21.8264 10.1802C20.813 10.7752 20.4553 12.0935 21.0634 13.0968C21.2542 13.4118 21.4688 13.6802 21.8026 13.8435C22.2199 14.0652 22.5418 14.4152 22.7684 14.7652C23.2095 15.4885 23.1737 16.3752 22.7445 17.1568L21.9099 18.5568C21.4688 19.3035 20.6461 19.7702 19.7996 19.7702C19.3823 19.7702 18.9173 19.6535 18.5357 19.4202C18.2258 19.2218 17.8681 19.1518 17.4865 19.1518C16.3062 19.1518 15.3166 20.1202 15.2808 21.2752C15.2808 22.6168 14.1839 23.6668 12.8128 23.6668H11.1913C9.80823 23.6668 8.71133 22.6168 8.71133 21.2752C8.68748 20.1202 7.69789 19.1518 6.51753 19.1518C6.12407 19.1518 5.76639 19.2218 5.46832 19.4202C5.08679 19.6535 4.60987 19.7702 4.2045 19.7702C3.34605 19.7702 2.52338 19.3035 2.08223 18.5568L1.25956 17.1568C0.818413 16.3985 0.794567 15.4885 1.23571 14.7652C1.42648 14.4152 1.78416 14.0652 2.18954 13.8435C2.52338 13.6802 2.73799 13.4118 2.94068 13.0968C3.53682 12.0935 3.17913 10.7752 2.16569 10.1802C0.985332 9.51516 0.603802 8.0335 1.2834 6.8785L2.08223 5.50183C2.77376 4.34683 4.25219 3.9385 5.44447 4.61516C6.48176 5.17516 7.82904 4.80183 8.4371 3.81016C8.62787 3.4835 8.73518 3.1335 8.71133 2.7835C8.68748 2.3285 8.81864 1.89683 9.04517 1.54683C9.48631 0.823496 10.2851 0.356829 11.1555 0.333496H12.8366ZM12.014 8.71016C10.1421 8.71016 8.62787 10.1802 8.62787 12.0118C8.62787 13.8435 10.1421 15.3018 12.014 15.3018C13.8858 15.3018 15.3643 13.8435 15.3643 12.0118C15.3643 10.1802 13.8858 8.71016 12.014 8.71016Z" fill="#1FA0BD"/>
</svg>
