<svg width="15" height="15" viewBox="0 0 15 15" fill="none" xmlns="http://www.w3.org/2000/svg">
<path d="M11.1993 8.95C11.0374 9.10688 10.963 9.33375 10.9999 9.55625L11.5555 12.6313C11.6024 12.8919 11.4924 13.1556 11.2743 13.3063C11.0605 13.4625 10.7762 13.4813 10.543 13.3563L7.77492 11.9125C7.67867 11.8613 7.5718 11.8338 7.46242 11.8306H7.29305C7.2343 11.8394 7.1768 11.8581 7.1243 11.8869L4.35555 13.3375C4.21867 13.4063 4.06367 13.4306 3.9118 13.4063C3.5418 13.3363 3.29492 12.9838 3.35555 12.6119L3.9118 9.53688C3.94867 9.3125 3.8743 9.08438 3.71242 8.925L1.45555 6.7375C1.2668 6.55438 1.20117 6.27938 1.28742 6.03125C1.37117 5.78375 1.58492 5.60313 1.84305 5.5625L4.9493 5.11188C5.18555 5.0875 5.39305 4.94375 5.4993 4.73125L6.86805 1.925C6.90055 1.8625 6.94242 1.805 6.99305 1.75625L7.0493 1.7125C7.07867 1.68 7.11242 1.65313 7.14992 1.63125L7.21805 1.60625L7.3243 1.5625H7.58742C7.82242 1.58688 8.0293 1.7275 8.13742 1.9375L9.5243 4.73125C9.6243 4.93563 9.81867 5.0775 10.043 5.11188L13.1493 5.5625C13.4118 5.6 13.6312 5.78125 13.718 6.03125C13.7999 6.28188 13.7293 6.55688 13.5368 6.7375L11.1993 8.95Z" fill="#F39D13"/>
</svg>
