<svg width="36" height="42" viewBox="0 0 36 42" fill="none" xmlns="http://www.w3.org/2000/svg">
<path d="M20.6096 0.166504C21.1253 0.166504 21.5585 0.604004 21.5585 1.12484V7.83317C21.5585 11.6457 24.6526 14.7707 28.4479 14.7915C29.995 14.7915 31.2326 14.8123 32.1814 14.8123C32.8209 14.8123 33.8729 14.7915 34.7598 14.7915C35.2755 14.7915 35.7087 15.2082 35.7087 15.729V32.479C35.7087 37.6457 31.542 41.8332 26.4265 41.8332H10.028C4.6443 41.8332 0.291992 37.4373 0.291992 32.0207V9.56234C0.291992 4.39567 4.43803 0.166504 9.5948 0.166504H20.6096ZM17.2474 14.2082C17.0412 14.2082 16.8349 14.2498 16.6493 14.3332C16.4636 14.4165 16.2986 14.5207 16.1542 14.6665L10.2549 20.6665C9.65668 21.2707 9.65668 22.2498 10.2549 22.854C10.853 23.4582 11.8225 23.4582 12.4207 22.854L15.7004 19.5207V29.5832C15.7004 30.4373 16.3811 31.1248 17.2474 31.1248C18.0931 31.1248 18.7738 30.4373 18.7738 29.5832V19.5207L22.0535 22.854C22.6517 23.4582 23.6212 23.4582 24.2194 22.854C24.8382 22.2498 24.8382 21.2707 24.24 20.6665L18.32 14.6665C18.1757 14.5207 18.0106 14.4165 17.825 14.3332C17.6394 14.2498 17.4537 14.2082 17.2474 14.2082ZM24.5529 2.054C24.5529 1.15609 25.6297 0.710254 26.2464 1.35817C28.4783 3.69984 32.3747 7.79359 34.5529 10.0811C35.1532 10.7123 34.7118 11.7603 33.8434 11.7623C32.1478 11.7686 30.1511 11.7623 28.7134 11.7478C26.4321 11.7478 24.5529 9.84984 24.5529 7.54567V2.054Z" fill="#DFDFDF"/>
</svg>
