<svg width="50" height="50" viewBox="0 0 50 50" fill="none" xmlns="http://www.w3.org/2000/svg">
<path d="M27.6093 4.1665C28.125 4.1665 28.5581 4.604 28.5581 5.12484V11.8332C28.5581 15.6457 31.6522 18.7707 35.4476 18.7915C36.9946 18.7915 38.2322 18.8123 39.1811 18.8123C39.8205 18.8123 40.8725 18.7915 41.7594 18.7915C42.2751 18.7915 42.7083 19.2082 42.7083 19.729V36.479C42.7083 41.6457 38.5416 45.8332 33.4261 45.8332H17.0276C11.6439 45.8332 7.29163 41.4373 7.29163 36.0207V13.5623C7.29163 8.39567 11.4377 4.1665 16.5944 4.1665H27.6093ZM24.2471 18.2082C24.0408 18.2082 23.8345 18.2498 23.6489 18.3332C23.4632 18.4165 23.2982 18.5207 23.1538 18.6665L17.2545 24.6665C16.6563 25.2707 16.6563 26.2498 17.2545 26.854C17.8527 27.4582 18.8222 27.4582 19.4203 26.854L22.7 23.5207V33.5832C22.7 34.4373 23.3807 35.1248 24.2471 35.1248C25.0928 35.1248 25.7735 34.4373 25.7735 33.5832V23.5207L29.0532 26.854C29.6514 27.4582 30.6208 27.4582 31.219 26.854C31.8378 26.2498 31.8378 25.2707 31.2396 24.6665L25.3197 18.6665C25.1753 18.5207 25.0103 18.4165 24.8246 18.3332C24.639 18.2498 24.4533 18.2082 24.2471 18.2082ZM31.5526 6.054C31.5526 5.15609 32.6293 4.71025 33.246 5.35817C35.4779 7.69984 39.3743 11.7936 41.5526 14.0811C42.1528 14.7123 41.7114 15.7603 40.843 15.7623C39.1474 15.7686 37.1507 15.7623 35.713 15.7478C33.4317 15.7478 31.5526 13.8498 31.5526 11.5457V6.054Z" fill="#DFDFDF"/>
</svg>
