<svg width="20" height="20" viewBox="0 0 20 20" fill="none" xmlns="http://www.w3.org/2000/svg">
<path d="M14.3402 0C17.7302 0 20.0002 2.38 20.0002 5.92V14.091C20.0002 17.62 17.7302 20 14.3402 20H5.67024C2.28024 20 0.000244141 17.62 0.000244141 14.091V5.92C0.000244141 2.38 2.28024 0 5.67024 0H14.3402ZM14.1802 7C13.8402 6.66 13.2802 6.66 12.9402 7L8.81024 11.13L7.06024 9.38C6.72024 9.04 6.16024 9.04 5.82024 9.38C5.48024 9.72 5.48024 10.27 5.82024 10.62L8.20024 12.99C8.37024 13.16 8.59024 13.24 8.81024 13.24C9.04024 13.24 9.26024 13.16 9.43024 12.99L14.1802 8.24C14.5202 7.9 14.5202 7.35 14.1802 7Z" fill="#FEFEFE"/>
</svg>
