<svg width="40" height="40" viewBox="0 0 40 40" fill="none" xmlns="http://www.w3.org/2000/svg">
<path d="M14.2195 4.89454C17.861 2.77871 22.3369 2.81569 25.9441 4.99141C29.5159 7.21144 31.6868 11.1735 31.6667 15.4357C31.5834 19.6698 29.2556 23.6499 26.3459 26.7267C24.6665 28.5106 22.7878 30.088 20.7482 31.4267C20.5382 31.5481 20.3081 31.6294 20.0693 31.6666C19.8395 31.6568 19.6157 31.5889 19.4181 31.469C16.3042 29.4575 13.5724 26.89 11.354 23.8899C9.49781 21.3855 8.44322 18.3599 8.3335 15.224L8.34181 14.7677C8.49337 10.6743 10.7082 6.9348 14.2195 4.89454ZM21.5123 11.7245C20.0319 11.0953 18.3252 11.4372 17.189 12.5905C16.0528 13.7438 15.7112 15.4811 16.3238 16.9912C16.9363 18.5013 18.3821 19.4863 19.9862 19.4863C21.037 19.4939 22.0471 19.073 22.7915 18.3174C23.5359 17.5618 23.9526 16.5343 23.9489 15.4639C23.9545 13.83 22.9926 12.3538 21.5123 11.7245Z" fill="#EC4794"/>
<path opacity="0.4" d="M20.0003 36.6666C24.6027 36.6666 28.3337 35.9204 28.3337 34.9999C28.3337 34.0794 24.6027 33.3333 20.0003 33.3333C15.398 33.3333 11.667 34.0794 11.667 34.9999C11.667 35.9204 15.398 36.6666 20.0003 36.6666Z" fill="#EC4794"/>
</svg>
