<svg width="24" height="24" viewBox="0 0 24 24" fill="none" xmlns="http://www.w3.org/2000/svg">
<path fill-rule="evenodd" clip-rule="evenodd" d="M11.7385 2C17.1085 2 21.4765 6.368 21.4765 11.738C21.4765 14.2715 20.5042 16.5823 18.9132 18.3165L22.0439 21.4407C22.3369 21.7337 22.3379 22.2077 22.0449 22.5007C21.8989 22.6487 21.7059 22.7217 21.5139 22.7217C21.3229 22.7217 21.1309 22.6487 20.9839 22.5027L17.8154 19.343C16.1486 20.6778 14.0352 21.477 11.7385 21.477C6.36851 21.477 1.99951 17.108 1.99951 11.738C1.99951 6.368 6.36851 2 11.7385 2ZM11.7385 3.5C7.19551 3.5 3.49951 7.195 3.49951 11.738C3.49951 16.281 7.19551 19.977 11.7385 19.977C16.2805 19.977 19.9765 16.281 19.9765 11.738C19.9765 7.195 16.2805 3.5 11.7385 3.5Z" fill="#999999"/>
</svg>
