<svg width="40" height="40" viewBox="0 0 40 40" fill="none" xmlns="http://www.w3.org/2000/svg">
<path d="M29.865 23.867C29.4333 24.2853 29.235 24.8903 29.3333 25.4837L30.815 33.6837C30.94 34.3787 30.6466 35.082 30.065 35.4837C29.495 35.9003 28.7366 35.9503 28.115 35.617L20.7333 31.767C20.4766 31.6303 20.1916 31.557 19.9 31.5487H19.4483C19.2916 31.572 19.1383 31.622 18.9983 31.6987L11.615 35.567C11.25 35.7503 10.8366 35.8153 10.4316 35.7503C9.44496 35.5637 8.78662 34.6237 8.94829 33.632L10.4316 25.432C10.53 24.8337 10.3316 24.2253 9.89996 23.8003L3.88162 17.967C3.37829 17.4787 3.20329 16.7453 3.43329 16.0837C3.65662 15.4237 4.22662 14.942 4.91496 14.8337L13.1983 13.632C13.8283 13.567 14.3816 13.1837 14.665 12.617L18.315 5.13366C18.4016 4.96699 18.5133 4.81366 18.6483 4.68366L18.7983 4.56699C18.8766 4.48033 18.9666 4.40866 19.0666 4.35033L19.2483 4.28366L19.5316 4.16699H20.2333C20.86 4.23199 21.4116 4.60699 21.7 5.16699L25.3983 12.617C25.665 13.162 26.1833 13.5403 26.7816 13.632L35.065 14.8337C35.765 14.9337 36.35 15.417 36.5816 16.0837C36.8 16.752 36.6116 17.4853 36.0983 17.967L29.865 23.867Z" fill="#F39D13"/>
</svg>
