<svg width="40" height="40" viewBox="0 0 40 40" fill="none" xmlns="http://www.w3.org/2000/svg">
<path d="M29.8645 23.867C29.4328 24.2853 29.2345 24.8903 29.3328 25.4837L30.8145 33.6837C30.9395 34.3787 30.6461 35.082 30.0645 35.4837C29.4945 35.9003 28.7361 35.9503 28.1145 35.617L20.7328 31.767C20.4761 31.6303 20.1911 31.557 19.8995 31.5487H19.4478C19.2911 31.572 19.1378 31.622 18.9978 31.6987L11.6145 35.567C11.2495 35.7503 10.8361 35.8153 10.4311 35.7503C9.44447 35.5637 8.78613 34.6237 8.9478 33.632L10.4311 25.432C10.5295 24.8337 10.3311 24.2253 9.89947 23.8003L3.88113 17.967C3.3778 17.4787 3.2028 16.7453 3.4328 16.0837C3.65613 15.4237 4.22613 14.942 4.91447 14.8337L13.1978 13.632C13.8278 13.567 14.3811 13.1837 14.6645 12.617L18.3145 5.13366C18.4011 4.96699 18.5128 4.81366 18.6478 4.68366L18.7978 4.56699C18.8761 4.48033 18.9661 4.40866 19.0661 4.35033L19.2478 4.28366L19.5311 4.16699H20.2328C20.8595 4.23199 21.4111 4.60699 21.6995 5.16699L25.3978 12.617C25.6645 13.162 26.1828 13.5403 26.7811 13.632L35.0645 14.8337C35.7645 14.9337 36.3495 15.417 36.5811 16.0837C36.7995 16.752 36.6111 17.4853 36.0978 17.967L29.8645 23.867Z" fill="#F3F3F3"/>
</svg>
