<svg width="25" height="25" viewBox="0 0 25 25" fill="none" xmlns="http://www.w3.org/2000/svg">
<path fill-rule="evenodd" clip-rule="evenodd" d="M12.4167 2C18.1604 2 22.8333 6.67292 22.8333 12.4167C22.8333 18.1604 18.1604 22.8333 12.4167 22.8333C6.67292 22.8333 2 18.1604 2 12.4167C2 6.67292 6.67292 2 12.4167 2ZM12.4167 3.5625C7.53438 3.5625 3.5625 7.53438 3.5625 12.4167C3.5625 17.299 7.53438 21.2708 12.4167 21.2708C17.299 21.2708 21.2708 17.299 21.2708 12.4167C21.2708 7.53438 17.299 3.5625 12.4167 3.5625ZM12.0638 7.30771C12.496 7.30771 12.845 7.65771 12.845 8.08896V12.6952L16.3919 14.8098C16.7617 15.0317 16.8835 15.5108 16.6627 15.8817C16.5158 16.1265 16.2565 16.2629 15.9908 16.2629C15.8544 16.2629 15.7169 16.2275 15.5908 16.1535L11.6638 13.8108C11.4283 13.6692 11.2825 13.414 11.2825 13.139V8.08896C11.2825 7.65771 11.6325 7.30771 12.0638 7.30771Z" fill="black"/>
</svg>
