<svg width="290" height="209" viewBox="0 0 290 209" fill="none" xmlns="http://www.w3.org/2000/svg">
<g clip-path="url(#clip0)">
<path d="M253.168 71.9004C242.672 64.0455 226.234 56.6168 208.067 51.5195C191.526 46.8782 175.393 44.6373 162.635 45.2096L162.569 43.7243C175.478 43.1456 191.779 45.4052 208.468 50.0879C226.804 55.2329 243.421 62.7492 254.057 70.7097L253.168 71.9004Z" fill="#CCCCCC"/>
<path d="M252.079 77.9508C252.088 84.9101 250.631 91.7932 247.802 98.1502C247.566 98.6825 247.32 99.2098 247.064 99.7321C242.143 109.821 233.954 117.943 223.83 122.774C213.706 127.604 202.246 128.858 191.319 126.332C180.392 123.805 170.643 117.646 163.662 108.859C156.68 100.073 152.879 89.1778 152.877 77.9508C152.877 76.8015 152.916 75.6613 152.994 74.5299C153.031 73.9546 153.079 73.3827 153.138 72.8143C154.454 60.1583 160.572 48.4906 170.23 40.2191C179.889 31.9476 192.351 27.7034 205.044 28.3623C217.738 29.0213 229.694 34.5332 238.446 43.7605C247.198 52.9878 252.078 65.2264 252.079 77.9508Z" fill="#EC4794"/>
<path opacity="0.1" d="M247.802 98.1502C247.566 98.6824 247.32 99.2097 247.064 99.732C245.614 99.8896 244.089 100.004 242.487 100.075C241.161 100.135 239.796 100.165 238.401 100.165C226.221 100.165 211.562 97.9138 196.587 93.7125C179.897 89.0294 164.799 82.4791 154.071 75.2673C153.705 75.022 153.347 74.7762 152.994 74.5299C153.031 73.9545 153.079 73.3827 153.138 72.8143C153.707 73.2201 154.294 73.6265 154.898 74.0333C165.5 81.159 180.447 87.6394 196.988 92.2808C211.832 96.4465 226.353 98.678 238.394 98.678C239.771 98.678 241.113 98.6488 242.42 98.5903C244.324 98.504 246.118 98.3574 247.802 98.1502Z" fill="black"/>
<path d="M238.402 98.9756C226.221 98.9759 211.562 96.7248 196.587 92.523C179.898 87.8403 164.799 81.2898 154.071 74.0781C143.119 66.7159 137.983 59.4615 139.61 53.6513C141.236 47.841 149.39 44.3156 162.569 43.7243L162.635 45.2095C156.481 45.4856 151.465 46.4014 147.728 47.9313C144 49.4575 141.749 51.517 141.04 54.0526C140.33 56.5881 141.183 59.5184 143.576 62.7622C145.974 66.0138 149.784 69.4057 154.898 72.8438C165.499 79.9698 180.447 86.4503 196.988 91.0916C211.833 95.2569 226.352 97.4889 238.394 97.4892C239.77 97.4892 241.112 97.4599 242.419 97.4014C248.574 97.1252 253.589 96.2096 257.327 94.6796C261.055 93.1535 263.306 91.094 264.015 88.5584C265.29 84.0055 261.438 78.0895 253.168 71.9004L254.058 70.7098C258.313 73.8946 261.463 77.034 263.42 80.0405C265.519 83.2637 266.2 86.2646 265.445 88.9597C263.819 94.7699 255.665 98.2952 242.486 98.8866C241.16 98.9461 239.796 98.9756 238.402 98.9756Z" fill="#CCCCCC"/>
<path d="M203.79 19.3404C204.104 19.3404 204.358 19.0856 204.358 18.7714C204.358 18.4571 204.104 18.2024 203.79 18.2024C203.476 18.2024 203.222 18.4571 203.222 18.7714C203.222 19.0856 203.476 19.3404 203.79 19.3404Z" fill="#F2F2F2"/>
<path d="M128.385 44.0311C128.925 44.0311 129.363 43.5928 129.363 43.0522C129.363 42.5116 128.925 42.0733 128.385 42.0733C127.845 42.0733 127.407 42.5116 127.407 43.0522C127.407 43.5928 127.845 44.0311 128.385 44.0311Z" fill="#CCCCCC"/>
<path d="M126.301 83.2984C127.368 83.2984 128.232 82.4327 128.232 81.3647C128.232 80.2967 127.368 79.431 126.301 79.431C125.234 79.431 124.369 80.2967 124.369 81.3647C124.369 82.4327 125.234 83.2984 126.301 83.2984Z" fill="#CCCCCC"/>
<path d="M242.25 23.4741C242.961 23.4741 243.537 22.8971 243.537 22.1853C243.537 21.4736 242.961 20.8965 242.25 20.8965C241.539 20.8965 240.962 21.4736 240.962 22.1853C240.962 22.8971 241.539 23.4741 242.25 23.4741Z" fill="#CCCCCC"/>
<path d="M287.91 77.7673C289.064 77.7673 290 76.8304 290 75.6748C290 74.5191 289.064 73.5823 287.91 73.5823C286.755 73.5823 285.819 74.5191 285.819 75.6748C285.819 76.8304 286.755 77.7673 287.91 77.7673Z" fill="#CCCCCC"/>
<path d="M271.565 43.1519C272.061 43.1519 272.462 42.7499 272.462 42.2541C272.462 41.7583 272.061 41.3563 271.565 41.3563C271.07 41.3563 270.668 41.7583 270.668 42.2541C270.668 42.7499 271.07 43.1519 271.565 43.1519Z" fill="#CCCCCC"/>
<path d="M162.677 32.1209C163.45 32.1209 164.076 31.4938 164.076 30.7203C164.076 29.9468 163.45 29.3198 162.677 29.3198C161.905 29.3198 161.278 29.9468 161.278 30.7203C161.278 31.4938 161.905 32.1209 162.677 32.1209Z" fill="#CCCCCC"/>
<path d="M268.427 72.3296C268.922 72.3296 269.323 71.9276 269.323 71.4318C269.323 70.9359 268.922 70.534 268.427 70.534C267.931 70.534 267.53 70.9359 267.53 71.4318C267.53 71.9276 267.931 72.3296 268.427 72.3296Z" fill="#CCCCCC"/>
<path d="M130.848 109.794C131.465 109.794 131.964 109.294 131.964 108.677C131.964 108.06 131.465 107.559 130.848 107.559C130.232 107.559 129.732 108.06 129.732 108.677C129.732 109.294 130.232 109.794 130.848 109.794Z" fill="#CCCCCC"/>
<path d="M153.394 125.439C154.061 125.439 154.603 124.898 154.603 124.229C154.603 123.561 154.061 123.019 153.394 123.019C152.726 123.019 152.185 123.561 152.185 124.229C152.185 124.898 152.726 125.439 153.394 125.439Z" fill="#CCCCCC"/>
<path d="M188.533 2.38798H186.147V0H184.867V2.38798H182.481V3.67019H184.867V6.05817H186.147V3.67019H188.533V2.38798Z" fill="#CCCCCC"/>
<path d="M243.866 131.6H242.367V130.1H241.564V131.6H240.066V132.404H241.564V133.904H242.367V132.404H243.866V131.6Z" fill="#CCCCCC"/>
<path d="M278.436 123.925H277.317V122.804H276.715V123.925H275.596V124.527H276.715V125.648H277.317V124.527H278.436V123.925Z" fill="#CCCCCC"/>
<path opacity="0.1" d="M203.221 43.2419C205.523 43.2419 207.389 41.3737 207.389 39.0692C207.389 36.7647 205.523 34.8965 203.221 34.8965C200.919 34.8965 199.053 36.7647 199.053 39.0692C199.053 41.3737 200.919 43.2419 203.221 43.2419Z" fill="black"/>
<path opacity="0.1" d="M171.203 73.778C173.505 73.778 175.371 71.9099 175.371 69.6054C175.371 67.3009 173.505 65.4327 171.203 65.4327C168.901 65.4327 167.035 67.3009 167.035 69.6054C167.035 71.9099 168.901 73.778 171.203 73.778Z" fill="black"/>
<path opacity="0.1" d="M217.241 115.694C219.543 115.694 221.409 113.826 221.409 111.522C221.409 109.217 219.543 107.349 217.241 107.349C214.939 107.349 213.073 109.217 213.073 111.522C213.073 113.826 214.939 115.694 217.241 115.694Z" fill="black"/>
<path opacity="0.1" d="M203.221 80.2267C205.523 80.2267 207.389 78.3586 207.389 76.0541C207.389 73.7496 205.523 71.8814 203.221 71.8814C200.919 71.8814 199.053 73.7496 199.053 76.0541C199.053 78.3586 200.919 80.2267 203.221 80.2267Z" fill="black"/>
<path opacity="0.1" d="M173.287 103.176C175.589 103.176 177.455 101.308 177.455 99.0037C177.455 96.6992 175.589 94.831 173.287 94.831C170.985 94.831 169.119 96.6992 169.119 99.0037C169.119 101.308 170.985 103.176 173.287 103.176Z" fill="black"/>
<path opacity="0.1" d="M225.578 57.8461C227.88 57.8461 229.746 55.9779 229.746 53.6735C229.746 51.369 227.88 49.5008 225.578 49.5008C223.276 49.5008 221.41 51.369 221.41 53.6735C221.41 55.9779 223.276 57.8461 225.578 57.8461Z" fill="black"/>
<path opacity="0.1" d="M239.408 86.1064C241.71 86.1064 243.576 84.2382 243.576 81.9338C243.576 79.6293 241.71 77.7611 239.408 77.7611C237.106 77.7611 235.24 79.6293 235.24 81.9338C235.24 84.2382 237.106 86.1064 239.408 86.1064Z" fill="black"/>
<path d="M203.221 63.3465C206.256 63.3465 208.716 60.8839 208.716 57.8461C208.716 54.8084 206.256 52.3458 203.221 52.3458C200.187 52.3458 197.727 54.8084 197.727 57.8461C197.727 60.8839 200.187 63.3465 203.221 63.3465Z" fill="white"/>
<path d="M203.221 49.8801C201.161 49.8801 199.185 50.6994 197.729 52.1578C196.272 53.6161 195.454 55.594 195.454 57.6564C195.454 61.9511 203.221 76.054 203.221 76.054C203.221 76.054 210.989 61.9511 210.989 57.6564C210.989 55.594 210.171 53.6161 208.714 52.1578C207.257 50.6994 205.282 49.8801 203.221 49.8801ZM203.221 61.4498C202.509 61.4498 201.814 61.2384 201.222 60.8424C200.63 60.4464 200.168 59.8836 199.896 59.2252C199.623 58.5667 199.552 57.8421 199.691 57.1431C199.83 56.444 200.173 55.8019 200.676 55.2979C201.179 54.7939 201.821 54.4507 202.519 54.3117C203.217 54.1726 203.941 54.244 204.599 54.5167C205.257 54.7895 205.819 55.2514 206.215 55.844C206.61 56.4366 206.821 57.1334 206.821 57.8461C206.821 58.3193 206.728 58.7879 206.547 59.2252C206.366 59.6624 206.101 60.0596 205.767 60.3943C205.433 60.7289 205.036 60.9943 204.599 61.1754C204.162 61.3565 203.694 61.4498 203.221 61.4498Z" fill="#CCCCCC"/>
<path d="M173.287 86.865C176.321 86.865 178.781 84.4024 178.781 81.3647C178.781 78.327 176.321 75.8644 173.287 75.8644C170.252 75.8644 167.792 78.327 167.792 81.3647C167.792 84.4024 170.252 86.865 173.287 86.865Z" fill="white"/>
<path d="M173.287 73.3987C171.227 73.3987 169.251 74.218 167.794 75.6764C166.337 77.1347 165.519 79.1126 165.519 81.175C165.519 85.4698 173.287 99.5726 173.287 99.5726C173.287 99.5726 181.055 85.4698 181.055 81.175C181.055 80.1538 180.854 79.1426 180.463 78.1992C180.073 77.2557 179.501 76.3985 178.78 75.6764C178.058 74.9543 177.202 74.3815 176.26 73.9907C175.317 73.5999 174.307 73.3987 173.287 73.3987ZM173.287 84.9684C172.575 84.9684 171.879 84.757 171.287 84.361C170.695 83.9651 170.234 83.4022 169.961 82.7438C169.689 82.0853 169.617 81.3607 169.756 80.6617C169.895 79.9626 170.238 79.3205 170.741 78.8165C171.245 78.3125 171.886 77.9693 172.585 77.8303C173.283 77.6912 174.007 77.7626 174.664 78.0354C175.322 78.3081 175.884 78.77 176.28 79.3626C176.676 79.9552 176.887 80.652 176.887 81.3647C176.887 81.838 176.794 82.3066 176.613 82.7438C176.432 83.181 176.167 83.5782 175.832 83.9129C175.498 84.2475 175.101 84.513 174.664 84.6941C174.228 84.8752 173.76 84.9684 173.287 84.9684Z" fill="#CCCCCC"/>
<path d="M239.408 69.7951C242.443 69.7951 244.903 67.3326 244.903 64.2948C244.903 61.2571 242.443 58.7945 239.408 58.7945C236.374 58.7945 233.914 61.2571 233.914 64.2948C233.914 67.3326 236.374 69.7951 239.408 69.7951Z" fill="white"/>
<path d="M239.408 56.3288C238.388 56.3288 237.378 56.5299 236.435 56.9207C235.493 57.3115 234.637 57.8843 233.915 58.6064C233.194 59.3285 232.622 60.1858 232.231 61.1292C231.841 62.0727 231.64 63.0839 231.64 64.1051C231.64 68.3998 239.408 82.5027 239.408 82.5027C239.408 82.5027 247.176 68.3998 247.176 64.1051C247.176 63.0839 246.975 62.0727 246.585 61.1292C246.194 60.1858 245.622 59.3285 244.901 58.6064C244.179 57.8843 243.323 57.3115 242.381 56.9207C241.438 56.5299 240.428 56.3288 239.408 56.3288ZM239.408 67.8984C238.696 67.8984 238 67.6871 237.408 67.2911C236.816 66.8951 236.355 66.3323 236.082 65.6738C235.81 65.0153 235.739 64.2908 235.877 63.5917C236.016 62.8927 236.359 62.2506 236.863 61.7466C237.366 61.2426 238.007 60.8994 238.706 60.7603C239.404 60.6213 240.128 60.6927 240.786 60.9654C241.443 61.2382 242.006 61.7001 242.401 62.2927C242.797 62.8853 243.008 63.582 243.008 64.2948C243.008 64.768 242.915 65.2366 242.734 65.6738C242.553 66.111 242.288 66.5083 241.953 66.8429C241.619 67.1776 241.222 67.443 240.786 67.6241C240.349 67.8052 239.881 67.8984 239.408 67.8984Z" fill="#CCCCCC"/>
<path d="M203.221 26.3615C206.256 26.3615 208.716 23.899 208.716 20.8612C208.716 17.8235 206.256 15.3609 203.221 15.3609C200.187 15.3609 197.727 17.8235 197.727 20.8612C197.727 23.899 200.187 26.3615 203.221 26.3615Z" fill="white"/>
<path d="M203.221 12.8953C201.161 12.8953 199.185 13.7146 197.729 15.1729C196.272 16.6312 195.454 18.6092 195.454 20.6716C195.454 24.9663 203.221 39.0692 203.221 39.0692C203.221 39.0692 210.989 24.9663 210.989 20.6716C210.989 18.6092 210.171 16.6312 208.714 15.1729C207.257 13.7145 205.282 12.8953 203.221 12.8953ZM203.221 24.4649C202.509 24.4649 201.814 24.2535 201.222 23.8576C200.63 23.4616 200.168 22.8988 199.896 22.2403C199.623 21.5818 199.552 20.8572 199.691 20.1582C199.83 19.4591 200.173 18.817 200.676 18.313C201.179 17.8091 201.821 17.4659 202.519 17.3268C203.217 17.1878 203.941 17.2591 204.599 17.5319C205.257 17.8046 205.819 18.2665 206.215 18.8591C206.61 19.4518 206.821 20.1485 206.821 20.8612C206.821 21.3345 206.728 21.8031 206.547 22.2403C206.366 22.6775 206.101 23.0748 205.767 23.4094C205.433 23.744 205.036 24.0095 204.599 24.1906C204.162 24.3717 203.694 24.4649 203.221 24.4649Z" fill="#CCCCCC"/>
<path d="M217.241 99.383C220.276 99.383 222.736 96.9204 222.736 93.8827C222.736 90.845 220.276 88.3824 217.241 88.3824C214.207 88.3824 211.747 90.845 211.747 93.8827C211.747 96.9204 214.207 99.383 217.241 99.383Z" fill="white"/>
<path d="M217.241 85.9167C215.181 85.9167 213.206 86.736 211.749 88.1944C210.292 89.6527 209.474 91.6306 209.474 93.693C209.474 97.9878 217.241 112.091 217.241 112.091C217.241 112.091 225.009 97.9878 225.009 93.693C225.009 92.6718 224.808 91.6606 224.418 90.7172C224.028 89.7737 223.455 88.9165 222.734 88.1944C222.013 87.4723 221.156 86.8995 220.214 86.5087C219.272 86.1179 218.262 85.9167 217.241 85.9167ZM217.241 97.4864C216.529 97.4864 215.834 97.275 215.242 96.879C214.65 96.4831 214.188 95.9202 213.916 95.2618C213.643 94.6033 213.572 93.8787 213.711 93.1797C213.85 92.4806 214.193 91.8385 214.696 91.3345C215.199 90.8306 215.841 90.4873 216.539 90.3483C217.237 90.2092 217.961 90.2806 218.619 90.5534C219.277 90.8261 219.839 91.288 220.235 91.8806C220.63 92.4732 220.841 93.17 220.841 93.8827C220.841 94.3559 220.748 94.8246 220.567 95.2618C220.386 95.699 220.121 96.0963 219.787 96.4309C219.453 96.7655 219.056 97.031 218.619 97.2121C218.182 97.3932 217.714 97.4864 217.241 97.4864Z" fill="#3F3D56"/>
<path d="M171.203 57.0875C174.237 57.0875 176.697 54.6249 176.697 51.5872C176.697 48.5494 174.237 46.0869 171.203 46.0869C168.168 46.0869 165.708 48.5494 165.708 51.5872C165.708 54.6249 168.168 57.0875 171.203 57.0875Z" fill="white"/>
<path d="M171.203 43.6212C169.143 43.6212 167.167 44.4405 165.71 45.8988C164.253 47.3572 163.435 49.3351 163.435 51.3975C163.435 55.6922 171.203 69.7951 171.203 69.7951C171.203 69.7951 178.971 55.6922 178.971 51.3975C178.971 49.3351 178.152 47.3572 176.696 45.8988C175.239 44.4405 173.263 43.6212 171.203 43.6212ZM171.203 55.1908C170.491 55.1908 169.795 54.9795 169.203 54.5835C168.611 54.1875 168.15 53.6247 167.877 52.9662C167.605 52.3078 167.533 51.5832 167.672 50.8841C167.811 50.1851 168.154 49.543 168.657 49.039C169.161 48.535 169.802 48.1918 170.501 48.0528C171.199 47.9137 171.923 47.9851 172.58 48.2578C173.238 48.5306 173.8 48.9925 174.196 49.5851C174.592 50.1777 174.803 50.8744 174.803 51.5872C174.803 52.0604 174.71 52.529 174.529 52.9662C174.348 53.4035 174.083 53.8007 173.748 54.1354C173.414 54.47 173.017 54.7354 172.58 54.9165C172.144 55.0976 171.676 55.1908 171.203 55.1908Z" fill="#3F3D56"/>
<path d="M225.578 41.7245C228.612 41.7245 231.072 39.2619 231.072 36.2242C231.072 33.1865 228.612 30.7239 225.578 30.7239C222.543 30.7239 220.083 33.1865 220.083 36.2242C220.083 39.2619 222.543 41.7245 225.578 41.7245Z" fill="white"/>
<path d="M225.578 28.2582C223.518 28.2582 221.542 29.0775 220.085 30.5359C218.628 31.9942 217.81 33.9721 217.81 36.0345C217.81 40.3293 225.578 54.4321 225.578 54.4321C225.578 54.4321 233.346 40.3293 233.346 36.0345C233.346 33.9721 232.527 31.9942 231.071 30.5359C229.614 29.0775 227.638 28.2582 225.578 28.2582ZM225.578 39.8279C224.866 39.8279 224.17 39.6165 223.578 39.2205C222.986 38.8246 222.525 38.2617 222.252 37.6033C221.98 36.9448 221.908 36.2202 222.047 35.5212C222.186 34.8221 222.529 34.18 223.032 33.676C223.536 33.172 224.177 32.8288 224.876 32.6898C225.574 32.5507 226.298 32.6221 226.955 32.8949C227.613 33.1676 228.175 33.6295 228.571 34.2221C228.967 34.8147 229.178 35.5115 229.178 36.2242C229.178 37.18 228.798 38.0966 228.123 38.7724C227.448 39.4482 226.533 39.8279 225.578 39.8279V39.8279Z" fill="#3F3D56"/>
<path d="M104.834 204.736L109.207 204.239L109.374 187.117L102.92 187.85L104.834 204.736Z" fill="#FFB8B8"/>
<path d="M118.102 207.346L104.358 208.907L103.756 203.591L112.189 202.633C113.597 202.473 115.011 202.88 116.12 203.763C117.229 204.647 117.942 205.936 118.102 207.346Z" fill="#2F2E41"/>
<path d="M59.862 204.462L64.2631 204.462L66.3566 187.468L59.8613 187.468L59.862 204.462Z" fill="#FFB8B8"/>
<path d="M72.751 208.552L58.9195 208.553L58.9192 203.203L67.4067 203.203C68.8241 203.203 70.1834 203.766 71.1856 204.77C72.1878 205.773 72.7509 207.134 72.751 208.552Z" fill="#2F2E41"/>
<path d="M91.438 128.468L93.9509 136.65L107.592 166.201L111.182 194.232L102.925 194.591L97.8996 168.717L80.6688 150.03L65.592 198.903L58.7715 198.185C58.7715 198.185 64.5151 134.936 72.4125 128.468C72.4125 128.468 85.3355 122.359 91.438 128.468Z" fill="#2F2E41"/>
<path d="M80.2914 93.1617C85.1607 93.1617 89.1081 89.21 89.1081 84.3353C89.1081 79.4607 85.1607 75.509 80.2914 75.509C75.422 75.509 71.4746 79.4607 71.4746 84.3353C71.4746 89.21 75.422 93.1617 80.2914 93.1617Z" fill="#FFB8B8"/>
<path d="M92.3354 130.085C92.3354 130.085 93.4123 93.4298 78.3355 95.9454C63.2586 98.4609 69.5406 133.858 69.5406 133.858C69.5406 133.858 72.7714 140.327 80.6688 133.14C88.5662 125.952 92.3354 130.085 92.3354 130.085Z" fill="#CCCCCC"/>
<path opacity="0.2" d="M71.5151 111.398L75.0629 125.012L80.4679 130.423L72.951 127.929L71.5151 111.398Z" fill="black"/>
<path d="M92.447 145.587C91.9509 145.407 91.5002 145.121 91.1268 144.747C90.7534 144.374 90.4663 143.923 90.2856 143.427C90.105 142.93 90.0354 142.4 90.0815 141.874C90.1276 141.348 90.2885 140.838 90.5527 140.381L82.1675 130.662L88.7777 129.801L95.7271 139.162C96.4651 139.657 96.9959 140.406 97.2191 141.267C97.4423 142.128 97.3422 143.041 96.9379 143.833C96.5336 144.625 95.8531 145.241 95.0254 145.564C94.1977 145.888 93.2803 145.896 92.447 145.587Z" fill="#FFB8B8"/>
<path d="M82.2377 103.411L83.1818 121.999L94.31 136.374L89.6434 139.968L74.5665 124.874C74.5665 124.874 69.1819 106.547 73.1306 101.156C74.6114 99.1348 76.2436 98.5789 77.7054 98.6736C78.9082 98.7739 80.0328 99.3109 80.8676 100.184C81.7024 101.056 82.1897 102.204 82.2377 103.411Z" fill="#CCCCCC"/>
<path d="M79.2428 93.6096C79.2849 93.5718 79.3177 93.5247 79.3384 93.472C79.3592 93.4194 79.3674 93.3626 79.3624 93.3062C79.3574 93.2498 79.3394 93.1954 79.3097 93.1472C79.28 93.099 79.2395 93.0584 79.1914 93.0286C78.4085 92.5432 77.7706 91.8557 77.3448 91.0382C76.9189 90.2208 76.7209 89.3036 76.7714 88.3831C76.822 87.4625 77.1192 86.5726 77.632 85.8068C78.1447 85.041 78.854 84.4276 79.6854 84.031C82.2776 82.7938 85.7901 83.7563 87.7064 81.3788C88.0961 80.8701 88.3716 80.2833 88.5143 79.6583C88.6569 79.0334 88.6633 78.385 88.5329 77.7574C88.1195 75.5118 86.4332 73.8441 84.5447 72.7013C82.2248 71.2973 79.5585 70.5719 76.8478 70.6072C74.1372 70.6425 71.4907 71.4371 69.2081 72.901C66.9254 74.3648 65.098 76.4395 63.9328 78.8898C62.7675 81.3401 62.3112 84.0681 62.6153 86.7648C62.8591 88.9261 63.5252 91.3495 62.2415 93.1042C61.1117 94.6486 58.9791 94.9382 57.1058 95.3219C53.0877 96.145 49.2114 98.0437 46.4847 101.111C43.7579 104.178 42.3033 108.481 43.1254 112.503C43.9475 116.525 47.2457 120.06 51.2995 120.684C54.599 121.191 58.006 119.789 60.4291 117.49C62.8521 115.191 64.3836 112.087 65.3497 108.888C66.4963 105.091 66.9486 101 69.0187 97.6174C71.0444 94.3077 75.4098 91.9352 78.8312 93.6589C78.8968 93.6932 78.9712 93.7068 79.0446 93.698C79.1181 93.6892 79.1872 93.6584 79.2428 93.6096Z" fill="#2F2E41"/>
<path d="M147.602 209H37.3971C37.3019 209 37.2105 208.962 37.1432 208.895C37.0759 208.827 37.0381 208.736 37.0381 208.641C37.0381 208.545 37.0759 208.454 37.1432 208.387C37.2105 208.319 37.3019 208.281 37.3971 208.281H147.602C147.697 208.281 147.788 208.319 147.856 208.387C147.923 208.454 147.961 208.545 147.961 208.641C147.961 208.736 147.923 208.827 147.856 208.895C147.788 208.962 147.697 209 147.602 209Z" fill="#3F3D56"/>
</g>
<defs>
<clipPath id="clip0">
<rect width="290" height="209" fill="white"/>
</clipPath>
</defs>
</svg>
