<svg width="364" height="285" viewBox="0 0 364 285" fill="none" xmlns="http://www.w3.org/2000/svg">
<g clip-path="url(#clip0)">
<path opacity="0.1" d="M114.928 10.0577C124.812 1.2339 140.334 -0.552558 154.483 0.125417C198.89 2.33561 238.974 23.7867 273.649 48.0548C286.203 56.8379 298.56 66.3059 306.707 78.4043C323.306 103.032 318.374 137.147 295.312 157.436C287.463 164.338 277.951 169.639 268.185 174.321C250.82 182.66 232.084 189.355 212.376 191.27C198.324 192.626 184.097 191.524 170.123 189.629C131.089 184.331 92.7733 172.616 60.6565 152.575C46.5713 143.785 33.2889 132.856 27.4895 118.635C21.6901 104.415 25.3994 86.3942 39.7827 77.9772C45.7312 74.4958 52.8449 72.9229 59.8062 71.4449C70.0568 69.272 80.47 67.1296 89.7178 62.7126C99.2739 58.1498 110.585 49.326 108.688 39.2242C106.662 28.3868 105.036 18.8714 114.928 10.0577Z" fill="#1FA0BD"/>
<path opacity="0.1" d="M156.14 281.556C181.049 281.556 201.241 275.23 201.241 267.427C201.241 259.624 181.049 253.298 156.14 253.298C131.231 253.298 111.039 259.624 111.039 267.427C111.039 275.23 131.231 281.556 156.14 281.556Z" fill="#1FA0BD"/>
<path d="M248.625 122.117L250.261 209.141L253.74 209.552L252.429 121.771L248.625 122.117Z" fill="#F5C5CC"/>
<path d="M240.214 120.479L241.85 207.504L245.329 207.914L244.018 120.134L240.214 120.479Z" fill="#F5C5CC"/>
<path d="M242.27 115.93L242.44 210.847L245.997 210.508L244.642 114.066L242.27 115.93Z" fill="#CC929B"/>
<path d="M144.158 100.083L145.659 178.968L149.138 179.334L147.966 99.7639L144.158 100.083Z" fill="#F5C5CC"/>
<path d="M146.167 98.608L147.888 180.711L149.138 179.334L147.966 99.7639L146.167 98.608Z" fill="#CC929B"/>
<path d="M151.56 102.079L153.061 180.961L156.54 181.328L155.367 101.76L151.56 102.079Z" fill="#F5C5CC"/>
<path d="M153.569 100.601L155.293 182.704L156.54 181.328L155.367 101.761L153.569 100.601Z" fill="#CC929B"/>
<path d="M158.796 104.242L160.296 183.128L163.775 183.494L162.603 103.927L158.796 104.242Z" fill="#F5C5CC"/>
<path d="M160.804 102.771L162.529 184.87L163.775 183.494L162.603 103.927L160.804 102.771Z" fill="#CC929B"/>
<path d="M165.835 104.683L167.38 186.338L170.859 186.717L169.639 104.357L165.835 104.683Z" fill="#F5C5CC"/>
<path d="M167.84 103.157L169.612 188.141L170.859 186.717L169.639 104.357L167.84 103.157Z" fill="#CC929B"/>
<path d="M173.467 105.32L175.015 186.972L178.494 187.351L177.274 104.991L173.467 105.32Z" fill="#F5C5CC"/>
<path d="M175.476 103.794L177.247 188.775L178.494 187.351L177.274 104.991L175.476 103.794Z" fill="#CC929B"/>
<path d="M180.967 107.988L182.512 189.643L185.99 190.023L184.774 107.662L180.967 107.988Z" fill="#F5C5CC"/>
<path d="M182.972 106.462L184.744 191.446L185.99 190.023L184.774 107.662L182.972 106.462Z" fill="#CC929B"/>
<path d="M189.551 109.75L191.136 193.684L194.615 194.074L193.358 109.415L189.551 109.75Z" fill="#F5C5CC"/>
<path d="M191.556 108.184L193.368 195.538L194.615 194.073L193.358 109.415L191.556 108.184Z" fill="#CC929B"/>
<path d="M197.02 110.642L198.602 194.575L202.084 194.965L200.824 110.306L197.02 110.642Z" fill="#F5C5CC"/>
<path d="M199.026 109.072L200.838 196.429L202.084 194.965L200.824 110.306L199.026 109.072Z" fill="#CC929B"/>
<path d="M204.933 112.879L206.519 196.813L209.998 197.206L208.741 112.547L204.933 112.879Z" fill="#F5C5CC"/>
<path d="M206.942 111.313L208.751 198.67L209.998 197.206L208.741 112.547L206.942 111.313Z" fill="#CC929B"/>
<path d="M137.38 99.9435L137.211 94.9469L138.972 93.9841L265.305 119.913L265.539 126.256L137.38 99.9435Z" fill="#F5C5CC"/>
<path d="M138.972 93.9841L265.769 119.893L265.641 122.269L137.471 94.8011" fill="#CC929B"/>
<path d="M144.202 224.298L140.645 225.592H137.258L137.089 91.8485L138.952 89.2587L140.75 88.7298L143.017 88.3875L144.202 224.298Z" fill="#F5C5CC"/>
<path d="M144.202 224.298L140.645 225.592L140.425 92.1129L140.75 88.7298L143.017 88.3875L144.202 224.298Z" fill="#CC929B"/>
<path d="M213.531 115.364L215.116 199.294L218.595 199.687L217.338 115.029L213.531 115.364Z" fill="#F5C5CC"/>
<path d="M215.536 113.795L217.348 201.152L218.595 199.687L217.338 115.028L215.536 113.795Z" fill="#CC929B"/>
<path d="M222.193 116.69L223.808 202.416L227.287 202.816L225.997 116.351L222.193 116.69Z" fill="#F5C5CC"/>
<path d="M231.112 118.259L232.748 205.284L236.227 205.694L234.919 117.913L231.112 118.259Z" fill="#F5C5CC"/>
<path d="M233.117 116.635L234.984 207.213L236.227 205.694L234.919 117.913L233.117 116.635Z" fill="#CC929B"/>
<path d="M94.9142 198.643L91.3574 198.982L91.1914 105.357L91.188 104.066L93.5592 102.201L93.5965 104.798L94.9142 198.643Z" fill="#F5C5CC"/>
<path d="M107.448 193.389L103.891 193.728L103.725 101.632L103.722 98.8113L106.093 96.9469L106.147 100.73L107.448 193.389Z" fill="#F5C5CC"/>
<path d="M128.112 184.914L124.555 185.253L124.392 94.3198L124.385 90.3367L126.757 88.4722L126.831 93.7537L128.112 184.914Z" fill="#F5C5CC"/>
<path d="M137.089 181.524L133.532 181.863L133.372 93.1503L133.362 86.9468L135.734 85.0824L135.856 93.6994L137.089 181.524Z" fill="#F5C5CC"/>
<path d="M101.181 197.626L97.6243 197.965L97.4549 103.727V103.049L99.8261 101.184L99.8499 102.971L101.181 197.626Z" fill="#F5C5CC"/>
<path d="M119.474 189.151L115.917 189.49L115.751 97.0283L115.747 94.574L118.119 92.7096L118.166 96.1876L119.474 189.151Z" fill="#F5C5CC"/>
<path d="M113.545 190.846L109.989 191.185L109.826 99.2826L109.819 96.269L112.19 94.4045L112.245 98.33L113.545 190.846Z" fill="#F5C5CC"/>
<path d="M91.1203 183.002L90.2734 184.782C90.2734 184.782 88.0715 188.087 88.3256 193.172C88.5796 198.257 84.7789 211.731 84.7789 211.731C84.7789 211.731 88.2511 213.341 90.8764 213.172C93.5017 213.003 99.1757 215.799 99.1757 215.799L110.937 219.45L134.734 225.043C134.734 225.043 148.708 232.84 152.519 232.84C156.33 232.84 171.489 238.01 171.489 238.01C171.489 238.01 191.983 242.501 193.592 244.196C195.201 245.891 201.986 248.172 202.664 248.264C203.341 248.355 213.673 249.366 213.673 249.366C213.673 249.366 225.699 252.162 227.392 249.196C228.38 247.528 229.041 245.688 229.34 243.772C229.34 243.772 234.676 244.959 236.115 243.179C237.555 241.399 237.64 237.586 239.333 237.755C241.027 237.925 247.971 240.044 248.734 239.281C249.496 238.518 253.561 229.535 256.44 230.891C259.32 232.247 264.316 234.365 264.316 234.365L261.437 205.043L260.166 196.992C260.166 196.992 214.012 215.806 212.403 215.806C210.794 215.806 91.1203 183.002 91.1203 183.002Z" fill="#1FA0BD"/>
<path d="M259.912 157.324L259.658 198.68L211.715 217.077L90.2733 184.789C90.2733 184.789 82.0587 173.178 89.6805 162.331C89.6805 162.331 79.8568 148.771 92.0518 139.958L92.3533 139.886L138.46 128.771L158.965 132.52L249.564 149.103C249.564 149.103 258.462 152.409 259.912 157.324Z" fill="#1FA0BD"/>
<path opacity="0.1" d="M157.346 136.476C155.059 137.663 138.46 141.985 135.158 144.612C131.855 147.239 108.989 149.28 108.989 149.28L106.449 149.788C106.449 149.788 106.618 148.093 96.5402 143.178C94.9302 142.385 93.5039 141.264 92.3533 139.886L138.46 128.771L158.965 132.52C158.992 134.144 158.714 135.764 157.346 136.476Z" fill="black"/>
<path d="M87.648 120.127C87.648 120.127 86.8012 136.568 96.879 141.483C106.957 146.398 106.798 148.086 106.798 148.086L109.338 147.578C109.338 147.578 100.531 137.747 101.123 136.052C101.716 134.358 93.2476 125.798 92.0518 125.459C90.856 125.12 87.648 120.127 87.648 120.127Z" fill="#1FA0BD"/>
<path opacity="0.1" d="M87.8276 120.374C87.8276 120.374 86.9807 136.815 97.0585 141.731C107.136 146.646 106.967 148.341 106.967 148.341L109.508 147.832C109.508 147.832 100.7 138.002 101.293 136.307C101.886 134.612 93.4068 126.052 92.2313 125.713C91.0559 125.374 87.8276 120.374 87.8276 120.374Z" fill="black"/>
<path opacity="0.1" d="M90.1989 127.324C90.1989 127.324 98.3289 139.612 99.7685 140.036C101.208 140.459 92.1365 127.493 90.1989 127.324Z" fill="black"/>
<path d="M86.4726 117.832C86.4726 117.832 91.7232 113.595 92.4007 112.747C93.0782 111.9 100.531 111.561 100.785 111.561C101.039 111.561 106.713 108.086 113.064 106.984C119.416 105.883 121.957 105.374 121.957 105.374C121.957 105.374 131.272 101.476 131.78 100.628C132.288 99.7809 136.608 98.8487 141.943 103.001C147.278 107.154 159.05 125.798 159.134 127.832C159.219 129.866 159.981 133.595 157.695 134.781C155.408 135.968 138.809 140.29 135.507 142.917C132.204 145.544 109.328 147.585 109.328 147.585L100.7 138.171L96.127 130.798L88.5051 122.747L86.4726 117.832Z" fill="#1FA0BD"/>
<path opacity="0.1" d="M100.632 191.026C100.632 191.026 97.4718 191.704 99.2773 193.511C101.083 195.318 100.632 191.026 100.632 191.026Z" fill="black"/>
<path opacity="0.1" d="M111.699 194.643C111.699 194.643 108.312 198.711 108.989 199.84C109.667 200.969 111.699 194.643 111.699 194.643Z" fill="black"/>
<path opacity="0.1" d="M131.574 199.84C131.574 199.84 128.186 203.907 128.864 205.036C129.541 206.165 131.574 199.84 131.574 199.84Z" fill="black"/>
<path opacity="0.1" d="M155.737 206.619C155.737 206.619 152.349 210.687 153.027 211.816C153.704 212.945 155.737 206.619 155.737 206.619Z" fill="black"/>
<path opacity="0.1" d="M188.257 214.755C188.257 214.755 184.869 218.823 185.547 219.952C186.224 221.081 188.257 214.755 188.257 214.755Z" fill="black"/>
<path opacity="0.1" d="M121.411 195.772C121.411 195.772 118.024 199.84 118.701 200.969C119.379 202.097 121.411 195.772 121.411 195.772Z" fill="black"/>
<path opacity="0.1" d="M168.609 210.009C168.609 210.009 165.222 214.077 165.899 215.206C166.577 216.335 168.609 210.009 168.609 210.009Z" fill="black"/>
<path opacity="0.1" d="M178.545 213.172C178.545 213.172 175.157 217.24 175.835 218.372C176.512 219.504 178.545 213.172 178.545 213.172Z" fill="black"/>
<path opacity="0.1" d="M140.381 202.552C140.381 202.552 136.994 206.619 137.671 207.748C138.349 208.877 140.381 202.552 140.381 202.552Z" fill="black"/>
<path opacity="0.1" d="M225.746 227.186L229.33 243.766C229.33 243.766 229.357 232.155 225.746 227.186Z" fill="black"/>
<path opacity="0.1" d="M236.81 229.671L239.323 237.755C239.323 237.755 239.069 234.643 236.81 229.671Z" fill="black"/>
<path opacity="0.1" d="M248.734 239.274C248.734 239.274 243.371 219.728 242.24 218.372C241.108 217.016 245.505 238.033 248.734 239.274Z" fill="black"/>
<path opacity="0.1" d="M255.102 230.121C255.102 230.121 248.781 219.05 251.264 217.016C253.747 214.982 255.102 230.121 255.102 230.121Z" fill="black"/>
<path opacity="0.1" d="M89.6805 162.324L212.42 189.897L259.621 176.111L211.969 188.541C211.969 188.541 93.4068 161.195 89.6805 162.324Z" fill="black"/>
<path d="M93.3899 132.371L93.5593 211.27L97.0314 211.694L97.2008 132.117L93.3899 132.371Z" fill="#F5C5CC"/>
<path d="M95.4224 130.93L95.7611 213.05L97.0314 211.694L97.2008 132.117L95.4224 130.93Z" fill="#CC929B"/>
<path d="M100.758 134.49L100.927 213.389L104.399 213.813L104.569 134.235L100.758 134.49Z" fill="#F5C5CC"/>
<path d="M102.79 133.049L103.129 215.169L104.399 213.813L104.569 134.236L102.79 133.049Z" fill="#CC929B"/>
<path d="M107.956 136.778L108.125 215.677L111.598 216.101L111.767 136.524L107.956 136.778Z" fill="#F5C5CC"/>
<path d="M109.989 135.337L110.327 217.457L111.598 216.101L111.767 136.524L109.989 135.337Z" fill="#CC929B"/>
<path d="M114.985 137.337L115.155 219.006L118.627 219.443L118.796 137.073L114.985 137.337Z" fill="#F5C5CC"/>
<path d="M117.018 135.846L117.356 220.847L118.627 219.443L118.796 137.073L117.018 135.846Z" fill="#CC929B"/>
<path d="M122.607 138.1L122.776 219.769L126.249 220.206L126.418 137.836L122.607 138.1Z" fill="#F5C5CC"/>
<path d="M124.64 136.608L124.978 221.609L126.249 220.206L126.418 137.836L124.64 136.608Z" fill="#CC929B"/>
<path d="M130.06 140.897L130.229 222.565L133.701 223.003L133.87 140.632L130.06 140.897Z" fill="#F5C5CC"/>
<path d="M132.092 139.405L132.431 224.406L133.701 223.003L133.87 140.632L132.092 139.405Z" fill="#CC929B"/>
<path d="M140.645 141.269L140.984 228.643L142.254 227.199L142.424 142.531L140.645 141.269Z" fill="#CC929B"/>
<path d="M146.065 143.819L146.235 227.765L149.707 228.216L149.876 143.547L146.065 143.819Z" fill="#F5C5CC"/>
<path d="M148.098 142.286L148.437 229.66L149.707 228.216L149.876 143.547L148.098 142.286Z" fill="#CC929B"/>
<path d="M153.941 146.192L154.111 230.138L157.583 230.589L157.752 145.92L153.941 146.192Z" fill="#F5C5CC"/>
<path d="M155.974 144.659L156.313 232.033L157.583 230.589L157.752 145.92L155.974 144.659Z" fill="#CC929B"/>
<path d="M162.495 148.819L162.664 232.766L166.136 233.216L166.306 148.548L162.495 148.819Z" fill="#F5C5CC"/>
<path d="M164.527 147.286L164.866 234.66L166.136 233.216L166.306 148.548L164.527 147.286Z" fill="#CC929B"/>
<path d="M171.133 150.293L171.302 236.03L174.774 236.491L174.944 150.015L171.133 150.293Z" fill="#F5C5CC"/>
<path d="M173.165 148.727L173.504 237.966L174.774 236.491L174.944 150.015L173.165 148.727Z" fill="#CC929B"/>
<path d="M180.025 152.012L180.194 239.054L183.667 239.522L183.836 151.731L180.025 152.012Z" fill="#CC929B"/>
<path d="M189.087 154.385L189.256 241.427L192.728 241.894L192.898 154.104L189.087 154.385Z" fill="#F5C5CC"/>
<path d="M191.119 152.795L191.458 243.389L192.728 241.894L192.898 154.104L191.119 152.795Z" fill="#CC929B"/>
<path d="M197.471 156.165L197.64 243.206L201.112 243.674L201.282 155.883L197.471 156.165Z" fill="#CC929B"/>
<path d="M88.8167 226.609L85.2599 227.965H81.8724L81.703 103.557L83.5661 100.845L85.3649 100.293L87.9699 99.4893L88.8167 226.609Z" fill="#F5C5CC"/>
<path d="M88.8167 226.609L85.2599 227.965L85.0397 103.832L85.3649 100.293L87.9699 99.4893L88.8167 226.609Z" fill="#CC929B"/>
<path d="M85.5986 231.864C87.8437 231.864 89.6636 230.043 89.6636 227.796C89.6636 225.549 87.8437 223.728 85.5986 223.728C83.3536 223.728 81.5336 225.549 81.5336 227.796C81.5336 230.043 83.3536 231.864 85.5986 231.864Z" fill="#40414D"/>
<path d="M270.725 245.654L267.168 246.949H263.781L263.612 110.154L265.475 110.615L267.273 110.086L269.878 109.32L270.725 245.654Z" fill="#F5C5CC"/>
<path d="M270.725 245.654L267.168 246.949L266.948 113.469L267.273 110.086L269.878 109.32L270.725 245.654Z" fill="#CC929B"/>
<path d="M221.437 219.999L217.88 220.338L217.718 128.951L217.711 125.422L220.082 123.557L220.15 128.429L221.437 219.999Z" fill="#F5C5CC"/>
<path d="M233.971 214.745L230.414 215.084L230.255 125.385L230.245 120.168L232.616 118.303L232.704 124.493L233.971 214.745Z" fill="#F5C5CC"/>
<path d="M254.635 206.27L251.078 206.609L250.919 117.12L250.908 111.693L253.28 109.828L253.368 116.103L254.635 206.27Z" fill="#F5C5CC"/>
<path d="M259.885 108.303L260.055 203.219L263.612 202.88L262.257 106.439L259.885 108.303Z" fill="#F5C5CC"/>
<path d="M227.704 218.982L224.147 219.321L223.985 127.415L223.978 124.405L226.349 122.54L226.407 126.679L227.704 218.982Z" fill="#F5C5CC"/>
<path d="M240.068 212.203L236.512 212.542L236.352 123.079L236.342 117.625L238.713 115.761L238.801 122.093L240.068 212.203Z" fill="#F5C5CC"/>
<path d="M246.955 209.941L243.398 210.28L243.239 120.818V120.286L243.229 115.364L245.6 113.5L245.682 119.283L245.688 119.832L246.955 209.941Z" fill="#F5C5CC"/>
<path d="M214.323 219.379L263.442 198.474L266.83 199.263L266.941 207.06L215.228 227.06L214.323 219.379Z" fill="#F5C5CC"/>
<path d="M263.442 198.474L214.323 219.379L266.647 199.219" fill="#CC929B"/>
<path d="M87.0654 208.304L210.936 245.932L210.709 252.034L86.6149 213.728L87.0654 208.304Z" fill="#F5C5CC"/>
<path d="M216.356 267.288L212.799 268.644H209.412L209.242 129.32V128.642L209.506 128.256L211.105 125.93L212.904 125.378L215.509 124.574L215.536 129.32L216.356 267.288Z" fill="#F5C5CC"/>
<path d="M216.356 267.288L212.799 268.644L212.579 128.917L212.904 125.378L215.509 124.574L216.356 267.288Z" fill="#CC929B"/>
<path opacity="0.1" d="M215.509 124.574L215.536 129.32C214.556 129.464 213.569 129.556 212.579 129.598C210.14 129.693 209.242 129.324 209.242 129.324C209.242 129.276 209.337 128.896 209.506 128.263L211.105 125.937L212.904 125.385L215.509 124.574Z" fill="black"/>
<path opacity="0.1" d="M220.082 123.557L220.15 128.429C219.276 128.632 218.465 128.806 217.718 128.951V125.422L220.082 123.557Z" fill="black"/>
<path opacity="0.1" d="M226.349 122.54L226.407 126.679C225.563 126.947 224.754 127.191 223.985 127.415V124.405L226.349 122.54Z" fill="black"/>
<path opacity="0.1" d="M232.616 118.303L232.704 124.493C231.857 124.807 231.041 125.104 230.255 125.385V120.168L232.616 118.303Z" fill="black"/>
<path opacity="0.1" d="M238.713 115.761L238.802 122.093L236.85 122.879L236.352 123.079V117.625L238.713 115.761Z" fill="black"/>
<path opacity="0.1" d="M253.368 116.103L250.919 117.12V111.696L253.29 109.832L253.368 116.103Z" fill="black"/>
<path opacity="0.1" d="M245.685 119.283L243.243 120.3V115.378L245.614 113.513L245.685 119.283Z" fill="black"/>
<path d="M271.911 112.371C271.911 112.371 265.644 112.371 263.95 111.862C262.257 111.354 258.7 113.388 236.85 122.201C223.639 127.534 216.305 128.771 212.579 128.917C210.14 129.012 209.242 128.642 209.242 128.642C209.242 128.642 213.704 108.161 227.911 104.333C229.495 103.902 231.052 103.378 232.575 102.764L232.85 102.659C234.043 102.196 235.266 101.817 236.512 101.523C241.071 100.476 244.327 98.4724 252.568 98.4114C257.682 98.3256 262.673 99.9824 266.721 103.11C269.546 105.333 271.982 108.408 271.911 112.371Z" fill="#CC929B"/>
<path d="M233.463 102.54C215.882 110.127 213.199 124.307 212.579 128.917C210.14 129.012 209.242 128.642 209.242 128.642C209.242 128.642 213.704 108.161 227.911 104.333C229.495 103.902 231.052 103.378 232.575 102.764L232.85 102.659C233.053 102.628 233.256 102.588 233.463 102.54Z" fill="#F5C5CC"/>
<path opacity="0.1" d="M93.5593 102.201L93.5965 104.798C92.7395 105.011 91.94 105.198 91.1914 105.357V104.066L93.5593 102.201Z" fill="black"/>
<path opacity="0.1" d="M99.8261 101.184L99.8499 102.971C99.0165 103.246 98.2182 103.498 97.4549 103.727V103.049L99.8261 101.184Z" fill="black"/>
<path opacity="0.1" d="M106.093 96.9469L106.147 100.73C105.314 101.049 104.507 101.349 103.725 101.632V98.8113L106.093 96.9469Z" fill="black"/>
<path opacity="0.1" d="M112.19 94.4045L112.245 98.33C111.466 98.6306 110.659 98.9481 109.826 99.2826V96.269L112.19 94.4045Z" fill="black"/>
<path opacity="0.1" d="M118.119 92.7096L118.166 96.1876C117.398 96.4452 116.593 96.7255 115.751 97.0283V94.574L118.119 92.7096Z" fill="black"/>
<path opacity="0.1" d="M126.757 88.4722L126.831 93.7537C126.083 93.9096 125.273 94.0926 124.392 94.3198V90.3367L126.757 88.4722Z" fill="black"/>
<path opacity="0.1" d="M135.856 93.6858C135.058 93.3852 134.222 93.2003 133.372 93.1367V86.9332L135.744 85.0688L135.856 93.6858Z" fill="black"/>
<path d="M144.372 93.7265C144.372 93.7265 138.105 93.7265 136.411 93.2181C134.717 92.7096 131.16 89.9977 109.311 98.8114C96.0999 104.144 88.7659 105.381 85.0397 105.527C82.6007 105.622 81.703 105.252 81.703 105.252C81.703 105.252 85.0668 87.4553 99.9006 84.4519C100.728 84.2904 101.546 84.081 102.35 83.8247C103.261 83.5264 104.697 83.0993 106.628 82.6552C111.608 81.5095 119.863 80.2518 130.835 80.784C134.638 80.9265 138.245 82.5089 140.927 85.2112C142.049 86.3221 142.933 87.6501 143.525 89.1141C144.117 90.5781 144.405 92.1475 144.372 93.7265Z" fill="#CC929B"/>
<path d="M106.628 82.6552C89.0471 90.2417 85.6596 100.916 85.0397 105.527C82.6007 105.622 81.703 105.252 81.703 105.252C81.703 105.252 85.0668 87.4553 99.9006 84.4518C100.728 84.2904 101.546 84.081 102.35 83.8247C103.261 83.5162 104.697 83.0993 106.628 82.6552Z" fill="#F5C5CC"/>
<path d="M86.6149 132.117L86.5302 127.117L88.3086 126.185L209.92 153.473L209.581 159.829L86.6149 132.117Z" fill="#F5C5CC"/>
<path d="M88.3086 126.185L209.92 153.473L209.75 155.846L86.7944 126.978" fill="#CC929B"/>
<path d="M267.168 251.017C269.413 251.017 271.233 249.195 271.233 246.949C271.233 244.702 269.413 242.881 267.168 242.881C264.923 242.881 263.103 244.702 263.103 246.949C263.103 249.195 264.923 251.017 267.168 251.017Z" fill="#40414D"/>
<path d="M213.307 274.068C215.552 274.068 217.372 272.246 217.372 270C217.372 267.753 215.552 265.932 213.307 265.932C211.062 265.932 209.242 267.753 209.242 270C209.242 272.246 211.062 274.068 213.307 274.068Z" fill="#40414D"/>
<path d="M91.2456 186.382C91.2456 186.382 87.6311 190.45 86.5031 194.067C85.3751 197.684 87.8581 211.243 87.8581 211.243C89.131 208.987 90.0453 206.547 90.5681 204.009C91.4692 199.718 91.2456 186.382 91.2456 186.382Z" fill="#1FA0BD"/>
<path d="M262.765 220.169C262.765 220.169 264.967 231.355 265.136 233.05C265.305 234.745 259.547 232.203 259.547 232.203L262.765 220.169Z" fill="#1FA0BD"/>
<path d="M196.031 81.7569H195.973C195.96 81.6417 195.916 81.532 195.848 81.4382C195.693 81.2572 195.502 81.1116 195.286 81.0111L193.697 80.1264L195.069 80.6247C195.005 80.5141 194.933 80.4077 194.856 80.306L195.015 80.3942L194.906 80.2416L194.761 80.1908C194.029 79.3331 192.809 78.9772 191.627 78.9941H191.648C191.8 78.9738 191.956 78.9602 192.108 78.9501C191.769 78.9288 191.429 78.939 191.092 78.9806C191.13 78.997 191.17 79.0084 191.211 79.0145C191.102 79.0145 190.994 79.0348 190.872 79.0484C190.698 79.0956 190.514 79.0956 190.34 79.0484C190.233 78.9938 190.14 78.9147 190.069 78.8176C189.997 78.7204 189.95 78.6079 189.93 78.4891C189.761 77.8111 190.028 77.0822 190.106 76.3738C190.144 76.0412 190.109 75.7043 190.001 75.3873C190.001 75.3195 190.001 75.2517 190.001 75.1839C189.945 75.0339 189.855 74.8993 189.737 74.7909C189.619 74.6825 189.478 74.6035 189.324 74.5602C189.322 74.5862 189.322 74.6122 189.324 74.6382L189.266 74.6144C189.266 75.2212 189.266 75.8314 189.266 76.4382C188.74 76.023 188.274 75.5371 187.881 74.9941C187.811 74.9115 187.763 74.8123 187.742 74.7059C187.708 74.3975 188.101 74.1839 188.125 73.872C188.123 73.7719 188.089 73.6748 188.028 73.5954C187.967 73.5159 187.882 73.4584 187.786 73.4314L187.887 73.3941C187.767 73.3382 187.634 73.3148 187.501 73.3263C187.211 73.3925 186.926 73.4785 186.648 73.5839L186.736 73.6009C186.67 73.6225 186.603 73.6406 186.536 73.6551C185.686 73.8314 184.927 73.1534 184.314 72.5398L184.182 72.4076C183.89 69.855 183.419 66.9296 183.419 66.9296C183.419 66.9296 182.996 63.5872 182.403 61.7905C181.81 59.9939 180.957 56.821 180.957 56.821C180.957 56.821 179.005 52.9667 178.585 52.7972C178.421 52.7153 178.262 52.6248 178.108 52.526C177.925 51.9496 177.811 51.3532 177.769 50.7497C177.664 47.3802 181.262 44.9869 181.804 41.6479C182.247 38.936 180.54 36.2241 180.787 33.4749C180.902 32.2715 181.387 31.1393 181.648 29.9597C181.895 28.8153 181.929 27.6348 181.746 26.4783C181.66 25.8564 181.472 25.2529 181.19 24.6918C181.683 24.0552 182.094 23.3593 182.413 22.6206C182.962 21.0545 182.369 19.3053 181.512 17.8748C178.758 13.3222 173.179 9.73907 167.962 9.27466C165.859 9.08144 163.748 9.04415 161.641 9.01025C159.222 8.96618 156.723 8.93906 154.487 9.87467C150.042 11.7357 147.939 16.7086 145.239 20.7223C143.009 24.0417 140.153 26.8939 136.831 29.119C135.269 30.163 133.444 31.2749 133.078 33.1292C133.043 33.307 133.021 33.4872 133.013 33.6682C132.968 33.5052 132.93 33.34 132.902 33.1732C132.532 35.1089 133.898 36.9021 134.595 38.7496C134.96 39.7151 135.17 40.7321 135.219 41.7632C135.246 41.2754 135.246 40.7865 135.219 40.2988C135.896 43.8174 134.653 47.5938 133.884 51.1904C133.826 51.4548 133.782 51.7192 133.728 51.9836C133.097 52.1598 132.496 52.4306 131.946 52.787C130.74 53.5904 129.374 54.1224 127.942 54.3464C126.022 54.6482 124.294 55.6865 123.125 57.2413C122.909 57.5329 122.698 57.7329 122.516 57.7532C121.753 57.8413 117.505 71.1161 117.505 71.1161C117.505 71.1161 116.621 76.5839 116.621 77.8653C116.621 79.1467 115.094 88.401 115.094 88.401C115.094 88.401 114.582 90.096 114.755 90.7977C114.853 91.1875 114.619 92.4926 114.399 93.5435C114.307 93.505 114.225 93.4445 114.162 93.3672C113.908 92.8553 109.233 93.3672 110.68 96.7943C111.039 97.7164 111.598 98.5475 112.316 99.2283C111.672 100.842 111.113 102.344 111.188 102.533C111.188 102.533 111.188 103.757 111.296 105.269C110.304 105.947 109.491 106.557 109.491 106.557C109.42 108.428 110.666 108.727 111.838 108.659C112.14 109.744 112.58 110.605 113.227 110.839C115.351 111.611 116.709 111.269 117.39 111.856C118.071 112.442 121.703 113.581 121.703 113.581C123.245 113.813 124.799 113.962 126.357 114.025L126.98 114.337L126.906 113.998C127.106 113.961 127.014 113.723 126.763 113.32C126.652 112.801 126.509 112.123 126.35 111.35L127.282 111.011L127.536 111.388C127.197 113.164 126.98 114.347 126.98 114.347C126.98 114.347 125.287 120.429 126.045 121.371C126.804 122.313 126.045 123.513 126.045 123.513C126.045 123.513 125.876 125.052 126.303 125.052C126.73 125.052 127.234 127.022 126.811 127.11C126.387 127.198 124.44 128.822 125.117 129.164C125.795 129.507 125.117 130.276 125.117 131.049C125.117 131.612 126.154 132.446 126.716 132.856C126.614 133.222 126.509 133.612 126.411 133.995C126.12 135.127 125.893 136.219 125.964 136.615C126.133 137.558 125.541 140.212 125.71 141.069C125.879 141.927 126.476 143.808 126.049 144.581C125.622 145.354 126.133 147.92 126.133 147.92L126.899 155.198C126.899 155.198 126.391 157.256 126.899 157.768C127.407 158.28 127.834 164.28 128.342 164.965C128.85 165.649 129.619 169.246 129.02 170.446C128.42 171.646 129.785 174.127 129.785 174.127C129.785 174.127 129.7 177.039 129.7 177.809C129.7 178.578 130.463 179.778 130.463 179.778C130.463 179.778 131.228 183.89 131.14 184.917C131.052 185.945 131.648 187.402 131.648 187.402C131.648 187.402 132.16 190.399 132.075 191.084C131.99 191.768 132.753 192.711 132.753 192.711C132.753 192.711 133.688 194.938 133.43 195.88C133.173 196.823 134.023 197.765 134.023 197.765C134.023 197.765 133.938 199.819 133.938 200.077C133.938 200.335 135.723 202.389 135.723 202.389C135.723 202.389 134.958 203.931 135.385 204.531C135.811 205.131 135.723 207.27 136.401 207.958C137.078 208.646 136.909 211.467 137.756 211.982C138.603 212.497 139.368 212.925 139.538 214.036C139.707 215.148 140.388 216.779 141.154 217.036C141.299 217.136 141.425 217.261 141.526 217.406L141.187 218.847L140.141 223.203C140.141 223.203 139.124 229.538 139.206 230.481C139.287 231.423 138.19 232.365 138.19 232.365C138.19 232.365 137.255 237.847 137.085 238.532C136.916 239.216 137.17 240.501 137.17 240.501C137.17 240.501 136.577 243.755 137 243.928C137.424 244.101 139.209 245.898 139.209 245.898H139.348L139.165 246.542L136.235 256.949C136.235 256.949 133.525 261.488 139.805 263.8C140.015 264.206 140.208 264.217 139.981 264.139C140.188 264.315 144.385 267.868 144.724 269.532C145.063 271.196 147.952 272.956 148.972 273.129C149.992 273.302 156.787 278.78 159.25 273.386C161.712 267.993 154.917 264.478 154.917 264.478L149.744 261.145C149.744 261.145 147.112 257.291 146.696 256.606C146.279 255.922 145.506 252.579 146.018 252.067C146.279 251.803 147.095 249.457 147.834 247.227C147.901 247.013 147.973 246.803 148.04 246.593C149.483 246.932 151.116 246.254 151.116 246.254L154.9 240.281L155.578 239.233L155.699 239.477C155.699 239.477 158.843 239.735 160.371 239.993C160.856 240.012 161.342 239.952 161.807 239.813C161.865 239.938 161.922 240.067 161.977 240.196C162.347 240.99 162.662 241.809 162.918 242.647C163.172 243.759 163.43 247.698 163.43 247.698C163.43 247.698 161.736 253.352 161.306 254.379C160.876 255.406 161.729 263.973 170.14 260.545C170.14 260.545 171.157 258.918 172.092 258.918C173.027 258.918 175.32 256.606 174.463 254.122C173.606 251.637 170.059 244.016 172.512 239.993C174.49 236.752 174.331 232.406 171.672 230.386C171.56 230.301 171.441 230.226 171.333 230.152C171.362 229.721 171.362 229.288 171.333 228.857C170.737 220.636 166.929 220.206 166.929 220.206C166.929 220.206 164.72 219.694 164.466 218.85C164.317 218.355 162.403 215.799 160.818 213.721C160.872 213.633 160.923 213.545 160.974 213.457C160.974 213.426 161.008 213.396 161.021 213.365C161.096 213.226 161.167 213.084 161.235 212.935C162.468 210.162 162.149 206.128 162.085 205.406C162 204.463 162.085 203.263 162.085 201.894C162.085 200.524 163.44 198.467 163.274 197.697C163.108 196.928 164.89 193.758 164.89 192.985C164.89 192.212 166.14 187.585 166.14 187.585C166.14 187.585 168.602 182.273 169.114 180.731C169.602 179.253 178.301 152.31 179.005 150.127C179.019 150.079 179.034 150.031 179.053 149.985C179.053 149.985 181.831 140.89 179.971 134.917C179.85 134.523 179.704 134.136 179.534 133.761C180.103 133.486 180.496 133.286 180.496 133.286C180.496 133.286 179.392 130.032 179.9 128.832C180.408 127.632 180.069 125.32 180.069 125.32C180.069 125.32 178.037 124.12 177.949 123.608C177.86 123.096 177.014 122.408 177.271 121.723C177.528 121.039 178.965 121.384 178.799 119.839C178.633 118.293 176.848 116.669 177.017 115.727C177.186 114.784 177.864 113.073 177.017 112.045C176.17 111.018 175.828 109.391 175.743 108.106C175.72 107.767 175.794 106.767 175.913 105.449C176.818 106.013 177.753 106.527 178.714 106.991C178.714 106.991 182.366 107.506 182.539 107.164C182.865 106.728 183.235 106.326 183.643 105.964C188.23 104.852 186.19 96.4723 186.19 96.4723C186.19 96.4723 186.123 95.8587 186.014 94.8486C186.129 94.8195 186.238 94.7676 186.333 94.696C186.722 94.4113 186.817 93.8689 187.054 93.4418C187.324 93.0379 187.64 92.667 187.996 92.3367C188.836 91.4214 189.334 90.2519 189.815 89.1027C190.12 88.3705 190.431 87.6383 190.74 86.9027C191.048 86.1671 191.417 85.2891 192.095 84.7569C192.874 84.1298 193.931 84.0078 194.923 83.9162C194.883 83.1556 194.599 82.4281 194.114 81.8416C194.412 81.7502 194.727 81.7271 195.035 81.7741C195.344 81.821 195.638 81.9368 195.896 82.1128C195.909 82.0898 195.922 82.066 195.933 82.0416H195.953C196.01 81.9579 196.037 81.8578 196.031 81.7569ZM123.495 105.211C123.515 105.042 123.545 104.872 123.583 104.703C123.749 104.547 123.948 104.364 124.162 104.194L125.348 104.31C125.056 104.547 124.802 104.764 124.595 104.94C124.23 104.754 123.83 104.937 123.495 105.211ZM125.866 102.862C126.034 102.85 126.199 102.815 126.357 102.757C126.584 102.757 126.818 102.757 127.055 102.757H127.394C126.828 103.154 126.255 103.594 125.747 104.005L125.866 102.889V102.862ZM127.82 85.5739C127.82 85.5739 127.742 88.0078 127.915 90.4553C127.651 90.6417 127.377 90.8451 127.106 91.0587L127.705 85.4146L127.82 85.5739Z" fill="url(#paint0_linear)"/>
<path d="M172.064 258.559C171.133 258.559 170.117 260.169 170.117 260.169C161.733 263.559 160.886 255.084 161.309 254.067C161.733 253.05 163.426 247.457 163.426 247.457C163.426 247.457 163.172 243.559 162.918 242.457C162.661 241.629 162.348 240.819 161.98 240.033C161.411 238.735 160.801 237.457 160.801 237.457C160.801 237.457 164.443 228.474 169.27 229.321C170.13 229.465 170.943 229.814 171.641 230.338C174.293 232.338 174.453 236.64 172.478 239.83C170.022 243.813 173.579 251.356 174.426 253.813C175.272 256.271 172.996 258.559 172.064 258.559Z" fill="#FDC2CC"/>
<path d="M159.277 272.881C156.821 278.22 150.046 272.797 149.03 272.627C148.013 272.458 145.134 270.763 144.795 269.068C144.456 267.373 140.266 263.905 140.053 263.732C140.28 263.803 140.087 263.793 139.876 263.393C133.61 261.105 136.32 256.613 136.32 256.613L139.24 246.315L140.046 243.478L149.192 242.884C149.192 242.884 148.565 244.888 147.868 246.993C147.132 249.2 146.32 251.522 146.059 251.783C145.551 252.291 146.313 255.596 146.736 256.274C147.16 256.952 149.785 260.766 149.785 260.766L154.951 264.071C154.951 264.071 161.733 267.542 159.277 272.881Z" fill="#FDC2CC"/>
<path opacity="0.1" d="M149.199 242.881C149.199 242.881 148.572 244.884 147.874 246.989C147.397 246.852 146.972 246.572 146.658 246.186L139.29 246.355L139.246 246.311L140.053 243.474L149.199 242.881Z" fill="black"/>
<path d="M179.009 150.761C179.009 150.761 179.009 150.809 178.965 150.9C178.26 153.059 169.588 179.714 169.1 181.185C168.592 182.711 166.136 187.965 166.136 187.965C166.136 187.965 164.866 192.541 164.866 193.304C164.866 194.067 163.088 197.202 163.257 197.965C163.426 198.728 162.071 200.762 162.071 202.118C162.071 203.474 161.987 204.66 162.071 205.592C162.136 206.308 162.451 210.301 161.221 213.05C160.953 213.69 160.555 214.267 160.052 214.745C159.916 214.869 159.769 214.982 159.615 215.084C156.567 217.118 156.313 237.966 156.313 237.966L156.17 238.189L154.934 240.128L151.147 246.027C151.147 246.027 148.098 247.298 146.658 245.518L139.29 245.688C139.29 245.688 137.512 243.908 137.089 243.739C136.665 243.569 137.258 240.349 137.258 240.349C137.258 240.349 137.004 239.077 137.173 238.399C137.343 237.721 138.274 232.298 138.274 232.298C138.274 232.298 139.375 231.365 139.29 230.433C139.206 229.501 140.222 223.23 140.222 223.23L141.265 218.921L141.78 216.796L142.847 212.389L150.046 148.744L159.192 145.948L176.807 146.795L178.738 150.287L179.009 150.761Z" fill="#5F5D7E"/>
<path opacity="0.1" d="M154.195 182.033C154.111 183.643 153.687 186.101 153.857 187.541C154.026 188.982 154.619 194.406 154.365 195.423C154.111 196.44 155.296 197.626 155.72 198.135C156.143 198.643 155.889 200.168 155.974 201.355C156.059 202.541 157.159 203.643 157.159 203.643C157.159 203.643 155.889 206.355 156.821 206.779C157.752 207.202 159.7 211.101 159.7 211.101C159.7 211.101 160.354 211.925 161.221 213.043C160.889 213.86 160.333 214.565 159.615 215.077C156.567 217.111 156.313 237.959 156.313 237.959L156.17 238.182L154.28 234.399C154.28 234.399 143.017 217.365 142.255 217.111C142.071 217.039 141.908 216.923 141.78 216.772L142.847 212.365L150.046 148.72L159.192 145.924L176.807 146.771L167.532 147.703C167.532 147.703 163.409 150.663 163.382 150.754L155.974 153.89L154.619 174.229C154.619 174.229 154.28 180.422 154.195 182.033Z" fill="black"/>
<path opacity="0.1" d="M178.738 150.27C178.504 151.212 154.111 148.388 154.111 148.388L154.28 154.914L152.925 175.253C152.925 175.253 152.586 181.439 152.502 183.05C152.417 184.66 151.994 187.118 152.163 188.558C152.332 189.999 152.925 195.423 152.671 196.44C152.417 197.457 153.603 198.643 154.026 199.152C154.45 199.66 154.195 201.185 154.28 202.372C154.365 203.558 155.466 204.66 155.466 204.66C155.466 204.66 154.195 207.372 155.127 207.796C156.059 208.219 158.006 212.118 158.006 212.118C158.006 212.118 158.938 213.294 160.039 214.738C159.902 214.862 159.756 214.975 159.602 215.077C156.553 217.111 156.299 237.959 156.299 237.959L156.157 238.183L154.934 240.128L152.586 235.433C152.586 235.433 143.897 222.291 141.265 218.921L141.78 216.796L142.847 212.389L150.046 148.744L159.192 145.948L176.807 146.795L178.738 150.27Z" fill="black"/>
<path opacity="0.1" d="M171.651 230.325C171.312 236.393 164.924 239.362 161.98 240.033C161.411 238.735 160.801 237.457 160.801 237.457C160.801 237.457 164.443 228.474 169.27 229.321C170.133 229.46 170.949 229.804 171.651 230.325Z" fill="black"/>
<path d="M153.179 182.033C153.094 183.643 152.671 186.101 152.84 187.541C153.01 188.982 153.603 194.406 153.349 195.423C153.094 196.44 154.28 197.626 154.704 198.135C155.127 198.643 154.873 200.168 154.958 201.355C155.042 202.541 156.143 203.643 156.143 203.643C156.143 203.643 154.873 206.355 155.804 206.779C156.736 207.202 158.684 211.101 158.684 211.101C158.684 211.101 164.189 218.05 164.443 218.898C164.697 219.745 166.899 220.253 166.899 220.253C166.899 220.253 170.709 220.677 171.302 228.813C171.895 236.949 161.902 240.084 160.378 239.83C158.853 239.576 155.72 239.321 155.72 239.321L153.264 234.406C153.264 234.406 142 217.372 141.238 217.118C140.476 216.864 139.799 215.253 139.629 214.152C139.46 213.05 138.698 212.626 137.851 212.118C137.004 211.609 137.173 208.813 136.496 208.135C135.818 207.457 135.903 205.338 135.48 204.745C135.056 204.152 135.818 202.626 135.818 202.626C135.818 202.626 134.04 200.592 134.04 200.338C134.04 200.084 134.125 198.05 134.125 198.05C134.125 198.05 133.278 197.118 133.532 196.185C133.786 195.253 132.854 193.05 132.854 193.05C132.854 193.05 132.092 192.118 132.177 191.44C132.261 190.762 131.753 187.795 131.753 187.795C131.753 187.795 131.16 186.355 131.245 185.338C131.33 184.321 130.568 180.253 130.568 180.253C130.568 180.253 129.805 179.067 129.805 178.304C129.805 177.541 129.89 174.66 129.89 174.66C129.89 174.66 128.535 172.202 129.128 171.016C129.721 169.829 128.959 166.27 128.45 165.592C127.942 164.914 127.519 158.982 127.011 158.473C126.503 157.965 127.011 155.931 127.011 155.931L126.249 148.727C126.249 148.727 125.74 146.185 126.164 145.422C126.587 144.659 125.995 142.795 125.825 141.947C125.656 141.1 126.249 138.473 126.079 137.541C126.008 137.147 126.235 136.069 126.523 134.947C126.923 133.402 127.434 131.778 127.434 131.778C127.434 131.778 170.964 127.71 177.23 131.947C178.585 132.856 179.422 134.236 179.94 135.849C181.793 141.761 179.022 150.765 179.022 150.765L154.971 153.9L153.616 174.239C153.616 174.239 153.264 180.422 153.179 182.033Z" fill="#5F5D7E"/>
<path opacity="0.1" d="M146.235 212.203C146.235 212.203 153.772 209.914 155.55 211.44C157.329 212.965 146.235 212.203 146.235 212.203Z" fill="black"/>
<path opacity="0.1" d="M148.945 221.864C148.945 221.864 151.231 219.406 154.619 220.169C156.606 220.632 158.691 220.423 160.547 219.576L148.945 221.864Z" fill="black"/>
<path opacity="0.1" d="M156.905 224.66C156.905 224.66 163.088 223.813 163.342 224.576C163.596 225.338 156.905 224.66 156.905 224.66Z" fill="black"/>
<path opacity="0.1" d="M155.127 229.66C155.127 229.66 161.987 227.626 162.325 228.474C162.664 229.321 154.788 229.576 154.788 229.576L155.127 229.66Z" fill="black"/>
<path opacity="0.1" d="M162.834 183.982C162.834 183.982 156.397 189.66 157.329 190.253C158.26 190.846 162.834 183.982 162.834 183.982Z" fill="black"/>
<path opacity="0.1" d="M157.583 198.05C157.583 198.05 162.071 198.05 161.224 199.067C160.378 200.084 157.583 198.05 157.583 198.05Z" fill="black"/>
<path opacity="0.1" d="M160.293 202.033C160.293 202.033 158.514 203.558 158.938 203.897C159.361 204.236 160.293 202.033 160.293 202.033Z" fill="black"/>
<path opacity="0.1" d="M140.73 238.389C140.73 238.389 146.319 240.254 146.404 241.44C146.489 242.627 140.73 238.389 140.73 238.389Z" fill="black"/>
<path d="M167.83 61.1838L166.052 71.7772C166.052 71.7772 150.639 79.9128 150.384 79.9128C150.13 79.9128 139.121 78.0484 138.698 78.0484C138.274 78.0484 131.076 56.2685 136.157 54.9125C137.532 54.5464 139.528 53.6651 141.706 52.5701C147.58 49.6311 154.788 45.1667 154.788 45.1667C154.788 45.1667 165.544 43.9802 162.918 51.4379C161.902 54.3634 162.424 56.4922 163.45 58.0007C165.062 60.3397 167.83 61.1838 167.83 61.1838Z" fill="#FDC2CC"/>
<path opacity="0.1" d="M167.83 61.1838L166.052 71.7771C166.052 71.7771 150.639 79.9128 150.384 79.9128C150.13 79.9128 139.121 78.0484 138.698 78.0484C138.274 78.0484 131.076 56.2685 136.157 54.9125C137.532 54.5464 139.528 53.6651 141.706 52.5701C143.091 52.6617 144.033 52.7939 144.033 52.7939C144.033 52.7939 147.42 65.7601 147.674 69.7432C147.929 73.7263 156.736 74.15 157.329 73.9805C157.922 73.811 160.378 64.0652 160.378 64.0652C160.378 64.0652 160.124 60.6753 160.886 60.6753C161.523 60.6753 162.993 58.6414 163.45 58.0007C165.062 60.3397 167.83 61.1838 167.83 61.1838Z" fill="black"/>
<path opacity="0.1" d="M179.927 135.849C178.748 136.425 175.93 137.741 175.184 137.544C174.253 137.29 171.966 137.29 171.966 137.29C171.966 137.29 170.611 138.815 169.172 138.476C167.732 138.137 162.058 138.392 162.058 138.392C162.058 138.392 151.895 138.815 149.947 138.137C148 137.459 141.055 136.866 141.055 136.866C141.055 136.866 131.57 135.764 129.961 135.086C129.508 134.888 129.009 134.815 128.518 134.875C128.026 134.934 127.56 135.125 127.167 135.425C127.167 135.425 126.872 135.232 126.509 134.951C126.909 133.405 127.421 131.781 127.421 131.781C127.421 131.781 170.95 127.713 177.217 131.951C178.572 132.856 179.422 134.236 179.927 135.849Z" fill="black"/>
<path d="M144.033 53.4718C144.033 53.4718 135.48 52.2854 132.092 54.5735C130.888 55.3691 129.527 55.8952 128.102 56.1159C126.19 56.4124 124.468 57.4392 123.298 58.9804C123.081 59.2719 122.871 59.4685 122.692 59.4888C121.93 59.5736 117.695 72.7093 117.695 72.7093L127.942 87.0315C127.942 87.0315 127.688 94.9977 129.128 96.5232C130.568 98.0486 127.095 115.506 127.095 115.506C127.095 115.506 125.402 121.523 126.164 122.456C126.926 123.388 126.164 124.574 126.164 124.574C126.164 124.574 125.995 126.1 126.418 126.1C126.841 126.1 127.35 128.049 126.926 128.134C126.503 128.218 124.555 129.829 125.232 130.168C125.91 130.507 125.232 131.269 125.232 132.032C125.232 132.795 127.18 134.066 127.18 134.066C127.573 133.765 128.04 133.575 128.531 133.515C129.023 133.456 129.521 133.529 129.975 133.727C131.584 134.405 141.069 135.507 141.069 135.507C141.069 135.507 148.013 136.1 149.961 136.778C151.909 137.456 162.071 137.032 162.071 137.032C162.071 137.032 167.745 136.778 169.185 137.117C170.625 137.456 171.98 135.93 171.98 135.93C171.98 135.93 174.266 135.93 175.198 136.185C176.129 136.439 180.449 134.235 180.449 134.235C180.449 134.235 179.348 131.015 179.856 129.829C180.364 128.642 180.025 126.354 180.025 126.354C180.025 126.354 177.993 125.168 177.908 124.659C177.823 124.151 176.976 123.473 177.23 122.795C177.484 122.117 178.924 122.456 178.755 120.93C178.585 119.405 176.807 117.795 176.976 116.862C177.146 115.93 177.823 114.235 176.976 113.218C176.129 112.201 175.791 110.591 175.706 109.32C175.621 108.049 176.976 96.5232 176.976 96.5232L173.843 73.3026L183.413 68.5567C183.413 68.5567 182.989 65.2516 182.396 63.4719C181.804 61.6923 180.957 58.5566 180.957 58.5566C180.957 58.5566 179.009 54.743 178.585 54.5735C178.162 54.404 173.674 51.4379 172.657 51.8616C171.641 52.2854 163.596 58.4719 163.596 58.4719C163.596 58.4719 161.648 61.3533 160.886 61.3533C160.124 61.3533 160.378 64.7431 160.378 64.7431C160.378 64.7431 157.922 74.489 157.329 74.6585C156.736 74.828 147.929 74.4043 147.675 70.4212C147.42 66.4381 144.033 53.4718 144.033 53.4718Z" fill="#D39999"/>
<path d="M130.754 103.577C129.579 103.836 128.383 103.984 127.18 104.018C125.442 104.066 123.915 103.845 123.539 103.218C122.522 101.523 122.522 98.3029 122.522 98.3029C122.522 98.3029 127.116 99.3639 130.286 100.523L130.812 100.72C132.041 101.198 132.976 101.686 133.183 102.113C133.477 102.686 132.343 103.222 130.754 103.577Z" fill="#FDC2CC"/>
<path opacity="0.1" d="M164.019 56.438C172.578 56.438 179.517 49.4945 179.517 40.9293C179.517 32.3641 172.578 25.4207 164.019 25.4207C155.46 25.4207 148.521 32.3641 148.521 40.9293C148.521 49.4945 155.46 56.438 164.019 56.438Z" fill="black"/>
<path d="M164.019 55.76C172.578 55.76 179.517 48.8165 179.517 40.2513C179.517 31.6861 172.578 24.7427 164.019 24.7427C155.46 24.7427 148.521 31.6861 148.521 40.2513C148.521 48.8165 155.46 55.76 164.019 55.76Z" fill="#FDC2CC"/>
<path opacity="0.1" d="M129.721 123.981C129.721 123.981 134.125 123.981 135.818 124.405C137.512 124.829 141.069 124.913 141.069 124.913C141.069 124.913 131.245 124.574 129.721 123.981Z" fill="black"/>
<path opacity="0.1" d="M129.89 126.693C129.89 126.693 135.564 127.117 135.649 127.964C135.734 128.812 129.89 126.693 129.89 126.693Z" fill="black"/>
<path opacity="0.1" d="M173.081 116.269C173.081 116.269 176.553 117.54 176.468 117.964C176.383 118.388 173.419 117.286 173.081 116.269Z" fill="black"/>
<path d="M119.897 71.1839L117.695 72.7093C117.695 72.7093 116.764 78.1331 116.764 79.4043C116.764 80.6755 115.239 89.8282 115.239 89.8282C115.239 89.8282 114.731 91.5231 114.9 92.2011C115.07 92.8791 114.223 96.3537 114.223 96.3537C114.223 96.3537 111.174 103.388 111.344 103.811C111.513 104.235 125.825 105.591 125.825 105.591L127.858 86.6078L119.897 71.1839Z" fill="#D39999"/>
<path d="M113.461 101.523L111.344 103.811C111.344 103.811 111.259 111.269 113.376 112.032C115.493 112.795 116.848 112.456 117.526 113.049C118.203 113.642 121.845 114.744 121.845 114.744C121.845 114.744 125.825 115.337 127.011 115.167C128.196 114.998 120.066 108.472 125.402 102.964L113.461 101.523Z" fill="#D39999"/>
<path d="M180.448 65.2516L183.413 68.5568C183.413 68.5568 184.683 76.4382 184.344 77.5399C184.005 78.6416 186.123 97.7944 186.123 97.7944C186.123 97.7944 188.155 106.1 183.582 107.201C183.176 107.558 182.807 107.956 182.481 108.388C182.312 108.727 178.67 108.218 178.67 108.218L173.081 71.5229L180.448 65.2516Z" fill="#D39999"/>
<path opacity="0.1" d="M140.137 95.591C140.137 95.591 151.231 88.9808 153.264 88.6418C155.296 88.3028 167.915 82.2858 167.915 82.2858C167.915 82.2858 174.182 85.5061 174.774 87.9638C175.367 90.4215 172.149 100.252 172.149 100.252C172.149 100.252 161.817 107.456 161.224 108.981C160.632 110.506 151.739 114.998 151.739 115.761C151.739 116.523 137.681 124.829 131.499 117.54C125.317 110.252 125.402 108.134 125.402 108.134L141.069 104.489L142.593 97.7097L140.137 95.591Z" fill="black"/>
<path d="M140.137 94.913C140.137 94.913 151.231 88.3027 153.264 87.9637C155.296 87.6247 167.915 81.6077 167.915 81.6077C167.915 81.6077 174.182 84.8281 174.774 87.2858C175.367 89.7434 172.149 99.574 172.149 99.574C172.149 99.574 161.817 106.778 161.224 108.303C160.632 109.828 151.739 114.32 151.739 115.083C151.739 115.845 137.681 124.151 131.499 116.862C125.317 109.574 125.402 107.455 125.402 107.455L141.069 103.811L142.593 97.0316L140.137 94.913Z" fill="#C4C8E2"/>
<path d="M123.03 97.8791L122.522 102.116L118.495 101.822L114.562 101.53C114.562 101.53 112.275 101.53 110.836 98.1401C109.396 94.7503 114.054 94.2418 114.308 94.7503C114.501 95.1333 119.389 96.7299 121.76 97.4859L123.03 97.8791Z" fill="#FDC2CC"/>
<path opacity="0.1" d="M123.03 97.8791L122.522 102.116L118.495 101.822C119.152 100.845 120.527 99.0588 121.763 97.4859L123.03 97.8791Z" fill="black"/>
<path opacity="0.1" d="M122.522 98.3029C122.522 98.3029 127.116 99.3639 130.286 100.523C130.076 100.862 128.674 103.059 127.18 104.018C125.442 104.066 123.915 103.845 123.539 103.218C122.522 101.523 122.522 98.3029 122.522 98.3029Z" fill="black"/>
<path opacity="0.1" d="M130.754 103.577L130.679 102.991C130.679 102.991 130.646 102.866 130.615 102.676C130.554 102.289 130.51 101.638 130.795 101.242C130.961 101.008 130.923 100.842 130.815 100.723C132.045 101.201 132.98 101.689 133.186 102.116C133.478 102.686 132.343 103.222 130.754 103.577Z" fill="black"/>
<path d="M145.134 100.805C145.134 100.805 140.534 105.411 140.249 106.398C139.965 107.384 131.272 107.415 131.272 107.415L130.679 102.669C130.679 102.669 130.646 102.544 130.615 102.354C130.554 101.967 130.51 101.316 130.795 100.92C131.218 100.327 130.314 100.157 130.314 100.157C130.314 100.157 127.969 104.025 125.995 104.14C125.995 104.14 123.257 106.116 123.285 106.513C123.285 106.513 121.957 107.727 121.93 109.194C121.902 110.662 120.209 111.259 118.966 110.835C117.722 110.411 114.646 109.506 113.657 109.649C112.668 109.791 109.538 110.72 109.65 107.811C109.65 107.811 113.715 104.761 114.731 104.845C115.747 104.93 118.119 103.744 118.457 102.811C118.796 101.879 124.555 94.7604 124.555 94.7604C124.555 94.7604 128.196 91.3129 129.663 90.9739C129.663 90.9739 132.6 88.6858 137.031 92.1604C137.031 92.1604 143.159 95.9435 143.355 96.452C143.511 96.852 145.29 98.5605 145.439 99.8418C145.473 100.015 145.463 100.194 145.41 100.362C145.357 100.531 145.262 100.683 145.134 100.805Z" fill="#FDC2CC"/>
<path opacity="0.1" d="M130.764 94.0655C130.764 94.0655 131.215 96.6655 130.991 97.5977C130.768 98.53 130.314 100.14 130.314 100.14C130.314 100.14 133.051 95.8452 130.764 94.0655Z" fill="black"/>
<path opacity="0.1" d="M130.961 100.394C130.961 100.394 132.373 98.8385 132.685 99.2351C132.996 99.6317 130.961 100.394 130.961 100.394Z" fill="black"/>
<path d="M188.792 84.5332C188.792 86.6898 188.09 88.7877 186.791 90.509C185.493 92.2303 183.669 93.4812 181.597 94.0723C180.73 94.3217 179.833 94.4495 178.931 94.452H178.88C177.579 94.4516 176.291 94.1946 175.089 93.6959C173.887 93.1972 172.795 92.4665 171.875 91.5454C170.955 90.6244 170.226 89.5311 169.728 88.3279C169.23 87.1248 168.975 85.8353 168.975 84.5332C168.973 83.9511 169.026 83.3701 169.131 82.7976C169.517 80.6294 170.615 78.652 172.251 77.1784C173.887 75.7049 175.967 74.8193 178.162 74.6619C178.399 74.6416 178.64 74.6314 178.88 74.6314C181.506 74.6305 184.025 75.6729 185.884 77.5296C187.742 79.3862 188.788 81.9053 188.792 84.5332Z" fill="#F8BDC5"/>
<path d="M194.019 83.3163C194.503 83.8956 194.786 84.6165 194.825 85.3705C193.836 85.462 192.793 85.5807 192.007 86.201C191.329 86.7299 190.99 87.557 190.652 88.3265C190.342 89.0519 190.035 89.7773 189.73 90.5028C189.249 91.6384 188.755 92.7977 187.918 93.7028C187.563 94.0292 187.247 94.3954 186.976 94.7943C186.742 95.2181 186.637 95.7537 186.258 96.0384C186.067 96.1552 185.85 96.2228 185.627 96.2352C185.403 96.2476 185.18 96.2045 184.978 96.1096C184.561 95.9537 184.188 95.6927 183.772 95.5266C183.504 95.4234 183.226 95.3507 182.942 95.3096C181.702 95.1266 180.337 95.3944 179.283 94.7266C179.161 94.6455 179.048 94.5524 178.944 94.4486C178.533 94.0449 178.235 93.5398 178.081 92.9842C178.003 92.7589 177.975 92.5195 177.999 92.2825C178.048 92.0657 178.143 91.8622 178.279 91.6864C178.415 91.5107 178.588 91.367 178.785 91.2655C178.843 91.2316 178.9 91.1977 178.961 91.1672C179.978 90.635 181.39 90.5096 181.922 89.4723C182.43 88.4892 181.8 87.2926 181.028 86.4993C180.662 86.1264 180.228 85.7027 180.279 85.1807C180.327 84.7197 180.736 84.3976 181.079 84.0891C182.047 83.2129 182.699 82.0417 182.935 80.7569C183.025 80.36 183.018 79.9472 182.915 79.5535C182.809 79.2712 182.664 79.0053 182.484 78.7637L181.387 77.1365C181.048 76.5621 180.585 76.071 180.032 75.6992C179.575 75.4246 179.049 75.3297 178.589 75.0585C178.413 74.9625 178.266 74.8223 178.162 74.6517C178.104 74.5564 178.084 74.4423 178.108 74.3331C178.165 74.0619 178.447 73.9297 178.728 73.8517C179.455 73.6405 180.216 73.568 180.97 73.6382C181.209 73.6891 181.456 73.6891 181.695 73.6382C181.814 73.6065 181.917 73.5332 181.986 73.4318C182.055 73.3304 182.085 73.2075 182.071 73.0856C182.904 72.8687 183.694 73.5195 184.303 74.1297C184.913 74.7399 185.659 75.4077 186.519 75.2348C186.827 75.1738 187.112 74.9975 187.423 74.9636C187.735 74.9297 188.121 75.1331 188.101 75.4484C188.081 75.7636 187.688 75.967 187.721 76.2721C187.742 76.3777 187.79 76.4759 187.86 76.5569C188.251 77.0955 188.715 77.5769 189.239 77.9874C189.239 77.3874 189.239 76.784 189.239 76.184C189.917 76.3535 190.164 77.2213 190.086 77.923C190.008 78.6247 189.747 79.3332 189.91 80.0179C189.93 80.1352 189.978 80.2461 190.048 80.342C190.119 80.4379 190.21 80.5161 190.316 80.5705C190.49 80.6177 190.674 80.6177 190.848 80.5705C192.403 80.3501 194.219 80.7637 194.991 82.1298L193.636 81.6383L195.211 82.4993C195.427 82.5986 195.619 82.7431 195.774 82.923C195.849 83.0145 195.893 83.1272 195.9 83.2453C195.907 83.3633 195.877 83.4807 195.814 83.5807C195.554 83.4053 195.257 83.2905 194.946 83.2448C194.636 83.199 194.319 83.2234 194.019 83.3163Z" fill="#585268"/>
<g opacity="0.1">
<path opacity="0.1" d="M191.034 80.4925C191.209 80.5397 191.392 80.5397 191.566 80.4925C191.719 80.4721 191.871 80.4586 192.027 80.4484C191.688 80.4269 191.348 80.4372 191.011 80.4789L191.034 80.4925Z" fill="black"/>
<path opacity="0.1" d="M194.341 81.5704L194.923 81.8924L194.815 81.7399L194.341 81.5704Z" fill="black"/>
<path opacity="0.1" d="M189.971 77.9094C189.971 77.5162 189.971 77.1195 189.971 76.7229C189.912 76.5753 189.821 76.443 189.703 76.3361C189.586 76.2291 189.446 76.1504 189.293 76.106V77.2992C189.506 77.5166 189.732 77.7203 189.971 77.9094Z" fill="black"/>
<path opacity="0.1" d="M195.018 83.1976C195.317 83.249 195.601 83.3647 195.851 83.5365C195.911 83.4578 195.941 83.3606 195.936 83.262C195.638 83.1746 195.325 83.1526 195.018 83.1976Z" fill="black"/>
<path opacity="0.1" d="M185.726 96.0587C185.31 95.9028 184.937 95.6418 184.52 95.4757C184.253 95.3726 183.974 95.2998 183.69 95.2587C182.451 95.0757 181.085 95.3435 180.032 94.6757C179.91 94.5946 179.796 94.5015 179.693 94.3977C179.282 93.994 178.984 93.4889 178.829 92.9333C178.752 92.708 178.724 92.4686 178.748 92.2316C178.797 92.0148 178.892 91.8113 179.028 91.6355C179.164 91.4598 179.336 91.3161 179.534 91.2146C179.591 91.1807 179.649 91.1468 179.71 91.1163C180.743 90.5841 182.139 90.4587 182.671 89.4214C183.179 88.4383 182.549 87.2417 181.776 86.4485C181.411 86.0756 180.977 85.6518 181.028 85.1298C181.075 84.6688 181.485 84.3467 181.827 84.0383C182.795 83.162 183.448 81.9908 183.684 80.706C183.774 80.3091 183.767 79.8963 183.663 79.5026C183.558 79.2203 183.413 78.9544 183.233 78.7128L182.136 77.0856C181.797 76.5113 181.334 76.0201 180.781 75.6483C180.323 75.3737 179.798 75.2788 179.337 75.0076C179.162 74.9116 179.015 74.7714 178.911 74.6009C178.853 74.5055 178.833 74.3915 178.856 74.2822C178.914 74.011 179.212 73.8788 179.476 73.8008C179.918 73.6768 180.373 73.6018 180.831 73.5771C180.146 73.5367 179.459 73.6123 178.799 73.8008C178.535 73.8788 178.236 74.011 178.179 74.2822C178.156 74.3915 178.175 74.5055 178.233 74.6009C178.337 74.7714 178.485 74.9116 178.66 75.0076C179.121 75.2788 179.646 75.3737 180.103 75.6483C180.656 76.0201 181.119 76.5113 181.458 77.0856L182.556 78.7128C182.736 78.9544 182.88 79.2203 182.986 79.5026C183.089 79.8963 183.096 80.3091 183.006 80.706C182.77 81.9908 182.118 83.162 181.15 84.0383C180.811 84.3467 180.398 84.6688 180.35 85.1298C180.299 85.6518 180.733 86.0756 181.099 86.4485C181.871 87.2417 182.501 88.4383 181.993 89.4214C181.461 90.4553 180.066 90.5807 179.033 91.1163C178.972 91.1468 178.914 91.1807 178.856 91.2146C178.659 91.3161 178.486 91.4598 178.35 91.6355C178.215 91.8113 178.119 92.0148 178.071 92.2316C178.047 92.4686 178.074 92.708 178.152 92.9333C178.306 93.4889 178.604 93.994 179.016 94.3977C179.119 94.5015 179.232 94.5946 179.354 94.6757C180.408 95.3536 181.773 95.0757 183.013 95.2587C183.297 95.2998 183.575 95.3726 183.843 95.4757C184.259 95.6418 184.632 95.9028 185.049 96.0587C185.351 96.183 185.685 96.2114 186.004 96.1401C185.91 96.1197 185.817 96.0925 185.726 96.0587Z" fill="black"/>
<path opacity="0.1" d="M187.251 75.1568C187.459 75.1035 187.664 75.0367 187.864 74.9568C187.744 74.8982 187.61 74.8735 187.478 74.8856C187.19 74.9539 186.907 75.0399 186.631 75.1433C186.834 75.1937 187.046 75.1983 187.251 75.1568Z" fill="black"/>
<path opacity="0.1" d="M181.702 73.5771C181.942 73.6225 182.189 73.6167 182.427 73.5602C182.545 73.5285 182.647 73.4558 182.716 73.3551C182.785 73.2544 182.816 73.1324 182.803 73.011C182.581 72.9536 182.348 72.9536 182.125 73.011C182.139 73.1329 182.109 73.2558 182.04 73.3572C181.971 73.4586 181.868 73.5319 181.749 73.5636C181.726 73.5708 181.702 73.5765 181.678 73.5805L181.702 73.5771Z" fill="black"/>
</g>
<path d="M169.947 79.1094C168.684 80.0552 166.668 80.4654 164.815 80.601C163.367 80.7158 161.911 80.7158 160.462 80.601L157.2 79.3738C157.2 79.3738 157.464 78.8484 157.912 78.1535C158.802 76.7704 160.422 74.7128 162.112 74.7975C164.653 74.9229 167.322 75.0484 167.576 75.0484C167.83 75.0484 172.783 76.9908 169.947 79.1094Z" fill="#FDC2CC"/>
<path d="M161.695 11.2544C159.283 11.2103 156.794 11.1832 154.582 12.112C150.134 13.9527 148.037 18.8714 145.347 22.8376C143.117 26.1243 140.269 28.9461 136.963 31.1461C135.405 32.1631 133.596 33.2818 133.22 35.1123C132.82 37.0479 134.202 38.8411 134.914 40.6751C136.421 44.5768 134.914 48.8989 134.023 52.9871C133.606 54.9505 133.338 56.9426 133.22 58.9465C133.123 59.8743 133.184 60.8118 133.4 61.7194C134.077 64.1126 136.638 65.8414 136.658 68.3296C136.658 70.0245 135.466 71.6246 135.815 73.272C136.265 75.3772 138.82 76.1365 140.937 76.4992C141.444 76.6386 141.981 76.622 142.478 76.4517C142.817 76.289 143.095 75.9772 143.44 75.8043C144.616 75.2212 145.92 76.4517 147.234 76.428C148.884 76.3975 149.812 74.4483 149.853 72.7975C149.893 71.1466 149.453 69.4076 150.046 67.8822C150.835 65.8482 153.094 64.8821 155.002 63.8143C157.112 62.6312 159.121 60.9228 159.744 58.5871C160.134 57.143 159.958 55.6142 159.802 54.1295C159.565 51.8515 159.378 49.5633 159.25 47.2785C158.911 41.448 163.752 36.5903 169.568 37.0445H169.676C171.37 37.1835 173.369 37.3462 174.564 36.1123C175.039 35.6208 175.34 34.9428 175.919 34.6038C177.051 33.9597 178.606 34.8784 179.744 34.2445C180.635 33.7462 180.825 32.5495 180.686 31.5326C180.547 30.5156 180.191 29.4987 180.381 28.502C180.652 27.0885 181.936 26.0783 182.413 24.7189C182.962 23.1698 182.369 21.4376 181.516 20.0341C178.782 15.5222 173.216 11.99 167.999 11.5154C165.903 11.312 163.799 11.2883 161.695 11.2544Z" fill="#865A61"/>
<path opacity="0.1" d="M157.912 78.1433C159.924 78.5569 162.373 79.4755 164.815 80.5976C163.367 80.7124 161.911 80.7124 160.462 80.5976L157.2 79.3704C157.2 79.3704 157.464 78.8382 157.912 78.1433Z" fill="black"/>
<path opacity="0.1" d="M182.945 95.3096C181.705 95.1266 180.34 95.3944 179.287 94.7266C179.165 94.6455 179.051 94.5524 178.948 94.4486H178.897C177.595 94.4504 176.305 94.1952 175.101 93.6977C173.897 93.2002 172.804 92.4701 171.882 91.5492C170.96 90.6283 170.229 89.5347 169.731 88.3308C169.232 87.1269 168.975 85.8365 168.975 84.5332C168.973 83.9511 169.026 83.3701 169.131 82.7976C172.603 84.74 175.418 86.7366 175.96 87.7129C176.761 88.9978 177.704 90.1884 178.772 91.2621C179.717 92.2791 180.73 93.2554 181.597 94.0723C182.112 94.5503 182.576 94.974 182.945 95.3096Z" fill="black"/>
<path d="M183.497 96.4384C183.497 96.4384 177.315 91.0994 175.621 88.0485C173.928 84.9976 150.13 72.0313 153.179 81.862C156.228 91.6926 166.729 92.6248 166.729 92.6248C166.729 92.6248 170.117 96.4384 170.455 98.3028C170.794 100.167 171.98 102.879 171.98 102.879L177.654 105.422L180.279 104.828C180.279 104.828 186.461 101.438 183.497 96.4384Z" fill="#FDC2CC"/>
<path opacity="0.1" d="M171.641 102.54C171.641 102.54 181.634 108.218 182.65 94.913L185.191 95.7604L182.65 104.744L178.331 107.879C178.331 107.879 172.318 105.083 171.641 102.54Z" fill="black"/>
<path d="M171.98 102.879C171.98 102.879 181.973 108.557 182.989 95.252L185.53 96.0994L182.989 105.083L178.67 108.218C178.67 108.218 172.657 105.422 171.98 102.879Z" fill="#D39999"/>
<path d="M180.804 35.4547C180.919 34.2648 181.404 33.1428 181.658 31.9733C181.908 30.8419 181.943 29.6734 181.759 28.5292C181.657 27.7027 181.349 26.915 180.865 26.2376C180.526 25.8139 179.51 24.8817 178.917 25.302C178.579 25.5427 178.487 26.9359 178.352 27.3359C177.876 28.6795 177.239 29.9601 176.455 31.1495C178.13 33.4628 179.134 36.1943 179.356 39.0425C179.578 41.8907 179.009 44.7448 177.712 47.29C176.416 49.8352 174.442 51.9725 172.008 53.4659C169.574 54.9593 166.776 55.7509 163.921 55.7532C163.552 55.7532 163.186 55.7363 162.823 55.7092C162.485 56.299 162.176 56.8956 161.865 57.4922C161.497 58.0981 161.248 58.769 161.133 59.4685C161.105 60.1373 161.207 60.8051 161.434 61.4347C162.065 63.5055 162.936 65.4954 164.029 67.3635C164.411 67.9435 164.723 68.5657 164.961 69.2178C165.154 69.8449 165.188 70.5161 165.438 71.1195C166.001 72.4755 167.471 73.1534 168.826 73.7196C169.636 74.0585 170.482 74.3975 171.356 74.3263C171.438 74.3325 171.521 74.3215 171.598 74.2939C171.675 74.2664 171.746 74.223 171.806 74.1665C171.865 74.11 171.913 74.0417 171.944 73.9659C171.976 73.8901 171.992 73.8085 171.99 73.7263C172.037 73.3711 172 73.0097 171.882 72.6712C171.765 72.3328 171.57 72.0266 171.312 71.7772C172.462 72.1376 173.668 72.2813 174.869 72.2009C174.977 72.2234 175.089 72.2144 175.191 72.1751C175.294 72.1357 175.383 72.0677 175.448 71.979C175.513 71.8904 175.551 71.7849 175.558 71.6752C175.564 71.5655 175.539 71.4561 175.486 71.3602C175.174 70.0816 174.698 68.8487 174.07 67.6924C173.453 66.5534 172.667 65.2279 173.23 64.0652C173.552 63.3872 174.229 63.0076 174.846 62.6042C176.929 61.2482 178.775 59.038 178.612 56.5532C178.524 55.1973 177.84 53.9057 177.799 52.5396C177.694 49.2074 181.278 46.8243 181.82 43.5327C182.251 40.8412 180.543 38.1767 180.804 35.4547Z" fill="#865A61"/>
<g opacity="0.1">
<path opacity="0.1" d="M136.475 66.9737C136.455 64.4855 133.898 62.7567 133.217 60.3634C133.112 59.986 133.047 59.5985 133.024 59.2075C132.948 60.0497 133.013 60.8986 133.217 61.7194C133.84 63.9058 136.022 65.5397 136.411 67.7059C136.455 67.4642 136.476 67.2192 136.475 66.9737Z" fill="black"/>
<path opacity="0.1" d="M147.051 75.072C145.737 75.0957 144.433 73.8652 143.257 74.4483C142.918 74.6212 142.647 74.933 142.295 75.0957C141.798 75.266 141.261 75.2826 140.754 75.1432C138.643 74.7805 136.096 74.0245 135.639 71.9364C135.552 72.3774 135.552 72.831 135.639 73.272C136.089 75.3771 138.643 76.1364 140.761 76.4992C141.268 76.6385 141.805 76.622 142.302 76.4517C142.641 76.289 142.918 75.9771 143.264 75.8042C144.439 75.2212 145.744 76.4517 147.058 76.428C148.708 76.3975 149.636 74.4483 149.677 72.7974C149.677 72.4584 149.677 72.1194 149.653 71.7805C149.48 73.3466 148.586 75.0415 147.051 75.072Z" fill="black"/>
<path opacity="0.1" d="M159.568 57.2278C158.938 59.5634 156.929 61.2719 154.826 62.455C152.918 63.5262 150.659 64.4889 149.87 66.5228C149.579 67.4012 149.48 68.3316 149.578 69.2516C149.608 68.7822 149.706 68.3196 149.87 67.8787C150.659 65.8448 152.918 64.8787 154.826 63.8109C156.936 62.6278 158.945 60.9193 159.568 58.5837C159.783 57.6969 159.855 56.7814 159.781 55.8718C159.755 56.3297 159.684 56.7839 159.568 57.2278Z" fill="black"/>
<path opacity="0.1" d="M178.114 33.1088C177.298 33.0478 176.448 32.858 175.743 33.2512C175.15 33.5902 174.849 34.2682 174.388 34.7597C173.192 35.9936 171.211 35.8309 169.5 35.6919H169.392C163.575 35.2377 158.741 40.0987 159.073 45.9259C159.073 45.97 159.073 46.0175 159.073 46.0615C159.154 44.7904 159.486 43.5479 160.049 42.4056C160.612 41.2633 161.395 40.2438 162.353 39.4059C163.312 38.568 164.427 37.9282 165.634 37.5235C166.84 37.1188 168.115 36.9572 169.385 37.0479H169.493C171.187 37.1868 173.186 37.3496 174.381 36.1156C174.856 35.6241 175.157 34.9461 175.736 34.6071C176.414 34.2139 177.278 34.4038 178.108 34.4648C178.759 36.0852 179.132 37.8046 179.209 39.5496C179.209 39.3292 179.226 39.1089 179.226 38.8716C179.226 36.8974 178.849 34.9413 178.114 33.1088Z" fill="black"/>
<path opacity="0.1" d="M135.364 43.6649C135.466 42.191 135.255 40.7123 134.744 39.3259C134.209 37.9394 133.291 36.5801 133.051 35.1665C132.681 37.0818 134.047 38.8547 134.744 40.6818C135.106 41.6374 135.316 42.6441 135.364 43.6649Z" fill="black"/>
<path opacity="0.1" d="M181.678 29.319C181.647 29.7559 181.584 30.1898 181.489 30.6173C181.234 31.7868 180.75 32.9088 180.635 34.0987C180.594 34.5226 180.594 34.9494 180.635 35.3733C180.764 34.2139 181.228 33.1156 181.478 31.9834C181.674 31.1098 181.742 30.2121 181.678 29.319Z" fill="black"/>
<path opacity="0.1" d="M181.638 42.1835C181.096 45.4751 177.512 47.8582 177.617 51.1904C177.622 51.3709 177.638 51.5508 177.664 51.7294C178.091 48.8107 181.143 46.5565 181.638 43.5395C181.722 42.9931 181.733 42.438 181.671 41.8886C181.661 41.9869 181.661 42.0852 181.638 42.1835Z" fill="black"/>
<path opacity="0.1" d="M182.254 23.3562C181.934 24.0825 181.524 24.7658 181.035 25.3901C181.175 25.6631 181.289 25.9492 181.373 26.2444C181.731 25.7687 182.023 25.2478 182.244 24.6952C182.456 24.0625 182.51 23.3873 182.4 22.7291C182.37 22.9421 182.321 23.1519 182.254 23.3562Z" fill="black"/>
<path opacity="0.1" d="M178.389 56.1905C178.087 58.2651 176.465 60.0719 174.663 61.255C174.046 61.6584 173.369 62.0516 173.047 62.716C172.824 63.2159 172.792 63.7802 172.955 64.3025C172.979 64.2232 173.01 64.1461 173.047 64.0719C173.369 63.394 174.046 63.0143 174.663 62.6109C176.746 61.255 178.592 59.0448 178.43 56.56C178.423 56.4346 178.406 56.3125 178.389 56.1905Z" fill="black"/>
<path opacity="0.1" d="M171.614 72.828C171.488 72.924 171.335 72.9764 171.177 72.9771C170.303 73.0517 169.456 72.7093 168.646 72.3703C167.291 71.8076 165.815 71.1228 165.259 69.7703C165.008 69.1669 164.974 68.4957 164.781 67.8686C164.544 67.2165 164.231 66.5942 163.85 66.0143C162.757 64.1461 161.886 62.1563 161.255 60.0854C161.157 59.7725 161.075 59.4545 161.011 59.1329C160.987 59.2447 160.967 59.36 160.953 59.4719C160.925 60.1406 161.028 60.8085 161.255 61.438C161.886 63.5089 162.757 65.4987 163.85 67.3669C164.231 67.9468 164.544 68.569 164.781 69.2211C164.974 69.8483 165.008 70.5195 165.259 71.1228C165.821 72.4788 167.291 73.1568 168.646 73.7229C169.456 74.0619 170.303 74.4009 171.177 74.3297C171.259 74.3358 171.341 74.3248 171.418 74.2973C171.496 74.2697 171.567 74.2263 171.626 74.1699C171.686 74.1134 171.733 74.045 171.765 73.9692C171.797 73.8934 171.812 73.8118 171.81 73.7297C171.855 73.3874 171.82 73.0394 171.709 72.7127C171.684 72.7566 171.652 72.7957 171.614 72.828Z" fill="black"/>
<path opacity="0.1" d="M175.13 70.7466C174.991 70.8128 174.84 70.8486 174.686 70.8517C173.485 70.9321 172.279 70.7884 171.13 70.4279C171.549 70.8344 171.798 71.3863 171.824 71.9703C172.761 72.1913 173.726 72.2713 174.686 72.2076C174.794 72.2301 174.906 72.2211 175.008 72.1818C175.111 72.1424 175.2 72.0744 175.265 71.9858C175.33 71.8971 175.368 71.7916 175.375 71.6819C175.382 71.5722 175.357 71.4628 175.303 71.3669C175.252 71.1567 175.191 70.95 175.13 70.7466Z" fill="black"/>
</g>
<path opacity="0.1" d="M127.858 78.2179C127.858 78.2179 127.519 85.1671 128.535 85.6756C129.551 86.1841 127.858 78.2179 127.858 78.2179Z" fill="black"/>
<path opacity="0.1" d="M147.082 96.5232C147.42 96.5232 148.775 97.2012 148.945 97.9639C149.114 98.7266 147.082 96.5232 147.082 96.5232Z" fill="black"/>
<path opacity="0.1" d="M146.235 97.6249C146.574 97.6249 147.929 98.3029 148.098 99.0656C148.267 99.8283 146.235 97.6249 146.235 97.6249Z" fill="black"/>
<path opacity="0.1" d="M149.368 100.676C149.707 100.676 151.062 101.354 151.231 102.116C151.401 102.879 149.368 100.676 149.368 100.676Z" fill="black"/>
<path opacity="0.1" d="M145.134 100.805C145.134 100.805 140.534 105.411 140.249 106.398C139.965 107.384 131.272 107.415 131.272 107.415L130.679 102.669C130.679 102.669 130.646 102.544 130.615 102.354C133.017 101.737 140.805 98.8588 145.439 99.8791C145.467 100.047 145.453 100.218 145.4 100.379C145.347 100.541 145.256 100.687 145.134 100.805Z" fill="black"/>
<path d="M124.186 106.635C124.186 106.635 128.62 102.71 129.975 102.794C131.33 102.879 147.844 95.8452 148.945 103.727C150.046 111.608 127.858 112.032 127.858 112.032L124.47 113.303C124.47 113.303 121.645 107.144 124.186 106.635Z" fill="#FDC2CC"/>
<path d="M122.888 107.201C122.888 107.201 124.921 104.378 125.541 107.822C126.161 111.266 127.095 115.506 127.095 115.506L122.549 113.245L122.888 107.201Z" fill="#D39999"/>
<path opacity="0.1" d="M311.101 227.582C319.48 227.582 326.273 226.54 326.273 225.254C326.273 223.967 319.48 222.925 311.101 222.925C302.721 222.925 295.928 223.967 295.928 225.254C295.928 226.54 302.721 227.582 311.101 227.582Z" fill="#1FA0BD"/>
<path opacity="0.1" d="M268.273 270.942C281.369 270.942 291.985 269.312 291.985 267.301C291.985 265.291 281.369 263.661 268.273 263.661C255.177 263.661 244.56 265.291 244.56 267.301C244.56 269.312 255.177 270.942 268.273 270.942Z" fill="#1FA0BD"/>
<path opacity="0.1" d="M332.635 285C349.957 285 364 282.843 364 280.183C364 277.523 349.957 275.366 332.635 275.366C315.313 275.366 301.27 277.523 301.27 280.183C301.27 282.843 315.313 285 332.635 285Z" fill="#1FA0BD"/>
<path opacity="0.1" d="M23.7125 233.657C36.8085 233.657 47.4249 232.027 47.4249 230.016C47.4249 228.006 36.8085 226.376 23.7125 226.376C10.6164 226.376 0 228.006 0 230.016C0 232.027 10.6164 233.657 23.7125 233.657Z" fill="#1FA0BD"/>
<path d="M299.136 202.911C299.136 202.911 296.992 212.911 306.538 214.097L307.131 212.986C307.131 212.986 299.729 206.023 299.136 202.911Z" fill="#1FA0BD"/>
<path d="M310.166 212.908L307.947 213.379L307.723 213.43C307.723 213.43 301.802 208.616 301.877 197.874C302.67 199.457 303.618 200.958 304.705 202.355C307.053 205.46 309.709 209.619 310.166 212.908Z" fill="#1FA0BD"/>
<path d="M310.918 213.938C310.743 214.052 310.545 214.126 310.338 214.153C310.131 214.18 309.92 214.16 309.722 214.094C304.021 212.762 305.948 194.172 305.948 194.172C306.263 194.321 306.626 196.684 307.92 199.738C310.22 205.101 312.757 212.592 310.918 213.938Z" fill="#1FA0BD"/>
<path d="M323.56 202.911C323.56 202.911 323.933 212.911 314.383 214.097L313.791 212.986C313.791 212.986 322.971 206.023 323.56 202.911Z" fill="#1FA0BD"/>
<path d="M320.823 197.874C320.894 208.616 313.201 213.43 313.201 213.43L312.977 213.379L310.759 212.908C311.196 209.609 313.872 205.45 316.216 202.355C317.544 200.661 319.094 199.154 320.823 197.874Z" fill="#1FA0BD"/>
<path d="M312.944 212.965C312.601 213.383 312.166 213.716 311.673 213.938C311.525 214.007 311.369 214.059 311.209 214.094C309.804 214.433 309.316 213.416 309.397 211.691C309.529 208.64 311.453 203.318 313.181 199.345C314.424 196.484 316.457 194.314 316.758 194.172C316.751 194.172 316.667 208.647 312.944 212.965Z" fill="#1FA0BD"/>
<path d="M311.348 187.653C311.348 187.653 304.983 210.243 310.461 213.65C315.938 217.057 312.757 189.653 311.348 187.653Z" fill="#1FA0BD"/>
<path opacity="0.1" d="M299.136 202.911C299.136 202.911 296.992 212.911 306.538 214.097L307.131 212.986C307.131 212.986 299.729 206.023 299.136 202.911Z" fill="black"/>
<path opacity="0.1" d="M310.166 212.908L307.947 213.379L307.723 213.43C307.723 213.43 301.802 208.616 301.877 197.874C302.67 199.457 303.618 200.958 304.705 202.355C307.053 205.46 309.709 209.619 310.166 212.908Z" fill="black"/>
<path opacity="0.1" d="M310.918 213.938C310.743 214.052 310.545 214.126 310.338 214.153C310.131 214.18 309.92 214.16 309.722 214.094C304.021 212.762 305.948 194.172 305.948 194.172C306.263 194.321 306.626 196.684 307.92 199.738C310.22 205.101 312.757 212.592 310.918 213.938Z" fill="black"/>
<path opacity="0.1" d="M323.56 202.911C323.56 202.911 323.933 212.911 314.383 214.097L313.791 212.986C313.791 212.986 322.971 206.023 323.56 202.911Z" fill="black"/>
<path opacity="0.1" d="M320.823 197.874C320.894 208.616 313.201 213.43 313.201 213.43L312.977 213.379L310.759 212.908C311.196 209.609 313.872 205.45 316.216 202.355C317.544 200.661 319.094 199.154 320.823 197.874Z" fill="black"/>
<path opacity="0.1" d="M312.944 212.965C312.601 213.383 312.166 213.716 311.673 213.938C311.525 214.007 311.369 214.059 311.209 214.094C309.804 214.433 309.316 213.416 309.397 211.691C309.529 208.64 311.453 203.318 313.181 199.345C314.424 196.484 316.457 194.314 316.758 194.172C316.751 194.172 316.667 208.647 312.944 212.965Z" fill="black"/>
<path opacity="0.1" d="M311.348 187.653C311.348 187.653 304.983 210.243 310.461 213.65C315.938 217.057 312.757 189.653 311.348 187.653Z" fill="black"/>
<path d="M299.136 202.911C299.136 202.911 297.879 212.911 307.425 214.097L308.018 212.986C308.018 212.986 299.729 206.023 299.136 202.911Z" fill="#1FA0BD"/>
<path d="M311.064 212.908L308.845 213.379L308.621 213.43C308.621 213.43 301.812 208.616 301.887 197.874C301.887 197.874 303.631 199.745 305.613 202.355C307.944 205.46 310.61 209.619 311.064 212.908Z" fill="#1FA0BD"/>
<path opacity="0.1" d="M311.064 212.908L308.845 213.379C306.741 211.531 305.904 206.704 305.603 202.355C307.944 205.46 310.61 209.619 311.064 212.908Z" fill="black"/>
<path d="M311.805 213.938C311.631 214.052 311.432 214.126 311.225 214.153C311.018 214.18 310.808 214.16 310.61 214.094C304.908 212.762 305.948 194.172 305.948 194.172C306.263 194.321 307.497 196.684 308.808 199.738C311.108 205.101 313.635 212.592 311.805 213.938Z" fill="#1FA0BD"/>
<path d="M323.56 202.911C323.56 202.911 324.82 212.911 315.271 214.097L314.681 212.986C314.681 212.986 322.971 206.023 323.56 202.911Z" fill="#1FA0BD"/>
<path d="M320.823 197.874C320.894 208.616 314.089 213.43 314.089 213.43L313.865 213.379L311.646 212.908C312.087 209.609 314.759 205.45 317.104 202.355C319.078 199.745 320.823 197.874 320.823 197.874Z" fill="#1FA0BD"/>
<path opacity="0.1" d="M317.104 202.355C316.819 206.423 316.087 210.877 314.275 212.965C314.15 213.115 314.013 213.253 313.865 213.379L311.646 212.908C312.08 209.619 314.759 205.46 317.104 202.355Z" fill="black"/>
<path d="M313.831 212.965C313.489 213.384 313.054 213.717 312.561 213.938C312.411 214.006 312.254 214.059 312.093 214.094C310.691 214.433 310.2 213.416 310.281 211.691C310.413 208.64 312.337 203.318 314.065 199.345C315.308 196.484 316.436 194.314 316.755 194.172C316.751 194.172 317.557 208.647 313.831 212.965Z" fill="#1FA0BD"/>
<path opacity="0.1" d="M311.805 213.938C311.483 213.938 311.168 213.837 310.904 213.65C308.221 211.979 308.167 205.704 308.808 199.752C311.108 205.101 313.635 212.592 311.805 213.938Z" fill="black"/>
<path opacity="0.1" d="M313.831 212.965C313.523 213.643 313.106 213.982 312.561 213.938C312.287 213.903 312.025 213.804 311.795 213.65C311.099 213.17 310.57 212.485 310.281 211.691C310.413 208.64 312.337 203.318 314.065 199.345C314.678 204.874 314.881 210.704 313.831 212.965Z" fill="black"/>
<path d="M311.348 187.653C311.348 187.653 305.874 210.243 311.348 213.65C316.822 217.057 312.757 189.653 311.348 187.653Z" fill="#1FA0BD"/>
<path d="M321.859 212.542H299.065V216.318H302.541L302.629 216.762L304.021 224.094H317.273L318.665 216.762L318.75 216.318H321.859V212.542Z" fill="#4B4770"/>
<path opacity="0.1" d="M321.859 212.542H299.065V216.318H302.541L302.629 216.762L304.021 224.094H317.273L318.665 216.762L318.75 216.318H321.859V212.542Z" fill="black"/>
<path d="M319.935 214.762L319.556 216.762L318.16 224.094H304.908L303.516 216.762L303.133 214.762H319.935Z" fill="#4B4770"/>
<path opacity="0.1" d="M319.935 214.762L319.556 216.762H303.516L303.133 214.762H319.935Z" fill="black"/>
<path d="M322.747 212.542H299.953V216.318H322.747V212.542Z" fill="#4B4770"/>
<path d="M36.9745 190.226C36.6495 190.672 36.3895 191.161 36.2022 191.68C36.1548 191.806 36.1073 191.951 36.0599 192.09C35.9744 192.05 35.8847 192.019 35.7923 191.999C35.3976 191.898 34.9891 191.863 34.583 191.894C34.583 191.738 34.6033 191.555 34.6067 191.395C34.6575 189.609 34.4475 187.121 32.7435 188.175C31.1108 189.192 32.2761 190.887 33.3296 191.972C33.421 192.067 33.5125 192.155 33.6006 192.24C32.6385 192.918 32.4556 194.521 32.2964 196.185C32.1372 197.85 30.7246 199.67 29.7863 200.707C29.6914 200.813 29.6067 200.907 29.522 200.996C29.1453 200.694 28.7091 200.476 28.242 200.355C27.775 200.234 27.2877 200.213 26.812 200.294C26.7748 200.148 26.7341 199.996 26.6867 199.833C25.911 197.077 24.3392 192.331 22.327 191.314C22.4117 191.209 22.4998 191.101 22.5912 190.975C23.4449 189.856 24.4069 188.195 22.9876 187.772C21.5682 187.348 21.4395 189.212 21.5174 190.609C21.5174 190.782 21.5445 190.948 21.558 191.104C21.2754 191.117 20.9984 191.187 20.7438 191.311C20.4893 191.434 20.2626 191.608 20.0777 191.823L19.8575 191.562C18.7058 190.206 16.5954 188.05 15.9551 189.68C15.3623 191.195 17.2187 193.168 18.5262 194.311L18.6075 194.382C17.7302 197.948 21.5614 200.853 23.6244 202.121L23.892 202.287C21.0465 205.64 19.2884 211.931 19.2884 211.931L27.2592 213.355C27.2592 213.355 32.5403 208.792 31.8628 204.511H31.917C37.1981 203.45 38.3973 197.816 37.5775 194.473L37.669 194.433C38.6304 194.039 39.4732 193.403 40.1147 192.585C41.5883 190.528 38.4921 188.209 36.9745 190.226Z" fill="#1FA0BD"/>
<path opacity="0.1" d="M36.9745 190.226C36.6495 190.672 36.3895 191.161 36.2022 191.68C36.1548 191.806 36.1073 191.951 36.0599 192.09C35.9744 192.05 35.8847 192.019 35.7923 191.999C35.3976 191.898 34.9891 191.863 34.583 191.894C34.583 191.738 34.6033 191.555 34.6067 191.395C34.6575 189.609 34.4475 187.121 32.7435 188.175C31.1108 189.192 32.2761 190.887 33.3296 191.972C33.421 192.067 33.5125 192.155 33.6006 192.24C32.6385 192.918 32.4556 194.521 32.2964 196.185C32.1372 197.85 30.7246 199.67 29.7863 200.707C29.6914 200.813 29.6067 200.907 29.522 200.996C29.1453 200.694 28.7091 200.476 28.242 200.355C27.775 200.234 27.2877 200.213 26.812 200.294C26.7748 200.148 26.7341 199.996 26.6867 199.833C25.911 197.077 24.3392 192.331 22.327 191.314C22.4117 191.209 22.4998 191.101 22.5912 190.975C23.4449 189.856 24.4069 188.195 22.9876 187.772C21.5682 187.348 21.4395 189.212 21.5174 190.609C21.5174 190.782 21.5445 190.948 21.558 191.104C21.2754 191.117 20.9984 191.187 20.7438 191.311C20.4893 191.434 20.2626 191.608 20.0777 191.823L19.8575 191.562C18.7058 190.206 16.5954 188.05 15.9551 189.68C15.3623 191.195 17.2187 193.168 18.5262 194.311L18.6075 194.382C17.7302 197.948 21.5614 200.853 23.6244 202.121L23.892 202.287C21.0465 205.64 19.2884 211.931 19.2884 211.931L27.2592 213.355C27.2592 213.355 32.5403 208.792 31.8628 204.511H31.917C37.1981 203.45 38.3973 197.816 37.5775 194.473L37.669 194.433C38.6304 194.039 39.4732 193.403 40.1147 192.585C41.5883 190.528 38.4921 188.209 36.9745 190.226Z" fill="black"/>
<path d="M21.1143 192.524L20.1827 195.236C20.1827 195.236 19.6644 194.87 19.0106 194.294C17.7031 193.151 15.8467 191.179 16.4395 189.663C17.0798 188.033 19.1902 190.185 20.3419 191.545C20.806 192.104 21.1143 192.524 21.1143 192.524Z" fill="#1FA0BD"/>
<path d="M23.079 190.975C22.7955 191.347 22.4925 191.703 22.1711 192.043C22.0917 191.568 22.0364 191.089 22.0052 190.609C21.9272 189.212 22.0763 187.358 23.4753 187.772C24.8744 188.185 23.9326 189.85 23.079 190.975Z" fill="#1FA0BD"/>
<path d="M35.0944 191.395C35.0673 192.294 34.9793 193.012 34.9793 193.012C34.5685 192.693 34.1803 192.345 33.8174 191.972C32.7638 190.88 31.5985 189.192 33.2313 188.175C34.9352 187.121 35.1453 189.619 35.0944 191.395Z" fill="#1FA0BD"/>
<path d="M40.5991 192.575C39.9575 193.393 39.1148 194.029 38.1533 194.423C37.887 194.54 37.6131 194.64 37.3336 194.721L36.236 193.179C36.3522 192.669 36.5039 192.168 36.6899 191.68C36.8773 191.161 37.1373 190.672 37.4623 190.226C38.9799 188.209 42.0761 190.528 40.5991 192.575Z" fill="#1FA0BD"/>
<path opacity="0.1" d="M20.3419 191.562C20.806 192.104 21.1143 192.524 21.1143 192.524L20.1827 195.236C20.1827 195.236 19.6644 194.87 19.0106 194.294C19.1559 193.42 19.5168 192.596 20.0607 191.897C20.1522 191.789 20.2504 191.67 20.3419 191.562Z" fill="black"/>
<path opacity="0.1" d="M23.079 190.975C22.7955 191.347 22.4925 191.703 22.1712 192.043C22.0918 191.568 22.0364 191.089 22.0052 190.609C22.3926 190.615 22.7682 190.744 23.079 190.975Z" fill="black"/>
<path d="M27.6623 201.799L25.3418 202.816C25.3418 202.816 24.8371 202.572 24.1088 202.118C21.6732 200.619 16.7783 196.846 20.0438 192.399C23.3093 187.951 26.0634 195.928 27.1575 199.83C27.4861 200.999 27.6623 201.799 27.6623 201.799Z" fill="#1FA0BD"/>
<path opacity="0.1" d="M33.8174 191.972C34.1548 191.625 34.6112 191.419 35.0945 191.396C35.0674 192.294 34.9793 193.012 34.9793 193.012C34.5685 192.693 34.1803 192.345 33.8174 191.972Z" fill="black"/>
<path opacity="0.1" d="M38.1533 194.423C37.887 194.54 37.6131 194.64 37.3336 194.721L36.236 193.179C36.3522 192.669 36.5039 192.168 36.6899 191.68C37.3979 192.094 37.9196 193.124 38.1533 194.423Z" fill="black"/>
<path d="M32.4014 204.501L32.0118 204.569C24.2443 205.748 29.4509 201.555 29.4509 201.555C29.4509 201.555 29.7896 201.216 30.2741 200.707C31.2124 199.67 32.6216 197.86 32.7842 196.185C33.0281 193.667 33.3093 191.304 36.2801 191.999C39.1967 192.67 39.7557 203.026 32.4014 204.501Z" fill="#1FA0BD"/>
<path d="M32.2557 223.854H17.4151V227.759H32.2557V223.854Z" fill="#D4DFEC"/>
<path d="M34.4475 211.158H15.0574V224.786H34.4475V211.158Z" fill="#D4DFEC"/>
<path opacity="0.1" d="M32.2557 223.854H17.4151V227.759H32.2557V223.854Z" fill="black"/>
<path opacity="0.1" d="M34.4475 211.158H15.0574V224.786H34.4475V211.158Z" fill="black"/>
<path d="M33.2313 223.854H18.3907V227.759H33.2313V223.854Z" fill="#D4DFEC"/>
<path opacity="0.1" d="M27.1575 199.833C27.4963 200.999 27.6623 201.799 27.6623 201.799L25.3418 202.816C25.3418 202.816 24.8371 202.572 24.1088 202.118C25.0166 200.972 26.0397 200.101 27.1575 199.833Z" fill="black"/>
<path opacity="0.1" d="M32.4014 204.501L32.0118 204.568C24.2443 205.748 29.4509 201.555 29.4509 201.555C29.4509 201.555 29.7896 201.216 30.2741 200.707C31.7239 201.867 32.3235 203.179 32.4014 204.501Z" fill="black"/>
<path d="M19.7728 211.931C19.7728 211.931 24.1224 196.338 30.2233 201.152C36.3241 205.965 27.7436 213.355 27.7436 213.355L19.7728 211.931Z" fill="#1FA0BD"/>
<path opacity="0.1" d="M21.9679 195.334C22.2373 195.334 22.4557 195.116 22.4557 194.846C22.4557 194.577 22.2373 194.358 21.9679 194.358C21.6985 194.358 21.4801 194.577 21.4801 194.846C21.4801 195.116 21.6985 195.334 21.9679 195.334Z" fill="black"/>
<path opacity="0.1" d="M21.9273 197.613C22.1967 197.613 22.4151 197.394 22.4151 197.124C22.4151 196.855 22.1967 196.636 21.9273 196.636C21.6578 196.636 21.4395 196.855 21.4395 197.124C21.4395 197.394 21.6578 197.613 21.9273 197.613Z" fill="black"/>
<path opacity="0.1" d="M36.0769 195.782C36.3463 195.782 36.5647 195.563 36.5647 195.294C36.5647 195.024 36.3463 194.806 36.0769 194.806C35.8074 194.806 35.5891 195.024 35.5891 195.294C35.5891 195.563 35.8074 195.782 36.0769 195.782Z" fill="black"/>
<path opacity="0.1" d="M24.6915 207.457C24.9609 207.457 25.1793 207.238 25.1793 206.969C25.1793 206.699 24.9609 206.48 24.6915 206.48C24.4221 206.48 24.2037 206.699 24.2037 206.969C24.2037 207.238 24.4221 207.457 24.6915 207.457Z" fill="black"/>
<path opacity="0.1" d="M35.0606 199.565C35.33 199.565 35.5484 199.346 35.5484 199.077C35.5484 198.807 35.33 198.589 35.0606 198.589C34.7911 198.589 34.5728 198.807 34.5728 199.077C34.5728 199.346 34.7911 199.565 35.0606 199.565Z" fill="black"/>
<path opacity="0.1" d="M30.02 204.609C30.2894 204.609 30.5078 204.391 30.5078 204.121C30.5078 203.851 30.2894 203.633 30.02 203.633C29.7506 203.633 29.5322 203.851 29.5322 204.121C29.5322 204.391 29.7506 204.609 30.02 204.609Z" fill="black"/>
<path opacity="0.1" d="M23.6346 196.311C23.904 196.311 24.1224 196.092 24.1224 195.823C24.1224 195.553 23.904 195.335 23.6346 195.335C23.3652 195.335 23.1468 195.553 23.1468 195.823C23.1468 196.092 23.3652 196.311 23.6346 196.311Z" fill="black"/>
<path opacity="0.1" d="M34.7354 197.246C35.0048 197.246 35.2232 197.028 35.2232 196.758C35.2232 196.489 35.0048 196.27 34.7354 196.27C34.466 196.27 34.2476 196.489 34.2476 196.758C34.2476 197.028 34.466 197.246 34.7354 197.246Z" fill="black"/>
<path opacity="0.1" d="M33.0687 201.03C33.3381 201.03 33.5565 200.811 33.5565 200.541C33.5565 200.272 33.3381 200.053 33.0687 200.053C32.7993 200.053 32.5809 200.272 32.5809 200.541C32.5809 200.811 32.7993 201.03 33.0687 201.03Z" fill="black"/>
<path opacity="0.1" d="M27.9468 207.091C28.2163 207.091 28.4346 206.872 28.4346 206.602C28.4346 206.333 28.2163 206.114 27.9468 206.114C27.6774 206.114 27.459 206.333 27.459 206.602C27.459 206.872 27.6774 207.091 27.9468 207.091Z" fill="black"/>
<path opacity="0.1" d="M26.89 204.691C27.1594 204.691 27.3778 204.472 27.3778 204.202C27.3778 203.933 27.1594 203.714 26.89 203.714C26.6206 203.714 26.4022 203.933 26.4022 204.202C26.4022 204.472 26.6206 204.691 26.89 204.691Z" fill="black"/>
<path opacity="0.1" d="M24.3662 199.28C24.6357 199.28 24.854 199.062 24.854 198.792C24.854 198.523 24.6357 198.304 24.3662 198.304C24.0968 198.304 23.8784 198.523 23.8784 198.792C23.8784 199.062 24.0968 199.28 24.3662 199.28Z" fill="black"/>
<path opacity="0.1" d="M33.2313 223.854H18.3907V225.281H33.2313V223.854Z" fill="black"/>
<path d="M35.423 211.158H16.033V224.786H35.423V211.158Z" fill="#D4DFEC"/>
<path opacity="0.1" d="M28.5972 209.287C28.8666 209.287 29.085 209.069 29.085 208.799C29.085 208.529 28.8666 208.311 28.5972 208.311C28.3278 208.311 28.1094 208.529 28.1094 208.799C28.1094 209.069 28.3278 209.287 28.5972 209.287Z" fill="black"/>
<path opacity="0.1" d="M25.6704 209.897C25.9398 209.897 26.1582 209.679 26.1582 209.409C26.1582 209.14 25.9398 208.921 25.6704 208.921C25.401 208.921 25.1826 209.14 25.1826 209.409C25.1826 209.679 25.401 209.897 25.6704 209.897Z" fill="black"/>
</g>
<defs>
<linearGradient id="paint0_linear" x1="152.756" y1="275.763" x2="152.756" y2="8.97975" gradientUnits="userSpaceOnUse">
<stop stop-color="#808080" stop-opacity="0.25"/>
<stop offset="0.54" stop-color="#808080" stop-opacity="0.12"/>
<stop offset="1" stop-color="#808080" stop-opacity="0.1"/>
</linearGradient>
<clipPath id="clip0">
<rect width="364" height="285" fill="white"/>
</clipPath>
</defs>
</svg>
