<svg width="252" height="213" viewBox="0 0 252 213" fill="none" xmlns="http://www.w3.org/2000/svg">
<path opacity="0.2" d="M232.258 0H20.0322V213H232.258V0Z" fill="#EC4794"/>
<path opacity="0.5" d="M200.032 19.8868H51.9678V193.405H200.032V19.8868Z" fill="#EC4794"/>
<path d="M252 30.5951H172.742V183.57H252V30.5951Z" fill="url(#paint0_linear)"/>
<path d="M79.2581 31.1779H0V184.153H79.2581V31.1779Z" fill="url(#paint1_linear)"/>
<path d="M249.387 32.9261H175.355V180.365H249.387V32.9261Z" fill="#EC4794"/>
<path d="M2.61277 180.365H76.645L76.645 32.9261H2.61277L2.61277 180.365Z" fill="#EC4794"/>
<path d="M64.4518 46.3297H14.8066V55.3625H64.4518V46.3297Z" fill="url(#paint2_linear)"/>
<path d="M237.484 60.0246H187.839V69.0574H237.484V60.0246Z" fill="url(#paint3_linear)"/>
<path d="M237.193 74.0109H187.548V83.0437H237.193V74.0109Z" fill="url(#paint4_linear)"/>
<path d="M237.193 87.9973H187.548V97.0301H237.193V87.9973Z" fill="url(#paint5_linear)"/>
<path d="M237.193 101.984H187.548V111.016H237.193V101.984Z" fill="url(#paint6_linear)"/>
<path d="M237.193 115.97H187.548V125.003H237.193V115.97Z" fill="url(#paint7_linear)"/>
<path d="M237.193 129.956H187.548V138.989H237.193V129.956Z" fill="url(#paint8_linear)"/>
<path d="M237.193 143.943H187.548V152.975H237.193V143.943Z" fill="url(#paint9_linear)"/>
<path d="M237.193 157.929H187.548V166.962H237.193V157.929Z" fill="url(#paint10_linear)"/>
<path d="M237.193 46.3297H187.548V55.3625H237.193V46.3297Z" fill="url(#paint11_linear)"/>
<path d="M64.4518 60.6074H14.8066V69.6402H64.4518V60.6074Z" fill="url(#paint12_linear)"/>
<path d="M64.4518 74.3024H14.8066V83.3352H64.4518V74.3024Z" fill="url(#paint13_linear)"/>
<path d="M64.4518 87.9973H14.8066V97.0301H64.4518V87.9973Z" fill="url(#paint14_linear)"/>
<path d="M64.4518 101.984H14.8066V111.016H64.4518V101.984Z" fill="url(#paint15_linear)"/>
<path d="M64.4518 115.97H14.8066V125.003H64.4518V115.97Z" fill="url(#paint16_linear)"/>
<path d="M63.5807 47.4952H15.9678V54.4884H63.5807V47.4952Z" fill="white"/>
<path d="M63.4357 61.1902H15.8228V68.1834H63.4357V61.1902Z" fill="white"/>
<path d="M63.4357 75.1765H15.8228V82.1696H63.4357V75.1765Z" fill="white"/>
<path d="M63.4357 89.1628H15.8228V96.156H63.4357V89.1628Z" fill="white"/>
<path d="M63.4357 103.149H15.8228V110.142H63.4357V103.149Z" fill="white"/>
<path d="M63.4357 117.135H15.8228V124.129H63.4357V117.135Z" fill="white"/>
<path d="M64.4518 129.956H14.8066V138.989H64.4518V129.956Z" fill="url(#paint17_linear)"/>
<path d="M63.4357 131.122H15.8228V138.115H63.4357V131.122Z" fill="white"/>
<path d="M63.4357 131.122H15.8228V138.115H63.4357V131.122Z" fill="white"/>
<path d="M63.4357 145.108H15.8228V152.101H63.4357V145.108Z" fill="white"/>
<path d="M63.4357 159.094H15.8228V166.088H63.4357V159.094Z" fill="white"/>
<path d="M236.322 47.2039H188.709V54.197H236.322V47.2039Z" fill="white"/>
<path d="M236.322 61.1902H188.709V68.1834H236.322V61.1902Z" fill="white"/>
<path d="M236.322 75.1765H188.709V82.1696H236.322V75.1765Z" fill="white"/>
<path d="M236.322 89.1628H188.709V96.156H236.322V89.1628Z" fill="white"/>
<path d="M236.322 103.149H188.709V110.142H236.322V103.149Z" fill="white"/>
<path d="M236.322 117.135H188.709V124.129H236.322V117.135Z" fill="white"/>
<path d="M236.322 131.122H188.709V138.115H236.322V131.122Z" fill="white"/>
<path d="M236.322 145.108H188.709V152.101H236.322V145.108Z" fill="white"/>
<path d="M236.322 159.094H188.709V166.088H236.322V159.094Z" fill="white"/>
<path d="M213.387 187.941H38.3228V199.014H213.387V187.941Z" fill="url(#paint18_linear)"/>
<path d="M212.226 189.107H39.7744V197.848H212.226V189.107Z" fill="#EC4794"/>
<path d="M213.678 14.5691H38.9033V25.933H213.678V14.5691Z" fill="url(#paint19_linear)"/>
<path d="M212.226 15.4432H39.7744V24.1847H212.226V15.4432Z" fill="#EC4794"/>
<path opacity="0.5" d="M168.678 32.9261H83.9033V180.365H168.678V32.9261Z" fill="#263238"/>
<path d="M191.514 97.0447C193.546 99.7779 190.504 103.006 190.504 103.006L191.015 103.184C190.263 104.02 187.293 107.794 175.842 124.863C161.181 146.717 141.425 152.168 141.425 152.168C139.024 150.286 136.294 148.872 133.374 147.999V145.936C137.104 144.831 140.513 142.837 143.309 140.124C146.105 137.41 148.204 134.058 149.429 130.353C151.177 126.88 152.086 123.043 152.082 119.152C152.082 105.166 140.536 93.8191 126.296 93.8191C112.056 93.8191 100.51 105.163 100.51 119.152C100.506 123.043 101.415 126.88 103.163 130.353C104.387 134.058 106.487 137.41 109.283 140.124C112.079 142.837 115.487 144.831 119.218 145.936V147.999C116.298 148.872 113.568 150.286 111.167 152.168C111.167 152.168 91.4021 146.711 76.7408 124.857C65.2905 107.788 62.3205 104.012 61.5685 103.178L62.0795 103.001C62.0795 103.001 59.0456 99.772 61.0692 97.0389C63.0927 94.3057 47.6708 91.0772 49.4389 97.0389C51.2069 103.001 53.4831 105.981 53.4831 105.981C53.4831 105.981 85.7669 157.084 102.62 165.528C102.222 167.26 102.021 169.031 102.022 170.808V180.744H150.558V170.808C150.559 169.031 150.358 167.26 149.96 165.528C166.799 157.078 199.097 105.984 199.097 105.984C199.097 105.984 201.373 103.003 203.141 97.0418C204.91 91.0801 189.49 94.3115 191.514 97.0447Z" fill="url(#paint20_linear)"/>
<path d="M126.29 145.262C139.929 145.262 150.985 134.166 150.985 120.478C150.985 106.789 139.929 95.6926 126.29 95.6926C112.651 95.6926 101.595 106.789 101.595 120.478C101.595 134.166 112.651 145.262 126.29 145.262Z" fill="#263238"/>
<path d="M126.29 147.696C139.127 147.696 149.533 137.251 149.533 124.368C149.533 111.484 139.127 101.039 126.29 101.039C113.453 101.039 103.047 111.484 103.047 124.368C103.047 137.251 113.453 147.696 126.29 147.696Z" fill="#F8C198"/>
<path d="M117.09 122.179C118.695 122.179 119.996 120.873 119.996 119.262C119.996 117.652 118.695 116.346 117.09 116.346C115.485 116.346 114.184 117.652 114.184 119.262C114.184 120.873 115.485 122.179 117.09 122.179Z" fill="#263238"/>
<path d="M135.975 122.179C137.58 122.179 138.882 120.873 138.882 119.262C138.882 117.652 137.58 116.346 135.975 116.346C134.37 116.346 133.069 117.652 133.069 119.262C133.069 120.873 134.37 122.179 135.975 122.179Z" fill="#263238"/>
<path d="M133.069 135.055C133.069 136.804 130.035 139.674 126.29 139.674C122.545 139.674 119.511 136.804 119.511 135.055C119.511 133.307 122.545 133.354 126.29 133.354C130.035 133.354 133.069 133.307 133.069 135.055Z" fill="white"/>
<path d="M117.816 120.236C118.351 120.236 118.786 119.8 118.786 119.263C118.786 118.725 118.351 118.289 117.816 118.289C117.28 118.289 116.846 118.725 116.846 119.263C116.846 119.8 117.28 120.236 117.816 120.236Z" fill="white"/>
<path d="M136.942 120.236C137.478 120.236 137.912 119.8 137.912 119.263C137.912 118.725 137.478 118.289 136.942 118.289C136.407 118.289 135.973 118.725 135.973 119.263C135.973 119.8 136.407 120.236 136.942 120.236Z" fill="white"/>
<path d="M128.613 111.418C127.196 111.418 125.925 110.183 125.774 108.77C125.725 108.059 125.893 107.351 126.256 106.739C126.619 106.127 127.16 105.641 127.806 105.346C127.938 105.278 128.084 105.24 128.233 105.235C128.72 105.235 128.961 105.818 129.118 106.281C129.606 107.715 130.471 109.114 131.83 109.778C133.188 110.442 135.087 110.101 135.804 108.767C133.882 107.907 133.061 105.209 134.178 103.42C134.611 102.729 135.285 102.144 135.421 101.34C135.671 99.8827 134.08 98.822 132.672 98.385C128.607 97.1233 114.439 96.9834 113.658 103.07C112.84 109.492 124.151 112.269 128.613 111.418Z" fill="#263238"/>
<path d="M105.522 128.46C106.268 128.165 106.196 126.204 105.362 124.082C104.527 121.959 103.246 120.478 102.501 120.773C101.755 121.068 101.827 123.028 102.661 125.151C103.496 127.274 104.777 128.755 105.522 128.46Z" fill="#F8C198"/>
<path d="M149.913 125.136C150.747 123.013 150.819 121.053 150.073 120.758C149.327 120.462 148.046 121.944 147.212 124.066C146.378 126.189 146.306 128.149 147.052 128.445C147.797 128.74 149.078 127.258 149.913 125.136Z" fill="#F8C198"/>
<path d="M140.78 152.783C140.78 152.783 159.701 147.451 173.744 126.066C187.786 104.682 188.512 104.623 188.512 104.623L196.017 107.598C196.017 107.598 161.155 163.975 146.145 166.892C131.136 169.809 140.78 152.783 140.78 152.783Z" fill="#FF9800"/>
<path d="M187.79 104.685C187.79 104.685 190.693 101.526 188.759 98.8571C186.826 96.188 201.592 93.0295 199.896 98.8571C198.201 104.685 196.023 107.599 196.023 107.599L187.79 104.685Z" fill="#F8C198"/>
<path d="M111.8 152.783C111.8 152.783 92.8799 147.451 78.837 126.066C64.7941 104.682 64.0683 104.623 64.0683 104.623L56.5635 107.598C56.5635 107.598 91.4283 163.975 106.441 166.892C121.453 169.809 111.8 152.783 111.8 152.783Z" fill="#FF9800"/>
<path d="M64.7912 104.685C64.7912 104.685 61.888 101.526 63.8215 98.8571C65.7551 96.188 50.9892 93.0295 52.6847 98.8571C54.3802 104.685 56.5576 107.599 56.5576 107.599L64.7912 104.685Z" fill="#F8C198"/>
<g opacity="0.2">
<path opacity="0.2" d="M134.213 99.8769C134.074 100.681 133.4 101.264 132.97 101.957C131.992 103.525 132.5 105.792 133.934 106.911C133.728 106.386 133.643 105.822 133.686 105.259C133.729 104.697 133.898 104.152 134.181 103.665C134.614 102.974 135.287 102.389 135.424 101.584C135.58 100.672 135.014 99.9148 134.225 99.3699C134.245 99.5385 134.241 99.7093 134.213 99.8769Z" fill="white"/>
<path opacity="0.2" d="M128.165 105.483C128.073 105.265 127.985 105.043 127.91 104.822C127.753 104.358 127.512 103.79 127.024 103.776C126.876 103.78 126.73 103.818 126.598 103.886C125.952 104.181 125.411 104.667 125.048 105.279C124.685 105.891 124.516 106.6 124.565 107.31C124.619 107.739 124.763 108.151 124.986 108.52C125.21 108.889 125.509 109.207 125.863 109.452C125.822 109.308 125.793 109.161 125.776 109.012C125.727 108.301 125.895 107.593 126.259 106.981C126.622 106.369 127.162 105.883 127.808 105.588C127.921 105.533 128.041 105.498 128.165 105.483Z" fill="white"/>
<path opacity="0.2" d="M126.119 110.099C122.588 110.247 116.892 108.895 114.085 106.019C116.181 110.495 124.841 112.368 128.601 111.649C128.088 111.631 127.589 111.479 127.153 111.207C126.718 110.935 126.361 110.553 126.119 110.099Z" fill="white"/>
<path opacity="0.2" d="M134.326 107.698C133.478 108.697 131.835 108.907 130.624 108.315C130.229 108.12 129.867 107.863 129.55 107.555C130.019 108.606 130.823 109.471 131.835 110.014C133.194 110.676 135.093 110.338 135.81 109.003C135.199 108.722 134.683 108.268 134.326 107.698Z" fill="white"/>
</g>
<path opacity="0.2" d="M195.053 107.599C195.053 107.599 160.189 163.975 145.162 166.892C144.293 167.066 143.413 167.174 142.528 167.215C143.738 167.25 144.947 167.141 146.131 166.892C161.144 163.978 196.009 107.599 196.009 107.599L195.231 107.322C195.123 107.505 195.053 107.599 195.053 107.599Z" fill="white"/>
<path opacity="0.2" d="M57.5274 107.599C57.5274 107.599 92.3923 163.975 107.419 166.892C108.288 167.066 109.168 167.174 110.053 167.215C108.843 167.25 107.634 167.141 106.45 166.892C91.4371 163.978 56.5723 107.599 56.5723 107.599L57.3503 107.322C57.4578 107.505 57.5274 107.599 57.5274 107.599Z" fill="white"/>
<path d="M126.29 147.696C129.342 147.696 132.365 148.299 135.185 149.471C138.005 150.644 140.567 152.362 142.726 154.528C144.884 156.694 146.596 159.266 147.764 162.096C148.932 164.927 149.533 167.96 149.533 171.024V180.744H103.047V171.024C103.047 167.96 103.648 164.927 104.816 162.096C105.984 159.266 107.696 156.694 109.855 154.528C112.013 152.362 114.575 150.644 117.395 149.471C120.215 148.299 123.238 147.696 126.29 147.696Z" fill="#FF9800"/>
<path opacity="0.2" d="M126.531 147.818C125.685 147.818 124.84 147.864 124 147.955C124.29 147.955 124.554 147.937 124.836 147.937C131 147.937 136.912 150.395 141.271 154.77C145.63 159.145 148.079 165.078 148.079 171.265V180.863H149.774V171.146C149.774 164.959 147.326 159.025 142.967 154.651C138.608 150.276 132.696 147.818 126.531 147.818Z" fill="white"/>
<path opacity="0.2" d="M126.049 147.818C126.895 147.818 127.74 147.864 128.581 147.955C128.291 147.955 128.026 147.937 127.745 147.937C121.58 147.937 115.668 150.395 111.309 154.77C106.95 159.145 104.502 165.078 104.502 171.265V180.863H102.806V171.146C102.806 164.959 105.255 159.025 109.614 154.651C113.973 150.276 119.885 147.818 126.049 147.818Z" fill="white"/>
<path d="M133.069 148.06C133.069 144.302 130.034 141.256 126.29 141.256C122.546 141.256 119.511 144.302 119.511 148.06V150.854C119.511 154.612 122.546 157.658 126.29 157.658C130.034 157.658 133.069 154.612 133.069 150.854V148.06Z" fill="#F8C198"/>
<defs>
<linearGradient id="paint0_linear" x1="212.371" y1="183.57" x2="212.371" y2="30.5951" gradientUnits="userSpaceOnUse">
<stop stop-color="#808080" stop-opacity="0.25"/>
<stop offset="0.54" stop-color="#808080" stop-opacity="0.12"/>
<stop offset="1" stop-color="#808080" stop-opacity="0.1"/>
</linearGradient>
<linearGradient id="paint1_linear" x1="10818.7" y1="96711.6" x2="10818.7" y2="16399.5" gradientUnits="userSpaceOnUse">
<stop stop-color="#808080" stop-opacity="0.25"/>
<stop offset="0.54" stop-color="#808080" stop-opacity="0.12"/>
<stop offset="1" stop-color="#808080" stop-opacity="0.1"/>
</linearGradient>
<linearGradient id="paint2_linear" x1="39.6292" y1="55.3625" x2="39.6292" y2="46.3297" gradientUnits="userSpaceOnUse">
<stop stop-opacity="0.12"/>
<stop offset="0.55" stop-opacity="0.09"/>
<stop offset="1" stop-opacity="0.02"/>
</linearGradient>
<linearGradient id="paint3_linear" x1="36552.9" y1="2200.8" x2="36552.9" y2="1920.79" gradientUnits="userSpaceOnUse">
<stop stop-opacity="0.12"/>
<stop offset="0.55" stop-opacity="0.09"/>
<stop offset="1" stop-opacity="0.02"/>
</linearGradient>
<linearGradient id="paint4_linear" x1="36502.9" y1="2648.37" x2="36502.9" y2="2368.35" gradientUnits="userSpaceOnUse">
<stop stop-opacity="0.12"/>
<stop offset="0.55" stop-opacity="0.09"/>
<stop offset="1" stop-opacity="0.02"/>
</linearGradient>
<linearGradient id="paint5_linear" x1="36502.9" y1="3095.92" x2="36502.9" y2="2815.91" gradientUnits="userSpaceOnUse">
<stop stop-opacity="0.12"/>
<stop offset="0.55" stop-opacity="0.09"/>
<stop offset="1" stop-opacity="0.02"/>
</linearGradient>
<linearGradient id="paint6_linear" x1="36502.9" y1="3543.49" x2="36502.9" y2="3263.47" gradientUnits="userSpaceOnUse">
<stop stop-opacity="0.12"/>
<stop offset="0.55" stop-opacity="0.09"/>
<stop offset="1" stop-opacity="0.02"/>
</linearGradient>
<linearGradient id="paint7_linear" x1="36502.9" y1="3991.04" x2="36502.9" y2="3711.03" gradientUnits="userSpaceOnUse">
<stop stop-opacity="0.12"/>
<stop offset="0.55" stop-opacity="0.09"/>
<stop offset="1" stop-opacity="0.02"/>
</linearGradient>
<linearGradient id="paint8_linear" x1="36502.9" y1="4438.63" x2="36502.9" y2="4158.62" gradientUnits="userSpaceOnUse">
<stop stop-opacity="0.12"/>
<stop offset="0.55" stop-opacity="0.09"/>
<stop offset="1" stop-opacity="0.02"/>
</linearGradient>
<linearGradient id="paint9_linear" x1="36502.9" y1="4886.17" x2="36502.9" y2="4606.16" gradientUnits="userSpaceOnUse">
<stop stop-opacity="0.12"/>
<stop offset="0.55" stop-opacity="0.09"/>
<stop offset="1" stop-opacity="0.02"/>
</linearGradient>
<linearGradient id="paint10_linear" x1="36502.9" y1="5333.74" x2="36502.9" y2="5053.73" gradientUnits="userSpaceOnUse">
<stop stop-opacity="0.12"/>
<stop offset="0.55" stop-opacity="0.09"/>
<stop offset="1" stop-opacity="0.02"/>
</linearGradient>
<linearGradient id="paint11_linear" x1="36502.9" y1="46.3297" x2="36502.9" y2="46.3297" gradientUnits="userSpaceOnUse">
<stop stop-opacity="0.12"/>
<stop offset="0.55" stop-opacity="0.09"/>
<stop offset="1" stop-opacity="0.02"/>
</linearGradient>
<linearGradient id="paint12_linear" x1="2546.71" y1="2079.45" x2="11036" y2="2079.45" gradientUnits="userSpaceOnUse">
<stop stop-opacity="0.12"/>
<stop offset="0.55" stop-opacity="0.09"/>
<stop offset="1" stop-opacity="0.02"/>
</linearGradient>
<linearGradient id="paint13_linear" x1="2546.71" y1="2517.68" x2="11036" y2="2517.68" gradientUnits="userSpaceOnUse">
<stop stop-opacity="0.12"/>
<stop offset="0.55" stop-opacity="0.09"/>
<stop offset="1" stop-opacity="0.02"/>
</linearGradient>
<linearGradient id="paint14_linear" x1="2546.71" y1="2955.92" x2="11036" y2="2955.92" gradientUnits="userSpaceOnUse">
<stop stop-opacity="0.12"/>
<stop offset="0.55" stop-opacity="0.09"/>
<stop offset="1" stop-opacity="0.02"/>
</linearGradient>
<linearGradient id="paint15_linear" x1="2546.71" y1="3403.48" x2="11036" y2="3403.48" gradientUnits="userSpaceOnUse">
<stop stop-opacity="0.12"/>
<stop offset="0.55" stop-opacity="0.09"/>
<stop offset="1" stop-opacity="0.02"/>
</linearGradient>
<linearGradient id="paint16_linear" x1="2546.71" y1="3851.04" x2="11036" y2="3851.04" gradientUnits="userSpaceOnUse">
<stop stop-opacity="0.12"/>
<stop offset="0.55" stop-opacity="0.09"/>
<stop offset="1" stop-opacity="0.02"/>
</linearGradient>
<linearGradient id="paint17_linear" x1="2546.71" y1="4298.62" x2="11036" y2="4298.62" gradientUnits="userSpaceOnUse">
<stop stop-opacity="0.12"/>
<stop offset="0.55" stop-opacity="0.09"/>
<stop offset="1" stop-opacity="0.02"/>
</linearGradient>
<linearGradient id="paint18_linear" x1="23146.8" y1="7540.09" x2="128711" y2="7540.09" gradientUnits="userSpaceOnUse">
<stop stop-color="#808080" stop-opacity="0.25"/>
<stop offset="0.54" stop-color="#808080" stop-opacity="0.12"/>
<stop offset="1" stop-color="#808080" stop-opacity="0.1"/>
</linearGradient>
<linearGradient id="paint19_linear" x1="76065.7" y1="1025.95" x2="76065.7" y2="582.763" gradientUnits="userSpaceOnUse">
<stop stop-color="#808080" stop-opacity="0.25"/>
<stop offset="0.54" stop-color="#808080" stop-opacity="0.12"/>
<stop offset="1" stop-color="#808080" stop-opacity="0.1"/>
</linearGradient>
<linearGradient id="paint20_linear" x1="92594.7" y1="61461.6" x2="92594.7" y2="35444.7" gradientUnits="userSpaceOnUse">
<stop stop-color="#808080" stop-opacity="0.25"/>
<stop offset="0.54" stop-color="#808080" stop-opacity="0.12"/>
<stop offset="1" stop-color="#808080" stop-opacity="0.1"/>
</linearGradient>
</defs>
</svg>
