<svg width="360" height="255" viewBox="0 0 360 255" fill="none" xmlns="http://www.w3.org/2000/svg">
<g clip-path="url(#clip0)">
<path opacity="0.1" d="M119.685 254.857C137.217 254.857 151.429 252.574 151.429 249.758C151.429 246.942 137.217 244.66 119.685 244.66C102.153 244.66 87.941 246.942 87.941 249.758C87.941 252.574 102.153 254.857 119.685 254.857Z" fill="#1FA0BD"/>
<path opacity="0.1" d="M292.241 255C314.118 255 331.853 252.717 331.853 249.902C331.853 247.086 314.118 244.803 292.241 244.803C270.364 244.803 252.629 247.086 252.629 249.902C252.629 252.717 270.364 255 292.241 255Z" fill="#1FA0BD"/>
<path opacity="0.1" d="M4.5088 110.178H37.5722V155.243H6.92935C6.8479 155.706 6.76971 156.172 6.68501 156.638H37.5722V192.982C37.5168 192.965 37.468 192.946 37.4158 192.926C36.5427 192.581 35.6762 192.216 34.8096 191.825L34.2558 191.574C33.387 191.164 32.5183 190.729 31.6495 190.271C31.3466 190.111 31.0436 189.945 30.7439 189.776C25.921 187.074 21.5396 183.651 17.7518 179.625C17.641 179.517 17.5367 179.403 17.426 179.299C16.8982 178.725 16.3802 178.146 15.8785 177.553L15.3247 176.901C14.7318 176.175 14.1584 175.429 13.6013 174.673C13.5199 174.562 13.4417 174.451 13.357 174.347C11.0913 171.206 9.21013 167.804 7.75357 164.215C7.70796 164.108 7.66887 163.99 7.62651 163.889C7.17911 162.738 6.78274 161.576 6.43742 160.404C6.28756 159.912 6.14422 159.426 6.02042 158.915C5.97481 158.765 5.93572 158.618 5.89988 158.472C4.04945 151.249 3.83118 143.747 3.83118 136.296C3.83118 135.426 3.83118 134.553 3.83118 133.69C3.83118 130.676 3.86701 127.643 3.91914 124.614C3.91914 123.828 3.95171 123.047 3.968 122.258C4.01361 120.258 4.07877 118.258 4.16347 116.257C4.18302 115.7 4.20908 115.146 4.2384 114.593C4.2384 114.273 4.25469 113.954 4.28727 113.635C4.36546 112.475 4.43061 111.325 4.5088 110.178Z" fill="#1FA0BD"/>
<path opacity="0.1" d="M37.5722 60.0019H19.436C22.3842 55.3875 25.6054 50.9534 29.0824 46.7232C31.7766 43.4133 34.6206 40.1881 37.5722 37.0801V60.0019Z" fill="#1FA0BD"/>
<path opacity="0.1" d="M37.5722 61.3962V108.784H4.61304C4.61304 108.647 4.63584 108.507 4.64561 108.37C4.67493 107.996 4.70425 107.621 4.73683 107.25C4.77267 106.813 4.81176 106.373 4.85411 105.946C4.89647 105.52 4.94207 104.998 4.99094 104.526C5.03981 104.054 5.08542 103.575 5.1408 103.102C5.19618 102.63 5.24505 102.158 5.30369 101.689C5.36233 101.219 5.41446 100.744 5.47635 100.275C5.52522 99.8837 5.57734 99.4961 5.62947 99.1051C5.7044 98.5546 5.78259 98.0007 5.86729 97.4534C5.86729 97.372 5.89009 97.2873 5.90313 97.2091C6.49774 93.2025 7.30793 89.231 8.33019 85.3117C9.40024 81.2003 10.7667 77.1718 12.4187 73.2578C14.1746 69.1634 16.2304 65.2042 18.5695 61.4125L37.5722 61.3962Z" fill="#1FA0BD"/>
<path opacity="0.1" d="M45.4658 110.175V155.243H116.085V110.175H45.4658ZM45.4658 156.634V195.337C45.8698 195.422 46.2705 195.503 46.6679 195.571C47.2087 195.676 47.7463 195.77 48.2968 195.852C48.4011 195.868 48.5086 195.884 48.6226 195.894C48.8376 195.93 49.0592 195.959 49.2742 195.988C49.8182 196.063 50.359 196.125 50.9031 196.174C51.1605 196.2 51.4211 196.223 51.6817 196.243L52.3105 196.291C52.6525 196.317 52.9913 196.337 53.3269 196.347C53.5354 196.347 53.7439 196.366 53.9589 196.373C54.1218 196.373 54.2847 196.373 54.4541 196.373C54.6235 196.373 54.8646 196.373 55.0698 196.373C55.35 196.373 55.6302 196.373 55.9071 196.373H56.2817C56.5619 196.373 56.8421 196.373 57.119 196.347H57.1385C57.3307 196.347 57.5262 196.347 57.7217 196.321C57.7759 196.324 57.8303 196.324 57.8846 196.321C58.0474 196.321 58.2103 196.321 58.3667 196.298H58.4807L59.5721 196.213C59.9305 196.181 60.2921 196.138 60.6569 196.099L61.3997 196.011C64.4216 195.588 67.4099 194.952 70.3424 194.109C76.9297 192.271 83.3736 189.701 89.9576 187.818C98.4702 185.391 107.876 184.199 116.101 187.166V156.634H45.4658ZM116.085 60.0019V0.00325254C108.354 -0.0805129 100.643 0.823785 93.1405 2.69419C75.2584 7.18667 59.2137 16.9307 45.4658 29.3755V59.9987H49.0103V61.3897H45.4658V108.784H116.085V61.393H63.5629V60.0019H116.085ZM206.792 39.7352C202.368 39.5788 197.97 38.178 193.992 36.0148C186.385 31.8774 180.309 25.4889 173.52 20.0973C159.414 8.86769 141.92 2.09149 123.972 0.410476V60.0019H224.785L225.036 59.738L206.792 39.7352ZM215.976 38.1063L225.713 48.7919V35.3046C222.452 35.7086 219.595 36.6696 215.989 38.0933L215.976 38.1063ZM225.713 204.947V156.634H204.964C204.909 156.429 204.854 156.221 204.789 156.012C204.85 156.221 204.903 156.429 204.961 156.634H123.985V191.574C124.754 192.144 125.513 192.744 126.266 193.353C127.077 194.004 127.878 194.692 128.683 195.366L129.494 196.037C129.882 196.363 130.273 196.689 130.667 196.995C131.449 197.629 132.238 198.255 133.035 198.872C133.43 199.197 133.834 199.491 134.234 199.797C140.596 204.661 147.307 209.05 154.312 212.929C155.882 213.798 157.467 214.646 159.065 215.473C160.131 216.017 161.202 216.558 162.278 217.083C163.893 217.871 165.522 218.631 167.164 219.363C182.302 226.158 198.309 230.821 214.728 233.218C218.375 233.757 222.035 234.181 225.71 234.489V204.944H226.036L225.713 204.947ZM123.985 61.393V108.784H225.726V61.393H123.985ZM123.985 110.175V155.243H225.726V110.175H123.985ZM233.623 35.246V50.2905L246.052 36.6534C241.934 35.9888 237.791 35.5142 233.623 35.2297V35.246ZM233.623 110.191V155.243H332.579V110.175L233.623 110.191ZM332.217 208.524L332.566 156.634H233.623V235.007C239.997 235.275 246.381 235.199 252.747 234.779H252.857C255.898 234.588 258.925 234.31 261.937 233.945H262.005C278.076 232.075 293.791 227.882 308.657 221.497L332.217 208.524ZM351.66 117.596C351.289 116.72 350.901 115.85 350.507 114.99C349.77 113.361 348.992 111.778 348.19 110.195H340.469V155.243H359.99C359.98 142.486 356.752 129.455 351.67 117.58L351.66 117.596ZM340.469 156.651V201.282C345.969 196.011 350.614 189.981 353.96 183.088C357.983 174.787 359.824 165.799 359.974 156.644L340.469 156.651ZM340.469 97.0592V108.787H347.467C345.35 104.75 343.018 100.83 340.479 97.043L340.469 97.0592ZM273.359 44.0876C272.844 43.8922 272.329 43.6934 271.811 43.5012C266.348 41.4838 260.766 39.8061 255.096 38.4777L236.076 59.3504L235.712 59.738L235.956 60.0052H303.647C294.219 53.5158 284.056 48.1672 273.369 44.0713L273.359 44.0876ZM305.631 61.4093H235.011L233.623 62.6798V108.784H245.788H245.808H332.592V86.4519C324.742 76.9573 315.68 68.5326 305.64 61.393L305.631 61.4093Z" fill="#1FA0BD"/>
<path opacity="0.1" d="M37.5722 85.2986V108.784H4.61304C4.61304 108.647 4.63584 108.507 4.64561 108.37C4.67493 107.996 4.70425 107.621 4.73683 107.25C4.77267 106.813 4.81176 106.373 4.85411 105.946C4.89647 105.52 4.94207 104.998 4.99094 104.526C5.03981 104.054 5.08542 103.575 5.1408 103.102C5.19618 102.63 5.24505 102.158 5.30369 101.689C5.36233 101.219 5.41446 100.744 5.47635 100.275C5.52522 99.8838 5.57734 99.4961 5.62947 99.1051C5.7044 98.5546 5.78259 98.0008 5.86729 97.4534C5.86729 97.372 5.89009 97.2873 5.90313 97.2091C6.49774 93.2026 7.30793 89.231 8.33019 85.3117L37.5722 85.2986Z" fill="#1FA0BD"/>
<path opacity="0.1" d="M4.5088 110.178H37.5722V155.243H6.92935C6.8479 155.706 6.76971 156.172 6.68501 156.638H37.5722V192.982C37.5168 192.965 37.468 192.946 37.4158 192.926C36.5427 192.581 35.6762 192.216 34.8096 191.825L34.2558 191.574C33.387 191.164 32.5183 190.729 31.6495 190.271C31.3466 190.111 31.0436 189.945 30.7439 189.776C25.921 187.074 21.5396 183.651 17.7518 179.625C17.641 179.517 17.5367 179.403 17.426 179.299C16.8982 178.725 16.3802 178.146 15.8785 177.553L15.3247 176.901C14.7318 176.175 14.1584 175.429 13.6013 174.673C13.5199 174.562 13.4417 174.451 13.357 174.347C11.0913 171.206 9.21013 167.804 7.75357 164.215C7.70796 164.108 7.66887 163.99 7.62651 163.889C7.17911 162.738 6.78274 161.576 6.43742 160.404C6.28756 159.912 6.14422 159.426 6.02042 158.915C5.97481 158.765 5.93572 158.618 5.89988 158.472C4.04945 151.249 3.83118 143.747 3.83118 136.296C3.83118 135.426 3.83118 134.553 3.83118 133.69C3.83118 130.676 3.86701 127.643 3.91914 124.614C3.91914 123.828 3.95171 123.047 3.968 122.258C4.01361 120.258 4.07877 118.258 4.16347 116.257C4.18302 115.7 4.20908 115.146 4.2384 114.593C4.2384 114.273 4.25469 113.954 4.28727 113.635C4.36546 112.475 4.43061 111.325 4.5088 110.178Z" fill="#1FA0BD"/>
<path opacity="0.1" d="M70.3261 68.1789V108.784H45.4658V68.1789H49.0103V54.4311H63.5596V68.1789H70.3261Z" fill="#1FA0BD"/>
<path opacity="0.1" d="M70.3261 110.175H45.4691V155.24H70.3261V110.175Z" fill="#1FA0BD"/>
<path opacity="0.1" d="M45.4658 156.638H70.3261V194.102C67.3936 194.945 64.4053 195.579 61.3834 196.001L60.6407 196.093C60.2758 196.135 59.9142 196.171 59.5558 196.207C59.1975 196.243 58.8261 196.269 58.4644 196.291H58.3504C58.1941 196.291 58.0246 196.311 57.8715 196.314H57.7054C57.5099 196.314 57.3144 196.334 57.119 196.34C56.8421 196.357 56.5651 196.36 56.2817 196.363C56.1612 196.363 56.0472 196.363 55.9266 196.363C55.6464 196.363 55.3695 196.363 55.0894 196.363H54.4736C54.3075 196.363 54.1479 196.363 53.9752 196.363L53.3464 196.34C53.0207 196.34 52.6688 196.304 52.33 196.282L51.7045 196.236L50.9259 196.164C50.3786 196.115 49.8345 196.054 49.297 195.979L48.6454 195.887L48.3197 195.842C47.7756 195.757 47.2381 195.666 46.6908 195.562C46.29 195.493 45.8926 195.409 45.4886 195.327L45.4658 156.638Z" fill="#1FA0BD"/>
<path opacity="0.1" d="M225.726 63.3835H205.228V108.781H225.726V63.3835Z" fill="#1FA0BD"/>
<path opacity="0.1" d="M225.73 110.175V155.243H123.985V135.804H178.179V147.272H205.228V110.175H225.73Z" fill="#1FA0BD"/>
<path opacity="0.1" d="M226.052 204.957H225.726V234.522C222.056 234.211 218.396 233.789 214.748 233.254C198.321 230.849 182.307 226.177 167.164 219.37C162.792 217.402 158.509 215.254 154.315 212.926C147.31 209.045 140.598 204.656 134.234 199.794C132.636 198.569 131.058 197.315 129.501 196.034C128.422 195.145 127.351 194.233 126.266 193.346C125.513 192.737 124.754 192.138 123.985 191.564V156.638H204.958C204.903 156.429 204.847 156.221 204.789 156.015C204.85 156.221 204.909 156.429 204.965 156.638H225.726V204.938C225.837 204.941 225.945 204.951 226.052 204.957Z" fill="#1FA0BD"/>
<path opacity="0.1" d="M279.187 60.0019H265.83V55.8515H271.818V43.4882C272.337 43.6771 272.854 43.8715 273.369 44.0713V55.8515H279.187V60.0019Z" fill="#1FA0BD"/>
<path opacity="0.1" d="M311.368 108.784H245.795C245.795 108.784 245.795 108.784 245.817 108.8L245.788 108.784H233.623V63.3867H237.07V96.942H252.822V77.0695H265.833V61.3962H279.19V77.0825H292.202V96.955H311.368V108.784Z" fill="#1FA0BD"/>
<path opacity="0.1" d="M233.623 110.175V155.243H311.368V110.175H233.623ZM332.472 208.293L332.579 172.62H311.368V156.657H233.623V235.007C239.997 235.275 246.381 235.199 252.747 234.779H252.857C255.898 234.588 258.925 234.31 261.937 233.945H262.005C278.076 232.075 293.791 227.882 308.657 221.497" fill="#1FA0BD"/>
<path opacity="0.1" d="M341.851 156.638H359.987C359.827 165.789 357.99 174.777 353.97 183.078C350.624 189.975 345.975 196.005 340.482 201.273V172.604H341.851V156.638Z" fill="#1FA0BD"/>
<path opacity="0.1" d="M359.997 155.243H341.851V117.58H351.67C356.752 129.455 359.98 142.486 359.997 155.243Z" fill="#1FA0BD"/>
<path opacity="0.1" d="M225.73 76.0042H214.748V90.2374H225.73V76.0042Z" fill="#1FA0BD"/>
<path opacity="0.1" d="M225.73 105.507H214.748V108.784H225.73V105.507Z" fill="#1FA0BD"/>
<path opacity="0.1" d="M225.73 110.175H214.748V119.737H225.73V110.175Z" fill="#1FA0BD"/>
<path opacity="0.1" d="M225.73 135.009H214.748V149.242H225.73V135.009Z" fill="#1FA0BD"/>
<path opacity="0.1" d="M225.73 164.512H214.748V178.745H225.73V164.512Z" fill="#1FA0BD"/>
<path opacity="0.1" d="M225.726 204.938C225.837 204.938 225.945 204.938 226.052 204.957H225.726V208.264H214.748V194.014H225.726V204.938Z" fill="#1FA0BD"/>
<path opacity="0.1" d="M225.726 223.51V234.505C222.056 234.195 218.396 233.772 214.748 233.238V223.51H225.726Z" fill="#1FA0BD"/>
<path opacity="0.1" d="M171.051 154.198H123.985V155.243H171.051V154.198Z" fill="#1FA0BD"/>
<path opacity="0.1" d="M171.051 156.634H123.985V160.641H171.051V156.634Z" fill="#1FA0BD"/>
<path opacity="0.1" d="M171.051 173.777H123.985V180.221H171.051V173.777Z" fill="#1FA0BD"/>
<path opacity="0.1" d="M171.048 193.356V199.8H134.234C132.636 198.579 131.057 197.326 129.498 196.041C128.419 195.151 127.351 194.239 126.263 193.356H171.048Z" fill="#1FA0BD"/>
<path opacity="0.1" d="M171.048 212.932V219.37H167.161C162.793 217.4 158.512 215.251 154.316 212.922L171.048 212.932Z" fill="#1FA0BD"/>
<path opacity="0.1" d="M262.015 114.544H252.75V123.809H262.015V114.544Z" fill="#1FA0BD"/>
<path opacity="0.1" d="M61.4063 71.3749H52.1411V80.64H61.4063V71.3749Z" fill="#1FA0BD"/>
<path opacity="0.1" d="M61.4063 92.8958H52.1411V102.161H61.4063V92.8958Z" fill="#1FA0BD"/>
<path opacity="0.1" d="M61.4063 114.417H52.1411V123.682H61.4063V114.417Z" fill="#1FA0BD"/>
<path opacity="0.1" d="M61.4063 135.934H52.1411V145.2H61.4063V135.934Z" fill="#1FA0BD"/>
<path opacity="0.1" d="M61.4063 157.455H52.1411V166.72H61.4063V157.455Z" fill="#1FA0BD"/>
<path opacity="0.1" d="M61.4063 178.976H52.1411V188.241H61.4063V178.976Z" fill="#1FA0BD"/>
<path opacity="0.1" d="M297.385 114.544H288.12V123.809H297.385V114.544Z" fill="#1FA0BD"/>
<path opacity="0.1" d="M262.015 137.397H252.75V146.662H262.015V137.397Z" fill="#1FA0BD"/>
<path opacity="0.1" d="M297.385 137.397H288.12V146.662H297.385V137.397Z" fill="#1FA0BD"/>
<path opacity="0.1" d="M262.015 160.247H252.75V169.512H262.015V160.247Z" fill="#1FA0BD"/>
<path opacity="0.1" d="M297.385 160.247H288.12V169.512H297.385V160.247Z" fill="#1FA0BD"/>
<path opacity="0.1" d="M262.015 183.101H252.75V192.366H262.015V183.101Z" fill="#1FA0BD"/>
<path opacity="0.1" d="M297.385 183.101H288.12V192.366H297.385V183.101Z" fill="#1FA0BD"/>
<path opacity="0.1" d="M262.015 205.954H252.75V215.219H262.015V205.954Z" fill="#1FA0BD"/>
<path opacity="0.1" d="M297.385 205.954H288.12V215.219H297.385V205.954Z" fill="#1FA0BD"/>
<path opacity="0.1" d="M252.75 234.779V228.804H262.012V233.929L252.75 234.779Z" fill="#1FA0BD"/>
<path opacity="0.1" d="M5.86401 97.2026V102.503H37.5722V97.2026H5.86401ZM9.02408 102.171H6.43739V97.5284H9.04363L9.02408 102.171ZM12.1809 102.171H9.57465V97.5284H12.1809V102.171ZM15.3312 102.171H12.7249V97.5284H15.3312V102.171ZM18.488 102.171H15.885V97.5284H18.4912L18.488 102.171ZM21.6415 102.171H19.0353V97.5284H21.6415V102.171ZM24.7983 102.171H22.1921V97.5284H24.7983V102.171ZM27.9552 102.171H25.3489V97.5284H27.9552V102.171ZM31.1087 102.171H28.5025V97.5284H31.1087V102.171ZM34.2623 102.171H31.656V97.5284H34.2623V102.171ZM37.4158 102.171H34.8096V97.5284H37.4158V102.171Z" fill="#1FA0BD"/>
<path opacity="0.1" d="M5.86401 112.625V117.925H37.5722V112.625H5.86401ZM9.02408 117.59H6.43739V112.96H9.04363L9.02408 117.59ZM12.1809 117.59H9.57465V112.96H12.1809V117.59ZM15.3312 117.59H12.7249V112.96H15.3312V117.59ZM18.488 117.59H15.885V112.96H18.4912L18.488 117.59ZM21.6415 117.59H19.0353V112.96H21.6415V117.59ZM24.7983 117.59H22.1921V112.96H24.7983V117.59ZM27.9552 117.59H25.3489V112.96H27.9552V117.59ZM31.1087 117.59H28.5025V112.96H31.1087V117.59ZM34.2623 117.59H31.656V112.96H34.2623V117.59ZM37.4158 117.59H34.8096V112.96H37.4158V117.59Z" fill="#1FA0BD"/>
<path opacity="0.1" d="M5.86401 128.054V133.364H37.5722V128.054H5.86401ZM9.02408 133.019H6.43739V128.386H9.04363L9.02408 133.019ZM12.1809 133.019H9.57465V128.386H12.1809V133.019ZM15.3312 133.019H12.7249V128.386H15.3312V133.019ZM18.488 133.019H15.885V128.386H18.4912L18.488 133.019ZM21.6415 133.019H19.0353V128.386H21.6415V133.019ZM24.7983 133.019H22.1921V128.386H24.7983V133.019ZM27.9552 133.019H25.3489V128.386H27.9552V133.019ZM31.1087 133.019H28.5025V128.386H31.1087V133.019ZM34.2623 133.019H31.656V128.386H34.2623V133.019ZM37.4158 133.019H34.8096V128.386H37.4158V133.019Z" fill="#1FA0BD"/>
<path opacity="0.1" d="M5.86401 143.483V148.777H37.5722V143.483H5.86401ZM9.02408 148.448H6.43739V143.812H9.04363L9.02408 148.448ZM12.1809 148.448H9.57465V143.812H12.1809V148.448ZM15.3312 148.448H12.7249V143.812H15.3312V148.448ZM18.488 148.448H15.885V143.812H18.4912L18.488 148.448ZM21.6415 148.448H19.0353V143.812H21.6415V148.448ZM24.7983 148.448H22.1921V143.812H24.7983V148.448ZM27.9552 148.448H25.3489V143.812H27.9552V148.448ZM31.1087 148.448H28.5025V143.812H31.1087V148.448ZM34.2623 148.448H31.656V143.812H34.2623V148.448ZM37.4158 148.448H34.8096V143.812H37.4158V148.448Z" fill="#1FA0BD"/>
<path opacity="0.1" d="M6.00085 158.908C6.12791 159.407 6.27125 159.905 6.42111 160.397V159.241H9.02735V163.873H7.63301C7.67536 163.981 7.71771 164.098 7.76006 164.199H37.5722V158.908H6.00085ZM12.1907 163.873H9.58444V159.241H12.1907V163.873ZM15.341 163.873H12.7347V159.241H15.341V163.873ZM18.4978 163.873H15.885V159.241H18.4913L18.4978 163.873ZM21.6513 163.873H19.0451V159.241H21.6513V163.873ZM24.8081 163.873H22.2019V159.241H24.8081V163.873ZM27.9649 163.873H25.3587V159.241H27.9649V163.873ZM31.1185 163.873H28.5123V159.241H31.1185V163.873ZM34.2721 163.873H31.6658V159.241H34.2721V163.873ZM37.4256 163.873H34.8194V159.241H37.4256V163.873Z" fill="#1FA0BD"/>
<path opacity="0.1" d="M13.3635 174.337C13.4449 174.441 13.5231 174.559 13.6078 174.663H15.3312V176.888C15.5169 177.11 15.6993 177.331 15.8883 177.54V174.65H18.4945V179.299H17.439C17.5432 179.406 17.6442 179.52 17.7648 179.625H37.582V174.337H13.3635ZM21.6415 179.299H19.0353V174.669H21.6415V179.299ZM24.7983 179.299H22.1921V174.669H24.7983V179.299ZM27.9552 179.299H25.3489V174.669H27.9552V179.299ZM31.1087 179.299H28.5025V174.669H31.1087V179.299ZM34.2623 179.299H31.656V174.669H34.2623V179.299ZM37.4158 179.299H34.8096V174.669H37.4158V179.299Z" fill="#1FA0BD"/>
<path opacity="0.1" d="M30.7569 189.763C31.0534 189.932 31.3563 190.089 31.6626 190.258V190.095H34.2688V191.561L34.8226 191.818V190.095H37.4289V192.913C37.4789 192.938 37.5313 192.958 37.5853 192.972V189.763H30.7569Z" fill="#1FA0BD"/>
<path opacity="0.1" d="M245.795 108.784H245.814H245.795ZM225.727 204.934H226.052H225.727ZM204.789 156.012C204.851 156.221 204.903 156.429 204.961 156.634C204.909 156.429 204.854 156.221 204.789 156.012ZM245.795 108.774H245.814H245.795ZM49.0234 59.9921V61.3832H63.576V59.9921H49.0234ZM225.727 204.934H226.052H225.727ZM204.789 156.012C204.851 156.221 204.903 156.429 204.961 156.634C204.909 156.429 204.854 156.221 204.789 156.012ZM245.795 108.774H245.814H245.795ZM225.727 204.925H226.052H225.727ZM204.789 156.012C204.851 156.221 204.903 156.429 204.961 156.634C204.909 156.429 204.854 156.221 204.789 156.012Z" fill="#1FA0BD"/>
<path d="M150.38 123.688C150.38 123.688 149.096 123.509 149.096 121.639C149.096 119.769 148.178 116.277 148.178 116.277C148.178 116.261 147.383 110.195 146.285 109.23C145.187 108.266 143.777 102.604 143.777 102.604C143.777 102.604 143.535 99.5319 143.044 98.8706C142.552 98.2093 141.887 96.5901 140.906 94.2804C139.926 91.9706 135.837 90.371 135.837 90.371C135.837 90.371 128.445 86.0838 126.351 84.6862C126.16 84.5714 125.982 84.4371 125.82 84.2855C125.455 83.8066 123.865 83.7968 123.865 83.7968C123.699 82.7478 123.539 81.5424 123.487 80.4511C123.487 80.3338 123.487 80.2165 123.471 80.0992C125.806 78.7185 127.566 76.5416 128.426 73.9681C128.465 73.8443 128.497 73.714 128.533 73.5902C128.673 73.5441 128.802 73.4693 128.911 73.3705C129.021 73.2718 129.108 73.1513 129.169 73.0168C129.357 72.5965 129.361 72.1046 129.595 71.7137C129.869 71.2511 130.39 71.0035 130.801 70.6549C131.837 69.7753 132.104 68.293 132.055 66.9443C132.022 65.8529 131.846 64.7518 131.915 63.6669L131.934 63.3933C131.954 63.2304 131.977 63.0675 132.006 62.9111C132.166 62.1032 132.514 61.3409 132.71 60.5395C132.905 59.7381 132.925 58.8356 132.469 58.145C131.801 57.1318 130.41 56.9298 129.188 56.8256C127.804 56.7083 126.566 56.8614 125.679 55.7114C125.265 55.1104 124.798 54.5468 124.285 54.0272C124.103 53.8577 122.33 52.7762 122.33 52.7045C120.601 51.9034 118.64 51.753 116.808 52.281C115.89 52.5481 115.023 52.9847 114.091 53.2029C112.081 53.6786 109.768 53.1638 108.061 54.3138C107.11 54.9654 106.54 56.0014 106.006 57.0113C105.571 57.8431 105.13 58.6738 104.683 59.5035C103.963 60.8685 103.23 62.2563 102.927 63.7679C102.863 64.0969 102.824 64.4301 102.81 64.7648V64.7811C102.81 64.9016 102.81 65.0222 102.81 65.1427V65.2958C102.81 65.4099 102.81 65.5206 102.829 65.6216C102.849 65.7226 102.845 65.7552 102.855 65.8236C102.865 65.892 102.881 66.0451 102.901 66.1494C102.92 66.2536 102.96 66.4361 102.999 66.5794C103.015 66.6413 103.038 66.6999 103.057 66.7586C103.09 66.8693 103.129 66.9769 103.171 67.0844C103.194 67.1397 103.217 67.1984 103.243 67.2538C103.292 67.3678 103.35 67.4786 103.409 67.5795C103.435 67.6252 103.455 67.6675 103.481 67.7099C103.572 67.8614 103.672 68.0071 103.78 68.1464C104.478 69.0162 105.504 69.5701 106.263 70.3845C106.263 70.4171 106.263 70.4497 106.263 70.479C106.263 70.5702 106.263 70.6582 106.263 70.7494C106.303 72.5658 106.787 74.3448 107.671 75.9317C108.556 77.5187 109.815 78.8654 111.339 79.8549C111.339 79.9787 111.355 80.1057 111.361 80.2295C111.425 81.1966 111.413 82.1671 111.326 83.1322C111.193 82.976 111.027 82.8515 110.84 82.7681C110.652 82.6846 110.449 82.6443 110.244 82.6501C110.104 82.6432 109.964 82.6553 109.827 82.6859L109.798 82.6631V82.6924C109.081 82.8683 108.198 83.6144 107.354 85.7352C107.354 85.7352 104.787 88.6281 102.832 88.5076C100.878 88.387 95.9292 91.5178 95.9292 91.5178C95.9292 91.5178 91.1011 94.6518 90.0651 97.8444C89.4861 99.6548 88.7918 101.426 87.9867 103.148L82.0184 115.446L80.9172 125.203C80.9172 125.203 81.5264 129.543 81.4059 130.204C81.2854 130.865 83.9112 136.83 83.9112 136.83C83.9112 136.83 92.5867 152.074 96.1312 152.855L96.3853 152.676C96.5369 152.755 96.6978 152.816 96.8642 152.855L97.5939 152.341C97.6377 152.914 97.6192 153.491 97.5385 154.061C97.0499 155.566 97.721 165.388 98.5745 167.313C99.4281 169.239 99.1251 194.483 99.1251 194.483L99.0046 196.712C99.0046 196.712 99.0046 196.783 99.0339 196.907L99.0046 197.435L99.0925 197.481C99.1838 198.187 99.1541 198.905 99.0046 199.601C98.6983 200.579 98.5745 203.341 98.5745 203.341C98.5745 203.341 96.1344 218.94 97.2909 222.074C98.4475 225.208 99.4313 228.641 99.4313 228.641C99.4313 228.641 100.653 232.551 99.49 233.218C98.3269 233.886 95.0203 235.007 95.7011 236.636C96.3201 238.141 98.669 242.174 99.0176 242.764L98.9883 243.073L98.5094 248.263C98.5869 248.948 98.7727 249.617 99.0599 250.244C99.5844 251.374 100.604 252.547 102.543 252.42C102.868 252.397 103.246 252.358 103.611 252.309C107.159 251.833 111.528 250.25 111.528 250.25C111.301 250.106 111.093 249.934 110.909 249.739C110.734 249.57 110.596 249.367 110.502 249.143C110.409 248.919 110.362 248.678 110.365 248.436C110.417 247.491 108.648 242.989 108.208 241.881C108.139 241.721 108.104 241.63 108.104 241.63C108.104 241.63 112.137 237.414 111.466 233.678C111.466 233.678 107.002 231.072 108.472 229.641C109.941 228.211 112.567 224.103 112.567 224.103C112.567 224.103 112.687 208.743 112.567 206.449C112.441 204.857 112.517 203.256 112.792 201.683C112.84 201.445 112.899 201.214 112.961 200.986C114.993 201.289 117.044 201.445 119.099 201.452C119.848 201.452 120.61 201.452 121.379 201.406C121.379 201.623 121.389 201.858 121.408 202.11C121.578 205.915 121.894 212.587 122.151 215.066C122.516 218.62 124.533 228.198 124.533 228.198C124.533 228.198 120.685 230.668 125.204 236.753C125.204 236.753 125.204 238.959 124.904 239.278C124.584 240.322 124.326 241.383 124.132 242.458C123.943 243.604 123.865 244.764 124.171 245.367C124.904 246.807 129.302 246.689 129.302 246.689L129.41 246.67C130.24 246.584 131.079 246.664 131.878 246.905C132.677 247.146 133.421 247.543 134.065 248.074C135.736 249.416 142.079 248.827 145.513 248.4C146.858 248.23 147.758 248.074 147.758 248.074C147.801 247.922 147.817 247.763 147.803 247.605C147.767 246.761 147.106 244.911 142.623 243.259C142.623 243.259 138.408 240.425 138.466 237.955H138.378H137.89C138.245 237.936 138.473 237.955 138.473 237.955C138.473 237.955 136.821 231.928 137.495 231.44C138.17 230.951 136.15 224.273 136.15 224.273C136.15 224.273 134.993 213.066 134.932 212.281C134.934 211.607 135.036 210.937 135.235 210.293L134.932 204.149C134.932 204.149 134.873 202.107 134.932 201.442C134.922 200.865 134.875 200.29 134.791 199.719C134.762 199.491 134.733 199.253 134.7 199.018C136.28 198.618 137.307 198.246 137.307 198.246L137.124 176.859C138.466 174.253 138.714 168.535 138.707 164.479C138.707 161.873 138.59 159.944 138.59 159.944L140.424 156.95C140.424 156.95 140.848 153.367 140.177 152.582C139.88 152.227 140.014 151.858 140.258 151.556C140.385 151.455 140.519 151.363 140.659 151.282C140.659 151.282 140.639 151.253 140.616 151.21C140.745 151.103 140.881 151.006 141.024 150.92C141.024 150.92 140.372 149.91 140.955 149.484C141.503 149.855 141.991 150.135 142.363 150.363C142.337 150.601 142.31 150.738 142.31 150.738L142.467 150.412C142.825 150.614 143.044 150.738 143.044 150.738C143.044 150.738 145.917 145.014 145.855 144.17C145.793 143.326 147.81 139.772 147.81 139.772C147.81 139.772 148.054 137.905 149.155 137.124C150.256 136.342 150.009 130.676 150.009 130.676C150.009 130.676 150.315 127.725 151.048 126.519C151.781 125.314 150.38 123.688 150.38 123.688ZM95.4014 121.177L95.4568 122.542C95.131 122.017 94.8965 121.639 94.8965 121.639L95.4014 121.177Z" fill="url(#paint0_linear)"/>
<path d="M143.2 148.265L142.496 151.262C142.496 151.262 136.86 148.386 135.844 144.73C134.827 141.075 137.544 139.687 137.544 139.687L142.796 141.912L143.2 148.265Z" fill="white"/>
<path opacity="0.1" d="M143.2 148.265L142.496 151.262C142.496 151.262 136.86 148.386 135.844 144.73C134.827 141.075 137.544 139.687 137.544 139.687L142.796 141.912L143.2 148.265Z" fill="black"/>
<path d="M111.57 250.27C111.57 250.27 106.357 252.185 102.774 252.426C100.871 252.553 99.8711 251.387 99.3564 250.263C99.0752 249.638 98.8938 248.973 98.8188 248.292L99.2847 243.129L99.5323 240.379L107.146 238.402L108.224 241.698L108.325 241.949C108.758 243.05 110.495 247.53 110.443 248.465C110.441 248.704 110.487 248.942 110.579 249.163C110.67 249.384 110.806 249.584 110.977 249.752C111.152 249.949 111.351 250.123 111.57 250.27Z" fill="white"/>
<path d="M147.174 247.644C147.188 247.801 147.172 247.959 147.129 248.11C147.129 248.11 135.981 249.97 133.7 248.11C133.057 247.566 132.308 247.163 131.5 246.927C130.692 246.69 129.844 246.625 129.009 246.735C129.009 246.735 124.696 246.852 123.976 245.432C123.676 244.836 123.754 243.679 123.94 242.539C124.129 241.471 124.382 240.414 124.696 239.376L124.868 239.239L125.895 238.415L137.909 238.06H138.001C137.942 240.516 142.079 243.334 142.079 243.334C146.474 244.963 147.122 246.803 147.174 247.644Z" fill="white"/>
<path opacity="0.1" d="M147.174 247.644C147.186 247.801 147.169 247.959 147.125 248.11C147.125 248.11 135.981 249.97 133.7 248.11C133.058 247.567 132.309 247.164 131.501 246.927C130.694 246.69 129.846 246.625 129.012 246.735C129.012 246.735 124.696 246.852 123.979 245.432C123.679 244.832 123.754 243.679 123.94 242.539C125.601 242.705 128.224 243.119 129.253 244.106C130.81 245.608 133.449 247.106 135.068 247.224C136.336 247.305 143.917 247.546 147.174 247.644Z" fill="black"/>
<path opacity="0.1" d="M111.57 250.27C111.57 250.27 106.357 252.185 102.774 252.426C100.871 252.553 99.8711 251.387 99.3596 250.26C100.686 250.706 102.526 251.175 103.494 250.745C104.641 250.237 108.706 249.908 110.987 249.768C111.16 249.958 111.356 250.126 111.57 250.27Z" fill="black"/>
<path d="M119.304 95.8994C115.004 94.2282 109.472 88.7062 110.853 86.1261C111.16 85.475 111.342 84.7723 111.391 84.0541C111.48 83.0793 111.493 82.099 111.43 81.1221C111.333 79.5222 111.14 77.9296 110.853 76.3527C110.853 76.3527 124.279 76.6557 123.497 78.6332C123.269 79.2131 123.233 80.2197 123.295 81.3469C123.357 82.4741 123.519 83.7479 123.689 84.8262C123.923 86.3053 124.158 87.4325 124.158 87.4325C124.158 87.4325 123.337 88.5824 122.855 88.6443C122.373 88.7062 125.474 98.2809 119.304 95.8994Z" fill="#CF6F80"/>
<path opacity="0.1" d="M108.315 241.949L108.214 242.06C104.201 237.206 99.3466 243.256 99.3466 243.256L99.2749 243.129L99.5225 240.379L107.136 238.402L108.214 241.698L108.315 241.949Z" fill="black"/>
<path opacity="0.1" d="M138.004 238.402C138.004 238.402 135.072 238.34 133.508 239.721C131.944 241.102 124.386 240.021 124.712 239.721C124.808 239.572 124.867 239.402 124.881 239.226L125.907 238.402L137.922 238.047C137.968 238.265 138.004 238.402 138.004 238.402Z" fill="black"/>
<path d="M113.31 200.282C113.091 200.822 112.925 201.382 112.814 201.953C112.543 203.519 112.467 205.112 112.59 206.697C112.71 208.977 112.59 224.259 112.59 224.259C112.59 224.259 110.013 228.335 108.576 229.772C107.139 231.208 111.508 233.789 111.508 233.789C112.16 237.502 108.211 241.698 108.211 241.698C104.197 236.844 99.3433 242.897 99.3433 242.897C99.3433 242.897 96.7045 238.336 96.0464 236.707C95.3884 235.079 98.6234 233.951 99.7603 233.29C100.897 232.629 99.705 228.729 99.705 228.729C99.705 228.729 98.7439 225.312 97.6037 222.194C96.4634 219.076 98.8612 203.556 98.8612 203.556C98.8612 203.556 98.985 200.8 99.2814 199.839C99.431 199.146 99.4608 198.432 99.3694 197.728C99.3499 197.49 99.327 197.292 99.3108 197.158C99.2945 197.024 99.2814 196.962 99.2814 196.962L99.327 196.884L100.956 193.848C100.956 193.848 114.091 198.37 113.31 200.282Z" fill="#1FA0BD"/>
<path d="M138.004 238.043C138.004 238.043 135.072 237.981 133.508 239.346C131.944 240.711 124.386 239.646 124.712 239.346C125.038 239.047 125.012 236.828 125.012 236.828C120.578 230.775 124.36 228.319 124.36 228.319C124.36 228.319 122.379 218.79 122.021 215.255C121.77 212.786 121.461 206.149 121.294 202.361C121.223 200.732 121.18 199.611 121.18 199.611L124.803 198.881L125.269 198.787L134.006 197.034C134.006 197.034 134.247 198.663 134.41 199.996C134.492 200.564 134.537 201.138 134.547 201.712C134.489 202.364 134.547 204.403 134.547 204.403L134.844 210.518C134.65 211.16 134.55 211.826 134.547 212.496C134.606 213.274 135.743 224.422 135.743 224.422C135.743 224.422 137.72 231.075 137.046 231.554C136.372 232.033 138.004 238.043 138.004 238.043Z" fill="#1FA0BD"/>
<path opacity="0.1" d="M123.497 78.6332C123.269 79.2131 123.233 80.2197 123.295 81.3469C121.496 82.4298 119.429 82.9834 117.33 82.9443C115.232 82.9051 113.186 82.2746 111.43 81.1254C111.333 79.5244 111.141 77.9307 110.853 76.3527C110.853 76.3527 124.279 76.6492 123.497 78.6332Z" fill="black"/>
<path d="M128.686 71.4335C128.689 72.6074 128.504 73.7743 128.139 74.89C127.323 77.3899 125.649 79.5208 123.414 80.9061C121.178 82.2913 118.525 82.8417 115.923 82.4601C113.321 82.0784 110.938 80.7892 109.195 78.8203C107.452 76.8514 106.46 74.3296 106.397 71.7006C106.397 71.6094 106.397 71.5247 106.397 71.4335C106.371 69.9537 106.641 68.4836 107.19 67.1091C107.738 65.7346 108.555 64.4831 109.593 63.4277C110.631 62.3722 111.868 61.5339 113.233 60.9617C114.598 60.3895 116.063 60.0948 117.543 60.0948C119.023 60.0948 120.488 60.3895 121.853 60.9617C123.218 61.5339 124.456 62.3722 125.493 63.4277C126.531 64.4831 127.348 65.7346 127.897 67.1091C128.445 68.4836 128.715 69.9537 128.69 71.4335H128.686Z" fill="#CF6F80"/>
<path opacity="0.1" d="M119.304 95.8994C115.004 94.2282 109.472 88.7063 110.853 86.1261C111.16 85.475 111.342 84.7723 111.391 84.0541L117.278 88.8919L120.92 91.8793L123.689 84.8295C123.923 86.3085 124.158 87.4357 124.158 87.4357C124.158 87.4357 123.337 88.5857 122.855 88.6476C122.373 88.7095 125.474 98.2809 119.304 95.8994Z" fill="black"/>
<path d="M134.528 117.28L129.612 199.865L123.2 200.285L106.599 152.399L109.322 95.5476L109.895 83.5361L117.278 89.5989L120.923 92.5863L123.774 85.3312L129.074 89.9507L134.528 117.28Z" fill="#1FA0BD"/>
<path opacity="0.1" d="M113.31 200.282C113.091 200.822 112.925 201.382 112.814 201.953C108.149 201.233 103.618 199.818 99.3726 197.754L99.2847 197.709L99.314 197.184L99.3303 196.91L100.959 193.874C100.959 193.874 114.091 198.37 113.31 200.282Z" fill="black"/>
<path opacity="0.1" d="M124.878 201.966C123.685 202.169 122.483 202.306 121.275 202.377C121.203 200.748 121.161 199.627 121.161 199.627L124.784 198.898L124.878 201.966Z" fill="black"/>
<path opacity="0.1" d="M134.391 200.012C132.074 200.615 128.497 201.292 125.295 200.869L125.249 198.803L133.987 197.05C133.987 197.05 134.228 198.663 134.391 200.012Z" fill="black"/>
<path opacity="0.1" d="M125.236 201.247C111.879 203.527 99.6463 196.989 99.6463 196.989L99.7636 194.773C99.7636 194.773 100.067 169.659 99.2261 167.734C98.3856 165.808 97.7308 156.045 98.2064 154.546C98.682 153.048 96.47 130.575 96.47 130.575L96.1116 121.454L82.9957 116.14L88.8598 103.917C89.6518 102.203 90.333 100.44 90.8992 98.6393C91.9188 95.4662 96.6524 92.3485 96.6524 92.3485C96.6524 92.3485 101.507 89.2341 103.425 89.3513C105.344 89.4686 107.859 86.5952 107.859 86.5952C109.716 81.8617 111.397 84.0053 111.397 84.0053C111.397 84.2301 111.397 84.0053 111.306 84.7057C110.654 89.9019 121.842 106.321 122.001 106.611L123.067 132.563L124.145 165.404L125.236 201.247Z" fill="black"/>
<path d="M124.878 201.247C111.521 203.527 99.2847 196.989 99.2847 196.989L99.4052 194.773C99.4052 194.773 99.7082 169.659 98.8644 167.734C98.0207 165.808 97.3691 156.045 97.848 154.546C98.3269 153.048 96.1116 130.575 96.1116 130.575L95.75 121.454L82.6276 116.121L88.4916 103.897C89.2819 102.183 89.9631 100.42 90.531 98.6198C91.5474 95.4467 96.2843 92.329 96.2843 92.329C96.2843 92.329 101.138 89.2145 103.054 89.3318C104.97 89.4491 107.488 86.5757 107.488 86.5757C109.348 81.8422 111.397 83.9858 111.397 83.9858C111.397 84.2106 111.202 84.3116 111.306 84.6862C112.739 89.726 121.483 106.302 121.643 106.592L122.721 132.543L123.8 165.385L124.878 201.247Z" fill="white"/>
<path opacity="0.1" d="M121.278 107.331C119.841 106.732 112.231 98.0431 112.231 98.0431V96.0656C111.954 95.4141 110.309 95.8115 108.973 96.2676L109.547 84.2562L110.198 84.797C111.625 89.8335 121.112 107.041 121.278 107.331Z" fill="black"/>
<path d="M121.64 106.611C120.2 106.012 112.59 97.3231 112.59 97.3231V95.3456C112.313 94.6941 110.667 95.0915 109.332 95.5476L109.908 83.5361L110.56 84.0769C111.99 89.1135 121.48 106.324 121.64 106.611Z" fill="white"/>
<path opacity="0.1" d="M99.6463 149.943C99.8255 149.943 108.934 148.985 108.934 148.985C108.934 148.985 114.45 159.83 114.088 162.469C113.727 165.108 113.072 167.444 110.853 167.03C108.635 166.616 98.9133 167.356 98.9133 167.356L99.6463 149.943Z" fill="black"/>
<path d="M99.2848 149.223C99.4639 149.223 108.573 148.265 108.573 148.265C108.573 148.265 114.085 159.114 113.727 161.749C113.368 164.385 112.707 166.724 110.492 166.31C108.276 165.896 98.5518 166.636 98.5518 166.636L99.2848 149.223Z" fill="white"/>
<path d="M106.149 144.131C106.149 144.131 114.508 148.623 114.688 149.995C114.867 151.367 110.433 149.396 109.475 149.158C108.845 149.006 108.203 148.906 107.556 148.858L101.168 149.031L106.149 144.131Z" fill="#CF6F80"/>
<path opacity="0.1" d="M118.946 107.891C119.431 107.891 119.825 107.498 119.825 107.012C119.825 106.526 119.431 106.132 118.946 106.132C118.46 106.132 118.066 106.526 118.066 107.012C118.066 107.498 118.46 107.891 118.946 107.891Z" fill="black"/>
<path d="M118.946 107.533C119.431 107.533 119.825 107.139 119.825 106.653C119.825 106.168 119.431 105.774 118.946 105.774C118.46 105.774 118.066 106.168 118.066 106.653C118.066 107.139 118.46 107.533 118.946 107.533Z" fill="#3F3D56"/>
<path opacity="0.1" d="M120.565 145.968C121.05 145.968 121.444 145.575 121.444 145.089C121.444 144.603 121.05 144.209 120.565 144.209C120.079 144.209 119.685 144.603 119.685 145.089C119.685 145.575 120.079 145.968 120.565 145.968Z" fill="black"/>
<path d="M120.565 145.607C121.05 145.607 121.444 145.213 121.444 144.727C121.444 144.241 121.05 143.848 120.565 143.848C120.079 143.848 119.685 144.241 119.685 144.727C119.685 145.213 120.079 145.607 120.565 145.607Z" fill="#3F3D56"/>
<path opacity="0.1" d="M119.822 126.93C120.308 126.93 120.702 126.536 120.702 126.05C120.702 125.564 120.308 125.171 119.822 125.171C119.336 125.171 118.942 125.564 118.942 126.05C118.942 126.536 119.336 126.93 119.822 126.93Z" fill="black"/>
<path d="M119.822 126.572C120.308 126.572 120.702 126.178 120.702 125.692C120.702 125.206 120.308 124.812 119.822 124.812C119.336 124.812 118.942 125.206 118.942 125.692C118.942 126.178 119.336 126.572 119.822 126.572Z" fill="#3F3D56"/>
<path d="M140.098 148.676C140.098 148.676 140.698 149.575 140.098 149.995C139.499 150.415 140.157 151.432 140.157 151.432C140.157 151.432 138.662 152.308 139.32 153.096C139.978 153.885 139.561 157.446 139.561 157.446L137.763 160.423C137.763 160.423 137.87 162.342 137.877 164.935C137.877 168.981 137.639 174.67 136.323 177.263L136.505 198.539C136.505 198.539 130.208 200.839 124.937 200.139L124.155 165.997C124.155 165.997 125.295 146.636 125.715 142.922C125.961 140.994 126.061 139.05 126.015 137.107C126.015 137.107 125.836 131.295 125.233 128.598C125.233 128.598 124.582 116.912 124.516 113.677C124.487 112.13 124.569 107.614 124.66 103.321C124.761 98.6263 124.875 94.1989 124.875 94.1989L123.686 84.7904C123.686 84.7904 124.875 84.6699 125.233 85.1488C125.394 85.2987 125.568 85.4329 125.754 85.5495C127.807 86.9373 135.059 91.205 135.059 91.205C135.059 91.205 139.072 92.8013 140.033 95.0883C140.994 97.3753 141.662 98.9976 142.128 99.6492C142.594 100.301 142.848 103.363 142.848 103.363C142.848 103.363 144.229 108.999 145.308 109.954C146.386 110.908 147.174 116.981 147.174 116.981L137.645 124.474C137.645 124.474 136.808 136.938 136.629 137.42C136.45 137.902 140.098 148.676 140.098 148.676Z" fill="white"/>
<path d="M140.46 148.676C140.46 148.676 141.056 149.575 140.46 149.995C139.864 150.415 140.515 151.432 140.515 151.432C140.515 151.432 139.03 152.318 139.681 153.106C140.333 153.895 139.923 157.455 139.923 157.455L138.124 160.433C138.124 160.433 138.232 162.352 138.242 164.945C138.242 168.991 138.004 174.679 136.688 177.272L136.867 198.549C136.867 198.549 130.56 200.849 125.295 200.149L124.516 166.007C124.516 166.007 125.657 146.646 126.077 142.932C126.323 141.004 126.422 139.06 126.373 137.117C126.373 137.117 126.194 131.305 125.595 128.608C125.595 128.608 124.943 116.922 124.875 113.687C124.845 112.139 124.93 107.624 125.018 103.33C125.119 98.636 125.233 94.2086 125.233 94.2086L123.663 84.6731C123.663 84.6731 125.233 84.6731 125.595 85.1585C125.754 85.3102 125.928 85.4446 126.116 85.5592C128.168 86.947 135.424 91.2147 135.424 91.2147C135.424 91.2147 139.434 92.811 140.395 95.098C141.356 97.385 142.024 99.0074 142.493 99.6589C142.962 100.31 143.21 103.373 143.21 103.373C143.21 103.373 144.591 109.009 145.669 109.963C146.748 110.918 147.526 116.977 147.526 116.977L137.997 124.47C137.997 124.47 137.16 136.935 136.977 137.417C136.795 137.899 140.46 148.676 140.46 148.676Z" fill="white"/>
<path opacity="0.1" d="M129.048 96.9745L129.908 99.483L125.38 104.044C125.481 99.3527 125.595 94.9221 125.595 94.9221L124.024 85.3866C124.024 85.3866 125.595 85.3866 125.956 85.872C126.115 86.0233 126.29 86.1566 126.478 86.2695L130.328 97.3785L129.048 96.9745Z" fill="black"/>
<path d="M128.686 96.2546L129.55 98.7631L125.021 103.324C125.122 98.6295 125.236 94.2022 125.236 94.2022L123.663 84.6666C123.663 84.6666 125.236 84.6666 125.595 85.152C125.755 85.3028 125.929 85.4371 126.116 85.5527L129.97 96.6585L128.686 96.2546Z" fill="white"/>
<path opacity="0.1" d="M128.686 71.4335C128.689 72.6074 128.504 73.7743 128.139 74.89C128.078 74.8996 128.015 74.8968 127.954 74.8817C127.894 74.8666 127.837 74.8395 127.787 74.802C127.703 71.87 126.259 69.1172 124.484 66.7749C123.985 66.0676 123.381 65.4413 122.692 64.9179C121.995 64.3948 121.129 64.1497 120.262 64.2305C119.284 64.3641 118.421 65.0287 117.434 65.1134C116.131 65.2209 114.965 64.3185 113.671 64.2729C113.145 64.2779 112.627 64.395 112.15 64.6163C111.673 64.8376 111.249 65.1581 110.905 65.5564C110.226 66.3602 109.721 67.2966 109.423 68.306C108.911 69.8367 108.632 71.4357 108.596 73.0494C108.579 73.9615 108.491 75.105 107.644 75.4373C107.708 74.7665 107.632 74.0897 107.42 73.4498C107.209 72.81 106.867 72.221 106.416 71.7202L106.397 71.7006C106.397 71.6094 106.397 71.5247 106.397 71.4335C106.371 69.9537 106.641 68.4836 107.19 67.1091C107.738 65.7346 108.555 64.4831 109.593 63.4277C110.631 62.3722 111.868 61.5339 113.233 60.9617C114.598 60.3895 116.063 60.0948 117.543 60.0948C119.023 60.0948 120.488 60.3895 121.853 60.9617C123.218 61.5339 124.456 62.3722 125.493 63.4277C126.531 64.4831 127.348 65.7346 127.897 67.1091C128.445 68.4836 128.715 69.9537 128.69 71.4335H128.686Z" fill="black"/>
<path d="M122.158 53.7339C120.465 52.9376 118.539 52.787 116.743 53.3104C115.841 53.5776 114.991 54.0109 114.075 54.2291C112.121 54.7015 109.84 54.19 108.162 55.3335C107.231 55.9851 106.67 57.0145 106.149 58.0147L104.846 60.4971C104.136 61.8556 103.419 63.2369 103.122 64.7322C102.826 66.2275 103.005 67.9021 103.953 69.1042C104.644 69.9805 105.664 70.5311 106.413 71.3553C106.862 71.8566 107.202 72.4453 107.413 73.0844C107.624 73.7234 107.7 74.3992 107.638 75.0692C108.488 74.7434 108.57 73.5967 108.589 72.6845C108.625 71.0708 108.904 69.4718 109.417 67.9411C109.714 66.9314 110.219 65.9949 110.899 65.1916C111.242 64.7936 111.667 64.4733 112.144 64.252C112.62 64.0307 113.139 63.9134 113.665 63.908C114.968 63.9536 116.137 64.8528 117.427 64.7453C118.405 64.6638 119.271 63.996 120.255 63.8657C121.123 63.7836 121.99 64.0288 122.686 64.553C123.374 65.0757 123.978 65.7021 124.474 66.41C126.253 68.7523 127.696 71.4986 127.781 74.4372C128.149 74.7076 128.68 74.3557 128.862 73.9387C129.045 73.5217 129.051 73.0331 129.283 72.6356C129.55 72.1763 130.061 71.9319 130.462 71.5866C131.478 70.7103 131.732 69.2345 131.693 67.8955C131.654 66.5566 131.394 65.1981 131.648 63.8819C131.801 63.074 132.146 62.3182 132.335 61.52C132.524 60.7219 132.547 59.826 132.101 59.1386C131.449 58.1287 130.078 57.93 128.882 57.8355C127.523 57.7182 126.308 57.8681 125.442 56.7246C125.035 56.1279 124.577 55.5676 124.073 55.0501C123.901 54.8807 122.158 53.8056 122.158 53.7339Z" fill="#512E4E"/>
<path opacity="0.1" d="M86.7487 122.434L83.3443 116.14L82.266 125.852C82.266 125.852 82.8654 130.165 82.7449 130.826C82.6243 131.488 85.2013 137.417 85.2013 137.417C85.2013 137.417 93.7139 152.578 97.19 153.36L108.934 144.968L105.82 141.013C105.82 141.013 104.742 140.593 104.471 141.013C104.471 141.013 98.6886 131.064 98.0891 130.344C97.4897 129.624 97.607 128.187 97.607 128.187C97.607 128.187 96.7078 127.23 97.0075 126.33C97.3073 125.431 95.2711 122.314 95.2711 122.314L97.1281 120.577L86.7487 122.434Z" fill="black"/>
<path d="M83.5235 115.423L82.6244 116.14L81.546 125.852C81.546 125.852 82.1455 130.165 82.0249 130.826C81.9044 131.488 84.4846 137.417 84.4846 137.417C84.4846 137.417 92.9939 152.578 96.47 153.36L108.218 144.968L105.1 141.013C105.1 141.013 104.022 140.593 103.751 141.013C103.751 141.013 97.9686 131.064 97.3692 130.344C96.7697 129.624 96.8903 128.187 96.8903 128.187C96.8903 128.187 95.9911 127.23 96.2908 126.33C96.5905 125.431 94.5512 122.314 94.5512 122.314L96.4081 120.577L83.5235 115.423Z" fill="white"/>
<path opacity="0.1" d="M139.32 153.468C139.971 154.259 139.561 157.814 139.561 157.814L137.763 160.791C137.763 160.791 137.87 162.713 137.877 165.303L134.853 166.248C134.58 166.333 134.29 166.352 134.009 166.303C133.727 166.253 133.461 166.137 133.233 165.964C133.005 165.791 132.821 165.566 132.698 165.308C132.575 165.049 132.515 164.765 132.524 164.479L133.045 147.666L140.098 150.363C139.499 150.78 140.157 151.803 140.157 151.803C140.157 151.803 138.662 152.676 139.32 153.468Z" fill="black"/>
<path d="M139.681 153.106C140.333 153.898 139.922 157.455 139.922 157.455L138.124 160.433C138.124 160.433 138.232 162.352 138.241 164.945L135.163 165.906C134.895 165.989 134.612 166.007 134.336 165.959C134.06 165.91 133.799 165.796 133.576 165.627C133.353 165.457 133.174 165.237 133.053 164.984C132.932 164.731 132.874 164.453 132.882 164.173L133.407 147.307L140.463 150.005C139.861 150.422 140.519 151.442 140.519 151.442C140.519 151.442 139.03 152.318 139.681 153.106Z" fill="white"/>
<path d="M142.017 145.092C142.017 145.092 141.538 148.151 140.339 148.33C139.141 148.509 138.603 153.279 137.407 153.109C136.212 152.94 137.004 148.676 137.046 147.848C137.088 147.021 135.743 143.593 136.749 142.815C137.756 142.036 140.942 142.815 140.942 142.815L142.017 145.092Z" fill="#CF6F80"/>
<path opacity="0.1" d="M144.568 121.535L146.829 116.974C146.829 116.974 147.728 120.45 147.728 122.307C147.728 124.164 148.986 124.346 148.986 124.346C148.986 124.346 150.364 125.975 149.637 127.161C148.911 128.347 148.618 131.299 148.618 131.299C148.618 131.299 148.855 136.931 147.777 137.71C146.699 138.489 146.474 140.349 146.474 140.349C146.474 140.349 144.493 143.883 144.555 144.724C144.617 145.564 141.799 151.256 141.799 151.256C141.799 151.256 143.177 144.183 135.147 141.127C135.147 141.127 135.085 138.726 135.684 138.068C136.284 137.41 137.219 137.111 136.632 133.784C136.046 130.458 136.463 126.484 136.463 125.685C136.463 124.887 138.261 119.909 138.261 119.909L144.568 121.535Z" fill="black"/>
<path d="M145.546 116.323L147.52 116.974C147.52 116.974 148.422 120.45 148.422 122.307C148.422 124.164 149.68 124.346 149.68 124.346C149.68 124.346 151.058 125.975 150.331 127.161C149.605 128.347 149.315 131.299 149.315 131.299C149.315 131.299 149.553 136.931 148.474 137.71C147.396 138.489 147.155 140.349 147.155 140.349C147.155 140.349 145.177 143.883 145.239 144.724C145.301 145.564 142.48 151.256 142.48 151.256C142.48 151.256 143.861 144.183 135.827 141.127C135.827 141.127 135.769 138.726 136.368 138.068C136.968 137.41 137.903 137.11 137.316 133.784C136.73 130.458 137.147 126.484 137.147 125.685C137.147 124.887 138.945 119.909 138.945 119.909L145.546 116.323Z" fill="white"/>
<path opacity="0.1" d="M101.94 234.538C101.94 234.538 105.087 232.56 107.152 233.997C109.218 235.434 101.94 234.538 101.94 234.538Z" fill="black"/>
<path opacity="0.1" d="M126.393 228.423C126.393 228.423 129.178 228.065 131.517 230.583C133.857 233.101 126.393 228.423 126.393 228.423Z" fill="black"/>
<g opacity="0.1">
<path opacity="0.1" d="M130.468 70.8731C130.068 71.2185 129.553 71.4661 129.286 71.9254C129.058 72.3196 129.051 72.805 128.869 73.2285C128.686 73.652 128.155 73.9974 127.787 73.7302C127.702 70.7982 126.256 68.0454 124.481 65.6998C123.984 64.9919 123.381 64.3655 122.692 63.8428C121.995 63.3186 121.127 63.0735 120.258 63.1555C119.281 63.289 118.421 63.9536 117.434 64.0351C116.131 64.1458 114.961 63.2434 113.668 63.1978C113.142 63.203 112.624 63.3206 112.147 63.5425C111.671 63.7644 111.247 64.0857 110.905 64.4846C110.225 65.2868 109.72 66.2222 109.423 67.2309C108.911 68.7617 108.632 70.3606 108.596 71.9743C108.576 72.8832 108.491 74.0169 107.651 74.3557C107.67 74.5964 107.67 74.8383 107.651 75.079C108.498 74.7532 108.582 73.6064 108.602 72.6943C108.638 71.0806 108.917 69.4816 109.43 67.9509C109.727 66.9412 110.232 66.0047 110.912 65.2013C111.255 64.8034 111.678 64.4832 112.155 64.2618C112.631 64.0405 113.149 63.9232 113.674 63.9178C114.978 63.9634 116.15 64.8625 117.44 64.755C118.418 64.6736 119.284 64.0057 120.265 63.8754C121.133 63.7935 122.001 64.0386 122.699 64.5628C123.387 65.0854 123.991 65.7119 124.487 66.4198C126.263 68.7621 127.709 71.5084 127.794 74.4469C128.162 74.7173 128.693 74.3655 128.875 73.9485C129.058 73.5315 129.064 73.0428 129.292 72.6454C129.559 72.186 130.074 71.9417 130.475 71.5964C131.491 70.72 131.745 69.2443 131.706 67.9053C131.706 67.863 131.706 67.8206 131.706 67.7815C131.644 68.9413 131.335 70.1239 130.468 70.8731Z" fill="black"/>
<path opacity="0.1" d="M106.419 70.6418C105.67 69.8176 104.647 69.267 103.96 68.394C103.381 67.6211 103.05 66.6907 103.012 65.7258C102.909 66.9315 103.246 68.1336 103.96 69.1107C104.647 69.987 105.67 70.5376 106.419 71.3618C107.139 72.168 107.571 73.19 107.648 74.2678C107.697 73.6118 107.614 72.9526 107.403 72.3295C107.192 71.7065 106.858 71.1324 106.419 70.6418Z" fill="black"/>
<path opacity="0.1" d="M132.342 60.8066C132.149 61.6048 131.807 62.3638 131.651 63.1685C131.558 63.7062 131.524 64.2524 131.55 64.7974C131.561 64.4869 131.595 64.1777 131.651 63.8722C131.807 63.0642 132.149 62.3084 132.342 61.5103C132.454 61.0701 132.49 60.614 132.449 60.1616C132.429 60.3789 132.393 60.5945 132.342 60.8066Z" fill="black"/>
</g>
<path opacity="0.1" d="M43.2408 247.784C60.7725 247.784 74.9848 245.501 74.9848 242.686C74.9848 239.87 60.7725 237.587 43.2408 237.587C25.709 237.587 11.4968 239.87 11.4968 242.686C11.4968 245.501 25.709 247.784 43.2408 247.784Z" fill="#1FA0BD"/>
<path d="M44.2637 145.017H42.2211V191.007H44.2637V145.017Z" fill="#535461"/>
<path d="M57.0994 190.867L56.9724 192.939L56.7899 195.871L56.715 197.09L56.5358 200.022L56.4576 201.24L56.2752 204.172L54.2163 237.424C54.1268 238.855 53.4955 240.198 52.4509 241.179C51.4063 242.161 50.0268 242.708 48.5933 242.708H37.8882C36.455 242.708 35.076 242.161 34.0319 241.179C32.9878 240.197 32.3572 238.855 32.2685 237.424L30.2193 204.149L30.0369 201.217L29.962 199.999L29.7795 197.067L29.7046 195.848L29.5222 192.916L29.3919 190.844C29.3692 190.446 29.4283 190.046 29.5655 189.671C29.7027 189.296 29.915 188.953 30.1896 188.663C30.4641 188.373 30.7951 188.142 31.1621 187.984C31.5291 187.827 31.9244 187.746 32.3239 187.746H54.2195C54.6175 187.75 55.0105 187.835 55.3743 187.996C55.7381 188.157 56.065 188.391 56.3349 188.683C56.6047 188.976 56.8118 189.321 56.9433 189.696C57.0748 190.072 57.1279 190.47 57.0994 190.867Z" fill="#3F3D56"/>
<path d="M56.9724 192.939L56.79 195.861H29.6916L29.5092 192.939H56.9724Z" fill="#9D9CB5"/>
<path d="M56.7151 197.08L56.5359 200.005H29.949L29.7665 197.08H56.7151Z" fill="#9D9CB5"/>
<path d="M56.4577 201.227L56.2785 204.149H30.2063L30.0239 201.227H56.4577Z" fill="#9D9CB5"/>
<path d="M26.3914 162.254C38.2857 170.861 43.2505 184.322 43.2505 184.322C43.2505 184.322 28.9162 183.83 17.0187 175.223C5.12125 166.616 0.166138 153.158 0.166138 153.158C0.166138 153.158 14.4939 153.647 26.3914 162.254Z" fill="#1FA0BD"/>
<path d="M0.156372 153.158C0.156372 153.158 15.038 161.417 19.8107 168.255C24.5834 175.093 43.2506 184.322 43.2506 184.322" stroke="#535461" stroke-width="2" stroke-miterlimit="10"/>
<path d="M34.0701 144.916C40.5433 149.598 43.2505 156.924 43.2505 156.924C43.2505 156.924 35.4481 156.657 28.9716 151.976C22.4951 147.294 19.7944 139.964 19.7944 139.964C19.7944 139.964 27.5935 140.231 34.0701 144.916Z" fill="#1FA0BD"/>
<path d="M19.7944 139.964C19.7944 139.964 27.8933 144.46 30.4897 148.18C33.0862 151.901 43.2505 156.924 43.2505 156.924" stroke="#535461" stroke-width="2" stroke-miterlimit="10"/>
<path d="M52.6493 156.553C45.2117 164.727 43.6382 175.409 43.6382 175.409C43.6382 175.409 54.125 172.835 61.5561 164.658C68.9871 156.481 70.5672 145.802 70.5672 145.802C70.5672 145.802 60.0868 148.379 52.6493 156.553Z" fill="#1FA0BD"/>
<path d="M70.5737 145.805C70.5737 145.805 60.885 154.185 58.4221 159.957C55.9592 165.73 43.6382 175.409 43.6382 175.409" stroke="#535461" stroke-width="2" stroke-miterlimit="10"/>
<path d="M325.673 153.676C325.673 153.676 320.294 126.917 322.353 123.587C322.353 123.587 322.428 120.492 322.304 116.547C322.304 116.397 322.304 116.248 322.304 116.094C322.666 116.336 323.044 116.554 323.434 116.746C325.331 117.721 327.509 118.002 329.592 117.541L327.963 115.726C327.572 115.293 327.165 114.824 327.08 114.251C326.995 113.677 327.23 113.166 327.432 112.654C328.979 108.745 329.061 103.829 326.08 100.845C323.562 98.3363 322.949 95.098 320.216 92.8078C318.219 91.1301 317.121 88.6704 316.085 86.2922C315.209 84.2822 314.326 82.2558 313.824 80.1252C313.433 78.4605 313.277 76.7371 312.739 75.1115C312.202 73.4859 311.195 71.9058 309.621 71.1794C309.061 70.922 308.439 70.7754 307.927 70.4333C307.256 69.9805 306.852 69.2442 306.367 68.5992C303.901 65.3414 295.642 67.2602 291.733 68.5829C290.67 68.916 289.686 69.4613 288.84 70.1857L288.876 70.1271C288.905 70.0782 288.941 70.0294 288.973 69.9805C288.546 70.3265 288.176 70.739 287.879 71.2022C287.309 72.1046 287.071 73.1568 286.595 74.1342C286.022 75.2907 282.832 78.5192 284.204 79.819C284.3 79.9063 284.41 79.9768 284.53 80.0275C285.045 80.2418 285.612 80.2985 286.159 80.1904L286.1 80.3305C285.632 81.4773 285.392 82.7046 285.393 83.9434C285.393 89.2959 289.807 93.6353 295.258 93.6353C296.282 93.6363 297.301 93.4791 298.278 93.1694C298.301 93.2932 298.32 93.417 298.343 93.5408C298.343 93.5897 298.359 93.6385 298.366 93.6874L298.193 93.9285C298.184 93.9136 298.175 93.8995 298.164 93.8861L293.049 101.034C292.267 101.584 287.765 104.842 287.511 107.285C287.244 109.96 286.976 113.091 286.976 113.091L286.941 113.762C286.717 113.949 286.456 114.085 286.174 114.161C285.893 114.237 285.599 114.251 285.312 114.202C283.715 113.941 283.715 120.066 283.715 120.066C283.715 120.066 282.653 121.043 281.924 120.196C281.194 119.349 279.265 122.219 279.265 122.219L267.179 122.74L266.902 122.757L266.25 120.74C266.18 120.527 266.029 120.351 265.829 120.249C265.63 120.147 265.398 120.128 265.185 120.196C265.134 120.213 265.085 120.233 265.038 120.258L264.993 120.284L264.908 120.343L264.866 120.382C264.842 120.403 264.821 120.426 264.801 120.45L264.761 120.496L264.742 120.515C264.667 120.619 264.617 120.739 264.596 120.866C264.576 120.993 264.586 121.123 264.625 121.245L265.185 122.975C262.852 123.444 260.468 124.767 262.413 128.409L252.554 126.588L255.744 129.266L272.209 132.664C271.99 133.055 272.134 133.621 272.815 134.42C275.747 137.863 281.09 138.798 283.24 139.039C283.808 140.309 284.517 141.511 285.354 142.623L285.168 146.053C285.168 146.053 279.725 172.2 278.728 173.526C279.231 172.956 279.691 172.349 280.106 171.711C278.526 177.084 276.317 184.436 275.737 185.537C274.805 187.297 273.942 194.415 275.004 194.871C275.33 195.011 276.261 194.943 277.591 194.842V195.431L277.532 217.777C277.532 217.777 277.799 231.482 277.066 232.788C276.333 234.095 276.138 236.835 276.138 236.835C276.138 236.835 273.206 242.239 270.883 244.412C270.867 244.429 270.85 244.444 270.831 244.458L270.759 243.95C270.759 243.95 267.967 247.474 261.79 247.276C261.79 247.276 258.073 249.693 263.585 249.823C269.098 249.954 276.138 249.628 276.138 249.628C276.138 249.628 281.054 242.135 285.172 243.112V248.791H286.432V243.021C287.017 242.636 287.517 242.137 287.903 241.552C288.289 240.968 288.552 240.312 288.677 239.623C288.785 238.913 288.706 238.187 288.448 237.517C288.189 236.847 287.761 236.256 287.204 235.802C286.954 235.576 286.754 235.301 286.615 234.993C286.477 234.686 286.404 234.354 286.4 234.017L286.354 234.056C286.354 233.942 286.325 233.824 286.312 233.704C285.95 230.772 285.497 224.722 287.097 220.246C289.289 214.108 289.954 205.56 288.358 200.471C287.843 198.845 287.42 197.19 287.09 195.516C287.051 195.304 287.015 195.102 286.983 194.913C288.074 195.061 289.155 195.279 290.218 195.565C293.916 196.585 302.005 196.774 308.911 196.718C308.927 196.907 308.947 197.106 308.97 197.305C309.093 198.686 309.35 200.052 309.739 201.383C310.605 203.99 311.003 215.48 311.003 215.48C311.003 215.48 312.12 224.927 311.511 228.772C311.185 230.909 310.859 233.056 310.674 235.212V235.255C310.674 235.255 308.843 240.467 307.504 243.298C307.471 243.37 307.435 243.441 307.403 243.51C307.046 243.542 306.694 243.62 306.357 243.741C306.357 243.741 304.562 247.325 302.773 247.918C300.985 248.51 301.578 250.462 305.627 249.745C309.677 249.028 315.792 248.442 315.792 248.442L316.056 244.787L317.3 243.23L316.974 246.875L318.3 246.614L318.124 242.181L320.16 239.633C320.16 239.633 322.62 237.444 318.965 233.137V233.231C318.926 233.17 318.89 233.104 318.847 233.042V233.023C318.242 232.085 317.759 230.335 318.642 227.231C320.239 221.621 321.167 216.529 321.167 216.529C321.167 216.529 324.731 202.888 320.447 196.435H320.636C320.197 195.527 319.887 194.562 319.714 193.568C319.692 193.451 319.673 193.33 319.655 193.206C322.825 193.024 325.936 192.45 328.474 191.213C328.465 191.199 326.937 158.83 325.673 153.676ZM285.429 131.1V131.165L284.777 131.198L285.429 131.1ZM283.194 131.409C283.087 131.433 282.987 131.481 282.901 131.549C282.621 131.946 282.445 132.406 282.389 132.888L281.373 132.66C281.373 132.66 280.66 132.507 279.633 132.335L279.148 131.846C280.484 131.735 281.871 131.572 283.194 131.409Z" fill="url(#paint1_linear)"/>
<path d="M316.824 242.226L316.437 246.843L317.737 246.582L317.541 241.575L316.824 242.226Z" fill="#1D2366"/>
<path d="M287.169 220.308C285.602 224.771 286.045 230.795 286.396 233.72C286.527 234.802 286.647 235.46 286.647 235.46C286.647 235.46 284.305 240.796 284.11 240.998C283.914 241.2 277.216 245.289 277.216 245.289L272.535 248.022C272.535 248.022 267.785 245.94 270.062 245.223C270.527 245.037 270.946 244.751 271.29 244.386C273.571 242.22 276.434 236.835 276.434 236.835C276.434 236.835 276.63 234.101 277.346 232.801C278.063 231.502 277.802 217.842 277.802 217.842L277.858 195.575V192.672L286.768 192.737C286.824 193.723 286.953 194.703 287.152 195.669C287.472 197.338 287.886 198.987 288.393 200.608C289.964 205.687 289.312 214.193 287.169 220.308Z" fill="#FFB0B1"/>
<path opacity="0.1" d="M286.647 235.46C286.647 235.46 284.305 240.796 284.11 240.998C283.914 241.2 277.216 245.289 277.216 245.289L272.535 248.022C272.535 248.022 267.785 245.94 270.062 245.223C270.527 245.037 270.946 244.751 271.29 244.386L271.492 245.81L273.053 245.745L286.41 233.727C286.527 234.802 286.647 235.46 286.647 235.46Z" fill="black"/>
<path d="M286.485 234.03L273.053 246.129L271.492 246.194L271.166 243.914C271.166 243.914 268.436 247.426 262.37 247.23C262.37 247.23 258.728 249.638 264.126 249.768C269.524 249.898 276.418 249.573 276.418 249.573C276.418 249.573 281.233 242.08 285.263 243.057V248.716H286.501V243.005C287.076 242.617 287.568 242.118 287.945 241.535C288.322 240.953 288.578 240.3 288.697 239.617C288.804 238.913 288.728 238.193 288.476 237.526C288.225 236.86 287.806 236.269 287.26 235.812C287.016 235.583 286.822 235.307 286.688 235.001C286.555 234.694 286.486 234.364 286.485 234.03Z" fill="#1D2366"/>
<path d="M318.062 227.266C317.196 230.361 317.668 232.104 318.261 233.039V233.059C319.022 234.213 319.55 235.504 319.818 236.861L319.87 237.154L313.759 246.064L310.442 247.367C310.442 247.367 305.109 245.546 306.083 245.025C306.328 244.898 306.709 244.22 307.145 243.285C308.449 240.467 310.247 235.268 310.247 235.268V235.225C310.436 233.078 310.736 230.938 311.068 228.807C311.664 224.973 310.569 215.561 310.569 215.561C310.569 215.561 310.179 204.117 309.331 201.514C308.949 200.19 308.695 198.833 308.572 197.461C308.396 195.832 308.357 194.49 308.357 194.49C308.357 194.49 311.869 189.603 318.307 194.881C318.822 195.302 319.274 195.793 319.652 196.34C324.099 202.667 320.519 216.604 320.519 216.604C320.519 216.604 319.623 221.673 318.062 227.266Z" fill="#FFB0B1"/>
<path opacity="0.1" d="M319.88 237.154L313.769 246.064L310.452 247.367C310.452 247.367 305.119 245.546 306.093 245.025C306.338 244.898 306.719 244.22 307.155 243.285C309.413 243.265 310.582 245.416 310.582 245.416L313.443 244.96C313.443 244.96 317.215 237.545 318.062 237.092C318.909 236.639 318.193 233.707 318.193 233.707V232.961C318.216 232.987 318.235 233.016 318.261 233.043V233.062C319.022 234.216 319.55 235.508 319.818 236.864L319.88 237.154Z" fill="black"/>
<path d="M310.778 245.608C310.778 245.608 309.149 242.617 306.028 243.722C306.028 243.722 304.272 247.305 302.516 247.885C300.76 248.465 301.346 250.42 305.315 249.706C309.283 248.993 315.264 248.403 315.264 248.403L315.524 244.758L319.558 239.62C319.558 239.62 321.962 237.441 318.385 233.15V233.896C318.385 233.896 319.102 236.828 318.255 237.281C317.408 237.734 313.648 245.152 313.648 245.152L310.778 245.608Z" fill="#1D2366"/>
<path opacity="0.1" d="M286.778 192.731C286.834 193.716 286.962 194.696 287.162 195.663C283.494 195.125 280.089 195.392 277.858 195.568V192.666L286.778 192.731Z" fill="black"/>
<path opacity="0.1" d="M320.014 197.152C320.014 197.152 314.801 197.406 308.585 197.458C308.409 195.829 308.37 194.487 308.37 194.487C308.37 194.487 311.882 189.6 318.32 194.878C318.834 195.299 319.287 195.79 319.665 196.337C319.766 196.615 319.882 196.887 320.014 197.152Z" fill="black"/>
<path d="M320.014 196.565C320.014 196.565 297.183 197.669 290.224 195.718C283.266 193.767 276.369 195.457 275.33 195.005C274.29 194.552 275.134 187.46 276.046 185.704C276.959 183.948 281.963 166.189 281.963 166.189L286.778 141.085L291.85 139.687L292.208 139.586L301.047 137.15L307.523 135.361C307.523 135.361 320.401 185.638 319.297 189.346C318.896 190.765 318.831 192.259 319.108 193.708C319.277 194.697 319.582 195.659 320.014 196.565Z" fill="#1D2366"/>
<path d="M269.994 123.916C269.994 123.916 265.433 128.803 268.886 131.527C272.339 134.25 274.61 131.787 274.61 131.787L269.994 123.916Z" fill="#C7DAF5"/>
<path opacity="0.1" d="M269.994 123.916C269.994 123.916 265.433 128.803 268.886 131.527C272.339 134.25 274.61 131.787 274.61 131.787L269.994 123.916Z" fill="black"/>
<path d="M306.843 91.7881C306.843 91.7881 306.308 92.2963 305.504 93.0456C304.357 94.1174 302.66 95.6844 301.154 96.9973C299.069 98.8119 297.349 100.144 297.965 99.0074C298.581 97.8704 298.464 95.8897 298.157 94.036C298.134 93.9122 298.115 93.7884 298.092 93.6679C297.839 92.3065 297.502 90.9618 297.085 89.6413C297.085 89.6413 300.454 85.2888 302.317 83.572C303.011 82.9204 303.497 82.6533 303.526 83.1061C303.559 83.7153 304.015 85.0608 304.582 86.4877C304.598 86.5333 304.614 86.5757 304.634 86.6213C305.012 87.5986 305.438 88.602 305.813 89.4686C306.386 90.7978 306.843 91.7881 306.843 91.7881Z" fill="#FFB0B1"/>
<path opacity="0.1" d="M304.634 86.6213C304.317 88.3239 303.549 89.9103 302.41 91.2146C301.271 92.519 299.802 93.4934 298.157 94.036C297.898 92.5489 297.54 91.0807 297.085 89.6413C297.085 89.6413 303.428 81.4479 303.526 83.1062C303.549 83.7349 304.044 85.1292 304.634 86.6213Z" fill="black"/>
<path opacity="0.1" d="M297.525 96.2252L298.346 95.0687C298.346 95.0687 298.89 98.3852 300.89 96.9224C302.891 95.4597 302.988 107.93 302.988 107.93L300.842 140.029L285.328 139.101L285.768 123.591L287.524 115.772L291.866 104.406L294.45 100.649L297.525 96.2252Z" fill="black"/>
<path d="M302.988 108.129L301.034 137.153L300.828 140.228L292.179 139.71L291.853 139.691L285.338 139.3L285.777 123.786L287.533 115.967L291.876 104.601L294.459 100.845L297.535 96.4044L298.356 95.2512C298.356 95.2512 298.9 98.5676 300.9 97.1048L300.942 97.0755C302.897 95.8376 302.988 108.129 302.988 108.129Z" fill="#1D2366"/>
<path d="M287.752 113.25C287.752 113.25 286.973 114.879 285.409 114.615C283.846 114.352 283.849 120.479 283.849 120.479C283.849 120.479 282.81 121.457 282.093 120.61C281.376 119.763 279.487 122.626 279.487 122.626L267.648 123.148C267.648 123.148 272.916 125.555 271.883 132.84C271.883 132.84 289.768 131.732 290.355 130.041C290.941 128.35 287.752 113.25 287.752 113.25Z" fill="white"/>
<path opacity="0.03" d="M287.752 113.25C287.752 113.25 286.973 114.879 285.409 114.615C283.846 114.352 283.849 120.479 283.849 120.479C283.849 120.479 282.81 121.457 282.093 120.61C281.376 119.763 279.487 122.626 279.487 122.626L267.648 123.148C267.648 123.148 272.916 125.555 271.883 132.84C271.883 132.84 289.768 131.732 290.355 130.041C290.941 128.35 287.752 113.25 287.752 113.25Z" fill="black"/>
<path d="M253.346 126.976L256.467 129.64L282.158 135.039L278.972 131.787L253.346 126.976Z" fill="white"/>
<path d="M297.574 97.2514C297.147 97.903 295.926 101.239 294.906 104.151C294.056 106.578 293.345 108.712 293.345 108.712C293.345 108.712 291.687 119.509 290.84 121.46C289.993 123.411 290.452 131.022 290.452 131.022L287.296 149.816C287.296 149.816 285.865 159.508 283.657 165.297C281.477 170.995 279.05 173.666 278.975 173.751C279.953 172.428 285.279 146.385 285.279 146.385L287.038 113.54C287.038 113.54 287.296 110.419 287.556 107.751C287.817 105.083 293.095 101.441 293.095 101.441L298.183 94.2054C298.695 94.8895 298.353 96.0819 297.574 97.2514Z" fill="white"/>
<path d="M284.305 139.463C284.305 139.463 276.812 139.137 273.183 134.778C269.554 130.419 281.572 133.038 281.572 133.038L284.696 133.755L284.305 139.463Z" fill="#FFB0B1"/>
<path opacity="0.1" d="M319.297 189.349C318.896 190.769 318.831 192.262 319.108 193.711C310.934 194.291 302.19 192.082 302.19 192.082C300.561 193.581 296.271 195.79 296.271 195.79L293.932 166.795C292.436 162.886 291.85 142.404 291.85 142.404C291.85 142.404 291.984 141.333 292.176 139.726C292.176 139.687 292.176 139.645 292.192 139.606C292.775 135.12 293.932 126.699 294.499 125.562C295.281 123.998 292.094 119.838 292.094 119.838L293.544 107.474L293.72 105.982C296.776 104.617 299.118 100.258 299.118 100.258L300.917 97.1081C302.871 95.8539 302.972 108.145 302.972 108.145L301.018 137.169L307.494 135.381C307.494 135.381 320.401 185.642 319.297 189.349Z" fill="black"/>
<path d="M327.686 191.353C318.776 195.777 302.581 191.678 302.581 191.678C300.952 193.177 296.662 195.386 296.662 195.386L294.319 166.391C292.827 162.482 292.241 142 292.241 142C292.241 142 294.124 126.718 294.906 125.158C295.134 124.702 295.023 124.024 294.753 123.294C293.423 119.821 292.934 116.082 293.326 112.384L293.951 107.07L294.124 105.582C297.183 104.213 299.525 99.8544 299.525 99.8544L301.154 97.0006L304.151 91.7425L305.572 89.2536L305.813 89.4719L307.654 91.1399C307.654 91.1399 308.435 91.7914 309.608 92.7688C312.159 94.9189 316.567 98.7044 318.841 101.021C320.841 103.06 321.473 110.993 321.656 116.964C321.776 120.896 321.705 123.978 321.705 123.978C319.688 127.298 324.962 153.95 324.962 153.95C326.19 159.101 327.686 191.353 327.686 191.353Z" fill="white"/>
<path opacity="0.03" d="M310.582 99.7893C310.582 99.7893 304.468 111.429 305.178 115.853C305.888 120.277 307.908 125.285 306.934 126.454C306.599 126.897 306.166 127.257 305.67 127.505C305.173 127.753 304.625 127.883 304.07 127.884C303.093 127.95 300.486 129.771 300.486 129.966C300.486 130.162 298.079 130.162 295.926 131.074C293.772 131.986 290.593 132.504 290.593 132.504C290.593 132.504 284.403 132.308 283.826 132.895C283.249 133.481 282.657 136.99 283.891 139.788C285.126 142.587 286.498 144.675 287.533 145.056C288.569 145.437 295.144 143.235 300.477 142.714C305.81 142.193 311.599 137.967 311.599 137.967C311.599 137.967 317.974 135.687 319.092 131.852C320.209 128.018 317.727 106.943 317.727 106.943C317.727 106.943 315.85 97.1212 310.582 99.7893Z" fill="black"/>
<path opacity="0.03" d="M309.801 98.8119C309.801 98.8119 303.686 110.455 304.402 114.876C305.119 119.297 307.132 124.307 306.155 125.48C305.822 125.924 305.39 126.284 304.893 126.532C304.397 126.78 303.85 126.91 303.295 126.91C302.317 126.975 299.711 128.797 299.711 128.992C299.711 129.188 297.304 129.188 295.15 130.096C292.997 131.005 289.817 131.527 289.817 131.527C289.817 131.527 283.627 131.331 283.054 131.918C282.481 132.504 281.881 136.016 283.119 138.811C284.357 141.606 285.725 143.698 286.761 144.079C287.797 144.46 294.372 142.258 299.705 141.74C305.038 141.222 310.827 136.99 310.827 136.99C310.827 136.99 317.199 134.709 318.303 130.878C319.408 127.047 316.938 105.966 316.938 105.966C316.938 105.966 315.068 96.1471 309.801 98.8119Z" fill="black"/>
<path d="M310.39 99.2029C310.39 99.2029 304.275 110.846 304.992 115.267C305.709 119.688 307.722 124.698 306.748 125.868C306.415 126.313 305.982 126.673 305.485 126.922C304.988 127.171 304.44 127.301 303.884 127.301C302.907 127.366 300.301 129.188 300.301 129.38C300.301 129.572 297.897 129.575 295.74 130.487C293.583 131.4 290.407 131.918 290.407 131.918C290.407 131.918 284.217 131.722 283.64 132.309C283.064 132.895 282.471 136.407 283.706 139.202C284.94 141.997 286.312 144.089 287.348 144.47C288.384 144.851 294.958 142.649 300.291 142.127C305.624 141.606 311.413 137.381 311.413 137.381C311.413 137.381 317.789 135.1 318.906 131.266C320.024 127.432 317.557 106.357 317.557 106.357C317.557 106.357 315.655 96.5511 310.39 99.2029Z" fill="white"/>
<path opacity="0.1" d="M310.257 130.432C310.257 130.432 305.37 129.455 307.071 131.084C308.771 132.712 308.761 134.139 310.843 134.074C312.925 134.009 310.257 130.432 310.257 130.432Z" fill="black"/>
<path opacity="0.1" d="M318.515 165.479C318.515 165.479 316.306 166.975 320.532 170.421C324.757 173.868 318.515 165.479 318.515 165.479Z" fill="black"/>
<path opacity="0.1" d="M314.3 177.771C314.3 177.966 313.518 184.938 316.443 186.681C319.369 188.424 314.3 177.771 314.3 177.771Z" fill="black"/>
<path d="M267.85 123.131C265.491 123.213 260.396 123.933 263.038 128.862C265.374 133.224 269.3 130.308 271.508 128.096C270.97 126.034 269.66 124.257 267.85 123.131Z" fill="#FFB0B1"/>
<path d="M271.538 128.057L271.635 127.956L271.538 128.057Z" fill="#FFB0B1"/>
<path opacity="0.1" d="M309.608 92.9675C307.106 94.6778 305.008 96.121 304.598 96.4207C303.477 97.2515 301.34 102.128 299.962 104.617C298.864 106.621 295.297 107.136 293.951 107.263L294.124 105.774C297.183 104.406 299.525 100.047 299.525 100.047L305.572 89.4458L307.654 91.3386C307.654 91.3386 308.435 91.9901 309.608 92.9675Z" fill="black"/>
<path d="M309.608 92.772C307.106 94.4824 305.008 95.9256 304.598 96.2286C303.477 97.056 301.34 101.933 299.962 104.422C298.864 106.425 295.297 106.94 293.951 107.067L294.124 105.578C297.183 104.21 299.525 99.8512 299.525 99.8512L305.572 89.2504L307.654 91.1366C307.654 91.1366 308.435 91.7817 309.608 92.772Z" fill="#DCE7FF"/>
<path d="M304.793 84.4711C304.795 86.4267 304.202 88.3366 303.093 89.9475C301.783 91.8521 299.834 93.2241 297.6 93.8147C295.365 94.4053 292.992 94.1752 290.913 93.1662C288.833 92.1572 287.184 90.4362 286.265 88.3155C285.346 86.1947 285.217 83.8147 285.903 81.6073C286.588 79.3998 288.042 77.5113 290.001 76.2842C291.96 75.0571 294.294 74.5729 296.579 74.9194C298.864 75.2658 300.95 76.42 302.457 78.1725C303.964 79.925 304.793 82.1597 304.793 84.4711Z" fill="#FFB0B1"/>
<path opacity="0.1" d="M321.656 116.968C320.333 116.154 319.255 114.996 318.538 113.619C317.994 112.544 317.632 111.302 316.704 110.54C315.867 109.856 314.749 109.69 313.707 109.383C310.279 108.37 307.406 105.243 307.299 101.672C307.246 99.9912 307.771 98.3135 307.533 96.6488C307.398 95.7066 307.023 94.8149 306.445 94.0588C306.158 93.6972 305.843 93.3585 305.503 93.0456C305.047 92.6156 304.568 92.1986 304.151 91.7425C303.889 91.4601 303.659 91.1486 303.467 90.8141C303.312 90.5403 303.187 90.2509 303.093 89.9507C302.441 87.957 303.034 85.5918 302.317 83.5753L302.278 83.4645C302.008 82.7478 301.457 82.0311 300.692 81.9757C299.926 81.9203 299.271 82.5556 298.542 82.839C297.014 83.4319 295.365 82.422 294.091 81.3925C292.818 80.3631 291.381 79.187 289.762 79.4151C288.69 79.5682 287.843 80.2979 286.856 80.6758C286.633 80.7621 286.403 80.8286 286.168 80.8746C287.004 78.7912 288.539 77.0639 290.509 75.9892C292.48 74.9146 294.763 74.5598 296.967 74.9857C299.171 75.4117 301.157 76.5918 302.586 78.3234C304.014 80.0549 304.794 82.2298 304.793 84.4744C304.794 85.1522 304.723 85.8282 304.582 86.491C304.598 86.5366 304.614 86.5789 304.634 86.6245C305.012 87.6019 305.438 88.6053 305.813 89.4718L307.654 91.1398C307.654 91.1398 308.435 91.7914 309.608 92.7687C312.159 94.9189 316.567 98.7044 318.841 101.021C320.841 103.067 321.467 110.996 321.656 116.968Z" fill="black"/>
<path d="M286.742 74.7239C287.208 73.7758 287.439 72.7138 287.996 71.8147C288.814 70.5115 290.241 69.6775 291.707 69.1726C295.535 67.8532 303.624 65.9376 306.041 69.1726C306.517 69.8241 306.911 70.5474 307.569 70.9969C308.071 71.339 308.677 71.4856 309.227 71.743C310.768 72.4662 311.752 74.043 312.276 75.6523C312.801 77.2617 312.957 78.9883 313.342 80.6465C313.834 82.7738 314.697 84.7904 315.557 86.7939C316.57 89.1591 317.645 91.6122 319.6 93.2835C322.268 95.5639 322.858 98.7924 325.334 101.294C328.266 104.265 328.171 109.168 326.66 113.061C326.461 113.573 326.236 114.107 326.314 114.651C326.393 115.195 326.796 115.691 327.178 116.124L328.78 117.932C324.988 118.847 320.698 116.867 318.932 113.391C318.388 112.315 318.026 111.077 317.095 110.312C316.261 109.628 315.14 109.465 314.101 109.159C310.674 108.142 307.8 105.011 307.693 101.441C307.641 99.7632 308.165 98.0854 307.927 96.424C307.795 95.4755 307.419 94.5775 306.836 93.8177C305.94 92.6482 304.588 91.8631 303.858 90.5599C302.624 88.3805 303.562 85.5495 302.672 83.2104C302.399 82.4937 301.851 81.777 301.086 81.7216C300.32 81.6662 299.666 82.3015 298.933 82.5849C297.408 83.1778 295.759 82.1712 294.486 81.1384C293.212 80.1057 291.775 78.9329 290.153 79.1642C289.081 79.3141 288.237 80.0438 287.25 80.425C286.52 80.7051 285.041 80.956 284.403 80.3403C283.054 79.0991 286.178 75.8836 286.742 74.7239Z" fill="#591D4B"/>
<path opacity="0.1" d="M319.838 112.315C319.291 111.24 318.932 110.002 318 109.24C317.166 108.556 316.046 108.39 315.003 108.084C311.579 107.07 308.706 103.94 308.595 100.369C308.543 98.6914 309.068 97.0104 308.833 95.3489C308.697 94.4065 308.321 93.5148 307.742 92.7589C306.842 91.5894 305.49 90.8043 304.764 89.5012C303.529 87.325 304.468 84.4939 303.575 82.1516C303.305 81.4381 302.754 80.7214 301.992 80.6628C301.229 80.6042 300.568 81.2459 299.838 81.5294C298.314 82.1223 296.662 81.1124 295.391 80.0829C294.121 79.0535 292.678 77.8774 291.058 78.1054C289.987 78.2585 289.14 78.9883 288.156 79.3662C287.426 79.6464 285.944 79.9005 285.305 79.2847C283.963 77.9816 287.087 74.7727 287.648 73.6195C288.113 72.6682 288.345 71.6094 288.905 70.7103C288.934 70.6614 288.967 70.6125 289 70.5637C288.58 70.9109 288.219 71.3221 287.928 71.7821C287.371 72.6812 287.139 73.7367 286.673 74.6913C286.11 75.8445 282.986 79.0632 284.331 80.3566C284.983 80.9755 286.449 80.7214 287.178 80.4413C288.156 80.0601 289.009 79.3304 290.081 79.1805C291.71 78.9492 293.143 80.1253 294.414 81.1547C295.685 82.1842 297.346 83.1941 298.864 82.6012C299.594 82.3177 300.232 81.6792 301.014 81.7379C301.796 81.7965 302.317 82.51 302.601 83.2267C303.49 85.5658 302.552 88.3968 303.787 90.5762C304.516 91.8565 305.868 92.658 306.764 93.834C307.347 94.5938 307.723 95.4918 307.856 96.4403C308.093 98.1017 307.569 99.7795 307.621 101.457C307.729 105.041 310.602 108.159 314.029 109.175C315.062 109.481 316.189 109.644 317.023 110.328C317.958 111.094 318.326 112.332 318.861 113.407C320.626 116.883 324.917 118.864 328.709 117.948L327.953 117.095C324.666 117.143 321.34 115.274 319.838 112.315Z" fill="black"/>
<path opacity="0.1" d="M297.378 97.4469C296.952 98.0985 295.73 101.434 294.71 104.347C293.756 103.976 292.889 101.607 292.889 101.607L297.978 94.3683C298.499 95.085 298.157 96.2741 297.378 97.4469Z" fill="black"/>
<path d="M297.574 97.2514C297.147 97.903 295.925 101.239 294.906 104.151C293.951 103.783 293.085 101.412 293.085 101.412L298.173 94.1761C298.695 94.8895 298.353 96.0819 297.574 97.2514Z" fill="#DCE7FF"/>
<path d="M267.987 130.533L265.165 121.636C265.132 121.532 265.12 121.422 265.129 121.313C265.138 121.204 265.168 121.098 265.219 121.001C265.269 120.904 265.338 120.817 265.421 120.747C265.505 120.676 265.602 120.623 265.706 120.59C265.916 120.525 266.144 120.545 266.339 120.646C266.534 120.747 266.681 120.922 266.749 121.131L269.57 130.018L269.29 131.878L267.987 130.533Z" fill="#BE8B87"/>
<path opacity="0.1" d="M265.433 120.854C265.643 120.788 265.871 120.807 266.067 120.908C266.263 121.01 266.411 121.185 266.478 121.395L269.3 130.282L269.088 131.676L269.293 131.892L269.573 130.031L266.736 121.144C266.668 120.935 266.521 120.76 266.326 120.659C266.131 120.558 265.903 120.538 265.693 120.603C265.517 120.661 265.364 120.775 265.26 120.929C265.315 120.899 265.373 120.874 265.433 120.854Z" fill="white"/>
<path d="M267.987 130.533L269.57 130.031L269.339 131.556L269.29 131.891L268.827 131.409L267.987 130.533Z" fill="#EFC8C4"/>
<path d="M268.827 131.409C268.855 131.375 268.889 131.346 268.928 131.325C268.951 131.31 268.978 131.302 269.005 131.302C269.032 131.302 269.058 131.31 269.081 131.325C269.104 131.351 269.122 131.381 269.137 131.413C269.158 131.449 269.188 131.479 269.223 131.502C269.258 131.525 269.297 131.54 269.339 131.546L269.29 131.872L268.827 131.409Z" fill="#727A9C"/>
<path d="M265.149 124.796C265.149 124.796 270.808 124.763 269.475 127.171C268.143 129.578 266.061 129.868 266.061 129.868L265.149 124.796Z" fill="#FFB0B1"/>
<path d="M229.955 16.7515H229.711C219.989 16.7515 211.392 21.8956 206.447 29.4862C201.501 21.8956 192.904 16.7515 183.183 16.7515H182.939C175.643 16.821 168.67 19.7669 163.534 24.949C158.398 30.1311 155.515 37.1306 155.511 44.4264C155.511 53.4863 159.479 66.3415 167.216 76.9196C181.958 97.0755 206.447 114.71 206.447 114.71C206.447 114.71 230.936 97.0788 245.674 76.9196C253.414 66.3415 257.379 53.4863 257.379 44.4264C257.375 37.1311 254.493 30.1321 249.358 24.9501C244.223 19.7682 237.25 16.8219 229.955 16.7515ZM226.459 78.4703C225.352 78.4661 224.272 78.1272 223.361 77.4981C222.45 76.869 221.751 75.9792 221.354 74.9454H215.543C215.16 74.943 214.787 74.8212 214.477 74.5969C214.167 74.3726 213.935 74.0571 213.813 73.6944L212.027 68.3158L206.378 88.0547C206.268 88.4347 206.038 88.7687 205.722 89.0066C205.406 89.2445 205.021 89.3735 204.626 89.3741H204.512C204.099 89.3542 203.705 89.1932 203.397 88.918C203.089 88.6429 202.884 88.2703 202.818 87.8625L196.996 52.8478L192.741 73.5673C192.644 73.9609 192.417 74.3105 192.098 74.5603C191.778 74.8101 191.384 74.9456 190.979 74.9454H182.792C182.547 74.9558 182.302 74.9164 182.072 74.8296C181.842 74.7429 181.632 74.6105 181.455 74.4406C181.277 74.2706 181.136 74.0665 181.04 73.8406C180.943 73.6146 180.894 73.3715 180.894 73.1259C180.894 72.8803 180.943 72.6372 181.04 72.4112C181.136 72.1853 181.277 71.9812 181.455 71.8112C181.632 71.6413 181.842 71.5089 182.072 71.4222C182.302 71.3354 182.547 71.296 182.792 71.3064H189.545L195.572 43.4491C195.671 43.0372 195.91 42.6725 196.248 42.4173C196.586 42.1621 197.002 42.0322 197.426 42.0499C197.849 42.0676 198.253 42.2318 198.568 42.5143C198.884 42.7969 199.092 43.1803 199.156 43.5989L205.101 79.3173L210.164 61.6569C210.269 61.2849 210.492 60.957 210.799 60.7222C211.106 60.4873 211.481 60.3581 211.868 60.3537H211.904C212.286 60.3539 212.66 60.4749 212.97 60.6995C213.28 60.9241 213.511 61.2409 213.63 61.6047L216.859 71.3162H221.283C221.597 70.3606 222.17 69.5104 222.937 68.8596C223.704 68.2088 224.636 67.7826 225.63 67.628C226.625 67.4735 227.642 67.5966 228.571 67.9838C229.499 68.3711 230.303 69.0073 230.893 69.8224C231.482 70.6374 231.835 71.5996 231.913 72.6026C231.991 73.6057 231.789 74.6107 231.332 75.5067C230.874 76.4027 230.178 77.1548 229.32 77.6801C228.462 78.2053 227.475 78.4833 226.469 78.4833L226.459 78.4703Z" fill="#1FA0BD"/>
</g>
<defs>
<linearGradient id="paint0_linear" x1="116.085" y1="252.436" x2="116.085" y2="51.9715" gradientUnits="userSpaceOnUse">
<stop stop-color="#808080" stop-opacity="0.25"/>
<stop offset="0.54" stop-color="#808080" stop-opacity="0.12"/>
<stop offset="1" stop-color="#808080" stop-opacity="0.1"/>
</linearGradient>
<linearGradient id="paint1_linear" x1="72719.2" y1="151253" x2="72719.2" y2="48353" gradientUnits="userSpaceOnUse">
<stop stop-color="#808080" stop-opacity="0.25"/>
<stop offset="0.54" stop-color="#808080" stop-opacity="0.12"/>
<stop offset="1" stop-color="#808080" stop-opacity="0.1"/>
</linearGradient>
<clipPath id="clip0">
<rect width="360" height="255" fill="white"/>
</clipPath>
</defs>
</svg>
