<svg width="344" height="291" viewBox="0 0 344 291" fill="none" xmlns="http://www.w3.org/2000/svg">
<path opacity="0.2" d="M317.051 0H27.3456V291H317.051V0Z" fill="#1FA0BD"/>
<path opacity="0.5" d="M273.06 27.1693H70.9401V264.229H273.06V27.1693Z" fill="#1FA0BD"/>
<path d="M344 41.7989H235.806V250.793H344V41.7989Z" fill="url(#paint0_linear)"/>
<path d="M108.194 42.5951H0V251.59H108.194V42.5951Z" fill="url(#paint1_linear)"/>
<path d="M340.433 44.9836H239.373V246.414H340.433V44.9836Z" fill="#1FA0BD"/>
<path d="M3.56683 246.415H104.627L104.627 44.9836H3.56683L3.56683 246.415Z" fill="#1FA0BD"/>
<path d="M87.9816 63.2955H20.212V75.6361H87.9816V63.2955Z" fill="url(#paint2_linear)"/>
<path d="M324.184 82.0055H256.415V94.3461H324.184V82.0055Z" fill="url(#paint3_linear)"/>
<path d="M323.788 101.114H256.018V113.454H323.788V101.114Z" fill="url(#paint4_linear)"/>
<path d="M323.788 120.222H256.018V132.562H323.788V120.222Z" fill="url(#paint5_linear)"/>
<path d="M323.788 139.33H256.018V151.67H323.788V139.33Z" fill="url(#paint6_linear)"/>
<path d="M323.788 158.438H256.018V170.778H323.788V158.438Z" fill="url(#paint7_linear)"/>
<path d="M323.788 177.546H256.018V189.886H323.788V177.546Z" fill="url(#paint8_linear)"/>
<path d="M323.788 196.654H256.018V208.995H323.788V196.654Z" fill="url(#paint9_linear)"/>
<path d="M323.788 215.762H256.018V228.103H323.788V215.762Z" fill="url(#paint10_linear)"/>
<path d="M323.788 63.2955H256.018V75.6361H323.788V63.2955Z" fill="url(#paint11_linear)"/>
<path d="M87.9816 82.8016H20.212V95.1423H87.9816V82.8016Z" fill="url(#paint12_linear)"/>
<path d="M87.9816 101.512H20.212V113.852H87.9816V101.512Z" fill="url(#paint13_linear)"/>
<path d="M87.9816 120.222H20.212V132.562H87.9816V120.222Z" fill="url(#paint14_linear)"/>
<path d="M87.9816 139.33H20.212V151.67H87.9816V139.33Z" fill="url(#paint15_linear)"/>
<path d="M87.9816 158.438H20.212V170.778H87.9816V158.438Z" fill="url(#paint16_linear)"/>
<path d="M86.7926 64.8878H21.7972V74.4419H86.7926V64.8878Z" fill="white"/>
<path d="M86.5945 83.5978H21.5991V93.1518H86.5945V83.5978Z" fill="white"/>
<path d="M86.5945 102.706H21.5991V112.26H86.5945V102.706Z" fill="white"/>
<path d="M86.5945 121.814H21.5991V131.368H86.5945V121.814Z" fill="white"/>
<path d="M86.5945 140.922H21.5991V150.476H86.5945V140.922Z" fill="white"/>
<path d="M86.5945 160.03H21.5991V169.584H86.5945V160.03Z" fill="white"/>
<path d="M87.9816 177.546H20.212V189.886H87.9816V177.546Z" fill="url(#paint17_linear)"/>
<path d="M86.5945 179.138H21.5991V188.692H86.5945V179.138Z" fill="white"/>
<path d="M86.5945 179.138H21.5991V188.692H86.5945V179.138Z" fill="white"/>
<path d="M86.5945 198.246H21.5991V207.8H86.5945V198.246Z" fill="white"/>
<path d="M86.5945 217.354H21.5991V226.908H86.5945V217.354Z" fill="white"/>
<path d="M322.599 64.4897H257.604V74.0438H322.599V64.4897Z" fill="white"/>
<path d="M322.599 83.5978H257.604V93.1518H322.599V83.5978Z" fill="white"/>
<path d="M322.599 102.706H257.604V112.26H322.599V102.706Z" fill="white"/>
<path d="M322.599 121.814H257.604V131.368H322.599V121.814Z" fill="white"/>
<path d="M322.599 140.922H257.604V150.476H322.599V140.922Z" fill="white"/>
<path d="M322.599 160.03H257.604V169.584H322.599V160.03Z" fill="white"/>
<path d="M322.599 179.138H257.604V188.692H322.599V179.138Z" fill="white"/>
<path d="M322.599 198.246H257.604V207.8H322.599V198.246Z" fill="white"/>
<path d="M322.599 217.354H257.604V226.908H322.599V217.354Z" fill="white"/>
<path d="M291.29 256.765H52.3134V271.892H291.29V256.765Z" fill="url(#paint18_linear)"/>
<path d="M289.705 258.357H54.2949V270.3H289.705V258.357Z" fill="#1FA0BD"/>
<path d="M291.687 19.9042H53.106V35.4295H291.687V19.9042Z" fill="url(#paint19_linear)"/>
<path d="M289.705 21.0985H54.2949V33.0411H289.705V21.0985Z" fill="#1FA0BD"/>
<path opacity="0.5" d="M230.258 44.9836H114.535V246.414H230.258V44.9836Z" fill="#263238"/>
<path d="M261.432 132.582C264.206 136.316 260.053 140.727 260.053 140.727L260.75 140.97C259.724 142.112 255.67 147.268 240.039 170.587C220.025 200.444 193.056 207.892 193.056 207.892C189.779 205.32 186.052 203.388 182.066 202.195V199.377C187.159 197.868 191.812 195.144 195.628 191.437C199.445 187.729 202.311 183.149 203.983 178.087C206.369 173.343 207.61 168.101 207.605 162.785C207.605 143.677 191.843 128.175 172.404 128.175C152.965 128.175 137.204 143.673 137.204 162.785C137.199 168.101 138.44 173.343 140.826 178.087C142.497 183.149 145.364 187.729 149.18 191.437C152.997 195.144 157.65 197.868 162.742 199.377V202.195C158.757 203.388 155.029 205.32 151.752 207.892C151.752 207.892 124.771 200.436 104.758 170.579C89.1269 147.26 85.0726 142.1 84.0462 140.962L84.7437 140.719C84.7437 140.719 80.6022 136.308 83.3645 132.574C86.1268 128.84 65.0747 124.429 67.4882 132.574C69.9018 140.719 73.0089 144.791 73.0089 144.791C73.0089 144.791 117.079 214.608 140.085 226.144C139.541 228.51 139.267 230.93 139.268 233.357V246.932H205.524V233.357C205.525 230.93 205.251 228.51 204.708 226.144C227.694 214.6 271.784 144.795 271.784 144.795C271.784 144.795 274.891 140.723 277.304 132.578C279.718 124.433 258.67 128.848 261.432 132.582Z" fill="url(#paint20_linear)"/>
<path d="M172.396 198.457C191.014 198.457 206.107 183.297 206.107 164.596C206.107 145.895 191.014 130.735 172.396 130.735C153.779 130.735 138.686 145.895 138.686 164.596C138.686 183.297 153.779 198.457 172.396 198.457Z" fill="#263238"/>
<path d="M172.396 201.781C189.92 201.781 204.125 187.512 204.125 169.911C204.125 152.309 189.92 138.04 172.396 138.04C154.873 138.04 140.667 152.309 140.667 169.911C140.667 187.512 154.873 201.781 172.396 201.781Z" fill="#F8C198"/>
<path d="M159.837 166.921C162.028 166.921 163.804 165.137 163.804 162.936C163.804 160.735 162.028 158.951 159.837 158.951C157.646 158.951 155.87 160.735 155.87 162.936C155.87 165.137 157.646 166.921 159.837 166.921Z" fill="#263238"/>
<path d="M185.617 166.921C187.808 166.921 189.584 165.137 189.584 162.936C189.584 160.735 187.808 158.951 185.617 158.951C183.426 158.951 181.65 160.735 181.65 162.936C181.65 165.137 183.426 166.921 185.617 166.921Z" fill="#263238"/>
<path d="M181.65 184.512C181.65 186.901 177.509 190.822 172.396 190.822C167.284 190.822 163.142 186.901 163.142 184.512C163.142 182.124 167.284 182.187 172.396 182.187C177.509 182.187 181.65 182.124 181.65 184.512Z" fill="white"/>
<path d="M160.828 164.266C161.559 164.266 162.152 163.67 162.152 162.936C162.152 162.202 161.559 161.607 160.828 161.607C160.097 161.607 159.504 162.202 159.504 162.936C159.504 163.67 160.097 164.266 160.828 164.266Z" fill="white"/>
<path d="M186.937 164.266C187.668 164.266 188.261 163.67 188.261 162.936C188.261 162.202 187.668 161.607 186.937 161.607C186.206 161.607 185.613 162.202 185.613 162.936C185.613 163.67 186.206 164.266 186.937 164.266Z" fill="white"/>
<path d="M175.567 152.22C173.633 152.22 171.897 150.532 171.691 148.601C171.624 147.63 171.854 146.662 172.35 145.826C172.845 144.991 173.583 144.327 174.465 143.924C174.646 143.83 174.845 143.778 175.048 143.772C175.713 143.772 176.042 144.568 176.256 145.201C176.922 147.16 178.103 149.071 179.958 149.978C181.813 150.886 184.405 150.42 185.383 148.597C182.76 147.423 181.638 143.736 183.164 141.292C183.755 140.349 184.674 139.549 184.86 138.45C185.201 136.459 183.029 135.01 181.107 134.413C175.559 132.69 156.219 132.499 155.153 140.815C154.035 149.588 169.475 153.382 175.567 152.22Z" fill="#263238"/>
<path d="M144.047 175.501C145.065 175.098 144.967 172.42 143.828 169.52C142.688 166.62 140.94 164.596 139.922 165C138.904 165.403 139.002 168.081 140.141 170.981C141.28 173.881 143.029 175.905 144.047 175.501Z" fill="#F8C198"/>
<path d="M204.642 170.96C205.781 168.06 205.879 165.382 204.861 164.979C203.843 164.575 202.095 166.599 200.956 169.499C199.817 172.399 199.719 175.077 200.737 175.481C201.755 175.884 203.503 173.86 204.642 170.96Z" fill="#F8C198"/>
<path d="M192.176 208.732C192.176 208.732 218.004 201.447 237.174 172.231C256.343 143.016 257.334 142.936 257.334 142.936L267.579 147.001C267.579 147.001 219.99 224.022 199.5 228.007C179.011 231.992 192.176 208.732 192.176 208.732Z" fill="#FF9800"/>
<path d="M256.347 143.02C256.347 143.02 260.31 138.705 257.671 135.058C255.032 131.412 275.188 127.097 272.874 135.058C270.559 143.02 267.587 147.001 267.587 147.001L256.347 143.02Z" fill="#F8C198"/>
<path d="M152.616 208.732C152.616 208.732 126.789 201.447 107.619 172.231C88.4492 143.016 87.4584 142.936 87.4584 142.936L77.2137 147.001C77.2137 147.001 124.807 224.022 145.3 228.007C165.794 231.992 152.616 208.732 152.616 208.732Z" fill="#FF9800"/>
<path d="M88.4453 143.02C88.4453 143.02 84.4821 138.705 87.1216 135.058C89.761 131.412 69.6045 127.097 71.919 135.058C74.2335 143.02 77.2058 147.001 77.2058 147.001L88.4453 143.02Z" fill="#F8C198"/>
<g opacity="0.2">
<path opacity="0.2" d="M183.212 136.452C183.021 137.55 182.102 138.346 181.515 139.294C180.18 141.436 180.873 144.533 182.831 146.061C182.55 145.345 182.434 144.573 182.492 143.805C182.55 143.037 182.782 142.292 183.168 141.627C183.759 140.683 184.678 139.883 184.864 138.784C185.078 137.538 184.306 136.503 183.228 135.759C183.256 135.989 183.25 136.223 183.212 136.452Z" fill="white"/>
<path opacity="0.2" d="M174.957 144.111C174.83 143.812 174.711 143.51 174.608 143.207C174.394 142.574 174.065 141.798 173.399 141.778C173.196 141.784 172.997 141.836 172.816 141.929C171.935 142.332 171.197 142.996 170.701 143.832C170.205 144.668 169.975 145.636 170.042 146.607C170.116 147.192 170.312 147.755 170.617 148.26C170.922 148.764 171.33 149.198 171.814 149.533C171.758 149.336 171.718 149.135 171.695 148.931C171.628 147.961 171.858 146.993 172.354 146.157C172.849 145.321 173.587 144.657 174.469 144.254C174.622 144.179 174.787 144.131 174.957 144.111Z" fill="white"/>
<path opacity="0.2" d="M172.162 150.416C167.343 150.619 159.568 148.772 155.735 144.843C158.597 150.958 170.419 153.517 175.551 152.534C174.851 152.511 174.169 152.302 173.575 151.931C172.98 151.559 172.493 151.037 172.162 150.416Z" fill="white"/>
<path opacity="0.2" d="M183.366 147.136C182.209 148.502 179.966 148.788 178.313 147.98C177.773 147.713 177.279 147.362 176.847 146.941C177.487 148.377 178.584 149.559 179.966 150.301C181.821 151.205 184.413 150.743 185.391 148.92C184.558 148.536 183.854 147.916 183.366 147.136Z" fill="white"/>
</g>
<path opacity="0.2" d="M266.263 147.001C266.263 147.001 218.67 224.022 198.157 228.007C196.971 228.245 195.77 228.393 194.562 228.449C196.213 228.496 197.864 228.348 199.48 228.007C219.974 224.026 267.567 147.001 267.567 147.001L266.505 146.623C266.358 146.873 266.263 147.001 266.263 147.001Z" fill="white"/>
<path opacity="0.2" d="M78.5295 147.001C78.5295 147.001 126.123 224.022 146.636 228.007C147.821 228.245 149.023 228.393 150.23 228.449C148.579 228.496 146.929 228.348 145.312 228.007C124.819 224.026 77.2256 147.001 77.2256 147.001L78.2877 146.623C78.4344 146.873 78.5295 147.001 78.5295 147.001Z" fill="white"/>
<path d="M172.396 201.781C176.563 201.781 180.689 202.606 184.538 204.207C188.388 205.809 191.886 208.156 194.832 211.116C197.778 214.075 200.115 217.589 201.71 221.456C203.304 225.322 204.125 229.467 204.125 233.652V246.932H140.667V233.652C140.667 229.467 141.488 225.322 143.083 221.456C144.677 217.589 147.014 214.075 149.961 211.116C152.907 208.156 156.405 205.809 160.254 204.207C164.104 202.606 168.23 201.781 172.396 201.781Z" fill="#FF9800"/>
<path opacity="0.2" d="M172.725 201.948C171.571 201.948 170.417 202.011 169.269 202.136C169.666 202.136 170.026 202.112 170.411 202.112C178.826 202.112 186.896 205.469 192.846 211.446C198.797 217.423 202.14 225.53 202.14 233.982V247.095H204.454V233.819C204.454 225.366 201.111 217.26 195.161 211.283C189.211 205.306 181.14 201.948 172.725 201.948Z" fill="white"/>
<path opacity="0.2" d="M172.067 201.948C173.222 201.948 174.375 202.011 175.523 202.136C175.127 202.136 174.766 202.112 174.382 202.112C165.967 202.112 157.896 205.469 151.946 211.446C145.996 217.423 142.653 225.53 142.653 233.982V247.095H140.338V233.819C140.338 225.366 143.681 217.26 149.632 211.283C155.582 205.306 163.652 201.948 172.067 201.948Z" fill="white"/>
<path d="M181.65 202.279C181.65 197.145 177.507 192.984 172.396 192.984C167.286 192.984 163.142 197.145 163.142 202.279V206.096C163.142 211.23 167.286 215.392 172.396 215.392C177.507 215.392 181.65 211.23 181.65 206.096V202.279Z" fill="#F8C198"/>
<defs>
<linearGradient id="paint0_linear" x1="289.903" y1="250.793" x2="289.903" y2="41.7989" gradientUnits="userSpaceOnUse">
<stop stop-color="#808080" stop-opacity="0.25"/>
<stop offset="0.54" stop-color="#808080" stop-opacity="0.12"/>
<stop offset="1" stop-color="#808080" stop-opacity="0.1"/>
</linearGradient>
<linearGradient id="paint1_linear" x1="14768.4" y1="132127" x2="14768.4" y2="22405" gradientUnits="userSpaceOnUse">
<stop stop-color="#808080" stop-opacity="0.25"/>
<stop offset="0.54" stop-color="#808080" stop-opacity="0.12"/>
<stop offset="1" stop-color="#808080" stop-opacity="0.1"/>
</linearGradient>
<linearGradient id="paint2_linear" x1="54.0968" y1="75.6361" x2="54.0968" y2="63.2955" gradientUnits="userSpaceOnUse">
<stop stop-opacity="0.12"/>
<stop offset="0.55" stop-opacity="0.09"/>
<stop offset="1" stop-opacity="0.02"/>
</linearGradient>
<linearGradient id="paint3_linear" x1="49897.6" y1="3006.73" x2="49897.6" y2="2624.17" gradientUnits="userSpaceOnUse">
<stop stop-opacity="0.12"/>
<stop offset="0.55" stop-opacity="0.09"/>
<stop offset="1" stop-opacity="0.02"/>
</linearGradient>
<linearGradient id="paint4_linear" x1="49829.4" y1="3618.19" x2="49829.4" y2="3235.63" gradientUnits="userSpaceOnUse">
<stop stop-opacity="0.12"/>
<stop offset="0.55" stop-opacity="0.09"/>
<stop offset="1" stop-opacity="0.02"/>
</linearGradient>
<linearGradient id="paint5_linear" x1="49829.4" y1="4229.64" x2="49829.4" y2="3847.08" gradientUnits="userSpaceOnUse">
<stop stop-opacity="0.12"/>
<stop offset="0.55" stop-opacity="0.09"/>
<stop offset="1" stop-opacity="0.02"/>
</linearGradient>
<linearGradient id="paint6_linear" x1="49829.4" y1="4841.11" x2="49829.4" y2="4458.55" gradientUnits="userSpaceOnUse">
<stop stop-opacity="0.12"/>
<stop offset="0.55" stop-opacity="0.09"/>
<stop offset="1" stop-opacity="0.02"/>
</linearGradient>
<linearGradient id="paint7_linear" x1="49829.4" y1="5452.55" x2="49829.4" y2="5069.99" gradientUnits="userSpaceOnUse">
<stop stop-opacity="0.12"/>
<stop offset="0.55" stop-opacity="0.09"/>
<stop offset="1" stop-opacity="0.02"/>
</linearGradient>
<linearGradient id="paint8_linear" x1="49829.4" y1="6064.04" x2="49829.4" y2="5681.48" gradientUnits="userSpaceOnUse">
<stop stop-opacity="0.12"/>
<stop offset="0.55" stop-opacity="0.09"/>
<stop offset="1" stop-opacity="0.02"/>
</linearGradient>
<linearGradient id="paint9_linear" x1="49829.4" y1="6675.49" x2="49829.4" y2="6292.93" gradientUnits="userSpaceOnUse">
<stop stop-opacity="0.12"/>
<stop offset="0.55" stop-opacity="0.09"/>
<stop offset="1" stop-opacity="0.02"/>
</linearGradient>
<linearGradient id="paint10_linear" x1="49829.4" y1="7286.93" x2="49829.4" y2="6904.37" gradientUnits="userSpaceOnUse">
<stop stop-opacity="0.12"/>
<stop offset="0.55" stop-opacity="0.09"/>
<stop offset="1" stop-opacity="0.02"/>
</linearGradient>
<linearGradient id="paint11_linear" x1="49829.4" y1="63.2955" x2="49829.4" y2="63.2955" gradientUnits="userSpaceOnUse">
<stop stop-opacity="0.12"/>
<stop offset="0.55" stop-opacity="0.09"/>
<stop offset="1" stop-opacity="0.02"/>
</linearGradient>
<linearGradient id="paint12_linear" x1="3476.46" y1="2840.93" x2="15065.1" y2="2840.93" gradientUnits="userSpaceOnUse">
<stop stop-opacity="0.12"/>
<stop offset="0.55" stop-opacity="0.09"/>
<stop offset="1" stop-opacity="0.02"/>
</linearGradient>
<linearGradient id="paint13_linear" x1="3476.46" y1="3439.65" x2="15065.1" y2="3439.65" gradientUnits="userSpaceOnUse">
<stop stop-opacity="0.12"/>
<stop offset="0.55" stop-opacity="0.09"/>
<stop offset="1" stop-opacity="0.02"/>
</linearGradient>
<linearGradient id="paint14_linear" x1="3476.46" y1="4038.36" x2="15065.1" y2="4038.36" gradientUnits="userSpaceOnUse">
<stop stop-opacity="0.12"/>
<stop offset="0.55" stop-opacity="0.09"/>
<stop offset="1" stop-opacity="0.02"/>
</linearGradient>
<linearGradient id="paint15_linear" x1="3476.46" y1="4649.83" x2="15065.1" y2="4649.83" gradientUnits="userSpaceOnUse">
<stop stop-opacity="0.12"/>
<stop offset="0.55" stop-opacity="0.09"/>
<stop offset="1" stop-opacity="0.02"/>
</linearGradient>
<linearGradient id="paint16_linear" x1="3476.46" y1="5261.27" x2="15065.1" y2="5261.27" gradientUnits="userSpaceOnUse">
<stop stop-opacity="0.12"/>
<stop offset="0.55" stop-opacity="0.09"/>
<stop offset="1" stop-opacity="0.02"/>
</linearGradient>
<linearGradient id="paint17_linear" x1="3476.46" y1="5872.76" x2="15065.1" y2="5872.76" gradientUnits="userSpaceOnUse">
<stop stop-opacity="0.12"/>
<stop offset="0.55" stop-opacity="0.09"/>
<stop offset="1" stop-opacity="0.02"/>
</linearGradient>
<linearGradient id="paint18_linear" x1="31597.3" y1="10301.3" x2="175700" y2="10301.3" gradientUnits="userSpaceOnUse">
<stop stop-color="#808080" stop-opacity="0.25"/>
<stop offset="0.54" stop-color="#808080" stop-opacity="0.12"/>
<stop offset="1" stop-color="#808080" stop-opacity="0.1"/>
</linearGradient>
<linearGradient id="paint19_linear" x1="103836" y1="1401.66" x2="103836" y2="796.17" gradientUnits="userSpaceOnUse">
<stop stop-color="#808080" stop-opacity="0.25"/>
<stop offset="0.54" stop-color="#808080" stop-opacity="0.12"/>
<stop offset="1" stop-color="#808080" stop-opacity="0.1"/>
</linearGradient>
<linearGradient id="paint20_linear" x1="126399" y1="83968.7" x2="126399" y2="48424.4" gradientUnits="userSpaceOnUse">
<stop stop-color="#808080" stop-opacity="0.25"/>
<stop offset="0.54" stop-color="#808080" stop-opacity="0.12"/>
<stop offset="1" stop-color="#808080" stop-opacity="0.1"/>
</linearGradient>
</defs>
</svg>
