<svg width="368" height="265" viewBox="0 0 368 265" fill="none" xmlns="http://www.w3.org/2000/svg">
<g clip-path="url(#clip0)">
<path d="M321.262 91.1656C307.943 81.206 287.083 71.7869 264.03 65.3237C243.04 59.4388 222.567 56.5976 206.379 57.3231L206.294 55.4399C222.676 54.7061 243.361 57.5712 264.539 63.5086C287.806 70.0321 308.893 79.5624 322.39 89.6559L321.262 91.1656Z" fill="#CCCCCC"/>
<path d="M319.879 98.8371C319.891 107.661 318.042 116.388 314.452 124.449C314.152 125.124 313.84 125.792 313.515 126.455C307.271 139.247 296.879 149.545 284.032 155.67C271.186 161.795 256.644 163.385 242.778 160.181C228.911 156.977 216.54 149.168 207.681 138.027C198.821 126.887 193.997 113.072 193.995 98.8371C193.995 97.38 194.045 95.9341 194.144 94.4996C194.191 93.7701 194.252 93.0451 194.327 92.3244C195.996 76.2772 203.76 61.4833 216.016 50.9955C228.273 40.5077 244.086 35.1263 260.194 35.9618C276.301 36.7974 291.474 43.7861 302.58 55.4858C313.686 67.1855 319.878 82.7033 319.879 98.8371V98.8371Z" fill="#1FA0BD"/>
<path opacity="0.1" d="M314.452 124.449C314.152 125.124 313.84 125.792 313.515 126.455C311.676 126.654 309.74 126.799 307.707 126.89C306.024 126.965 304.292 127.003 302.523 127.003C287.066 127.003 268.465 124.149 249.461 118.822C228.284 112.884 209.124 104.579 195.51 95.4346C195.047 95.1236 194.591 94.8119 194.144 94.4996C194.191 93.7701 194.252 93.045 194.327 92.3243C195.049 92.8389 195.793 93.3542 196.56 93.87C210.013 102.905 228.981 111.122 249.97 117.007C268.808 122.289 287.234 125.118 302.513 125.118C304.26 125.118 305.963 125.081 307.622 125.007C310.038 124.898 312.315 124.712 314.452 124.449Z" fill="black"/>
<path d="M302.523 125.495C287.067 125.496 268.464 122.642 249.462 117.314C228.284 111.377 209.124 103.071 195.51 93.9268C181.612 84.592 175.095 75.3938 177.16 68.0268C179.224 60.6597 189.571 56.1896 206.294 55.4399L206.379 57.3231C198.569 57.6732 192.204 58.8343 187.462 60.7742C182.731 62.7092 179.875 65.3206 178.974 68.5356C178.073 71.7505 179.156 75.466 182.193 79.5789C185.236 83.7017 190.071 88.0025 196.561 92.3618C210.013 101.397 228.981 109.614 249.971 115.499C268.808 120.78 287.233 123.61 302.514 123.611C304.26 123.611 305.963 123.574 307.622 123.499C315.432 123.149 321.796 121.988 326.539 120.048C331.27 118.113 334.126 115.502 335.026 112.287C336.644 106.514 331.756 99.0131 321.262 91.1656L322.39 89.6559C327.79 93.6942 331.788 97.6748 334.271 101.487C336.934 105.574 337.798 109.379 336.841 112.796C334.777 120.163 324.43 124.633 307.706 125.383C306.023 125.458 304.293 125.495 302.523 125.495Z" fill="#CCCCCC"/>
<path d="M258.602 24.5224C259.001 24.5224 259.323 24.1994 259.323 23.801C259.323 23.4025 259.001 23.0795 258.602 23.0795C258.204 23.0795 257.881 23.4025 257.881 23.801C257.881 24.1994 258.204 24.5224 258.602 24.5224Z" fill="#F2F2F2"/>
<path d="M162.916 55.8289C163.601 55.8289 164.157 55.2732 164.157 54.5877C164.157 53.9022 163.601 53.3466 162.916 53.3466C162.231 53.3466 161.675 53.9022 161.675 54.5877C161.675 55.2732 162.231 55.8289 162.916 55.8289Z" fill="#CCCCCC"/>
<path d="M160.271 105.618C161.625 105.618 162.723 104.52 162.723 103.166C162.723 101.812 161.625 100.714 160.271 100.714C158.918 100.714 157.82 101.812 157.82 103.166C157.82 104.52 158.918 105.618 160.271 105.618Z" fill="#CCCCCC"/>
<path d="M307.407 29.7638C308.309 29.7638 309.041 29.0322 309.041 28.1297C309.041 27.2272 308.309 26.4956 307.407 26.4956C306.505 26.4956 305.773 27.2272 305.773 28.1297C305.773 29.0322 306.505 29.7638 307.407 29.7638Z" fill="#CCCCCC"/>
<path d="M365.348 98.6044C366.812 98.6044 368 97.4165 368 95.9512C368 94.4859 366.812 93.298 365.348 93.298C363.883 93.298 362.695 94.4859 362.695 95.9512C362.695 97.4165 363.883 98.6044 365.348 98.6044Z" fill="#CCCCCC"/>
<path d="M344.607 54.7141C345.236 54.7141 345.745 54.2045 345.745 53.5758C345.745 52.9471 345.236 52.4374 344.607 52.4374C343.978 52.4374 343.469 52.9471 343.469 53.5758C343.469 54.2045 343.978 54.7141 344.607 54.7141Z" fill="#CCCCCC"/>
<path d="M206.432 40.7275C207.412 40.7275 208.207 39.9324 208.207 38.9516C208.207 37.9709 207.412 37.1758 206.432 37.1758C205.451 37.1758 204.656 37.9709 204.656 38.9516C204.656 39.9324 205.451 40.7275 206.432 40.7275Z" fill="#CCCCCC"/>
<path d="M340.624 91.7098C341.252 91.7098 341.762 91.2001 341.762 90.5714C341.762 89.9427 341.252 89.4331 340.624 89.4331C339.995 89.4331 339.486 89.9427 339.486 90.5714C339.486 91.2001 339.995 91.7098 340.624 91.7098Z" fill="#CCCCCC"/>
<path d="M166.042 139.213C166.824 139.213 167.458 138.578 167.458 137.796C167.458 137.013 166.824 136.379 166.042 136.379C165.259 136.379 164.625 137.013 164.625 137.796C164.625 138.578 165.259 139.213 166.042 139.213Z" fill="#CCCCCC"/>
<path d="M194.651 159.05C195.498 159.05 196.185 158.363 196.185 157.516C196.185 156.668 195.498 155.981 194.651 155.981C193.804 155.981 193.117 156.668 193.117 157.516C193.117 158.363 193.804 159.05 194.651 159.05Z" fill="#CCCCCC"/>
<path d="M239.241 3.02782H236.215V0H234.591V3.02782H231.562V4.65359H234.591V7.68141H236.215V4.65359H239.241V3.02782Z" fill="#CCCCCC"/>
<path d="M309.457 166.861H307.556V164.96H306.536V166.861H304.636V167.881H306.536V169.782H307.556V167.881H309.457V166.861Z" fill="#CCCCCC"/>
<path d="M353.326 157.13H351.905V155.708H351.142V157.13H349.721V157.893H351.142V159.314H351.905V157.893H353.326V157.13Z" fill="#CCCCCC"/>
<path opacity="0.1" d="M257.881 54.8282C260.802 54.8282 263.17 52.4595 263.17 49.5375C263.17 46.6155 260.802 44.2468 257.881 44.2468C254.96 44.2468 252.592 46.6155 252.592 49.5375C252.592 52.4595 254.96 54.8282 257.881 54.8282Z" fill="black"/>
<path opacity="0.1" d="M217.251 93.5464C220.172 93.5464 222.54 91.1777 222.54 88.2557C222.54 85.3337 220.172 82.965 217.251 82.965C214.329 82.965 211.961 85.3337 211.961 88.2557C211.961 91.1777 214.329 93.5464 217.251 93.5464Z" fill="black"/>
<path opacity="0.1" d="M275.672 146.694C278.593 146.694 280.961 144.325 280.961 141.403C280.961 138.481 278.593 136.112 275.672 136.112C272.751 136.112 270.383 138.481 270.383 141.403C270.383 144.325 272.751 146.694 275.672 146.694Z" fill="black"/>
<path opacity="0.1" d="M257.881 101.723C260.802 101.723 263.17 99.3542 263.17 96.4322C263.17 93.5103 260.802 91.1415 257.881 91.1415C254.96 91.1415 252.592 93.5103 252.592 96.4322C252.592 99.3542 254.96 101.723 257.881 101.723Z" fill="black"/>
<path opacity="0.1" d="M219.895 130.822C222.816 130.822 225.184 128.453 225.184 125.531C225.184 122.609 222.816 120.24 219.895 120.24C216.974 120.24 214.606 122.609 214.606 125.531C214.606 128.453 216.974 130.822 219.895 130.822Z" fill="black"/>
<path opacity="0.1" d="M286.25 73.3456C289.171 73.3456 291.54 70.9769 291.54 68.0549C291.54 65.1329 289.171 62.7642 286.25 62.7642C283.329 62.7642 280.961 65.1329 280.961 68.0549C280.961 70.9769 283.329 73.3456 286.25 73.3456Z" fill="black"/>
<path opacity="0.1" d="M303.801 109.178C306.722 109.178 309.09 106.809 309.09 103.887C309.09 100.965 306.722 98.5966 303.801 98.5966C300.88 98.5966 298.511 100.965 298.511 103.887C298.511 106.809 300.88 109.178 303.801 109.178Z" fill="black"/>
<path d="M257.881 80.3197C261.732 80.3197 264.853 77.1973 264.853 73.3456C264.853 69.4939 261.732 66.3715 257.881 66.3715C254.03 66.3715 250.909 69.4939 250.909 73.3456C250.909 77.1973 254.03 80.3197 257.881 80.3197Z" fill="white"/>
<path d="M257.881 63.2452C255.267 63.2452 252.76 64.284 250.911 66.1331C249.062 67.9822 248.024 70.4901 248.024 73.1051C248.024 78.5505 257.881 96.4322 257.881 96.4322C257.881 96.4322 267.738 78.5505 267.738 73.1051C267.738 70.4901 266.7 67.9822 264.851 66.1331C263.002 64.284 260.495 63.2452 257.881 63.2452ZM257.881 77.9148C256.978 77.9148 256.094 77.6468 255.343 77.1447C254.592 76.6427 254.007 75.9291 253.661 75.0941C253.315 74.2592 253.225 73.3405 253.401 72.4542C253.577 71.5678 254.012 70.7536 254.651 70.1146C255.29 69.4756 256.104 69.0404 256.99 68.8641C257.876 68.6878 258.794 68.7783 259.629 69.1241C260.464 69.47 261.177 70.0556 261.679 70.807C262.181 71.5584 262.449 72.4419 262.449 73.3456C262.449 73.9456 262.331 74.5398 262.101 75.0941C261.872 75.6485 261.535 76.1522 261.111 76.5765C260.687 77.0008 260.183 77.3374 259.629 77.567C259.075 77.7966 258.481 77.9148 257.881 77.9148Z" fill="#CCCCCC"/>
<path d="M219.895 110.14C223.746 110.14 226.867 107.017 226.867 103.166C226.867 99.3141 223.746 96.1917 219.895 96.1917C216.044 96.1917 212.923 99.3141 212.923 103.166C212.923 107.017 216.044 110.14 219.895 110.14Z" fill="white"/>
<path d="M219.895 93.0654C217.281 93.0654 214.774 94.1042 212.925 95.9533C211.076 97.8024 210.038 100.31 210.038 102.925C210.038 108.371 219.895 126.252 219.895 126.252C219.895 126.252 229.752 108.371 229.752 102.925C229.752 101.631 229.497 100.348 229.002 99.1521C228.506 97.9558 227.78 96.8689 226.865 95.9533C225.95 95.0378 224.863 94.3115 223.667 93.816C222.471 93.3205 221.19 93.0654 219.895 93.0654ZM219.895 107.735C218.992 107.735 218.108 107.467 217.357 106.965C216.606 106.463 216.021 105.749 215.675 104.914C215.329 104.079 215.239 103.161 215.415 102.274C215.591 101.388 216.026 100.574 216.665 99.9349C217.304 99.2958 218.118 98.8607 219.004 98.6844C219.89 98.5081 220.808 98.5986 221.643 98.9444C222.478 99.2902 223.191 99.8759 223.693 100.627C224.195 101.379 224.463 102.262 224.463 103.166C224.463 103.766 224.345 104.36 224.115 104.914C223.886 105.469 223.549 105.972 223.125 106.397C222.701 106.821 222.197 107.158 221.643 107.387C221.089 107.617 220.495 107.735 219.895 107.735Z" fill="#CCCCCC"/>
<path d="M303.801 88.4962C307.651 88.4962 310.773 85.3737 310.773 81.5221C310.773 77.6704 307.651 74.548 303.801 74.548C299.95 74.548 296.829 77.6704 296.829 81.5221C296.829 85.3737 299.95 88.4962 303.801 88.4962Z" fill="white"/>
<path d="M303.801 71.4217C302.506 71.4217 301.224 71.6767 300.029 72.1722C298.833 72.6677 297.746 73.394 296.831 74.3096C295.915 75.2252 295.189 76.3121 294.694 77.5084C294.199 78.7046 293.944 79.9868 293.944 81.2816C293.944 86.7271 303.801 104.609 303.801 104.609C303.801 104.609 313.658 86.7271 313.658 81.2816C313.658 79.9868 313.403 78.7046 312.908 77.5084C312.412 76.3121 311.686 75.2252 310.771 74.3096C309.855 73.394 308.769 72.6677 307.573 72.1722C306.377 71.6767 305.095 71.4217 303.801 71.4217ZM303.801 86.0913C302.897 86.0913 302.014 85.8233 301.263 85.3213C300.512 84.8192 299.926 84.1056 299.581 83.2706C299.235 82.4357 299.144 81.517 299.321 80.6307C299.497 79.7443 299.932 78.9302 300.571 78.2911C301.21 77.6521 302.023 77.2169 302.91 77.0406C303.796 76.8643 304.714 76.9548 305.549 77.3007C306.384 77.6465 307.097 78.2321 307.599 78.9835C308.101 79.735 308.369 80.6184 308.369 81.5221C308.369 82.1221 308.251 82.7163 308.021 83.2707C307.791 83.825 307.455 84.3287 307.031 84.753C306.607 85.1773 306.103 85.5139 305.549 85.7435C304.995 85.9731 304.401 86.0913 303.801 86.0913Z" fill="#CCCCCC"/>
<path d="M257.881 33.425C261.732 33.425 264.853 30.3026 264.853 26.4509C264.853 22.5992 261.732 19.4768 257.881 19.4768C254.03 19.4768 250.909 22.5992 250.909 26.4509C250.909 30.3026 254.03 33.425 257.881 33.425Z" fill="white"/>
<path d="M257.881 16.3505C255.267 16.3505 252.76 17.3893 250.911 19.2384C249.062 21.0875 248.024 23.5954 248.024 26.2104C248.024 31.6558 257.881 49.5375 257.881 49.5375C257.881 49.5375 267.738 31.6558 267.738 26.2104C267.738 23.5953 266.7 21.0874 264.851 19.2384C263.002 17.3893 260.495 16.3505 257.881 16.3505ZM257.881 31.0201C256.978 31.0201 256.094 30.7521 255.343 30.25C254.592 29.748 254.007 29.0343 253.661 28.1994C253.315 27.3645 253.225 26.4458 253.401 25.5594C253.577 24.6731 254.012 23.8589 254.651 23.2199C255.29 22.5809 256.104 22.1457 256.99 21.9694C257.876 21.7931 258.794 21.8836 259.629 22.2294C260.464 22.5753 261.177 23.1609 261.679 23.9123C262.181 24.6637 262.449 25.5471 262.449 26.4509C262.449 27.0509 262.331 27.6451 262.101 28.1994C261.872 28.7538 261.535 29.2575 261.111 29.6818C260.687 30.1061 260.183 30.4427 259.629 30.6723C259.075 30.9019 258.481 31.0201 257.881 31.0201Z" fill="#CCCCCC"/>
<path d="M275.672 126.012C279.522 126.012 282.644 122.89 282.644 119.038C282.644 115.186 279.522 112.064 275.672 112.064C271.821 112.064 268.7 115.186 268.7 119.038C268.7 122.89 271.821 126.012 275.672 126.012Z" fill="white"/>
<path d="M275.672 108.937C273.058 108.937 270.55 109.976 268.702 111.825C266.853 113.674 265.815 116.182 265.815 118.797C265.815 124.243 275.672 142.124 275.672 142.124C275.672 142.124 285.529 124.243 285.529 118.797C285.529 117.503 285.274 116.22 284.779 115.024C284.283 113.828 283.557 112.741 282.642 111.825C281.727 110.91 280.64 110.183 279.444 109.688C278.248 109.192 276.966 108.937 275.672 108.937ZM275.672 123.607C274.768 123.607 273.885 123.339 273.134 122.837C272.383 122.335 271.797 121.621 271.452 120.786C271.106 119.951 271.015 119.033 271.192 118.146C271.368 117.26 271.803 116.446 272.442 115.807C273.081 115.168 273.895 114.733 274.781 114.556C275.667 114.38 276.585 114.471 277.42 114.816C278.255 115.162 278.968 115.748 279.47 116.499C279.972 117.251 280.24 118.134 280.24 119.038C280.24 119.638 280.122 120.232 279.892 120.786C279.663 121.341 279.326 121.844 278.902 122.269C278.478 122.693 277.974 123.03 277.42 123.259C276.866 123.489 276.272 123.607 275.672 123.607Z" fill="#3F3D56"/>
<path d="M217.25 72.3837C221.101 72.3837 224.223 69.2613 224.223 65.4096C224.223 61.5579 221.101 58.4355 217.25 58.4355C213.4 58.4355 210.278 61.5579 210.278 65.4096C210.278 69.2613 213.4 72.3837 217.25 72.3837Z" fill="white"/>
<path d="M217.25 55.3091C214.636 55.3091 212.129 56.348 210.28 58.197C208.432 60.0461 207.393 62.554 207.393 65.169C207.393 70.6145 217.25 88.4962 217.25 88.4962C217.25 88.4962 227.108 70.6145 227.108 65.169C227.108 62.554 226.069 60.0461 224.22 58.197C222.372 56.348 219.865 55.3091 217.25 55.3091ZM217.25 69.9788C216.347 69.9788 215.464 69.7108 214.713 69.2087C213.961 68.7066 213.376 67.993 213.03 67.1581C212.684 66.3232 212.594 65.4045 212.77 64.5181C212.947 63.6318 213.382 62.8176 214.02 62.1786C214.659 61.5396 215.473 61.1044 216.359 60.9281C217.245 60.7518 218.164 60.8423 218.999 61.1881C219.833 61.5339 220.547 62.1196 221.049 62.871C221.55 63.6224 221.818 64.5058 221.818 65.4095C221.818 66.0096 221.7 66.6037 221.471 67.1581C221.241 67.7125 220.905 68.2162 220.48 68.6405C220.056 69.0648 219.553 69.4013 218.999 69.631C218.444 69.8606 217.85 69.9788 217.25 69.9788Z" fill="#3F3D56"/>
<path d="M286.25 52.9043C290.101 52.9043 293.222 49.7819 293.222 45.9302C293.222 42.0785 290.101 38.9561 286.25 38.9561C282.4 38.9561 279.278 42.0785 279.278 45.9302C279.278 49.7819 282.4 52.9043 286.25 52.9043Z" fill="white"/>
<path d="M286.25 35.8298C283.636 35.8298 281.129 36.8686 279.28 38.7177C277.432 40.5668 276.393 43.0747 276.393 45.6897C276.393 51.1352 286.25 69.0168 286.25 69.0168C286.25 69.0168 296.107 51.1352 296.107 45.6897C296.107 43.0747 295.069 40.5668 293.22 38.7177C291.372 36.8686 288.865 35.8298 286.25 35.8298ZM286.25 50.4995C285.347 50.4995 284.464 50.2315 283.712 49.7294C282.961 49.2273 282.376 48.5137 282.03 47.6788C281.684 46.8439 281.594 45.9252 281.77 45.0388C281.946 44.1525 282.381 43.3383 283.02 42.6993C283.659 42.0603 284.473 41.6251 285.359 41.4488C286.245 41.2725 287.164 41.363 287.998 41.7088C288.833 42.0546 289.546 42.6403 290.048 43.3917C290.55 44.1431 290.818 45.0265 290.818 45.9302C290.818 47.1421 290.337 48.3043 289.48 49.1611C288.624 50.018 287.462 50.4994 286.25 50.4994V50.4995Z" fill="#3F3D56"/>
<path d="M133.031 259.593L138.58 258.963L138.792 237.254L130.602 238.184L133.031 259.593Z" fill="#FFB8B8"/>
<path d="M149.867 262.902L132.427 264.882L131.662 258.142L142.364 256.927C144.151 256.724 145.945 257.24 147.352 258.36C148.759 259.481 149.664 261.115 149.867 262.902Z" fill="#2F2E41"/>
<path d="M75.9632 259.246L81.5479 259.246L84.2045 237.699L75.9623 237.699L75.9632 259.246Z" fill="#FFB8B8"/>
<path d="M92.3185 264.432L74.7668 264.433L74.7665 257.65L85.5368 257.65C87.3354 257.649 89.0603 258.364 90.3321 259.636C91.6039 260.908 92.3184 262.633 92.3185 264.432Z" fill="#2F2E41"/>
<path d="M116.032 162.89L119.221 173.265L136.53 210.734L141.086 246.275L130.609 246.73L124.231 213.923L102.366 190.229L83.2341 252.198L74.5791 251.287C74.5791 251.287 81.8675 171.092 91.889 162.89C91.889 162.89 108.288 155.144 116.032 162.89Z" fill="#2F2E41"/>
<path d="M101.887 118.124C108.066 118.124 113.075 113.113 113.075 106.932C113.075 100.752 108.066 95.741 101.887 95.741C95.7082 95.741 90.6991 100.752 90.6991 106.932C90.6991 113.113 95.7082 118.124 101.887 118.124Z" fill="#FFB8B8"/>
<path d="M117.171 164.94C117.171 164.94 118.537 118.464 99.4052 121.653C80.2731 124.843 88.2448 169.725 88.2448 169.725C88.2448 169.725 92.3445 177.926 102.366 168.813C112.388 159.7 117.171 164.94 117.171 164.94Z" fill="#CCCCCC"/>
<path opacity="0.2" d="M90.7504 141.246L95.2523 158.508L102.111 165.369L92.5725 162.206L90.7504 141.246Z" fill="black"/>
<path d="M117.312 184.596C116.682 184.368 116.111 184.005 115.637 183.531C115.163 183.058 114.798 182.486 114.569 181.857C114.34 181.228 114.252 180.556 114.31 179.888C114.369 179.221 114.573 178.575 114.908 177.995L104.268 165.672L112.656 164.58L121.474 176.449C122.411 177.077 123.084 178.027 123.368 179.119C123.651 180.21 123.524 181.368 123.011 182.372C122.498 183.376 121.634 184.157 120.584 184.567C119.534 184.977 118.369 184.988 117.312 184.596Z" fill="#FFB8B8"/>
<path d="M104.357 131.12L105.555 154.688L119.676 172.914L113.754 177.471L94.6222 158.333C94.6222 158.333 87.7893 135.095 92.8001 128.26C94.6791 125.697 96.7503 124.992 98.6053 125.112C100.132 125.24 101.559 125.921 102.618 127.027C103.677 128.133 104.296 129.589 104.357 131.12Z" fill="#CCCCCC"/>
<path d="M100.557 118.692C100.61 118.644 100.652 118.584 100.678 118.517C100.704 118.45 100.715 118.378 100.708 118.307C100.702 118.235 100.679 118.166 100.641 118.105C100.604 118.044 100.552 117.993 100.491 117.955C99.4978 117.339 98.6884 116.468 98.148 115.431C97.6076 114.395 97.3563 113.232 97.4205 112.065C97.4846 110.897 97.8618 109.769 98.5125 108.798C99.1631 107.827 100.063 107.049 101.118 106.547C104.408 104.978 108.865 106.198 111.297 103.184C111.791 102.539 112.141 101.795 112.322 101.002C112.503 100.21 112.511 99.3877 112.345 98.5919C111.821 95.7446 109.681 93.6301 107.284 92.181C104.341 90.4009 100.957 89.4811 97.5174 89.5259C94.0778 89.5706 90.7194 90.5781 87.8228 92.4342C84.9262 94.2903 82.6072 96.9208 81.1286 100.028C79.65 103.135 79.0709 106.594 79.4568 110.013C79.7662 112.753 80.6115 115.826 78.9825 118.051C77.5488 120.009 74.8426 120.376 72.4654 120.863C67.3667 121.906 62.4477 124.314 58.9876 128.202C55.5275 132.091 53.6816 137.547 54.7248 142.647C55.7681 147.748 59.9534 152.23 65.0974 153.02C69.2844 153.664 73.6078 151.885 76.6826 148.97C79.7573 146.056 81.7008 142.119 82.9267 138.063C84.3817 133.249 84.9556 128.062 87.5825 123.773C90.1531 119.577 95.6926 116.569 100.034 118.754C100.117 118.798 100.212 118.815 100.305 118.804C100.398 118.793 100.486 118.753 100.557 118.692Z" fill="#2F2E41"/>
<path d="M187.302 265H47.4555C47.3347 265 47.2188 264.952 47.1334 264.867C47.048 264.781 47 264.665 47 264.544C47 264.424 47.048 264.308 47.1334 264.222C47.2188 264.137 47.3347 264.089 47.4555 264.089H187.302C187.422 264.089 187.538 264.137 187.624 264.222C187.709 264.308 187.757 264.424 187.757 264.544C187.757 264.665 187.709 264.781 187.624 264.867C187.538 264.952 187.422 265 187.302 265Z" fill="#3F3D56"/>
</g>
<defs>
<clipPath id="clip0">
<rect width="368" height="265" fill="white"/>
</clipPath>
</defs>
</svg>
