<svg width="284" height="201" viewBox="0 0 284 201" fill="none" xmlns="http://www.w3.org/2000/svg">
<g clip-path="url(#clip0)">
<path opacity="0.1" d="M94.4185 200.887C108.249 200.887 119.461 199.088 119.461 196.868C119.461 194.649 108.249 192.849 94.4185 192.849C80.5879 192.849 69.376 194.649 69.376 196.868C69.376 199.088 80.5879 200.887 94.4185 200.887Z" fill="#EC4794"/>
<path opacity="0.1" d="M230.546 201C247.804 201 261.795 199.201 261.795 196.981C261.795 194.762 247.804 192.963 230.546 192.963C213.287 192.963 199.296 194.762 199.296 196.981C199.296 199.201 213.287 201 230.546 201Z" fill="#EC4794"/>
<path opacity="0.1" d="M3.55703 86.8465H29.6404V122.368H5.46657C5.40232 122.733 5.34064 123.1 5.27382 123.467H29.6404V152.115C29.5967 152.102 29.5581 152.087 29.517 152.071C28.8283 151.799 28.1446 151.511 27.461 151.203L27.0241 151.006C26.3387 150.682 25.6534 150.34 24.9681 149.978C24.729 149.853 24.49 149.722 24.2536 149.588C20.4488 147.459 16.9924 144.76 14.0043 141.586C13.9169 141.502 13.8346 141.412 13.7472 141.33C13.3309 140.878 12.9223 140.421 12.5265 139.953L12.0896 139.44C11.6218 138.867 11.1695 138.279 10.73 137.683C10.6658 137.596 10.6041 137.509 10.5373 137.426C8.74992 134.95 7.26586 132.269 6.11679 129.44C6.08081 129.356 6.04997 129.263 6.01656 129.184C5.66361 128.276 5.35092 127.36 5.07849 126.436C4.96027 126.048 4.84719 125.665 4.74953 125.262C4.71355 125.144 4.68271 125.029 4.65444 124.913C3.19465 119.22 3.02246 113.306 3.02246 107.433C3.02246 106.748 3.02246 106.06 3.02246 105.379C3.02246 103.004 3.05073 100.613 3.09185 98.2249C3.09185 97.606 3.11755 96.9897 3.1304 96.3683C3.16638 94.7916 3.21778 93.2149 3.28461 91.6382C3.30003 91.1991 3.32059 90.7626 3.34372 90.326C3.34372 90.0744 3.35657 89.8227 3.38227 89.571C3.44395 88.6569 3.49535 87.7504 3.55703 86.8465Z" fill="#EC4794"/>
<path opacity="0.1" d="M29.6404 47.2956H15.333C17.6588 43.6584 20.1999 40.1632 22.9429 36.8288C25.0683 34.2199 27.312 31.6776 29.6404 29.2278V47.2956Z" fill="#EC4794"/>
<path opacity="0.1" d="M29.6403 48.3947V85.7474H3.63916C3.63916 85.6396 3.65715 85.5291 3.66486 85.4213C3.68799 85.126 3.71112 84.8307 3.73682 84.5379C3.76509 84.1938 3.79593 83.8472 3.82934 83.5108C3.86275 83.1744 3.89873 82.7635 3.93729 82.3912C3.97584 82.0188 4.01182 81.6413 4.05551 81.269C4.0992 80.8966 4.13775 80.5243 4.18401 80.1545C4.23027 79.7847 4.27139 79.4098 4.32022 79.0401C4.35877 78.7319 4.39989 78.4263 4.44101 78.1182C4.50012 77.6842 4.56181 77.2477 4.62863 76.8163C4.62863 76.7521 4.64662 76.6853 4.6569 76.6237C5.12598 73.4656 5.76513 70.335 6.57158 67.2457C7.41573 64.005 8.49369 60.8296 9.79698 57.7444C11.1821 54.517 12.804 51.3963 14.6492 48.4076L29.6403 48.3947Z" fill="#EC4794"/>
<path opacity="0.1" d="M35.8677 86.8439V122.368H91.5785V86.8439H35.8677ZM35.8677 123.465V153.971C36.1864 154.038 36.5025 154.102 36.816 154.156C37.2426 154.238 37.6667 154.313 38.101 154.377C38.1833 154.39 38.2681 154.403 38.358 154.411C38.5277 154.439 38.7024 154.462 38.8721 154.485C39.3013 154.544 39.7279 154.593 40.1571 154.631C40.3601 154.652 40.5657 154.67 40.7713 154.685L41.2673 154.724C41.5372 154.744 41.8045 154.76 42.0692 154.767C42.2337 154.767 42.3982 154.783 42.5678 154.788C42.6963 154.788 42.8248 154.788 42.9584 154.788C43.0921 154.788 43.2822 154.788 43.4442 154.788C43.6652 154.788 43.8862 154.788 44.1047 154.788H44.4002C44.6212 154.788 44.8423 154.788 45.0607 154.767H45.0761C45.2278 154.767 45.382 154.767 45.5362 154.747C45.579 154.749 45.6219 154.749 45.6647 154.747C45.7932 154.747 45.9217 154.747 46.045 154.729H46.135L46.996 154.662C47.2787 154.636 47.5639 154.603 47.8518 154.572L48.4378 154.503C50.8217 154.169 53.1791 153.668 55.4925 153.003C60.6891 151.555 65.7727 149.529 70.9668 148.045C77.6823 146.132 85.102 145.192 91.5913 147.531V123.465H35.8677ZM91.5785 47.2956V0.00255156C85.4791 -0.0634753 79.3963 0.649324 73.4777 2.12364C59.3707 5.66478 46.7133 13.3454 35.8677 23.1548V47.293H38.6639V48.3895H35.8677V85.7474H91.5785V48.3921H50.1443V47.2956H91.5785ZM163.136 31.3207C159.646 31.1974 156.177 30.0932 153.039 28.3881C147.037 25.1269 142.244 20.0913 136.888 15.8414C125.76 6.98981 111.959 1.64858 97.8006 0.323539V47.2956H177.331L177.528 47.0876L163.136 31.3207ZM170.381 30.0367L178.063 38.4595V27.8283C175.49 28.1468 173.236 28.9043 170.391 30.0265L170.381 30.0367ZM178.063 161.547V123.465H161.694C161.651 123.303 161.607 123.139 161.556 122.974C161.604 123.139 161.646 123.303 161.692 123.465H97.8109V151.005C98.4174 151.455 99.0162 151.927 99.6099 152.408C100.25 152.921 100.882 153.463 101.517 153.995L102.157 154.524C102.463 154.78 102.771 155.037 103.082 155.278C103.699 155.778 104.322 156.271 104.95 156.758C105.261 157.014 105.58 157.245 105.896 157.487C110.915 161.321 116.209 164.78 121.735 167.838C122.974 168.523 124.224 169.191 125.485 169.844C126.325 170.272 127.171 170.699 128.019 171.112C129.294 171.734 130.579 172.333 131.874 172.91C143.816 178.266 156.444 181.941 169.397 183.831C172.274 184.256 175.161 184.589 178.06 184.832V161.544H178.317L178.063 161.547ZM97.8109 48.3921V85.7474H178.073V48.3921H97.8109ZM97.8109 86.8439V122.368H178.073V86.8439H97.8109ZM184.303 27.7821V39.6407L194.108 28.8915C190.859 28.3676 187.591 27.9935 184.303 27.7693V27.7821ZM184.303 86.8567V122.368H262.368V86.8439L184.303 86.8567ZM262.083 164.366L262.358 123.465H184.303V185.241C189.331 185.452 194.367 185.392 199.389 185.061H199.477C201.875 184.91 204.263 184.691 206.639 184.404H206.693C219.371 182.929 231.768 179.624 243.496 174.592L262.083 164.366ZM277.421 92.6936C277.128 92.0028 276.822 91.3172 276.511 90.6392C275.93 89.3553 275.316 88.1073 274.684 86.8593H268.593V122.368H283.992C283.985 112.312 281.438 102.041 277.429 92.6807L277.421 92.6936ZM268.593 123.478V158.658C272.931 154.503 276.596 149.75 279.235 144.316C282.409 137.773 283.861 130.688 283.98 123.472L268.593 123.478ZM268.593 76.5055V85.7499H274.113C272.443 82.5676 270.603 79.4774 268.6 76.4927L268.593 76.5055ZM215.65 34.7514C215.244 34.5973 214.838 34.4407 214.429 34.2892C210.119 32.699 205.715 31.3765 201.242 30.3295L186.238 46.782L185.95 47.0876L186.143 47.2982H239.544C232.106 42.183 224.088 37.9671 215.658 34.7386L215.65 34.7514ZM241.109 48.4049H185.398L184.303 49.4064V85.7474H193.9H193.915H262.378V68.1444C256.185 60.6605 249.037 54.0198 241.116 48.3921L241.109 48.4049Z" fill="#EC4794"/>
<path opacity="0.1" d="M29.6403 67.2354V85.7474H3.63916C3.63916 85.6395 3.65715 85.5291 3.66486 85.4212C3.68799 85.1259 3.71112 84.8306 3.73682 84.5379C3.76509 84.1938 3.79593 83.8471 3.82934 83.5107C3.86275 83.1743 3.89873 82.7635 3.93729 82.3911C3.97584 82.0188 4.01182 81.6413 4.05551 81.2689C4.0992 80.8966 4.13775 80.5242 4.18401 80.1545C4.23027 79.7847 4.27139 79.4098 4.32022 79.04C4.35877 78.7319 4.39989 78.4263 4.44101 78.1181C4.50012 77.6841 4.56181 77.2476 4.62863 76.8162C4.62863 76.752 4.64662 76.6852 4.6569 76.6236C5.12598 73.4655 5.76513 70.335 6.57158 67.2456L29.6403 67.2354Z" fill="#EC4794"/>
<path opacity="0.1" d="M3.55703 86.8465H29.6404V122.368H5.46657C5.40232 122.733 5.34064 123.1 5.27382 123.467H29.6404V152.115C29.5967 152.102 29.5581 152.087 29.517 152.071C28.8283 151.799 28.1446 151.511 27.461 151.203L27.0241 151.006C26.3387 150.682 25.6534 150.34 24.9681 149.978C24.729 149.853 24.49 149.722 24.2536 149.588C20.4488 147.459 16.9924 144.76 14.0043 141.586C13.9169 141.502 13.8346 141.412 13.7472 141.33C13.3309 140.878 12.9223 140.421 12.5265 139.953L12.0896 139.44C11.6218 138.867 11.1695 138.279 10.73 137.683C10.6658 137.596 10.6041 137.509 10.5373 137.426C8.74992 134.95 7.26586 132.269 6.11679 129.44C6.08081 129.356 6.04997 129.263 6.01656 129.184C5.66361 128.276 5.35092 127.36 5.07849 126.436C4.96027 126.048 4.84719 125.665 4.74953 125.262C4.71355 125.144 4.68271 125.029 4.65444 124.913C3.19465 119.22 3.02246 113.306 3.02246 107.433C3.02246 106.748 3.02246 106.06 3.02246 105.379C3.02246 103.004 3.05073 100.613 3.09185 98.2249C3.09185 97.606 3.11755 96.9897 3.1304 96.3683C3.16638 94.7916 3.21778 93.2149 3.28461 91.6382C3.30003 91.1991 3.32059 90.7626 3.34372 90.326C3.34372 90.0744 3.35657 89.8227 3.38227 89.571C3.44395 88.6569 3.49535 87.7504 3.55703 86.8465Z" fill="#EC4794"/>
<path opacity="0.1" d="M55.4797 53.7411V85.7474H35.8677V53.7411H38.6639V42.9045H50.1417V53.7411H55.4797Z" fill="#EC4794"/>
<path opacity="0.1" d="M55.4795 86.8439H35.8701V122.366H55.4795V86.8439Z" fill="#EC4794"/>
<path opacity="0.1" d="M35.8677 123.467H55.4797V152.998C53.1662 153.662 50.8088 154.163 48.4249 154.495L47.8389 154.567C47.5511 154.601 47.2658 154.629 46.9831 154.657C46.7004 154.685 46.4074 154.706 46.1221 154.724H46.0322C45.9088 154.724 45.7752 154.739 45.6544 154.742H45.5233C45.3691 154.742 45.2149 154.757 45.0607 154.762C44.8423 154.775 44.6238 154.778 44.4002 154.78C44.3051 154.78 44.2152 154.78 44.1201 154.78C43.8991 154.78 43.6806 154.78 43.4596 154.78H42.9738C42.8428 154.78 42.7168 154.78 42.5806 154.78L42.0846 154.762C41.8276 154.762 41.55 154.734 41.2828 154.716L40.7893 154.68L40.1751 154.624C39.7433 154.585 39.3141 154.536 38.89 154.477L38.376 154.405L38.119 154.369C37.6898 154.303 37.2658 154.231 36.834 154.149C36.5179 154.095 36.2043 154.028 35.8857 153.964L35.8677 123.467Z" fill="#EC4794"/>
<path opacity="0.1" d="M178.073 49.9611H161.902V85.7449H178.073V49.9611Z" fill="#EC4794"/>
<path opacity="0.1" d="M178.076 86.8439V122.368H97.8105V107.046H140.563V116.085H161.902V86.8439H178.076Z" fill="#EC4794"/>
<path opacity="0.1" d="M178.33 161.554H178.073V184.858C175.177 184.613 172.29 184.28 169.412 183.859C156.453 181.964 143.82 178.28 131.874 172.915C128.425 171.364 125.046 169.671 121.738 167.836C116.211 164.776 110.916 161.317 105.896 157.484C104.635 156.519 103.39 155.531 102.162 154.521C101.311 153.82 100.465 153.101 99.6096 152.402C99.0159 151.922 98.4171 151.45 97.8105 150.998V123.467H161.689C161.645 123.303 161.602 123.139 161.555 122.977C161.604 123.139 161.65 123.303 161.694 123.467H178.073V161.539C178.16 161.542 178.245 161.549 178.33 161.554Z" fill="#EC4794"/>
<path opacity="0.1" d="M220.248 47.2956H209.71V44.0241H214.434V34.2789C214.844 34.4279 215.251 34.5811 215.658 34.7386V44.0241H220.248V47.2956Z" fill="#EC4794"/>
<path opacity="0.1" d="M245.634 85.7474H193.904C193.904 85.7474 193.904 85.7474 193.922 85.7603L193.899 85.7474H184.303V49.9637H187.022V76.4131H199.448V60.7489H209.713V48.3947H220.25V60.7592H230.515V76.4234H245.634V85.7474Z" fill="#EC4794"/>
<path opacity="0.1" d="M184.303 86.8439V122.368H245.634V86.8439H184.303ZM262.283 164.184L262.368 136.065H245.634V123.483H184.303V185.241C189.331 185.452 194.367 185.392 199.389 185.061H199.476C201.875 184.91 204.263 184.691 206.639 184.404H206.693C219.371 182.929 231.768 179.624 243.496 174.592" fill="#EC4794"/>
<path opacity="0.1" d="M269.682 123.467H283.99C283.864 130.681 282.414 137.765 279.243 144.308C276.604 149.745 272.936 154.498 268.603 158.65V136.053H269.682V123.467Z" fill="#EC4794"/>
<path opacity="0.1" d="M283.997 122.368H269.682V92.6807H277.428C281.438 102.041 283.984 112.312 283.997 122.368Z" fill="#EC4794"/>
<path opacity="0.1" d="M178.076 59.9092H169.412V71.1283H178.076V59.9092Z" fill="#EC4794"/>
<path opacity="0.1" d="M178.076 83.1641H169.412V85.7474H178.076V83.1641Z" fill="#EC4794"/>
<path opacity="0.1" d="M178.076 86.8439H169.412V94.3807H178.076V86.8439Z" fill="#EC4794"/>
<path opacity="0.1" d="M178.076 106.419H169.412V117.638H178.076V106.419Z" fill="#EC4794"/>
<path opacity="0.1" d="M178.076 129.674H169.412V140.893H178.076V129.674Z" fill="#EC4794"/>
<path opacity="0.1" d="M178.073 161.539C178.161 161.539 178.245 161.539 178.33 161.554H178.073V164.161H169.412V152.929H178.073V161.539Z" fill="#EC4794"/>
<path opacity="0.1" d="M178.073 176.179V184.845C175.178 184.601 172.291 184.268 169.412 183.846V176.179H178.073Z" fill="#EC4794"/>
<path opacity="0.1" d="M134.94 121.544H97.8105V122.368H134.94V121.544Z" fill="#EC4794"/>
<path opacity="0.1" d="M134.94 123.465H97.8105V126.623H134.94V123.465Z" fill="#EC4794"/>
<path opacity="0.1" d="M134.94 136.977H97.8105V142.056H134.94V136.977Z" fill="#EC4794"/>
<path opacity="0.1" d="M134.937 152.41V157.489H105.896C104.635 156.527 103.389 155.54 102.159 154.526C101.308 153.825 100.465 153.106 99.6069 152.41H134.937Z" fill="#EC4794"/>
<path opacity="0.1" d="M134.938 167.841V172.915H131.871C128.426 171.362 125.048 169.668 121.738 167.833L134.938 167.841Z" fill="#EC4794"/>
<path opacity="0.1" d="M206.701 90.2875H199.392V97.5906H206.701V90.2875Z" fill="#EC4794"/>
<path opacity="0.1" d="M48.4425 56.2602H41.1333V63.5633H48.4425V56.2602Z" fill="#EC4794"/>
<path opacity="0.1" d="M48.4425 73.2238H41.1333V80.5269H48.4425V73.2238Z" fill="#EC4794"/>
<path opacity="0.1" d="M48.4425 90.1873H41.1333V97.4904H48.4425V90.1873Z" fill="#EC4794"/>
<path opacity="0.1" d="M48.4425 107.148H41.1333V114.451H48.4425V107.148Z" fill="#EC4794"/>
<path opacity="0.1" d="M48.4425 124.112H41.1333V131.415H48.4425V124.112Z" fill="#EC4794"/>
<path opacity="0.1" d="M48.4425 141.075H41.1333V148.379H48.4425V141.075Z" fill="#EC4794"/>
<path opacity="0.1" d="M234.604 90.2875H227.294V97.5906H234.604V90.2875Z" fill="#EC4794"/>
<path opacity="0.1" d="M206.701 108.301H199.392V115.604H206.701V108.301Z" fill="#EC4794"/>
<path opacity="0.1" d="M234.604 108.301H227.294V115.604H234.604V108.301Z" fill="#EC4794"/>
<path opacity="0.1" d="M206.701 126.313H199.392V133.616H206.701V126.313Z" fill="#EC4794"/>
<path opacity="0.1" d="M234.604 126.313H227.294V133.616H234.604V126.313Z" fill="#EC4794"/>
<path opacity="0.1" d="M206.701 144.326H199.392V151.63H206.701V144.326Z" fill="#EC4794"/>
<path opacity="0.1" d="M234.604 144.326H227.294V151.63H234.604V144.326Z" fill="#EC4794"/>
<path opacity="0.1" d="M206.701 162.34H199.392V169.643H206.701V162.34Z" fill="#EC4794"/>
<path opacity="0.1" d="M234.604 162.34H227.294V169.643H234.604V162.34Z" fill="#EC4794"/>
<path opacity="0.1" d="M199.392 185.061V180.352H206.698V184.391L199.392 185.061Z" fill="#EC4794"/>
<path opacity="0.1" d="M4.62598 76.6185V80.7965H29.6402V76.6185H4.62598ZM7.11892 80.5346H5.0783V76.8753H7.13434L7.11892 80.5346ZM9.60929 80.5346H7.55325V76.8753H9.60929V80.5346ZM12.0945 80.5346H10.0385V76.8753H12.0945V80.5346ZM14.5849 80.5346H12.5314V76.8753H14.5875L14.5849 80.5346ZM17.0727 80.5346H15.0167V76.8753H17.0727V80.5346ZM19.5631 80.5346H17.507V76.8753H19.5631V80.5346ZM22.0534 80.5346H19.9974V76.8753H22.0534V80.5346ZM24.5412 80.5346H22.4852V76.8753H24.5412V80.5346ZM27.029 80.5346H24.973V76.8753H27.029V80.5346ZM29.5168 80.5346H27.4608V76.8753H29.5168V80.5346Z" fill="#EC4794"/>
<path opacity="0.1" d="M4.62598 88.775V92.9529H29.6402V88.775H4.62598ZM7.11892 92.6885H5.0783V89.0395H7.13434L7.11892 92.6885ZM9.60929 92.6885H7.55325V89.0395H9.60929V92.6885ZM12.0945 92.6885H10.0385V89.0395H12.0945V92.6885ZM14.5849 92.6885H12.5314V89.0395H14.5875L14.5849 92.6885ZM17.0727 92.6885H15.0167V89.0395H17.0727V92.6885ZM19.5631 92.6885H17.507V89.0395H19.5631V92.6885ZM22.0534 92.6885H19.9974V89.0395H22.0534V92.6885ZM24.5412 92.6885H22.4852V89.0395H24.5412V92.6885ZM27.029 92.6885H24.973V89.0395H27.029V92.6885ZM29.5168 92.6885H27.4608V89.0395H29.5168V92.6885Z" fill="#EC4794"/>
<path opacity="0.1" d="M4.62598 100.937V105.122H29.6402V100.937H4.62598ZM7.11892 104.85H5.0783V101.198H7.13434L7.11892 104.85ZM9.60929 104.85H7.55325V101.198H9.60929V104.85ZM12.0945 104.85H10.0385V101.198H12.0945V104.85ZM14.5849 104.85H12.5314V101.198H14.5875L14.5849 104.85ZM17.0727 104.85H15.0167V101.198H17.0727V104.85ZM19.5631 104.85H17.507V101.198H19.5631V104.85ZM22.0534 104.85H19.9974V101.198H22.0534V104.85ZM24.5412 104.85H22.4852V101.198H24.5412V104.85ZM27.029 104.85H24.973V101.198H27.029V104.85ZM29.5168 104.85H27.4608V101.198H29.5168V104.85Z" fill="#EC4794"/>
<path opacity="0.1" d="M4.62598 113.098V117.271H29.6402V113.098H4.62598ZM7.11892 117.012H5.0783V113.358H7.13434L7.11892 117.012ZM9.60929 117.012H7.55325V113.358H9.60929V117.012ZM12.0945 117.012H10.0385V113.358H12.0945V117.012ZM14.5849 117.012H12.5314V113.358H14.5875L14.5849 117.012ZM17.0727 117.012H15.0167V113.358H17.0727V117.012ZM19.5631 117.012H17.507V113.358H19.5631V117.012ZM22.0534 117.012H19.9974V113.358H22.0534V117.012ZM24.5412 117.012H22.4852V113.358H24.5412V117.012ZM27.029 117.012H24.973V113.358H27.029V117.012ZM29.5168 117.012H27.4608V113.358H29.5168V117.012Z" fill="#EC4794"/>
<path opacity="0.1" d="M4.73389 125.257C4.83412 125.65 4.9472 126.043 5.06542 126.431V125.519H7.12145V129.171H6.02148C6.05489 129.255 6.0883 129.348 6.12171 129.427H29.6402V125.257H4.73389ZM9.61697 129.171H7.56093V125.519H9.61697V129.171ZM12.1022 129.171H10.0462V125.519H12.1022V129.171ZM14.5926 129.171H12.5314V125.519H14.5874L14.5926 129.171ZM17.0804 129.171H15.0243V125.519H17.0804V129.171ZM19.5707 129.171H17.5147V125.519H19.5707V129.171ZM22.0611 129.171H20.0051V125.519H22.0611V129.171ZM24.5489 129.171H22.4929V125.519H24.5489V129.171ZM27.0367 129.171H24.9807V125.519H27.0367V129.171ZM29.5245 129.171H27.4685V125.519H29.5245V129.171Z" fill="#EC4794"/>
<path opacity="0.1" d="M10.5425 137.419C10.6067 137.501 10.6684 137.593 10.7352 137.676H12.0948V139.429C12.2413 139.604 12.3852 139.779 12.5343 139.943V137.665H14.5903V141.33H13.7576C13.8398 141.414 13.9195 141.504 14.0146 141.586H29.6482V137.419H10.5425ZM17.073 141.33H15.0169V137.681H17.073V141.33ZM19.5633 141.33H17.5073V137.681H19.5633V141.33ZM22.0537 141.33H19.9977V137.681H22.0537V141.33ZM24.5415 141.33H22.4855V137.681H24.5415V141.33ZM27.0293 141.33H24.9733V137.681H27.0293V141.33ZM29.5171 141.33H27.4611V137.681H29.5171V141.33Z" fill="#EC4794"/>
<path opacity="0.1" d="M24.2637 149.578C24.4975 149.711 24.7366 149.835 24.9781 149.968V149.84H27.0342V150.995L27.4711 151.198V149.84H29.5271V152.061C29.5666 152.081 29.6079 152.096 29.6505 152.107V149.578H24.2637Z" fill="#EC4794"/>
<path opacity="0.1" d="M193.904 85.7474H193.92H193.904ZM178.073 161.536H178.33H178.073ZM161.555 122.974C161.604 123.139 161.645 123.303 161.691 123.465C161.65 123.303 161.607 123.139 161.555 122.974ZM193.904 85.7397H193.92H193.904ZM38.6738 47.2879V48.3844H50.1542V47.2879H38.6738ZM178.073 161.536H178.33H178.073ZM161.555 122.974C161.604 123.139 161.645 123.303 161.691 123.465C161.65 123.303 161.607 123.139 161.555 122.974ZM193.904 85.7397H193.92H193.904ZM178.073 161.529H178.33H178.073ZM161.555 122.974C161.604 123.139 161.645 123.303 161.691 123.465C161.65 123.303 161.607 123.139 161.555 122.974Z" fill="#EC4794"/>
<path d="M118.633 97.4955C118.633 97.4955 117.62 97.3543 117.62 95.8803C117.62 94.4064 116.896 91.6536 116.896 91.6536C116.896 91.6407 116.268 86.8593 115.402 86.0992C114.536 85.3391 113.423 80.8761 113.423 80.8761C113.423 80.8761 113.233 78.4545 112.845 77.9333C112.457 77.412 111.933 76.1357 111.159 74.3151C110.386 72.4944 107.16 71.2336 107.16 71.2336C107.16 71.2336 101.329 67.8542 99.6763 66.7526C99.5261 66.6621 99.3857 66.5562 99.2574 66.4368C98.9695 66.0593 97.7154 66.0516 97.7154 66.0516C97.5843 65.2247 97.4584 64.2746 97.4172 63.4143C97.4172 63.3219 97.4172 63.2295 97.4044 63.137C99.2471 62.0487 100.635 60.3327 101.313 58.3042C101.344 58.2066 101.37 58.1039 101.398 58.0063C101.509 57.97 101.61 57.911 101.697 57.8332C101.783 57.7554 101.852 57.6604 101.899 57.5544C102.048 57.2231 102.051 56.8354 102.236 56.5272C102.452 56.1626 102.863 55.9674 103.187 55.6927C104.004 54.9993 104.215 53.8309 104.176 52.7678C104.151 51.9076 104.012 51.0396 104.066 50.1845L104.081 49.9688C104.097 49.8404 104.115 49.712 104.138 49.5888C104.264 48.9519 104.539 48.351 104.693 47.7193C104.847 47.0876 104.863 46.3763 104.503 45.8319C103.976 45.0333 102.879 44.8741 101.915 44.7919C100.823 44.6995 99.8459 44.8202 99.1469 43.9137C98.8197 43.4399 98.4516 42.9957 98.0469 42.5861C97.903 42.4526 96.5049 41.6 96.5049 41.5435C95.1403 40.912 93.5936 40.7935 92.1486 41.2097C91.4239 41.4203 90.7403 41.7644 90.0052 41.9364C88.4195 42.3113 86.5948 41.9056 85.2481 42.8121C84.4976 43.3256 84.0479 44.1422 83.6264 44.9383C83.2837 45.594 82.9359 46.2488 82.5829 46.9027C82.015 47.9787 81.4367 49.0726 81.1977 50.2641C81.1474 50.5234 81.1165 50.786 81.1052 51.0499V51.0627C81.1052 51.1577 81.1052 51.2528 81.1052 51.3478V51.4685C81.1052 51.5583 81.1052 51.6456 81.1206 51.7252C81.136 51.8049 81.1334 51.8305 81.1411 51.8845C81.1489 51.9384 81.1617 52.0591 81.1771 52.1412C81.1925 52.2234 81.2234 52.3672 81.2542 52.4802C81.2671 52.529 81.2851 52.5752 81.3005 52.6214C81.3262 52.7088 81.357 52.7935 81.3904 52.8782C81.4084 52.9219 81.4264 52.9681 81.447 53.0118C81.4855 53.1016 81.5318 53.189 81.5781 53.2686C81.5986 53.3045 81.614 53.3379 81.6346 53.3713C81.7063 53.4907 81.7853 53.6056 81.871 53.7154C82.421 54.401 83.2306 54.8375 83.8294 55.4795C83.8294 55.5052 83.8294 55.5309 83.8294 55.554C83.8294 55.6259 83.8294 55.6952 83.8294 55.7671C83.8612 57.1989 84.2426 58.6012 84.9404 59.852C85.6383 61.1029 86.6314 62.1645 87.8335 62.9444C87.8335 63.042 87.8464 63.1421 87.8515 63.2397C87.9016 64.002 87.8922 64.767 87.8233 65.5277C87.7186 65.4046 87.5876 65.3065 87.4399 65.2407C87.2922 65.1749 87.1316 65.1431 86.97 65.1477C86.8596 65.1423 86.7489 65.1518 86.641 65.1759L86.6179 65.1579V65.1811C86.0525 65.3197 85.356 65.9078 84.6904 67.5795C84.6904 67.5795 82.6652 69.8598 81.1232 69.7648C79.5811 69.6698 75.6772 72.1375 75.6772 72.1375C75.6772 72.1375 71.8684 74.6078 71.0512 77.1244C70.5943 78.5514 70.0467 79.9477 69.4115 81.3049L64.7031 90.9987L63.8345 98.6896C63.8345 98.6896 64.3151 102.11 64.22 102.631C64.1249 103.153 66.1963 107.854 66.1963 107.854C66.1963 107.854 73.0404 119.87 75.8366 120.486L76.037 120.345C76.1567 120.407 76.2836 120.455 76.4148 120.486L76.9905 120.08C77.0251 120.532 77.0104 120.987 76.9468 121.436C76.5613 122.622 77.0908 130.365 77.7641 131.882C78.4375 133.4 78.1984 153.299 78.1984 153.299L78.1034 155.055C78.1034 155.055 78.1034 155.112 78.1265 155.209L78.1034 155.625L78.1727 155.661C78.2448 156.218 78.2213 156.784 78.1034 157.333C77.8618 158.103 77.7641 160.281 77.7641 160.281C77.7641 160.281 75.8391 172.576 76.7515 175.046C77.6639 177.517 78.44 180.223 78.44 180.223C78.44 180.223 79.4038 183.305 78.4863 183.831C77.5688 184.357 74.9602 185.241 75.4973 186.525C75.9856 187.711 77.8386 190.89 78.1136 191.355L78.0905 191.599L77.7127 195.69C77.7739 196.23 77.9205 196.757 78.147 197.251C78.5608 198.142 79.3652 199.066 80.8944 198.966C81.1514 198.948 81.4496 198.917 81.7374 198.879C84.5362 198.504 87.9826 197.256 87.9826 197.256C87.8037 197.142 87.6396 197.007 87.4943 196.853C87.3567 196.72 87.2477 196.56 87.1739 196.383C87.1001 196.207 87.0631 196.017 87.0651 195.826C87.1062 195.081 85.7107 191.532 85.3637 190.659C85.3098 190.533 85.2815 190.461 85.2815 190.461C85.2815 190.461 88.4632 187.138 87.9338 184.193C87.9338 184.193 84.4128 182.139 85.5719 181.011C86.731 179.884 88.8024 176.646 88.8024 176.646C88.8024 176.646 88.8975 164.538 88.8024 162.731C88.7033 161.476 88.7628 160.214 88.9798 158.974C89.0183 158.786 89.0646 158.604 89.1134 158.424C90.7164 158.663 92.3346 158.786 93.9554 158.791C94.5465 158.791 95.1479 158.791 95.7544 158.755C95.7544 158.927 95.7621 159.111 95.7775 159.31C95.9112 162.309 96.1605 167.568 96.3635 169.523C96.6514 172.324 98.2422 179.874 98.2422 179.874C98.2422 179.874 95.207 181.82 98.7716 186.617C98.7716 186.617 98.7716 188.356 98.5352 188.607C98.2828 189.43 98.0794 190.267 97.9261 191.114C97.777 192.017 97.7154 192.932 97.9569 193.407C98.5352 194.542 102.005 194.449 102.005 194.449L102.09 194.434C102.745 194.366 103.407 194.429 104.037 194.619C104.667 194.809 105.254 195.122 105.762 195.541C107.081 196.599 112.084 196.134 114.793 195.797C115.855 195.664 116.564 195.541 116.564 195.541C116.598 195.421 116.611 195.295 116.6 195.171C116.572 194.506 116.05 193.047 112.514 191.745C112.514 191.745 109.188 189.511 109.234 187.565H109.165H108.779C109.06 187.549 109.239 187.565 109.239 187.565C109.239 187.565 107.936 182.814 108.468 182.429C109 182.044 107.407 176.78 107.407 176.78C107.407 176.78 106.495 167.946 106.446 167.327C106.448 166.796 106.528 166.268 106.685 165.761L106.446 160.918C106.446 160.918 106.4 159.308 106.446 158.784C106.438 158.329 106.401 157.875 106.335 157.425C106.312 157.245 106.289 157.058 106.263 156.873C107.51 156.557 108.319 156.265 108.319 156.265L108.175 139.406C109.234 137.352 109.43 132.845 109.424 129.648C109.424 127.594 109.332 126.074 109.332 126.074L110.779 123.714C110.779 123.714 111.113 120.889 110.584 120.27C110.35 119.99 110.455 119.7 110.648 119.461C110.748 119.382 110.854 119.31 110.964 119.246C110.964 119.246 110.949 119.223 110.931 119.189C111.032 119.105 111.139 119.028 111.252 118.961C111.252 118.961 110.738 118.165 111.198 117.828C111.63 118.121 112.015 118.342 112.308 118.522C112.288 118.709 112.267 118.817 112.267 118.817L112.39 118.56C112.673 118.719 112.845 118.817 112.845 118.817C112.845 118.817 115.112 114.305 115.063 113.64C115.014 112.975 116.605 110.173 116.605 110.173C116.605 110.173 116.798 108.702 117.667 108.086C118.535 107.469 118.34 103.004 118.34 103.004C118.34 103.004 118.582 100.677 119.16 99.727C119.738 98.7769 118.633 97.4955 118.633 97.4955ZM75.2609 95.5157L75.3046 96.5916C75.0476 96.1782 74.8625 95.8803 74.8625 95.8803L75.2609 95.5157Z" fill="url(#paint0_linear)"/>
<path d="M112.969 116.868L112.413 119.23C112.413 119.23 107.967 116.963 107.165 114.082C106.364 111.2 108.507 110.107 108.507 110.107L112.65 111.86L112.969 116.868Z" fill="white"/>
<path opacity="0.1" d="M112.969 116.868L112.413 119.23C112.413 119.23 107.967 116.963 107.165 114.082C106.364 111.2 108.507 110.107 108.507 110.107L112.65 111.86L112.969 116.868Z" fill="black"/>
<path d="M88.0162 197.271C88.0162 197.271 83.9041 198.781 81.0771 198.971C79.5762 199.071 78.7872 198.152 78.3811 197.266C78.1593 196.774 78.0162 196.249 77.957 195.713L78.3245 191.643L78.5199 189.475L84.5261 187.917L85.3767 190.515L85.4564 190.713C85.7982 191.581 87.1681 195.112 87.1269 195.849C87.1253 196.037 87.1617 196.225 87.2341 196.399C87.3066 196.573 87.4135 196.731 87.5484 196.863C87.6863 197.018 87.8435 197.156 88.0162 197.271Z" fill="white"/>
<path d="M116.104 195.202C116.115 195.325 116.102 195.45 116.068 195.569C116.068 195.569 107.274 197.035 105.475 195.569C104.967 195.141 104.376 194.823 103.739 194.636C103.101 194.45 102.432 194.398 101.774 194.485C101.774 194.485 98.371 194.578 97.803 193.458C97.5666 192.988 97.6283 192.077 97.7748 191.178C97.9242 190.336 98.1233 189.503 98.371 188.684L98.5072 188.576L99.3168 187.927L108.795 187.647H108.867C108.821 189.583 112.085 191.804 112.085 191.804C115.552 193.088 116.063 194.539 116.104 195.202Z" fill="white"/>
<path opacity="0.1" d="M116.104 195.202C116.113 195.325 116.1 195.45 116.066 195.569C116.066 195.569 107.274 197.035 105.475 195.569C104.968 195.141 104.377 194.823 103.74 194.637C103.103 194.45 102.434 194.399 101.776 194.485C101.776 194.485 98.3711 194.578 97.8057 193.458C97.5693 192.986 97.6284 192.077 97.7749 191.178C99.0856 191.309 101.154 191.635 101.967 192.413C103.195 193.597 105.277 194.778 106.554 194.87C107.554 194.935 113.534 195.125 116.104 195.202Z" fill="black"/>
<path opacity="0.1" d="M88.0163 197.271C88.0163 197.271 83.9042 198.781 81.0772 198.971C79.5763 199.072 78.7873 198.152 78.3838 197.264C79.4298 197.616 80.8819 197.985 81.6452 197.646C82.5498 197.246 85.7572 196.986 87.5563 196.876C87.6932 197.026 87.8476 197.159 88.0163 197.271Z" fill="black"/>
<path d="M94.1173 75.5914C90.7249 74.274 86.3609 69.9214 87.4506 67.8877C87.6926 67.3744 87.8365 66.8205 87.8747 66.2545C87.9448 65.4861 87.9551 64.7134 87.9055 63.9434C87.8291 62.6823 87.6772 61.4269 87.4506 60.184C87.4506 60.184 98.0418 60.4228 97.425 61.9815C97.2451 62.4386 97.2168 63.2321 97.2656 64.1205C97.3144 65.009 97.4429 66.0131 97.5766 66.8631C97.7616 68.0289 97.9467 68.9174 97.9467 68.9174C97.9467 68.9174 97.299 69.8239 96.9187 69.8727C96.5383 69.9214 98.985 77.4685 94.1173 75.5914Z" fill="#CF6F80"/>
<path opacity="0.1" d="M85.4488 190.713L85.3691 190.8C82.2028 186.974 78.3734 191.743 78.3734 191.743L78.3169 191.643L78.5122 189.475L84.5184 187.917L85.3691 190.515L85.4488 190.713Z" fill="black"/>
<path opacity="0.1" d="M108.87 187.917C108.87 187.917 106.557 187.868 105.323 188.957C104.09 190.045 98.127 189.193 98.384 188.957C98.4602 188.839 98.5061 188.705 98.5177 188.566L99.3272 187.917L108.806 187.637C108.842 187.809 108.87 187.917 108.87 187.917Z" fill="black"/>
<path d="M89.3888 157.869C89.2166 158.295 89.0857 158.736 88.9982 159.187C88.7839 160.421 88.7243 161.677 88.8208 162.926C88.9159 164.723 88.8208 176.769 88.8208 176.769C88.8208 176.769 86.7879 179.982 85.6545 181.114C84.5212 182.247 87.9676 184.28 87.9676 184.28C88.4816 187.208 85.3667 190.515 85.3667 190.515C82.2004 186.689 78.371 191.46 78.371 191.46C78.371 191.46 76.2893 187.865 75.7702 186.581C75.251 185.297 77.8031 184.409 78.7 183.887C79.597 183.366 78.6563 180.292 78.6563 180.292C78.6563 180.292 77.8982 177.599 76.9986 175.141C76.0991 172.684 77.9907 160.45 77.9907 160.45C77.9907 160.45 78.0883 158.278 78.3222 157.52C78.4402 156.974 78.4637 156.411 78.3916 155.856C78.3762 155.669 78.3582 155.512 78.3453 155.407C78.3325 155.302 78.3222 155.253 78.3222 155.253L78.3582 155.191L79.6432 152.798C79.6432 152.798 90.0056 156.362 89.3888 157.869Z" fill="#EC4794"/>
<path d="M108.869 187.634C108.869 187.634 106.556 187.585 105.323 188.661C104.089 189.737 98.1266 188.897 98.3836 188.661C98.6406 188.425 98.62 186.676 98.62 186.676C95.1222 181.905 98.106 179.969 98.106 179.969C98.106 179.969 96.5434 172.458 96.2607 169.672C96.0628 167.725 95.8187 162.494 95.6876 159.508C95.6311 158.224 95.5977 157.341 95.5977 157.341L98.4555 156.765L98.8231 156.691L105.716 155.309C105.716 155.309 105.906 156.593 106.035 157.644C106.099 158.092 106.135 158.544 106.143 158.997C106.096 159.51 106.143 161.118 106.143 161.118L106.376 165.938C106.224 166.443 106.145 166.968 106.143 167.497C106.189 168.11 107.086 176.898 107.086 176.898C107.086 176.898 108.646 182.141 108.114 182.519C107.582 182.896 108.869 187.634 108.869 187.634Z" fill="#EC4794"/>
<path opacity="0.1" d="M97.425 61.9815C97.2451 62.4386 97.2168 63.2321 97.2657 64.1205C95.847 64.9741 94.2162 65.4105 92.5605 65.3796C90.9047 65.3488 89.2913 64.8518 87.9056 63.9459C87.8293 62.684 87.6774 61.4277 87.4507 60.184C87.4507 60.184 98.0418 60.4176 97.425 61.9815Z" fill="black"/>
<path d="M101.519 56.3064C101.521 57.2318 101.375 58.1515 101.087 59.031C100.443 61.0015 99.1231 62.6811 97.3597 63.773C95.5962 64.8649 93.5032 65.2988 91.4506 64.9979C89.3979 64.6971 87.5178 63.6809 86.1425 62.129C84.7672 60.577 83.9852 58.5892 83.9349 56.517C83.9349 56.4451 83.9349 56.3783 83.9349 56.3064C83.9149 55.14 84.1276 53.9812 84.5606 52.8978C84.9935 51.8143 85.6381 50.8279 86.4566 49.9959C87.2751 49.164 88.2512 48.5032 89.328 48.0522C90.4048 47.6011 91.5607 47.3688 92.7283 47.3688C93.8959 47.3688 95.0518 47.6011 96.1286 48.0522C97.2054 48.5032 98.1815 49.164 99 49.9959C99.8185 50.8279 100.463 51.8143 100.896 52.8978C101.329 53.9812 101.542 55.14 101.522 56.3064H101.519Z" fill="#CF6F80"/>
<path opacity="0.1" d="M94.1173 75.5914C90.7249 74.274 86.3609 69.9214 87.4506 67.8876C87.6926 67.3744 87.8365 66.8205 87.8747 66.2545L92.5187 70.0678L95.3921 72.4226L97.5766 66.8656C97.7616 68.0314 97.9467 68.9199 97.9467 68.9199C97.9467 68.9199 97.299 69.8264 96.9187 69.8752C96.5383 69.924 98.985 77.4685 94.1173 75.5914Z" fill="black"/>
<path d="M106.127 92.4445L102.249 157.541L97.1912 157.872L84.0942 120.126L86.2428 75.314L86.6951 65.8461L92.5188 70.625L95.3947 72.9798L97.6435 67.261L101.825 70.9023L106.127 92.4445Z" fill="#EC4794"/>
<path opacity="0.1" d="M89.3887 157.87C89.2165 158.295 89.0857 158.736 88.9981 159.187C85.3178 158.619 81.7434 157.503 78.3941 155.877L78.3247 155.841L78.3478 155.427L78.3607 155.212L79.6457 152.818C79.6457 152.818 90.0056 156.362 89.3887 157.87Z" fill="black"/>
<path opacity="0.1" d="M98.5149 159.197C97.5741 159.357 96.6252 159.465 95.6725 159.521C95.6159 158.237 95.5825 157.353 95.5825 157.353L98.4404 156.778L98.5149 159.197Z" fill="black"/>
<path opacity="0.1" d="M106.019 157.656C104.192 158.131 101.37 158.666 98.8436 158.332L98.8076 156.704L105.7 155.322C105.7 155.322 105.891 156.593 106.019 157.656Z" fill="black"/>
<path opacity="0.1" d="M98.7978 158.63C88.2606 160.427 78.6101 155.273 78.6101 155.273L78.7026 153.527C78.7026 153.527 78.9416 133.731 78.2786 132.214C77.6155 130.696 77.0989 123 77.4741 121.819C77.8494 120.637 76.1043 102.924 76.1043 102.924L75.8216 95.734L65.4746 91.5457L70.1007 81.911C70.7255 80.5601 71.2629 79.1706 71.7095 77.751C72.514 75.2498 76.2482 72.7923 76.2482 72.7923C76.2482 72.7923 80.0776 70.3374 81.5913 70.4299C83.1051 70.5223 85.0892 68.2574 85.0892 68.2574C86.5541 64.5263 87.8802 66.2159 87.8802 66.2159C87.8802 66.3931 87.8802 66.2159 87.8083 66.768C87.2943 70.8639 96.1198 83.8061 96.2457 84.0346L97.0861 104.491L97.9368 130.378L98.7978 158.63Z" fill="black"/>
<path d="M98.515 158.63C87.9778 160.427 78.3247 155.273 78.3247 155.273L78.4198 153.527C78.4198 153.527 78.6588 133.731 77.9932 132.214C77.3275 130.696 76.8135 123 77.1913 121.819C77.5691 120.637 75.8215 102.924 75.8215 102.924L75.5362 95.7339L65.1841 91.5303L69.8102 81.8955C70.4336 80.5441 70.971 79.1547 71.419 77.7355C72.2209 75.2344 75.9577 72.7769 75.9577 72.7769C75.9577 72.7769 79.7871 70.322 81.2983 70.4144C82.8094 70.5069 84.7961 68.242 84.7961 68.242C86.2636 64.5108 87.8801 66.2005 87.8801 66.2005C87.8801 66.3777 87.7259 66.4573 87.8082 66.7526C88.939 70.7251 95.837 83.7906 95.9629 84.0192L96.8136 104.475L97.6643 130.362L98.515 158.63Z" fill="white"/>
<path opacity="0.1" d="M95.6748 84.6021C94.5414 84.1296 88.5378 77.281 88.5378 77.281V75.7223C88.3194 75.2087 87.0215 75.522 85.9678 75.8815L86.4201 66.4136L86.9341 66.8399C88.0598 70.8099 95.5438 84.3735 95.6748 84.6021Z" fill="black"/>
<path d="M95.9601 84.0346C94.8242 83.5621 88.8205 76.7135 88.8205 76.7135V75.1548C88.6021 74.6412 87.3042 74.9545 86.2505 75.314L86.7054 65.8461L87.2194 66.2724C88.3476 70.2424 95.8342 83.8086 95.9601 84.0346Z" fill="white"/>
<path opacity="0.1" d="M78.61 118.19C78.7514 118.19 85.9372 117.435 85.9372 117.435C85.9372 117.435 90.2883 125.984 90.003 128.064C89.7177 130.144 89.2012 131.985 87.451 131.659C85.7008 131.333 78.0317 131.916 78.0317 131.916L78.61 118.19Z" fill="black"/>
<path d="M78.3248 117.623C78.4662 117.623 85.652 116.868 85.652 116.868C85.652 116.868 90.0005 125.419 89.7178 127.496C89.4351 129.574 88.9134 131.418 87.1658 131.091C85.4182 130.765 77.7466 131.348 77.7466 131.348L78.3248 117.623Z" fill="white"/>
<path d="M83.7397 113.609C83.7397 113.609 90.3344 117.15 90.4757 118.231C90.6171 119.312 87.1193 117.759 86.3637 117.571C85.8663 117.452 85.3601 117.373 84.8499 117.335L79.8101 117.471L83.7397 113.609Z" fill="#CF6F80"/>
<path opacity="0.1" d="M93.835 85.0438C94.2182 85.0438 94.5289 84.7333 94.5289 84.3504C94.5289 83.9675 94.2182 83.6571 93.835 83.6571C93.4518 83.6571 93.1411 83.9675 93.1411 84.3504C93.1411 84.7333 93.4518 85.0438 93.835 85.0438Z" fill="black"/>
<path d="M93.835 84.7613C94.2182 84.7613 94.5289 84.4509 94.5289 84.068C94.5289 83.6851 94.2182 83.3746 93.835 83.3746C93.4518 83.3746 93.1411 83.6851 93.1411 84.068C93.1411 84.4509 93.4518 84.7613 93.835 84.7613Z" fill="#3F3D56"/>
<path opacity="0.1" d="M95.1124 115.057C95.4956 115.057 95.8063 114.747 95.8063 114.364C95.8063 113.981 95.4956 113.671 95.1124 113.671C94.7291 113.671 94.4185 113.981 94.4185 114.364C94.4185 114.747 94.7291 115.057 95.1124 115.057Z" fill="black"/>
<path d="M95.1124 114.772C95.4956 114.772 95.8063 114.462 95.8063 114.079C95.8063 113.696 95.4956 113.386 95.1124 113.386C94.7291 113.386 94.4185 113.696 94.4185 114.079C94.4185 114.462 94.7291 114.772 95.1124 114.772Z" fill="#3F3D56"/>
<path opacity="0.1" d="M94.5259 100.051C94.9092 100.051 95.2199 99.7402 95.2199 99.3573C95.2199 98.9744 94.9092 98.6639 94.5259 98.6639C94.1427 98.6639 93.832 98.9744 93.832 99.3573C93.832 99.7402 94.1427 100.051 94.5259 100.051Z" fill="black"/>
<path d="M94.5259 99.7681C94.9092 99.7681 95.2199 99.4577 95.2199 99.0748C95.2199 98.6919 94.9092 98.3815 94.5259 98.3815C94.1427 98.3815 93.832 98.6919 93.832 99.0748C93.832 99.4577 94.1427 99.7681 94.5259 99.7681Z" fill="#3F3D56"/>
<path d="M110.522 117.191C110.522 117.191 110.995 117.9 110.522 118.231C110.049 118.563 110.568 119.364 110.568 119.364C110.568 119.364 109.389 120.055 109.908 120.676C110.427 121.297 110.098 124.104 110.098 124.104L108.679 126.451C108.679 126.451 108.764 127.964 108.769 130.008C108.769 133.197 108.582 137.681 107.543 139.725L107.687 156.496C107.687 156.496 102.719 158.309 98.5611 157.757L97.9443 130.845C97.9443 130.845 98.8438 115.584 99.1754 112.656C99.3694 111.137 99.4484 109.604 99.4118 108.073C99.4118 108.073 99.2704 103.492 98.795 101.365C98.795 101.365 98.281 92.1543 98.2296 89.6044C98.2065 88.3847 98.2707 84.8255 98.3427 81.441C98.4223 77.7407 98.5123 74.2509 98.5123 74.2509L97.5742 66.8348C97.5742 66.8348 98.5123 66.7398 98.795 67.1173C98.9216 67.2355 99.0593 67.3412 99.2062 67.4331C100.825 68.5271 106.546 71.891 106.546 71.891C106.546 71.891 109.713 73.1493 110.471 74.952C111.229 76.7546 111.756 78.0334 112.123 78.547C112.491 79.0606 112.691 81.4744 112.691 81.4744C112.691 81.4744 113.781 85.9169 114.632 86.6693C115.482 87.4217 116.104 92.2083 116.104 92.2083L108.587 98.1144C108.587 98.1144 107.926 107.939 107.785 108.319C107.644 108.699 110.522 117.191 110.522 117.191Z" fill="white"/>
<path d="M110.807 117.191C110.807 117.191 111.278 117.9 110.807 118.231C110.337 118.563 110.851 119.364 110.851 119.364C110.851 119.364 109.679 120.062 110.193 120.684C110.707 121.305 110.383 124.112 110.383 124.112L108.965 126.459C108.965 126.459 109.049 127.971 109.057 130.015C109.057 133.205 108.869 137.688 107.831 139.732L107.973 156.503C107.973 156.503 102.997 158.316 98.8437 157.764L98.2295 130.853C98.2295 130.853 99.129 115.592 99.4606 112.664C99.6548 111.144 99.733 109.612 99.6944 108.08C99.6944 108.08 99.5531 103.499 99.0802 101.373C99.0802 101.373 98.5662 92.162 98.5122 89.6121C98.4891 88.3924 98.5559 84.8332 98.6253 81.4487C98.705 77.7484 98.7949 74.2586 98.7949 74.2586L97.5562 66.7424C97.5562 66.7424 98.7949 66.7424 99.0802 67.125C99.2056 67.2446 99.3435 67.3505 99.4914 67.4408C101.111 68.5348 106.834 71.8987 106.834 71.8987C106.834 71.8987 109.998 73.157 110.756 74.9597C111.514 76.7623 112.041 78.0411 112.411 78.5547C112.781 79.0683 112.976 81.4821 112.976 81.4821C112.976 81.4821 114.066 85.9246 114.917 86.677C115.767 87.4294 116.382 92.2057 116.382 92.2057L108.864 98.1119C108.864 98.1119 108.204 107.937 108.06 108.317C107.916 108.697 110.807 117.191 110.807 117.191Z" fill="white"/>
<path opacity="0.1" d="M101.804 76.4388L102.483 78.4161L98.9104 82.0111C98.9901 78.3133 99.0801 74.821 99.0801 74.821L97.8413 67.3047C97.8413 67.3047 99.0801 67.3047 99.3653 67.6874C99.4904 67.8066 99.6283 67.9117 99.7765 68.0006L102.814 76.7572L101.804 76.4388Z" fill="black"/>
<path d="M101.519 75.8712L102.2 77.8485L98.6279 81.4436C98.7075 77.7432 98.7975 74.2534 98.7975 74.2534L97.5562 66.7372C97.5562 66.7372 98.7975 66.7372 99.0802 67.1198C99.2063 67.2387 99.344 67.3445 99.4914 67.4357L102.532 76.1896L101.519 75.8712Z" fill="white"/>
<path opacity="0.1" d="M101.519 56.3064C101.521 57.2318 101.375 58.1515 101.087 59.031C101.039 59.0385 100.989 59.0363 100.942 59.0244C100.894 59.0125 100.849 58.9911 100.81 58.9616C100.743 56.6505 99.6044 54.4806 98.2038 52.6343C97.8105 52.0769 97.3338 51.5832 96.7902 51.1706C96.2407 50.7582 95.5573 50.5651 94.873 50.6288C94.102 50.7341 93.4209 51.2579 92.6422 51.3247C91.6142 51.4094 90.6941 50.6981 89.6738 50.6622C89.259 50.6661 88.8498 50.7584 88.4736 50.9328C88.0973 51.1073 87.7626 51.3599 87.4918 51.6739C86.9558 52.3075 86.5576 53.0456 86.3225 53.8412C85.9184 55.0477 85.6983 56.3081 85.6697 57.5801C85.6568 58.2991 85.5874 59.2004 84.9192 59.4624C84.9695 58.9336 84.9094 58.4001 84.7426 57.8957C84.5758 57.3914 84.306 56.9271 83.9503 56.5324L83.9349 56.517C83.9349 56.4451 83.9349 56.3783 83.9349 56.3064C83.9149 55.14 84.1276 53.9812 84.5606 52.8978C84.9935 51.8143 85.6381 50.8279 86.4566 49.9959C87.2751 49.164 88.2512 48.5032 89.328 48.0522C90.4048 47.6011 91.5607 47.3688 92.7283 47.3688C93.8959 47.3688 95.0518 47.6011 96.1286 48.0522C97.2054 48.5032 98.1815 49.164 99 49.9959C99.8185 50.8279 100.463 51.8143 100.896 52.8978C101.329 53.9812 101.542 55.14 101.522 56.3064H101.519Z" fill="black"/>
<path d="M96.369 42.355C95.0335 41.7273 93.5145 41.6086 92.0975 42.0212C91.3856 42.2317 90.7149 42.5733 89.9927 42.7453C88.4507 43.1176 86.6516 42.7145 85.3281 43.6158C84.593 44.1294 84.151 44.9409 83.7398 45.7292L82.7118 47.6859C82.1515 48.7568 81.5861 49.8455 81.3522 51.0242C81.1183 52.2029 81.2597 53.5228 82.0076 54.4703C82.5524 55.1611 83.3568 55.5951 83.9479 56.2448C84.3021 56.6399 84.5707 57.1039 84.737 57.6077C84.9033 58.1114 84.9636 58.644 84.9143 59.1722C85.5851 58.9154 85.6493 58.0115 85.6647 57.2925C85.6934 56.0205 85.9134 54.7601 86.3175 53.5536C86.5521 52.7577 86.9504 52.0195 87.4869 51.3863C87.7579 51.0726 88.0926 50.8201 88.4688 50.6457C88.8451 50.4712 89.2541 50.3788 89.6689 50.3745C90.6969 50.4105 91.6195 51.1192 92.6373 51.0345C93.4083 50.9703 94.0919 50.4439 94.8681 50.3412C95.5524 50.2765 96.2363 50.4697 96.7853 50.883C97.3287 51.2949 97.8047 51.7887 98.1963 52.3467C99.5995 54.193 100.738 56.3577 100.805 58.674C101.095 58.8871 101.514 58.6098 101.658 58.2811C101.802 57.9524 101.807 57.5672 101.99 57.2539C102.2 56.8919 102.604 56.6993 102.92 56.4271C103.722 55.7363 103.922 54.5731 103.891 53.5177C103.861 52.4622 103.655 51.3914 103.855 50.354C103.976 49.7172 104.249 49.1214 104.398 48.4923C104.547 47.8631 104.565 47.157 104.213 46.6151C103.699 45.8191 102.617 45.6624 101.674 45.588C100.602 45.4955 99.6432 45.6136 98.9596 44.7123C98.6387 44.242 98.2775 43.8003 97.8801 43.3924C97.7439 43.2589 96.369 42.4115 96.369 42.355Z" fill="#512E4E"/>
<path opacity="0.1" d="M68.4348 96.5069L65.7491 91.5457L64.8984 99.2006C64.8984 99.2006 65.3713 102.601 65.2762 103.122C65.1811 103.643 67.214 108.317 67.214 108.317C67.214 108.317 73.9296 120.268 76.6718 120.884L85.9368 114.269L83.4798 111.152C83.4798 111.152 82.6292 110.82 82.4159 111.152C82.4159 111.152 77.854 103.309 77.3811 102.742C76.9082 102.174 77.0008 101.042 77.0008 101.042C77.0008 101.042 76.2914 100.287 76.5279 99.5781C76.7643 98.8694 75.158 96.4119 75.158 96.4119L76.623 95.0432L68.4348 96.5069Z" fill="black"/>
<path d="M65.8906 90.9808L65.1812 91.5457L64.3306 99.2006C64.3306 99.2006 64.8035 102.601 64.7084 103.122C64.6133 103.643 66.6488 108.317 66.6488 108.317C66.6488 108.317 73.3617 120.268 76.1039 120.884L85.3715 114.269L82.912 111.152C82.912 111.152 82.0613 110.82 81.848 111.152C81.848 111.152 77.2862 103.309 76.8133 102.742C76.3404 102.174 76.4355 101.042 76.4355 101.042C76.4355 101.042 75.7261 100.287 75.9626 99.5781C76.199 98.8694 74.5902 96.4119 74.5902 96.4119L76.0551 95.0432L65.8906 90.9808Z" fill="white"/>
<path opacity="0.1" d="M109.908 120.969C110.422 121.593 110.098 124.394 110.098 124.394L108.679 126.741C108.679 126.741 108.764 128.256 108.769 130.298L106.384 131.043C106.169 131.11 105.94 131.125 105.718 131.086C105.495 131.047 105.285 130.955 105.106 130.819C104.926 130.682 104.781 130.505 104.684 130.301C104.587 130.098 104.54 129.874 104.547 129.648L104.958 116.395L110.522 118.521C110.049 118.85 110.568 119.656 110.568 119.656C110.568 119.656 109.389 120.345 109.908 120.969Z" fill="black"/>
<path d="M110.193 120.684C110.707 121.308 110.383 124.112 110.383 124.112L108.964 126.459C108.964 126.459 109.049 127.971 109.057 130.015L106.628 130.773C106.417 130.839 106.193 130.853 105.976 130.814C105.758 130.776 105.553 130.686 105.377 130.553C105.201 130.419 105.059 130.245 104.964 130.046C104.869 129.847 104.823 129.628 104.829 129.407L105.243 116.113L110.81 118.239C110.334 118.568 110.853 119.372 110.853 119.372C110.853 119.372 109.679 120.062 110.193 120.684Z" fill="white"/>
<path d="M112.036 114.367C112.036 114.367 111.658 116.778 110.712 116.919C109.766 117.06 109.342 120.82 108.399 120.686C107.456 120.553 108.08 117.191 108.114 116.539C108.147 115.887 107.086 113.185 107.88 112.572C108.674 111.958 111.188 112.572 111.188 112.572L112.036 114.367Z" fill="#CF6F80"/>
<path opacity="0.1" d="M114.048 95.7982L115.832 92.2031C115.832 92.2031 116.541 94.9431 116.541 96.4068C116.541 97.8705 117.533 98.0143 117.533 98.0143C117.533 98.0143 118.62 99.2982 118.047 100.233C117.474 101.168 117.243 103.494 117.243 103.494C117.243 103.494 117.43 107.934 116.58 108.548C115.729 109.162 115.552 110.628 115.552 110.628C115.552 110.628 113.989 113.414 114.038 114.077C114.087 114.739 111.864 119.225 111.864 119.225C111.864 119.225 112.951 113.65 106.616 111.242C106.616 111.242 106.567 109.349 107.04 108.83C107.513 108.312 108.25 108.075 107.788 105.454C107.325 102.832 107.654 99.6988 107.654 99.0697C107.654 98.4406 109.073 94.5168 109.073 94.5168L114.048 95.7982Z" fill="black"/>
<path d="M114.819 91.6895L116.376 92.2031C116.376 92.2031 117.088 94.943 117.088 96.4068C117.088 97.8705 118.08 98.0143 118.08 98.0143C118.08 98.0143 119.168 99.2982 118.594 100.233C118.021 101.168 117.793 103.494 117.793 103.494C117.793 103.494 117.98 107.934 117.13 108.548C116.279 109.162 116.089 110.628 116.089 110.628C116.089 110.628 114.529 113.414 114.577 114.076C114.626 114.739 112.401 119.225 112.401 119.225C112.401 119.225 113.49 113.65 107.153 111.242C107.153 111.242 107.106 109.349 107.579 108.83C108.052 108.312 108.79 108.075 108.327 105.453C107.865 102.832 108.193 99.6988 108.193 99.0697C108.193 98.4405 109.612 94.5168 109.612 94.5168L114.819 91.6895Z" fill="white"/>
<path opacity="0.1" d="M80.4189 184.871C80.4189 184.871 82.9016 183.312 84.531 184.445C86.1604 185.577 80.4189 184.871 80.4189 184.871Z" fill="black"/>
<path opacity="0.1" d="M99.71 180.051C99.71 180.051 101.907 179.769 103.753 181.754C105.598 183.739 99.71 180.051 99.71 180.051Z" fill="black"/>
<g opacity="0.1">
<path opacity="0.1" d="M102.925 55.8647C102.609 56.1369 102.203 56.3321 101.992 56.6942C101.812 57.0049 101.807 57.3875 101.663 57.7213C101.519 58.0552 101.1 58.3274 100.81 58.1168C100.743 55.8057 99.6018 53.6358 98.2011 51.7869C97.8095 51.2289 97.3335 50.7351 96.7902 50.3232C96.2401 49.91 95.5555 49.7168 94.8704 49.7814C94.0994 49.8867 93.4209 50.4105 92.6421 50.4747C91.6141 50.562 90.6915 49.8507 89.6712 49.8148C89.2565 49.8189 88.8476 49.9115 88.4717 50.0865C88.0958 50.2614 87.7617 50.5146 87.4918 50.8291C86.9553 51.4614 86.557 52.1987 86.3224 52.9938C85.9186 54.2004 85.6985 55.4608 85.6696 56.7327C85.6542 57.4491 85.5874 58.3428 84.9243 58.6098C84.9398 58.7995 84.9398 58.9902 84.9243 59.1799C85.5925 58.9231 85.6594 58.0192 85.6748 57.3002C85.7034 56.0282 85.9235 54.7678 86.3276 53.5613C86.5621 52.7654 86.9604 52.0273 87.4969 51.394C87.7674 51.0804 88.1017 50.8279 88.4775 50.6535C88.8533 50.479 89.262 50.3866 89.6763 50.3823C90.7043 50.4182 91.6296 51.127 92.6473 51.0422C93.4183 50.978 94.1019 50.4516 94.8755 50.3489C95.5607 50.2843 96.2453 50.4775 96.7953 50.8907C97.3387 51.3027 97.8147 51.7964 98.2063 52.3544C99.607 54.2007 100.748 56.3655 100.815 58.6817C101.105 58.8949 101.524 58.6175 101.668 58.2888C101.812 57.9601 101.817 57.575 101.997 57.2617C102.208 56.8996 102.614 56.707 102.93 56.4348C103.732 55.744 103.932 54.5808 103.901 53.5254C103.901 53.492 103.901 53.4586 103.901 53.4278C103.853 54.342 103.609 55.2741 102.925 55.8647Z" fill="black"/>
<path opacity="0.1" d="M83.953 55.6824C83.3619 55.0327 82.5549 54.5987 82.0126 53.9105C81.556 53.3013 81.2952 52.568 81.2647 51.8074C81.1838 52.7578 81.4495 53.7053 82.0126 54.4755C82.5549 55.1662 83.3619 55.6002 83.953 56.2499C84.5205 56.8854 84.8613 57.6909 84.9219 58.5405C84.9612 58.0234 84.8957 57.5038 84.7292 57.0127C84.5627 56.5216 84.2987 56.0691 83.953 55.6824Z" fill="black"/>
<path opacity="0.1" d="M104.403 47.9299C104.251 48.559 103.981 49.1573 103.858 49.7916C103.785 50.2155 103.758 50.646 103.778 51.0756C103.787 50.8308 103.814 50.5871 103.858 50.3463C103.981 49.7094 104.251 49.1137 104.403 48.4846C104.491 48.1376 104.52 47.7781 104.488 47.4214C104.472 47.5927 104.443 47.7627 104.403 47.9299Z" fill="black"/>
</g>
<path opacity="0.1" d="M34.1123 195.312C47.9429 195.312 59.1548 193.513 59.1548 191.293C59.1548 189.074 47.9429 187.275 34.1123 187.275C20.2817 187.275 9.06982 189.074 9.06982 191.293C9.06982 193.513 20.2817 195.312 34.1123 195.312Z" fill="#EC4794"/>
<path d="M34.919 114.308H33.3076V150.559H34.919V114.308Z" fill="#535461"/>
<path d="M45.045 150.448L44.9448 152.081L44.8009 154.393L44.7418 155.353L44.6004 157.664L44.5387 158.624L44.3948 160.936L42.7705 187.146C42.6999 188.274 42.2019 189.332 41.3778 190.106C40.5537 190.88 39.4655 191.311 38.3346 191.311H29.8895C28.7589 191.311 27.671 190.88 26.8473 190.106C26.0236 189.332 25.5261 188.274 25.4562 187.146L23.8396 160.918L23.6957 158.607L23.6366 157.646L23.4927 155.335L23.4335 154.375L23.2896 152.063L23.1868 150.43C23.169 150.116 23.2156 149.801 23.3238 149.506C23.432 149.21 23.5996 148.939 23.8161 148.711C24.0327 148.482 24.2938 148.3 24.5833 148.176C24.8729 148.052 25.1848 147.988 25.4999 147.988H42.7731C43.087 147.991 43.3971 148.058 43.6841 148.185C43.9711 148.312 44.229 148.496 44.4419 148.727C44.6548 148.958 44.8181 149.229 44.9219 149.525C45.0256 149.821 45.0675 150.135 45.045 150.448Z" fill="#3F3D56"/>
<path d="M44.9448 152.081L44.8008 154.385H23.4232L23.2793 152.081H44.9448Z" fill="#9D9CB5"/>
<path d="M44.7418 155.345L44.6005 157.651H23.6263L23.4824 155.345H44.7418Z" fill="#9D9CB5"/>
<path d="M44.5389 158.614L44.3975 160.918H23.8295L23.6855 158.614H44.5389Z" fill="#9D9CB5"/>
<path d="M20.8197 127.894C30.2029 134.679 34.1197 145.289 34.1197 145.289C34.1197 145.289 22.8115 144.902 13.4257 138.117C4.03989 131.333 0.130859 120.725 0.130859 120.725C0.130859 120.725 11.4339 121.11 20.8197 127.894Z" fill="#EC4794"/>
<path d="M0.123535 120.725C0.123535 120.725 11.8635 127.234 15.6286 132.624C19.3937 138.014 34.1201 145.289 34.1201 145.289" stroke="#535461" stroke-width="2" stroke-miterlimit="10"/>
<path d="M26.8777 114.228C31.9843 117.918 34.12 123.693 34.12 123.693C34.12 123.693 27.9648 123.483 22.8555 119.793C17.7463 116.103 15.6157 110.325 15.6157 110.325C15.6157 110.325 21.7684 110.535 26.8777 114.228Z" fill="#EC4794"/>
<path d="M15.6157 110.325C15.6157 110.325 22.0049 113.869 24.0532 116.801C26.1015 119.734 34.12 123.693 34.12 123.693" stroke="#535461" stroke-width="2" stroke-miterlimit="10"/>
<path d="M41.5345 123.401C35.6671 129.843 34.4258 138.264 34.4258 138.264C34.4258 138.264 42.6987 136.235 48.561 129.789C54.4233 123.344 55.6698 114.926 55.6698 114.926C55.6698 114.926 47.4019 116.958 41.5345 123.401Z" fill="#EC4794"/>
<path d="M55.6749 114.929C55.6749 114.929 48.0316 121.534 46.0886 126.084C44.1457 130.634 34.4258 138.264 34.4258 138.264" stroke="#535461" stroke-width="2" stroke-miterlimit="10"/>
<path d="M256.919 121.133C256.919 121.133 252.676 100.04 254.3 97.416C254.3 97.416 254.36 94.9765 254.262 91.8667C254.262 91.7486 254.262 91.6305 254.262 91.5098C254.548 91.7002 254.846 91.8717 255.154 92.0234C256.65 92.7916 258.368 93.0132 260.011 92.6499L258.726 91.2196C258.418 90.8781 258.096 90.5083 258.03 90.0564C257.963 89.6044 258.148 89.2012 258.307 88.7981C259.528 85.7166 259.592 81.8416 257.241 79.4894C255.254 77.5122 254.771 74.9597 252.615 73.1544C251.039 71.832 250.173 69.8932 249.356 68.0186C248.664 66.4342 247.968 64.837 247.572 63.1576C247.264 61.8454 247.14 60.487 246.716 59.2056C246.292 57.9242 245.498 56.6788 244.257 56.1061C243.815 55.9033 243.324 55.7877 242.92 55.5181C242.391 55.1611 242.072 54.5808 241.689 54.0723C239.744 51.5044 233.229 53.0169 230.145 54.0595C229.306 54.3221 228.53 54.7519 227.862 55.3229L227.891 55.2767C227.914 55.2382 227.942 55.1997 227.968 55.1611C227.63 55.4339 227.339 55.759 227.104 56.1241C226.655 56.8354 226.467 57.6648 226.092 58.4352C225.639 59.3468 223.123 61.8916 224.205 62.9162C224.281 62.985 224.368 63.0406 224.462 63.0805C224.868 63.2495 225.316 63.2941 225.747 63.2089L225.701 63.3194C225.332 64.2233 225.142 65.1907 225.143 66.1672C225.143 70.3862 228.626 73.8067 232.925 73.8067C233.734 73.8075 234.537 73.6836 235.308 73.4395C235.326 73.537 235.341 73.6346 235.359 73.7322C235.359 73.7707 235.372 73.8092 235.377 73.8478L235.241 74.0378C235.234 74.0261 235.226 74.0149 235.218 74.0044L231.183 79.6384C230.566 80.0724 227.014 82.6403 226.814 84.5662C226.603 86.6744 226.392 89.1422 226.392 89.1422L226.364 89.6712C226.188 89.8184 225.982 89.9257 225.76 89.9855C225.538 90.0454 225.306 90.0564 225.079 90.0178C223.82 89.8124 223.82 94.6401 223.82 94.6401C223.82 94.6401 222.982 95.4104 222.406 94.7428C221.831 94.0751 220.309 96.3375 220.309 96.3375L210.774 96.7483L210.556 96.7612L210.042 95.1716C209.986 95.004 209.867 94.8649 209.71 94.7846C209.552 94.7043 209.37 94.6893 209.201 94.7428C209.162 94.7559 209.123 94.7722 209.086 94.7916L209.05 94.8121L208.983 94.8583L208.95 94.8892C208.931 94.9059 208.914 94.9239 208.898 94.9431L208.867 94.979L208.852 94.9944C208.792 95.0764 208.753 95.1712 208.737 95.2711C208.721 95.371 208.729 95.4732 208.759 95.5696L209.201 96.9332C207.361 97.303 205.48 98.3456 207.014 101.216L199.237 99.781L201.753 101.892L214.742 104.57C214.57 104.878 214.683 105.325 215.22 105.954C217.533 108.669 221.748 109.406 223.445 109.596C223.893 110.597 224.452 111.544 225.113 112.42L224.966 115.124C224.966 115.124 220.671 135.734 219.885 136.779C220.282 136.33 220.645 135.852 220.972 135.349C219.726 139.584 217.983 145.379 217.526 146.247C216.791 147.634 216.11 153.245 216.947 153.604C217.204 153.715 217.94 153.661 218.988 153.581V154.046L218.942 171.659C218.942 171.659 219.153 182.462 218.574 183.492C217.996 184.522 217.842 186.681 217.842 186.681C217.842 186.681 215.529 190.942 213.696 192.654C213.684 192.668 213.67 192.68 213.655 192.69L213.599 192.29C213.599 192.29 211.396 195.068 206.523 194.912C206.523 194.912 203.591 196.817 207.939 196.92C212.288 197.022 217.842 196.766 217.842 196.766C217.842 196.766 221.72 190.859 224.969 191.63V196.106H225.963V191.558C226.424 191.254 226.819 190.861 227.124 190.4C227.428 189.94 227.636 189.422 227.734 188.88C227.819 188.32 227.757 187.748 227.553 187.219C227.349 186.691 227.011 186.225 226.572 185.867C226.375 185.689 226.217 185.472 226.108 185.23C225.998 184.988 225.94 184.726 225.937 184.46L225.902 184.491C225.902 184.401 225.878 184.309 225.868 184.214C225.583 181.903 225.226 177.134 226.487 173.606C228.217 168.768 228.741 162.03 227.482 158.018C227.076 156.736 226.742 155.432 226.482 154.113C226.452 153.946 226.423 153.787 226.398 153.638C227.258 153.754 228.111 153.926 228.95 154.151C231.867 154.955 238.248 155.104 243.697 155.06C243.709 155.209 243.725 155.366 243.743 155.522C243.84 156.611 244.043 157.688 244.349 158.737C245.033 160.792 245.346 169.849 245.346 169.849C245.346 169.849 246.228 177.296 245.747 180.326C245.49 182.01 245.233 183.703 245.087 185.403V185.436C245.087 185.436 243.643 189.545 242.586 191.776C242.561 191.833 242.532 191.889 242.507 191.943C242.225 191.969 241.948 192.03 241.682 192.125C241.682 192.125 240.265 194.95 238.855 195.417C237.444 195.885 237.911 197.423 241.106 196.858C244.3 196.293 249.124 195.831 249.124 195.831L249.333 192.95L250.314 191.722L250.057 194.596L251.103 194.39L250.965 190.895L252.571 188.887C252.571 188.887 254.511 187.162 251.628 183.767V183.841C251.597 183.793 251.569 183.741 251.535 183.692V183.677C251.057 182.937 250.677 181.558 251.373 179.111C252.633 174.689 253.365 170.676 253.365 170.676C253.365 170.676 256.177 159.924 252.797 154.837H252.946C252.6 154.121 252.355 153.36 252.219 152.577C252.202 152.485 252.186 152.39 252.172 152.292C254.673 152.148 257.128 151.696 259.13 150.721C259.122 150.71 257.917 125.196 256.919 121.133ZM225.172 103.338V103.389L224.658 103.415L225.172 103.338ZM223.409 103.582C223.324 103.6 223.245 103.638 223.177 103.692C222.956 104.004 222.818 104.367 222.774 104.747L221.972 104.568C221.972 104.568 221.409 104.447 220.6 104.311L220.217 103.926C221.27 103.838 222.365 103.71 223.409 103.582Z" fill="url(#paint1_linear)"/>
<path d="M249.939 190.931L249.633 194.57L250.659 194.365L250.505 190.418L249.939 190.931Z" fill="#1D2366"/>
<path d="M226.544 173.654C225.308 177.172 225.658 181.921 225.935 184.226C226.038 185.079 226.133 185.598 226.133 185.598C226.133 185.598 224.285 189.804 224.131 189.963C223.977 190.122 218.693 193.345 218.693 193.345L215 195.5C215 195.5 211.253 193.859 213.049 193.294C213.416 193.147 213.747 192.921 214.018 192.634C215.817 190.926 218.076 186.681 218.076 186.681C218.076 186.681 218.23 184.527 218.796 183.502C219.361 182.478 219.155 171.711 219.155 171.711L219.199 154.159V151.871L226.228 151.922C226.272 152.699 226.374 153.471 226.531 154.233C226.784 155.549 227.111 156.848 227.511 158.126C228.749 162.13 228.235 168.834 226.544 173.654Z" fill="#FFB0B1"/>
<path opacity="0.1" d="M226.133 185.598C226.133 185.598 224.285 189.804 224.131 189.963C223.977 190.122 218.693 193.345 218.693 193.345L215 195.5C215 195.5 211.253 193.859 213.049 193.294C213.416 193.147 213.747 192.921 214.018 192.634L214.177 193.756L215.408 193.705L225.945 184.232C226.038 185.079 226.133 185.598 226.133 185.598Z" fill="black"/>
<path d="M226.005 184.47L215.408 194.008L214.177 194.059L213.92 192.261C213.92 192.261 211.767 195.03 206.981 194.876C206.981 194.876 204.108 196.773 208.366 196.876C212.625 196.979 218.063 196.722 218.063 196.722C218.063 196.722 221.862 190.816 225.041 191.586V196.047H226.017V191.545C226.472 191.24 226.859 190.846 227.157 190.387C227.454 189.928 227.656 189.413 227.75 188.874C227.834 188.319 227.774 187.752 227.576 187.226C227.377 186.701 227.047 186.236 226.616 185.875C226.424 185.695 226.27 185.477 226.165 185.236C226.06 184.994 226.005 184.734 226.005 184.47Z" fill="#1D2366"/>
<path d="M250.916 179.139C250.232 181.579 250.605 182.953 251.073 183.69V183.705C251.673 184.615 252.09 185.633 252.301 186.702L252.342 186.933L247.521 193.956L244.905 194.983C244.905 194.983 240.697 193.548 241.466 193.137C241.659 193.037 241.959 192.503 242.304 191.766C243.332 189.545 244.75 185.446 244.75 185.446V185.413C244.899 183.721 245.136 182.033 245.398 180.354C245.868 177.332 245.005 169.913 245.005 169.913C245.005 169.913 244.696 160.892 244.028 158.84C243.726 157.797 243.526 156.727 243.429 155.646C243.291 154.362 243.26 153.304 243.26 153.304C243.26 153.304 246.03 149.452 251.109 153.612C251.515 153.944 251.872 154.331 252.17 154.762C255.678 159.749 252.854 170.735 252.854 170.735C252.854 170.735 252.147 174.73 250.916 179.139Z" fill="#FFB0B1"/>
<path opacity="0.1" d="M252.35 186.933L247.529 193.956L244.912 194.983C244.912 194.983 240.705 193.548 241.474 193.137C241.666 193.037 241.967 192.503 242.311 191.766C244.093 191.75 245.015 193.445 245.015 193.445L247.272 193.086C247.272 193.086 250.248 187.241 250.916 186.884C251.584 186.527 251.019 184.216 251.019 184.216V183.628C251.037 183.649 251.052 183.672 251.073 183.692V183.708C251.673 184.618 252.09 185.636 252.301 186.705L252.35 186.933Z" fill="black"/>
<path d="M245.169 193.597C245.169 193.597 243.884 191.239 241.422 192.11C241.422 192.11 240.037 194.935 238.651 195.392C237.266 195.849 237.729 197.39 240.859 196.827C243.989 196.265 248.708 195.8 248.708 195.8L248.914 192.927L252.095 188.877C252.095 188.877 253.992 187.159 251.17 183.777V184.365C251.17 184.365 251.736 186.676 251.067 187.033C250.399 187.39 247.433 193.237 247.433 193.237L245.169 193.597Z" fill="#1D2366"/>
<path opacity="0.1" d="M226.235 151.917C226.28 152.694 226.381 153.466 226.539 154.228C223.645 153.805 220.959 154.015 219.199 154.154V151.866L226.235 151.917Z" fill="black"/>
<path opacity="0.1" d="M252.455 155.402C252.455 155.402 248.343 155.602 243.44 155.643C243.301 154.359 243.27 153.301 243.27 153.301C243.27 153.301 246.041 149.449 251.119 153.609C251.525 153.941 251.882 154.328 252.18 154.76C252.26 154.979 252.352 155.193 252.455 155.402Z" fill="black"/>
<path d="M252.455 154.939C252.455 154.939 234.444 155.81 228.955 154.272C223.465 152.734 218.024 154.066 217.204 153.709C216.385 153.353 217.05 147.762 217.77 146.378C218.489 144.994 222.437 130.996 222.437 130.996L226.236 111.208L230.237 110.107L230.52 110.027L237.492 108.106L242.602 106.696C242.602 106.696 252.761 146.327 251.89 149.249C251.573 150.368 251.522 151.545 251.741 152.687C251.874 153.467 252.114 154.225 252.455 154.939Z" fill="#1D2366"/>
<path d="M212.995 97.6753C212.995 97.6753 209.397 101.527 212.121 103.674C214.845 105.821 216.637 103.879 216.637 103.879L212.995 97.6753Z" fill="#C7DAF5"/>
<path opacity="0.1" d="M212.995 97.6753C212.995 97.6753 209.397 101.527 212.121 103.674C214.845 105.821 216.637 103.879 216.637 103.879L212.995 97.6753Z" fill="black"/>
<path d="M242.064 72.3507C242.064 72.3507 241.643 72.7512 241.008 73.3419C240.104 74.1867 238.765 75.4219 237.577 76.4567C235.932 77.887 234.575 78.9373 235.061 78.0411C235.547 77.1449 235.454 75.5836 235.213 74.1225C235.195 74.0249 235.179 73.9273 235.161 73.8323C234.961 72.7592 234.696 71.6993 234.367 70.6584C234.367 70.6584 237.025 67.2277 238.495 65.8744C239.042 65.3608 239.425 65.1503 239.448 65.5072C239.474 65.9874 239.834 67.0479 240.281 68.1727C240.294 68.2086 240.307 68.242 240.322 68.278C240.62 69.0483 240.957 69.8392 241.252 70.5223C241.705 71.57 242.064 72.3507 242.064 72.3507Z" fill="#FFB0B1"/>
<path opacity="0.1" d="M240.322 68.2779C240.072 69.62 239.466 70.8705 238.568 71.8986C237.669 72.9267 236.51 73.6947 235.213 74.1225C235.008 72.9503 234.726 71.793 234.367 70.6584C234.367 70.6584 239.371 64.2001 239.448 65.5072C239.466 66.0028 239.857 67.1018 240.322 68.2779Z" fill="black"/>
<path opacity="0.1" d="M234.714 75.8481L235.362 74.9365C235.362 74.9365 235.791 77.5506 237.369 76.3977C238.947 75.2447 239.024 85.0746 239.024 85.0746L237.33 110.376L225.092 109.644L225.439 97.4185L226.824 91.2555L230.25 82.2961L232.288 79.3353L234.714 75.8481Z" fill="black"/>
<path d="M239.024 85.2312L237.482 108.109L237.32 110.533L230.497 110.124L230.24 110.109L225.1 109.801L225.447 97.5726L226.832 91.4096L230.258 82.4502L232.296 79.4894L234.722 75.9894L235.369 75.0803C235.369 75.0803 235.799 77.6944 237.377 76.5415L237.41 76.5183C238.952 75.5425 239.024 85.2312 239.024 85.2312Z" fill="#1D2366"/>
<path d="M227.004 89.268C227.004 89.268 226.39 90.552 225.156 90.344C223.923 90.136 223.925 94.9662 223.925 94.9662C223.925 94.9662 223.106 95.7366 222.54 95.0689C221.975 94.4012 220.484 96.6584 220.484 96.6584L211.145 97.0693C211.145 97.0693 215.3 98.967 214.486 104.709C214.486 104.709 228.595 103.836 229.058 102.503C229.52 101.17 227.004 89.268 227.004 89.268Z" fill="white"/>
<path opacity="0.03" d="M227.004 89.268C227.004 89.268 226.39 90.552 225.156 90.344C223.923 90.136 223.925 94.9662 223.925 94.9662C223.925 94.9662 223.106 95.7366 222.54 95.0689C221.975 94.4012 220.484 96.6584 220.484 96.6584L211.145 97.0693C211.145 97.0693 215.3 98.967 214.486 104.709C214.486 104.709 228.595 103.836 229.058 102.503C229.52 101.17 227.004 89.268 227.004 89.268Z" fill="black"/>
<path d="M199.862 100.087L202.324 102.187L222.591 106.442L220.078 103.879L199.862 100.087Z" fill="white"/>
<path d="M234.753 76.657C234.416 77.1706 233.452 79.8001 232.648 82.0959C231.977 84.0089 231.417 85.6909 231.417 85.6909C231.417 85.6909 230.109 94.2009 229.441 95.7391C228.772 97.2773 229.135 103.276 229.135 103.276L226.644 118.09C226.644 118.09 225.516 125.73 223.774 130.293C222.054 134.784 220.14 136.89 220.081 136.957C220.852 135.914 225.054 115.386 225.054 115.386L226.441 89.4965C226.441 89.4965 226.644 87.0365 226.85 84.9334C227.056 82.8303 231.219 79.9594 231.219 79.9594L235.234 74.256C235.637 74.7953 235.367 75.7352 234.753 76.657Z" fill="white"/>
<path d="M224.285 109.929C224.285 109.929 218.374 109.673 215.511 106.237C212.648 102.801 222.129 104.865 222.129 104.865L224.593 105.43L224.285 109.929Z" fill="#FFB0B1"/>
<path opacity="0.1" d="M251.89 149.252C251.574 150.371 251.522 151.548 251.741 152.69C245.293 153.147 238.395 151.406 238.395 151.406C237.11 152.587 233.725 154.328 233.725 154.328L231.88 131.474C230.7 128.393 230.237 112.248 230.237 112.248C230.237 112.248 230.343 111.403 230.494 110.137C230.494 110.107 230.494 110.073 230.507 110.042C230.967 106.506 231.88 99.8683 232.327 98.9721C232.944 97.7395 230.43 94.4603 230.43 94.4603L231.574 84.7151L231.713 83.539C234.123 82.463 235.971 79.0272 235.971 79.0272L237.39 76.544C238.932 75.5554 239.011 85.2441 239.011 85.2441L237.469 108.122L242.579 106.712C242.579 106.712 252.761 146.329 251.89 149.252Z" fill="black"/>
<path d="M258.507 150.831C251.478 154.318 238.703 151.088 238.703 151.088C237.418 152.269 234.033 154.01 234.033 154.01L232.185 131.156C231.008 128.074 230.545 111.93 230.545 111.93C230.545 111.93 232.031 99.8837 232.648 98.6537C232.828 98.2942 232.74 97.7601 232.527 97.1848C231.478 94.447 231.092 91.5002 231.401 88.5849L231.895 84.3967L232.031 83.2232C234.444 82.1446 236.292 78.7088 236.292 78.7088L237.577 76.4593L239.941 72.3147L241.062 70.3528L241.252 70.5249L242.704 71.8397C242.704 71.8397 243.321 72.3532 244.246 73.1236C246.259 74.8184 249.736 77.8023 251.53 79.6281C253.108 81.2356 253.606 87.4885 253.75 92.1954C253.845 95.2949 253.789 97.7241 253.789 97.7241C252.198 100.341 256.359 121.349 256.359 121.349C257.328 125.409 258.507 150.831 258.507 150.831Z" fill="white"/>
<path opacity="0.03" d="M245.015 78.6574C245.015 78.6574 240.191 87.8325 240.751 91.3197C241.312 94.807 242.905 98.7538 242.137 99.6757C241.873 100.025 241.531 100.308 241.139 100.504C240.747 100.7 240.316 100.802 239.877 100.803C239.106 100.854 237.05 102.29 237.05 102.444C237.05 102.598 235.151 102.598 233.452 103.317C231.754 104.036 229.245 104.444 229.245 104.444C229.245 104.444 224.362 104.29 223.907 104.752C223.452 105.215 222.985 107.98 223.959 110.186C224.933 112.392 226.015 114.038 226.832 114.338C227.649 114.639 232.836 112.903 237.043 112.492C241.25 112.081 245.817 108.751 245.817 108.751C245.817 108.751 250.846 106.953 251.728 103.931C252.609 100.908 250.651 84.2965 250.651 84.2965C250.651 84.2965 249.171 76.5543 245.015 78.6574Z" fill="black"/>
<path opacity="0.03" d="M244.398 77.8871C244.398 77.8871 239.574 87.0647 240.14 90.5494C240.705 94.034 242.293 97.9835 241.522 98.9079C241.259 99.2576 240.918 99.5414 240.527 99.737C240.135 99.9326 239.704 100.035 239.266 100.035C238.495 100.087 236.439 101.522 236.439 101.676C236.439 101.83 234.54 101.83 232.841 102.547C231.142 103.263 228.634 103.674 228.634 103.674C228.634 103.674 223.75 103.52 223.298 103.982C222.846 104.444 222.373 107.212 223.35 109.416C224.326 111.619 225.406 113.268 226.223 113.568C227.04 113.869 232.226 112.133 236.434 111.724C240.641 111.316 245.208 107.98 245.208 107.98C245.208 107.98 250.235 106.183 251.106 103.163C251.977 100.143 250.029 83.5262 250.029 83.5262C250.029 83.5262 248.554 75.7865 244.398 77.8871Z" fill="black"/>
<path d="M244.863 78.1952C244.863 78.1952 240.039 87.3729 240.605 90.8575C241.17 94.3422 242.759 98.2916 241.99 99.2135C241.727 99.5639 241.386 99.8485 240.994 100.045C240.602 100.241 240.169 100.343 239.731 100.343C238.96 100.395 236.904 101.83 236.904 101.982C236.904 102.133 235.007 102.136 233.306 102.855C231.605 103.574 229.099 103.982 229.099 103.982C229.099 103.982 224.216 103.828 223.761 104.29C223.306 104.752 222.838 107.521 223.812 109.724C224.786 111.927 225.868 113.576 226.685 113.876C227.503 114.177 232.689 112.441 236.896 112.03C241.103 111.619 245.67 108.288 245.67 108.288C245.67 108.288 250.7 106.491 251.581 103.468C252.463 100.446 250.517 83.8343 250.517 83.8343C250.517 83.8343 249.017 76.1049 244.863 78.1952Z" fill="white"/>
<path opacity="0.1" d="M244.758 102.811C244.758 102.811 240.903 102.041 242.244 103.325C243.586 104.609 243.578 105.733 245.221 105.682C246.863 105.631 244.758 102.811 244.758 102.811Z" fill="black"/>
<path opacity="0.1" d="M251.273 130.437C251.273 130.437 249.531 131.615 252.864 134.332C256.197 137.049 251.273 130.437 251.273 130.437Z" fill="black"/>
<path opacity="0.1" d="M247.947 140.125C247.947 140.279 247.331 145.775 249.639 147.149C251.946 148.522 247.947 140.125 247.947 140.125Z" fill="black"/>
<path d="M211.304 97.0565C209.443 97.1207 205.423 97.6882 207.508 101.573C209.35 105.012 212.447 102.714 214.19 100.97C213.765 99.3443 212.732 97.9436 211.304 97.0565Z" fill="#FFB0B1"/>
<path d="M214.213 100.94L214.291 100.859L214.213 100.94Z" fill="#FFB0B1"/>
<path opacity="0.1" d="M244.247 73.2802C242.273 74.6284 240.618 75.766 240.294 76.0022C239.41 76.657 237.724 80.5012 236.637 82.463C235.771 84.0423 232.956 84.448 231.895 84.5482L232.031 83.3746C234.445 82.2961 236.292 78.8603 236.292 78.8603L241.062 70.5043L242.705 71.9963C242.705 71.9963 243.321 72.5099 244.247 73.2802Z" fill="black"/>
<path d="M244.247 73.1262C242.273 74.4743 240.618 75.6119 240.294 75.8507C239.41 76.503 237.724 80.3471 236.637 82.309C235.771 83.8883 232.956 84.294 231.895 84.3941L232.031 83.2206C234.445 82.1421 236.292 78.7062 236.292 78.7062L241.062 70.3503L242.705 71.8371C242.705 71.8371 243.321 72.3455 244.247 73.1262Z" fill="#DCE7FF"/>
<path d="M240.448 66.5832C240.449 68.1247 239.981 69.6301 239.107 70.8998C238.073 72.4011 236.536 73.4826 234.773 73.9481C233.01 74.4136 231.139 74.2322 229.498 73.4369C227.857 72.6416 226.557 71.2851 225.831 69.6134C225.106 67.9418 225.005 66.0658 225.546 64.3258C226.086 62.5858 227.233 61.0972 228.779 60.13C230.324 59.1627 232.165 58.7811 233.968 59.0541C235.771 59.3272 237.416 60.237 238.605 61.6184C239.794 62.9998 240.448 64.7612 240.448 66.5832Z" fill="#FFB0B1"/>
<path opacity="0.1" d="M253.75 92.198C252.707 91.5565 251.857 90.6442 251.291 89.5582C250.862 88.7108 250.576 87.7324 249.844 87.1315C249.183 86.5922 248.302 86.4613 247.479 86.2199C244.776 85.4213 242.509 82.9561 242.424 80.1417C242.383 78.8166 242.797 77.4942 242.609 76.182C242.503 75.4393 242.207 74.7364 241.751 74.1405C241.524 73.8555 241.276 73.5884 241.008 73.3419C240.648 73.0029 240.27 72.6742 239.941 72.3147C239.734 72.0921 239.553 71.8466 239.402 71.5828C239.28 71.367 239.18 71.1389 239.106 70.9023C238.592 69.3308 239.06 67.4665 238.495 65.877L238.464 65.7896C238.25 65.2247 237.816 64.6598 237.212 64.6161C236.608 64.5725 236.092 65.0732 235.516 65.2966C234.311 65.764 233.01 64.9679 232.005 64.1565C231 63.345 229.867 62.418 228.59 62.5977C227.744 62.7184 227.076 63.2936 226.297 63.5915C226.121 63.6595 225.94 63.712 225.755 63.7482C226.414 62.106 227.625 60.7445 229.179 59.8974C230.734 59.0503 232.535 58.7706 234.274 59.1064C236.012 59.4421 237.58 60.3724 238.706 61.7372C239.833 63.1021 240.449 64.8165 240.448 66.5857C240.449 67.12 240.393 67.6528 240.281 68.1752C240.294 68.2112 240.306 68.2446 240.322 68.2805C240.62 69.0509 240.957 69.8418 241.252 70.5249L242.704 71.8396C242.704 71.8396 243.321 72.3532 244.246 73.1236C246.259 74.8184 249.736 77.8023 251.53 79.6281C253.108 81.2407 253.601 87.491 253.75 92.198Z" fill="black"/>
<path d="M226.208 58.9C226.575 58.1527 226.758 57.3156 227.197 56.6068C227.842 55.5797 228.968 54.9223 230.124 54.5243C233.144 53.4843 239.526 51.9743 241.433 54.5243C241.808 55.0378 242.119 55.6079 242.638 55.9623C243.034 56.2319 243.512 56.3475 243.946 56.5503C245.162 57.1204 245.938 58.3633 246.352 59.6318C246.765 60.9004 246.889 62.2613 247.192 63.5684C247.58 65.2452 248.261 66.8348 248.94 68.414C249.739 70.2783 250.587 72.212 252.129 73.5293C254.234 75.3268 254.699 77.8716 256.652 79.8438C258.965 82.1857 258.891 86.0504 257.698 89.119C257.542 89.5222 257.364 89.9433 257.426 90.3722C257.488 90.801 257.806 91.1913 258.107 91.5329L259.371 92.9581C256.38 93.6796 252.995 92.1183 251.602 89.3784C251.173 88.531 250.888 87.5552 250.153 86.9517C249.495 86.4125 248.611 86.2841 247.791 86.0427C245.087 85.2415 242.82 82.7738 242.736 79.9593C242.694 78.6369 243.108 77.3144 242.921 76.0048C242.816 75.2571 242.52 74.5493 242.06 73.9504C241.353 73.0286 240.286 72.4097 239.711 71.3825C238.737 69.6646 239.477 67.4331 238.775 65.5893C238.559 65.0244 238.127 64.4595 237.523 64.4158C236.92 64.3722 236.403 64.8729 235.825 65.0963C234.622 65.5637 233.321 64.7702 232.317 63.9562C231.312 63.1421 230.178 62.2177 228.898 62.4C228.053 62.5181 227.387 63.0933 226.609 63.3938C226.033 63.6146 224.866 63.8124 224.362 63.327C223.298 62.3487 225.763 59.8141 226.208 58.9Z" fill="#591D4B"/>
<path opacity="0.1" d="M252.316 88.531C251.885 87.6836 251.602 86.7078 250.867 86.1069C250.209 85.5677 249.325 85.4367 248.502 85.1953C245.801 84.3967 243.535 81.9289 243.447 79.1145C243.406 77.7921 243.82 76.467 243.635 75.1574C243.527 74.4146 243.231 73.7117 242.774 73.1159C242.064 72.194 240.998 71.5752 240.425 70.548C239.451 68.8326 240.191 66.6011 239.487 64.7548C239.273 64.1924 238.839 63.6275 238.238 63.5813C237.636 63.5351 237.115 64.0409 236.539 64.2643C235.336 64.7317 234.033 63.9357 233.031 63.1242C232.028 62.3127 230.89 61.3857 229.613 61.5655C228.767 61.6862 228.099 62.2614 227.323 62.5593C226.747 62.7801 225.578 62.9804 225.074 62.4951C224.015 61.4679 226.48 58.9385 226.922 58.0295C227.289 57.2796 227.472 56.4451 227.914 55.7363C227.937 55.6978 227.963 55.6593 227.988 55.6208C227.658 55.8945 227.372 56.2186 227.143 56.5812C226.703 57.2899 226.521 58.1219 226.153 58.8743C225.709 59.7834 223.244 62.3204 224.305 63.3399C224.82 63.8278 225.976 63.6275 226.552 63.4067C227.323 63.1062 227.996 62.531 228.842 62.4129C230.127 62.2306 231.257 63.1576 232.26 63.969C233.262 64.7805 234.573 65.5765 235.77 65.1092C236.346 64.8858 236.85 64.3825 237.467 64.4287C238.083 64.4749 238.495 65.0373 238.718 65.6022C239.42 67.446 238.68 69.6775 239.654 71.3954C240.229 72.4046 241.296 73.0363 242.003 73.9633C242.463 74.5622 242.759 75.27 242.864 76.0176C243.051 77.3273 242.638 78.6497 242.679 79.9722C242.764 82.7969 245.03 85.2544 247.734 86.0556C248.549 86.2969 249.438 86.4253 250.096 86.9646C250.833 87.5681 251.124 88.5439 251.545 89.3913C252.938 92.1312 256.323 93.6925 259.315 92.9709L258.718 92.2981C256.125 92.3367 253.501 90.8627 252.316 88.531Z" fill="black"/>
<path opacity="0.1" d="M234.599 76.8111C234.262 77.3247 233.298 79.9542 232.494 82.2499C231.741 81.9571 231.057 80.0903 231.057 80.0903L235.071 74.3844C235.483 74.9493 235.213 75.8866 234.599 76.8111Z" fill="black"/>
<path d="M234.753 76.657C234.416 77.1706 233.452 79.8001 232.648 82.0958C231.895 81.8057 231.211 79.9362 231.211 79.9362L235.226 74.2329C235.637 74.7953 235.367 75.7351 234.753 76.657Z" fill="#DCE7FF"/>
<path d="M211.412 102.891L209.186 95.8777C209.16 95.7956 209.15 95.7091 209.157 95.6232C209.164 95.5373 209.188 95.4536 209.228 95.377C209.268 95.3004 209.322 95.2324 209.388 95.1769C209.454 95.1214 209.53 95.0794 209.613 95.0534C209.778 95.0018 209.958 95.0176 210.112 95.0974C210.266 95.1772 210.382 95.3146 210.435 95.4797L212.661 102.485L212.44 103.951L211.412 102.891Z" fill="#BE8B87"/>
<path opacity="0.1" d="M209.397 95.2615C209.563 95.209 209.743 95.2244 209.898 95.3043C210.052 95.3842 210.169 95.5221 210.222 95.6878L212.448 102.693L212.281 103.792L212.442 103.962L212.663 102.495L210.425 95.49C210.372 95.325 210.256 95.1876 210.102 95.1077C209.948 95.0279 209.768 95.0121 209.603 95.0637C209.463 95.1089 209.343 95.1993 209.261 95.3205C209.304 95.2971 209.35 95.2774 209.397 95.2615Z" fill="white"/>
<path d="M211.412 102.891L212.661 102.495L212.478 103.697L212.44 103.962L212.075 103.581L211.412 102.891Z" fill="#EFC8C4"/>
<path d="M212.075 103.581C212.096 103.554 212.124 103.531 212.154 103.515C212.172 103.503 212.193 103.497 212.215 103.497C212.236 103.497 212.257 103.503 212.275 103.515C212.293 103.536 212.307 103.559 212.319 103.584C212.336 103.612 212.359 103.637 212.387 103.655C212.414 103.673 212.445 103.685 212.478 103.689L212.44 103.946L212.075 103.581Z" fill="#727A9C"/>
<path d="M209.173 98.3687C209.173 98.3687 213.637 98.343 212.586 100.241C211.535 102.138 209.893 102.367 209.893 102.367L209.173 98.3687Z" fill="#FFB0B1"/>
<path d="M181.409 13.2042H181.216C173.547 13.2042 166.765 17.2589 162.864 23.2421C158.962 17.2589 152.18 13.2042 144.511 13.2042H144.318C138.563 13.259 133.062 15.581 129.01 19.6657C124.959 23.7504 122.684 29.2676 122.681 35.0185C122.681 42.1598 125.811 52.2928 131.915 60.6307C143.545 76.5184 162.864 90.4184 162.864 90.4184C162.864 90.4184 182.183 76.5209 193.81 60.6307C199.916 52.2928 203.044 42.1598 203.044 35.0185C203.041 29.2681 200.767 23.7512 196.716 19.6666C192.665 15.582 187.164 13.2596 181.409 13.2042ZM178.652 61.8531C177.778 61.8497 176.926 61.5826 176.207 61.0868C175.489 60.5909 174.937 59.8895 174.624 59.0746H170.039C169.737 59.0727 169.444 58.9767 169.199 58.7999C168.954 58.6231 168.771 58.3744 168.675 58.0885L167.266 53.8489L162.81 69.4078C162.723 69.7074 162.541 69.9706 162.292 70.1582C162.043 70.3457 161.739 70.4474 161.427 70.4478H161.337C161.012 70.4321 160.701 70.3052 160.458 70.0883C160.215 69.8715 160.053 69.5778 160.001 69.2563L155.408 41.6565L152.052 57.9884C151.975 58.2986 151.796 58.5742 151.544 58.7711C151.292 58.9679 150.981 59.0748 150.661 59.0746H144.203C144.009 59.0828 143.816 59.0518 143.635 58.9834C143.453 58.915 143.288 58.8107 143.148 58.6767C143.008 58.5427 142.897 58.3818 142.821 58.2037C142.744 58.0257 142.705 57.834 142.705 57.6404C142.705 57.4468 142.744 57.2552 142.821 57.0771C142.897 56.899 143.008 56.7382 143.148 56.6042C143.288 56.4702 143.453 56.3659 143.635 56.2975C143.816 56.2291 144.009 56.1981 144.203 56.2063H149.53L154.285 34.2481C154.363 33.9235 154.551 33.636 154.818 33.4348C155.085 33.2337 155.413 33.1313 155.747 33.1453C156.081 33.1592 156.4 33.2886 156.649 33.5113C156.898 33.734 157.061 34.0362 157.112 34.3662L161.802 62.5207L165.796 48.6001C165.879 48.3069 166.055 48.0485 166.297 47.8634C166.54 47.6782 166.835 47.5764 167.14 47.573H167.169C167.471 47.5731 167.765 47.6684 168.01 47.8455C168.254 48.0226 168.437 48.2723 168.531 48.559L171.078 56.214H174.568C174.816 55.4607 175.267 54.7906 175.873 54.2776C176.478 53.7646 177.213 53.4286 177.998 53.3068C178.782 53.185 179.584 53.2821 180.317 53.5873C181.05 53.8925 181.683 54.394 182.149 55.0365C182.614 55.6789 182.893 56.4373 182.954 57.228C183.015 58.0186 182.856 58.8108 182.495 59.5171C182.134 60.2233 181.585 60.8161 180.908 61.2302C180.231 61.6442 179.453 61.8633 178.659 61.8633L178.652 61.8531Z" fill="#EC4794"/>
</g>
<defs>
<linearGradient id="paint0_linear" x1="91.5781" y1="198.979" x2="91.5781" y2="40.9657" gradientUnits="userSpaceOnUse">
<stop stop-color="#808080" stop-opacity="0.25"/>
<stop offset="0.54" stop-color="#808080" stop-opacity="0.12"/>
<stop offset="1" stop-color="#808080" stop-opacity="0.1"/>
</linearGradient>
<linearGradient id="paint1_linear" x1="57367.3" y1="119223" x2="57367.3" y2="38113.5" gradientUnits="userSpaceOnUse">
<stop stop-color="#808080" stop-opacity="0.25"/>
<stop offset="0.54" stop-color="#808080" stop-opacity="0.12"/>
<stop offset="1" stop-color="#808080" stop-opacity="0.1"/>
</linearGradient>
<clipPath id="clip0">
<rect width="284" height="201" fill="white"/>
</clipPath>
</defs>
</svg>
