<svg width="266" height="209" viewBox="0 0 266 209" fill="none" xmlns="http://www.w3.org/2000/svg">
<g clip-path="url(#clip0)">
<path opacity="0.1" d="M83.9855 7.37566C91.2089 0.904851 102.552 -0.405221 112.892 0.0919599C145.343 1.71277 174.635 17.4436 199.974 35.2402C209.148 41.6811 218.179 48.6243 224.132 57.4965C236.262 75.5566 232.658 100.575 215.805 115.453C210.069 120.514 203.118 124.402 195.981 127.835C183.292 133.95 169.6 138.86 155.198 140.265C144.929 141.259 134.532 140.451 124.321 139.062C95.796 135.176 67.7958 126.585 44.3258 111.888C34.0328 105.442 24.3264 97.4276 20.0884 86.9992C15.8504 76.5708 18.5611 63.3558 29.0719 57.1833C33.4189 54.6302 38.6174 53.4768 43.7045 52.3929C51.1953 50.7994 58.8049 49.2284 65.563 45.9892C72.5463 42.6432 80.8119 36.1724 79.4256 28.7644C77.9453 20.8169 76.7571 13.839 83.9855 7.37566Z" fill="#EC4794"/>
<path opacity="0.1" d="M114.102 206.474C132.305 206.474 147.061 201.835 147.061 196.113C147.061 190.391 132.305 185.752 114.102 185.752C95.8996 185.752 81.1436 190.391 81.1436 196.113C81.1436 201.835 95.8996 206.474 114.102 206.474Z" fill="#EC4794"/>
<path d="M181.688 89.5523L182.883 153.37L185.425 153.671L184.467 89.2987L181.688 89.5523Z" fill="#F5C5CC"/>
<path d="M175.541 88.3516L176.737 152.17L179.279 152.471L178.321 88.098L175.541 88.3516Z" fill="#F5C5CC"/>
<path d="M177.043 85.0155L177.167 154.621L179.766 154.372L178.776 83.6483L177.043 85.0155Z" fill="#CC929B"/>
<path d="M105.347 73.3938L106.443 131.243L108.986 131.512L108.129 73.1602L105.347 73.3938Z" fill="#F5C5CC"/>
<path d="M106.814 72.3125L108.072 132.521L108.985 131.512L108.129 73.1602L106.814 72.3125Z" fill="#CC929B"/>
<path d="M110.755 74.8581L111.852 132.705L114.394 132.974L113.538 74.6244L110.755 74.8581Z" fill="#F5C5CC"/>
<path d="M112.223 73.7742L113.483 133.983L114.394 132.974L113.538 74.6244L112.223 73.7742Z" fill="#CC929B"/>
<path d="M116.043 76.4441L117.14 134.294L119.682 134.562L118.825 76.2129L116.043 76.4441Z" fill="#F5C5CC"/>
<path d="M117.511 75.3652L118.771 135.571L119.682 134.562L118.825 76.2129L117.511 75.3652Z" fill="#CC929B"/>
<path d="M121.187 76.7673L122.316 136.648L124.858 136.926L123.967 76.5286L121.187 76.7673Z" fill="#F5C5CC"/>
<path d="M122.652 75.6486L123.947 137.97L124.858 136.926L123.967 76.5286L122.652 75.6486Z" fill="#CC929B"/>
<path d="M126.764 77.2346L127.895 137.113L130.438 137.391L129.547 76.9935L126.764 77.2346Z" fill="#F5C5CC"/>
<path d="M128.232 76.116L129.527 138.435L130.438 137.391L129.547 76.9935L128.232 76.116Z" fill="#CC929B"/>
<path d="M132.245 79.191L133.374 139.072L135.916 139.35L135.028 78.9524L132.245 79.191Z" fill="#F5C5CC"/>
<path d="M133.71 78.0723L135.005 140.394L135.916 139.35L135.027 78.9523L133.71 78.0723Z" fill="#CC929B"/>
<path d="M138.518 80.4837L139.676 142.035L142.218 142.321L141.3 80.2375L138.518 80.4837Z" fill="#F5C5CC"/>
<path d="M139.983 79.3352L141.308 143.395L142.219 142.321L141.3 80.2376L139.983 79.3352Z" fill="#CC929B"/>
<path d="M143.976 81.1375L145.132 142.688L147.677 142.974L146.756 80.8914L143.976 81.1375Z" fill="#F5C5CC"/>
<path d="M145.442 79.9865L146.766 144.048L147.677 142.974L146.756 80.8913L145.442 79.9865Z" fill="#CC929B"/>
<path d="M149.759 82.7782L150.917 144.329L153.46 144.618L152.541 82.5345L149.759 82.7782Z" fill="#F5C5CC"/>
<path d="M151.227 81.6297L152.549 145.691L153.46 144.618L152.542 82.5346L151.227 81.6297Z" fill="#CC929B"/>
<path d="M100.393 73.292L100.269 69.6277L101.556 68.9218L193.877 87.9364L194.048 92.5876L100.393 73.292Z" fill="#F5C5CC"/>
<path d="M101.557 68.9218L194.216 87.9215L194.122 89.6641L100.46 69.5209" fill="#CC929B"/>
<path d="M105.379 164.485L102.779 165.435H100.304L100.18 67.3556L101.542 65.4564L102.856 65.0686L104.512 64.8175L105.379 164.485Z" fill="#F5C5CC"/>
<path d="M105.379 164.485L102.78 165.435L102.619 67.5495L102.856 65.0686L104.512 64.8175L105.379 164.485Z" fill="#CC929B"/>
<path d="M156.042 84.6004L157.2 146.149L159.742 146.437L158.824 84.3542L156.042 84.6004Z" fill="#F5C5CC"/>
<path d="M157.507 83.4493L158.832 147.511L159.743 146.437L158.824 84.3542L157.507 83.4493Z" fill="#CC929B"/>
<path d="M162.372 85.5723L163.552 148.438L166.095 148.732L165.152 85.3237L162.372 85.5723Z" fill="#F5C5CC"/>
<path d="M168.89 86.7233L170.085 150.541L172.628 150.842L171.672 86.4697L168.89 86.7233Z" fill="#F5C5CC"/>
<path d="M170.355 85.5325L171.719 151.956L172.627 150.842L171.672 86.4697L170.355 85.5325Z" fill="#CC929B"/>
<path d="M69.3602 145.672L66.761 145.92L66.6397 77.2619L66.6372 76.3148L68.37 74.9476L68.3973 76.8518L69.3602 145.672Z" fill="#F5C5CC"/>
<path d="M78.5199 141.818L75.9206 142.067L75.7994 74.5299L75.7969 72.4617L77.5297 71.0944L77.5693 73.8687L78.5199 141.818Z" fill="#F5C5CC"/>
<path d="M93.62 135.604L91.0207 135.852L90.9019 69.1678L90.897 66.2469L92.6298 64.8796L92.6843 68.7527L93.62 135.604Z" fill="#F5C5CC"/>
<path d="M100.18 133.118L97.5808 133.366L97.4645 68.3102L97.457 63.761L99.1899 62.3937L99.279 68.7129L100.18 133.118Z" fill="#F5C5CC"/>
<path d="M73.9398 144.926L71.3406 145.174L71.2168 76.0662V75.569L72.9496 74.2018L72.967 75.5119L73.9398 144.926Z" fill="#F5C5CC"/>
<path d="M87.3075 138.711L84.7082 138.96L84.587 71.154L84.5845 69.3542L86.3173 67.987L86.352 70.5375L87.3075 138.711Z" fill="#F5C5CC"/>
<path d="M82.9755 139.954L80.3762 140.203L80.2574 72.8072L80.2524 70.5972L81.9853 69.23L82.0249 72.1087L82.9755 139.954Z" fill="#F5C5CC"/>
<path d="M66.5877 134.202L65.9688 135.507C65.9688 135.507 64.3598 137.93 64.5454 141.659C64.7311 145.388 61.9536 155.27 61.9536 155.27C61.9536 155.27 64.491 156.45 66.4095 156.326C68.328 156.202 72.4744 158.253 72.4744 158.253L81.0693 160.93L98.4595 165.032C98.4595 165.032 108.671 170.749 111.456 170.749C114.241 170.749 125.318 174.54 125.318 174.54C125.318 174.54 140.295 177.834 141.471 179.077C142.647 180.32 147.605 181.993 148.1 182.06C148.595 182.127 156.146 182.868 156.146 182.868C156.146 182.868 164.933 184.919 166.171 182.744C166.893 181.521 167.376 180.171 167.595 178.766C167.595 178.766 171.494 179.637 172.546 178.331C173.598 177.026 173.66 174.23 174.897 174.354C176.135 174.478 181.21 176.032 181.767 175.473C182.324 174.913 185.294 168.326 187.398 169.32C189.503 170.314 193.154 171.868 193.154 171.868L191.05 150.365L190.121 144.461C190.121 144.461 156.393 158.258 155.217 158.258C154.041 158.258 66.5877 134.202 66.5877 134.202Z" fill="#EC4794"/>
<path d="M189.936 115.371L189.75 145.699L154.715 159.19L65.9691 135.512C65.9691 135.512 59.966 126.997 65.5358 119.043C65.5358 119.043 58.357 109.099 67.2687 102.636L67.489 102.583L101.183 94.4321L116.167 97.1815L182.373 109.343C182.373 109.343 188.877 111.766 189.936 115.371Z" fill="#EC4794"/>
<path opacity="0.1" d="M114.983 100.083C113.312 100.953 101.182 104.122 98.7689 106.049C96.3553 107.975 79.6458 109.472 79.6458 109.472L77.7892 109.845C77.7892 109.845 77.913 108.602 70.5485 104.997C69.3719 104.416 68.3296 103.594 67.4888 102.583L101.182 94.4321L116.167 97.1815C116.186 98.3723 115.983 99.5606 114.983 100.083Z" fill="black"/>
<path d="M64.0504 88.093C64.0504 88.093 63.4315 100.15 70.7961 103.754C78.1606 107.359 78.0443 108.597 78.0443 108.597L79.9009 108.224C79.9009 108.224 73.4647 101.015 73.8979 99.7718C74.3311 98.5288 68.1424 92.2519 67.2685 92.0033C66.3947 91.7548 64.0504 88.093 64.0504 88.093Z" fill="#EC4794"/>
<path opacity="0.1" d="M64.1818 88.2745C64.1818 88.2745 63.5629 100.331 70.9274 103.936C78.292 107.54 78.1682 108.783 78.1682 108.783L80.0248 108.41C80.0248 108.41 73.5886 101.201 74.0218 99.9583C74.455 98.7153 68.2589 92.4384 67.3999 92.1898C66.5409 91.9412 64.1818 88.2745 64.1818 88.2745Z" fill="black"/>
<path opacity="0.1" d="M65.9146 93.3706C65.9146 93.3706 71.8557 102.382 72.9078 102.693C73.9599 103.003 67.3305 93.4949 65.9146 93.3706Z" fill="black"/>
<path d="M63.1914 86.4101C63.1914 86.4101 67.0284 83.3027 67.5235 82.6812C68.0186 82.0598 73.4646 81.8112 73.6503 81.8112C73.836 81.8112 77.9824 79.2631 82.6239 78.4552C87.2654 77.6473 89.122 77.2744 89.122 77.2744C89.122 77.2744 95.9296 74.4156 96.3009 73.7941C96.6722 73.1726 99.8285 72.489 103.727 75.5343C107.626 78.5795 116.229 92.252 116.29 93.7435C116.352 95.2351 116.909 97.9696 115.238 98.8396C113.567 99.7097 101.438 102.879 99.0239 104.806C96.6104 106.732 79.8935 108.229 79.8935 108.229L73.5884 101.326L70.2465 95.9187L64.6767 90.0147L63.1914 86.4101Z" fill="#EC4794"/>
<path opacity="0.1" d="M73.5389 140.086C73.5389 140.086 71.2293 140.583 72.5488 141.908C73.8682 143.233 73.5389 140.086 73.5389 140.086Z" fill="black"/>
<path opacity="0.1" d="M81.6264 142.738C81.6264 142.738 79.1509 145.721 79.646 146.549C80.1411 147.377 81.6264 142.738 81.6264 142.738Z" fill="black"/>
<path opacity="0.1" d="M96.1499 146.549C96.1499 146.549 93.6744 149.532 94.1695 150.36C94.6646 151.188 96.1499 146.549 96.1499 146.549Z" fill="black"/>
<path opacity="0.1" d="M113.808 151.521C113.808 151.521 111.332 154.504 111.827 155.332C112.322 156.16 113.808 151.521 113.808 151.521Z" fill="black"/>
<path opacity="0.1" d="M137.572 157.487C137.572 157.487 135.097 160.47 135.592 161.298C136.087 162.126 137.572 157.487 137.572 157.487Z" fill="black"/>
<path opacity="0.1" d="M88.7236 143.566C88.7236 143.566 86.2481 146.549 86.7432 147.377C87.2383 148.205 88.7236 143.566 88.7236 143.566Z" fill="black"/>
<path opacity="0.1" d="M123.214 154.007C123.214 154.007 120.739 156.99 121.234 157.818C121.729 158.646 123.214 154.007 123.214 154.007Z" fill="black"/>
<path opacity="0.1" d="M130.475 156.326C130.475 156.326 128 159.309 128.495 160.14C128.99 160.97 130.475 156.326 130.475 156.326Z" fill="black"/>
<path opacity="0.1" d="M102.586 148.538C102.586 148.538 100.111 151.521 100.606 152.349C101.101 153.176 102.586 148.538 102.586 148.538Z" fill="black"/>
<path opacity="0.1" d="M164.968 166.603L167.587 178.761C167.587 178.761 167.607 170.247 164.968 166.603Z" fill="black"/>
<path opacity="0.1" d="M173.053 168.425L174.89 174.354C174.89 174.354 174.704 172.072 173.053 168.425Z" fill="black"/>
<path opacity="0.1" d="M181.767 175.468C181.767 175.468 177.848 161.134 177.021 160.139C176.195 159.145 179.408 174.558 181.767 175.468Z" fill="black"/>
<path opacity="0.1" d="M186.421 168.756C186.421 168.756 181.802 160.637 183.616 159.145C185.431 157.654 186.421 168.756 186.421 168.756Z" fill="black"/>
<path opacity="0.1" d="M65.5356 119.038L155.23 139.258L189.723 129.148L154.9 138.264C154.9 138.264 68.2587 118.21 65.5356 119.038Z" fill="black"/>
<path d="M68.2466 97.0721L68.3704 154.932L70.9077 155.242L71.0315 96.8857L68.2466 97.0721Z" fill="#F5C5CC"/>
<path d="M69.7319 96.0156L69.9795 156.237L70.9078 155.242L71.0316 96.8857L69.7319 96.0156Z" fill="#CC929B"/>
<path d="M73.6304 98.6258L73.7541 156.485L76.2915 156.796L76.4153 98.4393L73.6304 98.6258Z" fill="#F5C5CC"/>
<path d="M75.1157 97.5693L75.3633 157.79L76.2916 156.796L76.4154 98.4393L75.1157 97.5693Z" fill="#CC929B"/>
<path d="M78.8911 100.304L79.0149 158.163L81.5522 158.474L81.676 100.117L78.8911 100.304Z" fill="#F5C5CC"/>
<path d="M80.3765 99.2473L80.624 159.468L81.5523 158.474L81.6761 100.117L80.3765 99.2473Z" fill="#CC929B"/>
<path d="M84.0273 100.714L84.1511 160.604L86.6885 160.925L86.8123 100.52L84.0273 100.714Z" fill="#F5C5CC"/>
<path d="M85.5127 99.6201L85.7602 161.954L86.6886 160.925L86.8123 100.52L85.5127 99.6201Z" fill="#CC929B"/>
<path d="M89.5977 101.273L89.7214 161.164L92.2588 161.484L92.3826 101.079L89.5977 101.273Z" fill="#F5C5CC"/>
<path d="M91.0825 100.18L91.3301 162.514L92.2584 161.484L92.3821 101.079L91.0825 100.18Z" fill="#CC929B"/>
<path d="M95.0435 103.324L95.1672 163.215L97.7046 163.535L97.8284 103.13L95.0435 103.324Z" fill="#F5C5CC"/>
<path d="M96.5288 102.23L96.7764 164.564L97.7047 163.535L97.8284 103.13L96.5288 102.23Z" fill="#CC929B"/>
<path d="M102.779 103.598L103.027 167.672L103.955 166.613L104.079 104.522L102.779 103.598Z" fill="#CC929B"/>
<path d="M106.74 105.467L106.864 167.028L109.401 167.359L109.525 105.268L106.74 105.467Z" fill="#F5C5CC"/>
<path d="M108.226 104.343L108.473 168.418L109.401 167.359L109.525 105.268L108.226 104.343Z" fill="#CC929B"/>
<path d="M112.496 107.207L112.619 168.768L115.157 169.099L115.281 107.008L112.496 107.207Z" fill="#F5C5CC"/>
<path d="M113.981 106.083L114.229 170.158L115.157 169.099L115.281 107.008L113.981 106.083Z" fill="#CC929B"/>
<path d="M118.746 109.134L118.87 170.695L121.407 171.025L121.531 108.935L118.746 109.134Z" fill="#F5C5CC"/>
<path d="M120.231 108.01L120.479 172.084L121.407 171.025L121.531 108.935L120.231 108.01Z" fill="#CC929B"/>
<path d="M125.059 110.215L125.182 173.089L127.72 173.427L127.843 110.011L125.059 110.215Z" fill="#F5C5CC"/>
<path d="M126.544 109.067L126.791 174.508L127.72 173.427L127.844 110.011L126.544 109.067Z" fill="#CC929B"/>
<path d="M131.557 111.475L131.68 175.306L134.218 175.649L134.342 111.269L131.557 111.475Z" fill="#CC929B"/>
<path d="M138.179 113.216L138.302 177.046L140.84 177.389L140.964 113.009L138.179 113.216Z" fill="#F5C5CC"/>
<path d="M139.664 112.05L139.912 178.485L140.84 177.389L140.964 113.009L139.664 112.05Z" fill="#CC929B"/>
<path d="M144.306 114.521L144.429 178.351L146.967 178.694L147.091 114.314L144.306 114.521Z" fill="#CC929B"/>
<path d="M64.9046 166.18L62.3053 167.175H59.8298L59.7061 75.9419L61.0676 73.9532L62.382 73.548L64.2857 72.9588L64.9046 166.18Z" fill="#F5C5CC"/>
<path d="M64.9047 166.18L62.3054 167.175L62.1445 76.1432L62.3822 73.548L64.2858 72.9588L64.9047 166.18Z" fill="#CC929B"/>
<path d="M62.5526 170.033C64.1932 170.033 65.5232 168.698 65.5232 167.05C65.5232 165.403 64.1932 164.067 62.5526 164.067C60.912 164.067 59.582 165.403 59.582 167.05C59.582 168.698 60.912 170.033 62.5526 170.033Z" fill="#40414D"/>
<path d="M197.838 180.146L195.238 181.096H192.763L192.639 80.7795L194.001 81.1176L195.315 80.7298L197.219 80.168L197.838 180.146Z" fill="#F5C5CC"/>
<path d="M197.838 180.146L195.239 181.096L195.078 83.2107L195.315 80.7298L197.219 80.168L197.838 180.146Z" fill="#CC929B"/>
<path d="M161.82 161.333L159.22 161.581L159.102 94.5638L159.097 91.976L160.83 90.6088L160.879 94.181L161.82 161.333Z" fill="#F5C5CC"/>
<path d="M170.979 157.48L168.38 157.728L168.263 91.9487L168.256 88.1229L169.989 86.7556L170.053 91.2949L170.979 157.48Z" fill="#F5C5CC"/>
<path d="M186.079 151.265L183.48 151.513L183.364 85.888L183.356 81.9081L185.089 80.5408L185.154 85.1422L186.079 151.265Z" fill="#F5C5CC"/>
<path d="M189.916 79.4222L190.04 149.028L192.639 148.779L191.649 78.0549L189.916 79.4222Z" fill="#F5C5CC"/>
<path d="M166.399 160.587L163.8 160.836L163.681 93.4377L163.676 91.2302L165.409 89.863L165.451 92.8983L166.399 160.587Z" fill="#F5C5CC"/>
<path d="M175.434 155.615L172.835 155.864L172.719 90.2582L172.711 86.2584L174.444 84.8912L174.509 89.5349L175.434 155.615Z" fill="#F5C5CC"/>
<path d="M180.467 153.957L177.868 154.206L177.752 88.6002V88.2099L177.744 84.6003L179.477 83.2331L179.536 87.474L179.541 87.8768L180.467 153.957Z" fill="#F5C5CC"/>
<path d="M156.621 160.878L192.516 145.547L194.991 146.126L195.073 151.844L157.282 166.511L156.621 160.878Z" fill="#F5C5CC"/>
<path d="M192.516 145.547L156.621 160.878L194.857 146.094" fill="#CC929B"/>
<path d="M63.6246 152.756L154.145 180.35L153.98 184.825L63.2954 156.734L63.6246 152.756Z" fill="#F5C5CC"/>
<path d="M158.106 196.011L155.507 197.006H153.031L152.908 94.8348V94.3376L153.101 94.0543L154.269 92.3489L155.584 91.9437L157.487 91.3546L157.507 94.8348L158.106 196.011Z" fill="#F5C5CC"/>
<path d="M158.106 196.011L155.507 197.006L155.346 94.539L155.584 91.9437L157.487 91.3546L158.106 196.011Z" fill="#CC929B"/>
<path opacity="0.1" d="M157.487 91.3546L157.507 94.8348C156.791 94.94 156.069 95.008 155.346 95.0387C153.564 95.1083 152.908 94.8373 152.908 94.8373C152.908 94.8025 152.977 94.5241 153.101 94.0592L154.269 92.3539L155.584 91.9487L157.487 91.3546Z" fill="black"/>
<path opacity="0.1" d="M160.829 90.6088L160.879 94.181C160.24 94.3302 159.648 94.4578 159.102 94.5638V91.976L160.829 90.6088Z" fill="black"/>
<path opacity="0.1" d="M165.409 89.863L165.451 92.8983C164.835 93.0946 164.243 93.2736 163.681 93.4377V91.2302L165.409 89.863Z" fill="black"/>
<path opacity="0.1" d="M169.989 86.7556L170.053 91.2949C169.434 91.5252 168.837 91.7432 168.263 91.9487V88.1229L169.989 86.7556Z" fill="black"/>
<path opacity="0.1" d="M174.445 84.8912L174.509 89.5348L173.083 90.1116L172.719 90.2582V86.2584L174.445 84.8912Z" fill="black"/>
<path opacity="0.1" d="M185.154 85.1423L183.364 85.888V81.9106L185.097 80.5433L185.154 85.1423Z" fill="black"/>
<path opacity="0.1" d="M179.539 87.4741L177.754 88.2198V84.6103L179.487 83.243L179.539 87.4741Z" fill="black"/>
<path d="M198.704 82.4053C198.704 82.4053 194.124 82.4053 192.887 82.0324C191.649 81.6595 189.05 83.1511 173.083 89.6144C163.428 93.5247 158.069 94.4321 155.346 94.539C153.564 94.6086 152.908 94.3376 152.908 94.3376C152.908 94.3376 156.168 79.3178 166.55 76.5112C167.708 76.1946 168.846 75.8103 169.959 75.3602L170.159 75.2832C171.031 74.944 171.925 74.6658 172.835 74.4504C176.167 73.6823 178.546 72.2131 184.569 72.1683C188.306 72.1055 191.953 73.3204 194.912 75.6138C196.976 77.2446 198.756 79.4993 198.704 82.4053Z" fill="#CC929B"/>
<path d="M170.607 75.1962C157.76 80.7596 155.799 91.1582 155.346 94.539C153.564 94.6086 152.908 94.3376 152.908 94.3376C152.908 94.3376 156.168 79.3178 166.55 76.5112C167.708 76.1946 168.846 75.8103 169.959 75.3602L170.159 75.2832C170.308 75.2608 170.456 75.231 170.607 75.1962Z" fill="#F5C5CC"/>
<path opacity="0.1" d="M68.37 74.9476L68.3972 76.8518C67.7709 77.0084 67.1867 77.1451 66.6396 77.262V76.3148L68.37 74.9476Z" fill="black"/>
<path opacity="0.1" d="M72.9496 74.2018L72.967 75.5119C72.358 75.714 71.7746 75.8988 71.2168 76.0662V75.569L72.9496 74.2018Z" fill="black"/>
<path opacity="0.1" d="M77.5297 71.0944L77.5693 73.8687C76.9603 74.1024 76.3703 74.3228 75.7993 74.5299V72.4617L77.5297 71.0944Z" fill="black"/>
<path opacity="0.1" d="M81.9852 69.23L82.0248 72.1087C81.4554 72.3291 80.8663 72.5619 80.2573 72.8072V70.5972L81.9852 69.23Z" fill="black"/>
<path opacity="0.1" d="M86.3173 67.987L86.3519 70.5375C85.7908 70.7265 85.2025 70.932 84.5869 71.154V69.3542L86.3173 67.987Z" fill="black"/>
<path opacity="0.1" d="M92.6297 64.8796L92.6842 68.7527C92.1371 68.867 91.5455 69.0013 90.9019 69.1678V66.2469L92.6297 64.8796Z" fill="black"/>
<path opacity="0.1" d="M99.2789 68.703C98.6962 68.4825 98.0852 68.3469 97.4644 68.3003V63.751L99.1972 62.3838L99.2789 68.703Z" fill="black"/>
<path d="M105.502 68.7327C105.502 68.7327 100.923 68.7327 99.685 68.3599C98.4473 67.987 95.848 65.9983 79.8812 72.4616C70.2268 76.3719 64.8674 77.2793 62.1444 77.3862C60.3621 77.4558 59.7061 77.1848 59.7061 77.1848C59.7061 77.1848 62.1642 64.1338 73.0043 61.9313C73.6093 61.8129 74.2069 61.6593 74.7941 61.4714C75.46 61.2527 76.5096 60.9394 77.9206 60.6138C81.5596 59.7735 87.5923 58.8513 95.6104 59.2416C98.3894 59.3461 101.025 60.5065 102.985 62.4882C103.805 63.3028 104.451 64.2767 104.884 65.3503C105.316 66.4239 105.527 67.5748 105.502 68.7327Z" fill="#CC929B"/>
<path d="M77.9206 60.6138C65.0729 66.1773 62.5974 74.0054 62.1444 77.3862C60.362 77.4558 59.7061 77.1849 59.7061 77.1849C59.7061 77.1849 62.1642 64.1339 73.0043 61.9314C73.6093 61.8129 74.2068 61.6594 74.7941 61.4715C75.46 61.2453 76.5096 60.9395 77.9206 60.6138Z" fill="#F5C5CC"/>
<path d="M63.2953 96.8857L63.2334 93.219L64.533 92.5353L153.403 112.547L153.155 117.208L63.2953 96.8857Z" fill="#F5C5CC"/>
<path d="M64.5333 92.5353L153.403 112.547L153.279 114.287L63.4268 93.117" fill="#CC929B"/>
<path d="M195.239 184.079C196.879 184.079 198.209 182.743 198.209 181.096C198.209 179.448 196.879 178.113 195.239 178.113C193.598 178.113 192.268 179.448 192.268 181.096C192.268 182.743 193.598 184.079 195.239 184.079Z" fill="#40414D"/>
<path d="M155.878 200.983C157.519 200.983 158.849 199.647 158.849 198C158.849 196.352 157.519 195.017 155.878 195.017C154.238 195.017 152.908 196.352 152.908 198C152.908 199.647 154.238 200.983 155.878 200.983Z" fill="#40414D"/>
<path d="M66.6795 136.68C66.6795 136.68 64.0381 139.663 63.2138 142.316C62.3894 144.968 64.204 154.912 64.204 154.912C65.1342 153.257 65.8023 151.468 66.1844 149.607C66.8428 146.46 66.6795 136.68 66.6795 136.68Z" fill="#EC4794"/>
<path d="M192.021 161.457C192.021 161.457 193.63 169.661 193.753 170.903C193.877 172.146 189.669 170.282 189.669 170.282L192.021 161.457Z" fill="#EC4794"/>
<path d="M143.253 59.9551H143.211C143.201 59.8706 143.17 59.7902 143.12 59.7214C143.007 59.5887 142.867 59.4819 142.709 59.4082L141.548 58.7594L142.55 59.1248C142.503 59.0437 142.451 58.9657 142.394 58.8911L142.511 58.9558L142.432 58.8439L142.325 58.8066C141.79 58.1777 140.899 57.9166 140.035 57.9291H140.05C140.162 57.9142 140.275 57.9042 140.387 57.8968C140.139 57.8812 139.891 57.8887 139.644 57.9191C139.672 57.9312 139.701 57.9395 139.731 57.944C139.652 57.944 139.572 57.9589 139.483 57.9689C139.356 58.0035 139.222 58.0035 139.095 57.9689C139.016 57.9288 138.948 57.8708 138.896 57.7996C138.844 57.7283 138.81 57.6458 138.795 57.5587C138.671 57.0615 138.867 56.527 138.924 56.0075C138.952 55.7636 138.925 55.5166 138.847 55.2841C138.847 55.2344 138.847 55.1846 138.847 55.1349C138.806 55.0249 138.74 54.9262 138.654 54.8467C138.568 54.7672 138.465 54.7092 138.352 54.6775C138.351 54.6966 138.351 54.7156 138.352 54.7347L138.31 54.7173C138.31 55.1623 138.31 55.6097 138.31 56.0547C137.925 55.7503 137.585 55.3939 137.297 54.9957C137.246 54.9352 137.211 54.8624 137.196 54.7844C137.171 54.5582 137.458 54.4016 137.476 54.1729C137.475 54.0994 137.45 54.0282 137.405 53.97C137.361 53.9117 137.299 53.8695 137.228 53.8497L137.302 53.8224C137.214 53.7814 137.117 53.7642 137.02 53.7726C136.808 53.8212 136.6 53.8843 136.396 53.9616L136.461 53.974C136.413 53.9899 136.364 54.0032 136.315 54.0138C135.693 54.143 135.139 53.6459 134.691 53.1959L134.594 53.099C134.381 51.2271 134.037 49.0817 134.037 49.0817C134.037 49.0817 133.728 46.6306 133.295 45.3131C132.861 43.9956 132.238 41.6688 132.238 41.6688C132.238 41.6688 130.812 38.8423 130.505 38.718C130.385 38.658 130.268 38.5916 130.156 38.5191C130.022 38.0964 129.939 37.6591 129.908 37.2165C129.831 34.7455 132.46 32.9905 132.856 30.5419C133.181 28.5531 131.933 26.5644 132.114 24.5483C132.198 23.6658 132.552 22.8356 132.743 21.9705C132.923 21.1312 132.948 20.2656 132.814 19.4174C132.751 18.9614 132.614 18.5188 132.408 18.1074C132.768 17.6405 133.068 17.1302 133.302 16.5885C133.703 15.44 133.27 14.1573 132.644 13.1082C130.631 9.76964 126.554 7.14204 122.742 6.80147C121.204 6.65977 119.662 6.63242 118.122 6.60757C116.355 6.57525 114.528 6.55536 112.894 7.24147C109.646 8.60623 108.109 12.2531 106.136 15.1964C104.506 17.6306 102.419 19.7222 99.992 21.354C98.8508 22.1196 97.5165 22.935 97.2491 24.2948C97.2237 24.4252 97.208 24.5573 97.2021 24.69C97.1687 24.5705 97.1415 24.4494 97.1204 24.3271C96.8506 25.7465 97.8482 27.0616 98.3581 28.4164C98.6246 29.1245 98.7783 29.8703 98.8136 30.6264C98.8335 30.2687 98.8335 29.9102 98.8136 29.5525C99.3087 32.1328 98.4002 34.9021 97.8383 37.5397C97.7962 37.7336 97.764 37.9275 97.7244 38.1214C97.2632 38.2505 96.8242 38.4492 96.4223 38.7105C95.5408 39.2997 94.5425 39.6898 93.4963 39.8541C92.0928 40.0754 90.8302 40.8368 89.9762 41.977C89.8177 42.1908 89.6643 42.3375 89.5306 42.3524C88.9736 42.417 85.8694 52.1518 85.8694 52.1518C85.8694 52.1518 85.2233 56.1616 85.2233 57.1013C85.2233 58.0409 84.1068 64.8275 84.1068 64.8275C84.1068 64.8275 83.733 66.0704 83.8593 66.585C83.9311 66.8709 83.7603 67.8279 83.5993 68.5986C83.5319 68.5704 83.4724 68.526 83.4261 68.4693C83.2404 68.0939 79.8242 68.4693 80.8813 70.9826C81.144 71.6587 81.5523 72.2682 82.0769 72.7674C81.6066 73.9507 81.1981 75.052 81.2526 75.1912C81.2526 75.1912 81.2526 76.0886 81.3318 77.1973C80.6065 77.6945 80.0124 78.142 80.0124 78.142C79.9604 79.5142 80.8714 79.733 81.7279 79.6832C81.9482 80.4787 82.27 81.1101 82.7428 81.2817C84.295 81.8485 85.2876 81.5974 85.7852 82.0274C86.2828 82.4575 88.9365 83.2928 88.9365 83.2928C90.0635 83.4633 91.199 83.572 92.3378 83.6184L92.7933 83.8471L92.7388 83.5985C92.8849 83.5712 92.818 83.3972 92.6348 83.1014C92.5532 82.721 92.4492 82.2238 92.3328 81.657L93.0136 81.4084L93.1993 81.6844C92.9517 82.987 92.7933 83.8546 92.7933 83.8546C92.7933 83.8546 91.5555 88.3143 92.11 89.0054C92.6645 89.6965 92.11 90.5765 92.11 90.5765C92.11 90.5765 91.9863 91.7051 92.2982 91.7051C92.6101 91.7051 92.9789 93.1494 92.6695 93.214C92.3601 93.2786 90.9367 94.4694 91.4318 94.7205C91.9269 94.9715 91.4318 95.5359 91.4318 96.1026C91.4318 96.5153 92.1893 97.1268 92.6002 97.4276C92.5259 97.6961 92.4492 97.982 92.3774 98.2629C92.1645 99.0932 91.9986 99.8936 92.0506 100.185C92.1744 100.876 91.7412 102.822 91.865 103.451C91.9887 104.08 92.4244 105.46 92.1125 106.026C91.8006 106.593 92.1744 108.475 92.1744 108.475L92.7339 113.812C92.7339 113.812 92.3625 115.321 92.7339 115.697C93.1052 116.072 93.4171 120.472 93.7884 120.974C94.1597 121.476 94.7217 124.114 94.2835 124.994C93.8454 125.874 94.843 127.694 94.843 127.694C94.843 127.694 94.7811 129.829 94.7811 130.393C94.7811 130.958 95.3381 131.838 95.3381 131.838C95.3381 131.838 95.8975 134.853 95.8332 135.606C95.7688 136.359 96.2045 137.428 96.2045 137.428C96.2045 137.428 96.5783 139.626 96.5164 140.128C96.4545 140.63 97.0115 141.321 97.0115 141.321C97.0115 141.321 97.6947 142.954 97.5066 143.646C97.3184 144.337 97.9398 145.028 97.9398 145.028C97.9398 145.028 97.8779 146.534 97.8779 146.723C97.8779 146.912 99.1825 148.419 99.1825 148.419C99.1825 148.419 98.623 149.55 98.9349 149.99C99.2468 150.43 99.1825 151.998 99.6776 152.503C100.173 153.007 100.049 155.076 100.668 155.454C101.287 155.831 101.846 156.145 101.97 156.96C102.094 157.775 102.591 158.971 103.151 159.16C103.257 159.233 103.349 159.325 103.423 159.431L103.175 160.488L102.411 163.682C102.411 163.682 101.668 168.328 101.727 169.019C101.787 169.71 100.985 170.401 100.985 170.401C100.985 170.401 100.301 174.421 100.178 174.923C100.054 175.425 100.24 176.368 100.24 176.368C100.24 176.368 99.8063 178.754 100.116 178.881C100.425 179.008 101.73 180.325 101.73 180.325H101.831L101.698 180.797L99.5563 188.429C99.5563 188.429 97.5759 191.758 102.165 193.453C102.319 193.751 102.46 193.759 102.294 193.702C102.445 193.831 105.512 196.436 105.76 197.657C106.007 198.877 108.119 200.168 108.864 200.294C109.609 200.421 114.575 204.438 116.375 200.483C118.174 196.528 113.209 193.95 113.209 193.95L109.428 191.507C109.428 191.507 107.505 188.68 107.201 188.178C106.896 187.676 106.332 185.225 106.705 184.849C106.896 184.656 107.493 182.935 108.032 181.3C108.082 181.143 108.134 180.989 108.183 180.835C109.238 181.083 110.431 180.586 110.431 180.586L113.196 176.206L113.691 175.438L113.78 175.617C113.78 175.617 116.078 175.806 117.194 175.995C117.549 176.009 117.903 175.965 118.244 175.863C118.286 175.955 118.328 176.049 118.367 176.144C118.638 176.726 118.868 177.327 119.056 177.941C119.241 178.756 119.429 181.645 119.429 181.645C119.429 181.645 118.192 185.792 117.877 186.545C117.563 187.298 118.187 193.58 124.333 191.067C124.333 191.067 125.076 189.873 125.759 189.873C126.442 189.873 128.118 188.178 127.492 186.356C126.866 184.534 124.274 178.945 126.066 175.995C127.512 173.618 127.396 170.431 125.452 168.95C125.371 168.887 125.284 168.833 125.205 168.778C125.226 168.462 125.226 168.145 125.205 167.828C124.769 161.8 121.987 161.484 121.987 161.484C121.987 161.484 120.373 161.109 120.187 160.49C120.078 160.127 118.679 158.253 117.521 156.729C117.56 156.664 117.598 156.6 117.635 156.535C117.635 156.513 117.659 156.49 117.669 156.468C117.724 156.366 117.776 156.262 117.825 156.152C118.726 154.119 118.494 151.16 118.447 150.631C118.385 149.94 118.447 149.06 118.447 148.056C118.447 147.051 119.437 145.542 119.316 144.978C119.194 144.414 120.496 142.089 120.496 141.523C120.496 140.956 121.41 137.563 121.41 137.563C121.41 137.563 123.209 133.667 123.583 132.536C123.94 131.452 130.297 111.694 130.812 110.093C130.821 110.058 130.833 110.023 130.846 109.989C130.846 109.989 132.876 103.319 131.517 98.9391C131.429 98.6499 131.322 98.3667 131.198 98.0914C131.614 97.89 131.901 97.7433 131.901 97.7433C131.901 97.7433 131.094 95.3569 131.465 94.4769C131.837 93.5968 131.589 91.9015 131.589 91.9015C131.589 91.9015 130.104 91.0214 130.039 90.6461C129.975 90.2707 129.356 89.7661 129.544 89.2639C129.732 88.7618 130.782 89.0153 130.661 87.8818C130.539 86.7482 129.235 85.5574 129.359 84.8663C129.482 84.1753 129.977 82.9199 129.359 82.1667C128.74 81.4134 128.49 80.2202 128.428 79.278C128.41 79.0294 128.465 78.2961 128.552 77.3291C129.213 77.7426 129.897 78.1202 130.599 78.4602C130.599 78.4602 133.267 78.838 133.394 78.587C133.632 78.267 133.903 77.9721 134.201 77.7069C137.552 76.8916 136.062 70.7464 136.062 70.7464C136.062 70.7464 136.013 70.2965 135.933 69.5557C136.018 69.5343 136.097 69.4963 136.166 69.4438C136.451 69.235 136.52 68.8372 136.693 68.524C136.891 68.2279 137.122 67.9559 137.382 67.7136C137.996 67.0424 138.359 66.1848 138.711 65.3421C138.934 64.8051 139.161 64.2681 139.387 63.7287C139.612 63.1893 139.882 62.5454 140.377 62.1551C140.946 61.6952 141.719 61.6057 142.444 61.5386C142.415 60.9808 142.207 60.4473 141.852 60.0172C142.07 59.9502 142.301 59.9333 142.526 59.9677C142.751 60.0021 142.966 60.087 143.154 60.2161C143.164 60.1992 143.174 60.1818 143.182 60.1639H143.196C143.238 60.1025 143.258 60.0291 143.253 59.9551ZM90.246 77.1551C90.2609 77.0308 90.2831 76.9065 90.3104 76.7822C90.4317 76.6678 90.5777 76.5336 90.7337 76.4093L91.6001 76.4938C91.3872 76.6678 91.2015 76.8269 91.0505 76.9562C90.7832 76.8195 90.4911 76.9537 90.246 77.1551ZM91.9788 75.4323C92.1015 75.4234 92.2222 75.3975 92.3378 75.3553C92.5036 75.3553 92.6744 75.3553 92.8477 75.3553H93.0953C92.6819 75.6461 92.2635 75.9693 91.8922 76.2701L91.9788 75.4522V75.4323ZM93.4072 62.7542C93.4072 62.7542 93.3503 64.5391 93.4765 66.3339C93.2834 66.4706 93.0829 66.6198 92.8849 66.7764L93.323 62.6374L93.4072 62.7542Z" fill="url(#paint0_linear)"/>
<path d="M125.739 189.61C125.059 189.61 124.316 190.791 124.316 190.791C118.189 193.277 117.57 187.062 117.88 186.316C118.189 185.57 119.427 181.469 119.427 181.469C119.427 181.469 119.241 178.61 119.055 177.802C118.868 177.194 118.639 176.6 118.37 176.024C117.954 175.072 117.508 174.135 117.508 174.135C117.508 174.135 120.169 167.548 123.697 168.169C124.326 168.275 124.92 168.53 125.43 168.915C127.368 170.381 127.484 173.536 126.041 175.875C124.247 178.796 126.846 184.327 127.465 186.13C128.084 187.932 126.42 189.61 125.739 189.61Z" fill="#FDC2CC"/>
<path d="M116.395 200.113C114.6 204.028 109.649 200.051 108.906 199.926C108.164 199.802 106.06 198.559 105.812 197.316C105.564 196.073 102.502 193.53 102.346 193.403C102.512 193.456 102.371 193.448 102.218 193.155C97.6379 191.477 99.6183 188.183 99.6183 188.183L101.752 180.631L102.341 178.55L109.025 178.115C109.025 178.115 108.567 179.584 108.057 181.128C107.52 182.746 106.926 184.449 106.735 184.641C106.364 185.013 106.921 187.437 107.23 187.934C107.54 188.432 109.458 191.228 109.458 191.228L113.233 193.652C113.233 193.652 118.189 196.198 116.395 200.113Z" fill="#FDC2CC"/>
<path opacity="0.1" d="M109.03 178.113C109.03 178.113 108.572 179.582 108.062 181.126C107.713 181.025 107.403 180.819 107.173 180.536L101.789 180.661L101.757 180.628L102.346 178.548L109.03 178.113Z" fill="black"/>
<path d="M130.814 110.558C130.814 110.558 130.814 110.593 130.782 110.66C130.267 112.244 123.93 131.79 123.574 132.869C123.202 133.988 121.407 137.841 121.407 137.841C121.407 137.841 120.479 141.197 120.479 141.756C120.479 142.316 119.18 144.615 119.303 145.174C119.427 145.734 118.437 147.225 118.437 148.22C118.437 149.214 118.375 150.084 118.437 150.768C118.484 151.292 118.714 154.221 117.816 156.237C117.62 156.706 117.329 157.129 116.962 157.48C116.862 157.57 116.755 157.654 116.642 157.728C114.414 159.22 114.229 174.508 114.229 174.508L114.125 174.672L113.221 176.094L110.454 180.42C110.454 180.42 108.226 181.352 107.173 180.047L101.789 180.171C101.789 180.171 100.49 178.866 100.18 178.742C99.8708 178.617 100.304 176.256 100.304 176.256C100.304 176.256 100.118 175.323 100.242 174.826C100.366 174.329 101.047 170.352 101.047 170.352C101.047 170.352 101.851 169.668 101.789 168.984C101.727 168.301 102.47 163.702 102.47 163.702L103.233 160.542L103.609 158.984L104.389 155.752L109.649 109.079L116.333 107.028L129.205 107.65L130.616 110.21L130.814 110.558Z" fill="#5F5D7E"/>
<path opacity="0.1" d="M112.681 133.491C112.619 134.671 112.31 136.474 112.433 137.53C112.557 138.587 112.99 142.564 112.805 143.31C112.619 144.056 113.486 144.926 113.795 145.299C114.104 145.672 113.919 146.79 113.981 147.66C114.043 148.53 114.847 149.338 114.847 149.338C114.847 149.338 113.919 151.327 114.6 151.638C115.28 151.948 116.704 154.807 116.704 154.807C116.704 154.807 117.181 155.411 117.815 156.232C117.573 156.831 117.166 157.348 116.642 157.723C114.414 159.215 114.228 174.503 114.228 174.503L114.124 174.667L112.743 171.893C112.743 171.893 104.512 159.401 103.955 159.215C103.821 159.162 103.702 159.077 103.608 158.966L104.388 155.734L109.649 109.062L116.332 107.011L129.205 107.632L122.427 108.316C122.427 108.316 119.414 110.486 119.395 110.553L113.981 112.853L112.99 127.768C112.99 127.768 112.743 132.31 112.681 133.491Z" fill="black"/>
<path opacity="0.1" d="M130.616 110.198C130.445 110.889 112.619 108.818 112.619 108.818L112.743 113.603L111.753 128.519C111.753 128.519 111.505 133.056 111.444 134.236C111.382 135.417 111.072 137.219 111.196 138.276C111.32 139.332 111.753 143.31 111.567 144.056C111.382 144.801 112.248 145.672 112.558 146.044C112.867 146.417 112.681 147.536 112.743 148.406C112.805 149.276 113.61 150.084 113.61 150.084C113.61 150.084 112.681 152.073 113.362 152.383C114.043 152.694 115.466 155.553 115.466 155.553C115.466 155.553 116.147 156.416 116.952 157.475C116.852 157.566 116.745 157.649 116.632 157.723C114.404 159.215 114.219 174.503 114.219 174.503L114.115 174.667L113.221 176.094L111.505 172.651C111.505 172.651 105.156 163.013 103.232 160.542L103.609 158.984L104.388 155.752L109.649 109.079L116.333 107.028L129.205 107.65L130.616 110.198Z" fill="black"/>
<path opacity="0.1" d="M125.437 168.905C125.19 173.355 120.521 175.532 118.37 176.024C117.954 175.072 117.508 174.135 117.508 174.135C117.508 174.135 120.169 167.548 123.697 168.169C124.327 168.271 124.924 168.523 125.437 168.905Z" fill="black"/>
<path d="M111.939 133.491C111.877 134.671 111.567 136.474 111.691 137.53C111.815 138.587 112.248 142.564 112.062 143.31C111.877 144.056 112.743 144.926 113.053 145.299C113.362 145.672 113.176 146.79 113.238 147.66C113.3 148.53 114.105 149.338 114.105 149.338C114.105 149.338 113.176 151.327 113.857 151.638C114.538 151.948 115.961 154.807 115.961 154.807C115.961 154.807 119.984 159.903 120.17 160.525C120.355 161.146 121.964 161.519 121.964 161.519C121.964 161.519 124.749 161.83 125.183 167.796C125.616 173.762 118.313 176.062 117.199 175.875C116.085 175.689 113.795 175.502 113.795 175.502L112.001 171.898C112.001 171.898 103.77 159.406 103.213 159.22C102.656 159.033 102.161 157.853 102.037 157.045C101.913 156.237 101.356 155.926 100.737 155.553C100.118 155.18 100.242 153.129 99.747 152.632C99.2519 152.135 99.3138 150.581 99.0044 150.146C98.6949 149.711 99.2519 148.593 99.2519 148.593C99.2519 148.593 97.9523 147.101 97.9523 146.915C97.9523 146.728 98.0142 145.237 98.0142 145.237C98.0142 145.237 97.3953 144.553 97.581 143.869C97.7666 143.186 97.0859 141.57 97.0859 141.57C97.0859 141.57 96.5289 140.886 96.5908 140.389C96.6527 139.892 96.2813 137.717 96.2813 137.717C96.2813 137.717 95.8481 136.66 95.91 135.914C95.9719 135.169 95.4149 132.186 95.4149 132.186C95.4149 132.186 94.8579 131.315 94.8579 130.756C94.8579 130.197 94.9198 128.084 94.9198 128.084C94.9198 128.084 93.9296 126.282 94.3628 125.411C94.796 124.541 94.2391 121.931 93.8677 121.434C93.4964 120.937 93.187 116.586 92.8157 116.214C92.4443 115.841 92.8157 114.349 92.8157 114.349L92.2587 109.067C92.2587 109.067 91.8874 107.202 92.1968 106.643C92.5062 106.084 92.073 104.716 91.9492 104.095C91.8255 103.473 92.2587 101.547 92.1349 100.863C92.0829 100.575 92.2488 99.7842 92.4592 98.9614C92.7513 97.8278 93.1251 96.6371 93.1251 96.6371C93.1251 96.6371 124.935 93.654 129.515 96.7614C130.505 97.4276 131.116 98.4394 131.495 99.6227C132.849 103.958 130.824 110.561 130.824 110.561L113.248 112.86L112.258 127.776C112.258 127.776 112.001 132.31 111.939 133.491Z" fill="#5F5D7E"/>
<path opacity="0.1" d="M106.864 155.615C106.864 155.615 112.372 153.937 113.671 155.056C114.971 156.175 106.864 155.615 106.864 155.615Z" fill="black"/>
<path opacity="0.1" d="M108.844 162.7C108.844 162.7 110.515 160.898 112.991 161.457C114.443 161.797 115.966 161.644 117.323 161.022L108.844 162.7Z" fill="black"/>
<path opacity="0.1" d="M114.662 164.751C114.662 164.751 119.179 164.129 119.365 164.689C119.551 165.248 114.662 164.751 114.662 164.751Z" fill="black"/>
<path opacity="0.1" d="M113.362 168.418C113.362 168.418 118.375 166.926 118.623 167.548C118.87 168.169 113.115 168.355 113.115 168.355L113.362 168.418Z" fill="black"/>
<path opacity="0.1" d="M118.994 134.92C118.994 134.92 114.29 139.084 114.971 139.519C115.652 139.954 118.994 134.92 118.994 134.92Z" fill="black"/>
<path opacity="0.1" d="M115.157 145.237C115.157 145.237 118.437 145.237 117.818 145.982C117.199 146.728 115.157 145.237 115.157 145.237Z" fill="black"/>
<path opacity="0.1" d="M117.137 148.157C117.137 148.157 115.838 149.276 116.147 149.525C116.457 149.773 117.137 148.157 117.137 148.157Z" fill="black"/>
<path opacity="0.1" d="M102.841 174.819C102.841 174.819 106.926 176.186 106.988 177.056C107.05 177.926 102.841 174.819 102.841 174.819Z" fill="black"/>
<path d="M122.645 44.8681L121.346 52.6365C121.346 52.6365 110.082 58.6027 109.896 58.6027C109.711 58.6027 101.665 57.2354 101.356 57.2354C101.047 57.2354 95.7862 41.2635 99.4994 40.2691C100.504 40.0007 101.963 39.3543 103.554 38.5514C107.847 36.3961 113.115 33.1222 113.115 33.1222C113.115 33.1222 120.974 32.2521 119.056 37.7211C118.313 39.8664 118.694 41.4276 119.444 42.5338C120.623 44.2491 122.645 44.8681 122.645 44.8681Z" fill="#FDC2CC"/>
<path opacity="0.1" d="M122.645 44.8681L121.346 52.6365C121.346 52.6365 110.082 58.6027 109.896 58.6027C109.711 58.6027 101.665 57.2355 101.356 57.2355C101.047 57.2355 95.7862 41.2635 99.4994 40.2691C100.504 40.0007 101.963 39.3543 103.554 38.5514C104.567 38.6185 105.255 38.7155 105.255 38.7155C105.255 38.7155 107.73 48.224 107.916 51.145C108.102 54.0659 114.538 54.3767 114.971 54.2524C115.404 54.1281 117.199 46.9811 117.199 46.9811C117.199 46.9811 117.013 44.4952 117.57 44.4952C118.036 44.4952 119.11 43.0036 119.444 42.5338C120.623 44.2491 122.645 44.8681 122.645 44.8681Z" fill="black"/>
<path opacity="0.1" d="M131.485 99.6227C130.624 100.045 128.564 101.01 128.019 100.866C127.339 100.679 125.668 100.679 125.668 100.679C125.668 100.679 124.677 101.798 123.625 101.549C122.573 101.301 118.427 101.487 118.427 101.487C118.427 101.487 111 101.798 109.577 101.301C108.154 100.803 103.079 100.368 103.079 100.368C103.079 100.368 96.1476 99.5605 94.9717 99.0634C94.6402 98.9181 94.276 98.8645 93.9169 98.9082C93.5578 98.9519 93.2168 99.0913 92.9295 99.3119C92.9295 99.3119 92.7141 99.1702 92.4492 98.9639C92.7413 97.8303 93.1151 96.6396 93.1151 96.6396C93.1151 96.6396 124.925 93.6565 129.505 96.7639C130.495 97.4276 131.116 98.4394 131.485 99.6227Z" fill="black"/>
<path d="M105.255 39.2127C105.255 39.2127 99.0041 38.3426 96.5286 40.0206C95.649 40.604 94.6543 40.9898 93.6125 41.1517C92.2157 41.3691 90.9574 42.1221 90.1022 43.2523C89.9438 43.4661 89.7903 43.6102 89.6591 43.6252C89.1022 43.6873 86.0078 53.3202 86.0078 53.3202L93.4961 63.8231C93.4961 63.8231 93.3105 69.665 94.3626 70.7837C95.4146 71.9023 92.8773 84.7047 92.8773 84.7047C92.8773 84.7047 91.6395 89.1172 92.1965 89.8008C92.7535 90.4845 92.1965 91.3545 92.1965 91.3545C92.1965 91.3545 92.0727 92.4732 92.3822 92.4732C92.6916 92.4732 93.0629 93.9026 92.7535 93.9647C92.4441 94.0269 91.0207 95.2077 91.5158 95.4563C92.0108 95.7049 91.5158 96.2642 91.5158 96.8235C91.5158 97.3829 92.9392 98.3151 92.9392 98.3151C93.2265 98.0944 93.5674 97.955 93.9266 97.9113C94.2857 97.8676 94.6499 97.9212 94.9814 98.0665C96.1573 98.5637 103.089 99.3716 103.089 99.3716C103.089 99.3716 108.163 99.8066 109.587 100.304C111.01 100.801 118.437 100.49 118.437 100.49C118.437 100.49 122.583 100.304 123.635 100.552C124.687 100.801 125.677 99.6823 125.677 99.6823C125.677 99.6823 127.348 99.6823 128.029 99.8688C128.71 100.055 131.866 98.4394 131.866 98.4394C131.866 98.4394 131.062 96.0778 131.433 95.2077C131.804 94.3376 131.557 92.6596 131.557 92.6596C131.557 92.6596 130.071 91.7896 130.009 91.4167C129.948 91.0438 129.329 90.5466 129.514 90.0494C129.7 89.5523 130.752 89.8008 130.628 88.6822C130.505 87.5635 129.205 86.3827 129.329 85.6991C129.452 85.0155 129.948 83.7725 129.329 83.0268C128.71 82.281 128.462 81.1002 128.4 80.168C128.338 79.2357 129.329 70.7837 129.329 70.7837L127.039 53.7552L134.032 50.275C134.032 50.275 133.723 47.8512 133.289 46.5461C132.856 45.241 132.237 42.9415 132.237 42.9415C132.237 42.9415 130.814 40.1449 130.505 40.0206C130.195 39.8963 126.915 37.7211 126.172 38.0319C125.43 38.3426 119.551 42.8794 119.551 42.8794C119.551 42.8794 118.127 44.9924 117.57 44.9924C117.013 44.9924 117.199 47.4783 117.199 47.4783C117.199 47.4783 115.404 54.6253 114.971 54.7496C114.538 54.8739 108.101 54.5631 107.916 51.6422C107.73 48.7213 105.255 39.2127 105.255 39.2127Z" fill="#D39999"/>
<path d="M95.551 75.9568C94.6925 76.1464 93.8181 76.2546 92.9394 76.28C91.6695 76.3148 90.5531 76.1532 90.2783 75.6933C89.5356 74.4504 89.5356 72.0887 89.5356 72.0887C89.5356 72.0887 92.8924 72.8668 95.2094 73.717L95.5931 73.8612C96.4917 74.2117 97.175 74.5697 97.326 74.8829C97.5413 75.303 96.712 75.6958 95.551 75.9568Z" fill="#FDC2CC"/>
<path opacity="0.1" d="M119.86 41.3878C126.115 41.3878 131.185 36.2959 131.185 30.0148C131.185 23.7337 126.115 18.6418 119.86 18.6418C113.605 18.6418 108.535 23.7337 108.535 30.0148C108.535 36.2959 113.605 41.3878 119.86 41.3878Z" fill="black"/>
<path d="M119.86 40.8906C126.115 40.8906 131.185 35.7988 131.185 29.5176C131.185 23.2365 126.115 18.1446 119.86 18.1446C113.605 18.1446 108.535 23.2365 108.535 29.5176C108.535 35.7988 113.605 40.8906 119.86 40.8906Z" fill="#FDC2CC"/>
<path opacity="0.1" d="M94.7959 90.9195C94.7959 90.9195 98.014 90.9195 99.2518 91.2302C100.49 91.541 103.089 91.6031 103.089 91.6031C103.089 91.6031 95.9099 91.3545 94.7959 90.9195Z" fill="black"/>
<path opacity="0.1" d="M94.9199 92.9082C94.9199 92.9082 99.0664 93.2189 99.1282 93.8404C99.1901 94.4619 94.9199 92.9082 94.9199 92.9082Z" fill="black"/>
<path opacity="0.1" d="M126.482 85.264C126.482 85.264 129.019 86.1963 128.957 86.507C128.896 86.8177 126.729 86.0098 126.482 85.264Z" fill="black"/>
<path d="M87.6169 52.2015L86.0078 53.3202C86.0078 53.3202 85.3271 57.2976 85.3271 58.2299C85.3271 59.1621 84.2131 65.874 84.2131 65.874C84.2131 65.874 83.8418 67.117 83.9656 67.6142C84.0893 68.1113 83.4705 70.6594 83.4705 70.6594C83.4705 70.6594 81.2425 75.8176 81.3663 76.1284C81.4901 76.4391 91.949 77.4335 91.949 77.4335L93.4342 63.5124L87.6169 52.2015Z" fill="#D39999"/>
<path d="M82.9137 74.4504L81.3666 76.1284C81.3666 76.1284 81.3047 81.5974 82.8518 82.1567C84.399 82.716 85.3892 82.4674 85.8843 82.9025C86.3794 83.3375 89.0405 84.1454 89.0405 84.1454C89.0405 84.1454 91.9492 84.5804 92.8156 84.4561C93.682 84.3318 87.7409 79.5465 91.6398 75.5069L82.9137 74.4504Z" fill="#D39999"/>
<path d="M131.866 47.8512L134.032 50.275C134.032 50.275 134.96 56.0547 134.713 56.8626C134.465 57.6705 136.013 71.7159 136.013 71.7159C136.013 71.7159 137.498 77.8064 134.156 78.6143C133.859 78.8762 133.59 79.1677 133.351 79.4843C133.228 79.7329 130.566 79.36 130.566 79.36L126.482 52.4501L131.866 47.8512Z" fill="#D39999"/>
<path opacity="0.1" d="M102.408 70.1C102.408 70.1 110.515 65.2525 112 65.0039C113.486 64.7553 122.707 60.3428 122.707 60.3428C122.707 60.3428 127.287 62.7044 127.72 64.5067C128.153 66.309 125.801 73.5181 125.801 73.5181C125.801 73.5181 118.251 78.8007 117.818 79.9193C117.385 81.038 110.887 84.3318 110.887 84.8912C110.887 85.4505 100.613 91.5409 96.0955 86.1963C91.5778 80.8516 91.6397 79.2979 91.6397 79.2979L103.089 76.6255L104.203 71.6537L102.408 70.1Z" fill="black"/>
<path d="M102.408 69.6029C102.408 69.6029 110.515 64.7554 112 64.5068C113.486 64.2582 122.707 59.8457 122.707 59.8457C122.707 59.8457 127.287 62.2073 127.72 64.0096C128.153 65.8119 125.801 73.021 125.801 73.021C125.801 73.021 118.251 78.3036 117.818 79.4222C117.385 80.5409 110.887 83.8347 110.887 84.394C110.887 84.9534 100.613 91.0438 96.0955 85.6991C91.5778 80.3544 91.6397 78.8007 91.6397 78.8007L103.089 76.1284L104.203 71.1566L102.408 69.6029Z" fill="#C4C8E2"/>
<path d="M89.907 71.7781L89.5357 74.8854L86.5924 74.6692L83.7183 74.4554C83.7183 74.4554 82.0474 74.4554 80.9953 71.9695C79.9432 69.4836 83.347 69.1107 83.5327 69.4836C83.6738 69.7645 87.2459 70.9353 88.9787 71.4897L89.907 71.7781Z" fill="#FDC2CC"/>
<path opacity="0.1" d="M89.9069 71.7781L89.5356 74.8854L86.5923 74.6692C87.0725 73.9532 88.0776 72.6431 88.9811 71.4897L89.9069 71.7781Z" fill="black"/>
<path opacity="0.1" d="M89.5356 72.0887C89.5356 72.0887 92.8924 72.8668 95.2094 73.717C95.056 73.9656 94.0311 75.5765 92.9394 76.28C91.6695 76.3148 90.5531 76.1532 90.2783 75.6933C89.5356 74.4504 89.5356 72.0887 89.5356 72.0887Z" fill="black"/>
<path opacity="0.1" d="M95.551 75.9568L95.4965 75.5268C95.4965 75.5268 95.4718 75.4348 95.4495 75.2956C95.4049 75.0122 95.3727 74.5349 95.5807 74.2441C95.702 74.0725 95.6747 73.9507 95.5955 73.8637C96.4941 74.2142 97.1774 74.5722 97.3284 74.8854C97.5413 75.303 96.712 75.6958 95.551 75.9568Z" fill="black"/>
<path d="M106.059 73.9233C106.059 73.9233 102.698 77.3017 102.49 78.0251C102.282 78.7485 95.9296 78.7709 95.9296 78.7709L95.4964 75.2906C95.4964 75.2906 95.4716 75.1986 95.4493 75.0594C95.4048 74.776 95.3726 74.2987 95.5805 74.0079C95.89 73.5728 95.229 73.4485 95.229 73.4485C95.229 73.4485 93.516 76.285 92.0728 76.3695C92.0728 76.3695 90.0726 77.8188 90.0924 78.1096C90.0924 78.1096 89.122 78.9996 89.1022 80.076C89.0824 81.1524 87.8447 81.5899 86.9362 81.2791C86.0277 80.9684 83.7799 80.3047 83.0571 80.4091C82.3342 80.5135 80.0469 81.1946 80.1286 79.0617C80.1286 79.0617 83.0992 76.8244 83.8418 76.8865C84.5845 76.9487 86.3173 76.0786 86.5648 75.395C86.8124 74.7114 91.0207 69.491 91.0207 69.491C91.0207 69.491 93.6818 66.9628 94.7537 66.7142C94.7537 66.7142 96.9 65.0362 100.138 67.5843C100.138 67.5843 104.616 70.3586 104.76 70.7314C104.873 71.0248 106.173 72.2777 106.282 73.2173C106.307 73.3443 106.3 73.4757 106.261 73.5991C106.222 73.7225 106.153 73.8341 106.059 73.9233Z" fill="#FDC2CC"/>
<path opacity="0.1" d="M95.5582 68.9814C95.5582 68.9814 95.8875 70.8881 95.7241 71.5717C95.5607 72.2553 95.229 73.4361 95.229 73.4361C95.229 73.4361 97.2292 70.2865 95.5582 68.9814Z" fill="black"/>
<path opacity="0.1" d="M95.7021 73.6226C95.7021 73.6226 96.7344 72.4815 96.9622 72.7724C97.1899 73.0632 95.7021 73.6226 95.7021 73.6226Z" fill="black"/>
<path d="M137.963 61.991C137.963 63.5725 137.45 65.1109 136.501 66.3732C135.553 67.6355 134.22 68.5529 132.706 68.9864C132.072 69.1692 131.416 69.2629 130.757 69.2648H130.72C129.769 69.2644 128.828 69.076 127.95 68.7103C127.071 68.3446 126.273 67.8087 125.601 67.1333C124.929 66.4579 124.396 65.6561 124.032 64.7738C123.669 63.8915 123.482 62.9459 123.482 61.991C123.481 61.5641 123.519 61.1381 123.596 60.7182C123.878 59.1282 124.68 57.6781 125.876 56.5975C127.071 55.5169 128.591 54.8675 130.195 54.7521C130.369 54.7371 130.544 54.7297 130.72 54.7297C132.639 54.729 134.48 55.4934 135.838 56.855C137.196 58.2165 137.961 60.0638 137.963 61.991Z" fill="#F8BDC5"/>
<path d="M141.783 61.0986C142.137 61.5234 142.343 62.0521 142.372 62.605C141.649 62.6721 140.887 62.7591 140.313 63.2141C139.817 63.6019 139.57 64.2084 139.322 64.7727C139.096 65.3047 138.872 65.8367 138.649 66.3687C138.297 67.2014 137.936 68.0516 137.325 68.7154C137.065 68.9547 136.834 69.2233 136.636 69.5158C136.466 69.8266 136.389 70.2193 136.112 70.4282C135.972 70.5138 135.814 70.5634 135.65 70.5725C135.487 70.5816 135.324 70.5499 135.176 70.4804C134.871 70.366 134.599 70.1746 134.295 70.0528C134.099 69.9772 133.896 69.9238 133.688 69.8937C132.782 69.7594 131.784 69.9558 131.015 69.4661C130.925 69.4067 130.843 69.3384 130.767 69.2623C130.466 68.9662 130.249 68.5958 130.136 68.1884C130.079 68.0232 130.059 67.8476 130.076 67.6738C130.112 67.5148 130.182 67.3656 130.281 67.2367C130.38 67.1078 130.506 67.0024 130.651 66.928C130.693 66.9031 130.735 66.8783 130.779 66.8559C131.522 66.4656 132.554 66.3736 132.943 65.613C133.314 64.892 132.854 64.0145 132.289 63.4328C132.022 63.1594 131.705 62.8486 131.742 62.4658C131.777 62.1277 132.077 61.8916 132.327 61.6653C133.034 61.0228 133.511 60.1639 133.683 59.2217C133.749 58.9306 133.744 58.6279 133.668 58.3392C133.591 58.1322 133.485 57.9372 133.354 57.76L132.552 56.5668C132.304 56.1456 131.966 55.7854 131.562 55.5127C131.228 55.3114 130.844 55.2418 130.507 55.0429C130.379 54.9725 130.271 54.8697 130.195 54.7446C130.153 54.6746 130.139 54.591 130.156 54.5109C130.198 54.312 130.403 54.2151 130.609 54.1579C131.14 54.003 131.696 53.9498 132.247 54.0013C132.422 54.0386 132.603 54.0386 132.777 54.0013C132.864 53.978 132.939 53.9243 132.99 53.85C133.04 53.7756 133.062 53.6855 133.052 53.5961C133.661 53.437 134.238 53.9143 134.683 54.3618C135.129 54.8092 135.673 55.2989 136.302 55.1722C136.528 55.1274 136.735 54.9982 136.963 54.9733C137.191 54.9484 137.473 55.0976 137.458 55.3288C137.443 55.56 137.156 55.7091 137.181 55.9329C137.196 56.0103 137.231 56.0823 137.283 56.1417C137.568 56.5366 137.907 56.8897 138.29 57.1907C138.29 56.7507 138.29 56.3082 138.29 55.8682C138.785 55.9925 138.966 56.6289 138.909 57.1435C138.852 57.6581 138.661 58.1776 138.78 58.6798C138.795 58.7658 138.83 58.8471 138.881 58.9175C138.933 58.9878 139 59.0451 139.077 59.085C139.205 59.1196 139.339 59.1196 139.466 59.085C140.602 58.9234 141.929 59.2267 142.493 60.2285L141.503 59.868L142.654 60.4995C142.812 60.5723 142.952 60.6782 143.065 60.8102C143.12 60.8772 143.152 60.9599 143.158 61.0465C143.163 61.1331 143.141 61.2191 143.095 61.2925C142.905 61.1639 142.688 61.0797 142.461 61.0461C142.234 61.0126 142.002 61.0305 141.783 61.0986Z" fill="#585268"/>
<g opacity="0.1">
<path opacity="0.1" d="M139.602 59.0278C139.73 59.0625 139.864 59.0625 139.991 59.0278C140.102 59.0129 140.214 59.003 140.328 58.9955C140.08 58.9797 139.831 58.9872 139.585 59.0179L139.602 59.0278Z" fill="black"/>
<path opacity="0.1" d="M142.019 59.8184L142.444 60.0545L142.365 59.9426L142.019 59.8184Z" fill="black"/>
<path opacity="0.1" d="M138.825 57.1335C138.825 56.8452 138.825 56.5543 138.825 56.2635C138.782 56.1552 138.715 56.0582 138.63 55.9798C138.544 55.9014 138.441 55.8437 138.33 55.811V56.6861C138.486 56.8455 138.651 56.9949 138.825 57.1335Z" fill="black"/>
<path opacity="0.1" d="M142.513 61.0116C142.732 61.0493 142.939 61.1341 143.122 61.2602C143.166 61.2024 143.188 61.1311 143.184 61.0588C142.966 60.9947 142.738 60.9786 142.513 61.0116Z" fill="black"/>
<path opacity="0.1" d="M135.723 70.4431C135.419 70.3287 135.146 70.1373 134.842 70.0155C134.646 69.9399 134.443 69.8865 134.235 69.8564C133.329 69.7222 132.332 69.9186 131.562 69.4288C131.473 69.3694 131.39 69.3011 131.314 69.225C131.014 68.9289 130.796 68.5585 130.683 68.1511C130.627 67.9859 130.606 67.8103 130.624 67.6365C130.659 67.4775 130.729 67.3283 130.828 67.1994C130.927 67.0705 131.054 66.9651 131.198 66.8907C131.24 66.8659 131.282 66.841 131.327 66.8186C132.082 66.4283 133.102 66.3364 133.49 65.5757C133.862 64.8548 133.401 63.9772 132.837 63.3955C132.569 63.1221 132.253 62.8114 132.29 62.4285C132.324 62.0904 132.624 61.8543 132.874 61.6281C133.581 60.9855 134.058 60.1266 134.23 59.1844C134.296 58.8933 134.291 58.5906 134.216 58.3019C134.139 58.0949 134.033 57.8999 133.901 57.7227L133.099 56.5295C132.852 56.1083 132.513 55.7481 132.109 55.4754C131.775 55.2741 131.391 55.2045 131.054 55.0056C130.926 54.9352 130.819 54.8324 130.743 54.7073C130.7 54.6373 130.686 54.5537 130.703 54.4736C130.745 54.2747 130.963 54.1778 131.156 54.1206C131.479 54.0297 131.811 53.9746 132.146 53.9566C131.645 53.9269 131.143 53.9824 130.661 54.1206C130.468 54.1778 130.25 54.2747 130.208 54.4736C130.191 54.5537 130.205 54.6373 130.247 54.7073C130.324 54.8324 130.431 54.9352 130.559 55.0056C130.896 55.2045 131.28 55.2741 131.614 55.4754C132.018 55.7481 132.357 56.1083 132.604 56.5295L133.406 57.7227C133.538 57.8999 133.644 58.0949 133.721 58.3019C133.796 58.5906 133.801 58.8933 133.735 59.1844C133.563 60.1266 133.086 60.9855 132.379 61.6281C132.131 61.8543 131.829 62.0904 131.795 62.4285C131.758 62.8114 132.074 63.1221 132.342 63.3955C132.906 63.9772 133.367 64.8548 132.995 65.5757C132.607 66.3339 131.587 66.4259 130.832 66.8186C130.787 66.841 130.745 66.8659 130.703 66.8907C130.559 66.9651 130.432 67.0705 130.333 67.1994C130.234 67.3283 130.164 67.4775 130.129 67.6365C130.111 67.8103 130.131 67.9859 130.188 68.1511C130.301 68.5585 130.519 68.9289 130.819 69.225C130.895 69.3011 130.978 69.3694 131.067 69.4288C131.837 69.926 132.834 69.7222 133.74 69.8564C133.948 69.8865 134.151 69.9399 134.347 70.0155C134.651 70.1373 134.924 70.3287 135.228 70.4431C135.449 70.5342 135.693 70.555 135.926 70.5027C135.857 70.4878 135.789 70.4679 135.723 70.4431Z" fill="black"/>
<path opacity="0.1" d="M136.837 55.115C136.99 55.0759 137.139 55.0269 137.285 54.9683C137.198 54.9253 137.1 54.9073 137.003 54.9161C136.793 54.9662 136.586 55.0293 136.384 55.1051C136.533 55.142 136.687 55.1454 136.837 55.115Z" fill="black"/>
<path opacity="0.1" d="M132.782 53.9566C132.958 53.9898 133.138 53.9856 133.312 53.9441C133.398 53.9209 133.473 53.8676 133.524 53.7937C133.574 53.7199 133.597 53.6304 133.587 53.5414C133.425 53.4993 133.254 53.4993 133.092 53.5414C133.102 53.6308 133.08 53.7209 133.029 53.7953C132.979 53.8696 132.904 53.9234 132.817 53.9466C132.8 53.9519 132.783 53.9561 132.765 53.959L132.782 53.9566Z" fill="black"/>
</g>
<path d="M124.192 58.0136C123.269 58.7072 121.796 59.0079 120.442 59.1074C119.383 59.1916 118.32 59.1916 117.261 59.1074L114.877 58.2075C114.877 58.2075 115.07 57.8222 115.397 57.3126C116.048 56.2983 117.231 54.7894 118.466 54.8515C120.323 54.9435 122.274 55.0355 122.459 55.0355C122.645 55.0355 126.264 56.4599 124.192 58.0136Z" fill="#FDC2CC"/>
<path d="M118.162 8.25317C116.4 8.22086 114.58 8.20097 112.964 8.88211C109.713 10.232 108.181 13.839 106.215 16.7475C104.585 19.1578 102.505 21.2271 100.089 22.8405C98.95 23.5862 97.6281 24.4066 97.3533 25.749C97.0612 27.1684 98.0712 28.4835 98.591 29.8283C99.6926 32.6896 98.591 35.8591 97.94 38.8571C97.6354 40.297 97.4393 41.7579 97.3533 43.2274C97.2825 43.9078 97.3269 44.5953 97.4845 45.2608C97.9796 47.0159 99.851 48.2837 99.8659 50.1083C99.8659 51.3513 98.9945 52.5246 99.2495 53.7328C99.5787 55.2765 101.445 55.8334 102.992 56.0994C103.363 56.2016 103.755 56.1894 104.119 56.0646C104.366 55.9452 104.569 55.7165 104.822 55.5898C105.681 55.1622 106.634 56.0646 107.594 56.0472C108.8 56.0248 109.478 54.5954 109.508 53.3848C109.538 52.1741 109.216 50.8989 109.649 49.7802C110.226 48.2887 111.877 47.5802 113.271 46.7971C114.813 45.9295 116.281 44.6766 116.736 42.9639C117.021 41.9049 116.892 40.7837 116.778 39.6949C116.605 38.0244 116.469 36.3464 116.375 34.6709C116.127 30.3951 119.665 26.8328 123.915 27.1659H123.994C125.232 27.2679 126.693 27.3872 127.566 26.4823C127.913 26.1219 128.133 25.6247 128.557 25.3761C129.383 24.9038 130.52 25.5774 131.352 25.1126C132.003 24.7471 132.141 23.8696 132.04 23.1239C131.938 22.3781 131.678 21.6323 131.817 20.9015C132.015 19.8648 132.953 19.124 133.302 18.1272C133.703 16.9911 133.27 15.7208 132.646 14.6917C130.648 11.3829 126.581 8.79261 122.769 8.44459C121.237 8.29543 119.699 8.27803 118.162 8.25317Z" fill="#865A61"/>
<path opacity="0.1" d="M115.397 57.3051C116.867 57.6083 118.657 58.282 120.442 59.1049C119.383 59.1891 118.319 59.1891 117.261 59.1049L114.877 58.205C114.877 58.205 115.07 57.8147 115.397 57.3051Z" fill="black"/>
<path opacity="0.1" d="M133.691 69.8937C132.785 69.7594 131.787 69.9558 131.017 69.4661C130.928 69.4067 130.845 69.3384 130.77 69.2623H130.733C129.781 69.2636 128.838 69.0765 127.959 68.7116C127.079 68.3468 126.28 67.8114 125.606 67.1361C124.933 66.4607 124.399 65.6587 124.034 64.7759C123.67 63.893 123.482 62.9467 123.482 61.991C123.481 61.5641 123.519 61.138 123.596 60.7182C126.133 62.1426 128.19 63.6068 128.586 64.3228C129.172 65.265 129.861 66.1381 130.641 66.9255C131.332 67.6713 132.072 68.3872 132.706 68.9863C133.082 69.3368 133.421 69.6476 133.691 69.8937Z" fill="black"/>
<path d="M134.094 70.7215C134.094 70.7215 129.576 66.8062 128.339 64.5689C127.101 62.3316 109.711 52.823 111.939 60.0321C114.167 67.2412 121.84 67.9248 121.84 67.9248C121.84 67.9248 124.316 70.7215 124.564 72.0887C124.811 73.456 125.677 75.4447 125.677 75.4447L129.824 77.3091L131.742 76.8741C131.742 76.8741 136.26 74.3882 134.094 70.7215Z" fill="#FDC2CC"/>
<path opacity="0.1" d="M125.43 75.1961C125.43 75.1961 132.733 79.36 133.475 69.6028L135.332 70.2243L133.475 76.812L130.319 79.1114C130.319 79.1114 125.925 77.0606 125.43 75.1961Z" fill="black"/>
<path d="M125.678 75.4447C125.678 75.4447 132.98 79.6086 133.723 69.8514L135.58 70.4729L133.723 77.0606L130.567 79.36C130.567 79.36 126.173 77.3092 125.678 75.4447Z" fill="#D39999"/>
<path d="M132.126 26.0001C132.21 25.1275 132.564 24.3047 132.75 23.447C132.933 22.6174 132.958 21.7604 132.824 20.9214C132.749 20.3153 132.524 19.7376 132.171 19.2409C131.923 18.9301 131.18 18.2465 130.747 18.5548C130.5 18.7313 130.433 19.753 130.334 20.0463C129.986 21.0316 129.521 21.9707 128.947 22.843C130.172 24.5394 130.905 26.5424 131.068 28.6311C131.23 30.7198 130.814 32.8128 129.867 34.6793C128.919 36.5458 127.477 38.1131 125.698 39.2083C123.92 40.3035 121.874 40.884 119.788 40.8857C119.518 40.8857 119.251 40.8732 118.986 40.8533C118.739 41.2859 118.513 41.7234 118.286 42.1609C118.017 42.6052 117.835 43.0972 117.751 43.6102C117.73 44.1006 117.805 44.5904 117.971 45.052C118.432 46.5707 119.069 48.0299 119.867 49.3999C120.146 49.8252 120.374 50.2815 120.548 50.7597C120.689 51.2196 120.714 51.7118 120.897 52.1543C121.308 53.1486 122.383 53.6458 123.373 54.061C123.964 54.3096 124.583 54.5581 125.222 54.5059C125.282 54.5105 125.342 54.5024 125.398 54.4822C125.455 54.462 125.507 54.4302 125.55 54.3888C125.594 54.3473 125.628 54.2972 125.651 54.2416C125.675 54.186 125.686 54.1262 125.685 54.0659C125.719 53.8054 125.692 53.5404 125.606 53.2922C125.52 53.044 125.378 52.8194 125.19 52.6365C126.029 52.9009 126.911 53.0063 127.789 52.9473C127.868 52.9638 127.949 52.9572 128.024 52.9283C128.099 52.8995 128.164 52.8496 128.212 52.7846C128.259 52.7196 128.287 52.6423 128.292 52.5618C128.297 52.4813 128.279 52.4011 128.24 52.3308C128.012 51.3931 127.664 50.489 127.205 49.641C126.754 48.8058 126.18 47.8338 126.591 46.9811C126.826 46.4839 127.321 46.2055 127.772 45.9097C129.294 44.9153 130.643 43.2945 130.524 41.4723C130.46 40.478 129.96 39.5308 129.93 38.529C129.854 36.0854 132.473 34.3378 132.869 31.924C133.183 29.9502 131.935 27.9962 132.126 26.0001Z" fill="#865A61"/>
<g opacity="0.1">
<path opacity="0.1" d="M99.7322 49.1141C99.7174 47.2894 97.8484 46.0216 97.3508 44.2666C97.2742 43.9898 97.2269 43.7056 97.2097 43.4189C97.1546 44.0365 97.2022 44.6591 97.3508 45.2609C97.8063 46.8644 99.4005 48.0626 99.6852 49.6511C99.717 49.4739 99.7327 49.2941 99.7322 49.1141Z" fill="black"/>
<path opacity="0.1" d="M107.461 55.0529C106.5 55.0703 105.547 54.1679 104.688 54.5955C104.441 54.7223 104.243 54.951 103.985 55.0703C103.622 55.1952 103.229 55.2073 102.859 55.1051C101.317 54.8391 99.4553 54.2848 99.1211 52.7534C99.0579 53.0769 99.0579 53.4095 99.1211 53.7329C99.4503 55.2766 101.317 55.8335 102.864 56.0995C103.234 56.2017 103.627 56.1895 103.99 56.0647C104.238 55.9454 104.441 55.7166 104.693 55.5899C105.552 55.1623 106.505 56.0647 107.466 56.0473C108.671 56.0249 109.35 54.5955 109.379 53.3849C109.379 53.1363 109.379 52.8877 109.362 52.6391C109.236 53.7876 108.582 55.0305 107.461 55.0529Z" fill="black"/>
<path opacity="0.1" d="M116.607 41.9671C116.147 43.6799 114.679 44.9328 113.142 45.8003C111.748 46.5859 110.097 47.2919 109.52 48.7834C109.308 49.4276 109.235 50.1099 109.307 50.7846C109.329 50.4403 109.4 50.1011 109.52 49.7778C110.097 48.2862 111.748 47.5778 113.142 46.7947C114.684 45.9271 116.152 44.6742 116.607 42.9614C116.765 42.3111 116.817 41.6397 116.763 40.9727C116.744 41.3085 116.692 41.6416 116.607 41.9671Z" fill="black"/>
<path opacity="0.1" d="M130.161 24.2799C129.564 24.2351 128.943 24.0959 128.428 24.3843C127.995 24.6329 127.774 25.1301 127.438 25.4905C126.564 26.3954 125.116 26.2761 123.866 26.1742H123.786C119.536 25.841 116.004 29.4058 116.246 33.6791C116.246 33.7114 116.246 33.7462 116.246 33.7785C116.305 32.8464 116.547 31.9352 116.959 31.0975C117.37 30.2598 117.943 29.5122 118.643 28.8978C119.344 28.2833 120.158 27.8141 121.04 27.5173C121.922 27.2206 122.854 27.102 123.782 27.1685H123.861C125.098 27.2704 126.559 27.3898 127.433 26.4849C127.779 26.1244 128 25.6273 128.423 25.3787C128.918 25.0903 129.549 25.2295 130.156 25.2743C130.632 26.4626 130.904 27.7234 130.96 29.0031C130.96 28.8415 130.973 28.6799 130.973 28.5059C130.973 27.0582 130.697 25.6237 130.161 24.2799Z" fill="black"/>
<path opacity="0.1" d="M98.9203 32.021C98.9945 30.9401 98.8401 29.8557 98.4673 28.839C98.0762 27.8223 97.4053 26.8254 97.2296 25.7888C96.9597 27.1934 97.9573 28.4935 98.4673 29.8334C98.7318 30.5341 98.8847 31.2724 98.9203 32.021Z" fill="black"/>
<path opacity="0.1" d="M132.765 21.5006C132.743 21.821 132.696 22.1392 132.627 22.4527C132.441 23.3103 132.087 24.1332 132.003 25.0057C131.973 25.3166 131.973 25.6296 132.003 25.9404C132.097 25.0903 132.436 24.2848 132.619 23.4545C132.762 22.8139 132.812 22.1556 132.765 21.5006Z" fill="black"/>
<path opacity="0.1" d="M132.735 30.9347C132.339 33.3485 129.72 35.0961 129.797 37.5397C129.801 37.672 129.813 37.804 129.832 37.935C130.144 35.7946 132.374 34.1415 132.735 31.929C132.797 31.5283 132.805 31.1213 132.76 30.7184C132.753 30.7905 132.753 30.8626 132.735 30.9347Z" fill="black"/>
<path opacity="0.1" d="M133.186 17.1279C132.952 17.6606 132.653 18.1617 132.295 18.6195C132.398 18.8197 132.481 19.0295 132.542 19.2459C132.804 18.8971 133.017 18.5151 133.179 18.1099C133.334 17.6459 133.373 17.1507 133.293 16.668C133.271 16.8242 133.235 16.9781 133.186 17.1279Z" fill="black"/>
<path opacity="0.1" d="M130.361 41.2064C130.141 42.7277 128.955 44.0527 127.638 44.9203C127.188 45.2161 126.693 45.5045 126.458 45.9917C126.295 46.3584 126.271 46.7721 126.391 47.1551C126.408 47.097 126.431 47.0405 126.458 46.9861C126.693 46.4889 127.188 46.2105 127.638 45.9147C129.161 44.9203 130.51 43.2995 130.391 41.4773C130.386 41.3853 130.374 41.2959 130.361 41.2064Z" fill="black"/>
<path opacity="0.1" d="M125.41 53.4073C125.319 53.4777 125.207 53.5161 125.091 53.5166C124.452 53.5713 123.834 53.3202 123.242 53.0717C122.252 52.659 121.172 52.1568 120.766 51.165C120.583 50.7225 120.558 50.2303 120.417 49.7704C120.244 49.2922 120.015 48.8359 119.737 48.4106C118.938 47.0406 118.301 45.5814 117.84 44.0627C117.768 43.8333 117.709 43.6001 117.662 43.3642C117.645 43.4462 117.63 43.5308 117.62 43.6128C117.599 44.1032 117.674 44.593 117.84 45.0546C118.301 46.5733 118.938 48.0325 119.737 49.4025C120.015 49.8277 120.244 50.2841 120.417 50.7623C120.558 51.2221 120.583 51.7144 120.766 52.1568C121.177 53.1512 122.252 53.6484 123.242 54.0635C123.834 54.3121 124.452 54.5607 125.091 54.5085C125.151 54.513 125.211 54.5049 125.268 54.4848C125.324 54.4646 125.376 54.4327 125.419 54.3913C125.463 54.3499 125.497 54.2998 125.521 54.2442C125.544 54.1886 125.555 54.1288 125.554 54.0685C125.587 53.8175 125.561 53.5623 125.48 53.3227C125.462 53.3549 125.438 53.3836 125.41 53.4073Z" fill="black"/>
<path opacity="0.1" d="M127.98 51.8809C127.879 51.9295 127.768 51.9557 127.656 51.958C126.778 52.0169 125.896 51.9116 125.057 51.6472C125.363 51.9453 125.545 52.35 125.564 52.7783C126.249 52.9404 126.954 52.999 127.656 52.9523C127.734 52.9688 127.816 52.9622 127.891 52.9334C127.966 52.9045 128.031 52.8546 128.079 52.7896C128.126 52.7246 128.154 52.6473 128.159 52.5668C128.164 52.4863 128.146 52.4062 128.106 52.3358C128.069 52.1817 128.025 52.03 127.98 51.8809Z" fill="black"/>
</g>
<path opacity="0.1" d="M93.4346 57.3598C93.4346 57.3598 93.1871 62.4559 93.9297 62.8288C94.6724 63.2017 93.4346 57.3598 93.4346 57.3598Z" fill="black"/>
<path opacity="0.1" d="M107.483 70.7837C107.73 70.7837 108.721 71.2809 108.844 71.8402C108.968 72.3995 107.483 70.7837 107.483 70.7837Z" fill="black"/>
<path opacity="0.1" d="M106.864 71.5916C107.111 71.5916 108.102 72.0887 108.225 72.6481C108.349 73.2074 106.864 71.5916 106.864 71.5916Z" fill="black"/>
<path opacity="0.1" d="M109.154 73.8289C109.401 73.8289 110.392 74.326 110.515 74.8854C110.639 75.4447 109.154 73.8289 109.154 73.8289Z" fill="black"/>
<path opacity="0.1" d="M106.059 73.9234C106.059 73.9234 102.697 77.3017 102.489 78.0251C102.282 78.7485 95.9295 78.7709 95.9295 78.7709L95.4963 75.2906C95.4963 75.2906 95.4715 75.1986 95.4492 75.0594C97.2043 74.607 102.895 72.4964 106.282 73.2447C106.302 73.3675 106.293 73.4934 106.254 73.6116C106.215 73.7299 106.148 73.8368 106.059 73.9234Z" fill="black"/>
<path d="M90.7511 78.1991C90.7511 78.1991 93.9915 75.3204 94.9817 75.3826C95.9718 75.4447 108.04 70.2864 108.844 76.0662C109.649 81.8459 93.4345 82.1567 93.4345 82.1567L90.959 83.0889C90.959 83.0889 88.8944 78.572 90.7511 78.1991Z" fill="#FDC2CC"/>
<path d="M89.8027 78.6143C89.8027 78.6143 91.288 76.5435 91.741 79.0692C92.194 81.5949 92.8773 84.7047 92.8773 84.7047L89.5552 83.0466L89.8027 78.6143Z" fill="#D39999"/>
<path opacity="0.1" d="M227.343 166.894C233.467 166.894 238.431 166.129 238.431 165.186C238.431 164.243 233.467 163.478 227.343 163.478C221.219 163.478 216.255 164.243 216.255 165.186C216.255 166.129 221.219 166.894 227.343 166.894Z" fill="#EC4794"/>
<path opacity="0.1" d="M196.046 198.691C205.616 198.691 213.374 197.496 213.374 196.021C213.374 194.547 205.616 193.351 196.046 193.351C186.475 193.351 178.717 194.547 178.717 196.021C178.717 197.496 186.475 198.691 196.046 198.691Z" fill="#EC4794"/>
<path opacity="0.1" d="M243.08 209C255.738 209 266 207.418 266 205.468C266 203.517 255.738 201.935 243.08 201.935C230.421 201.935 220.159 203.517 220.159 205.468C220.159 207.418 230.421 209 243.08 209Z" fill="#EC4794"/>
<path opacity="0.1" d="M17.3283 171.348C26.8985 171.348 34.6567 170.153 34.6567 168.679C34.6567 167.204 26.8985 166.009 17.3283 166.009C7.75816 166.009 0 167.204 0 168.679C0 170.153 7.75816 171.348 17.3283 171.348Z" fill="#EC4794"/>
<path d="M218.6 148.801C218.6 148.801 217.033 156.135 224.009 157.005L224.442 156.189C224.442 156.189 219.033 151.083 218.6 148.801Z" fill="#EC4794"/>
<path d="M226.66 156.132L225.038 156.478L224.875 156.515C224.875 156.515 220.548 152.985 220.602 145.107C221.182 146.268 221.874 147.369 222.669 148.394C224.385 150.671 226.325 153.721 226.66 156.132Z" fill="#EC4794"/>
<path d="M227.209 156.888C227.082 156.972 226.937 157.026 226.785 157.045C226.634 157.065 226.48 157.05 226.336 157.002C222.169 156.025 223.578 142.393 223.578 142.393C223.808 142.502 224.073 144.235 225.019 146.474C226.699 150.407 228.554 155.901 227.209 156.888Z" fill="#EC4794"/>
<path d="M236.448 148.801C236.448 148.801 236.72 156.135 229.742 157.005L229.309 156.189C229.309 156.189 236.017 151.083 236.448 148.801Z" fill="#EC4794"/>
<path d="M234.447 145.107C234.499 152.985 228.878 156.515 228.878 156.515L228.714 156.478L227.093 156.132C227.412 153.713 229.368 150.663 231.081 148.394C232.051 147.152 233.184 146.046 234.447 145.107Z" fill="#EC4794"/>
<path d="M228.69 156.175C228.439 156.481 228.121 156.725 227.762 156.888C227.653 156.938 227.539 156.977 227.422 157.002C226.395 157.251 226.039 156.505 226.098 155.24C226.195 153.002 227.601 149.1 228.863 146.186C229.772 144.088 231.257 142.497 231.477 142.393C231.472 142.393 231.41 153.007 228.69 156.175Z" fill="#EC4794"/>
<path d="M227.524 137.612C227.524 137.612 222.872 154.178 226.875 156.677C230.878 159.175 228.554 139.079 227.524 137.612Z" fill="#EC4794"/>
<path opacity="0.1" d="M218.6 148.801C218.6 148.801 217.033 156.135 224.009 157.005L224.442 156.189C224.442 156.189 219.033 151.083 218.6 148.801Z" fill="black"/>
<path opacity="0.1" d="M226.66 156.132L225.038 156.478L224.875 156.515C224.875 156.515 220.548 152.985 220.602 145.107C221.182 146.268 221.874 147.369 222.669 148.394C224.385 150.671 226.325 153.721 226.66 156.132Z" fill="black"/>
<path opacity="0.1" d="M227.209 156.888C227.082 156.972 226.937 157.026 226.785 157.045C226.634 157.065 226.48 157.05 226.336 157.002C222.169 156.025 223.578 142.393 223.578 142.393C223.808 142.502 224.073 144.235 225.019 146.474C226.699 150.407 228.554 155.901 227.209 156.888Z" fill="black"/>
<path opacity="0.1" d="M236.448 148.801C236.448 148.801 236.72 156.135 229.742 157.005L229.309 156.189C229.309 156.189 236.017 151.083 236.448 148.801Z" fill="black"/>
<path opacity="0.1" d="M234.447 145.107C234.499 152.985 228.878 156.515 228.878 156.515L228.714 156.478L227.093 156.132C227.412 153.713 229.368 150.663 231.081 148.394C232.051 147.152 233.184 146.046 234.447 145.107Z" fill="black"/>
<path opacity="0.1" d="M228.69 156.175C228.439 156.481 228.121 156.725 227.762 156.888C227.653 156.938 227.539 156.977 227.422 157.002C226.395 157.251 226.039 156.505 226.098 155.24C226.195 153.002 227.601 149.1 228.863 146.186C229.772 144.088 231.257 142.497 231.477 142.393C231.472 142.393 231.41 153.007 228.69 156.175Z" fill="black"/>
<path opacity="0.1" d="M227.524 137.612C227.524 137.612 222.872 154.178 226.875 156.677C230.878 159.175 228.554 139.079 227.524 137.612Z" fill="black"/>
<path d="M218.599 148.801C218.599 148.801 217.681 156.135 224.657 157.005L225.09 156.189C225.09 156.189 219.033 151.083 218.599 148.801Z" fill="#EC4794"/>
<path d="M227.316 156.132L225.694 156.478L225.531 156.515C225.531 156.515 220.555 152.985 220.61 145.107C220.61 145.107 221.885 146.479 223.333 148.394C225.036 150.671 226.984 153.721 227.316 156.132Z" fill="#EC4794"/>
<path opacity="0.1" d="M227.316 156.132L225.694 156.478C224.157 155.123 223.546 151.583 223.325 148.394C225.036 150.671 226.984 153.721 227.316 156.132Z" fill="black"/>
<path d="M227.858 156.888C227.73 156.972 227.585 157.026 227.434 157.045C227.283 157.065 227.129 157.05 226.984 157.002C222.818 156.025 223.578 142.393 223.578 142.393C223.808 142.502 224.709 144.235 225.667 146.474C227.348 150.407 229.195 155.901 227.858 156.888Z" fill="#EC4794"/>
<path d="M236.448 148.801C236.448 148.801 237.369 156.135 230.39 157.005L229.959 156.189C229.959 156.189 236.017 151.083 236.448 148.801Z" fill="#EC4794"/>
<path d="M234.447 145.107C234.499 152.985 229.526 156.515 229.526 156.515L229.363 156.478L227.741 156.132C228.063 153.713 230.016 150.663 231.729 148.394C233.172 146.479 234.447 145.107 234.447 145.107Z" fill="#EC4794"/>
<path opacity="0.1" d="M231.729 148.394C231.521 151.377 230.987 154.643 229.662 156.175C229.571 156.284 229.471 156.386 229.363 156.478L227.741 156.132C228.058 153.721 230.016 150.671 231.729 148.394Z" fill="black"/>
<path d="M229.338 156.175C229.088 156.481 228.77 156.725 228.41 156.888C228.3 156.938 228.186 156.976 228.068 157.002C227.044 157.251 226.685 156.505 226.744 155.24C226.841 153.002 228.247 149.1 229.509 146.186C230.418 144.088 231.242 142.497 231.475 142.393C231.472 142.393 232.061 153.007 229.338 156.175Z" fill="#EC4794"/>
<path opacity="0.1" d="M227.858 156.888C227.622 156.888 227.392 156.814 227.199 156.677C225.239 155.451 225.199 150.85 225.667 146.484C227.348 150.407 229.194 155.901 227.858 156.888Z" fill="black"/>
<path opacity="0.1" d="M229.338 156.175C229.113 156.672 228.808 156.92 228.41 156.888C228.209 156.862 228.018 156.79 227.85 156.677C227.342 156.325 226.955 155.823 226.744 155.24C226.84 153.002 228.246 149.1 229.509 146.186C229.957 150.241 230.105 154.516 229.338 156.175Z" fill="black"/>
<path d="M227.524 137.612C227.524 137.612 223.523 154.178 227.524 156.677C231.524 159.175 228.553 139.079 227.524 137.612Z" fill="#EC4794"/>
<path d="M235.205 155.864H218.547V158.633H221.087L221.152 158.959L222.169 164.336H231.853L232.87 158.959L232.932 158.633H235.205V155.864Z" fill="#4B4770"/>
<path opacity="0.1" d="M235.205 155.864H218.547V158.633H221.087L221.152 158.959L222.169 164.336H231.853L232.87 158.959L232.932 158.633H235.205V155.864Z" fill="black"/>
<path d="M233.799 157.492L233.522 158.959L232.502 164.336H222.818L221.8 158.959L221.521 157.492H233.799Z" fill="#4B4770"/>
<path opacity="0.1" d="M233.799 157.492L233.522 158.959H221.8L221.521 157.492H233.799Z" fill="black"/>
<path d="M235.854 155.864H219.196V158.633H235.854V155.864Z" fill="#4B4770"/>
<path d="M27.02 139.499C26.7825 139.826 26.5925 140.185 26.4556 140.566C26.421 140.658 26.3863 140.764 26.3517 140.866C26.2892 140.837 26.2236 140.814 26.1561 140.799C25.8676 140.725 25.5691 140.699 25.2723 140.722C25.2723 140.608 25.2872 140.474 25.2897 140.357C25.3268 139.047 25.1733 137.222 23.9282 137.995C22.735 138.741 23.5865 139.984 24.3564 140.779C24.4233 140.849 24.4901 140.914 24.5545 140.976C23.8514 141.473 23.7177 142.649 23.6014 143.869C23.4851 145.09 22.4528 146.425 21.7671 147.186C21.6978 147.263 21.6359 147.332 21.574 147.397C21.2987 147.176 20.9799 147.015 20.6386 146.927C20.2973 146.838 19.9412 146.823 19.5936 146.882C19.5664 146.775 19.5367 146.663 19.502 146.544C18.9351 144.523 17.7865 141.043 16.3161 140.297C16.378 140.22 16.4423 140.14 16.5092 140.048C17.133 139.228 17.836 138.01 16.7988 137.699C15.7616 137.389 15.6675 138.756 15.7244 139.78C15.7244 139.907 15.7442 140.029 15.7541 140.143C15.5476 140.152 15.3451 140.204 15.1591 140.294C14.9731 140.385 14.8075 140.513 14.6724 140.67L14.5114 140.479C13.6698 139.484 12.1276 137.903 11.6597 139.099C11.2265 140.21 12.583 141.657 13.5386 142.495L13.598 142.547C12.9568 145.162 15.7566 147.292 17.2642 148.222L17.4597 148.344C15.3803 150.802 14.0956 155.416 14.0956 155.416L19.9204 156.46C19.9204 156.46 23.7796 153.114 23.2845 149.975H23.3241C27.1834 149.197 28.0597 145.065 27.4607 142.614L27.5275 142.584C28.2301 142.296 28.846 141.829 29.3148 141.229C30.3916 139.72 28.1291 138.02 27.02 139.499Z" fill="#EC4794"/>
<path opacity="0.1" d="M27.02 139.499C26.7825 139.826 26.5925 140.185 26.4556 140.566C26.421 140.658 26.3863 140.764 26.3517 140.866C26.2892 140.837 26.2236 140.814 26.1561 140.799C25.8676 140.725 25.5691 140.699 25.2723 140.722C25.2723 140.608 25.2872 140.474 25.2897 140.357C25.3268 139.047 25.1733 137.222 23.9282 137.995C22.735 138.741 23.5865 139.984 24.3564 140.779C24.4233 140.849 24.4901 140.914 24.5545 140.976C23.8514 141.473 23.7177 142.649 23.6014 143.869C23.4851 145.09 22.4528 146.425 21.7671 147.186C21.6978 147.263 21.6359 147.332 21.574 147.397C21.2987 147.176 20.9799 147.015 20.6386 146.927C20.2973 146.838 19.9412 146.823 19.5936 146.882C19.5664 146.775 19.5367 146.663 19.502 146.544C18.9351 144.523 17.7865 141.043 16.3161 140.297C16.378 140.22 16.4423 140.14 16.5092 140.048C17.133 139.228 17.836 138.01 16.7988 137.699C15.7616 137.389 15.6675 138.756 15.7244 139.78C15.7244 139.907 15.7442 140.029 15.7541 140.143C15.5476 140.152 15.3451 140.204 15.1591 140.294C14.9731 140.385 14.8075 140.513 14.6724 140.67L14.5114 140.479C13.6698 139.484 12.1276 137.903 11.6597 139.099C11.2265 140.21 12.583 141.657 13.5386 142.495L13.598 142.547C12.9568 145.162 15.7566 147.292 17.2642 148.222L17.4597 148.344C15.3803 150.802 14.0956 155.416 14.0956 155.416L19.9204 156.46C19.9204 156.46 23.7796 153.114 23.2845 149.975H23.3241C27.1834 149.197 28.0597 145.065 27.4607 142.614L27.5275 142.584C28.2301 142.296 28.846 141.829 29.3148 141.229C30.3916 139.72 28.1291 138.02 27.02 139.499Z" fill="black"/>
<path d="M15.4299 141.185L14.7491 143.173C14.7491 143.173 14.3704 142.905 13.8926 142.482C12.9371 141.644 11.5805 140.198 12.0137 139.086C12.4816 137.891 14.0238 139.469 14.8654 140.466C15.2046 140.876 15.4299 141.185 15.4299 141.185Z" fill="#EC4794"/>
<path d="M16.8652 140.048C16.6581 140.321 16.4366 140.582 16.2018 140.832C16.1438 140.483 16.1033 140.132 16.0805 139.78C16.0236 138.756 16.1325 137.396 17.1549 137.699C18.1772 138.003 17.4891 139.223 16.8652 140.048Z" fill="#EC4794"/>
<path d="M25.6458 140.357C25.626 141.015 25.5616 141.543 25.5616 141.543C25.2614 141.308 24.9777 141.053 24.7125 140.779C23.9426 139.979 23.0911 138.741 24.2843 137.995C25.5294 137.222 25.6829 139.054 25.6458 140.357Z" fill="#EC4794"/>
<path d="M29.6689 141.222C29.2 141.821 28.5842 142.288 27.8816 142.577C27.687 142.663 27.4868 142.736 27.2825 142.795L26.4805 141.664C26.5654 141.291 26.6762 140.924 26.8122 140.566C26.9491 140.185 27.1391 139.826 27.3766 139.499C28.4856 138.02 30.7482 139.72 29.6689 141.222Z" fill="#EC4794"/>
<path opacity="0.1" d="M14.8654 140.479C15.2046 140.876 15.4298 141.185 15.4298 141.185L14.7491 143.173C14.7491 143.173 14.3703 142.905 13.8926 142.482C13.9987 141.841 14.2625 141.237 14.66 140.725C14.7268 140.645 14.7986 140.558 14.8654 140.479Z" fill="black"/>
<path opacity="0.1" d="M16.8653 140.048C16.6581 140.321 16.4367 140.582 16.2019 140.832C16.1438 140.483 16.1034 140.132 16.0806 139.78C16.3637 139.785 16.6382 139.879 16.8653 140.048Z" fill="black"/>
<path d="M20.215 147.986L18.5193 148.732C18.5193 148.732 18.1505 148.553 17.6182 148.22C15.8384 147.121 12.2613 144.354 14.6477 141.093C17.034 137.831 19.0466 143.68 19.8462 146.542C20.0863 147.399 20.215 147.986 20.215 147.986Z" fill="#EC4794"/>
<path opacity="0.1" d="M24.7129 140.779C24.9595 140.525 25.293 140.374 25.6461 140.357C25.6263 141.015 25.562 141.542 25.562 141.542C25.2618 141.308 24.9781 141.053 24.7129 140.779Z" fill="black"/>
<path opacity="0.1" d="M27.8816 142.577C27.687 142.663 27.4868 142.736 27.2825 142.795L26.4805 141.664C26.5654 141.291 26.6762 140.924 26.8122 140.565C27.3296 140.869 27.7108 141.624 27.8816 142.577Z" fill="black"/>
<path d="M23.6778 149.967L23.3931 150.017C17.7168 150.882 21.5216 147.807 21.5216 147.807C21.5216 147.807 21.7692 147.558 22.1232 147.186C22.8089 146.425 23.8387 145.097 23.9575 143.869C24.1357 142.022 24.3412 140.29 26.5122 140.799C28.6436 141.291 29.052 148.886 23.6778 149.967Z" fill="#EC4794"/>
<path d="M23.5716 164.159H12.7266V167.023H23.5716V164.159Z" fill="#D4DFEC"/>
<path d="M25.1731 154.85H11.0034V164.843H25.1731V154.85Z" fill="#D4DFEC"/>
<path opacity="0.1" d="M23.5716 164.159H12.7266V167.023H23.5716V164.159Z" fill="black"/>
<path opacity="0.1" d="M25.1731 154.85H11.0034V164.843H25.1731V154.85Z" fill="black"/>
<path d="M24.2845 164.159H13.4395V167.023H24.2845V164.159Z" fill="#D4DFEC"/>
<path opacity="0.1" d="M19.8461 146.544C20.0936 147.399 20.2149 147.986 20.2149 147.986L18.5192 148.732C18.5192 148.732 18.1504 148.553 17.6182 148.22C18.2816 147.379 19.0292 146.741 19.8461 146.544Z" fill="black"/>
<path opacity="0.1" d="M23.6778 149.967L23.3931 150.017C17.7168 150.882 21.5216 147.807 21.5216 147.807C21.5216 147.807 21.7692 147.558 22.1232 147.185C23.1827 148.036 23.6208 148.998 23.6778 149.967Z" fill="black"/>
<path d="M14.4492 155.416C14.4492 155.416 17.6277 143.981 22.0861 147.511C26.5444 151.041 20.274 156.46 20.274 156.46L14.4492 155.416Z" fill="#EC4794"/>
<path opacity="0.1" d="M16.0537 143.245C16.2506 143.245 16.4102 143.085 16.4102 142.887C16.4102 142.69 16.2506 142.529 16.0537 142.529C15.8569 142.529 15.6973 142.69 15.6973 142.887C15.6973 143.085 15.8569 143.245 16.0537 143.245Z" fill="black"/>
<path opacity="0.1" d="M16.024 144.916C16.2208 144.916 16.3804 144.756 16.3804 144.558C16.3804 144.36 16.2208 144.2 16.024 144.2C15.8271 144.2 15.6675 144.36 15.6675 144.558C15.6675 144.756 15.8271 144.916 16.024 144.916Z" fill="black"/>
<path opacity="0.1" d="M26.3638 143.573C26.5607 143.573 26.7203 143.413 26.7203 143.216C26.7203 143.018 26.5607 142.858 26.3638 142.858C26.1669 142.858 26.0073 143.018 26.0073 143.216C26.0073 143.413 26.1669 143.573 26.3638 143.573Z" fill="black"/>
<path opacity="0.1" d="M18.044 152.135C18.2408 152.135 18.4004 151.975 18.4004 151.777C18.4004 151.579 18.2408 151.419 18.044 151.419C17.8471 151.419 17.6875 151.579 17.6875 151.777C17.6875 151.975 17.8471 152.135 18.044 152.135Z" fill="black"/>
<path opacity="0.1" d="M25.6211 146.348C25.818 146.348 25.9776 146.187 25.9776 145.99C25.9776 145.792 25.818 145.632 25.6211 145.632C25.4242 145.632 25.2646 145.792 25.2646 145.99C25.2646 146.187 25.4242 146.348 25.6211 146.348Z" fill="black"/>
<path opacity="0.1" d="M21.9375 150.047C22.1344 150.047 22.294 149.886 22.294 149.689C22.294 149.491 22.1344 149.331 21.9375 149.331C21.7407 149.331 21.5811 149.491 21.5811 149.689C21.5811 149.886 21.7407 150.047 21.9375 150.047Z" fill="black"/>
<path opacity="0.1" d="M17.2715 143.961C17.4684 143.961 17.628 143.801 17.628 143.603C17.628 143.406 17.4684 143.245 17.2715 143.245C17.0746 143.245 16.915 143.406 16.915 143.603C16.915 143.801 17.0746 143.961 17.2715 143.961Z" fill="black"/>
<path opacity="0.1" d="M25.3833 144.647C25.5802 144.647 25.7398 144.487 25.7398 144.289C25.7398 144.092 25.5802 143.931 25.3833 143.931C25.1865 143.931 25.0269 144.092 25.0269 144.289C25.0269 144.487 25.1865 144.647 25.3833 144.647Z" fill="black"/>
<path opacity="0.1" d="M24.1656 147.422C24.3624 147.422 24.522 147.261 24.522 147.064C24.522 146.866 24.3624 146.706 24.1656 146.706C23.9687 146.706 23.8091 146.866 23.8091 147.064C23.8091 147.261 23.9687 147.422 24.1656 147.422Z" fill="black"/>
<path opacity="0.1" d="M20.4229 151.866C20.6197 151.866 20.7793 151.706 20.7793 151.508C20.7793 151.311 20.6197 151.151 20.4229 151.151C20.226 151.151 20.0664 151.311 20.0664 151.508C20.0664 151.706 20.226 151.866 20.4229 151.866Z" fill="black"/>
<path opacity="0.1" d="M19.6504 150.106C19.8473 150.106 20.0069 149.946 20.0069 149.748C20.0069 149.551 19.8473 149.391 19.6504 149.391C19.4535 149.391 19.2939 149.551 19.2939 149.748C19.2939 149.946 19.4535 150.106 19.6504 150.106Z" fill="black"/>
<path opacity="0.1" d="M17.8062 146.139C18.003 146.139 18.1626 145.979 18.1626 145.781C18.1626 145.583 18.003 145.423 17.8062 145.423C17.6093 145.423 17.4497 145.583 17.4497 145.781C17.4497 145.979 17.6093 146.139 17.8062 146.139Z" fill="black"/>
<path opacity="0.1" d="M24.2845 164.159H13.4395V165.206H24.2845V164.159Z" fill="black"/>
<path d="M25.8859 154.85H11.7163V164.843H25.8859V154.85Z" fill="#D4DFEC"/>
<path opacity="0.1" d="M20.898 153.477C21.0948 153.477 21.2544 153.317 21.2544 153.119C21.2544 152.922 21.0948 152.761 20.898 152.761C20.7011 152.761 20.5415 152.922 20.5415 153.119C20.5415 153.317 20.7011 153.477 20.898 153.477Z" fill="black"/>
<path opacity="0.1" d="M18.7593 153.925C18.9562 153.925 19.1158 153.764 19.1158 153.567C19.1158 153.369 18.9562 153.209 18.7593 153.209C18.5624 153.209 18.4028 153.369 18.4028 153.567C18.4028 153.764 18.5624 153.925 18.7593 153.925Z" fill="black"/>
</g>
<defs>
<linearGradient id="paint0_linear" x1="111.629" y1="202.226" x2="111.629" y2="6.5852" gradientUnits="userSpaceOnUse">
<stop stop-color="#808080" stop-opacity="0.25"/>
<stop offset="0.54" stop-color="#808080" stop-opacity="0.12"/>
<stop offset="1" stop-color="#808080" stop-opacity="0.1"/>
</linearGradient>
<clipPath id="clip0">
<rect width="266" height="209" fill="white"/>
</clipPath>
</defs>
</svg>
