<svg width="253" height="254" viewBox="0 0 253 254" fill="none" xmlns="http://www.w3.org/2000/svg">
<g clip-path="url(#clip0)">
<path d="M24.33 213.973L22.1018 205.176C18.1511 203.501 14.1091 202.049 9.99504 200.829L9.71379 204.917L8.57318 200.413C3.47105 198.953 0 198.311 0 198.311C0 198.311 4.68739 216.156 14.5221 229.8L25.9804 231.814L17.0788 233.099C18.3159 234.589 19.6453 236 21.0593 237.323C35.3644 250.614 51.2978 256.712 56.6472 250.943C61.9966 245.174 54.7366 229.723 40.4315 216.434C35.9969 212.313 30.426 209.007 24.8493 206.404L24.33 213.973Z" fill="#F2F2F2"/>
<path d="M45.5205 204.418L48.1557 195.736C45.6394 192.257 42.9291 188.923 40.0376 185.75L37.6858 189.104L39.0349 184.658C35.4205 180.77 32.781 178.424 32.781 178.424C32.781 178.424 27.579 196.127 28.9512 212.894L37.7197 220.547L29.4346 217.041C29.7245 218.957 30.1345 220.853 30.6621 222.717C36.0445 241.496 46.5351 254.96 54.0934 252.79C61.6516 250.619 63.4159 233.636 58.0335 214.857C56.3651 209.035 53.3033 203.322 49.8737 198.209L45.5205 204.418Z" fill="#F2F2F2"/>
<path d="M176.542 60.1728H175.152V22.0597C175.152 19.1628 174.582 16.2942 173.475 13.6178C172.367 10.9414 170.744 8.50956 168.697 6.46113C166.651 4.4127 164.221 2.78779 161.547 1.67919C158.874 0.570589 156.008 0 153.114 0H72.4404C66.5954 0 60.9898 2.32414 56.8568 6.46113C52.7238 10.5981 50.4019 16.2091 50.4019 22.0597V231.155C50.4019 234.052 50.9719 236.92 52.0794 239.596C53.187 242.273 54.8103 244.705 56.8568 246.753C58.9033 248.802 61.3328 250.426 64.0066 251.535C66.6805 252.644 69.5463 253.214 72.4404 253.214H153.114C158.959 253.214 164.564 250.89 168.697 246.753C172.83 242.616 175.152 237.005 175.152 231.155V87.3024H176.542L176.542 60.1728Z" fill="#E6E6E6"/>
<path d="M154.003 5.737H143.473C143.958 6.92547 144.142 8.21492 144.011 9.49175C143.881 10.7686 143.438 11.9936 142.723 13.0589C142.007 14.1241 141.041 14.9969 139.91 15.6004C138.778 16.2039 137.515 16.5195 136.233 16.5195H90.0162C88.7339 16.5194 87.4714 16.2037 86.3397 15.6002C85.2081 14.9967 84.2421 14.1238 83.5269 13.0586C82.8116 11.9933 82.3691 10.7684 82.2382 9.49158C82.1074 8.21481 82.2922 6.92542 82.7765 5.737H72.9411C68.5761 5.737 64.3899 7.47264 61.3034 10.5621C58.2169 13.6516 56.4829 17.8418 56.4829 22.211V231.002C56.4829 235.371 58.2169 239.562 61.3034 242.651C64.3899 245.741 68.5761 247.476 72.9411 247.476H154.003C158.368 247.476 162.554 245.741 165.641 242.651C168.727 239.562 170.461 235.371 170.461 231.002V22.2106C170.461 17.8415 168.727 13.6514 165.64 10.562C162.554 7.4726 158.368 5.737 154.003 5.737Z" fill="white"/>
<path d="M103.143 88.9089C103.142 87.4494 103.526 86.0157 104.255 84.7519C104.985 83.4881 106.034 82.4389 107.297 81.7099C106.034 80.9801 104.602 80.5957 103.144 80.5956C101.686 80.5954 100.254 80.9794 98.9913 81.709C97.7287 82.4385 96.6802 83.4879 95.9512 84.7517C95.2222 86.0155 94.8384 87.4491 94.8384 88.9084C94.8384 90.3677 95.2222 91.8013 95.9512 93.065C96.6802 94.3288 97.7287 95.3782 98.9913 96.1078C100.254 96.8373 101.686 97.2213 103.144 97.2212C104.602 97.221 106.034 96.8367 107.297 96.1068C106.034 95.378 104.985 94.329 104.256 93.0654C103.526 91.8018 103.142 90.3682 103.143 88.9089Z" fill="#CCCCCC"/>
<path d="M113.583 88.9089C113.582 87.4494 113.966 86.0157 114.695 84.7519C115.425 83.4881 116.474 82.4389 117.737 81.7099C116.474 80.9801 115.042 80.5957 113.584 80.5956C112.126 80.5954 110.694 80.9794 109.431 81.709C108.169 82.4385 107.12 83.4879 106.391 84.7517C105.662 86.0155 105.278 87.4491 105.278 88.9084C105.278 90.3677 105.662 91.8013 106.391 93.065C107.12 94.3288 108.169 95.3782 109.431 96.1078C110.694 96.8373 112.126 97.2213 113.584 97.2212C115.042 97.221 116.474 96.8367 117.737 96.1068C116.474 95.378 115.425 94.329 114.695 93.0654C113.966 91.8018 113.582 90.3682 113.583 88.9089Z" fill="#CCCCCC"/>
<path d="M123.786 97.2213C128.372 97.2213 132.091 93.4995 132.091 88.9085C132.091 84.3175 128.372 80.5957 123.786 80.5957C119.199 80.5957 115.481 84.3175 115.481 88.9085C115.481 93.4995 119.199 97.2213 123.786 97.2213Z" fill="#EC4794"/>
<path d="M137.665 114.873H89.263C88.8022 114.872 88.3604 114.689 88.0346 114.363C87.7087 114.036 87.5254 113.594 87.5249 113.133V64.6841C87.5254 64.2229 87.7087 63.7807 88.0346 63.4546C88.3604 63.1284 88.8022 62.9449 89.263 62.9444H137.665C138.126 62.9449 138.568 63.1284 138.894 63.4546C139.22 63.7807 139.403 64.2229 139.404 64.6841V113.133C139.403 113.594 139.22 114.036 138.894 114.363C138.568 114.689 138.126 114.872 137.665 114.873ZM89.263 63.6407C88.9865 63.641 88.7214 63.751 88.5259 63.9467C88.3304 64.1424 88.2205 64.4077 88.2202 64.6845V113.133C88.2205 113.41 88.3304 113.675 88.5259 113.871C88.7214 114.067 88.9865 114.177 89.263 114.177H137.665C137.942 114.177 138.207 114.067 138.402 113.871C138.598 113.675 138.708 113.41 138.708 113.133V64.6845C138.708 64.4077 138.598 64.1424 138.402 63.9467C138.207 63.751 137.942 63.641 137.665 63.6407H89.263Z" fill="#CCCCCC"/>
<path d="M148.473 152.011H74.2383V152.707H148.473V152.011Z" fill="#CCCCCC"/>
<path d="M76.5827 147.666C77.8774 147.666 78.927 146.615 78.927 145.319C78.927 144.023 77.8774 142.973 76.5827 142.973C75.2879 142.973 74.2383 144.023 74.2383 145.319C74.2383 146.615 75.2879 147.666 76.5827 147.666Z" fill="#EC4794"/>
<path d="M148.473 175.476H74.2383V176.172H148.473V175.476Z" fill="#CCCCCC"/>
<path d="M76.5827 171.131C77.8774 171.131 78.927 170.08 78.927 168.784C78.927 167.488 77.8774 166.438 76.5827 166.438C75.2879 166.438 74.2383 167.488 74.2383 168.784C74.2383 170.08 75.2879 171.131 76.5827 171.131Z" fill="#EC4794"/>
<path d="M147.114 202.197H123.654C123.249 202.196 122.86 202.035 122.574 201.748C122.287 201.461 122.126 201.072 122.125 200.667V192.436C122.126 192.03 122.287 191.642 122.574 191.355C122.86 191.068 123.249 190.907 123.654 190.906H147.114C147.519 190.907 147.908 191.068 148.195 191.355C148.481 191.642 148.642 192.03 148.643 192.436V200.667C148.642 201.072 148.481 201.461 148.195 201.748C147.908 202.035 147.519 202.196 147.114 202.197Z" fill="#EC4794"/>
<path d="M84.2296 147.666C85.5244 147.666 86.574 146.615 86.574 145.319C86.574 144.023 85.5244 142.973 84.2296 142.973C82.9349 142.973 81.8853 144.023 81.8853 145.319C81.8853 146.615 82.9349 147.666 84.2296 147.666Z" fill="#EC4794"/>
<path d="M91.8771 147.666C93.1718 147.666 94.2215 146.615 94.2215 145.319C94.2215 144.023 93.1718 142.973 91.8771 142.973C90.5823 142.973 89.5327 144.023 89.5327 145.319C89.5327 146.615 90.5823 147.666 91.8771 147.666Z" fill="#EC4794"/>
<path d="M84.2296 171.131C85.5244 171.131 86.574 170.08 86.574 168.784C86.574 167.488 85.5244 166.438 84.2296 166.438C82.9349 166.438 81.8853 167.488 81.8853 168.784C81.8853 170.08 82.9349 171.131 84.2296 171.131Z" fill="#EC4794"/>
<path d="M91.8771 171.131C93.1718 171.131 94.2215 170.08 94.2215 168.784C94.2215 167.488 93.1718 166.438 91.8771 166.438C90.5823 166.438 89.5327 167.488 89.5327 168.784C89.5327 170.08 90.5823 171.131 91.8771 171.131Z" fill="#EC4794"/>
<path d="M252.055 254H8.17933C7.65726 254 7.23438 253.814 7.23438 253.586C7.23438 253.357 7.65726 253.171 8.17933 253.171H252.055C252.577 253.171 253 253.357 253 253.586C253 253.815 252.577 254 252.055 254Z" fill="#3F3D56"/>
<path d="M191.802 166.413C191.968 166.489 192.129 166.579 192.281 166.681L207.516 160.172L208.059 156.155L214.147 156.118L213.787 165.331L193.679 170.654C193.637 170.794 193.586 170.931 193.527 171.065C193.236 171.685 192.769 172.207 192.183 172.562C191.597 172.918 190.92 173.093 190.235 173.065C189.551 173.036 188.89 172.806 188.336 172.403C187.782 172 187.359 171.442 187.12 170.799C186.882 170.156 186.838 169.457 186.996 168.79C187.153 168.122 187.503 167.516 188.004 167.047C188.504 166.579 189.131 166.269 189.807 166.156C190.483 166.043 191.177 166.132 191.802 166.413Z" fill="#FFB8B8"/>
<path d="M216.361 249.901H212.197L210.216 233.824L216.362 233.824L216.361 249.901Z" fill="#FFB8B8"/>
<path d="M209.222 248.71H217.253V253.771H204.166C204.166 252.429 204.698 251.142 205.647 250.192C206.595 249.243 207.881 248.71 209.222 248.71Z" fill="#2F2E41"/>
<path d="M232.556 248.723L228.412 249.132L224.865 233.326L230.982 232.723L232.556 248.723Z" fill="#FFB8B8"/>
<path d="M225.335 248.239L233.327 247.451L233.823 252.488L220.798 253.772C220.733 253.11 220.799 252.442 220.992 251.806C221.185 251.17 221.501 250.579 221.922 250.065C222.343 249.551 222.861 249.125 223.447 248.812C224.033 248.499 224.674 248.304 225.335 248.239Z" fill="#2F2E41"/>
<path d="M217.52 139.102C222.127 139.102 225.862 135.364 225.862 130.752C225.862 126.14 222.127 122.401 217.52 122.401C212.912 122.401 209.177 126.14 209.177 130.752C209.177 135.364 212.912 139.102 217.52 139.102Z" fill="#FFB8B8"/>
<path d="M211.266 246.65C210.908 246.651 210.561 246.525 210.287 246.295C210.013 246.065 209.828 245.745 209.766 245.393C207.611 233.416 200.565 194.256 200.397 193.171C200.393 193.146 200.391 193.121 200.392 193.096V190.176C200.391 190.07 200.425 189.966 200.486 189.88L201.417 188.575C201.461 188.512 201.519 188.46 201.587 188.423C201.654 188.387 201.729 188.366 201.806 188.362C207.112 188.113 224.49 187.384 225.33 188.433C226.173 189.489 225.875 192.686 225.807 193.316L225.81 193.382L233.617 243.359C233.678 243.757 233.58 244.164 233.344 244.491C233.108 244.817 232.753 245.038 232.355 245.104L227.479 245.909C227.116 245.967 226.744 245.893 226.431 245.7C226.117 245.507 225.884 245.208 225.772 244.857C224.264 240.033 219.207 223.805 217.454 217.526C217.443 217.486 217.418 217.452 217.383 217.429C217.349 217.407 217.307 217.398 217.267 217.403C217.226 217.409 217.189 217.43 217.162 217.461C217.135 217.492 217.12 217.532 217.121 217.573C217.208 223.559 217.42 238.831 217.493 244.105L217.501 244.673C217.504 245.058 217.363 245.43 217.106 245.715C216.848 246.001 216.493 246.18 216.111 246.216L211.409 246.643C211.361 246.648 211.313 246.65 211.266 246.65Z" fill="#2F2E41"/>
<path d="M212.225 142.386C210.769 143.252 209.898 144.844 209.398 146.464C208.473 149.463 207.915 152.564 207.739 155.698L207.211 165.082L200.67 189.959C206.339 194.76 209.609 193.669 217.239 189.742C224.87 185.815 225.742 191.051 225.742 191.051L227.268 169.884L229.448 146.754C228.959 146.164 228.405 145.631 227.797 145.164C225.782 143.596 223.437 142.506 220.94 141.976C218.443 141.446 215.858 141.491 213.381 142.106L212.225 142.386Z" fill="#EC4794"/>
<path d="M210.101 171.437C210.277 171.503 210.448 171.583 210.611 171.676L225.675 164.13L225.925 160.041L232.138 159.612L232.471 168.932L212.341 175.596C212.176 176.302 211.801 176.94 211.265 177.428C210.729 177.915 210.058 178.227 209.34 178.323C208.623 178.419 207.893 178.293 207.248 177.964C206.603 177.635 206.074 177.117 205.731 176.479C205.387 175.841 205.246 175.114 205.325 174.393C205.405 173.673 205.702 172.994 206.176 172.447C206.651 171.9 207.28 171.51 207.981 171.329C208.683 171.149 209.422 171.187 210.101 171.437Z" fill="#FFB8B8"/>
<path d="M229.339 146.859C233.046 148.169 233.699 162.354 233.699 162.354C229.338 159.954 224.106 163.882 224.106 163.882C224.106 163.882 223.016 160.172 221.708 155.371C221.313 154.021 221.266 152.592 221.57 151.219C221.875 149.845 222.523 148.571 223.452 147.515C223.452 147.515 225.633 145.549 229.339 146.859Z" fill="#EC4794"/>
<path d="M225 132.96C223.961 132.128 222.543 133.641 222.543 133.641L221.711 126.15C221.711 126.15 216.514 126.773 213.188 125.942C209.862 125.111 209.342 128.959 209.342 128.959C209.17 127.404 209.136 125.838 209.238 124.277C209.446 122.404 212.148 120.531 216.93 119.283C221.711 118.034 224.206 123.445 224.206 123.445C227.532 125.109 226.04 133.793 225 132.96Z" fill="#2F2E41"/>
</g>
<defs>
<clipPath id="clip0">
<rect width="253" height="254" fill="white"/>
</clipPath>
</defs>
</svg>
