<svg width="323" height="324" viewBox="0 0 323 324" fill="none" xmlns="http://www.w3.org/2000/svg">
<g clip-path="url(#clip0)">
<path d="M31.0616 272.942L28.2169 261.721C23.1731 259.583 18.0128 257.732 12.7605 256.175L12.4014 261.39L10.9452 255.645C4.43142 253.783 0 252.963 0 252.963C0 252.963 5.9843 275.727 18.5401 293.13L33.1687 295.7L21.8041 297.339C23.3835 299.24 25.0808 301.039 26.886 302.727C45.149 319.68 65.4909 327.459 72.3204 320.1C79.1499 312.741 69.8811 293.033 51.6181 276.081C45.9565 270.825 38.8442 266.607 31.7246 263.287L31.0616 272.942Z" fill="#F2F2F2"/>
<path d="M58.115 260.754L61.4792 249.678C58.2667 245.241 54.8065 240.988 51.1151 236.941L48.1125 241.219L49.835 235.548C45.2205 230.588 41.8507 227.596 41.8507 227.596C41.8507 227.596 35.2094 250.177 36.9613 271.566L48.1559 281.328L37.5784 276.856C37.9485 279.299 38.4719 281.718 39.1456 284.096C46.0171 308.05 59.4103 325.225 69.0598 322.456C78.7092 319.687 80.9616 298.024 74.09 274.07C71.96 266.644 68.0511 259.356 63.6726 252.834L58.115 260.754Z" fill="#F2F2F2"/>
<path d="M225.388 76.7558H223.613V28.1391C223.613 24.4438 222.885 20.7847 221.471 17.3707C220.057 13.9568 217.985 10.8547 215.372 8.24176C212.76 5.6288 209.658 3.55608 206.244 2.14196C202.831 0.727838 199.172 0 195.477 0H92.4831C85.021 0 77.8644 2.96465 72.5878 8.24176C67.3113 13.5189 64.3469 20.6762 64.3469 28.1391V294.859C64.3469 298.554 65.0747 302.213 66.4887 305.627C67.9026 309.041 69.9751 312.143 72.5878 314.756C75.2005 317.369 78.3022 319.442 81.7159 320.856C85.1295 322.27 88.7882 322.998 92.4831 322.998H195.477C202.939 322.998 210.096 320.033 215.372 314.756C220.648 309.479 223.613 302.322 223.613 294.859V111.362H225.387L225.388 76.7558Z" fill="#E6E6E6"/>
<path d="M196.612 7.31812H183.169C183.787 8.83412 184.023 10.4789 183.856 12.1076C183.689 13.7363 183.124 15.299 182.211 16.6578C181.298 18.0166 180.064 19.13 178.619 19.8998C177.175 20.6696 175.563 21.0722 173.926 21.0722H114.922C113.285 21.0721 111.673 20.6694 110.228 19.8995C108.783 19.1297 107.55 18.0163 106.637 16.6574C105.724 15.2986 105.159 13.7361 104.992 12.1074C104.825 10.4788 105.061 8.83405 105.679 7.31812H93.1222C87.5495 7.31812 82.2051 9.53209 78.2646 13.473C74.3241 17.4139 72.1104 22.7589 72.1104 28.3321V294.664C72.1104 300.238 74.3241 305.583 78.2646 309.523C82.2051 313.464 87.5495 315.678 93.1222 315.678H196.612C202.185 315.678 207.529 313.464 211.47 309.523C215.41 305.583 217.624 300.238 217.624 294.664V28.3317C217.624 22.7585 215.41 17.4136 211.47 13.4728C207.529 9.53203 202.185 7.31812 196.612 7.31812Z" fill="white"/>
<path d="M131.68 113.411C131.68 111.55 132.17 109.721 133.101 108.109C134.032 106.497 135.371 105.158 136.983 104.228C135.372 103.297 133.543 102.807 131.682 102.807C129.821 102.807 127.992 103.297 126.38 104.227C124.768 105.158 123.43 106.496 122.499 108.108C121.568 109.721 121.078 111.549 121.078 113.411C121.078 115.272 121.568 117.101 122.499 118.713C123.43 120.325 124.768 121.664 126.38 122.594C127.992 123.525 129.821 124.015 131.682 124.014C133.543 124.014 135.372 123.524 136.983 122.593C135.371 121.663 134.032 120.325 133.101 118.713C132.17 117.101 131.68 115.273 131.68 113.411Z" fill="#CCCCCC"/>
<path d="M145.009 113.411C145.008 111.55 145.498 109.721 146.429 108.109C147.36 106.497 148.7 105.158 150.312 104.228C148.701 103.297 146.872 102.807 145.011 102.807C143.15 102.807 141.321 103.297 139.709 104.227C138.097 105.158 136.758 106.496 135.828 108.108C134.897 109.721 134.407 111.549 134.407 113.411C134.407 115.272 134.897 117.101 135.828 118.713C136.758 120.325 138.097 121.664 139.709 122.594C141.321 123.525 143.15 124.015 145.011 124.014C146.872 124.014 148.701 123.524 150.312 122.593C148.7 121.663 147.361 120.325 146.43 118.713C145.499 117.101 145.009 115.273 145.009 113.411Z" fill="#CCCCCC"/>
<path d="M158.035 124.015C163.891 124.015 168.638 119.267 168.638 113.411C168.638 107.555 163.891 102.807 158.035 102.807C152.18 102.807 147.433 107.555 147.433 113.411C147.433 119.267 152.18 124.015 158.035 124.015Z" fill="#1FA0BD"/>
<path d="M175.755 146.53H113.96C113.372 146.53 112.808 146.296 112.392 145.88C111.976 145.464 111.742 144.9 111.741 144.311V82.5105C111.742 81.9221 111.976 81.358 112.392 80.942C112.808 80.526 113.372 80.2919 113.96 80.2913H175.755C176.343 80.2919 176.907 80.526 177.323 80.942C177.739 81.358 177.973 81.9221 177.974 82.5105V144.311C177.973 144.9 177.739 145.464 177.323 145.88C176.907 146.296 176.343 146.53 175.755 146.53ZM113.96 81.1795C113.607 81.1798 113.269 81.3202 113.019 81.5698C112.77 81.8194 112.629 82.1579 112.629 82.5109V144.312C112.629 144.665 112.77 145.003 113.019 145.253C113.269 145.502 113.607 145.643 113.96 145.643H175.755C176.108 145.643 176.446 145.502 176.696 145.253C176.945 145.003 177.086 144.665 177.086 144.312V82.5109C177.086 82.1579 176.945 81.8194 176.696 81.5698C176.446 81.3202 176.108 81.1798 175.755 81.1795H113.96Z" fill="#CCCCCC"/>
<path d="M189.553 193.904H94.7786V194.792H189.553V193.904Z" fill="#CCCCCC"/>
<path d="M97.7716 188.361C99.4246 188.361 100.765 187.021 100.765 185.368C100.765 183.715 99.4246 182.375 97.7716 182.375C96.1186 182.375 94.7786 183.715 94.7786 185.368C94.7786 187.021 96.1186 188.361 97.7716 188.361Z" fill="#1FA0BD"/>
<path d="M189.553 223.835H94.7786V224.723H189.553V223.835Z" fill="#CCCCCC"/>
<path d="M97.7716 218.293C99.4246 218.293 100.765 216.953 100.765 215.3C100.765 213.647 99.4246 212.307 97.7716 212.307C96.1186 212.307 94.7786 213.647 94.7786 215.3C94.7786 216.953 96.1186 218.293 97.7716 218.293Z" fill="#1FA0BD"/>
<path d="M187.818 257.92H157.867C157.35 257.919 156.854 257.714 156.488 257.348C156.122 256.982 155.916 256.486 155.916 255.968V245.47C155.916 244.952 156.122 244.456 156.488 244.09C156.854 243.724 157.35 243.519 157.867 243.518H187.818C188.336 243.519 188.832 243.724 189.197 244.09C189.563 244.456 189.769 244.952 189.77 245.47V255.968C189.769 256.486 189.563 256.982 189.197 257.348C188.832 257.714 188.336 257.919 187.818 257.92Z" fill="#1FA0BD"/>
<path d="M107.535 188.361C109.188 188.361 110.528 187.021 110.528 185.368C110.528 183.715 109.188 182.375 107.535 182.375C105.882 182.375 104.542 183.715 104.542 185.368C104.542 187.021 105.882 188.361 107.535 188.361Z" fill="#1FA0BD"/>
<path d="M117.298 188.361C118.951 188.361 120.291 187.021 120.291 185.368C120.291 183.715 118.951 182.375 117.298 182.375C115.645 182.375 114.305 183.715 114.305 185.368C114.305 187.021 115.645 188.361 117.298 188.361Z" fill="#1FA0BD"/>
<path d="M107.535 218.293C109.188 218.293 110.528 216.953 110.528 215.3C110.528 213.647 109.188 212.307 107.535 212.307C105.882 212.307 104.542 213.647 104.542 215.3C104.542 216.953 105.882 218.293 107.535 218.293Z" fill="#1FA0BD"/>
<path d="M117.298 218.293C118.951 218.293 120.291 216.953 120.291 215.3C120.291 213.647 118.951 212.307 117.298 212.307C115.645 212.307 114.305 213.647 114.305 215.3C114.305 216.953 115.645 218.293 117.298 218.293Z" fill="#1FA0BD"/>
<path d="M321.794 324H10.4422C9.77573 324 9.23584 323.763 9.23584 323.472C9.23584 323.18 9.77573 322.943 10.4422 322.943H321.794C322.46 322.943 323 323.18 323 323.472C323 323.764 322.46 324 321.794 324Z" fill="#3F3D56"/>
<path d="M244.869 212.275C245.082 212.372 245.287 212.486 245.481 212.616L264.931 204.314L265.625 199.19L273.397 199.142L272.938 210.894L247.266 217.684C247.212 217.863 247.147 218.038 247.072 218.208C246.701 219 246.104 219.665 245.356 220.119C244.609 220.573 243.744 220.796 242.87 220.76C241.996 220.723 241.152 220.43 240.445 219.916C239.737 219.401 239.197 218.69 238.893 217.87C238.588 217.05 238.533 216.158 238.734 215.306C238.934 214.455 239.382 213.682 240.021 213.084C240.659 212.486 241.46 212.091 242.323 211.947C243.185 211.803 244.071 211.917 244.869 212.275Z" fill="#FFB8B8"/>
<path d="M276.223 318.771H270.907L268.378 298.263L276.224 298.264L276.223 318.771Z" fill="#FFB8B8"/>
<path d="M267.109 317.252H277.362V323.708H260.654C260.654 321.996 261.334 320.354 262.545 319.143C263.755 317.932 265.397 317.252 267.109 317.252Z" fill="#2F2E41"/>
<path d="M296.9 317.269L291.609 317.79L287.081 297.629L294.89 296.86L296.9 317.269Z" fill="#FFB8B8"/>
<path d="M287.681 316.651L297.885 315.646L298.517 322.071L281.889 323.709C281.806 322.865 281.89 322.013 282.136 321.202C282.382 320.391 282.786 319.636 283.323 318.98C283.861 318.325 284.523 317.782 285.271 317.382C286.018 316.982 286.837 316.734 287.681 316.651Z" fill="#2F2E41"/>
<path d="M277.703 177.438C283.586 177.438 288.354 172.669 288.354 166.786C288.354 160.903 283.586 156.134 277.703 156.134C271.821 156.134 267.053 160.903 267.053 166.786C267.053 172.669 271.821 177.438 277.703 177.438Z" fill="#FFB8B8"/>
<path d="M269.719 314.624C269.262 314.625 268.819 314.465 268.469 314.172C268.119 313.878 267.883 313.471 267.804 313.02C265.053 297.744 256.058 247.791 255.843 246.408C255.838 246.376 255.836 246.344 255.836 246.311V242.587C255.836 242.451 255.878 242.319 255.957 242.209L257.145 240.544C257.202 240.464 257.276 240.398 257.362 240.351C257.448 240.304 257.543 240.278 257.641 240.273C264.416 239.956 286.602 239.025 287.674 240.364C288.75 241.71 288.37 245.788 288.283 246.592L288.287 246.676L298.254 310.426C298.332 310.934 298.207 311.453 297.906 311.87C297.604 312.287 297.151 312.568 296.644 312.653L290.418 313.679C289.954 313.753 289.479 313.659 289.079 313.413C288.679 313.166 288.381 312.785 288.239 312.337C286.313 306.184 279.857 285.484 277.619 277.474C277.605 277.424 277.573 277.38 277.529 277.351C277.485 277.322 277.432 277.31 277.38 277.318C277.328 277.325 277.28 277.351 277.246 277.391C277.212 277.431 277.193 277.482 277.194 277.535C277.306 285.17 277.576 304.65 277.669 311.378L277.679 312.103C277.683 312.594 277.503 313.068 277.175 313.432C276.846 313.797 276.393 314.024 275.904 314.07L269.901 314.616C269.84 314.621 269.779 314.624 269.719 314.624Z" fill="#2F2E41"/>
<path d="M270.944 181.626C269.085 182.731 267.973 184.762 267.335 186.828C266.153 190.654 265.442 194.609 265.217 198.607L264.542 210.577L256.192 242.31C263.429 248.434 267.604 247.042 277.346 242.033C287.087 237.024 288.201 243.703 288.201 243.703L290.149 216.702L292.932 187.197C292.307 186.445 291.6 185.765 290.824 185.17C288.251 183.17 285.258 181.779 282.07 181.103C278.882 180.427 275.582 180.484 272.419 181.269L270.944 181.626Z" fill="#1FA0BD"/>
<path d="M268.232 218.684C268.456 218.768 268.674 218.87 268.883 218.989L288.114 209.362L288.433 204.147L296.366 203.6L296.791 215.488L271.091 223.988C270.881 224.889 270.402 225.703 269.718 226.325C269.034 226.946 268.177 227.344 267.26 227.467C266.344 227.589 265.413 227.429 264.589 227.009C263.766 226.589 263.09 225.928 262.652 225.115C262.213 224.301 262.033 223.373 262.135 222.454C262.236 221.536 262.615 220.67 263.221 219.971C263.826 219.273 264.63 218.776 265.525 218.546C266.421 218.316 267.365 218.364 268.232 218.684Z" fill="#FFB8B8"/>
<path d="M292.793 187.333C297.525 189.003 298.358 207.097 298.358 207.097C292.791 204.035 286.111 209.046 286.111 209.046C286.111 209.046 284.72 204.314 283.05 198.19C282.545 196.467 282.485 194.645 282.874 192.893C283.264 191.141 284.09 189.516 285.276 188.169C285.276 188.169 288.061 185.661 292.793 187.333Z" fill="#1FA0BD"/>
<path d="M287.253 169.603C285.926 168.541 284.116 170.471 284.116 170.471L283.054 160.915C283.054 160.915 276.419 161.71 272.172 160.65C267.926 159.59 267.262 164.499 267.262 164.499C267.044 162.516 266.999 160.518 267.13 158.527C267.395 156.138 270.845 153.749 276.95 152.156C283.054 150.563 286.239 157.465 286.239 157.465C290.486 159.588 288.58 170.665 287.253 169.603Z" fill="#2F2E41"/>
</g>
<defs>
<clipPath id="clip0">
<rect width="323" height="324" fill="white"/>
</clipPath>
</defs>
</svg>
