<svg width="71" height="69" viewBox="0 0 71 69" fill="none" xmlns="http://www.w3.org/2000/svg">
<path opacity="0.1" d="M57.4688 30.0156H54.0566V33.4278H57.4688V30.0156Z" fill="#EC4794"/>
<path opacity="0.1" d="M57.4688 38.4326H54.0566V41.8448H57.4688V38.4326Z" fill="#EC4794"/>
<path opacity="0.1" d="M57.4688 46.8477H54.0566V50.2598H57.4688V46.8477Z" fill="#EC4794"/>
<path opacity="0.1" d="M57.4688 55.2642H54.0566V58.6763H57.4688V55.2642Z" fill="#EC4794"/>
<path d="M67.8873 44.4277C67.8873 44.4277 65.9065 34.5727 66.6648 33.3465C66.6648 33.3465 66.6923 32.2067 66.6468 30.7538C66.6468 30.6986 66.6468 30.6434 66.6468 30.587C66.7802 30.676 66.9192 30.7561 67.0631 30.827C67.7617 31.1859 68.5638 31.2894 69.3307 31.1197L68.7308 30.4514C68.5868 30.2919 68.4368 30.1191 68.4056 29.9079C68.3744 29.6968 68.4608 29.5084 68.5352 29.32C69.1051 27.8803 69.1351 26.0698 68.0373 24.9708C67.1099 24.047 66.8843 22.8544 65.8777 22.011C65.1422 21.3931 64.7379 20.4873 64.3564 19.6114C64.0336 18.8712 63.7085 18.1249 63.5237 17.3402C63.3798 16.7272 63.3222 16.0925 63.1242 15.4938C62.9262 14.8951 62.5555 14.3132 61.976 14.0457C61.7697 13.9509 61.5405 13.8969 61.3521 13.7709C61.105 13.6041 60.9562 13.333 60.7774 13.0954C59.8692 11.8957 56.8278 12.6023 55.388 13.0894C54.9966 13.2121 54.6342 13.4129 54.3226 13.6797L54.3358 13.6581C54.3466 13.6401 54.3598 13.6221 54.3718 13.6041C54.2142 13.7316 54.0781 13.8835 53.9687 14.0541C53.7587 14.3864 53.6711 14.7739 53.496 15.1339C53.2848 15.5598 52.1102 16.7488 52.6153 17.2275C52.6507 17.2596 52.6913 17.2856 52.7353 17.3043C52.9249 17.3832 53.1337 17.4041 53.3352 17.3642L53.3136 17.4158C53.1411 17.8382 53.0527 18.2902 53.0533 18.7464C53.0533 20.7176 54.679 22.3157 56.6862 22.3157C57.0635 22.3161 57.4387 22.2582 57.7984 22.1442C57.8068 22.1898 57.814 22.2354 57.8224 22.2809C57.8224 22.2989 57.8284 22.3169 57.8308 22.3349L57.7672 22.4237C57.764 22.4182 57.7604 22.413 57.7564 22.4081L55.8727 25.0404C55.5848 25.2432 53.9267 26.443 53.8331 27.3428C53.7347 28.3278 53.6363 29.4808 53.6363 29.4808L53.6232 29.728C53.5408 29.7968 53.4446 29.8469 53.341 29.8748C53.2374 29.9028 53.129 29.9079 53.0233 29.8899C52.4354 29.794 52.4354 32.0495 52.4354 32.0495C52.4354 32.0495 52.0442 32.4095 51.7755 32.0975C51.5067 31.7856 50.7965 32.8426 50.7965 32.8426L46.3453 33.0346L46.2433 33.0406L46.0034 32.2979C45.9775 32.2196 45.9218 32.1546 45.8484 32.1171C45.7749 32.0796 45.6896 32.0725 45.611 32.0975C45.5924 32.1037 45.5744 32.1113 45.557 32.1203L45.5402 32.1299L45.509 32.1515L45.4934 32.1659C45.4848 32.1737 45.4768 32.1822 45.4694 32.1911L45.4551 32.2079L45.4479 32.2151C45.4201 32.2534 45.4018 32.2977 45.3943 32.3444C45.3868 32.391 45.3904 32.4388 45.4047 32.4839L45.611 33.1209C44.752 33.2937 43.8737 33.7808 44.59 35.1222L40.9595 34.4515L42.1341 35.4377L48.1977 36.6891C48.1174 36.8331 48.1701 37.0418 48.4209 37.3358C49.5007 38.6039 51.4683 38.9483 52.2602 39.0371C52.4693 39.5049 52.7305 39.9476 53.0389 40.3568L52.9705 41.6202C52.9705 41.6202 50.9656 51.2496 50.5985 51.7379C50.7838 51.5279 50.9535 51.3046 51.106 51.0697C50.5241 53.0481 49.7107 55.756 49.4971 56.1615C49.154 56.8094 48.836 59.4309 49.2272 59.5989C49.3471 59.6505 49.6903 59.6253 50.1798 59.5881V59.8052L50.1582 68.0345C50.1582 68.0345 50.2566 73.082 49.9866 73.5631C49.7167 74.0442 49.6447 75.0532 49.6447 75.0532C49.6447 75.0532 48.5649 77.0437 47.7094 77.8439C47.7036 77.8502 47.6972 77.8558 47.6902 77.8607L47.6638 77.6736C47.6638 77.6736 46.6356 78.9717 44.3609 78.8985C44.3609 78.8985 42.9919 79.7888 45.0219 79.8368C47.052 79.8848 49.6447 79.7648 49.6447 79.7648C49.6447 79.7648 51.4552 77.0053 52.9717 77.3652V79.4564H53.436V77.3316C53.6513 77.1899 53.8356 77.0059 53.9777 76.7908C54.1198 76.5757 54.2167 76.3339 54.2626 76.0803C54.3024 75.8188 54.2733 75.5514 54.1782 75.3047C54.0831 75.0579 53.9253 74.8401 53.7203 74.6729C53.6283 74.5897 53.5544 74.4883 53.5034 74.3752C53.4524 74.262 53.4254 74.1395 53.424 74.0154L53.4072 74.0298C53.4072 73.9878 53.3964 73.9446 53.3916 73.9003C53.2584 72.8205 53.0916 70.5925 53.6807 68.944C54.4882 66.6836 54.7329 63.5354 54.1451 61.6613C53.9554 61.0623 53.7995 60.453 53.6783 59.8364C53.6639 59.7585 53.6507 59.6841 53.6388 59.6145C54.0406 59.6688 54.4386 59.749 54.8301 59.8544C56.1919 60.23 59.1709 60.2996 61.7145 60.2792C61.7205 60.3487 61.7277 60.4219 61.7361 60.4951C61.7814 61.0038 61.8762 61.5069 62.0192 61.9972C62.3384 62.9571 62.4847 67.1887 62.4847 67.1887C62.4847 67.1887 62.8962 70.668 62.6719 72.0838C62.5519 72.8708 62.4319 73.6615 62.3635 74.4558V74.4714C62.3635 74.4714 61.6893 76.391 61.1962 77.4336C61.1842 77.46 61.171 77.4864 61.159 77.5116C61.0275 77.5236 60.8981 77.5522 60.7738 77.5968C60.7738 77.5968 60.1128 78.9165 59.4541 79.1349C58.7954 79.3533 59.0138 80.0719 60.5051 79.808C61.9964 79.544 64.2484 79.3281 64.2484 79.3281L64.3456 77.9819L64.8039 77.4084L64.6839 78.751L65.1722 78.655L65.1074 77.0221L65.8573 76.0839C65.8573 76.0839 66.7631 75.2776 65.417 73.6915V73.7263C65.4026 73.7035 65.3894 73.6795 65.3738 73.6567V73.6495C65.1506 73.304 64.9731 72.6597 65.2982 71.5163C65.8861 69.4503 66.228 67.575 66.228 67.575C66.228 67.575 67.5406 62.5515 65.9629 60.1748H66.0325C65.8708 59.8403 65.7565 59.485 65.6929 59.119C65.6849 59.0758 65.6777 59.0314 65.6713 58.9858C66.8387 58.9186 67.9845 58.7075 68.9191 58.2515C68.9155 58.2467 68.3528 46.3257 67.8873 44.4277ZM53.0665 36.1132V36.1372L52.8265 36.1492L53.0665 36.1132ZM52.2434 36.2272C52.204 36.2359 52.167 36.2536 52.1354 36.2788C52.0323 36.4247 51.9675 36.5943 51.9471 36.7719L51.5727 36.6879C51.5727 36.6879 51.31 36.6315 50.932 36.5679L50.7533 36.3879C51.2452 36.3472 51.7563 36.2872 52.2434 36.2272Z" fill="url(#paint0_linear)"/>
<path d="M53.7068 68.9668C53.1297 70.6105 53.2929 72.8289 53.4225 73.9063C53.4704 74.3046 53.5148 74.547 53.5148 74.547C53.5148 74.547 52.6522 76.5122 52.5802 76.5866C52.5082 76.661 50.0415 78.1667 50.0415 78.1667L48.3174 79.1733C48.3174 79.1733 46.5681 78.4067 47.4068 78.1427C47.5781 78.0739 47.7324 77.9687 47.8591 77.8344C48.6989 77.0365 49.7535 75.0533 49.7535 75.0533C49.7535 75.0533 49.8255 74.0467 50.0895 73.5679C50.3534 73.0892 50.2574 68.0586 50.2574 68.0586L50.2778 59.8581V58.7891L53.5592 58.8131C53.5799 59.176 53.6272 59.5369 53.7008 59.8929C53.8186 60.5073 53.9712 61.1146 54.1579 61.7117C54.7362 63.5822 54.4963 66.7148 53.7068 68.9668Z" fill="#FFB0B1"/>
<path d="M65.0848 71.5295C64.7656 72.6693 64.9396 73.3112 65.1579 73.6555V73.6627C65.438 74.0879 65.6328 74.5634 65.7314 75.0629L65.7506 75.1709L63.4998 78.4523L62.2785 78.9322C62.2785 78.9322 60.3144 78.2615 60.6732 78.0695C60.7632 78.0227 60.9035 77.7732 61.0643 77.4288C61.5442 76.391 62.2065 74.4762 62.2065 74.4762V74.4606C62.2761 73.6699 62.3865 72.8817 62.5088 72.097C62.7284 70.6849 62.3253 67.2187 62.3253 67.2187C62.3253 67.2187 62.1813 63.0039 61.8693 62.0453C61.7285 61.5579 61.6349 61.0581 61.5898 60.5527C61.525 59.9529 61.5106 59.4585 61.5106 59.4585C61.5106 59.4585 62.804 57.6589 65.1747 59.6025C65.3643 59.7575 65.5311 59.9385 65.6703 60.14C67.308 62.47 65.9894 67.6027 65.9894 67.6027C65.9894 67.6027 65.6594 69.4695 65.0848 71.5295Z" fill="#FFB0B1"/>
<path opacity="0.1" d="M53.5628 58.8106C53.5835 59.1735 53.6308 59.5344 53.7044 59.8904C52.3535 59.6924 51.0997 59.7908 50.2778 59.8556V58.7866L53.5628 58.8106Z" fill="black"/>
<path opacity="0.1" d="M65.8032 60.439C65.8032 60.439 63.8835 60.5326 61.5943 60.5518C61.5295 59.9519 61.5151 59.4576 61.5151 59.4576C61.5151 59.4576 62.8085 57.6579 65.1793 59.6015C65.3688 59.7566 65.5357 59.9375 65.6748 60.139C65.712 60.2413 65.7548 60.3415 65.8032 60.439Z" fill="black"/>
<path d="M65.803 60.2229C65.803 60.2229 57.3949 60.6296 54.8322 59.9109C52.2694 59.1923 49.7295 59.815 49.3468 59.6482C48.964 59.4814 49.2748 56.8695 49.6107 56.2228C49.9467 55.5761 51.7895 49.0361 51.7895 49.0361L53.5628 39.7906L55.4309 39.2759L55.5628 39.2387L58.8178 38.3413L61.203 37.6826C61.203 37.6826 65.9457 56.1988 65.539 57.5642C65.3913 58.087 65.3675 58.637 65.4694 59.1707C65.5316 59.5351 65.6438 59.8892 65.803 60.2229Z" fill="#1D2366"/>
<path d="M47.3819 33.4678C47.3819 33.4678 45.7022 35.2674 46.974 36.2705C48.2457 37.2735 49.082 36.3664 49.082 36.3664L47.3819 33.4678Z" fill="#C7DAF5"/>
<path opacity="0.1" d="M47.3819 33.4678C47.3819 33.4678 45.7022 35.2674 46.974 36.2705C48.2457 37.2735 49.082 36.3664 49.082 36.3664L47.3819 33.4678Z" fill="black"/>
<path d="M60.9527 21.6359C60.9527 21.6359 60.756 21.8231 60.4596 22.099C60.0373 22.4937 59.4122 23.0708 58.8579 23.5543C58.09 24.2226 57.4566 24.7133 57.6833 24.2946C57.9101 23.8759 57.8669 23.1464 57.7541 22.4637C57.7457 22.4181 57.7385 22.3726 57.7301 22.3282C57.6367 21.8268 57.5129 21.3316 57.3594 20.8452C57.3594 20.8452 58.5999 19.2423 59.2862 18.61C59.5418 18.3701 59.7205 18.2717 59.7313 18.4385C59.7433 18.6628 59.9113 19.1583 60.1201 19.6838C60.1261 19.7006 60.1321 19.7162 60.1393 19.733C60.2784 20.093 60.4356 20.4625 60.5736 20.7816C60.7848 21.2712 60.9527 21.6359 60.9527 21.6359Z" fill="#FFB0B1"/>
<path opacity="0.1" d="M60.1393 19.7326C60.0227 20.3597 59.7398 20.9439 59.3203 21.4242C58.9007 21.9046 58.3598 22.2635 57.7541 22.4633C57.6587 21.9156 57.5268 21.3749 57.3594 20.8448C57.3594 20.8448 59.6953 17.8274 59.7313 18.438C59.7397 18.6696 59.9221 19.1831 60.1393 19.7326Z" fill="black"/>
<path opacity="0.1" d="M57.5213 23.2697L57.8236 22.8438C57.8236 22.8438 58.024 24.0651 58.7606 23.5264C59.4973 22.9877 59.5333 27.5805 59.5333 27.5805L58.7426 39.4019L53.0293 39.06L53.1913 33.3478L53.8379 30.4683L55.4373 26.2823L56.3887 24.899L57.5213 23.2697Z" fill="black"/>
<path d="M59.5336 27.6534L58.8137 38.3422L58.7382 39.4748L55.5527 39.284L55.4328 39.2768L53.0332 39.1329L53.1952 33.4195L53.8419 30.54L55.4412 26.354L56.3926 24.9707L57.5252 23.3354L57.8275 22.9106C57.8275 22.9106 58.0279 24.132 58.7646 23.5933L58.7802 23.5825C59.5 23.1266 59.5336 27.6534 59.5336 27.6534Z" fill="#1D2366"/>
<path d="M53.9219 29.5396C53.9219 29.5396 53.6352 30.1394 53.0593 30.0423C52.4834 29.9451 52.4846 32.2019 52.4846 32.2019C52.4846 32.2019 52.1018 32.5618 51.8379 32.2499C51.5739 31.9379 50.8781 32.9925 50.8781 32.9925L46.5181 33.1845C46.5181 33.1845 48.4581 34.0711 48.0778 36.7538C48.0778 36.7538 54.6646 36.3459 54.8805 35.7232C55.0965 35.1005 53.9219 29.5396 53.9219 29.5396Z" fill="white"/>
<path opacity="0.03" d="M53.9219 29.5396C53.9219 29.5396 53.6352 30.1394 53.0593 30.0423C52.4834 29.9451 52.4846 32.2019 52.4846 32.2019C52.4846 32.2019 52.1018 32.5618 51.8379 32.2499C51.5739 31.9379 50.8781 32.9925 50.8781 32.9925L46.5181 33.1845C46.5181 33.1845 48.4581 34.0711 48.0778 36.7538C48.0778 36.7538 54.6646 36.3459 54.8805 35.7232C55.0965 35.1005 53.9219 29.5396 53.9219 29.5396Z" fill="black"/>
<path d="M41.2505 34.5942L42.3999 35.5757L51.8613 37.5637L50.688 36.3663L41.2505 34.5942Z" fill="white"/>
<path d="M57.539 23.6472C57.3818 23.8871 56.9319 25.1157 56.5564 26.1883C56.2432 27.0822 55.9817 27.868 55.9817 27.868C55.9817 27.868 55.371 31.8441 55.059 32.5627C54.7471 33.2814 54.9163 36.0841 54.9163 36.0841L53.7537 43.0056C53.7537 43.0056 53.227 46.575 52.4135 48.707C51.6109 50.8054 50.717 51.7892 50.6895 51.8204C51.0494 51.3333 53.011 41.7423 53.011 41.7423L53.6589 29.6461C53.6589 29.6461 53.7537 28.4967 53.8497 27.5141C53.9457 26.5315 55.8893 25.1901 55.8893 25.1901L57.7634 22.5254C57.9517 22.7773 57.8257 23.2165 57.539 23.6472Z" fill="white"/>
<path d="M52.6522 39.1929C52.6522 39.1929 49.8927 39.0729 48.5562 37.4676C47.2196 35.8623 51.6456 36.8269 51.6456 36.8269L52.7962 37.0909L52.6522 39.1929Z" fill="#FFB0B1"/>
<path opacity="0.1" d="M65.5393 57.5652C65.3916 58.088 65.3678 58.6381 65.4697 59.1717C62.4595 59.3852 59.2393 58.5718 59.2393 58.5718C58.6394 59.1237 57.0592 59.9371 57.0592 59.9371L56.1978 49.2591C55.6471 47.8194 55.4312 40.2764 55.4312 40.2764C55.4312 40.2764 55.4803 39.8816 55.5511 39.2901C55.5511 39.2757 55.5511 39.2601 55.5571 39.2457C55.7719 37.5936 56.1978 34.4922 56.4066 34.0735C56.6945 33.4976 55.5211 31.9655 55.5211 31.9655L56.055 27.4123L56.1198 26.8628C57.2452 26.3601 58.1079 24.7548 58.1079 24.7548L58.7701 23.5946C59.49 23.1327 59.5272 27.6595 59.5272 27.6595L58.8073 38.3483L61.1925 37.6896C61.1925 37.6896 65.946 56.1998 65.5393 57.5652Z" fill="black"/>
<path d="M68.6288 58.3032C65.3474 59.9325 59.3833 58.4232 59.3833 58.4232C58.7834 58.9751 57.2033 59.7886 57.2033 59.7886L56.3407 49.1105C55.7912 47.6708 55.5752 40.1278 55.5752 40.1278C55.5752 40.1278 56.2687 34.4996 56.5566 33.9249C56.6406 33.757 56.5998 33.5074 56.5002 33.2386C56.0106 31.9595 55.8306 30.5826 55.9747 29.2206L56.2051 27.2637L56.2687 26.7154C57.3953 26.2115 58.2579 24.6062 58.2579 24.6062L58.8578 23.5552L59.9616 21.6188L60.4847 20.7021L60.5735 20.7825L61.2514 21.3968C61.2514 21.3968 61.5393 21.6368 61.9712 21.9967C62.9106 22.7886 64.5339 24.1827 65.3714 25.0358C66.1081 25.7868 66.3408 28.7083 66.408 30.9075C66.4524 32.3556 66.426 33.4906 66.426 33.4906C65.6833 34.7132 67.6258 44.5286 67.6258 44.5286C68.0781 46.4254 68.6288 58.3032 68.6288 58.3032Z" fill="white"/>
<path opacity="0.03" d="M62.3299 24.5818C62.3299 24.5818 60.0779 28.8686 60.3395 30.4979C60.601 32.1272 61.3449 33.9713 60.9862 34.402C60.8629 34.5652 60.7036 34.6977 60.5206 34.789C60.3377 34.8804 60.1361 34.9282 59.9316 34.9287C59.5716 34.9527 58.6118 35.6234 58.6118 35.6954C58.6118 35.7674 57.7252 35.7674 56.9321 36.1033C56.1391 36.4392 54.9681 36.63 54.9681 36.63C54.9681 36.63 52.6885 36.558 52.4761 36.774C52.2638 36.9899 52.0454 38.2821 52.5001 39.3127C52.9548 40.3433 53.46 41.1124 53.8415 41.2528C54.223 41.3931 56.6442 40.5821 58.6082 40.3901C60.5723 40.1982 62.7043 38.642 62.7043 38.642C62.7043 38.642 65.0522 37.8022 65.4637 36.3901C65.8753 34.9779 64.961 27.2165 64.961 27.2165C64.961 27.2165 64.27 23.5992 62.3299 24.5818Z" fill="black"/>
<path opacity="0.03" d="M62.0418 24.2216C62.0418 24.2216 59.7898 28.5096 60.0537 30.1377C60.3177 31.7658 61.0592 33.6111 60.6992 34.043C60.5764 34.2064 60.4173 34.339 60.2345 34.4304C60.0517 34.5218 59.8502 34.5695 59.6458 34.5697C59.2859 34.5937 58.3261 35.2644 58.3261 35.3364C58.3261 35.4084 57.4394 35.4084 56.6464 35.7431C55.8533 36.0779 54.6823 36.2698 54.6823 36.2698C54.6823 36.2698 52.4028 36.1978 52.1916 36.4138C51.9804 36.6297 51.7597 37.9231 52.2156 38.9525C52.6715 39.9819 53.1754 40.7522 53.5569 40.8926C53.9385 41.0329 56.3596 40.2219 58.3237 40.0311C60.2877 39.8404 62.4197 38.2818 62.4197 38.2818C62.4197 38.2818 64.7665 37.442 65.1732 36.0311C65.5799 34.6201 64.6705 26.8563 64.6705 26.8563C64.6705 26.8563 63.9818 23.2402 62.0418 24.2216Z" fill="black"/>
<path d="M62.2592 24.3663C62.2592 24.3663 60.0072 28.6543 60.2711 30.2824C60.5351 31.9105 61.2765 33.7558 60.9178 34.1865C60.795 34.3502 60.6358 34.4832 60.4528 34.5748C60.2697 34.6664 60.0679 34.7142 59.8632 34.7144C59.5033 34.7384 58.5435 35.4091 58.5435 35.4798C58.5435 35.5506 57.658 35.5518 56.8638 35.8878C56.0695 36.2237 54.8997 36.4145 54.8997 36.4145C54.8997 36.4145 52.6201 36.3425 52.4078 36.5585C52.1954 36.7744 51.9771 38.0678 52.4318 39.0972C52.8865 40.1266 53.3916 40.8969 53.7731 41.0372C54.1547 41.1776 56.5758 40.3666 58.5399 40.1746C60.5039 39.9826 62.6359 38.4265 62.6359 38.4265C62.6359 38.4265 64.9839 37.5867 65.3954 36.1745C65.8069 34.7624 64.8987 27.001 64.8987 27.001C64.8987 27.001 64.198 23.3897 62.2592 24.3663Z" fill="white"/>
<path opacity="0.1" d="M62.21 35.8673C62.21 35.8673 60.4104 35.5074 61.0367 36.1073C61.6629 36.7072 61.6593 37.2327 62.426 37.2087C63.1927 37.1847 62.21 35.8673 62.21 35.8673Z" fill="black"/>
<path opacity="0.1" d="M65.2516 48.7739C65.2516 48.7739 64.4381 49.3246 65.9942 50.594C67.5504 51.8634 65.2516 48.7739 65.2516 48.7739Z" fill="black"/>
<path opacity="0.1" d="M63.699 53.3008C63.699 53.3728 63.4111 55.9403 64.4885 56.5822C65.5659 57.2241 63.699 53.3008 63.699 53.3008Z" fill="black"/>
<path d="M46.5927 33.1787C45.7241 33.2087 43.8476 33.4739 44.8206 35.2891C45.6809 36.8956 47.1266 35.8218 47.9401 35.0072C47.7416 34.2476 47.2594 33.5932 46.5927 33.1787Z" fill="#FFB0B1"/>
<path d="M47.9507 34.9921L47.9866 34.9551L47.9507 34.9921Z" fill="#FFB0B1"/>
<path opacity="0.1" d="M61.9712 22.0694C61.0498 22.6993 60.2771 23.2308 60.126 23.3412C59.7132 23.6471 58.9262 25.4432 58.4187 26.3598C58.0143 27.0977 56.7006 27.2873 56.2051 27.3341L56.2687 26.7858C57.3953 26.2818 58.2579 24.6765 58.2579 24.6765L60.4847 20.7725L61.2514 21.4695C61.2514 21.4695 61.5393 21.7095 61.9712 22.0694Z" fill="black"/>
<path d="M61.9712 21.9981C61.0498 22.628 60.2771 23.1595 60.126 23.2711C59.7132 23.5758 58.9262 25.3719 58.4187 26.2885C58.0143 27.0264 56.7006 27.216 56.2051 27.2628L56.2687 26.7145C57.3953 26.2106 58.2579 24.6053 58.2579 24.6053L60.4847 20.7012L61.2514 21.3958C61.2514 21.3958 61.5393 21.6334 61.9712 21.9981Z" fill="#DCE7FF"/>
<path d="M60.1982 18.9407C60.1987 19.661 59.9802 20.3643 59.5719 20.9576C59.0896 21.659 58.3718 22.1643 57.5488 22.3818C56.7258 22.5993 55.8521 22.5146 55.0862 22.143C54.3204 21.7714 53.7131 21.1376 53.3746 20.3566C53.036 19.5755 52.9887 18.699 53.2411 17.886C53.4936 17.0731 54.0291 16.3776 54.7505 15.9257C55.4719 15.4738 56.3314 15.2954 57.173 15.423C58.0146 15.5506 58.7826 15.9757 59.3377 16.6211C59.8927 17.2665 60.198 18.0895 60.1982 18.9407Z" fill="#FFB0B1"/>
<path opacity="0.1" d="M66.4085 30.9086C65.9213 30.6088 65.5245 30.1826 65.2604 29.6752C65.06 29.2793 64.9268 28.8221 64.5849 28.5414C64.2765 28.2894 63.865 28.2283 63.4811 28.1155C62.2189 27.7423 61.1607 26.5906 61.1211 25.2756C61.1019 24.6565 61.2951 24.0386 61.2075 23.4255C61.1577 23.0786 61.0197 22.7501 60.8068 22.4717C60.701 22.3385 60.5851 22.2138 60.46 22.0986C60.2921 21.9402 60.1157 21.7866 59.9621 21.6187C59.8654 21.5147 59.7809 21.3999 59.7102 21.2767C59.6531 21.1759 59.6069 21.0693 59.5722 20.9588C59.3322 20.2245 59.5506 19.3535 59.2867 18.6108L59.2723 18.57C59.1727 18.3061 58.9699 18.0421 58.688 18.0217C58.406 18.0013 58.1649 18.2353 57.8961 18.3397C57.3334 18.558 56.7263 18.1861 56.2572 17.807C55.7881 17.4278 55.259 16.9947 54.6627 17.0787C54.268 17.1351 53.956 17.4038 53.5925 17.543C53.5104 17.5748 53.4257 17.5993 53.3394 17.6162C53.647 16.849 54.2123 16.2128 54.938 15.817C55.6637 15.4213 56.5046 15.2906 57.3162 15.4475C58.1278 15.6043 58.8595 16.039 59.3855 16.6767C59.9114 17.3144 60.1989 18.1153 60.1985 18.942C60.1989 19.1916 60.1727 19.4405 60.1205 19.6846C60.1265 19.7014 60.1325 19.717 60.1397 19.7338C60.2789 20.0937 60.4361 20.4633 60.574 20.7824L61.2519 21.3967C61.2519 21.3967 61.5398 21.6367 61.9718 21.9966C62.9112 22.7885 64.5345 24.1826 65.3719 25.0356C66.1086 25.7891 66.339 28.7094 66.4085 30.9086Z" fill="black"/>
<path d="M53.5497 15.351C53.7213 15.0019 53.8064 14.6107 54.0116 14.2796C54.3128 13.7997 54.8383 13.4926 55.3782 13.3066C56.7879 12.8207 59.767 12.1152 60.6572 13.3066C60.8324 13.5465 60.9775 13.8129 61.2199 13.9785C61.4047 14.1044 61.6278 14.1584 61.8306 14.2532C62.3981 14.5196 62.7604 15.1003 62.9536 15.693C63.1467 16.2856 63.2043 16.9215 63.3459 17.5322C63.5271 18.3157 63.845 19.0583 64.1617 19.7962C64.5349 20.6672 64.9308 21.5707 65.6507 22.1862C66.6333 23.026 66.8505 24.215 67.7623 25.1364C68.8421 26.2306 68.8073 28.0363 68.2506 29.47C68.1774 29.6584 68.0946 29.8551 68.1234 30.0555C68.1522 30.2559 68.301 30.4382 68.4414 30.5978L69.0316 31.2637C67.6351 31.6008 66.055 30.8714 65.4047 29.5912C65.2044 29.1953 65.0712 28.7394 64.728 28.4574C64.4209 28.2055 64.0082 28.1455 63.6254 28.0327C62.3633 27.6584 61.3051 26.5054 61.2655 25.1904C61.2463 24.5725 61.4394 23.9546 61.3519 23.3427C61.3031 22.9934 61.1646 22.6627 60.9499 22.3829C60.62 21.9522 60.1221 21.6631 59.8533 21.1831C59.3986 20.3805 59.7442 19.3379 59.4166 18.4764C59.3158 18.2125 59.1143 17.9485 58.8323 17.9281C58.5504 17.9077 58.3092 18.1417 58.0393 18.2461C57.4778 18.4644 56.8707 18.0937 56.4016 17.7134C55.9325 17.333 55.4034 16.9011 54.8059 16.9863C54.4111 17.0415 54.1004 17.3103 53.7369 17.4506C53.4681 17.5538 52.9234 17.6462 52.6883 17.4194C52.1915 16.9623 53.3421 15.7781 53.5497 15.351Z" fill="#591D4B"/>
<path opacity="0.1" d="M65.7382 29.1952C65.5367 28.7993 65.4047 28.3434 65.0616 28.0626C64.7544 27.8107 64.3417 27.7495 63.9578 27.6367C62.6968 27.2636 61.6386 26.1106 61.5978 24.7956C61.5786 24.1777 61.7718 23.5587 61.6854 22.9468C61.6351 22.5997 61.4968 22.2713 61.2835 21.9929C60.9523 21.5622 60.4544 21.2731 60.1869 20.7932C59.7321 19.9917 60.0777 18.9491 59.7489 18.0865C59.6494 17.8237 59.4466 17.5598 59.1658 17.5382C58.8851 17.5166 58.6415 17.7529 58.3728 17.8573C57.8113 18.0757 57.203 17.7037 56.7351 17.3246C56.2672 16.9455 55.7357 16.5124 55.1394 16.5963C54.7447 16.6527 54.4327 16.9215 54.0704 17.0607C53.8016 17.1638 53.2557 17.2574 53.0206 17.0307C52.5263 16.5507 53.6769 15.369 53.8832 14.9442C54.0548 14.5939 54.14 14.204 54.3463 13.8728C54.3571 13.8548 54.3691 13.8368 54.3811 13.8188C54.2268 13.9467 54.0936 14.0982 53.9864 14.2676C53.7812 14.5987 53.6961 14.9874 53.5245 15.339C53.3169 15.7637 52.1663 16.9491 52.6618 17.4254C52.9018 17.6533 53.4417 17.5598 53.7105 17.4566C54.0704 17.3162 54.3847 17.0475 54.7795 16.9923C55.3793 16.9071 55.9073 17.3402 56.3752 17.7193C56.8431 18.0985 57.455 18.4704 58.0141 18.252C58.2828 18.1476 58.518 17.9125 58.8059 17.9341C59.0939 17.9557 59.2858 18.2184 59.3902 18.4824C59.7178 19.3438 59.3722 20.3864 59.8269 21.1891C60.0957 21.6606 60.5936 21.9558 60.9235 22.3889C61.1382 22.6687 61.2767 22.9994 61.3255 23.3487C61.413 23.9606 61.2199 24.5785 61.2391 25.1964C61.2787 26.5161 62.3369 27.6643 63.599 28.0386C63.9794 28.1514 64.3945 28.2114 64.7016 28.4634C65.046 28.7453 65.1815 29.2012 65.3783 29.5971C66.0286 30.8773 67.6087 31.6068 69.0052 31.2696L68.7269 30.9553C67.5163 30.9733 66.2913 30.2846 65.7382 29.1952Z" fill="black"/>
<path opacity="0.1" d="M57.4668 23.7192C57.3096 23.9592 56.8597 25.1878 56.4841 26.2604C56.1326 26.1236 55.8135 25.2514 55.8135 25.2514L57.6875 22.5854C57.8795 22.8494 57.7535 23.2873 57.4668 23.7192Z" fill="black"/>
<path d="M57.539 23.6477C57.3819 23.8877 56.9319 25.1163 56.5564 26.1889C56.2049 26.0533 55.8857 25.1799 55.8857 25.1799L57.7598 22.5151C57.9518 22.7779 57.8258 23.217 57.539 23.6477Z" fill="#DCE7FF"/>
<path d="M46.642 35.9047L45.603 32.6281C45.5907 32.5897 45.5861 32.5493 45.5894 32.5092C45.5928 32.469 45.6041 32.4299 45.6226 32.3942C45.6411 32.3584 45.6665 32.3266 45.6973 32.3006C45.7281 32.2747 45.7637 32.2551 45.8022 32.243C45.8795 32.2188 45.9632 32.2262 46.0351 32.2635C46.107 32.3008 46.1613 32.365 46.1861 32.4421L47.2251 35.7151L47.1219 36.4002L46.642 35.9047Z" fill="#BE8B87"/>
<path opacity="0.1" d="M45.7013 32.3397C45.7788 32.3152 45.8628 32.3224 45.935 32.3598C46.0072 32.3971 46.0616 32.4615 46.0864 32.5389L47.1254 35.8119L47.0474 36.3254L47.123 36.4046L47.2262 35.7195L46.1812 32.4465C46.1564 32.3694 46.1021 32.3052 46.0302 32.2679C45.9583 32.2306 45.8746 32.2232 45.7973 32.2474C45.7322 32.2685 45.676 32.3107 45.6377 32.3673C45.6581 32.3564 45.6794 32.3472 45.7013 32.3397Z" fill="white"/>
<path d="M46.6421 35.9045L47.2252 35.7197L47.14 36.2812L47.122 36.4048L46.9516 36.2272L46.6421 35.9045Z" fill="#EFC8C4"/>
<path d="M45.5972 33.7915C45.5972 33.7915 47.6812 33.7795 47.1905 34.6661C46.6998 35.5528 45.9331 35.6596 45.9331 35.6596L45.5972 33.7915Z" fill="#FFB0B1"/>
<path d="M31.9518 41.5014C33.871 42.6523 37.2903 44.0945 40.7845 42.6124L43.0432 41.6543L38.5169 36.5804C42.1288 32.5979 44.1271 27.4123 44.1216 22.0359C44.1161 16.6594 42.1072 11.4779 38.4872 7.50283C34.8671 3.52773 29.8956 1.04431 24.5431 0.537297C19.1906 0.0302873 13.8412 1.53608 9.53917 4.76076C5.2371 7.98545 2.2911 12.6976 1.2762 17.9774C0.261295 23.2572 1.25033 28.7257 4.05025 33.3156C6.85018 37.9054 11.26 41.2872 16.4191 42.8007C21.5781 44.3143 27.116 43.851 31.9518 41.5014Z" fill="white"/>
<path d="M31.9409 41.7749C33.785 42.8576 37.298 44.3539 40.8795 42.8345L43.4482 41.745L38.8415 36.5811C41.7078 33.357 43.5559 29.3569 44.1532 25.0845C44.7505 20.8121 44.0703 16.4585 42.1981 12.572C40.326 8.68551 37.3457 5.43986 33.6325 3.24384C29.9194 1.04781 25.6395 -0.00038746 21.3318 0.231248C17.024 0.462884 12.8812 1.96399 9.42496 4.54554C5.96873 7.12708 3.35364 10.6736 1.90906 14.7385C0.464485 18.8033 0.255009 23.2048 1.30701 27.3884C2.35902 31.5721 4.62546 35.351 7.82091 38.2491C11.0301 41.1773 15.0422 43.0779 19.3409 43.7063C23.6395 44.3346 28.0278 43.662 31.9409 41.7749H31.9409ZM6.67178 7.69768C8.55738 5.61756 10.8343 3.92928 13.3725 2.72925C15.9107 1.52923 18.6604 0.840973 21.4646 0.70379C24.2688 0.566607 27.0725 0.983186 29.7157 1.92974C32.3589 2.87628 34.7897 4.33426 36.8694 6.22039C38.949 8.10653 40.6367 10.3839 41.8361 12.9223C43.0355 15.4608 43.7231 18.2107 43.8595 21.015C43.996 23.8192 43.5787 26.6229 42.6315 29.2658C41.6843 31.9087 40.2257 34.3392 38.339 36.4184L38.1933 36.5792L42.6399 41.5638L40.6911 42.3904C37.2321 43.8577 33.8092 42.3335 32.0767 41.2945L31.9647 41.2272L31.8472 41.2844C27.3812 43.4544 22.2991 44.0019 17.4733 42.8331C12.6476 41.6642 8.37926 38.8518 5.40118 34.8788C2.42311 30.9057 0.921047 26.0198 1.1529 21.0599C1.38475 16.1001 3.33604 11.3756 6.67176 7.69769L6.67178 7.69768Z" fill="#EC4794"/>
<path opacity="0.1" d="M4.25631 21.9228C4.25661 16.9513 6.11831 12.1602 9.47475 8.49278C12.8312 4.8254 17.4391 2.54762 22.3911 2.10801C21.8117 2.05725 21.2255 2.02979 20.6329 2.02979C15.359 2.03297 10.3022 4.13023 6.57415 7.86055C2.84608 11.5909 0.751862 16.6489 0.751862 21.9228C0.751862 27.1967 2.84608 32.2547 6.57415 35.985C10.3022 39.7154 15.359 41.8126 20.6329 41.8158C21.2246 41.8158 21.8097 41.788 22.3883 41.7373C17.4369 41.2971 12.8297 39.0191 9.47381 35.3518C6.11795 31.6845 4.25662 26.8938 4.25631 21.9228Z" fill="black"/>
<path d="M9.75002 18.0527H22.6447C23.0092 18.0527 23.3047 18.3482 23.3047 18.7128C23.3047 19.0773 23.0092 19.3728 22.6447 19.3728H9.75002C9.3855 19.3728 9.09 19.0773 9.09 18.7128C9.09 18.3482 9.3855 18.0527 9.75002 18.0527Z" fill="#EC4794"/>
<path d="M9.79762 22.522H33.2526C33.6171 22.522 33.9126 22.8175 33.9126 23.182C33.9126 23.5465 33.6171 23.842 33.2526 23.842H9.79762C9.4331 23.842 9.1376 23.5465 9.1376 23.182C9.1376 22.8175 9.4331 22.522 9.79762 22.522Z" fill="#EC4794"/>
<path d="M9.82187 27.0889H33.2526C33.6171 27.0889 33.9126 27.3844 33.9126 27.7489C33.9126 28.1134 33.6171 28.4089 33.2526 28.4089H9.82187C9.45735 28.4089 9.16185 28.1134 9.16185 27.7489C9.16185 27.3844 9.45735 27.0889 9.82187 27.0889Z" fill="#EC4794"/>
<defs>
<linearGradient id="paint0_linear" x1="26728.9" y1="55691.4" x2="26728.9" y2="17795.3" gradientUnits="userSpaceOnUse">
<stop stop-color="#808080" stop-opacity="0.25"/>
<stop offset="0.54" stop-color="#808080" stop-opacity="0.12"/>
<stop offset="1" stop-color="#808080" stop-opacity="0.1"/>
</linearGradient>
</defs>
</svg>
