<svg width="71" height="69" viewBox="0 0 71 69" fill="none" xmlns="http://www.w3.org/2000/svg">
<path d="M54.4637 40.9928H3.69979C2.89041 40.9919 2.11445 40.6699 1.54214 40.0973C0.969826 39.5248 0.647896 38.7485 0.646973 37.9389V7.57352C0.647896 6.76383 0.969826 5.98757 1.54214 5.41504C2.11445 4.84251 2.89041 4.52046 3.69979 4.51953H54.4637C55.2731 4.52046 56.049 4.84251 56.6214 5.41504C57.1937 5.98757 57.5156 6.76383 57.5165 7.57352V37.9389C57.5156 38.7485 57.1937 39.5248 56.6214 40.0973C56.049 40.6699 55.2731 40.9919 54.4637 40.9928ZM3.69979 5.04307C3.02916 5.04384 2.38623 5.31069 1.91203 5.78507C1.43783 6.25946 1.17108 6.90264 1.17031 7.57352V37.9389C1.17108 38.6097 1.43783 39.2529 1.91203 39.7273C2.38623 40.2017 3.02916 40.4685 3.69979 40.4693H54.4637C55.1343 40.4685 55.7773 40.2017 56.2515 39.7273C56.7257 39.2529 56.9924 38.6097 56.9932 37.9389V7.57352C56.9924 6.90264 56.7257 6.25946 56.2515 5.78507C55.7773 5.31069 55.1343 5.04384 54.4637 5.04307H3.69979Z" fill="#3F3D56"/>
<path d="M10.4853 11.7181C10.0582 11.7181 9.64062 11.5915 9.28548 11.3542C8.93033 11.1169 8.65353 10.7796 8.49008 10.385C8.32662 9.99036 8.28385 9.55613 8.36718 9.13721C8.45051 8.71829 8.65619 8.33348 8.95822 8.03146C9.26024 7.72943 9.64505 7.52375 10.064 7.44042C10.4829 7.35709 10.9171 7.39986 11.3117 7.56331C11.7063 7.72677 12.0436 8.00357 12.2809 8.35872C12.5182 8.71386 12.6449 9.1314 12.6449 9.55853C12.6442 10.1311 12.4165 10.68 12.0116 11.0849C11.6068 11.4898 11.0579 11.7175 10.4853 11.7181ZM10.4853 7.91723C10.1607 7.91723 9.84334 8.01349 9.57343 8.19384C9.30352 8.37419 9.09315 8.63052 8.96893 8.93043C8.8447 9.23034 8.8122 9.56035 8.87552 9.87873C8.93885 10.1971 9.09517 10.4896 9.32471 10.7191C9.55425 10.9486 9.84671 11.105 10.1651 11.1683C10.4835 11.2316 10.8135 11.1991 11.1134 11.0749C11.4133 10.9507 11.6696 10.7403 11.85 10.4704C12.0303 10.2005 12.1266 9.88315 12.1266 9.55853C12.1261 9.12338 11.953 8.7062 11.6453 8.3985C11.3376 8.0908 10.9204 7.91772 10.4853 7.91723Z" fill="#3F3D56"/>
<path d="M47.3188 11.7181C46.8917 11.7181 46.4741 11.5915 46.119 11.3542C45.7638 11.1169 45.487 10.7796 45.3236 10.385C45.1601 9.99036 45.1173 9.55613 45.2007 9.13721C45.284 8.71829 45.4897 8.33348 45.7917 8.03146C46.0937 7.72943 46.4785 7.52375 46.8975 7.44042C47.3164 7.35709 47.7506 7.39986 48.1452 7.56331C48.5398 7.72677 48.8771 8.00357 49.1144 8.35872C49.3517 8.71386 49.4784 9.1314 49.4784 9.55853C49.4777 10.1311 49.25 10.68 48.8451 11.0849C48.4403 11.4898 47.8913 11.7175 47.3188 11.7181ZM47.3188 7.91723C46.9942 7.91723 46.6768 8.01349 46.4069 8.19384C46.137 8.37419 45.9266 8.63052 45.8024 8.93043C45.6782 9.23034 45.6457 9.56035 45.709 9.87873C45.7724 10.1971 45.9287 10.4896 46.1582 10.7191C46.3877 10.9486 46.6802 11.105 46.9986 11.1683C47.317 11.2316 47.647 11.1991 47.9469 11.0749C48.2468 10.9507 48.5031 10.7403 48.6835 10.4704C48.8638 10.2005 48.9601 9.88315 48.9601 9.55853C48.9596 9.12338 48.7865 8.7062 48.4788 8.3985C48.1711 8.0908 47.7539 7.91772 47.3188 7.91723Z" fill="#3F3D56"/>
<path d="M15.6048 24.9154H6.20601C5.81378 24.9149 5.43775 24.7591 5.1604 24.4821C4.88305 24.2051 4.72703 23.8295 4.72656 23.4377V17.8747C4.72703 17.4829 4.88305 17.1073 5.1604 16.8303C5.43775 16.5533 5.81378 16.3974 6.20601 16.397H15.6048C15.9971 16.3974 16.3731 16.5533 16.6505 16.8303C16.9278 17.1073 17.0838 17.4829 17.0843 17.8747V23.4377C17.0838 23.8295 16.9278 24.2051 16.6505 24.4821C16.3731 24.7591 15.9971 24.9149 15.6048 24.9154Z" fill="#DFDFDF"/>
<path d="M33.7206 24.9154H24.3217C23.9295 24.9149 23.5535 24.7591 23.2761 24.4821C22.9988 24.2051 22.8428 23.8295 22.8423 23.4377V17.8747C22.8428 17.4829 22.9988 17.1073 23.2761 16.8303C23.5535 16.5533 23.9295 16.3974 24.3217 16.397H33.7206C34.1128 16.3974 34.4888 16.5533 34.7662 16.8303C35.0435 17.1073 35.1995 17.4829 35.2 17.8747V23.4377C35.1995 23.8295 35.0435 24.2051 34.7662 24.4821C34.4888 24.7591 34.1128 24.9149 33.7206 24.9154Z" fill="#DFDFDF"/>
<path d="M42.5033 16.6372C42.1576 16.6376 41.8261 16.7749 41.5816 17.0189C41.3371 17.263 41.1996 17.5939 41.1992 17.9391V23.4938C41.1996 23.839 41.3371 24.1699 41.5816 24.414C41.8261 24.658 42.1576 24.7953 42.5033 24.7957H51.8929C52.2387 24.7953 52.5701 24.658 52.8146 24.414C53.0591 24.1699 53.1966 23.839 53.197 23.4938V17.9391C53.1966 17.5939 53.0591 17.263 52.8146 17.0189C52.5701 16.7749 52.2387 16.6376 51.8929 16.6372H42.5033Z" fill="#DFDFDF"/>
<path d="M15.725 36.0736H6.32613C5.9339 36.0731 5.55786 35.9173 5.28051 35.6403C5.00317 35.3633 4.84715 34.9877 4.84668 34.5959V29.0329C4.84715 28.6411 5.00317 28.2655 5.28051 27.9885C5.55786 27.7115 5.9339 27.5556 6.32613 27.5552H15.725C16.1172 27.5556 16.4932 27.7115 16.7706 27.9885C17.0479 28.2655 17.2039 28.6411 17.2044 29.0329V34.5959C17.2039 34.9877 17.0479 35.3633 16.7706 35.6403C16.4932 35.9173 16.1172 36.0731 15.725 36.0736Z" fill="#DFDFDF"/>
<path d="M33.8412 36.0736H24.4423C24.0501 36.0731 23.6741 35.9173 23.3967 35.6403C23.1194 35.3633 22.9634 34.9877 22.9629 34.5959V29.0329C22.9634 28.6411 23.1194 28.2655 23.3967 27.9885C23.6741 27.7115 24.0501 27.5556 24.4423 27.5552H33.8412C34.2334 27.5556 34.6094 27.7115 34.8868 27.9885C35.1641 28.2655 35.3202 28.6411 35.3206 29.0329V34.5959C35.3202 34.9877 35.1641 35.3633 34.8868 35.6403C34.6094 35.9173 34.2334 36.0731 33.8412 36.0736Z" fill="#DFDFDF"/>
<path d="M51.9584 36.0736H42.5595C42.1673 36.0731 41.7913 35.9173 41.5139 35.6403C41.2366 35.3633 41.0805 34.9877 41.0801 34.5959V29.0329C41.0805 28.6411 41.2366 28.2655 41.5139 27.9885C41.7913 27.7115 42.1673 27.5556 42.5595 27.5552H51.9584C52.3506 27.5556 52.7266 27.7115 53.004 27.9885C53.2813 28.2655 53.4373 28.6411 53.4378 29.0329V34.5959C53.4373 34.9877 53.2813 35.3633 53.004 35.6403C52.7266 35.9173 52.3506 36.0731 51.9584 36.0736Z" fill="#DFDFDF"/>
<path d="M10.4851 10.1584C10.3261 10.1582 10.1736 10.0937 10.0612 9.97906C9.94871 9.86443 9.88545 9.70901 9.88525 9.5469V0.811662C9.88525 0.649491 9.94845 0.49396 10.061 0.379288C10.1735 0.264616 10.326 0.200195 10.4851 0.200195C10.6442 0.200195 10.7968 0.264616 10.9093 0.379288C11.0218 0.49396 11.085 0.649491 11.085 0.811662V9.5469C11.0848 9.70901 11.0216 9.86443 10.9091 9.97906C10.7967 10.0937 10.6442 10.1582 10.4851 10.1584Z" fill="#3F3D56"/>
<path d="M47.3182 10.1584C47.1591 10.1582 47.0066 10.0937 46.8942 9.97906C46.7817 9.86443 46.7185 9.70901 46.7183 9.5469V0.811662C46.7183 0.649491 46.7815 0.49396 46.894 0.379288C47.0065 0.264616 47.1591 0.200195 47.3182 0.200195C47.4773 0.200195 47.6298 0.264616 47.7423 0.379288C47.8548 0.49396 47.918 0.649491 47.918 0.811662V9.5469C47.9178 9.70901 47.8546 9.86443 47.7421 9.97906C47.6297 10.0937 47.4772 10.1582 47.3182 10.1584Z" fill="#3F3D56"/>
<path d="M10.5441 22.9957C10.2858 22.9961 10.0343 22.9123 9.82761 22.7569L9.8148 22.7473L7.1161 20.677C6.86368 20.4829 6.69847 20.1962 6.65682 19.88C6.61516 19.5637 6.70048 19.2439 6.894 18.9907C7.08752 18.7376 7.37339 18.5719 7.68872 18.5301C8.00405 18.4884 8.32301 18.5739 8.57544 18.768L10.3234 20.1123L14.454 14.7081C14.5498 14.5828 14.6693 14.4776 14.8056 14.3986C14.9419 14.3196 15.0924 14.2683 15.2484 14.2477C15.4045 14.227 15.5631 14.2373 15.7152 14.2781C15.8673 14.3189 16.0098 14.3894 16.1348 14.4854L16.1351 14.4857L16.1095 14.5214L16.1358 14.4857C16.3879 14.68 16.5528 14.9666 16.5943 15.2826C16.6359 15.5987 16.5508 15.9184 16.3576 16.1716L11.4991 22.5252C11.3867 22.6716 11.2421 22.7901 11.0767 22.8714C10.9113 22.9528 10.7294 22.9948 10.5452 22.9943L10.5441 22.9957Z" fill="#EC4794"/>
<path d="M29.2134 33.9143C28.9582 33.9147 28.7098 33.8321 28.5056 33.6788L28.4929 33.6693L25.8268 31.6273C25.5774 31.4359 25.4142 31.1531 25.373 30.8412C25.3319 30.5294 25.4161 30.2139 25.6073 29.9642C25.7985 29.7145 26.0809 29.5511 26.3925 29.5099C26.704 29.4687 27.0191 29.5531 27.2685 29.7445L28.9954 31.0704L33.0763 25.7402C33.1709 25.6166 33.2889 25.5129 33.4236 25.435C33.5582 25.3571 33.7069 25.3065 33.8611 25.2861C34.0153 25.2657 34.172 25.2759 34.3222 25.3162C34.4725 25.3564 34.6133 25.4259 34.7367 25.5206L34.7371 25.5209L34.7118 25.5561L34.7378 25.5209C34.9868 25.7125 35.1497 25.9952 35.1908 26.3069C35.2319 26.6186 35.1477 26.9339 34.9569 27.1836L30.1569 33.4503C30.0458 33.5947 29.9031 33.7115 29.7396 33.7917C29.5762 33.872 29.3965 33.9134 29.2145 33.9129L29.2134 33.9143Z" fill="#EC4794"/>
<path d="M46.8497 22.9957C46.5945 22.9961 46.346 22.9123 46.1418 22.7569L46.1292 22.7473L43.463 20.677C43.2136 20.4829 43.0504 20.1962 43.0092 19.88C42.9681 19.5637 43.0524 19.2439 43.2436 18.9907C43.4347 18.7376 43.7172 18.5719 44.0287 18.5301C44.3402 18.4884 44.6554 18.5739 44.9047 18.768L46.6317 20.1123L50.7125 14.7081C50.8071 14.5828 50.9251 14.4776 51.0598 14.3986C51.1945 14.3196 51.3431 14.2683 51.4973 14.2477C51.6515 14.227 51.8082 14.2373 51.9584 14.2781C52.1087 14.3189 52.2496 14.3894 52.373 14.4854L52.3733 14.4857L52.348 14.5214L52.374 14.4857C52.623 14.68 52.786 14.9666 52.827 15.2826C52.8681 15.5987 52.784 15.9184 52.5931 16.1716L47.7931 22.5252C47.6821 22.6716 47.5393 22.7901 47.3759 22.8714C47.2124 22.9528 47.0327 22.9948 46.8507 22.9943L46.8497 22.9957Z" fill="#EC4794"/>
<path opacity="0.1" d="M57.4688 29.2993H54.0566V32.7115H57.4688V29.2993Z" fill="#EC4794"/>
<path opacity="0.1" d="M57.4688 37.7158H54.0566V41.128H57.4688V37.7158Z" fill="#EC4794"/>
<path opacity="0.1" d="M57.4688 46.1313H54.0566V49.5435H57.4688V46.1313Z" fill="#EC4794"/>
<path opacity="0.1" d="M57.4688 54.5474H54.0566V57.9595H57.4688V54.5474Z" fill="#EC4794"/>
<path d="M67.8873 43.7114C67.8873 43.7114 65.9065 33.8564 66.6648 32.6302C66.6648 32.6302 66.6923 31.4904 66.6468 30.0375C66.6468 29.9823 66.6468 29.9271 66.6468 29.8707C66.7802 29.9597 66.9192 30.0398 67.0631 30.1107C67.7617 30.4696 68.5638 30.5731 69.3307 30.4034L68.7308 29.7351C68.5868 29.5756 68.4368 29.4028 68.4056 29.1916C68.3744 28.9805 68.4608 28.7921 68.5352 28.6037C69.1051 27.164 69.1351 25.3535 68.0373 24.2545C67.1099 23.3307 66.8843 22.1381 65.8777 21.2947C65.1422 20.6768 64.7379 19.771 64.3564 18.8951C64.0336 18.1549 63.7085 17.4086 63.5237 16.6239C63.3798 16.0109 63.3222 15.3762 63.1242 14.7775C62.9262 14.1788 62.5555 13.5969 61.976 13.3293C61.7697 13.2346 61.5405 13.1806 61.3521 13.0546C61.105 12.8878 60.9562 12.6167 60.7774 12.3791C59.8692 11.1793 56.8278 11.886 55.388 12.3731C54.9966 12.4958 54.6342 12.6966 54.3226 12.9634L54.3358 12.9418C54.3466 12.9238 54.3598 12.9058 54.3718 12.8878C54.2142 13.0153 54.0781 13.1672 53.9687 13.3377C53.7587 13.6701 53.6711 14.0576 53.496 14.4175C53.2848 14.8435 52.1102 16.0325 52.6153 16.5112C52.6507 16.5433 52.6913 16.5693 52.7353 16.5879C52.9249 16.6669 53.1337 16.6877 53.3352 16.6479L53.3136 16.6995C53.1411 17.1219 53.0527 17.5739 53.0533 18.0301C53.0533 20.0013 54.679 21.5994 56.6862 21.5994C57.0635 21.5998 57.4387 21.5419 57.7984 21.4279C57.8068 21.4734 57.814 21.519 57.8224 21.5646C57.8224 21.5826 57.8284 21.6006 57.8308 21.6186L57.7672 21.7074C57.764 21.7019 57.7604 21.6967 57.7564 21.6918L55.8727 24.3241C55.5848 24.5269 53.9267 25.7267 53.8331 26.6265C53.7347 27.6115 53.6363 28.7645 53.6363 28.7645L53.6232 29.0117C53.5408 29.0805 53.4446 29.1306 53.341 29.1585C53.2374 29.1865 53.129 29.1916 53.0233 29.1736C52.4354 29.0777 52.4354 31.3332 52.4354 31.3332C52.4354 31.3332 52.0442 31.6932 51.7755 31.3812C51.5067 31.0693 50.7965 32.1263 50.7965 32.1263L46.3453 32.3183L46.2433 32.3243L46.0034 31.5816C45.9775 31.5033 45.9218 31.4383 45.8484 31.4008C45.7749 31.3632 45.6896 31.3562 45.611 31.3812C45.5924 31.3873 45.5744 31.395 45.557 31.404L45.5402 31.4136L45.509 31.4352L45.4934 31.4496C45.4848 31.4574 45.4768 31.4658 45.4694 31.4748L45.4551 31.4916L45.4479 31.4988C45.4201 31.5371 45.4018 31.5814 45.3943 31.628C45.3868 31.6747 45.3904 31.7225 45.4047 31.7676L45.611 32.4046C44.752 32.5774 43.8737 33.0645 44.59 34.4059L40.9595 33.7352L42.1341 34.7214L48.1977 35.9728C48.1174 36.1168 48.1701 36.3255 48.4209 36.6195C49.5007 37.8876 51.4683 38.232 52.2602 38.3208C52.4693 38.7885 52.7305 39.2313 53.0389 39.6405L52.9705 40.9039C52.9705 40.9039 50.9656 50.5333 50.5985 51.0216C50.7838 50.8116 50.9535 50.5883 51.106 50.3533C50.5241 52.3318 49.7107 55.0397 49.4971 55.4452C49.154 56.0931 48.836 58.7146 49.2272 58.8826C49.3471 58.9342 49.6903 58.909 50.1798 58.8718V59.0889L50.1582 67.3182C50.1582 67.3182 50.2566 72.3657 49.9866 72.8468C49.7167 73.3279 49.6447 74.3369 49.6447 74.3369C49.6447 74.3369 48.5649 76.3274 47.7094 77.1276C47.7036 77.1339 47.6972 77.1395 47.6902 77.1444L47.6638 76.9573C47.6638 76.9573 46.6356 78.2554 44.3609 78.1822C44.3609 78.1822 42.9919 79.0725 45.0219 79.1205C47.052 79.1684 49.6447 79.0485 49.6447 79.0485C49.6447 79.0485 51.4552 76.289 52.9717 76.6489V78.7401H53.436V76.6153C53.6513 76.4736 53.8356 76.2896 53.9777 76.0744C54.1198 75.8593 54.2167 75.6176 54.2626 75.3639C54.3024 75.1025 54.2733 74.8351 54.1782 74.5883C54.0831 74.3415 53.9253 74.1238 53.7203 73.9566C53.6283 73.8734 53.5544 73.772 53.5034 73.6589C53.4524 73.5457 53.4254 73.4232 53.424 73.2991L53.4072 73.3135C53.4072 73.2715 53.3964 73.2283 53.3916 73.1839C53.2584 72.1041 53.0916 69.8762 53.6807 68.2277C54.4882 65.9673 54.7329 62.8191 54.1451 60.945C53.9554 60.3459 53.7995 59.7367 53.6783 59.1201C53.6639 59.0422 53.6507 58.9678 53.6388 58.8982C54.0406 58.9525 54.4386 59.0327 54.8301 59.1381C56.1919 59.5137 59.1709 59.5832 61.7145 59.5628C61.7205 59.6324 61.7277 59.7056 61.7361 59.7788C61.7814 60.2875 61.8762 60.7906 62.0192 61.2809C62.3384 62.2408 62.4847 66.4724 62.4847 66.4724C62.4847 66.4724 62.8962 69.9517 62.6719 71.3675C62.5519 72.1545 62.4319 72.9452 62.3635 73.7394V73.755C62.3635 73.755 61.6893 75.6747 61.1962 76.7173C61.1842 76.7437 61.171 76.7701 61.159 76.7953C61.0275 76.8073 60.8981 76.8359 60.7738 76.8805C60.7738 76.8805 60.1128 78.2002 59.4541 78.4186C58.7954 78.6369 59.0138 79.3556 60.5051 79.0917C61.9964 78.8277 64.2484 78.6117 64.2484 78.6117L64.3456 77.2656L64.8039 76.6921L64.6839 78.0347L65.1722 77.9387L65.1074 76.3058L65.8573 75.3675C65.8573 75.3675 66.7631 74.5613 65.417 72.9752V73.01C65.4026 72.9872 65.3894 72.9632 65.3738 72.9404V72.9332C65.1506 72.5877 64.9731 71.9434 65.2982 70.8C65.8861 68.734 66.228 66.8587 66.228 66.8587C66.228 66.8587 67.5406 61.8352 65.9629 59.4585H66.0325C65.8708 59.124 65.7565 58.7687 65.6929 58.4027C65.6849 58.3595 65.6777 58.3151 65.6713 58.2695C66.8387 58.2023 67.9845 57.9911 68.9191 57.5352C68.9155 57.5304 68.3528 45.6094 67.8873 43.7114ZM53.0665 35.3969V35.4209L52.8265 35.4329L53.0665 35.3969ZM52.2434 35.5109C52.204 35.5196 52.167 35.5373 52.1354 35.5625C52.0323 35.7084 51.9675 35.878 51.9471 36.0556L51.5727 35.9716C51.5727 35.9716 51.31 35.9152 50.932 35.8516L50.7533 35.6716C51.2452 35.6308 51.7563 35.5709 52.2434 35.5109Z" fill="url(#paint0_linear)"/>
<path d="M53.7073 68.25C53.1302 69.8937 53.2934 72.1121 53.4229 73.1895C53.4709 73.5878 53.5153 73.8302 53.5153 73.8302C53.5153 73.8302 52.6527 75.7954 52.5807 75.8698C52.5087 75.9442 50.042 77.4499 50.042 77.4499L48.3179 78.4565C48.3179 78.4565 46.5686 77.6899 47.4073 77.4259C47.5786 77.3572 47.7329 77.2519 47.8596 77.1176C48.6994 76.3197 49.754 74.3365 49.754 74.3365C49.754 74.3365 49.826 73.3299 50.09 72.8512C50.3539 72.3724 50.2579 67.3418 50.2579 67.3418L50.2783 59.1413V58.0723L53.5597 58.0963C53.5804 58.4592 53.6277 58.8201 53.7013 59.1761C53.8191 59.7905 53.9717 60.3978 54.1584 60.9949C54.7367 62.8654 54.4967 65.998 53.7073 68.25Z" fill="#FFB0B1"/>
<path d="M65.0852 70.8132C64.7661 71.953 64.9401 72.5949 65.1584 72.9392V72.9464C65.4385 73.3716 65.6333 73.8471 65.7319 74.3466L65.7511 74.4546L63.5003 77.736L62.279 78.2159C62.279 78.2159 60.3149 77.5452 60.6737 77.3532C60.7636 77.3064 60.904 77.0569 61.0648 76.7125C61.5447 75.6747 62.207 73.7599 62.207 73.7599V73.7443C62.2766 72.9536 62.3869 72.1654 62.5093 71.3807C62.7289 69.9686 62.3257 66.5024 62.3257 66.5024C62.3257 66.5024 62.1818 62.2876 61.8698 61.329C61.729 60.8416 61.6354 60.3418 61.5903 59.8364C61.5255 59.2365 61.5111 58.7422 61.5111 58.7422C61.5111 58.7422 62.8045 56.9426 65.1752 58.8862C65.3648 59.0412 65.5316 59.2222 65.6707 59.4237C67.3084 61.7537 65.9899 66.8863 65.9899 66.8863C65.9899 66.8863 65.6599 68.7532 65.0852 70.8132Z" fill="#FFB0B1"/>
<path opacity="0.1" d="M53.5633 58.0943C53.584 58.4572 53.6313 58.8181 53.7049 59.1741C52.3539 58.9761 51.1002 59.0745 50.2783 59.1393V58.0703L53.5633 58.0943Z" fill="black"/>
<path opacity="0.1" d="M65.8032 59.7222C65.8032 59.7222 63.8835 59.8158 61.5943 59.835C61.5295 59.2351 61.5151 58.7408 61.5151 58.7408C61.5151 58.7408 62.8085 56.9411 65.1793 58.8847C65.3688 59.0398 65.5357 59.2207 65.6748 59.4222C65.712 59.5245 65.7548 59.6247 65.8032 59.7222Z" fill="black"/>
<path d="M65.8034 59.5066C65.8034 59.5066 57.3954 59.9133 54.8327 59.1946C52.2699 58.476 49.73 59.0986 49.3473 58.9319C48.9645 58.7651 49.2753 56.1532 49.6112 55.5065C49.9472 54.8598 51.79 48.3198 51.79 48.3198L53.5633 39.0743L55.4314 38.5596L55.5633 38.5224L58.8183 37.625L61.2035 36.9663C61.2035 36.9663 65.9462 55.4825 65.5395 56.8479C65.3918 57.3707 65.368 57.9207 65.4699 58.4544C65.532 58.8188 65.6443 59.1729 65.8034 59.5066Z" fill="#1D2366"/>
<path d="M47.3819 32.7515C47.3819 32.7515 45.7022 34.5511 46.974 35.5541C48.2457 36.5572 49.082 35.6501 49.082 35.6501L47.3819 32.7515Z" fill="#C7DAF5"/>
<path opacity="0.1" d="M47.3819 32.7515C47.3819 32.7515 45.7022 34.5511 46.974 35.5541C48.2457 36.5572 49.082 35.6501 49.082 35.6501L47.3819 32.7515Z" fill="black"/>
<path d="M60.9527 20.9191C60.9527 20.9191 60.756 21.1063 60.4596 21.3822C60.0373 21.7769 59.4122 22.354 58.8579 22.8375C58.09 23.5058 57.4566 23.9965 57.6833 23.5778C57.9101 23.1591 57.8669 22.4296 57.7541 21.7469C57.7457 21.7013 57.7385 21.6558 57.7301 21.6114C57.6367 21.11 57.5129 20.6148 57.3594 20.1284C57.3594 20.1284 58.5999 18.5255 59.2862 17.8932C59.5418 17.6533 59.7205 17.5549 59.7313 17.7217C59.7433 17.946 59.9113 18.4415 60.1201 18.967C60.1261 18.9838 60.1321 18.9994 60.1393 19.0162C60.2784 19.3762 60.4356 19.7457 60.5736 20.0649C60.7848 20.5544 60.9527 20.9191 60.9527 20.9191Z" fill="#FFB0B1"/>
<path opacity="0.1" d="M60.1393 19.0163C60.0227 19.6433 59.7398 20.2276 59.3203 20.7079C58.9007 21.1883 58.3598 21.5471 57.7541 21.747C57.6587 21.1993 57.5268 20.6586 57.3594 20.1285C57.3594 20.1285 59.6953 17.111 59.7313 17.7217C59.7397 17.9533 59.9221 18.4668 60.1393 19.0163Z" fill="black"/>
<path opacity="0.1" d="M57.5213 22.5529L57.8236 22.127C57.8236 22.127 58.024 23.3483 58.7606 22.8096C59.4973 22.2709 59.5333 26.8637 59.5333 26.8637L58.7426 38.6851L53.0293 38.3432L53.1913 32.631L53.8379 29.7516L55.4373 25.5655L56.3887 24.1822L57.5213 22.5529Z" fill="black"/>
<path d="M59.5336 26.9371L58.8137 37.6259L58.7382 38.7585L55.5527 38.5677L55.4328 38.5605L53.0332 38.4166L53.1952 32.7032L53.8419 29.8237L55.4412 25.6377L56.3926 24.2544L57.5252 22.6191L57.8275 22.1943C57.8275 22.1943 58.0279 23.4157 58.7646 22.877L58.7802 22.8662C59.5 22.4103 59.5336 26.9371 59.5336 26.9371Z" fill="#1D2366"/>
<path d="M53.9224 28.8232C53.9224 28.8232 53.6357 29.4231 53.0598 29.326C52.4839 29.2288 52.4851 31.4856 52.4851 31.4856C52.4851 31.4856 52.1023 31.8455 51.8384 31.5335C51.5744 31.2216 50.8786 32.2762 50.8786 32.2762L46.5186 32.4682C46.5186 32.4682 48.4586 33.3548 48.0783 36.0375C48.0783 36.0375 54.6651 35.6296 54.881 35.0069C55.097 34.3842 53.9224 28.8232 53.9224 28.8232Z" fill="white"/>
<path opacity="0.03" d="M53.9224 28.8232C53.9224 28.8232 53.6357 29.4231 53.0598 29.326C52.4839 29.2288 52.4851 31.4856 52.4851 31.4856C52.4851 31.4856 52.1023 31.8455 51.8384 31.5335C51.5744 31.2216 50.8786 32.2762 50.8786 32.2762L46.5186 32.4682C46.5186 32.4682 48.4586 33.3548 48.0783 36.0375C48.0783 36.0375 54.6651 35.6296 54.881 35.0069C55.097 34.3842 53.9224 28.8232 53.9224 28.8232Z" fill="black"/>
<path d="M41.251 33.8774L42.4004 34.8589L51.8618 36.8469L50.6884 35.6495L41.251 33.8774Z" fill="white"/>
<path d="M57.5395 22.9309C57.3823 23.1708 56.9324 24.3994 56.5569 25.472C56.2437 26.3658 55.9822 27.1517 55.9822 27.1517C55.9822 27.1517 55.3715 31.1278 55.0595 31.8464C54.7476 32.5651 54.9168 35.3678 54.9168 35.3678L53.7542 42.2893C53.7542 42.2893 53.2275 45.8587 52.414 47.9907C51.6114 50.0891 50.7175 51.0729 50.6899 51.1041C51.0499 50.617 53.0115 41.026 53.0115 41.026L53.6594 28.9298C53.6594 28.9298 53.7542 27.7804 53.8502 26.7978C53.9461 25.8151 55.8898 24.4738 55.8898 24.4738L57.7638 21.8091C57.9522 22.061 57.8262 22.5002 57.5395 22.9309Z" fill="white"/>
<path d="M52.6527 38.4766C52.6527 38.4766 49.8932 38.3566 48.5567 36.7513C47.2201 35.146 51.6461 36.1106 51.6461 36.1106L52.7967 36.3746L52.6527 38.4766Z" fill="#FFB0B1"/>
<path opacity="0.1" d="M65.5393 56.8489C65.3916 57.3717 65.3678 57.9217 65.4697 58.4554C62.4595 58.6689 59.2393 57.8555 59.2393 57.8555C58.6394 58.4074 57.0592 59.2208 57.0592 59.2208L56.1978 48.5428C55.6471 47.1031 55.4312 39.56 55.4312 39.56C55.4312 39.56 55.4803 39.1653 55.5511 38.5738C55.5511 38.5594 55.5511 38.5438 55.5571 38.5294C55.7719 36.8773 56.1978 33.7759 56.4066 33.3572C56.6945 32.7813 55.5211 31.2492 55.5211 31.2492L56.055 26.696L56.1198 26.1465C57.2452 25.6438 58.1079 24.0385 58.1079 24.0385L58.7701 22.8783C59.49 22.4164 59.5272 26.9432 59.5272 26.9432L58.8073 37.632L61.1925 36.9733C61.1925 36.9733 65.946 55.4835 65.5393 56.8489Z" fill="black"/>
<path d="M68.6288 57.5864C65.3474 59.2157 59.3833 57.7064 59.3833 57.7064C58.7834 58.2583 57.2033 59.0718 57.2033 59.0718L56.3407 48.3937C55.7912 46.954 55.5752 39.411 55.5752 39.411C55.5752 39.411 56.2687 33.7828 56.5566 33.2081C56.6406 33.0402 56.5998 32.7906 56.5002 32.5218C56.0106 31.2427 55.8306 29.8658 55.9747 28.5038L56.2051 26.5469L56.2687 25.9986C57.3953 25.4947 58.2579 23.8894 58.2579 23.8894L58.8578 22.8384L59.9616 20.902L60.4847 19.9854L60.5735 20.0657L61.2514 20.68C61.2514 20.68 61.5393 20.92 61.9712 21.2799C62.9106 22.0718 64.5339 23.4659 65.3714 24.319C66.1081 25.07 66.3408 27.9915 66.408 30.1907C66.4524 31.6388 66.426 32.7738 66.426 32.7738C65.6833 33.9964 67.6258 43.8118 67.6258 43.8118C68.0781 45.7086 68.6288 57.5864 68.6288 57.5864Z" fill="white"/>
<path opacity="0.03" d="M62.3304 23.8655C62.3304 23.8655 60.0784 28.1523 60.34 29.7816C60.6015 31.4109 61.3454 33.255 60.9867 33.6857C60.8634 33.8489 60.7041 33.9814 60.5211 34.0727C60.3382 34.1641 60.1366 34.2119 59.9321 34.2124C59.5721 34.2364 58.6123 34.9071 58.6123 34.9791C58.6123 35.0511 57.7257 35.0511 56.9326 35.387C56.1396 35.7229 54.9686 35.9137 54.9686 35.9137C54.9686 35.9137 52.689 35.8417 52.4766 36.0577C52.2643 36.2736 52.0459 37.5658 52.5006 38.5964C52.9553 39.627 53.4605 40.3961 53.842 40.5365C54.2235 40.6768 56.6447 39.8658 58.6087 39.6738C60.5727 39.4819 62.7048 37.9257 62.7048 37.9257C62.7048 37.9257 65.0527 37.0859 65.4642 35.6737C65.8758 34.2616 64.9615 26.5002 64.9615 26.5002C64.9615 26.5002 64.2705 22.8829 62.3304 23.8655Z" fill="black"/>
<path opacity="0.03" d="M62.0418 23.5053C62.0418 23.5053 59.7898 27.7933 60.0537 29.4214C60.3177 31.0495 61.0592 32.8948 60.6992 33.3267C60.5764 33.4901 60.4173 33.6227 60.2345 33.7141C60.0517 33.8055 59.8502 33.8532 59.6458 33.8534C59.2859 33.8774 58.3261 34.5481 58.3261 34.6201C58.3261 34.6921 57.4394 34.6921 56.6464 35.0268C55.8533 35.3615 54.6823 35.5535 54.6823 35.5535C54.6823 35.5535 52.4028 35.4815 52.1916 35.6975C51.9804 35.9134 51.7597 37.2068 52.2156 38.2362C52.6715 39.2656 53.1754 40.0359 53.5569 40.1763C53.9385 40.3166 56.3596 39.5056 58.3237 39.3148C60.2877 39.1241 62.4197 37.5655 62.4197 37.5655C62.4197 37.5655 64.7665 36.7257 65.1732 35.3148C65.5799 33.9038 64.6705 26.14 64.6705 26.14C64.6705 26.14 63.9818 22.5239 62.0418 23.5053Z" fill="black"/>
<path d="M62.2592 23.6495C62.2592 23.6495 60.0072 27.9375 60.2711 29.5656C60.5351 31.1937 61.2765 33.039 60.9178 33.4697C60.795 33.6334 60.6358 33.7664 60.4528 33.858C60.2697 33.9496 60.0679 33.9974 59.8632 33.9976C59.5033 34.0216 58.5435 34.6923 58.5435 34.7631C58.5435 34.8338 57.658 34.835 56.8638 35.171C56.0695 35.5069 54.8997 35.6977 54.8997 35.6977C54.8997 35.6977 52.6201 35.6257 52.4078 35.8417C52.1954 36.0576 51.9771 37.351 52.4318 38.3804C52.8865 39.4098 53.3916 40.1801 53.7731 40.3204C54.1547 40.4608 56.5758 39.6498 58.5399 39.4578C60.5039 39.2658 62.6359 37.7097 62.6359 37.7097C62.6359 37.7097 64.9839 36.8699 65.3954 35.4577C65.8069 34.0456 64.8987 26.2842 64.8987 26.2842C64.8987 26.2842 64.198 22.6729 62.2592 23.6495Z" fill="white"/>
<path opacity="0.1" d="M62.21 35.1505C62.21 35.1505 60.4104 34.7906 61.0367 35.3905C61.6629 35.9904 61.6593 36.5159 62.426 36.4919C63.1927 36.4679 62.21 35.1505 62.21 35.1505Z" fill="black"/>
<path opacity="0.1" d="M65.2516 48.0576C65.2516 48.0576 64.4381 48.6083 65.9942 49.8777C67.5504 51.147 65.2516 48.0576 65.2516 48.0576Z" fill="black"/>
<path opacity="0.1" d="M63.699 52.5845C63.699 52.6565 63.4111 55.224 64.4885 55.8659C65.5659 56.5077 63.699 52.5845 63.699 52.5845Z" fill="black"/>
<path d="M46.5927 32.4619C45.7241 32.4919 43.8476 32.7571 44.8206 34.5723C45.6809 36.1788 47.1266 35.105 47.9401 34.2904C47.7416 33.5309 47.2594 32.8764 46.5927 32.4619Z" fill="#FFB0B1"/>
<path d="M47.9507 34.2767L47.9874 34.2388L47.9507 34.2767Z" fill="#FFB0B1"/>
<path opacity="0.1" d="M61.9717 21.3531C61.0503 21.983 60.2776 22.5145 60.1264 22.6249C59.7137 22.9308 58.9267 24.7269 58.4192 25.6435C58.0148 26.3814 56.7011 26.571 56.2056 26.6177L56.2692 26.0694C57.3958 25.5655 58.2584 23.9602 58.2584 23.9602L60.4852 20.0562L61.2518 20.7532C61.2518 20.7532 61.5398 20.9932 61.9717 21.3531Z" fill="black"/>
<path d="M61.9717 21.2813C61.0503 21.9112 60.2776 22.4427 60.1264 22.5543C59.7137 22.859 58.9267 24.6551 58.4192 25.5717C58.0148 26.3096 56.7011 26.4992 56.2056 26.546L56.2692 25.9977C57.3958 25.4938 58.2584 23.8885 58.2584 23.8885L60.4852 19.9844L61.2518 20.679C61.2518 20.679 61.5398 20.9166 61.9717 21.2813Z" fill="#DCE7FF"/>
<path d="M60.1982 18.2244C60.1987 18.9447 59.9802 19.648 59.5719 20.2413C59.0896 20.9427 58.3718 21.448 57.5488 21.6655C56.7258 21.883 55.8521 21.7983 55.0862 21.4267C54.3204 21.0551 53.7131 20.4213 53.3746 19.6402C53.036 18.8592 52.9887 17.9827 53.2411 17.1697C53.4936 16.3568 54.0291 15.6613 54.7505 15.2094C55.4719 14.7575 56.3314 14.5791 57.173 14.7067C58.0146 14.8343 58.7826 15.2594 59.3377 15.9048C59.8927 16.5502 60.198 17.3732 60.1982 18.2244Z" fill="#FFB0B1"/>
<path opacity="0.1" d="M66.4085 30.1923C65.9213 29.8925 65.5245 29.4663 65.2604 28.9589C65.06 28.563 64.9268 28.1058 64.5849 27.8251C64.2765 27.5731 63.865 27.5119 63.4811 27.3992C62.2189 27.026 61.1607 25.8742 61.1211 24.5593C61.1019 23.9402 61.2951 23.3223 61.2075 22.7092C61.1577 22.3622 61.0197 22.0338 60.8068 21.7554C60.701 21.6222 60.5851 21.4975 60.46 21.3823C60.2921 21.2239 60.1157 21.0703 59.9621 20.9024C59.8654 20.7984 59.7809 20.6836 59.7102 20.5604C59.6531 20.4596 59.6069 20.353 59.5722 20.2425C59.3322 19.5082 59.5506 18.6372 59.2867 17.8945L59.2723 17.8537C59.1727 17.5898 58.9699 17.3258 58.688 17.3054C58.406 17.285 58.1649 17.519 57.8961 17.6234C57.3334 17.8417 56.7263 17.4698 56.2572 17.0907C55.7881 16.7115 55.259 16.2784 54.6627 16.3624C54.268 16.4188 53.956 16.6875 53.5925 16.8267C53.5104 16.8585 53.4257 16.883 53.3394 16.8999C53.647 16.1326 54.2123 15.4965 54.938 15.1007C55.6637 14.705 56.5046 14.5743 57.3162 14.7312C58.1278 14.888 58.8595 15.3226 59.3855 15.9603C59.9114 16.598 60.1989 17.399 60.1985 18.2257C60.1989 18.4753 60.1727 18.7242 60.1205 18.9683C60.1265 18.9851 60.1325 19.0007 60.1397 19.0175C60.2789 19.3774 60.4361 19.747 60.574 20.0661L61.2519 20.6804C61.2519 20.6804 61.5398 20.9204 61.9718 21.2803C62.9112 22.0721 64.5345 23.4663 65.3719 24.3193C66.1086 25.0728 66.339 27.9931 66.4085 30.1923Z" fill="black"/>
<path d="M53.5497 14.6342C53.7213 14.2851 53.8064 13.894 54.0116 13.5628C54.3128 13.0829 54.8383 12.7758 55.3782 12.5898C56.7879 12.1039 59.767 11.3984 60.6572 12.5898C60.8324 12.8297 60.9775 13.0961 61.2199 13.2617C61.4047 13.3876 61.6278 13.4416 61.8306 13.5364C62.3981 13.8028 62.7604 14.3835 62.9536 14.9762C63.1467 15.5688 63.2043 16.2047 63.3459 16.8154C63.5271 17.5989 63.845 18.3415 64.1617 19.0794C64.5349 19.9504 64.9308 20.8539 65.6507 21.4694C66.6333 22.3092 66.8505 23.4982 67.7623 24.4196C68.8421 25.5138 68.8073 27.3195 68.2506 28.7532C68.1774 28.9416 68.0946 29.1384 68.1234 29.3387C68.1522 29.5391 68.301 29.7214 68.4414 29.881L69.0316 30.5469C67.6351 30.884 66.055 30.1546 65.4047 28.8744C65.2044 28.4785 65.0712 28.0226 64.728 27.7406C64.4209 27.4887 64.0082 27.4287 63.6254 27.3159C62.3633 26.9416 61.3051 25.7886 61.2655 24.4736C61.2463 23.8557 61.4394 23.2378 61.3519 22.6259C61.3031 22.2766 61.1646 21.9459 60.9499 21.6661C60.62 21.2354 60.1221 20.9463 59.8533 20.4663C59.3986 19.6637 59.7442 18.6211 59.4166 17.7596C59.3158 17.4957 59.1143 17.2317 58.8323 17.2113C58.5504 17.1909 58.3092 17.4249 58.0393 17.5293C57.4778 17.7476 56.8707 17.3769 56.4016 16.9966C55.9325 16.6163 55.4034 16.1843 54.8059 16.2695C54.4111 16.3247 54.1004 16.5935 53.7369 16.7338C53.4681 16.837 52.9234 16.9294 52.6883 16.7026C52.1915 16.2455 53.3421 15.0613 53.5497 14.6342Z" fill="#591D4B"/>
<path opacity="0.1" d="M65.7387 28.4789C65.5372 28.083 65.4052 27.6271 65.0621 27.3463C64.7549 27.0944 64.3422 27.0332 63.9583 26.9204C62.6973 26.5473 61.6391 25.3943 61.5983 24.0793C61.5791 23.4614 61.7723 22.8423 61.6859 22.2305C61.6356 21.8834 61.4972 21.555 61.2839 21.2766C60.9528 20.8459 60.4549 20.5568 60.1873 20.0769C59.7326 19.2754 60.0782 18.2328 59.7494 17.3702C59.6499 17.1074 59.4471 16.8435 59.1663 16.8219C58.8856 16.8003 58.642 17.0366 58.3733 17.141C57.8118 17.3594 57.2035 16.9874 56.7356 16.6083C56.2677 16.2292 55.7362 15.796 55.1399 15.88C54.7451 15.9364 54.4332 16.2052 54.0709 16.3443C53.8021 16.4475 53.2562 16.5411 53.0211 16.3143C52.5268 15.8344 53.6773 14.6527 53.8837 14.2279C54.0553 13.8776 54.1405 13.4877 54.3468 13.1565C54.3576 13.1385 54.3696 13.1205 54.3816 13.1025C54.2273 13.2304 54.094 13.3818 53.9869 13.5513C53.7817 13.8824 53.6965 14.2711 53.525 14.6227C53.3174 15.0474 52.1668 16.2328 52.6623 16.7091C52.9023 16.937 53.4422 16.8434 53.7109 16.7403C54.0709 16.5999 54.3852 16.3311 54.7799 16.276C55.3798 16.1908 55.9077 16.6239 56.3757 17.003C56.8436 17.3822 57.4555 17.7541 58.0145 17.5357C58.2833 17.4313 58.5185 17.1962 58.8064 17.2178C59.0943 17.2394 59.2863 17.5021 59.3907 17.7661C59.7182 18.6275 59.3727 19.6701 59.8274 20.4728C60.0962 20.9443 60.5941 21.2394 60.924 21.6726C61.1387 21.9524 61.2772 22.2831 61.3259 22.6324C61.4135 23.2443 61.2204 23.8622 61.2396 24.48C61.2792 25.7998 62.3374 26.948 63.5995 27.3223C63.9799 27.4351 64.395 27.4951 64.7021 27.747C65.0465 28.029 65.182 28.4849 65.3788 28.8808C66.0291 30.161 67.6092 30.8905 69.0057 30.5533L68.7274 30.239C67.5168 30.257 66.2918 29.5683 65.7387 28.4789Z" fill="black"/>
<path opacity="0.1" d="M57.4668 23.0029C57.3096 23.2429 56.8597 24.4715 56.4841 25.5441C56.1326 25.4073 55.8135 24.5351 55.8135 24.5351L57.6875 21.8691C57.8795 22.1331 57.7535 22.571 57.4668 23.0029Z" fill="black"/>
<path d="M57.539 22.9309C57.3819 23.1709 56.9319 24.3995 56.5564 25.4721C56.2049 25.3365 55.8857 24.4631 55.8857 24.4631L57.7598 21.7983C57.9518 22.0611 57.8258 22.5002 57.539 22.9309Z" fill="#DCE7FF"/>
<path d="M46.6425 35.1879L45.6035 31.9113C45.5912 31.8729 45.5866 31.8325 45.5899 31.7924C45.5933 31.7522 45.6045 31.7131 45.6231 31.6774C45.6416 31.6416 45.667 31.6098 45.6978 31.5838C45.7286 31.5579 45.7642 31.5383 45.8026 31.5262C45.88 31.502 45.9637 31.5094 46.0356 31.5467C46.1075 31.584 46.1618 31.6482 46.1866 31.7253L47.2256 34.9983L47.1224 35.6834L46.6425 35.1879Z" fill="#BE8B87"/>
<path opacity="0.1" d="M45.7018 31.6234C45.7793 31.5989 45.8633 31.6061 45.9355 31.6435C46.0077 31.6808 46.0621 31.7452 46.0869 31.8226L47.1259 35.0956L47.0479 35.6091L47.1235 35.6883L47.2267 35.0032L46.1817 31.7302C46.1569 31.6531 46.1026 31.5889 46.0307 31.5516C45.9588 31.5143 45.8751 31.5069 45.7978 31.531C45.7327 31.5522 45.6765 31.5944 45.6382 31.651C45.6586 31.6401 45.6799 31.6309 45.7018 31.6234Z" fill="white"/>
<path d="M46.6426 35.1882L47.2257 35.0034L47.1405 35.5649L47.1225 35.6885L46.9521 35.5109L46.6426 35.1882Z" fill="#EFC8C4"/>
<path d="M45.5977 33.0752C45.5977 33.0752 47.6817 33.0632 47.191 33.9498C46.7002 34.8365 45.9336 34.9433 45.9336 34.9433L45.5977 33.0752Z" fill="#FFB0B1"/>
<defs>
<linearGradient id="paint0_linear" x1="26728.9" y1="55690.7" x2="26728.9" y2="17794.6" gradientUnits="userSpaceOnUse">
<stop stop-color="#808080" stop-opacity="0.25"/>
<stop offset="0.54" stop-color="#808080" stop-opacity="0.12"/>
<stop offset="1" stop-color="#808080" stop-opacity="0.1"/>
</linearGradient>
</defs>
</svg>
