<svg width="50" height="57" viewBox="0 0 50 57" fill="none" xmlns="http://www.w3.org/2000/svg">
<path d="M11.0337 56.0592V24.9862C11.0337 24.7949 11.1097 24.6113 11.2451 24.476C11.3804 24.3407 11.564 24.2646 11.7554 24.2646H14.9758C15.1672 24.2646 15.3508 24.3407 15.4861 24.476C15.6214 24.6113 15.6975 24.7949 15.6975 24.9862V56.1402L11.0337 56.0592Z" fill="#3F3D56"/>
<path d="M21.6704 56.1568V31.4496C21.6704 31.2582 21.7464 31.0747 21.8818 30.9394C22.0171 30.8041 22.2007 30.728 22.3921 30.728H25.6125C25.8039 30.728 25.9875 30.8041 26.1228 30.9394C26.2582 31.0747 26.3342 31.2582 26.3342 31.4496V56.1036L21.6704 56.1568Z" fill="#3F3D56"/>
<path d="M2.76981 26.8022C2.7224 26.8022 2.67602 26.7885 2.63625 26.7627C2.59649 26.7369 2.56505 26.7001 2.54573 26.6569C2.52641 26.6136 2.52003 26.5656 2.52738 26.5188C2.53472 26.472 2.55547 26.4283 2.58712 26.393L13.3552 14.3837L23.9525 20.3339L34.6128 1.96729L45.4727 10.9048C45.4976 10.9253 45.5182 10.9505 45.5334 10.979C45.5486 11.0074 45.558 11.0386 45.5611 11.0707C45.5643 11.1028 45.561 11.1352 45.5516 11.166C45.5422 11.1969 45.5268 11.2255 45.5063 11.2504C45.4859 11.2753 45.4606 11.296 45.4322 11.3111C45.4037 11.3263 45.3725 11.3357 45.3404 11.3388C45.3083 11.3419 45.2759 11.3386 45.2451 11.3292C45.2142 11.3198 45.1856 11.3044 45.1607 11.2839L34.7472 2.71366L24.1341 20.9988L13.458 15.0044L2.95264 26.7206C2.92964 26.7464 2.90146 26.7669 2.86995 26.781C2.83844 26.7951 2.80431 26.8023 2.76981 26.8022Z" fill="#3F3D56"/>
<path d="M2.72897 28.8476C3.99424 28.8476 5.01995 27.822 5.01995 26.5568C5.01995 25.2917 3.99424 24.2661 2.72897 24.2661C1.46369 24.2661 0.437988 25.2917 0.437988 26.5568C0.437988 27.822 1.46369 28.8476 2.72897 28.8476Z" fill="#EC4794"/>
<path d="M47.1211 14.6645C48.3863 14.6645 49.412 13.6389 49.412 12.3737C49.412 11.1086 48.3863 10.083 47.1211 10.083C45.8558 10.083 44.8301 11.1086 44.8301 12.3737C44.8301 13.6389 45.8558 14.6645 47.1211 14.6645Z" fill="#EC4794"/>
<path d="M13.3657 16.9848C14.631 16.9848 15.6567 15.9592 15.6567 14.6941C15.6567 13.4289 14.631 12.4033 13.3657 12.4033C12.1004 12.4033 11.0747 13.4289 11.0747 14.6941C11.0747 15.9592 12.1004 16.9848 13.3657 16.9848Z" fill="#CCCCCC"/>
<path d="M24.0024 22.957C25.2677 22.957 26.2934 21.9314 26.2934 20.6662C26.2934 19.4011 25.2677 18.3755 24.0024 18.3755C22.7371 18.3755 21.7114 19.4011 21.7114 20.6662C21.7114 21.9314 22.7371 22.957 24.0024 22.957Z" fill="#999999"/>
<path d="M34.6391 4.63127C35.9044 4.63127 36.9301 3.60568 36.9301 2.34054C36.9301 1.0754 35.9044 0.0498047 34.6391 0.0498047C33.3739 0.0498047 32.3481 1.0754 32.3481 2.34054C32.3481 3.60568 33.3739 4.63127 34.6391 4.63127Z" fill="#EC4794"/>
<path d="M42.9438 56.0466V20.2331C42.9438 19.7738 43.267 19.4014 43.6655 19.4014H46.886C47.2845 19.4014 47.6076 19.7737 47.6076 20.2331V56.1403L42.9438 56.0466Z" fill="#3F3D56"/>
<path d="M0.396973 56.0951V38.8048C0.396973 38.5831 0.720083 38.4033 1.11863 38.4033H4.3391C4.73764 38.4033 5.06075 38.5833 5.06075 38.8048V56.1401L0.396973 56.0951Z" fill="#3F3D56"/>
<path d="M32.3066 56.0342V15.3925C32.3066 14.8713 32.6298 14.4487 33.0283 14.4487H36.2488C36.6473 14.4487 36.9704 14.8713 36.9704 15.3925V56.1402L32.3066 56.0342Z" fill="#EC4794"/>
</svg>
