<svg width="65" height="65" viewBox="0 0 65 65" fill="none" xmlns="http://www.w3.org/2000/svg">
<path d="M54.8062 34.9993C49.8013 31.2577 41.9624 27.7192 33.2995 25.2911C25.412 23.0803 17.7187 22.0129 11.6352 22.2855L11.6035 21.578C17.7595 21.3023 25.5326 22.3787 33.4907 24.6092C42.2343 27.0599 50.1582 30.6402 55.2303 34.4321L54.8062 34.9993Z" fill="#CCCCCC"/>
<path d="M54.2858 37.881C54.2903 41.196 53.5953 44.4746 52.2463 47.5027C52.1337 47.7562 52.0164 48.0074 51.8944 48.2562C49.5481 53.0618 45.6427 56.9307 40.8152 59.2317C35.9878 61.5327 30.523 62.1301 25.3124 60.9264C20.1018 59.7228 15.4528 56.7891 12.1237 52.6038C8.79453 48.4186 6.98173 43.2288 6.98096 37.881C6.98096 37.3336 6.9996 36.7904 7.03689 36.2515C7.0546 35.9775 7.07751 35.7051 7.1056 35.4343C7.73284 29.4058 10.6503 23.8481 15.2561 19.9081C19.8618 15.968 25.8043 13.9464 31.8572 14.2603C37.9101 14.5742 43.6116 17.1997 47.7851 21.595C51.9585 25.9902 54.2855 31.8199 54.2858 37.881V37.881Z" fill="#EC4794"/>
<path opacity="0.1" d="M52.2471 47.5025C52.1345 47.756 52.0171 48.0072 51.8951 48.256C51.2039 48.331 50.4764 48.3856 49.7126 48.4195C49.0802 48.4479 48.4294 48.462 47.7644 48.462C41.9561 48.462 34.9659 47.3899 27.8248 45.3886C19.8666 43.1579 12.6667 40.0378 7.55102 36.6025C7.37681 36.4857 7.20566 36.3686 7.0376 36.2513C7.0553 35.9772 7.07821 35.7048 7.1063 35.4341C7.37753 35.6274 7.65725 35.821 7.94547 36.0148C13.001 39.409 20.1286 42.4958 28.0161 44.7067C35.0948 46.6909 42.0191 47.7539 47.7609 47.7539C48.4173 47.7539 49.0573 47.74 49.6807 47.7121C50.5886 47.671 51.444 47.6011 52.2471 47.5025Z" fill="black"/>
<path d="M47.7643 47.8958C41.9562 47.8959 34.9655 46.8236 27.8248 44.8222C19.8666 42.5916 12.6665 39.4714 7.5507 36.0362C2.32815 32.5294 -0.12081 29.0738 0.654909 26.3062C1.4306 23.5386 5.31879 21.8593 11.6032 21.5776L11.6349 22.2851C8.70012 22.4166 6.30844 22.8528 4.52626 23.5816C2.7484 24.3085 1.67529 25.2896 1.33678 26.4974C0.998262 27.7051 1.40518 29.1009 2.54618 30.6461C3.68999 32.1949 5.50657 33.8106 7.94546 35.4483C13.0004 38.8426 20.1283 41.9296 28.016 44.1403C35.0949 46.1244 42.0186 47.1876 47.7608 47.1878C48.4169 47.1878 49.0567 47.1738 49.6803 47.1459C52.615 47.0144 55.0067 46.5782 56.7889 45.8494C58.5668 45.1225 59.6399 44.1415 59.9784 42.9337C60.5862 40.765 58.7493 37.947 54.8059 34.9989L55.23 34.4318C57.2592 35.9488 58.7613 37.4442 59.6947 38.8763C60.6952 40.4116 61.0201 41.8411 60.6603 43.1248C59.8846 45.8925 55.9963 47.5717 49.712 47.8534C49.0796 47.8817 48.4292 47.8958 47.7643 47.8958Z" fill="#CCCCCC"/>
<path d="M31.2593 9.96297C31.409 9.96297 31.5303 9.84162 31.5303 9.69193C31.5303 9.54224 31.409 9.4209 31.2593 9.4209C31.1096 9.4209 30.9883 9.54224 30.9883 9.69193C30.9883 9.84162 31.1096 9.96297 31.2593 9.96297Z" fill="#F2F2F2"/>
<path d="M49.5992 11.9319C49.9383 11.9319 50.2131 11.657 50.2131 11.318C50.2131 10.979 49.9383 10.7041 49.5992 10.7041C49.2602 10.7041 48.9854 10.979 48.9854 11.318C48.9854 11.657 49.2602 11.9319 49.5992 11.9319Z" fill="#CCCCCC"/>
<path d="M63.578 21.3055C63.8142 21.3055 64.0057 21.114 64.0057 20.8778C64.0057 20.6417 63.8142 20.4502 63.578 20.4502C63.3419 20.4502 63.1504 20.6417 63.1504 20.8778C63.1504 21.114 63.3419 21.3055 63.578 21.3055Z" fill="#CCCCCC"/>
<path d="M11.6549 16.0506C12.0234 16.0506 12.3221 15.7519 12.3221 15.3834C12.3221 15.015 12.0234 14.7163 11.6549 14.7163C11.2865 14.7163 10.9878 15.015 10.9878 15.3834C10.9878 15.7519 11.2865 16.0506 11.6549 16.0506Z" fill="#CCCCCC"/>
<path d="M62.0819 35.2034C62.3181 35.2034 62.5096 35.012 62.5096 34.7758C62.5096 34.5396 62.3181 34.3481 62.0819 34.3481C61.8458 34.3481 61.6543 34.5396 61.6543 34.7758C61.6543 35.012 61.8458 35.2034 62.0819 35.2034Z" fill="#CCCCCC"/>
<path d="M7.22826 60.5019C7.5466 60.5019 7.80466 60.2439 7.80466 59.9255C7.80466 59.6072 7.5466 59.3491 7.22826 59.3491C6.90992 59.3491 6.65186 59.6072 6.65186 59.9255C6.65186 60.2439 6.90992 60.5019 7.22826 60.5019Z" fill="#CCCCCC"/>
<path d="M23.9844 1.88797H22.8469V0.750488H22.2366V1.88797H21.0986V2.49873H22.2366V3.63621H22.8469V2.49873H23.9844V1.88797Z" fill="#CCCCCC"/>
<path d="M50.3694 63.4358H49.6549V62.7217H49.2718V63.4358H48.5576V63.8191H49.2718V64.5333H49.6549V63.8191H50.3694V63.4358Z" fill="#CCCCCC"/>
<path opacity="0.1" d="M30.9881 21.3482C32.0858 21.3482 32.9757 20.4583 32.9757 19.3606C32.9757 18.2629 32.0858 17.373 30.9881 17.373C29.8904 17.373 29.0005 18.2629 29.0005 19.3606C29.0005 20.4583 29.8904 21.3482 30.9881 21.3482Z" fill="black"/>
<path opacity="0.1" d="M15.7205 35.8931C16.8182 35.8931 17.7081 35.0033 17.7081 33.9056C17.7081 32.8078 16.8182 31.918 15.7205 31.918C14.6228 31.918 13.7329 32.8078 13.7329 33.9056C13.7329 35.0033 14.6228 35.8931 15.7205 35.8931Z" fill="black"/>
<path opacity="0.1" d="M37.6736 55.8594C38.7713 55.8594 39.6612 54.9696 39.6612 53.8719C39.6612 52.7741 38.7713 51.8843 37.6736 51.8843C36.5759 51.8843 35.686 52.7741 35.686 53.8719C35.686 54.9696 36.5759 55.8594 37.6736 55.8594Z" fill="black"/>
<path opacity="0.1" d="M30.9881 38.9654C32.0858 38.9654 32.9757 38.0755 32.9757 36.9778C32.9757 35.8801 32.0858 34.9902 30.9881 34.9902C29.8904 34.9902 29.0005 35.8801 29.0005 36.9778C29.0005 38.0755 29.8904 38.9654 30.9881 38.9654Z" fill="black"/>
<path opacity="0.1" d="M16.7141 49.897C17.8119 49.897 18.7017 49.0072 18.7017 47.9095C18.7017 46.8117 17.8119 45.9219 16.7141 45.9219C15.6164 45.9219 14.7266 46.8117 14.7266 47.9095C14.7266 49.0072 15.6164 49.897 16.7141 49.897Z" fill="black"/>
<path opacity="0.1" d="M41.6492 28.3048C42.7469 28.3048 43.6368 27.4149 43.6368 26.3172C43.6368 25.2195 42.7469 24.3296 41.6492 24.3296C40.5515 24.3296 39.6616 25.2195 39.6616 26.3172C39.6616 27.4149 40.5515 28.3048 41.6492 28.3048Z" fill="black"/>
<path opacity="0.1" d="M48.2444 41.7662C49.3421 41.7662 50.232 40.8763 50.232 39.7786C50.232 38.6809 49.3421 37.791 48.2444 37.791C47.1467 37.791 46.2568 38.6809 46.2568 39.7786C46.2568 40.8763 47.1467 41.7662 48.2444 41.7662Z" fill="black"/>
<path d="M30.9886 30.925C32.4356 30.925 33.6086 29.752 33.6086 28.3051C33.6086 26.8581 32.4356 25.6851 30.9886 25.6851C29.5417 25.6851 28.3687 26.8581 28.3687 28.3051C28.3687 29.752 29.5417 30.925 30.9886 30.925Z" fill="white"/>
<path d="M30.9888 24.5098C30.0064 24.5098 29.0642 24.9 28.3696 25.5947C27.6749 26.2893 27.2847 27.2315 27.2847 28.2139C27.2847 30.2596 30.9888 36.9773 30.9888 36.9773C30.9888 36.9773 34.6929 30.2596 34.6929 28.2139C34.6929 27.2315 34.3027 26.2893 33.608 25.5947C32.9133 24.9 31.9712 24.5098 30.9888 24.5098ZM30.9888 30.0208C30.6493 30.0208 30.3174 29.9201 30.0351 29.7315C29.7528 29.5429 29.5328 29.2748 29.4029 28.9611C29.273 28.6475 29.239 28.3023 29.3052 27.9694C29.3715 27.6364 29.5349 27.3305 29.775 27.0904C30.0151 26.8504 30.3209 26.6869 30.6539 26.6207C30.9869 26.5544 31.332 26.5884 31.6457 26.7183C31.9593 26.8483 32.2274 27.0683 32.4161 27.3506C32.6047 27.6329 32.7053 27.9647 32.7053 28.3042C32.7053 28.5297 32.6609 28.7529 32.5747 28.9611C32.4884 29.1694 32.362 29.3586 32.2026 29.518C32.0432 29.6774 31.8539 29.8039 31.6457 29.8901C31.4374 29.9764 31.2142 30.0208 30.9888 30.0208Z" fill="#CCCCCC"/>
<path d="M16.7137 42.1277C18.1607 42.1277 19.3337 40.9547 19.3337 39.5077C19.3337 38.0607 18.1607 36.8877 16.7137 36.8877C15.2668 36.8877 14.0938 38.0607 14.0938 39.5077C14.0938 40.9547 15.2668 42.1277 16.7137 42.1277Z" fill="white"/>
<path d="M16.7134 35.7129C15.731 35.7129 14.7889 36.1031 14.0942 36.7978C13.3995 37.4925 13.0093 38.4346 13.0093 39.417C13.0093 41.4627 16.7134 48.1804 16.7134 48.1804C16.7134 48.1804 20.4175 41.4627 20.4175 39.417C20.4175 38.9306 20.3217 38.4489 20.1356 37.9995C19.9494 37.5501 19.6766 37.1418 19.3326 36.7978C18.9887 36.4538 18.5803 36.181 18.1309 35.9948C17.6815 35.8087 17.1998 35.7129 16.7134 35.7129ZM16.7134 41.2239C16.3739 41.2239 16.042 41.1232 15.7597 40.9346C15.4774 40.746 15.2574 40.4779 15.1275 40.1643C14.9976 39.8506 14.9636 39.5054 15.0298 39.1725C15.0961 38.8395 15.2596 38.5336 15.4996 38.2936C15.7397 38.0535 16.0455 37.89 16.3785 37.8238C16.7115 37.7576 17.0566 37.7916 17.3703 37.9215C17.684 38.0514 17.9521 38.2714 18.1407 38.5537C18.3293 38.836 18.43 39.1679 18.43 39.5074C18.43 39.7328 18.3856 39.956 18.2993 40.1643C18.213 40.3725 18.0866 40.5617 17.9272 40.7211C17.7678 40.8805 17.5786 41.007 17.3703 41.0932C17.162 41.1795 16.9388 41.2239 16.7134 41.2239Z" fill="#CCCCCC"/>
<path d="M48.244 33.9958C49.691 33.9958 50.864 32.8228 50.864 31.3759C50.864 29.9289 49.691 28.7559 48.244 28.7559C46.797 28.7559 45.624 29.9289 45.624 31.3759C45.624 32.8228 46.797 33.9958 48.244 33.9958Z" fill="white"/>
<path d="M48.2442 27.582C47.7577 27.582 47.2761 27.6778 46.8267 27.864C46.3772 28.0501 45.9689 28.323 45.6249 28.6669C45.281 29.0109 45.0081 29.4192 44.822 29.8687C44.6358 30.3181 44.54 30.7997 44.54 31.2862C44.54 33.3319 48.2442 40.0496 48.2442 40.0496C48.2442 40.0496 51.9483 33.3319 51.9483 31.2862C51.9483 30.7997 51.8525 30.3181 51.6663 29.8687C51.4802 29.4192 51.2073 29.0109 50.8634 28.6669C50.5194 28.323 50.1111 28.0501 49.6617 27.864C49.2123 27.6778 48.7306 27.582 48.2442 27.582ZM48.2442 33.0931C47.9047 33.0931 47.5728 32.9924 47.2905 32.8038C47.0082 32.6151 46.7882 32.3471 46.6583 32.0334C46.5284 31.7197 46.4944 31.3746 46.5606 31.0416C46.6268 30.7086 46.7903 30.4028 47.0304 30.1627C47.2704 29.9227 47.5763 29.7592 47.9093 29.6929C48.2423 29.6267 48.5874 29.6607 48.9011 29.7906C49.2147 29.9205 49.4828 30.1406 49.6714 30.4228C49.86 30.7051 49.9607 31.037 49.9607 31.3765C49.9607 31.6019 49.9163 31.8251 49.8301 32.0334C49.7438 32.2417 49.6173 32.4309 49.458 32.5903C49.2986 32.7497 49.1093 32.8761 48.9011 32.9624C48.6928 33.0487 48.4696 33.0931 48.2442 33.0931Z" fill="#CCCCCC"/>
<path d="M30.9886 13.3069C32.4356 13.3069 33.6086 12.1339 33.6086 10.6869C33.6086 9.23991 32.4356 8.06689 30.9886 8.06689C29.5417 8.06689 28.3687 9.23991 28.3687 10.6869C28.3687 12.1339 29.5417 13.3069 30.9886 13.3069Z" fill="white"/>
<path d="M30.9888 6.89258C30.0064 6.89258 29.0642 7.28283 28.3696 7.97749C27.6749 8.67215 27.2847 9.61431 27.2847 10.5967C27.2847 12.6424 30.9888 19.3601 30.9888 19.3601C30.9888 19.3601 34.6929 12.6424 34.6929 10.5967C34.6929 9.6143 34.3027 8.67215 33.608 7.97749C32.9133 7.28283 31.9712 6.89258 30.9888 6.89258ZM30.9888 12.4036C30.6493 12.4036 30.3174 12.3029 30.0351 12.1143C29.7528 11.9257 29.5328 11.6576 29.4029 11.3439C29.273 11.0303 29.239 10.6851 29.3052 10.3522C29.3715 10.0192 29.5349 9.71332 29.775 9.47326C30.0151 9.2332 30.3209 9.06971 30.6539 9.00348C30.9869 8.93724 31.332 8.97124 31.6457 9.10116C31.9593 9.23108 32.2274 9.4511 32.4161 9.73338C32.6047 10.0157 32.7053 10.3475 32.7053 10.687C32.7053 10.9125 32.6609 11.1357 32.5747 11.3439C32.4884 11.5522 32.362 11.7414 32.2026 11.9008C32.0432 12.0602 31.8539 12.1867 31.6457 12.2729C31.4374 12.3592 31.2142 12.4036 30.9888 12.4036Z" fill="#CCCCCC"/>
<path d="M37.6742 48.0906C39.1212 48.0906 40.2942 46.9176 40.2942 45.4706C40.2942 44.0236 39.1212 42.8506 37.6742 42.8506C36.2272 42.8506 35.0542 44.0236 35.0542 45.4706C35.0542 46.9176 36.2272 48.0906 37.6742 48.0906Z" fill="white"/>
<path d="M37.6738 41.6758C36.6915 41.6758 35.7493 42.066 35.0546 42.7607C34.36 43.4553 33.9697 44.3975 33.9697 45.3799C33.9697 47.4256 37.6738 54.1433 37.6738 54.1433C37.6738 54.1433 41.378 47.4256 41.378 45.3799C41.378 44.8935 41.2822 44.4118 41.096 43.9624C40.9099 43.513 40.637 43.1046 40.2931 42.7607C39.9491 42.4167 39.5408 42.1439 39.0914 41.9577C38.6419 41.7716 38.1603 41.6758 37.6738 41.6758ZM37.6738 47.1868C37.3343 47.1868 37.0025 47.0861 36.7202 46.8975C36.4379 46.7089 36.2179 46.4408 36.088 46.1271C35.958 45.8135 35.9241 45.4683 35.9903 45.1354C36.0565 44.8024 36.22 44.4965 36.4601 44.2565C36.7001 44.0164 37.006 43.8529 37.339 43.7867C37.6719 43.7204 38.0171 43.7544 38.3307 43.8844C38.6444 44.0143 38.9125 44.2343 39.1011 44.5166C39.2897 44.7989 39.3904 45.1307 39.3904 45.4702C39.3904 45.6957 39.346 45.9189 39.2597 46.1271C39.1735 46.3354 39.047 46.5246 38.8876 46.684C38.7282 46.8434 38.539 46.9699 38.3307 47.0561C38.1225 47.1424 37.8993 47.1868 37.6738 47.1868Z" fill="#3F3D56"/>
<path d="M15.7201 27.9431C17.1671 27.9431 18.3401 26.7701 18.3401 25.3231C18.3401 23.8761 17.1671 22.7031 15.7201 22.7031C14.2731 22.7031 13.1001 23.8761 13.1001 25.3231C13.1001 26.7701 14.2731 27.9431 15.7201 27.9431Z" fill="white"/>
<path d="M15.7202 21.5288C14.7378 21.5288 13.7957 21.9191 13.101 22.6137C12.4064 23.3084 12.0161 24.2505 12.0161 25.2329C12.0161 27.2787 15.7202 33.9964 15.7202 33.9964C15.7202 33.9964 19.4244 27.2787 19.4244 25.2329C19.4244 24.2505 19.0341 23.3084 18.3394 22.6137C17.6448 21.9191 16.7026 21.5288 15.7202 21.5288ZM15.7202 27.0398C15.3807 27.0398 15.0489 26.9392 14.7666 26.7505C14.4843 26.5619 14.2643 26.2938 14.1343 25.9802C14.0044 25.6665 13.9704 25.3214 14.0367 24.9884C14.1029 24.6554 14.2664 24.3496 14.5064 24.1095C14.7465 23.8694 15.0524 23.7059 15.3854 23.6397C15.7183 23.5735 16.0635 23.6075 16.3771 23.7374C16.6908 23.8673 16.9589 24.0873 17.1475 24.3696C17.3361 24.6519 17.4368 24.9838 17.4368 25.3233C17.4368 25.5487 17.3924 25.7719 17.3061 25.9802C17.2199 26.1884 17.0934 26.3777 16.934 26.5371C16.7746 26.6965 16.5854 26.8229 16.3771 26.9092C16.1689 26.9954 15.9457 27.0398 15.7202 27.0398Z" fill="#3F3D56"/>
<path d="M41.6488 20.6252C43.0958 20.6252 44.2688 19.4522 44.2688 18.0052C44.2688 16.5583 43.0958 15.3853 41.6488 15.3853C40.2018 15.3853 39.0288 16.5583 39.0288 18.0052C39.0288 19.4522 40.2018 20.6252 41.6488 20.6252Z" fill="white"/>
<path d="M41.6489 14.2109C40.6665 14.2109 39.7244 14.6012 39.0297 15.2959C38.3351 15.9905 37.9448 16.9327 37.9448 17.9151C37.9448 19.9608 41.6489 26.6785 41.6489 26.6785C41.6489 26.6785 45.3531 19.9608 45.3531 17.9151C45.3531 16.9327 44.9628 15.9905 44.2682 15.2958C43.5735 14.6012 42.6313 14.2109 41.6489 14.2109ZM41.6489 19.722C41.3094 19.722 40.9776 19.6213 40.6953 19.4327C40.413 19.244 40.193 18.976 40.0631 18.6623C39.9331 18.3486 39.8991 18.0035 39.9654 17.6705C40.0316 17.3375 40.1951 17.0317 40.4352 16.7916C40.6752 16.5516 40.9811 16.3881 41.3141 16.3218C41.647 16.2556 41.9922 16.2896 42.3058 16.4195C42.6195 16.5494 42.8876 16.7695 43.0762 17.0517C43.2648 17.334 43.3655 17.6659 43.3655 18.0054C43.3655 18.4607 43.1846 18.8973 42.8627 19.2192C42.5408 19.5411 42.1042 19.722 41.6489 19.722V19.722Z" fill="#3F3D56"/>
</svg>
