<svg width="351" height="316" viewBox="0 0 351 316" fill="none" xmlns="http://www.w3.org/2000/svg">
<rect width="351" height="316" rx="60" fill="#F3F3F3"/>
<path d="M144.65 296H141.15L133.225 284.025V296H129.725V278.525H133.225L141.15 290.525V278.525H144.65V296ZM154.259 296.225C152.925 296.225 151.725 295.933 150.659 295.35C149.592 294.75 148.75 293.908 148.134 292.825C147.534 291.742 147.234 290.492 147.234 289.075C147.234 287.658 147.542 286.408 148.159 285.325C148.792 284.242 149.65 283.408 150.734 282.825C151.817 282.225 153.025 281.925 154.359 281.925C155.692 281.925 156.9 282.225 157.984 282.825C159.067 283.408 159.917 284.242 160.534 285.325C161.167 286.408 161.484 287.658 161.484 289.075C161.484 290.492 161.159 291.742 160.509 292.825C159.875 293.908 159.009 294.75 157.909 295.35C156.825 295.933 155.609 296.225 154.259 296.225ZM154.259 293.175C154.892 293.175 155.484 293.025 156.034 292.725C156.6 292.408 157.05 291.942 157.384 291.325C157.717 290.708 157.884 289.958 157.884 289.075C157.884 287.758 157.534 286.75 156.834 286.05C156.15 285.333 155.309 284.975 154.309 284.975C153.309 284.975 152.467 285.333 151.784 286.05C151.117 286.75 150.784 287.758 150.784 289.075C150.784 290.392 151.109 291.408 151.759 292.125C152.425 292.825 153.259 293.175 154.259 293.175ZM167.551 284.3C168.001 283.567 168.585 282.992 169.301 282.575C170.035 282.158 170.868 281.95 171.801 281.95V285.625H170.876C169.776 285.625 168.943 285.883 168.376 286.4C167.826 286.917 167.551 287.817 167.551 289.1V296H164.051V282.15H167.551V284.3ZM191.359 281.95C193.059 281.95 194.425 282.475 195.459 283.525C196.509 284.558 197.034 286.008 197.034 287.875V296H193.534V288.35C193.534 287.267 193.259 286.442 192.709 285.875C192.159 285.292 191.409 285 190.459 285C189.509 285 188.75 285.292 188.184 285.875C187.634 286.442 187.359 287.267 187.359 288.35V296H183.859V288.35C183.859 287.267 183.584 286.442 183.034 285.875C182.484 285.292 181.734 285 180.784 285C179.817 285 179.05 285.292 178.484 285.875C177.934 286.442 177.659 287.267 177.659 288.35V296H174.159V282.15H177.659V283.825C178.109 283.242 178.684 282.783 179.384 282.45C180.1 282.117 180.884 281.95 181.734 281.95C182.817 281.95 183.784 282.183 184.634 282.65C185.484 283.1 186.142 283.75 186.609 284.6C187.059 283.8 187.709 283.158 188.559 282.675C189.425 282.192 190.359 281.95 191.359 281.95ZM199.455 289.025C199.455 287.625 199.73 286.383 200.28 285.3C200.847 284.217 201.605 283.383 202.555 282.8C203.522 282.217 204.597 281.925 205.78 281.925C206.813 281.925 207.713 282.133 208.48 282.55C209.263 282.967 209.888 283.492 210.355 284.125V282.15H213.88V296H210.355V293.975C209.905 294.625 209.28 295.167 208.48 295.6C207.697 296.017 206.788 296.225 205.755 296.225C204.588 296.225 203.522 295.925 202.555 295.325C201.605 294.725 200.847 293.883 200.28 292.8C199.73 291.7 199.455 290.442 199.455 289.025ZM210.355 289.075C210.355 288.225 210.188 287.5 209.855 286.9C209.522 286.283 209.072 285.817 208.505 285.5C207.938 285.167 207.33 285 206.68 285C206.03 285 205.43 285.158 204.88 285.475C204.33 285.792 203.88 286.258 203.53 286.875C203.197 287.475 203.03 288.192 203.03 289.025C203.03 289.858 203.197 290.592 203.53 291.225C203.88 291.842 204.33 292.317 204.88 292.65C205.447 292.983 206.047 293.15 206.68 293.15C207.33 293.15 207.938 292.992 208.505 292.675C209.072 292.342 209.522 291.875 209.855 291.275C210.188 290.658 210.355 289.925 210.355 289.075ZM220.798 277.5V296H217.298V277.5H220.798Z" fill="#00C673"/>
<g opacity="0.5">
<path opacity="0.5" d="M149.751 42H55.4672C54.747 42 54.1631 42.5837 54.1631 43.3036V187.105C54.1631 187.825 54.747 188.408 55.4672 188.408H149.751C150.471 188.408 151.055 187.825 151.055 187.105V43.3036C151.055 42.5837 150.471 42 149.751 42Z" fill="url(#paint0_linear)"/>
</g>
<path d="M148.507 43.0752H56.7075C55.9872 43.0752 55.4033 43.6589 55.4033 44.3788V185.219C55.4033 185.939 55.9872 186.523 56.7075 186.523H148.507C149.228 186.523 149.811 185.939 149.811 185.219V44.3788C149.811 43.6589 149.228 43.0752 148.507 43.0752Z" fill="#F2F2F2"/>
<g opacity="0.5">
<path opacity="0.5" d="M82.4221 69.501H66.1494C65.4291 69.501 64.8452 70.0846 64.8452 70.8046V85.1853C64.8452 85.9053 65.4291 86.489 66.1494 86.489H82.4221C83.1424 86.489 83.7263 85.9053 83.7263 85.1853V70.8046C83.7263 70.0846 83.1424 69.501 82.4221 69.501Z" fill="#EC4794"/>
</g>
<path d="M139.555 69.501H90.2093C89.758 69.501 89.3921 69.8667 89.3921 70.3179V70.5729C89.3921 71.0241 89.758 71.3898 90.2093 71.3898H139.555C140.006 71.3898 140.372 71.0241 140.372 70.5729V70.3179C140.372 69.8667 140.006 69.501 139.555 69.501Z" fill="#E0E0E0"/>
<path d="M130.954 75.1621H90.2093C89.758 75.1621 89.3921 75.5279 89.3921 75.9791V76.234C89.3921 76.6852 89.758 77.0509 90.2093 77.0509H130.954C131.405 77.0509 131.771 76.6852 131.771 76.234V75.9791C131.771 75.5279 131.405 75.1621 130.954 75.1621Z" fill="#E0E0E0"/>
<g opacity="0.5">
<path opacity="0.5" d="M82.4221 95.9248H66.1494C65.4291 95.9248 64.8452 96.5085 64.8452 97.2285V111.609C64.8452 112.329 65.4291 112.913 66.1494 112.913H82.4221C83.1424 112.913 83.7263 112.329 83.7263 111.609V97.2285C83.7263 96.5085 83.1424 95.9248 82.4221 95.9248Z" fill="#EC4794"/>
</g>
<path d="M139.555 95.9248H90.2093C89.758 95.9248 89.3921 96.2906 89.3921 96.7418V96.9967C89.3921 97.4479 89.758 97.8136 90.2093 97.8136H139.555C140.006 97.8136 140.372 97.4479 140.372 96.9967V96.7418C140.372 96.2906 140.006 95.9248 139.555 95.9248Z" fill="#E0E0E0"/>
<path d="M139.555 101.586H90.2093C89.758 101.586 89.3921 101.952 89.3921 102.403V102.658C89.3921 103.109 89.758 103.475 90.2093 103.475H139.555C140.006 103.475 140.372 103.109 140.372 102.658V102.403C140.372 101.952 140.006 101.586 139.555 101.586Z" fill="#E0E0E0"/>
<g opacity="0.5">
<path opacity="0.5" d="M82.4221 122.349H66.1494C65.4291 122.349 64.8452 122.932 64.8452 123.652V138.033C64.8452 138.753 65.4291 139.337 66.1494 139.337H82.4221C83.1424 139.337 83.7263 138.753 83.7263 138.033V123.652C83.7263 122.932 83.1424 122.349 82.4221 122.349Z" fill="#EC4794"/>
</g>
<path d="M139.555 122.349H90.2093C89.758 122.349 89.3921 122.714 89.3921 123.166V123.421C89.3921 123.872 89.758 124.237 90.2093 124.237H139.555C140.006 124.237 140.372 123.872 140.372 123.421V123.166C140.372 122.714 140.006 122.349 139.555 122.349Z" fill="#E0E0E0"/>
<path d="M94.2406 128.012H90.2093C89.758 128.012 89.3921 128.377 89.3921 128.829V129.084C89.3921 129.535 89.758 129.901 90.2093 129.901H94.2406C94.692 129.901 95.0578 129.535 95.0578 129.084V128.829C95.0578 128.377 94.692 128.012 94.2406 128.012Z" fill="#E0E0E0"/>
<g opacity="0.5">
<path opacity="0.5" d="M208.59 89.1396H115.759C115.038 89.1396 114.455 89.7233 114.455 90.4433V173.894C114.455 174.614 115.038 175.198 115.759 175.198H208.59C209.311 175.198 209.894 174.614 209.894 173.894V90.4433C209.894 89.7233 209.311 89.1396 208.59 89.1396Z" fill="url(#paint1_linear)"/>
</g>
<path d="M207.277 90.0029H117.234C116.514 90.0029 115.93 90.5866 115.93 91.3066V172.055C115.93 172.775 116.514 173.358 117.234 173.358H207.277C207.998 173.358 208.582 172.775 208.582 172.055V91.3066C208.582 90.5866 207.998 90.0029 207.277 90.0029Z" fill="white"/>
<g opacity="0.5">
<path opacity="0.5" d="M143.63 107.913H126.331C125.611 107.913 125.027 108.497 125.027 109.217V124.519C125.027 125.239 125.611 125.822 126.331 125.822H143.63C144.35 125.822 144.934 125.239 144.934 124.519V109.217C144.934 108.497 144.35 107.913 143.63 107.913Z" fill="#EC4794"/>
</g>
<path d="M203.791 107.913H151.77C151.293 107.913 150.907 108.3 150.907 108.776V109.04C150.907 109.517 151.293 109.903 151.77 109.903H203.791C204.268 109.903 204.655 109.517 204.655 109.04V108.776C204.655 108.3 204.268 107.913 203.791 107.913Z" fill="#E0E0E0"/>
<path d="M203.791 113.883H151.77C151.293 113.883 150.907 114.269 150.907 114.746V115.01C150.907 115.487 151.293 115.873 151.77 115.873H203.791C204.268 115.873 204.655 115.487 204.655 115.01V114.746C204.655 114.269 204.268 113.883 203.791 113.883Z" fill="#E0E0E0"/>
<path d="M203.791 135.55H123.899C123.422 135.55 123.036 135.936 123.036 136.413V136.677C123.036 137.154 123.422 137.54 123.899 137.54H203.791C204.268 137.54 204.655 137.154 204.655 136.677V136.413C204.655 135.936 204.268 135.55 203.791 135.55Z" fill="#E0E0E0"/>
<path d="M203.791 141.521H123.899C123.422 141.521 123.036 141.907 123.036 142.384V142.647C123.036 143.124 123.422 143.511 123.899 143.511H203.791C204.268 143.511 204.655 143.124 204.655 142.647V142.384C204.655 141.907 204.268 141.521 203.791 141.521Z" fill="#E0E0E0"/>
<path d="M203.791 149.479H123.899C123.422 149.479 123.036 149.865 123.036 150.342V150.605C123.036 151.082 123.422 151.469 123.899 151.469H203.791C204.268 151.469 204.655 151.082 204.655 150.605V150.342C204.655 149.865 204.268 149.479 203.791 149.479Z" fill="#E0E0E0"/>
<path d="M183.884 155.449H123.899C123.422 155.449 123.036 155.836 123.036 156.313V156.576C123.036 157.053 123.422 157.439 123.899 157.439H183.884C184.361 157.439 184.748 157.053 184.748 156.576V156.313C184.748 155.836 184.361 155.449 183.884 155.449Z" fill="#E0E0E0"/>
<g opacity="0.5">
<path opacity="0.5" d="M212.201 121.343L212.54 119.831L212.065 121.308C199.704 117.971 186.962 116.253 174.158 116.198C81.9062 115.653 39 197.155 39 197.155L126.424 243.263C126.424 243.263 137.147 210.023 175.23 211.106C177.85 211.178 180.463 211.406 183.055 211.79L171.469 247.866C170.974 248.571 170.625 249.368 170.444 250.209C170.262 251.051 170.252 251.921 170.413 252.766C170.574 253.612 170.903 254.417 171.381 255.133C171.859 255.85 172.476 256.462 173.196 256.936C173.915 257.409 174.722 257.733 175.57 257.889C176.417 258.045 177.286 258.029 178.127 257.842C178.968 257.656 179.763 257.302 180.465 256.803C181.166 256.303 181.76 255.668 182.212 254.935V254.918C182.813 253.941 183.141 252.82 183.16 251.673C183.16 251.479 183.16 251.285 183.139 251.094L191.515 213.682C216.467 221.353 224.029 243.26 224.029 243.26L312 199.298C312 199.298 278.962 139.467 212.201 121.343Z" fill="url(#paint2_linear)"/>
</g>
<path d="M174.175 117.101C83.1001 116.571 40.7388 197.026 40.7388 197.026L127.05 242.541C127.05 242.541 137.639 209.724 175.236 210.781C177.884 210.853 180.526 211.087 183.145 211.482L211.726 122.183C199.483 118.865 186.86 117.156 174.175 117.101Z" fill="#00C673"/>
<path d="M211.726 122.183L183.145 211.491C214.334 216.228 223.42 242.541 223.42 242.541L310.261 199.144C310.261 199.144 277.631 140.074 211.726 122.183Z" fill="#E0E0E0"/>
<path d="M183.053 250.28L212.068 120.688L171.518 247.093C171.021 247.788 170.67 248.576 170.485 249.41C170.3 250.244 170.285 251.107 170.442 251.947C170.598 252.787 170.923 253.587 171.395 254.298C171.868 255.01 172.48 255.619 173.194 256.088C173.908 256.558 174.709 256.879 175.55 257.032C176.39 257.185 177.254 257.167 178.087 256.979C178.921 256.79 179.708 256.436 180.401 255.936C181.094 255.437 181.68 254.803 182.122 254.072V254.055C182.716 253.091 183.039 251.985 183.058 250.853C183.076 250.653 183.067 250.468 183.053 250.28Z" fill="#535461"/>
<g opacity="0.7">
<path opacity="0.7" d="M193.541 116.948L192.782 116.806L194.28 111.302C196.639 93.6304 187.727 91.8372 184.386 91.7763C184.001 91.6358 183.61 91.5168 183.212 91.42V89.3341C185.314 88.8156 187.219 87.6924 188.689 86.1034C190.16 84.5145 191.132 82.5295 191.486 80.394H191.515C192.045 80.394 192.477 79.5858 192.477 78.5892C192.498 78.0609 192.351 77.5397 192.057 77.1001C192.096 76.7139 192.115 76.3276 192.115 75.9413C192.116 74.3816 191.8 72.838 191.185 71.4042C190.571 69.9704 189.672 68.6764 188.542 67.6009C188.387 66.8302 188.111 66.089 187.724 65.405C186.904 63.9565 185.539 62.4558 186.096 60.8885L182.493 61.2594L182.459 58.8867C181.334 59.0895 180.862 60.3903 180.195 61.3173C178.59 63.548 175.37 63.858 173.24 65.5962C172.515 66.1756 170.887 67.9833 171.197 69.1624C169.766 71.1298 168.997 73.5003 169 75.9326C169 76.3189 169.019 76.7052 169.058 77.0914C168.764 77.531 168.617 78.0522 168.638 78.5805C168.638 79.5771 169.069 80.3853 169.6 80.3853H169.629C169.983 82.5208 170.955 84.5058 172.426 86.0948C173.896 87.6837 175.8 88.8069 177.903 89.3255V91.4113C177.505 91.5081 177.113 91.6271 176.729 91.7676C173.388 91.8285 164.476 93.6101 166.835 111.293L168.333 116.798L167.977 116.864C167.447 116.963 166.941 117.166 166.489 117.46C166.037 117.754 165.648 118.134 165.343 118.579C165.038 119.024 164.824 119.524 164.712 120.051C164.601 120.579 164.594 121.123 164.693 121.653L170.614 153.285C170.675 153.609 170.861 153.896 171.133 154.082C171.405 154.268 171.739 154.339 172.063 154.279L173.104 154.085V154.699C172.526 154.984 172.04 155.425 171.7 155.972C171.36 156.518 171.18 157.149 171.179 157.793V158.184H178.158V157.793C178.158 157.196 178.002 156.609 177.707 156.089C177.412 155.57 176.987 155.136 176.474 154.829V153.453L177.425 153.277C177.748 153.216 178.035 153.03 178.221 152.758C178.408 152.486 178.479 152.152 178.419 151.828L172.872 122.111H188.252L182.711 151.831C182.651 152.155 182.721 152.489 182.908 152.761C183.094 153.033 183.381 153.219 183.705 153.28L184.655 153.456V154.832C184.142 155.139 183.717 155.573 183.422 156.092C183.127 156.611 182.972 157.199 182.972 157.796V158.187H189.95V157.796C189.95 157.152 189.769 156.521 189.429 155.975C189.089 155.428 188.603 154.987 188.026 154.702V154.088L189.066 154.282C189.39 154.342 189.725 154.271 189.996 154.085C190.268 153.898 190.455 153.612 190.515 153.288L196.497 121.259C196.586 120.782 196.581 120.292 196.48 119.817C196.38 119.342 196.187 118.892 195.913 118.491C195.638 118.091 195.287 117.749 194.88 117.484C194.473 117.219 194.018 117.037 193.541 116.948Z" fill="url(#paint3_linear)"/>
</g>
<path d="M176.63 150.058H173.39V154.455H176.63V150.058Z" fill="#FDB797"/>
<path d="M187.742 150.058H184.501V154.455H187.742V150.058Z" fill="#FDB797"/>
<path d="M191.216 113.961H169.918V121.597H191.216V113.961Z" fill="#404040"/>
<g opacity="0.05">
<path opacity="0.05" d="M191.216 113.961H169.918V121.597H191.216V113.961Z" fill="#404040"/>
</g>
<path opacity="0.1" d="M169.918 115.348C169.918 115.348 177.865 117.199 180.566 117.199C183.267 117.199 191.213 115.348 191.213 115.348V114.189H169.918V115.348Z" fill="black"/>
<path d="M191.213 115.117C191.213 115.117 183.267 116.968 180.566 116.968C177.865 116.968 169.918 115.117 169.918 115.117V102.391C169.918 99.5678 171.04 96.8606 173.037 94.8645C175.033 92.8684 177.742 91.7471 180.566 91.7471C183.389 91.7471 186.098 92.8684 188.095 94.8645C190.091 96.8606 191.213 99.5678 191.213 102.391V115.117Z" fill="#EC4794"/>
<path d="M178.021 86.4229H183.113V92.5471C183.113 93.1318 182.881 93.6926 182.467 94.106C182.054 94.5194 181.493 94.7517 180.908 94.7517H180.23C179.645 94.7517 179.084 94.5194 178.67 94.106C178.257 93.6926 178.024 93.1318 178.024 92.5471V86.4229H178.021Z" fill="#FDB797"/>
<path d="M177.239 151.639L172.674 152.491C172.285 152.561 171.884 152.475 171.558 152.251C171.232 152.026 171.008 151.683 170.935 151.294L165.493 122.139C165.373 121.501 165.381 120.845 165.515 120.21C165.649 119.575 165.906 118.972 166.274 118.436C166.641 117.901 167.11 117.442 167.654 117.088C168.198 116.734 168.807 116.49 169.446 116.371L170.622 116.151C171.011 116.081 171.413 116.167 171.738 116.391C172.064 116.615 172.288 116.959 172.361 117.347L178.447 149.889C178.483 150.084 178.481 150.283 178.44 150.476C178.399 150.67 178.32 150.853 178.207 151.016C178.095 151.178 177.952 151.317 177.785 151.424C177.619 151.531 177.433 151.604 177.239 151.639Z" fill="#404040"/>
<path d="M183.881 151.64L188.446 152.492C188.835 152.562 189.236 152.476 189.562 152.252C189.888 152.028 190.112 151.684 190.185 151.295L195.72 121.653C195.936 120.493 195.683 119.295 195.015 118.323C194.348 117.35 193.321 116.681 192.161 116.465L190.498 116.155C190.109 116.084 189.708 116.171 189.382 116.395C189.056 116.619 188.832 116.963 188.759 117.351L182.673 149.893C182.637 150.087 182.64 150.287 182.681 150.48C182.723 150.673 182.802 150.855 182.914 151.018C183.026 151.18 183.17 151.319 183.336 151.425C183.502 151.532 183.687 151.605 183.881 151.64Z" fill="#404040"/>
<path opacity="0.1" d="M178.021 90.2813C179.694 90.6927 181.441 90.6927 183.113 90.2813V86.6543H178.021V90.2813Z" fill="black"/>
<path d="M180.566 88.2737C186.702 88.2737 191.677 83.3009 191.677 77.1667C191.677 71.0324 186.702 66.0596 180.566 66.0596C174.429 66.0596 169.455 71.0324 169.455 77.1667C169.455 83.3009 174.429 88.2737 180.566 88.2737Z" fill="#333333"/>
<path d="M180.566 90.3565C186.446 90.3565 191.213 85.5912 191.213 79.7129C191.213 73.8346 186.446 69.0693 180.566 69.0693C174.685 69.0693 169.918 73.8346 169.918 79.7129C169.918 85.5912 174.685 90.3565 180.566 90.3565Z" fill="#FDB797"/>
<path d="M173.535 67.2221C175.584 65.5505 178.682 65.2521 180.224 63.1054C180.865 62.2131 181.32 60.9587 182.401 60.7646L182.432 63.0475L185.91 62.6911C185.374 64.1976 186.687 65.6461 187.478 67.0366C188.059 68.0642 188.377 69.2198 188.402 70.4C187.2 71.1214 185.707 70.3334 184.368 69.9134C183.029 69.4933 181.682 69.4614 180.311 69.4238C179.611 69.3751 178.909 69.4141 178.219 69.5396C177.622 69.6998 177.04 69.9121 176.48 70.1741C175.558 70.5594 172.646 72.0166 171.791 71.0779C170.828 70.0148 172.744 67.8681 173.535 67.2221Z" fill="#333333"/>
<path opacity="0.1" d="M174.114 74.3737C174.696 74.6928 175.337 74.89 175.998 74.9531C178.726 75.326 181.504 75.0144 184.081 74.0464C184.504 75.1154 185.53 75.8512 186.628 76.1988C187.727 76.5465 188.892 76.5639 190.042 76.5812C190.295 76.6097 190.551 76.5613 190.776 76.4422C191.289 76.0974 191.039 75.3037 190.741 74.7648L189.257 72.0764C188.819 71.2826 188.367 70.4715 187.689 69.8718C186.837 69.1186 185.707 68.7652 184.594 68.5421C181.96 68.0178 179.241 68.108 176.647 68.8057C173.874 69.5386 170.312 72.0735 174.114 74.3737Z" fill="black"/>
<path d="M174.114 74.1423C174.696 74.4614 175.337 74.6586 175.998 74.7217C178.726 75.0946 181.504 74.783 184.081 73.8149C184.504 74.8839 185.53 75.6198 186.628 75.9674C187.727 76.315 188.892 76.3324 190.042 76.3498C190.295 76.3783 190.551 76.3298 190.776 76.2107C191.289 75.866 191.039 75.0722 190.741 74.5334L189.257 71.845C188.819 71.0512 188.367 70.24 187.689 69.6404C186.837 68.8871 185.707 68.5337 184.594 68.3106C181.96 67.7864 179.241 67.8766 176.647 68.5743C173.874 69.3014 170.312 71.845 174.114 74.1423Z" fill="#333333"/>
<path d="M191.101 81.4481C191.613 81.4481 192.028 80.6712 192.028 79.7128C192.028 78.7545 191.613 77.9775 191.101 77.9775C190.589 77.9775 190.173 78.7545 190.173 79.7128C190.173 80.6712 190.589 81.4481 191.101 81.4481Z" fill="#FDB797"/>
<path d="M170.034 81.4481C170.547 81.4481 170.962 80.6712 170.962 79.7128C170.962 78.7545 170.547 77.9775 170.034 77.9775C169.522 77.9775 169.107 78.7545 169.107 79.7128C169.107 80.6712 169.522 81.4481 170.034 81.4481Z" fill="#FDB797"/>
<path d="M178.062 92.4545C178.062 92.4545 164.592 90.357 167.371 111.184L168.991 117.154L173.628 116.969C173.628 116.969 170.62 110.016 172.469 105.398C174.318 100.78 178.062 92.4545 178.062 92.4545Z" fill="#EC4794"/>
<path d="M183.07 92.4545C183.07 92.4545 196.54 90.357 193.761 111.184L192.141 117.154L187.504 116.969C187.504 116.969 190.512 110.016 188.663 105.398C186.814 100.78 183.07 92.4545 183.07 92.4545Z" fill="#EC4794"/>
<path d="M171.538 120.44C172.945 120.44 174.086 119.3 174.086 117.893C174.086 116.487 172.945 115.347 171.538 115.347C170.131 115.347 168.991 116.487 168.991 117.893C168.991 119.3 170.131 120.44 171.538 120.44Z" fill="#FDB797"/>
<path d="M190.057 120.44C191.464 120.44 192.605 119.3 192.605 117.893C192.605 116.487 191.464 115.347 190.057 115.347C188.65 115.347 187.51 116.487 187.51 117.893C187.51 119.3 188.65 120.44 190.057 120.44Z" fill="#FDB797"/>
<path d="M174.448 152.605H175.343C176.112 152.605 176.849 152.91 177.393 153.453C177.936 153.996 178.241 154.733 178.241 155.502V156.295H171.538V155.502C171.538 155.12 171.613 154.742 171.76 154.39C171.906 154.038 172.121 153.718 172.391 153.449C172.661 153.18 172.982 152.967 173.335 152.822C173.688 152.677 174.066 152.603 174.448 152.605Z" fill="#333333"/>
<path d="M185.791 152.605H186.687C187.455 152.605 188.192 152.91 188.736 153.453C189.279 153.996 189.585 154.733 189.585 155.502V156.295H182.881V155.502C182.881 155.12 182.957 154.742 183.103 154.39C183.249 154.038 183.464 153.718 183.734 153.449C184.005 153.18 184.325 152.967 184.678 152.822C185.031 152.677 185.409 152.603 185.791 152.605Z" fill="#333333"/>
<path opacity="0.1" d="M172.234 103.547C172.234 103.547 171.307 108.405 172.93 110.5L172.234 103.547Z" fill="black"/>
<path opacity="0.1" d="M188.901 103.547C188.901 103.547 189.829 108.405 188.206 110.5L188.901 103.547Z" fill="black"/>
<path d="M262.732 107.182C278.738 107.182 291.713 94.2118 291.713 78.2122C291.713 62.2125 278.738 49.2422 262.732 49.2422C246.727 49.2422 233.751 62.2125 233.751 78.2122C233.751 94.2118 246.727 107.182 262.732 107.182Z" fill="#00C673"/>
<path d="M259.86 89.2635C259.208 89.2646 258.574 89.0538 258.052 88.6628L258.02 88.6385L251.209 83.4304C250.893 83.1886 250.628 82.8871 250.43 82.5431C250.231 82.1991 250.102 81.8193 250.05 81.4254C249.997 81.0315 250.024 80.6312 250.126 80.2474C250.229 79.8636 250.406 79.5037 250.648 79.1884C250.89 78.8731 251.192 78.6085 251.536 78.4097C251.88 78.2109 252.26 78.0817 252.654 78.0297C253.048 77.9777 253.448 78.0037 253.832 78.1064C254.216 78.2091 254.576 78.3864 254.892 78.6281L259.303 82.0098L269.728 68.4147C269.97 68.0995 270.271 67.835 270.615 67.6363C270.959 67.4376 271.339 67.3085 271.733 67.2565C272.127 67.2045 272.527 67.2306 272.911 67.3332C273.295 67.4358 273.654 67.613 273.97 67.8547L273.971 67.8553L273.906 67.9451L273.972 67.8553C274.609 68.344 275.025 69.065 275.13 69.8601C275.235 70.6552 275.02 71.4595 274.532 72.0964L262.27 88.08C261.987 88.4483 261.622 88.7463 261.204 88.9509C260.787 89.1556 260.328 89.2613 259.863 89.2599L259.86 89.2635Z" fill="#FEFEFE"/>
<defs>
<linearGradient id="paint0_linear" x1="102.608" y1="188.408" x2="102.608" y2="42" gradientUnits="userSpaceOnUse">
<stop stop-color="#808080" stop-opacity="0.25"/>
<stop offset="0.54" stop-color="#808080" stop-opacity="0.12"/>
<stop offset="1" stop-color="#808080" stop-opacity="0.1"/>
</linearGradient>
<linearGradient id="paint1_linear" x1="40678.3" y1="39657" x2="40678.3" y2="14092.5" gradientUnits="userSpaceOnUse">
<stop stop-color="#808080" stop-opacity="0.25"/>
<stop offset="0.54" stop-color="#808080" stop-opacity="0.12"/>
<stop offset="1" stop-color="#808080" stop-opacity="0.1"/>
</linearGradient>
<linearGradient id="paint2_linear" x1="163839" y1="117010" x2="163839" y2="47600.7" gradientUnits="userSpaceOnUse">
<stop stop-color="#808080" stop-opacity="0.25"/>
<stop offset="0.54" stop-color="#808080" stop-opacity="0.12"/>
<stop offset="1" stop-color="#808080" stop-opacity="0.1"/>
</linearGradient>
<linearGradient id="paint3_linear" x1="19888.2" y1="47705.2" x2="19888.2" y2="13668" gradientUnits="userSpaceOnUse">
<stop stop-color="#808080" stop-opacity="0.25"/>
<stop offset="0.54" stop-color="#808080" stop-opacity="0.12"/>
<stop offset="1" stop-color="#808080" stop-opacity="0.1"/>
</linearGradient>
</defs>
</svg>
