<svg width="351" height="316" viewBox="0 0 351 316" fill="none" xmlns="http://www.w3.org/2000/svg">
<rect width="351" height="316" rx="60" fill="#F3F3F3"/>
<g opacity="0.5">
<path opacity="0.5" d="M149.751 42H55.4672C54.747 42 54.1631 42.5837 54.1631 43.3036V187.105C54.1631 187.825 54.747 188.408 55.4672 188.408H149.751C150.471 188.408 151.055 187.825 151.055 187.105V43.3036C151.055 42.5837 150.471 42 149.751 42Z" fill="url(#paint0_linear)"/>
</g>
<path d="M148.507 43.0752H56.7075C55.9872 43.0752 55.4033 43.6589 55.4033 44.3788V185.219C55.4033 185.939 55.9872 186.523 56.7075 186.523H148.507C149.228 186.523 149.811 185.939 149.811 185.219V44.3788C149.811 43.6589 149.228 43.0752 148.507 43.0752Z" fill="#F2F2F2"/>
<g opacity="0.5">
<path opacity="0.5" d="M82.4221 69.501H66.1494C65.4291 69.501 64.8452 70.0846 64.8452 70.8046V85.1853C64.8452 85.9053 65.4291 86.489 66.1494 86.489H82.4221C83.1424 86.489 83.7263 85.9053 83.7263 85.1853V70.8046C83.7263 70.0846 83.1424 69.501 82.4221 69.501Z" fill="#EC4794"/>
</g>
<path d="M139.555 69.501H90.2093C89.758 69.501 89.3921 69.8667 89.3921 70.3179V70.5729C89.3921 71.0241 89.758 71.3898 90.2093 71.3898H139.555C140.006 71.3898 140.372 71.0241 140.372 70.5729V70.3179C140.372 69.8667 140.006 69.501 139.555 69.501Z" fill="#E0E0E0"/>
<path d="M130.954 75.1621H90.2093C89.758 75.1621 89.3921 75.5279 89.3921 75.9791V76.234C89.3921 76.6852 89.758 77.0509 90.2093 77.0509H130.954C131.405 77.0509 131.771 76.6852 131.771 76.234V75.9791C131.771 75.5279 131.405 75.1621 130.954 75.1621Z" fill="#E0E0E0"/>
<g opacity="0.5">
<path opacity="0.5" d="M82.4221 95.9248H66.1494C65.4291 95.9248 64.8452 96.5085 64.8452 97.2285V111.609C64.8452 112.329 65.4291 112.913 66.1494 112.913H82.4221C83.1424 112.913 83.7263 112.329 83.7263 111.609V97.2285C83.7263 96.5085 83.1424 95.9248 82.4221 95.9248Z" fill="#EC4794"/>
</g>
<path d="M139.555 95.9248H90.2093C89.758 95.9248 89.3921 96.2906 89.3921 96.7418V96.9967C89.3921 97.4479 89.758 97.8137 90.2093 97.8137H139.555C140.006 97.8137 140.372 97.4479 140.372 96.9967V96.7418C140.372 96.2906 140.006 95.9248 139.555 95.9248Z" fill="#E0E0E0"/>
<path d="M139.555 101.585H90.2093C89.758 101.585 89.3921 101.951 89.3921 102.402V102.657C89.3921 103.108 89.758 103.474 90.2093 103.474H139.555C140.006 103.474 140.372 103.108 140.372 102.657V102.402C140.372 101.951 140.006 101.585 139.555 101.585Z" fill="#E0E0E0"/>
<g opacity="0.5">
<path opacity="0.5" d="M82.4221 122.349H66.1494C65.4291 122.349 64.8452 122.932 64.8452 123.652V138.033C64.8452 138.753 65.4291 139.337 66.1494 139.337H82.4221C83.1424 139.337 83.7263 138.753 83.7263 138.033V123.652C83.7263 122.932 83.1424 122.349 82.4221 122.349Z" fill="#EC4794"/>
</g>
<path d="M139.555 122.349H90.2093C89.758 122.349 89.3921 122.714 89.3921 123.166V123.421C89.3921 123.872 89.758 124.237 90.2093 124.237H139.555C140.006 124.237 140.372 123.872 140.372 123.421V123.166C140.372 122.714 140.006 122.349 139.555 122.349Z" fill="#E0E0E0"/>
<path d="M94.2406 128.012H90.2093C89.758 128.012 89.3921 128.377 89.3921 128.829V129.084C89.3921 129.535 89.758 129.901 90.2093 129.901H94.2406C94.692 129.901 95.0579 129.535 95.0579 129.084V128.829C95.0579 128.377 94.692 128.012 94.2406 128.012Z" fill="#E0E0E0"/>
<g opacity="0.5">
<path opacity="0.5" d="M208.59 89.1396H115.759C115.038 89.1396 114.455 89.7233 114.455 90.4433V173.894C114.455 174.614 115.038 175.198 115.759 175.198H208.59C209.311 175.198 209.894 174.614 209.894 173.894V90.4433C209.894 89.7233 209.311 89.1396 208.59 89.1396Z" fill="url(#paint1_linear)"/>
</g>
<path d="M207.277 90.0029H117.234C116.514 90.0029 115.93 90.5866 115.93 91.3066V172.055C115.93 172.775 116.514 173.358 117.234 173.358H207.277C207.998 173.358 208.582 172.775 208.582 172.055V91.3066C208.582 90.5866 207.998 90.0029 207.277 90.0029Z" fill="white"/>
<g opacity="0.5">
<path opacity="0.5" d="M143.63 107.913H126.331C125.611 107.913 125.027 108.497 125.027 109.217V124.519C125.027 125.239 125.611 125.822 126.331 125.822H143.63C144.35 125.822 144.934 125.239 144.934 124.519V109.217C144.934 108.497 144.35 107.913 143.63 107.913Z" fill="#EC4794"/>
</g>
<path d="M203.791 107.913H151.77C151.293 107.913 150.907 108.3 150.907 108.776V109.04C150.907 109.517 151.293 109.903 151.77 109.903H203.791C204.268 109.903 204.655 109.517 204.655 109.04V108.776C204.655 108.3 204.268 107.913 203.791 107.913Z" fill="#E0E0E0"/>
<path d="M203.791 113.883H151.77C151.293 113.883 150.907 114.269 150.907 114.746V115.01C150.907 115.487 151.293 115.873 151.77 115.873H203.791C204.268 115.873 204.655 115.487 204.655 115.01V114.746C204.655 114.269 204.268 113.883 203.791 113.883Z" fill="#E0E0E0"/>
<path d="M203.791 135.55H123.899C123.422 135.55 123.036 135.936 123.036 136.413V136.677C123.036 137.154 123.422 137.54 123.899 137.54H203.791C204.268 137.54 204.655 137.154 204.655 136.677V136.413C204.655 135.936 204.268 135.55 203.791 135.55Z" fill="#E0E0E0"/>
<path d="M203.791 141.521H123.899C123.422 141.521 123.036 141.907 123.036 142.384V142.647C123.036 143.124 123.422 143.511 123.899 143.511H203.791C204.268 143.511 204.655 143.124 204.655 142.647V142.384C204.655 141.907 204.268 141.521 203.791 141.521Z" fill="#E0E0E0"/>
<path d="M203.791 149.479H123.899C123.422 149.479 123.036 149.865 123.036 150.342V150.605C123.036 151.082 123.422 151.469 123.899 151.469H203.791C204.268 151.469 204.655 151.082 204.655 150.605V150.342C204.655 149.865 204.268 149.479 203.791 149.479Z" fill="#E0E0E0"/>
<path d="M183.884 155.449H123.899C123.422 155.449 123.036 155.836 123.036 156.313V156.576C123.036 157.053 123.422 157.439 123.899 157.439H183.884C184.361 157.439 184.748 157.053 184.748 156.576V156.313C184.748 155.836 184.361 155.449 183.884 155.449Z" fill="#E0E0E0"/>
<g opacity="0.5">
<path opacity="0.5" d="M212.201 121.343L212.54 119.831L212.065 121.308C199.704 117.971 186.962 116.253 174.158 116.198C81.9062 115.653 39 197.155 39 197.155L126.424 243.263C126.424 243.263 137.147 210.023 175.23 211.106C177.85 211.178 180.463 211.406 183.055 211.79L171.469 247.866C170.974 248.571 170.625 249.368 170.444 250.209C170.262 251.051 170.252 251.921 170.413 252.766C170.574 253.612 170.903 254.417 171.381 255.133C171.859 255.85 172.476 256.462 173.196 256.936C173.915 257.409 174.722 257.733 175.57 257.889C176.417 258.045 177.286 258.029 178.127 257.842C178.968 257.656 179.763 257.302 180.465 256.803C181.166 256.303 181.76 255.668 182.212 254.935V254.918C182.813 253.941 183.141 252.82 183.16 251.673C183.16 251.479 183.16 251.285 183.139 251.094L191.515 213.682C216.467 221.353 224.029 243.26 224.029 243.26L312 199.298C312 199.298 278.962 139.467 212.201 121.343Z" fill="url(#paint2_linear)"/>
</g>
<path d="M174.175 117.101C83.1001 116.571 40.7388 197.026 40.7388 197.026L127.05 242.541C127.05 242.541 137.639 209.724 175.236 210.781C177.884 210.853 180.526 211.087 183.145 211.482L211.726 122.183C199.483 118.865 186.86 117.156 174.175 117.101Z" fill="#FE6675"/>
<path d="M211.726 122.183L183.145 211.491C214.334 216.228 223.42 242.541 223.42 242.541L310.261 199.144C310.261 199.144 277.631 140.074 211.726 122.183Z" fill="#E0E0E0"/>
<path d="M183.053 250.28L212.068 120.688L171.518 247.093C171.021 247.788 170.67 248.576 170.485 249.41C170.3 250.244 170.285 251.107 170.442 251.947C170.598 252.787 170.923 253.587 171.395 254.298C171.868 255.01 172.48 255.619 173.194 256.088C173.908 256.558 174.709 256.879 175.55 257.032C176.39 257.185 177.254 257.167 178.087 256.979C178.921 256.79 179.708 256.436 180.401 255.936C181.094 255.437 181.68 254.803 182.122 254.072V254.055C182.716 253.091 183.039 251.985 183.058 250.853C183.076 250.654 183.067 250.468 183.053 250.28Z" fill="#535461"/>
<g opacity="0.7">
<path opacity="0.7" d="M193.541 116.948L192.782 116.806L194.28 111.302C196.639 93.6304 187.727 91.8372 184.386 91.7763C184.001 91.6358 183.61 91.5168 183.212 91.42V89.3341C185.314 88.8156 187.219 87.6924 188.689 86.1034C190.16 84.5145 191.132 82.5295 191.486 80.394H191.515C192.045 80.394 192.477 79.5858 192.477 78.5892C192.498 78.0609 192.351 77.5397 192.057 77.1001C192.096 76.7139 192.115 76.3276 192.115 75.9413C192.116 74.3816 191.8 72.838 191.185 71.4042C190.571 69.9704 189.672 68.6764 188.542 67.6009C188.387 66.8302 188.111 66.089 187.724 65.405C186.904 63.9565 185.539 62.4558 186.096 60.8885L182.493 61.2594L182.459 58.8867C181.334 59.0895 180.862 60.3903 180.195 61.3173C178.59 63.548 175.37 63.858 173.24 65.5962C172.515 66.1756 170.886 67.9833 171.197 69.1624C169.766 71.1298 168.997 73.5003 169 75.9326C169 76.3189 169.019 76.7052 169.058 77.0914C168.764 77.531 168.617 78.0522 168.638 78.5805C168.638 79.5771 169.069 80.3853 169.6 80.3853H169.629C169.983 82.5208 170.955 84.5058 172.426 86.0948C173.896 87.6837 175.8 88.8069 177.903 89.3255V91.4113C177.505 91.5081 177.113 91.6271 176.729 91.7676C173.388 91.8285 164.476 93.6101 166.835 111.293L168.333 116.798L167.977 116.864C167.447 116.963 166.941 117.166 166.489 117.46C166.037 117.754 165.648 118.134 165.343 118.579C165.038 119.024 164.824 119.524 164.712 120.051C164.601 120.579 164.594 121.123 164.693 121.653L170.614 153.285C170.675 153.609 170.861 153.896 171.133 154.082C171.405 154.268 171.739 154.339 172.063 154.279L173.104 154.085V154.699C172.526 154.984 172.04 155.425 171.7 155.972C171.36 156.518 171.18 157.149 171.179 157.793V158.184H178.158V157.793C178.158 157.196 178.002 156.609 177.707 156.089C177.412 155.57 176.987 155.136 176.474 154.829V153.453L177.425 153.277C177.748 153.216 178.035 153.03 178.221 152.758C178.408 152.486 178.479 152.152 178.419 151.828L172.872 122.111H188.252L182.711 151.831C182.651 152.155 182.721 152.489 182.908 152.761C183.094 153.033 183.381 153.219 183.705 153.28L184.655 153.456V154.832C184.142 155.139 183.717 155.573 183.422 156.092C183.127 156.611 182.972 157.199 182.972 157.796V158.187H189.95V157.796C189.95 157.152 189.769 156.521 189.429 155.975C189.089 155.428 188.603 154.987 188.026 154.702V154.088L189.066 154.282C189.39 154.342 189.725 154.271 189.996 154.085C190.268 153.898 190.455 153.612 190.515 153.288L196.497 121.259C196.586 120.782 196.581 120.292 196.48 119.817C196.38 119.342 196.187 118.892 195.913 118.491C195.638 118.091 195.287 117.749 194.88 117.484C194.473 117.219 194.018 117.037 193.541 116.948Z" fill="url(#paint3_linear)"/>
</g>
<path d="M176.63 150.058H173.39V154.455H176.63V150.058Z" fill="#FDB797"/>
<path d="M187.742 150.058H184.501V154.455H187.742V150.058Z" fill="#FDB797"/>
<path d="M191.216 113.961H169.918V121.597H191.216V113.961Z" fill="#404040"/>
<g opacity="0.05">
<path opacity="0.05" d="M191.216 113.961H169.918V121.597H191.216V113.961Z" fill="#404040"/>
</g>
<path opacity="0.1" d="M169.918 115.349C169.918 115.349 177.865 117.2 180.566 117.2C183.267 117.2 191.213 115.349 191.213 115.349V114.19H169.918V115.349Z" fill="black"/>
<path d="M191.213 115.117C191.213 115.117 183.267 116.968 180.566 116.968C177.865 116.968 169.918 115.117 169.918 115.117V102.391C169.918 99.5678 171.04 96.8606 173.037 94.8645C175.033 92.8684 177.742 91.7471 180.566 91.7471C183.389 91.7471 186.098 92.8684 188.095 94.8645C190.091 96.8606 191.213 99.5678 191.213 102.391V115.117Z" fill="#EC4794"/>
<path d="M178.021 86.4229H183.113V92.5471C183.113 93.1318 182.881 93.6926 182.467 94.106C182.054 94.5194 181.493 94.7517 180.908 94.7517H180.23C179.645 94.7517 179.084 94.5194 178.67 94.106C178.257 93.6926 178.024 93.1318 178.024 92.5471V86.4229H178.021Z" fill="#FDB797"/>
<path d="M177.239 151.64L172.675 152.492C172.285 152.562 171.884 152.476 171.559 152.252C171.233 152.027 171.009 151.684 170.936 151.295L165.493 122.14C165.374 121.502 165.381 120.846 165.515 120.211C165.649 119.576 165.907 118.973 166.274 118.437C166.641 117.902 167.11 117.443 167.655 117.089C168.199 116.735 168.808 116.491 169.446 116.372L170.623 116.152C171.012 116.082 171.413 116.168 171.739 116.392C172.064 116.616 172.288 116.96 172.362 117.348L178.448 149.89C178.484 150.085 178.482 150.284 178.44 150.477C178.399 150.671 178.32 150.854 178.208 151.017C178.096 151.179 177.952 151.318 177.786 151.425C177.62 151.532 177.434 151.605 177.239 151.64Z" fill="#404040"/>
<path d="M183.881 151.64L188.445 152.492C188.835 152.562 189.236 152.476 189.561 152.252C189.887 152.028 190.111 151.684 190.184 151.295L195.72 121.653C195.936 120.493 195.682 119.295 195.015 118.323C194.347 117.35 193.321 116.681 192.161 116.465L190.497 116.155C190.108 116.084 189.707 116.171 189.381 116.395C189.056 116.619 188.832 116.963 188.758 117.351L182.673 149.893C182.637 150.087 182.639 150.287 182.681 150.479C182.722 150.673 182.801 150.855 182.913 151.018C183.026 151.18 183.169 151.319 183.335 151.425C183.501 151.532 183.687 151.605 183.881 151.64Z" fill="#404040"/>
<path opacity="0.1" d="M178.021 90.2813C179.694 90.6927 181.441 90.6927 183.113 90.2813V86.6543H178.021V90.2813Z" fill="black"/>
<path d="M180.566 88.2737C186.702 88.2737 191.677 83.3009 191.677 77.1666C191.677 71.0324 186.702 66.0596 180.566 66.0596C174.429 66.0596 169.455 71.0324 169.455 77.1666C169.455 83.3009 174.429 88.2737 180.566 88.2737Z" fill="#333333"/>
<path d="M180.566 90.3565C186.446 90.3565 191.213 85.5912 191.213 79.7129C191.213 73.8346 186.446 69.0693 180.566 69.0693C174.685 69.0693 169.918 73.8346 169.918 79.7129C169.918 85.5912 174.685 90.3565 180.566 90.3565Z" fill="#FDB797"/>
<path d="M173.535 67.2211C175.584 65.5495 178.682 65.2511 180.224 63.1044C180.865 62.2122 181.32 60.9578 182.401 60.7637L182.432 63.0465L185.91 62.6902C185.374 64.1966 186.687 65.6451 187.478 67.0357C188.059 68.0632 188.377 69.2188 188.403 70.3991C187.2 71.1204 185.707 70.3324 184.368 69.9124C183.029 69.4923 181.682 69.4604 180.311 69.4228C179.611 69.3742 178.909 69.4131 178.219 69.5387C177.622 69.6988 177.04 69.9111 176.48 70.1731C175.558 70.5584 172.646 72.0156 171.791 71.077C170.828 70.0138 172.744 67.8671 173.535 67.2211Z" fill="#333333"/>
<path opacity="0.1" d="M174.115 74.3737C174.697 74.6928 175.338 74.89 175.999 74.9531C178.727 75.326 181.504 75.0144 184.082 74.0464C184.505 75.1154 185.531 75.8512 186.629 76.1988C187.727 76.5465 188.892 76.5639 190.043 76.5812C190.296 76.6097 190.551 76.5613 190.776 76.4422C191.289 76.0974 191.04 75.3037 190.741 74.7648L189.258 72.0764C188.82 71.2826 188.368 70.4715 187.69 69.8718C186.838 69.1186 185.707 68.7652 184.595 68.5421C181.961 68.0178 179.241 68.108 176.648 68.8057C173.874 69.5386 170.313 72.0735 174.115 74.3737Z" fill="black"/>
<path d="M174.115 74.1423C174.697 74.4614 175.338 74.6585 175.999 74.7217C178.727 75.0946 181.504 74.783 184.082 73.8149C184.505 74.8839 185.531 75.6198 186.629 75.9674C187.727 76.315 188.892 76.3324 190.043 76.3498C190.296 76.3783 190.551 76.3298 190.776 76.2107C191.289 75.866 191.04 75.0722 190.741 74.5334L189.258 71.845C188.82 71.0512 188.368 70.24 187.69 69.6404C186.838 68.8871 185.707 68.5337 184.595 68.3106C181.961 67.7864 179.241 67.8766 176.648 68.5743C173.874 69.3014 170.313 71.845 174.115 74.1423Z" fill="#333333"/>
<path d="M191.1 81.4481C191.612 81.4481 192.028 80.6712 192.028 79.7128C192.028 78.7545 191.612 77.9775 191.1 77.9775C190.588 77.9775 190.173 78.7545 190.173 79.7128C190.173 80.6712 190.588 81.4481 191.1 81.4481Z" fill="#FDB797"/>
<path d="M170.034 81.4481C170.547 81.4481 170.962 80.6712 170.962 79.7128C170.962 78.7545 170.547 77.9775 170.034 77.9775C169.522 77.9775 169.107 78.7545 169.107 79.7128C169.107 80.6712 169.522 81.4481 170.034 81.4481Z" fill="#FDB797"/>
<path d="M178.062 92.4535C178.062 92.4535 164.592 90.3561 167.371 111.183L168.991 117.153L173.628 116.968C173.628 116.968 170.62 110.015 172.469 105.397C174.318 100.779 178.062 92.4535 178.062 92.4535Z" fill="#EC4794"/>
<path d="M183.07 92.4535C183.07 92.4535 196.54 90.3561 193.761 111.183L192.141 117.153L187.504 116.968C187.504 116.968 190.512 110.015 188.663 105.397C186.814 100.779 183.07 92.4535 183.07 92.4535Z" fill="#EC4794"/>
<path d="M171.538 120.44C172.945 120.44 174.086 119.3 174.086 117.893C174.086 116.487 172.945 115.347 171.538 115.347C170.131 115.347 168.991 116.487 168.991 117.893C168.991 119.3 170.131 120.44 171.538 120.44Z" fill="#FDB797"/>
<path d="M190.057 120.44C191.464 120.44 192.605 119.3 192.605 117.893C192.605 116.487 191.464 115.347 190.057 115.347C188.65 115.347 187.51 116.487 187.51 117.893C187.51 119.3 188.65 120.44 190.057 120.44Z" fill="#FDB797"/>
<path d="M174.448 152.605H175.344C176.112 152.605 176.85 152.91 177.393 153.453C177.937 153.996 178.242 154.733 178.242 155.502V156.295H171.539V155.502C171.539 155.12 171.614 154.742 171.76 154.39C171.907 154.038 172.121 153.718 172.392 153.449C172.662 153.18 172.983 152.967 173.336 152.822C173.689 152.677 174.067 152.603 174.448 152.605Z" fill="#333333"/>
<path d="M185.791 152.605H186.687C187.455 152.605 188.192 152.91 188.736 153.453C189.279 153.996 189.585 154.733 189.585 155.502V156.295H182.881V155.502C182.881 155.12 182.957 154.742 183.103 154.39C183.249 154.038 183.464 153.718 183.734 153.449C184.005 153.18 184.325 152.967 184.678 152.822C185.031 152.677 185.409 152.603 185.791 152.605Z" fill="#333333"/>
<path opacity="0.1" d="M172.234 103.547C172.234 103.547 171.307 108.405 172.93 110.5L172.234 103.547Z" fill="black"/>
<path opacity="0.1" d="M188.901 103.547C188.901 103.547 189.828 108.405 188.205 110.5L188.901 103.547Z" fill="black"/>
<path d="M262.732 107.182C278.738 107.182 291.713 94.2118 291.713 78.2122C291.713 62.2125 278.738 49.2422 262.732 49.2422C246.727 49.2422 233.751 62.2125 233.751 78.2122C233.751 94.2118 246.727 107.182 262.732 107.182Z" fill="#FE6675"/>
<rect x="260.177" y="62.9648" width="5.14786" height="21.9557" rx="2.57393" fill="#FEFEFE"/>
<rect x="260.177" y="88.3516" width="5.14783" height="5.14588" rx="2.57294" fill="#FEFEFE"/>
<path d="M71.75 296.175C70.5333 296.175 69.4333 295.967 68.45 295.55C67.4833 295.133 66.7167 294.533 66.15 293.75C65.5833 292.967 65.2917 292.042 65.275 290.975H69.025C69.075 291.692 69.325 292.258 69.775 292.675C70.2417 293.092 70.875 293.3 71.675 293.3C72.4917 293.3 73.1333 293.108 73.6 292.725C74.0667 292.325 74.3 291.808 74.3 291.175C74.3 290.658 74.1417 290.233 73.825 289.9C73.5083 289.567 73.1083 289.308 72.625 289.125C72.1583 288.925 71.5083 288.708 70.675 288.475C69.5417 288.142 68.6167 287.817 67.9 287.5C67.2 287.167 66.5917 286.675 66.075 286.025C65.575 285.358 65.325 284.475 65.325 283.375C65.325 282.342 65.5833 281.442 66.1 280.675C66.6167 279.908 67.3417 279.325 68.275 278.925C69.2083 278.508 70.275 278.3 71.475 278.3C73.275 278.3 74.7333 278.742 75.85 279.625C76.9833 280.492 77.6083 281.708 77.725 283.275H73.875C73.8417 282.675 73.5833 282.183 73.1 281.8C72.6333 281.4 72.0083 281.2 71.225 281.2C70.5417 281.2 69.9917 281.375 69.575 281.725C69.175 282.075 68.975 282.583 68.975 283.25C68.975 283.717 69.125 284.108 69.425 284.425C69.7417 284.725 70.125 284.975 70.575 285.175C71.0417 285.358 71.6917 285.575 72.525 285.825C73.6583 286.158 74.5833 286.492 75.3 286.825C76.0167 287.158 76.6333 287.658 77.15 288.325C77.6667 288.992 77.925 289.867 77.925 290.95C77.925 291.883 77.6833 292.75 77.2 293.55C76.7167 294.35 76.0083 294.992 75.075 295.475C74.1417 295.942 73.0333 296.175 71.75 296.175ZM93.8344 288.775C93.8344 289.275 93.801 289.725 93.7344 290.125H83.6094C83.6927 291.125 84.0427 291.908 84.6594 292.475C85.276 293.042 86.0344 293.325 86.9344 293.325C88.2344 293.325 89.1594 292.767 89.7094 291.65H93.4844C93.0844 292.983 92.3177 294.083 91.1844 294.95C90.051 295.8 88.6594 296.225 87.0094 296.225C85.676 296.225 84.476 295.933 83.4094 295.35C82.3594 294.75 81.5344 293.908 80.9344 292.825C80.351 291.742 80.0594 290.492 80.0594 289.075C80.0594 287.642 80.351 286.383 80.9344 285.3C81.5177 284.217 82.3344 283.383 83.3844 282.8C84.4344 282.217 85.6427 281.925 87.0094 281.925C88.326 281.925 89.501 282.208 90.5344 282.775C91.5844 283.342 92.3927 284.15 92.9594 285.2C93.5427 286.233 93.8344 287.425 93.8344 288.775ZM90.2094 287.775C90.1927 286.875 89.8677 286.158 89.2344 285.625C88.601 285.075 87.826 284.8 86.9094 284.8C86.0427 284.8 85.3094 285.067 84.7094 285.6C84.126 286.117 83.7677 286.842 83.6344 287.775H90.2094ZM102.164 292.775L105.664 282.15H109.389L104.264 296H100.014L94.9141 282.15H98.6641L102.164 292.775ZM124.23 288.775C124.23 289.275 124.197 289.725 124.13 290.125H114.005C114.088 291.125 114.438 291.908 115.055 292.475C115.672 293.042 116.43 293.325 117.33 293.325C118.63 293.325 119.555 292.767 120.105 291.65H123.88C123.48 292.983 122.713 294.083 121.58 294.95C120.447 295.8 119.055 296.225 117.405 296.225C116.072 296.225 114.872 295.933 113.805 295.35C112.755 294.75 111.93 293.908 111.33 292.825C110.747 291.742 110.455 290.492 110.455 289.075C110.455 287.642 110.747 286.383 111.33 285.3C111.913 284.217 112.73 283.383 113.78 282.8C114.83 282.217 116.038 281.925 117.405 281.925C118.722 281.925 119.897 282.208 120.93 282.775C121.98 283.342 122.788 284.15 123.355 285.2C123.938 286.233 124.23 287.425 124.23 288.775ZM120.605 287.775C120.588 286.875 120.263 286.158 119.63 285.625C118.997 285.075 118.222 284.8 117.305 284.8C116.438 284.8 115.705 285.067 115.105 285.6C114.522 286.117 114.163 286.842 114.03 287.775H120.605ZM130.285 284.3C130.735 283.567 131.318 282.992 132.035 282.575C132.768 282.158 133.601 281.95 134.535 281.95V285.625H133.61C132.51 285.625 131.676 285.883 131.11 286.4C130.56 286.917 130.285 287.817 130.285 289.1V296H126.785V282.15H130.285V284.3ZM149.767 288.775C149.767 289.275 149.734 289.725 149.667 290.125H139.542C139.625 291.125 139.975 291.908 140.592 292.475C141.209 293.042 141.967 293.325 142.867 293.325C144.167 293.325 145.092 292.767 145.642 291.65H149.417C149.017 292.983 148.25 294.083 147.117 294.95C145.984 295.8 144.592 296.225 142.942 296.225C141.609 296.225 140.409 295.933 139.342 295.35C138.292 294.75 137.467 293.908 136.867 292.825C136.284 291.742 135.992 290.492 135.992 289.075C135.992 287.642 136.284 286.383 136.867 285.3C137.45 284.217 138.267 283.383 139.317 282.8C140.367 282.217 141.575 281.925 142.942 281.925C144.259 281.925 145.434 282.208 146.467 282.775C147.517 283.342 148.325 284.15 148.892 285.2C149.475 286.233 149.767 287.425 149.767 288.775ZM146.142 287.775C146.125 286.875 145.8 286.158 145.167 285.625C144.534 285.075 143.759 284.8 142.842 284.8C141.975 284.8 141.242 285.067 140.642 285.6C140.059 286.117 139.7 286.842 139.567 287.775H146.142ZM155.822 277.5V296H152.322V277.5H155.822ZM172.53 282.15L163.955 302.55H160.23L163.23 295.65L157.68 282.15H161.605L165.18 291.825L168.805 282.15H172.53ZM186.398 296.175C185.182 296.175 184.082 295.967 183.098 295.55C182.132 295.133 181.365 294.533 180.798 293.75C180.232 292.967 179.94 292.042 179.923 290.975H183.673C183.723 291.692 183.973 292.258 184.423 292.675C184.89 293.092 185.523 293.3 186.323 293.3C187.14 293.3 187.782 293.108 188.248 292.725C188.715 292.325 188.948 291.808 188.948 291.175C188.948 290.658 188.79 290.233 188.473 289.9C188.157 289.567 187.757 289.308 187.273 289.125C186.807 288.925 186.157 288.708 185.323 288.475C184.19 288.142 183.265 287.817 182.548 287.5C181.848 287.167 181.24 286.675 180.723 286.025C180.223 285.358 179.973 284.475 179.973 283.375C179.973 282.342 180.232 281.442 180.748 280.675C181.265 279.908 181.99 279.325 182.923 278.925C183.857 278.508 184.923 278.3 186.123 278.3C187.923 278.3 189.382 278.742 190.498 279.625C191.632 280.492 192.257 281.708 192.373 283.275H188.523C188.49 282.675 188.232 282.183 187.748 281.8C187.282 281.4 186.657 281.2 185.873 281.2C185.19 281.2 184.64 281.375 184.223 281.725C183.823 282.075 183.623 282.583 183.623 283.25C183.623 283.717 183.773 284.108 184.073 284.425C184.39 284.725 184.773 284.975 185.223 285.175C185.69 285.358 186.34 285.575 187.173 285.825C188.307 286.158 189.232 286.492 189.948 286.825C190.665 287.158 191.282 287.658 191.798 288.325C192.315 288.992 192.573 289.867 192.573 290.95C192.573 291.883 192.332 292.75 191.848 293.55C191.365 294.35 190.657 294.992 189.723 295.475C188.79 295.942 187.682 296.175 186.398 296.175ZM199.683 285.025V291.725C199.683 292.192 199.791 292.533 200.008 292.75C200.241 292.95 200.624 293.05 201.158 293.05H202.783V296H200.583C197.633 296 196.158 294.567 196.158 291.7V285.025H194.508V282.15H196.158V278.725H199.683V282.15H202.783V285.025H199.683ZM218.375 282.15V296H214.85V294.25C214.4 294.85 213.809 295.325 213.075 295.675C212.359 296.008 211.575 296.175 210.725 296.175C209.642 296.175 208.684 295.95 207.85 295.5C207.017 295.033 206.359 294.358 205.875 293.475C205.409 292.575 205.175 291.508 205.175 290.275V282.15H208.675V289.775C208.675 290.875 208.95 291.725 209.5 292.325C210.05 292.908 210.8 293.2 211.75 293.2C212.717 293.2 213.475 292.908 214.025 292.325C214.575 291.725 214.85 290.875 214.85 289.775V282.15H218.375ZM229.504 281.95C231.154 281.95 232.487 282.475 233.504 283.525C234.52 284.558 235.029 286.008 235.029 287.875V296H231.529V288.35C231.529 287.25 231.254 286.408 230.704 285.825C230.154 285.225 229.404 284.925 228.454 284.925C227.487 284.925 226.72 285.225 226.154 285.825C225.604 286.408 225.329 287.25 225.329 288.35V296H221.829V282.15H225.329V283.875C225.795 283.275 226.387 282.808 227.104 282.475C227.837 282.125 228.637 281.95 229.504 281.95ZM242.432 285.025V291.725C242.432 292.192 242.54 292.533 242.757 292.75C242.99 292.95 243.374 293.05 243.907 293.05H245.532V296H243.332C240.382 296 238.907 294.567 238.907 291.7V285.025H237.257V282.15H238.907V278.725H242.432V282.15H245.532V285.025H242.432ZM249.824 280.5C249.208 280.5 248.691 280.308 248.274 279.925C247.874 279.525 247.674 279.033 247.674 278.45C247.674 277.867 247.874 277.383 248.274 277C248.691 276.6 249.208 276.4 249.824 276.4C250.441 276.4 250.949 276.6 251.349 277C251.766 277.383 251.974 277.867 251.974 278.45C251.974 279.033 251.766 279.525 251.349 279.925C250.949 280.308 250.441 280.5 249.824 280.5ZM251.549 282.15V296H248.049V282.15H251.549ZM262.682 281.95C264.332 281.95 265.666 282.475 266.682 283.525C267.699 284.558 268.207 286.008 268.207 287.875V296H264.707V288.35C264.707 287.25 264.432 286.408 263.882 285.825C263.332 285.225 262.582 284.925 261.632 284.925C260.666 284.925 259.899 285.225 259.332 285.825C258.782 286.408 258.507 287.25 258.507 288.35V296H255.007V282.15H258.507V283.875C258.974 283.275 259.566 282.808 260.282 282.475C261.016 282.125 261.816 281.95 262.682 281.95ZM276.961 281.925C277.994 281.925 278.902 282.133 279.686 282.55C280.469 282.95 281.086 283.475 281.536 284.125V282.15H285.061V296.1C285.061 297.383 284.802 298.525 284.286 299.525C283.769 300.542 282.994 301.342 281.961 301.925C280.927 302.525 279.677 302.825 278.211 302.825C276.244 302.825 274.627 302.367 273.361 301.45C272.111 300.533 271.402 299.283 271.236 297.7H274.711C274.894 298.333 275.286 298.833 275.886 299.2C276.502 299.583 277.244 299.775 278.111 299.775C279.127 299.775 279.952 299.467 280.586 298.85C281.219 298.25 281.536 297.333 281.536 296.1V293.95C281.086 294.6 280.461 295.142 279.661 295.575C278.877 296.008 277.977 296.225 276.961 296.225C275.794 296.225 274.727 295.925 273.761 295.325C272.794 294.725 272.027 293.883 271.461 292.8C270.911 291.7 270.636 290.442 270.636 289.025C270.636 287.625 270.911 286.383 271.461 285.3C272.027 284.217 272.786 283.383 273.736 282.8C274.702 282.217 275.777 281.925 276.961 281.925ZM281.536 289.075C281.536 288.225 281.369 287.5 281.036 286.9C280.702 286.283 280.252 285.817 279.686 285.5C279.119 285.167 278.511 285 277.861 285C277.211 285 276.611 285.158 276.061 285.475C275.511 285.792 275.061 286.258 274.711 286.875C274.377 287.475 274.211 288.192 274.211 289.025C274.211 289.858 274.377 290.592 274.711 291.225C275.061 291.842 275.511 292.317 276.061 292.65C276.627 292.983 277.227 293.15 277.861 293.15C278.511 293.15 279.119 292.992 279.686 292.675C280.252 292.342 280.702 291.875 281.036 291.275C281.369 290.658 281.536 289.925 281.536 289.075Z" fill="#FE6675"/>
<defs>
<linearGradient id="paint0_linear" x1="102.608" y1="188.408" x2="102.608" y2="42" gradientUnits="userSpaceOnUse">
<stop stop-color="#808080" stop-opacity="0.25"/>
<stop offset="0.54" stop-color="#808080" stop-opacity="0.12"/>
<stop offset="1" stop-color="#808080" stop-opacity="0.1"/>
</linearGradient>
<linearGradient id="paint1_linear" x1="40678.3" y1="39657" x2="40678.3" y2="14092.5" gradientUnits="userSpaceOnUse">
<stop stop-color="#808080" stop-opacity="0.25"/>
<stop offset="0.54" stop-color="#808080" stop-opacity="0.12"/>
<stop offset="1" stop-color="#808080" stop-opacity="0.1"/>
</linearGradient>
<linearGradient id="paint2_linear" x1="163839" y1="117010" x2="163839" y2="47600.7" gradientUnits="userSpaceOnUse">
<stop stop-color="#808080" stop-opacity="0.25"/>
<stop offset="0.54" stop-color="#808080" stop-opacity="0.12"/>
<stop offset="1" stop-color="#808080" stop-opacity="0.1"/>
</linearGradient>
<linearGradient id="paint3_linear" x1="19888.2" y1="47705.2" x2="19888.2" y2="13668" gradientUnits="userSpaceOnUse">
<stop stop-color="#808080" stop-opacity="0.25"/>
<stop offset="0.54" stop-color="#808080" stop-opacity="0.12"/>
<stop offset="1" stop-color="#808080" stop-opacity="0.1"/>
</linearGradient>
</defs>
</svg>
