<svg width="123" height="122" viewBox="0 0 123 122" fill="none" xmlns="http://www.w3.org/2000/svg">
<path d="M0.195442 61.0481C0.204407 61.0108 0.223915 60.977 0.251648 60.9506C0.810081 60.3997 7.931 50.3292 7.931 50.3292C7.931 50.3292 8.30579 49.2048 8.91294 47.7432C8.7183 47.4912 8.57217 47.2053 8.48195 46.8999C8.44917 46.7705 8.42537 46.639 8.41074 46.5064C8.41074 46.4652 8.38076 46.4314 8.36952 46.3902C8.23936 45.8819 8.25233 45.3475 8.40699 44.8461C8.44864 44.9747 8.5 45.1 8.56064 45.2209C8.70164 44.7843 8.89017 44.3645 9.12282 43.9691C10.0673 42.3425 11.4165 40.9708 12.4097 39.3855C13.9136 36.9223 14.5114 34.0117 14.1 31.1551C14.1 31.3013 14.1 31.4512 14.1 31.5974C14.0624 31.0309 13.9873 30.4675 13.8751 29.9109C13.7185 29.2773 13.5091 28.658 13.2492 28.0594C12.3572 26.0168 10.9143 24.2366 10.0373 22.1865C9.743 21.495 9.5195 20.7755 9.37019 20.039C9.06115 18.8089 8.94857 17.5377 9.03663 16.2724C9.03663 16.5722 9.08535 16.8721 9.13033 17.1682C9.22511 14.1261 10.4536 11.2293 12.5746 9.04654C15.6366 5.96955 20.0328 4.77399 24.2379 4.14435C26.005 3.93817 27.6926 3.29404 29.1476 2.27042C30.763 1.22477 32.8505 0.973658 34.7394 1.20228C36.9105 1.437 38.9278 2.43438 40.4324 4.01692C42.43 6.21317 43.2958 9.32388 45.627 11.1753C47.0399 12.2997 48.8314 12.8244 50.4767 13.5889C52.122 14.3535 53.6774 15.4629 54.2058 17.1044C54.2058 17.1044 54.2058 17.0819 54.2058 17.0707V17.1644L54.2283 17.2244C54.7755 19.1658 53.7186 21.1409 53.1676 23.0785C52.5942 25.0836 52.5567 27.2012 52.5268 29.2737C52.4855 31.8073 52.4481 34.3446 52.4893 36.8819C52.508 37.8788 52.5418 38.887 52.6167 39.8802C53.5038 40.1483 54.3654 40.4945 55.1915 40.9146C56.031 41.4618 59.1717 44.8536 59.1717 44.8536L65.3145 68.3227L65.232 68.4164L65.3145 68.7349L65.0034 68.6637C64.1339 69.6007 61.5366 72.2691 58.7332 73.9332L58.4709 78.5356C58.4709 78.5356 58.156 83.1529 53.9097 85.0606C53.8123 86.6609 53.5087 93.1597 54.9141 95.7345C55.8874 97.6155 56.3451 99.7207 56.2409 101.836C56.2409 101.836 55.7499 105.741 56.3084 107.795C56.6346 109.168 56.6589 110.595 56.3796 111.978C56.3796 111.978 56.3796 112.431 56.3796 113.211C56.3796 117.367 56.3308 130.687 56.3796 132.194C56.4508 133.974 56.3796 160.303 56.3796 160.303C56.3796 160.303 56.7281 173.461 57.845 177.026C58.9618 180.59 58.6808 192.392 58.6808 192.392C58.6808 192.392 59.3816 206.45 56.9043 209.223C56.9043 209.347 56.9268 209.474 56.9305 209.598C56.9305 209.654 56.9305 209.718 56.9305 209.774C56.9605 210.842 56.7543 211.978 55.8361 212.327C53.9622 213.046 51.4849 215.205 51.0164 215.823C50.5479 216.442 47.8232 217.982 44.2702 217.57C42.0445 217.32 39.8046 217.217 37.5653 217.263C37.5653 217.263 36.1636 217.008 36.6171 215.265C36.9094 214.178 38.0038 212.506 38.7834 211.408C38.6409 211.446 38.5023 211.476 38.3711 211.502L38.2362 211.528H38.1312C38.0738 211.532 38.0163 211.532 37.9588 211.528H37.8839C37.814 211.534 37.7438 211.534 37.674 211.528C36.7333 211.438 33.2253 213.072 32.5994 214.152C31.9735 215.231 29.766 216.052 28.102 216.258C27.1125 216.378 24.6165 216.176 22.5214 215.906C21.4664 215.797 20.4214 215.606 19.3957 215.336C18.901 215.149 18.796 214.549 18.9385 213.874C19.1067 213.018 19.5646 212.245 20.2352 211.686C20.8424 211.255 21.6444 210.119 22.2366 209.19L22.394 208.939C21.3483 207.942 19.4594 204.681 18.886 204.006C18.1889 203.186 20.0104 173.169 20.0104 173.169V158.121L17.2182 143.879L15.2656 136.343L13.5903 124.964C13.5903 124.964 10.6594 111.674 11.5627 110.37C11.5627 110.344 12.3123 96.6602 13.0993 93.3733C13.4404 91.9079 13.3542 88.6098 13.1518 85.4016C12.9403 85.1916 12.7928 84.9258 12.7265 84.6352C12.6601 84.3446 12.6776 84.0411 12.777 83.7601C12.8329 83.5679 12.9057 83.3811 12.9944 83.2017C12.9944 83.1454 12.9944 83.0855 12.9944 83.0293C11.3754 82.2843 9.68355 81.7091 7.94601 81.3127C5.15386 80.7655 5.85095 79.3264 5.85095 79.3264C5.85095 79.3264 5.22132 78.0933 4.80531 77.34C4.38929 76.5867 4.7341 69.938 4.80531 69.3908C4.83154 69.1697 5.00394 67.9479 5.20258 66.5612C4.30684 65.924 3.14125 65.1332 1.87073 64.3837C-0.546638 62.952 -0.00318909 61.4416 0.195442 61.0481ZM36.6246 156.068C36.6246 156.068 38.7197 161.412 37.8801 162.78C37.0406 164.148 38.0188 169.226 38.0188 169.226L38.7197 176.763C38.7197 176.763 40.6723 190.743 39.9752 194.03C39.428 196.608 39.2256 204.31 39.1619 207.522C39.2099 207.541 39.2563 207.563 39.3006 207.589L39.3943 207.638C39.072 206.375 39.2069 203.819 40.8072 198.677L40.9421 177.438C40.9421 177.438 41.1895 152.904 39.2519 150.161C37.3142 147.417 36.6284 142.759 36.6284 142.759C36.6284 142.759 37.0481 149.479 37.3217 151.259C37.5953 153.039 36.6246 156.068 36.6246 156.068ZM40.5261 208.86C40.5449 208.905 40.5674 208.95 40.5823 208.991L40.6873 208.856C40.6337 208.861 40.5799 208.863 40.5261 208.86Z" fill="url(#paint0_linear)"/>
<path d="M13.417 126.317L15.0735 137.763L16.9999 145.349L19.7584 159.688V174.867C19.7584 174.867 17.9669 205.067 18.6565 205.891C19.3461 206.716 21.9658 211.412 22.6554 211.138C23.3451 210.865 28.9968 209.898 30.7921 210.722C32.5873 211.547 38.6626 210.861 38.6626 210.861C38.6626 210.861 38.8012 199.142 39.4908 195.832C40.1804 192.523 38.2503 178.457 38.2503 178.457L37.5607 170.875C37.5607 170.875 36.5937 165.771 37.422 164.391C38.2503 163.012 36.1815 157.645 36.1815 157.645C36.1815 157.645 37.1447 154.606 36.8673 152.814C36.59 151.023 36.1815 144.265 36.1815 144.265C36.1815 144.265 36.8673 148.958 38.7825 151.712C40.6976 154.467 40.454 179.154 40.454 179.154L40.3191 200.517C36.8673 211.828 40.3191 210.722 40.3191 210.722C40.3191 210.722 53.4141 213.62 56.0601 211.273C58.7061 208.927 57.949 194.161 57.949 194.161C57.949 194.161 58.2226 182.302 57.1208 178.719C56.0189 175.137 55.6703 161.895 55.6703 161.895C55.6703 161.895 55.7415 135.417 55.6703 133.629C55.6179 132.13 55.6703 118.709 55.6703 114.515C55.6703 113.735 55.6703 113.274 55.6703 113.274L54.0887 109.347L35.3495 107H26.3846C26.3846 107 12.8923 110.171 11.4981 111.539C11.4683 111.562 11.4429 111.59 11.4231 111.622C10.5199 112.945 13.417 126.317 13.417 126.317Z" fill="#EC4794"/>
<path d="M39.9104 4.65779C41.8855 6.86528 42.74 9.99474 45.0412 11.8612C46.4392 12.9855 48.2082 13.5215 49.8347 14.286C51.4613 15.0506 53.0729 16.2162 53.5564 17.9477C54.0961 19.8966 53.0542 21.8867 52.507 23.8356C51.941 25.8519 51.9073 27.9582 51.8736 30.0683C51.8361 32.6205 51.7949 35.1728 51.8399 37.7251C51.9073 41.7016 52.2371 45.8617 54.3472 49.2311C46.7278 51.6559 38.6249 51.9857 30.6345 52.2968C29.0989 52.4063 27.5564 52.3674 26.0283 52.1806C24.7042 51.9168 23.3945 51.5853 22.1043 51.1874C19.5535 50.5125 16.9249 50.1761 14.2863 50.1868C13.1357 50.1868 11.9627 50.258 10.8533 49.9581C9.74392 49.6583 8.67577 48.89 8.37594 47.7806C8.10984 46.7837 8.49962 45.7231 9.00933 44.8273C9.9388 43.1933 11.2581 41.829 12.255 40.2175C13.2727 38.5152 13.8765 36.5977 14.0177 34.6194C14.159 32.6411 13.8338 30.6573 13.0683 28.8277C12.1838 26.7701 10.7596 24.9787 9.89009 22.9174C8.99949 20.7042 8.76266 18.2819 9.20777 15.9381C9.65287 13.5943 10.7612 11.4275 12.4011 9.69491C15.4257 6.59918 19.7657 5.39986 23.9183 4.76273C25.6668 4.55619 27.3349 3.91164 28.768 2.8888C30.3609 1.8394 32.4259 1.58454 34.2924 1.81691C36.4455 2.05818 38.4398 3.06665 39.9104 4.65779Z" fill="#3F3D56"/>
<g opacity="0.1">
<path opacity="0.1" d="M12.9538 26.6652C13.7179 28.4712 14.0454 30.4319 13.9095 32.3882C13.8255 30.9893 13.5023 29.6152 12.9538 28.3255C12.073 26.268 10.6488 24.4765 9.77933 22.4152C9.06854 20.6939 8.76953 18.8305 8.9061 16.9733C8.98339 18.275 9.27855 19.5546 9.77933 20.7586C10.6488 22.8199 12.073 24.6077 12.9538 26.6652Z" fill="black"/>
<path opacity="0.1" d="M51.7631 29.5585C51.7406 31.0276 51.7181 32.5005 51.7144 33.9697C51.7144 31.9459 51.7331 29.9258 51.7631 27.9057C51.7931 25.8106 51.8306 23.6893 52.3965 21.6692C52.7713 20.3875 53.3259 19.087 53.5208 17.7939C53.8544 19.6304 52.9062 21.4931 52.3965 23.3258C51.8306 25.3271 51.7931 27.4634 51.7631 29.5585Z" fill="black"/>
<path opacity="0.1" d="M10.7273 47.8143C11.8517 48.1179 13.006 48.0504 14.1566 48.0429C16.7932 48.0262 19.4205 48.3563 21.9709 49.0249C23.2613 49.421 24.571 49.7513 25.8949 50.0143C27.424 50.2042 28.9679 50.2444 30.5048 50.1342C38.2254 49.8307 46.0546 49.5046 53.4492 47.2971C53.6687 47.7872 53.9191 48.2629 54.1987 48.7213C46.5793 51.1424 38.4765 51.476 30.4898 51.7871C28.9529 51.8972 27.409 51.857 25.8799 51.6671C24.5607 51.4066 23.2559 51.0776 21.9709 50.6814C19.4258 50.0104 16.8037 49.6765 14.1716 49.6883C13.021 49.6883 11.8517 49.7595 10.7423 49.4559C9.63296 49.1523 8.56483 48.3915 8.265 47.2821C8.13866 46.7683 8.15162 46.2302 8.30249 45.723C8.63605 46.7724 9.6667 47.5032 10.7273 47.8143Z" fill="black"/>
</g>
<path d="M21.8277 43.3731C22.105 43.9952 23.2744 49.3696 23.5517 49.9206C23.829 50.4715 25.3432 59.2902 25.4818 59.7849C25.6205 60.2797 35.4624 57.7161 35.4624 57.7161L41.3877 52.7502L47.478 46.6899C47.478 46.6899 47.6579 41.2218 43.1717 39.4678C42.8668 39.3481 42.5537 39.2504 42.2348 39.1755C36.7929 37.8675 37.3401 21.3207 37.3401 21.3207L26.1714 26.1442C26.1714 26.1442 28.2403 35.7987 28.1691 37.6613C28.1503 38.2872 27.6593 38.677 27.0185 38.9131C26.0276 39.195 24.996 39.3066 23.9677 39.2429C23.9677 39.2429 21.5503 42.7547 21.8277 43.3731Z" fill="#FBBEBE"/>
<path d="M1.83307 61.5053L0.247707 61.9213C0.247707 61.9213 -0.925356 63.7053 1.83307 65.3656C3.5846 66.4295 5.26586 67.605 6.86644 68.8849L15.018 71.3659L16.5884 66.4375L9.00272 60.6808L1.83307 61.5053Z" fill="#EC4794"/>
<path opacity="0.1" d="M1.83307 61.5053L0.247707 61.9213C0.247707 61.9213 -0.925356 63.7053 1.83307 65.3656C3.5846 66.4295 5.26586 67.605 6.86644 68.8849L15.018 71.3659L16.5884 66.4375L9.00272 60.6808L1.83307 61.5053Z" fill="black"/>
<path d="M61.3225 66.265L64.4932 69.3682C64.4932 69.3682 58.7739 75.9869 54.374 76.3992C49.974 76.8115 47.1368 71.3658 47.1368 71.3658L50.9447 65.3693L61.3225 66.265Z" fill="#EC4794"/>
<path opacity="0.1" d="M61.3225 66.265L64.4932 69.3682C64.4932 69.3682 58.7739 75.9869 54.374 76.3992C49.974 76.8115 47.1368 71.3658 47.1368 71.3658L50.9447 65.3693L61.3225 66.265Z" fill="black"/>
<path opacity="0.1" d="M31.2044 32.1334C25.1128 32.1334 20.1745 27.1951 20.1745 21.1034C20.1745 15.0118 25.1128 10.0735 31.2044 10.0735C37.2961 10.0735 42.2344 15.0118 42.2344 21.1034C42.2344 27.1951 37.2961 32.1334 31.2044 32.1334Z" fill="black"/>
<path d="M31.2044 31.3051C25.1128 31.3051 20.1745 26.3669 20.1745 20.2752C20.1745 14.1835 25.1128 9.24524 31.2044 9.24524C37.2961 9.24524 42.2344 14.1835 42.2344 20.2752C42.2344 26.3669 37.2961 31.3051 31.2044 31.3051Z" fill="#FBBEBE"/>
<path opacity="0.1" d="M11.4164 112.873C13.9279 113.161 16.4017 113.715 18.7959 114.526C22.9185 115.898 55.2251 114.549 55.6748 114.526C55.6748 113.747 55.6748 113.286 55.6748 113.286L54.0932 109.358L35.3539 107.012H26.3891C26.3891 107.012 12.8968 110.183 11.5026 111.55C11.4464 112.375 11.4164 112.873 11.4164 112.873Z" fill="black"/>
<path opacity="0.1" d="M21.8277 43.3729C22.105 43.9951 23.2744 49.3695 23.5517 49.9204C23.829 50.4714 25.3432 59.2901 25.4818 59.7848C25.6205 60.2795 35.4624 57.716 35.4624 57.716L41.3877 52.7501L47.478 46.6898C47.478 46.6898 47.6579 41.2216 43.1717 39.4677L32.0331 52.2741L27.0185 38.913C26.0276 39.1949 24.996 39.3064 23.9677 39.2428C23.9677 39.2428 21.5503 42.7545 21.8277 43.3729Z" fill="black"/>
<path d="M32.0325 52.6866L43.4335 39.5691C44.1009 39.1431 44.8636 38.8896 45.6532 38.8314C46.4429 38.7732 47.2345 38.9121 47.9572 39.2356C50.5095 40.3412 53.6802 41.2369 54.5084 41.7879C55.3367 42.3388 58.4399 45.7494 58.4399 45.7494L49.1977 69.9268L53.2679 85.8514C53.2679 85.8514 52.6458 93.988 54.2311 96.9526C55.1964 98.8481 55.6486 100.963 55.5428 103.088C55.5428 103.088 55.0594 107.019 55.6103 109.084C55.9322 110.465 55.9565 111.899 55.6815 113.289C55.6815 113.289 22.929 114.669 18.7951 113.289C16.4016 112.476 13.9275 111.922 11.4156 111.637C11.4156 111.637 12.1652 97.8446 12.9147 94.5352C13.6643 91.2258 12.2926 78.6106 12.2926 78.6106L13.1883 65.0958L7.81388 51.2287C7.81388 51.2287 10.726 42.3388 13.7617 41.4431C13.7617 41.4431 19.2748 40.1313 20.4479 39.5129C21.621 38.8945 25.069 38.3398 25.069 38.3398L26.8792 38.947L32.0325 52.6866Z" fill="#EC4794"/>
<path opacity="0.1" d="M16.1256 64.6393L40.1165 63.008C40.7236 62.9667 41.2493 63.4254 41.2906 64.0326L43.8662 101.911C43.9075 102.518 43.4488 103.044 42.8416 103.085L18.8508 104.716C18.2436 104.758 17.718 104.299 17.6767 103.692L15.1011 65.8134C15.0598 65.2062 15.5185 64.6806 16.1256 64.6393Z" fill="black"/>
<path d="M15.3 63.8167L39.2908 62.1853C39.8979 62.1441 40.4236 62.6028 40.4649 63.2099L43.0405 101.088C43.0818 101.695 42.6231 102.221 42.016 102.262L18.0251 103.894C17.418 103.935 16.8923 103.476 16.851 102.869L14.2754 64.9908C14.2341 64.3836 14.6928 63.858 15.3 63.8167Z" fill="#3F3D56"/>
<path d="M16.0915 66.7857L38.9082 65.2343L41.253 99.7174L18.4362 101.269L16.0915 66.7857Z" fill="white"/>
<path opacity="0.1" d="M18.1373 75.5875L36.7754 74.2828L37.139 79.4774L18.5009 80.782L18.1373 75.5875Z" fill="black"/>
<path opacity="0.1" d="M18.8123 96.2302L21.77 96.0291L21.9541 98.7362L18.9964 98.9374L18.8123 96.2302Z" fill="black"/>
<path opacity="0.1" d="M21.7295 89.6966L36.8696 88.6671L37.0537 91.3743L21.9136 92.4038L21.7295 89.6966Z" fill="black"/>
<path d="M18.9156 65.4966L34.6802 64.4247L34.9632 68.5864L19.1986 69.6584L18.9156 65.4966Z" fill="#3F3D56"/>
<path opacity="0.1" d="M18.9156 65.4966L34.6802 64.4247L34.9632 68.5864L19.1986 69.6584L18.9156 65.4966Z" fill="black"/>
<path opacity="0.1" d="M30.6541 112.112C30.6541 112.112 30.7927 132.523 36.1709 144.243C36.1709 144.243 29.6871 128.798 29.6871 128.179C29.6871 127.561 26.1041 121.077 27.0636 119.147C28.023 117.217 30.6541 112.112 30.6541 112.112Z" fill="black"/>
<path opacity="0.1" d="M30.3612 17.5166C30.5672 15.71 30.1249 13.889 29.1131 12.3783C29.2334 13.8925 28.8052 15.3996 27.9066 16.6243C27.008 17.849 25.699 18.7098 24.2184 19.0495C24.3448 18.9398 24.4349 18.7945 24.4771 18.6326C24.5192 18.4707 24.5114 18.2998 24.4545 18.1425C23.6862 19.012 23.0978 20.0427 22.2283 20.8072C21.3588 21.5718 20.0545 22.029 19.0314 21.4856C17.6409 20.736 17.6259 18.7609 17.9857 17.2243C18.7578 13.9518 20.342 10.9266 22.5918 8.42804C23.1532 7.67277 23.8818 7.05776 24.7206 6.6312C25.5594 6.20465 26.4856 5.97815 27.4266 5.96945C29.5554 5.80454 31.7666 5.99193 33.6743 6.94763C34.7478 7.53343 35.7533 8.23604 36.6725 9.04268L41.9195 13.3227C42.4244 13.6865 42.8566 14.1416 43.1938 14.6645C43.419 15.1016 43.5541 15.5796 43.5911 16.0699C43.7251 17.4717 43.4658 18.883 42.8421 20.1455C42.2185 21.408 41.2553 22.4717 40.0606 23.2171C40.0859 22.1092 39.7812 21.0188 39.1852 20.0845C38.5893 19.1503 37.729 18.4143 36.7138 17.9701C36.5548 18.1031 36.426 18.2685 36.3362 18.4553C36.2463 18.6421 36.1974 18.846 36.1928 19.0532L35.0872 17.0818C34.9228 16.7231 34.6636 16.416 34.3376 16.1936C33.6555 15.8188 32.8047 16.2611 32.2238 16.7895C31.6429 17.318 31.077 17.9776 30.2974 18.06L30.2675 15.1255" fill="black"/>
<path d="M30.3611 17.1044C30.5678 15.2967 30.1254 13.4743 29.1131 11.9624C29.4504 14.9606 27.1905 18.0564 24.2147 18.6336C24.3411 18.5248 24.4315 18.3801 24.4736 18.2188C24.5158 18.0574 24.5078 17.887 24.4508 17.7303C23.6825 18.5998 23.094 19.6267 22.2245 20.395C21.355 21.1633 20.0508 21.6168 19.0276 21.0697C17.6372 20.3201 17.6222 18.345 17.982 16.8121C18.7541 13.5396 20.3382 10.5145 22.5881 8.01587C23.2862 7.1649 24.166 6.48105 25.1629 6.01451C25.8845 5.74759 26.643 5.59337 27.4116 5.55727C29.5404 5.39237 31.7516 5.57601 33.6593 6.53172C34.7321 7.12013 35.7375 7.8239 36.6575 8.63052L41.9045 12.9106C42.4102 13.2733 42.8426 13.7286 43.1788 14.2523C43.4045 14.6893 43.5396 15.1673 43.5761 15.6578C43.7098 17.0589 43.4503 18.4697 42.8267 19.7315C42.203 20.9934 41.24 22.0564 40.0456 22.8012C40.0699 21.6935 39.7648 20.6035 39.169 19.6694C38.5731 18.7353 37.7134 17.9992 36.6988 17.5542C36.5403 17.6876 36.4119 17.8532 36.3221 18.0399C36.2323 18.2266 36.1832 18.4302 36.1778 18.6373L35.0759 16.6734C34.9125 16.3141 34.6531 16.0067 34.3264 15.7852C33.6443 15.4104 32.7935 15.8526 32.2126 16.3811C31.6317 16.9095 31.0657 17.5654 30.2862 17.6516L30.2562 14.7133" fill="#3F3D56"/>
<path d="M25.1367 86.6757C26.0999 86.1885 42.0282 88.6733 42.0282 88.6733C42.0282 88.6733 44.6517 87.9238 50.9931 86.8818C57.3345 85.8399 57.7393 79.641 57.7393 79.641L58.4326 67.2318L56.2926 65.3579L47.1253 71.3545C47.1253 71.3545 46.9829 74.3865 47.1253 74.9337C47.2153 75.3085 47.4551 75.7545 47.4327 76.058C47.4257 76.1402 47.3918 76.2179 47.3362 76.2789C47.2807 76.3398 47.2065 76.3808 47.1253 76.3954C46.5032 76.5528 38.0255 77.9245 38.0255 77.9245C38.0255 77.9245 18.3755 76.579 13.4771 83.1977C13.0889 83.6835 12.7953 84.2378 12.6113 84.8318C11.397 89.3554 24.2634 87.1067 25.1367 86.6757Z" fill="#FBBEBE"/>
<path opacity="0.1" d="M12.6002 84.8582C13.3498 85.1918 13.8145 85.4316 13.8145 85.4316C13.8145 85.4316 20.8455 85.2255 24.7957 83.7938C28.746 82.3621 33.547 82.617 33.547 82.617C33.547 82.617 50.0076 79.7836 47.4553 76.0845C47.4483 76.1667 47.4144 76.2443 47.3589 76.3053C47.3033 76.3663 47.2292 76.4072 47.1479 76.4218C46.5258 76.5792 38.0482 77.9509 38.0482 77.9509C38.0482 77.9509 18.3981 76.6054 13.4997 83.2241C13.0996 83.7073 12.7944 84.2617 12.6002 84.8582Z" fill="black"/>
<path d="M5.76469 63.0231C5.76469 63.0231 4.79774 69.8479 4.73028 70.4026C4.66282 70.9573 4.31427 77.6397 4.73028 78.4005C5.14629 79.1613 5.76469 80.3981 5.76469 80.3981C5.76469 80.3981 5.07509 81.8448 7.83352 82.3995C10.5919 82.9542 13.8301 84.6032 13.8301 84.6032C13.8301 84.6032 20.8648 84.3971 24.7926 82.9504C28.7203 81.5038 33.5476 81.7774 33.5476 81.7774C33.5476 81.7774 54.4419 78.1907 45.477 73.8132C36.5121 69.4357 30.1707 75.3648 30.1707 75.3648L20.1752 74.7464C20.1752 74.7464 16.4498 72.4677 15.4154 72.6776C14.685 72.7706 13.9432 72.6508 13.2791 72.3328L13.2079 65.0919L5.76469 63.0231Z" fill="#FBBEBE"/>
<path opacity="0.1" d="M56.4502 46.2701L58.4516 46.1652L64.5156 69.7767C64.5156 69.7767 57.9681 68.1201 55.146 69.7767C52.3238 71.4332 47.1481 71.7743 47.1481 71.7743L49.0782 52.9525L56.4502 46.2701Z" fill="black"/>
<path d="M56.4502 45.8541L58.4516 45.7491L64.5156 69.3606C64.5156 69.3606 57.9681 67.7041 55.146 69.3606C52.3238 71.0172 47.1481 71.3583 47.1481 71.3583L49.0782 52.5365L56.4502 45.8541Z" fill="#EC4794"/>
<path opacity="0.1" d="M10.5873 51.0261L7.8326 51.6483C7.8326 51.6483 0.79785 61.7675 0.246915 62.3334C-0.304021 62.8993 2.87043 64.9569 4.17844 64.9569C5.48644 64.9569 11.899 65.7065 13.7617 67.438C15.6244 69.1695 14.8486 60.4557 14.8486 60.2571C14.8486 60.0585 12.5362 54.5603 12.5362 54.5603L10.5873 51.0261Z" fill="black"/>
<path d="M10.5873 50.6139L7.8326 51.2323C7.8326 51.2323 0.79785 61.3702 0.246915 61.9212C-0.304021 62.4721 2.87043 64.5447 4.17844 64.5447C5.48644 64.5447 11.899 65.2943 13.7617 67.0258C15.6244 68.7573 14.8486 60.0435 14.8486 59.8449C14.8486 59.6462 12.5211 54.1294 12.5211 54.1294L10.5873 50.6139Z" fill="#EC4794"/>
<g opacity="0.1">
<path opacity="0.1" d="M29.131 11.996C29.1472 11.7087 29.141 11.4204 29.1123 11.134C29.6829 11.9903 30.0755 12.9526 30.2666 13.9637V14.8332C30.2666 14.8332 30.2666 14.8144 30.2666 14.8032V15.0093C30.2666 15.6165 30.2666 16.2274 30.2854 16.8345H30.3378V17.1156C30.3378 17.0182 30.3378 16.9245 30.3566 16.827C31.1061 16.7071 31.6421 16.0775 32.2005 15.5752C32.7589 15.073 33.6322 14.5933 34.3143 14.9793C34.6411 15.2009 34.9004 15.5082 35.0639 15.8676L36.177 17.8315C36.1819 17.6248 36.2309 17.4216 36.3208 17.2354C36.4106 17.0493 36.5392 16.8845 36.6979 16.7521C37.7132 17.1962 38.5735 17.9322 39.1694 18.8665C39.7654 19.8008 40.0701 20.8912 40.0448 21.9991C41.0688 21.3575 41.9254 20.4814 42.5438 19.4432C43.1623 18.4051 43.5248 17.2347 43.6015 16.0287C43.6666 17.3753 43.3714 18.7149 42.7462 19.9093C42.121 21.1037 41.1884 22.1098 40.0448 22.8236C40.0691 21.7159 39.7639 20.626 39.1681 19.6919C38.5723 18.7578 37.7126 18.0216 36.6979 17.5766C36.5395 17.7101 36.4111 17.8756 36.3213 18.0623C36.2315 18.249 36.1823 18.4526 36.177 18.6597L35.0751 16.6959C34.9117 16.3365 34.6523 16.0292 34.3256 15.8076C33.6434 15.4328 32.7927 15.8751 32.2118 16.4035C31.6308 16.932 31.0649 17.5878 30.2854 17.674C30.2854 16.7146 30.2754 15.7576 30.2554 14.8032C30.0715 13.8019 29.6892 12.8474 29.131 11.996Z" fill="black"/>
<path opacity="0.1" d="M30.3979 15.7701C30.3792 15.5152 30.3492 15.2604 30.3117 15.0205L30.2705 13.9861C30.3832 14.5736 30.4259 15.1725 30.3979 15.7701Z" fill="black"/>
<path opacity="0.1" d="M19.0266 20.2414C20.0498 20.7886 21.354 20.3314 22.2235 19.5668C23.093 18.8023 23.6814 17.7716 24.4497 16.9021C24.5066 17.0594 24.5145 17.2303 24.4723 17.3922C24.4302 17.5541 24.34 17.6994 24.2136 17.8091C24.2886 17.8091 24.3598 17.7716 24.431 17.7529C23.6814 18.6149 23.0855 19.6268 22.2235 20.3764C21.3615 21.1259 20.0498 21.5982 19.0266 21.051C18.0034 20.5038 17.7111 19.222 17.801 17.974C17.8685 18.9559 18.2208 19.8067 19.0266 20.2414Z" fill="black"/>
<path opacity="0.1" d="M24.4541 17.7453C25.7075 17.4038 26.8264 16.6873 27.6611 15.6919C28.4957 14.6964 29.0061 13.4697 29.124 12.176C29.3376 15.1181 27.1189 18.0677 24.2143 18.6336C24.338 18.5261 24.4269 18.3842 24.4696 18.226C24.5123 18.0678 24.5069 17.9005 24.4541 17.7453Z" fill="black"/>
</g>
<path opacity="0.1" d="M84.2146 39.7296H73.5557V50.3885H84.2146V39.7296Z" fill="#EC4794"/>
<path opacity="0.1" d="M84.2146 66.0209H73.5557V76.6798H84.2146V66.0209Z" fill="#EC4794"/>
<path opacity="0.1" d="M84.2146 92.3083H73.5557V102.967H84.2146V92.3083Z" fill="#EC4794"/>
<path opacity="0.1" d="M84.2146 118.6H73.5557V129.259H84.2146V118.6Z" fill="#EC4794"/>
<path d="M122.001 82.4739C122.001 82.4739 120.524 82.2678 120.524 80.1203C120.524 77.9727 119.467 73.9513 119.467 73.9513C119.467 73.9513 118.553 66.954 117.29 65.8447C116.027 64.7353 114.404 58.2215 114.404 58.2215C114.404 58.2215 114.127 54.6873 113.561 53.9265C112.995 53.1657 112.23 51.303 111.102 48.6458C109.974 45.9885 105.282 44.1671 105.282 44.1671C105.282 44.1671 96.7779 39.2349 94.368 37.627C94.1476 37.4938 93.9416 37.3381 93.7534 37.1623C93.3336 36.6151 91.5046 36.6039 91.5046 36.6039C91.3135 35.3933 91.1299 34.0066 91.0699 32.7511C91.0699 32.6162 91.0699 32.4812 91.0699 32.3463C93.7571 30.7579 95.7811 28.2535 96.7704 25.2929C96.8153 25.1504 96.8528 25.0043 96.8941 24.8581C97.0585 24.8074 97.2104 24.7223 97.3396 24.6086C97.4688 24.4949 97.5724 24.3551 97.6436 24.1985C97.8573 23.715 97.8648 23.1528 98.1346 22.6993C98.4494 22.1671 99.0491 21.8823 99.5213 21.485C100.713 20.4694 101.02 18.7641 100.964 17.2162C100.927 15.9569 100.724 14.6902 100.803 13.4421C100.803 13.3372 100.803 13.2322 100.826 13.1273C100.848 12.9437 100.874 12.7525 100.908 12.5726C101.092 11.6432 101.493 10.7662 101.718 9.84419C101.942 8.92222 101.965 7.88406 101.44 7.08952C100.672 5.92393 99.0716 5.69157 97.6661 5.59037C96.0733 5.45545 94.6678 5.62785 93.6297 4.30486C93.1535 3.61387 92.6167 2.96668 92.0256 2.37097C91.8157 2.17608 89.7769 0.928041 89.7769 0.849336C87.782 -0.0781625 85.5189 -0.252564 83.4055 0.358356C82.3449 0.66568 81.3517 1.1679 80.2761 1.41901C77.9674 1.96619 75.3064 1.37403 73.3425 2.69703C72.2482 3.4466 71.5923 4.64216 70.9776 5.80025C70.4779 6.75471 69.9707 7.71041 69.456 8.66736C68.624 10.2377 67.7845 11.8343 67.4359 13.5733C67.363 13.9531 67.3167 14.3376 67.2972 14.7239C67.2972 14.8626 67.2972 15.0012 67.2972 15.1399C67.2972 15.1999 67.2972 15.2598 67.2972 15.3198C67.2972 15.4472 67.2972 15.5747 67.3197 15.6946C67.3422 15.8145 67.3197 15.8483 67.346 15.927C67.3722 16.0057 67.3797 16.1818 67.4022 16.3017C67.4247 16.4217 67.4696 16.6353 67.5146 16.7965C67.5146 16.8677 67.5596 16.9351 67.5821 17.0063C67.6045 17.0776 67.6645 17.2574 67.7132 17.3811C67.762 17.5048 67.7657 17.5123 67.7957 17.576C67.8519 17.7072 67.9194 17.8346 67.9868 17.9508C68.0168 17.9995 68.0393 18.0482 68.0693 18.097C68.1721 18.2724 68.2873 18.4402 68.4141 18.5992C69.2124 19.5999 70.3967 20.237 71.27 21.174C71.27 21.2114 71.27 21.2489 71.27 21.2864C71.27 21.3876 71.27 21.4888 71.27 21.5937C71.3234 23.6835 71.8867 25.7287 72.911 27.5511C73.9352 29.3735 75.3892 30.918 77.1466 32.0502C77.1466 32.1927 77.1653 32.3388 77.1728 32.485C77.2459 33.5962 77.2321 34.7115 77.1316 35.8206C76.9787 35.6413 76.7875 35.4984 76.5723 35.4024C76.357 35.3064 76.123 35.2598 75.8873 35.2659C75.7263 35.2579 75.5649 35.2718 75.4076 35.3071L75.3739 35.2809V35.3146C74.5493 35.517 73.5337 36.3753 72.563 38.8151C72.563 38.8151 69.6097 42.1432 67.3609 42.0046C65.1122 41.8659 59.4192 45.4713 59.4192 45.4713C59.4192 45.4713 53.8649 49.073 52.6731 52.7459C52.0068 54.8291 51.2069 56.8672 50.2782 58.8474L43.3934 72.9843L42.1304 84.2279C42.1304 84.2279 42.8312 89.2163 42.6925 89.9809C42.5539 90.7454 45.5747 97.604 45.5747 97.604C45.5747 97.604 55.5552 115.136 59.6329 116.036L59.9252 115.834C60.1004 115.922 60.2853 115.99 60.4761 116.036L61.3157 115.448C61.3676 116.106 61.345 116.769 61.2482 117.423C60.6898 119.158 61.4618 130.454 62.4438 132.669C63.4257 134.884 63.0772 163.93 63.0772 163.93L62.9385 166.49C62.9385 166.49 62.9385 166.572 62.9722 166.714L62.9385 167.322L63.0397 167.374C63.1447 168.189 63.1105 169.015 62.9385 169.818C62.5862 170.942 62.4438 174.117 62.4438 174.117C62.4438 174.117 59.6329 192.061 60.9671 195.667C62.3013 199.272 63.4295 203.222 63.4295 203.222C63.4295 203.222 64.8349 207.72 63.4969 208.469C62.1589 209.219 58.3698 210.549 59.1419 212.42C59.854 214.151 62.5562 218.791 62.9572 219.469L62.9235 219.844L62.3726 225.814C62.4618 226.603 62.6756 227.372 63.0059 228.093C63.6093 229.397 64.7787 230.743 67.0124 230.597C67.3872 230.57 67.8182 230.529 68.2417 230.473C72.3231 229.922 77.3452 228.101 77.3452 228.101C77.0849 227.936 76.8468 227.738 76.6369 227.512C76.4363 227.318 76.2773 227.085 76.1697 226.827C76.0621 226.569 76.0081 226.292 76.011 226.013C76.071 224.922 74.0359 219.747 73.5262 218.469L73.41 218.184C73.41 218.184 78.0498 213.33 77.2778 209.035C77.2778 209.035 72.1432 206.037 73.8335 204.388C75.5238 202.739 78.5445 198.017 78.5445 198.017C78.5445 198.017 78.6832 180.345 78.5445 177.711C78.4 175.878 78.4869 174.035 78.8031 172.224C78.8594 171.954 78.9268 171.688 78.998 171.422C81.3377 171.775 83.7003 171.954 86.0665 171.958C86.931 171.958 87.8055 171.94 88.69 171.905C88.69 172.155 88.7012 172.425 88.7237 172.715C88.9186 177.092 89.2822 184.772 89.5782 187.624C89.998 191.709 92.3179 202.731 92.3179 202.731C92.3179 202.731 87.8917 205.569 93.09 212.573C93.09 212.573 93.09 215.107 92.7452 215.478C92.3768 216.68 92.0802 217.902 91.8569 219.14C91.6396 220.455 91.5496 221.793 91.9019 222.483C92.7452 224.139 97.8048 224.004 97.8048 224.004C97.8455 223.995 97.8868 223.989 97.9285 223.986C98.8835 223.885 99.849 223.975 100.769 224.252C101.688 224.529 102.543 224.986 103.284 225.597C105.207 227.141 112.5 226.467 116.454 225.972C118.002 225.773 119.036 225.597 119.036 225.597C119.086 225.422 119.104 225.239 119.089 225.057C119.048 224.087 118.287 221.958 113.13 220.058C113.13 220.058 108.28 216.797 108.348 213.956H108.239H107.68C108.033 213.945 108.28 213.945 108.28 213.945C108.28 213.945 106.38 207.015 107.156 206.449C107.932 205.883 105.608 198.204 105.608 198.204C105.608 198.204 104.277 185.311 104.202 184.412C104.207 183.637 104.326 182.866 104.555 182.126L104.202 175.053C104.202 175.053 104.135 172.704 104.202 171.939C104.195 171.275 104.142 170.613 104.045 169.956C104.011 169.694 103.978 169.42 103.94 169.151C105.758 168.69 106.938 168.266 106.938 168.266L106.728 143.661C108.273 140.663 108.557 134.082 108.55 129.42C108.55 126.421 108.415 124.203 108.415 124.203L110.525 120.758C110.525 120.758 111.012 116.636 110.24 115.732C109.899 115.324 110.053 114.9 110.334 114.552C110.482 114.431 110.638 114.32 110.802 114.222C110.784 114.196 110.768 114.168 110.754 114.14C110.901 114.016 111.058 113.905 111.222 113.806C111.222 113.806 110.473 112.644 111.143 112.153C111.773 112.58 112.335 112.922 112.762 113.165C112.733 113.439 112.703 113.596 112.703 113.596L112.882 113.221C113.295 113.454 113.546 113.596 113.546 113.596C113.546 113.596 116.851 107.011 116.78 106.044C116.709 105.077 119.029 100.985 119.029 100.985C119.029 100.985 119.31 98.8333 120.577 97.9338C121.844 97.0344 121.559 90.5168 121.559 90.5168C121.559 90.5168 121.911 87.1213 122.754 85.7383C123.598 84.3553 122.001 82.4739 122.001 82.4739ZM58.7521 79.5843L58.8158 81.1547C58.4411 80.5513 58.1712 80.1203 58.1712 80.1203L58.7521 79.5843Z" fill="url(#paint1_linear)"/>
<path d="M113.739 110.748L112.93 114.196C112.93 114.196 106.446 110.879 105.28 106.681C104.115 102.484 107.233 100.883 107.233 100.883L113.278 103.439L113.739 110.748Z" fill="white"/>
<path opacity="0.1" d="M113.739 110.748L112.93 114.196C112.93 114.196 106.446 110.879 105.28 106.681C104.115 102.484 107.233 100.883 107.233 100.883L113.278 103.439L113.739 110.748Z" fill="black"/>
<path d="M86.2496 50.4897C81.3025 48.567 74.9386 42.2144 76.5277 39.2461C76.8789 38.4964 77.0886 37.6883 77.1461 36.8625C77.2484 35.741 77.2634 34.6132 77.1911 33.4894C77.0795 31.6476 76.858 29.8141 76.5277 27.9988C76.5277 27.9988 91.9726 28.3473 91.0731 30.6223C90.8108 31.2931 90.7658 32.4512 90.8408 33.7443C90.9157 35.0373 91.0994 36.5102 91.2943 37.7507C91.5604 39.4485 91.834 40.749 91.834 40.749C91.834 40.749 90.8857 42.072 90.3348 42.1432C89.7839 42.2144 93.3481 53.2443 86.2496 50.4897Z" fill="#CF6F80"/>
<path opacity="0.1" d="M91.0738 30.6336C90.8114 31.3045 90.7664 32.4626 90.8414 33.7556C88.7726 35.0014 86.3943 35.6383 83.9798 35.5932C81.5653 35.5481 79.2125 34.8229 77.1917 33.5007C77.0801 31.659 76.8586 29.8255 76.5283 28.0101C76.5283 28.0101 91.9732 28.3587 91.0738 30.6336Z" fill="black"/>
<path d="M97.0354 22.3584C97.0762 25.7588 95.7644 29.0362 93.3888 31.4695C91.0131 33.9028 87.7681 35.2927 84.3677 35.3335C80.9672 35.3742 77.6898 34.0625 75.2565 31.6868C72.8232 29.3111 71.4333 26.0662 71.3926 22.6657C71.3926 22.5608 71.3926 22.4633 71.3926 22.3584C71.3926 18.9569 72.7438 15.6948 75.149 13.2896C77.5542 10.8844 80.8163 9.5332 84.2177 9.5332C87.6192 9.5332 90.8813 10.8844 93.2865 13.2896C95.6917 15.6948 97.0429 18.9569 97.0429 22.3584H97.0354Z" fill="#CF6F80"/>
<path opacity="0.1" d="M86.2496 50.4899C81.3025 48.5672 74.9386 42.2146 76.5277 39.2463C76.8789 38.4966 77.0886 37.6885 77.1461 36.8627L83.9185 42.432L88.1086 45.8688L91.2943 37.7622C91.5604 39.4599 91.834 40.7604 91.834 40.7604C91.834 40.7604 90.8857 42.0834 90.3348 42.1546C89.7839 42.2259 93.3481 53.2446 86.2496 50.4899Z" fill="black"/>
<path d="M103.764 75.1019L98.1085 170.11L90.7327 170.594L71.6299 115.504L74.7631 50.1L75.4265 36.2816L83.9191 43.2564L88.1092 46.6932L91.3886 38.3467L97.4863 43.6611L103.764 75.1019Z" fill="#EC4794"/>
<path opacity="0.1" d="M93.0752 171.699C77.709 174.323 63.6358 166.801 63.6358 166.801L63.7707 164.252C63.7707 164.252 64.1193 135.36 63.1523 133.145C62.1854 130.93 61.4321 119.713 61.9792 118C62.5264 116.287 59.9816 90.4269 59.9816 90.4269L59.5694 79.9329L44.4692 73.7976L51.2154 59.7319C52.1264 57.7603 52.91 55.7323 53.5615 53.6604C54.7346 50.0062 60.1802 46.4195 60.1802 46.4195C60.1802 46.4195 65.7646 42.8366 67.9721 42.9715C70.1795 43.1064 73.0729 39.8008 73.0729 39.8008C75.2092 34.3552 77.1431 36.8025 77.1431 36.8025C77.1431 37.0649 77.1431 36.8025 77.0381 37.6083C76.2886 43.5861 89.1587 62.4753 89.3423 62.8127L90.5829 92.6681L91.8234 130.45L93.0752 171.699Z" fill="black"/>
<path d="M92.6621 171.699C77.2959 174.323 63.219 166.801 63.219 166.801L63.3576 164.252C63.3576 164.252 63.7024 135.36 62.7355 133.145C61.7685 130.93 61.0152 119.701 61.5662 117.974C62.1171 116.246 59.5573 90.4119 59.5573 90.4119L59.1413 79.9179L44.0449 73.7826L50.7911 59.7169C51.6999 57.7457 52.4835 55.7191 53.1372 53.6491C54.3103 50.0062 59.7747 46.4158 59.7747 46.4158C59.7747 46.4158 65.359 42.8328 67.5627 42.9677C69.7665 43.1027 72.6748 39.8008 72.6748 39.8008C74.8148 34.3552 77.1722 36.8025 77.1722 36.8025C77.1722 37.0649 76.9474 37.1773 77.0673 37.6083C78.7163 43.4062 88.7756 62.4753 88.9593 62.8127L90.1998 92.6681L91.4141 130.469L92.6621 171.699Z" fill="white"/>
<path opacity="0.1" d="M88.5209 63.6558C86.8681 62.9662 78.1131 52.9707 78.1131 52.9707V50.6957C77.7945 49.9462 75.8981 50.4034 74.3652 50.9281L75.0249 37.1097L75.7744 37.7319C77.4122 43.5261 88.341 63.3222 88.5209 63.6558Z" fill="black"/>
<path d="M88.9372 62.8315C87.2807 62.1381 78.5257 52.1463 78.5257 52.1463V49.8676C78.2071 49.118 76.3145 49.5753 74.7778 50.1L75.4262 36.2966L76.1758 36.915C77.8286 42.7017 88.7536 62.4941 88.9372 62.8315Z" fill="white"/>
<path opacity="0.1" d="M63.6353 112.678C63.8414 112.678 74.3204 111.576 74.3204 111.576C74.3204 111.576 80.6655 124.056 80.2495 127.088C79.8335 130.12 79.0802 132.811 76.5279 132.335C73.9756 131.859 62.792 132.71 62.792 132.71L63.6353 112.678Z" fill="black"/>
<path d="M63.2192 111.85C63.4291 111.85 73.9081 110.748 73.9081 110.748C73.9081 110.748 80.2495 123.247 79.8372 126.245C79.425 129.243 78.6642 131.968 76.1156 131.492C73.5671 131.016 62.376 131.867 62.376 131.867L63.2192 111.85Z" fill="white"/>
<path d="M71.1157 106.007C71.1157 106.007 80.7327 111.179 80.9389 112.753C81.145 114.327 76.0442 112.063 74.9423 111.786C74.2166 111.614 73.4785 111.498 72.7348 111.441L65.3853 111.64L71.1157 106.007Z" fill="#CF6F80"/>
<path opacity="0.1" d="M85.8337 64.3007C86.3925 64.3007 86.8456 63.8476 86.8456 63.2888C86.8456 62.7299 86.3925 62.2769 85.8337 62.2769C85.2748 62.2769 84.8218 62.7299 84.8218 63.2888C84.8218 63.8476 85.2748 64.3007 85.8337 64.3007Z" fill="black"/>
<path d="M85.8337 63.8883C86.3925 63.8883 86.8456 63.4353 86.8456 62.8764C86.8456 62.3175 86.3925 61.8645 85.8337 61.8645C85.2748 61.8645 84.8218 62.3175 84.8218 62.8764C84.8218 63.4353 85.2748 63.8883 85.8337 63.8883Z" fill="#3F3D56"/>
<path opacity="0.1" d="M87.6965 108.105C88.2554 108.105 88.7084 107.652 88.7084 107.094C88.7084 106.535 88.2554 106.082 87.6965 106.082C87.1376 106.082 86.6846 106.535 86.6846 107.094C86.6846 107.652 87.1376 108.105 87.6965 108.105Z" fill="black"/>
<path d="M87.6965 107.689C88.2554 107.689 88.7084 107.236 88.7084 106.677C88.7084 106.119 88.2554 105.666 87.6965 105.666C87.1376 105.666 86.6846 106.119 86.6846 106.677C86.6846 107.236 87.1376 107.689 87.6965 107.689Z" fill="#3F3D56"/>
<path opacity="0.1" d="M86.8454 86.203C87.4043 86.203 87.8573 85.75 87.8573 85.1911C87.8573 84.6322 87.4043 84.1792 86.8454 84.1792C86.2866 84.1792 85.8335 84.6322 85.8335 85.1911C85.8335 85.75 86.2866 86.203 86.8454 86.203Z" fill="black"/>
<path d="M86.8454 85.7908C87.4043 85.7908 87.8573 85.3378 87.8573 84.7789C87.8573 84.22 87.4043 83.767 86.8454 83.767C86.2866 83.767 85.8335 84.22 85.8335 84.7789C85.8335 85.3378 86.2866 85.7908 86.8454 85.7908Z" fill="#3F3D56"/>
<path d="M110.173 111.231C110.173 111.231 110.862 112.266 110.173 112.731C109.483 113.195 110.24 114.387 110.24 114.387C110.24 114.387 108.52 115.391 109.277 116.302C110.034 117.213 109.554 121.302 109.554 121.302L107.486 124.746C107.486 124.746 107.609 126.954 107.617 129.937C107.617 134.592 107.343 141.136 105.829 144.119L106.032 168.596C106.032 168.596 98.7869 171.246 92.7229 170.436L91.8234 131.159C91.8234 131.159 93.1351 108.885 93.6186 104.613C93.9016 102.395 94.0168 100.158 93.9634 97.9227C93.9634 97.9227 93.7573 91.2365 93.0639 88.1371C93.0639 88.1371 92.3143 74.6898 92.2394 70.9681C92.2057 69.1879 92.2994 63.9934 92.4043 59.0537C92.5205 53.653 92.6516 48.5597 92.6516 48.5597L91.2837 37.7321C91.2837 37.7321 92.6517 37.5972 93.0639 38.1444C93.2486 38.3169 93.4494 38.4713 93.6636 38.6054C96.0285 40.202 104.371 45.1117 104.371 45.1117C104.371 45.1117 108.989 46.9481 110.094 49.5791C111.2 52.2101 111.968 54.0765 112.504 54.8261C113.04 55.5757 113.332 59.0987 113.332 59.0987C113.332 59.0987 114.921 65.5825 116.162 66.6806C117.403 67.7787 118.294 74.7497 118.294 74.7497L107.332 83.3698C107.332 83.3698 106.369 97.7091 106.163 98.2638C105.957 98.8185 110.173 111.231 110.173 111.231Z" fill="white"/>
<path d="M110.588 111.231C110.588 111.231 111.274 112.266 110.588 112.73C109.902 113.195 110.652 114.387 110.652 114.387C110.652 114.387 108.931 115.391 109.688 116.302C110.446 117.213 109.966 121.302 109.966 121.302L107.904 124.746C107.904 124.746 108.028 126.953 108.039 129.937C108.039 134.592 107.766 141.135 106.252 144.119L106.458 168.596C106.458 168.596 99.2132 171.246 93.1492 170.436L92.2534 131.159C92.2534 131.159 93.5614 108.885 94.0487 104.613C94.3319 102.394 94.4459 100.158 94.3897 97.9226C94.3897 97.9226 94.1836 91.2364 93.494 88.1369C93.494 88.1369 92.7444 74.6896 92.6657 70.968C92.632 69.1878 92.7257 63.9932 92.8306 59.0535C92.9468 53.6529 93.078 48.5595 93.078 48.5595L91.2715 37.5858C91.2715 37.5858 93.0779 37.5858 93.494 38.1442C93.6769 38.3188 93.8779 38.4733 94.0936 38.6052C96.4548 40.2018 104.798 45.1115 104.798 45.1115C104.798 45.1115 109.404 46.948 110.528 49.579C111.652 52.21 112.402 54.0764 112.938 54.826C113.474 55.5755 113.766 59.0985 113.766 59.0985C113.766 59.0985 115.355 65.5823 116.596 66.6804C117.836 67.7786 118.732 74.7496 118.732 74.7496L107.77 83.3696C107.77 83.3696 106.806 97.709 106.596 98.2636C106.387 98.8183 110.588 111.231 110.588 111.231Z" fill="white"/>
<path opacity="0.1" d="M97.4589 51.7415L98.4521 54.6274L93.2388 59.8744C93.355 54.4737 93.4862 49.3804 93.4862 49.3804L91.6797 38.4104C91.6797 38.4104 93.4862 38.4104 93.9022 38.9688C94.0851 39.1434 94.2861 39.2979 94.5018 39.4298L98.9318 52.2063L97.4589 51.7415Z" fill="black"/>
<path d="M97.0355 50.9132L98.0287 53.7953L92.8192 59.0423C92.9316 53.6416 93.0665 48.5483 93.0665 48.5483L91.2563 37.5746C91.2563 37.5746 93.0666 37.5746 93.4788 38.133C93.6627 38.3065 93.8636 38.461 94.0785 38.594L98.5347 51.3817L97.0355 50.9132Z" fill="white"/>
<path opacity="0.1" d="M97.0354 22.3584C97.0369 23.7088 96.8244 25.0509 96.4058 26.3349C96.3352 26.3466 96.263 26.3441 96.1935 26.3273C96.1239 26.3106 96.0585 26.28 96.001 26.2374C95.8998 22.8643 94.2432 19.6936 92.2007 16.9989C91.6262 16.1862 90.9311 15.4658 90.1393 14.8627C89.3379 14.2611 88.3413 13.9793 87.3435 14.0719C86.2191 14.2255 85.2259 14.9901 84.0903 15.0875C82.5912 15.2112 81.2494 14.173 79.7615 14.1243C79.1565 14.1293 78.5596 14.2637 78.0108 14.5184C77.462 14.7731 76.974 15.1422 76.5796 15.601C75.7972 16.5238 75.2164 17.5999 74.8743 18.7604C74.2851 20.5213 73.9641 22.3609 73.9224 24.2173C73.9036 25.2667 73.8024 26.5822 72.828 26.9645C72.9017 26.1933 72.8142 25.4151 72.571 24.6796C72.3277 23.944 71.9341 23.2671 71.4151 22.6919L71.3926 22.6657C71.3926 22.5608 71.3926 22.4633 71.3926 22.3584C71.3926 18.9569 72.7438 15.6948 75.149 13.2896C77.5542 10.8844 80.8163 9.5332 84.2177 9.5332C87.6192 9.5332 90.8813 10.8844 93.2865 13.2896C95.6917 15.6948 97.0429 18.9569 97.0429 22.3584H97.0354Z" fill="black"/>
<path d="M89.5404 1.99623C87.5929 1.08012 85.3778 0.90685 83.3115 1.50901C82.2733 1.81633 81.2951 2.3148 80.242 2.5659C77.9933 3.10934 75.3697 2.52094 73.4396 3.83643C72.3677 4.586 71.7231 5.77032 71.1234 6.92466L69.6243 9.77678C68.8072 11.3396 67.9827 12.9287 67.6417 14.649C67.3006 16.3693 67.5067 18.2957 68.5974 19.6824C69.3882 20.6868 70.565 21.3202 71.427 22.2684C71.9449 22.8465 72.3374 23.5255 72.58 24.2628C72.8225 25.0001 72.9097 25.7796 72.8362 26.5522C73.8106 26.1774 73.9081 24.8544 73.9306 23.805C73.9727 21.9486 74.2936 20.1091 74.8825 18.3481C75.2246 17.1876 75.8054 16.1115 76.5878 15.1887C76.982 14.7294 77.4699 14.3597 78.0187 14.1044C78.5675 13.8491 79.1645 13.714 79.7697 13.7083C81.2689 13.7608 82.6144 14.7989 84.0985 14.6715C85.2229 14.5778 86.2198 13.8132 87.3516 13.6596C88.3496 13.5651 89.3469 13.8472 90.1475 14.4504C90.9399 15.0516 91.634 15.7723 92.2051 16.5866C94.2514 19.2851 95.9118 22.4408 96.0092 25.8251C96.4327 26.1324 97.0436 25.7277 97.2535 25.2479C97.4634 24.7682 97.4709 24.206 97.737 23.7488C98.0443 23.2203 98.6327 22.9355 99.0937 22.5382C100.263 21.5301 100.555 19.8323 100.51 18.2919C100.465 16.7515 100.166 15.1887 100.458 13.6746C100.634 12.7488 101.031 11.8756 101.249 10.9574C101.466 10.0391 101.492 9.00847 100.979 8.21767C100.229 7.05958 98.6514 6.82721 97.276 6.71853C95.7131 6.5836 94.3152 6.75601 93.3182 5.44052C92.8491 4.75492 92.3225 4.11045 91.7441 3.51411C91.538 3.31548 89.5404 2.07869 89.5404 1.99623Z" fill="#512E4E"/>
<path opacity="0.1" d="M48.7939 81.0311L44.8812 73.7939L43.6406 84.9626C43.6406 84.9626 44.3302 89.9247 44.1915 90.6855C44.0529 91.4464 47.0174 98.2674 47.0174 98.2674C47.0174 98.2674 56.8106 115.714 60.8096 116.609L74.3018 106.955L70.7189 102.405C70.7189 102.405 69.4783 101.922 69.1673 102.405C69.1673 102.405 62.5111 90.9591 61.8252 90.1346C61.1394 89.3101 61.2705 87.6498 61.2705 87.6498C61.2705 87.6498 60.2361 86.5479 60.5809 85.5135C60.9257 84.4791 58.6021 80.8961 58.6021 80.8961L60.7383 78.8985L48.7939 81.0311Z" fill="black"/>
<path d="M45.087 72.9656L44.0526 73.7938L42.812 84.9625C42.812 84.9625 43.5016 89.9246 43.3629 90.6854C43.2243 91.4463 46.1926 98.2674 46.1926 98.2674C46.1926 98.2674 55.982 115.714 59.9809 116.609L73.4957 106.955L69.909 102.405C69.909 102.405 68.6685 101.922 68.3574 102.405C68.3574 102.405 61.705 90.959 61.0154 90.1345C60.3258 89.31 60.4644 87.6497 60.4644 87.6497C60.4644 87.6497 59.43 86.5478 59.7748 85.5134C60.1196 84.479 57.7735 80.896 57.7735 80.896L59.9097 78.8984L45.087 72.9656Z" fill="white"/>
<path opacity="0.1" d="M109.277 116.733C110.026 117.644 109.554 121.737 109.554 121.737L107.485 125.158C107.485 125.158 107.609 127.37 107.617 130.353L104.139 131.44C103.824 131.538 103.49 131.559 103.165 131.502C102.84 131.445 102.534 131.311 102.271 131.112C102.009 130.912 101.798 130.653 101.656 130.355C101.514 130.058 101.445 129.731 101.455 129.401L102.059 110.062L110.173 113.161C109.483 113.641 110.24 114.818 110.24 114.818C110.24 114.818 108.52 115.822 109.277 116.733Z" fill="black"/>
<path d="M109.689 116.321C110.438 117.228 109.966 121.32 109.966 121.32L107.905 124.746C107.905 124.746 108.028 126.953 108.04 129.937L104.498 131.042C104.19 131.139 103.864 131.16 103.547 131.105C103.229 131.05 102.93 130.919 102.673 130.724C102.416 130.529 102.21 130.276 102.071 129.985C101.932 129.694 101.865 129.374 101.875 129.052L102.478 109.646L110.588 112.753C109.895 113.233 110.652 114.409 110.652 114.409C110.652 114.409 108.932 115.41 109.689 116.321Z" fill="white"/>
<path d="M112.38 107.094C112.38 107.094 111.829 110.613 110.45 110.819C109.071 111.025 108.452 116.512 107.077 116.321C105.701 116.13 106.612 111.216 106.661 110.264C106.709 109.312 105.162 105.37 106.316 104.474C107.47 103.578 111.143 104.474 111.143 104.474L112.38 107.094Z" fill="#CF6F80"/>
<path opacity="0.1" d="M115.295 79.9966L117.893 74.7496C117.893 74.7496 118.931 78.7486 118.931 80.8849C118.931 83.0212 120.378 83.231 120.378 83.231C120.378 83.231 121.963 85.105 121.127 86.4729C120.291 87.8409 119.958 91.229 119.958 91.229C119.958 91.229 120.231 97.709 118.991 98.6047C117.75 99.5005 117.473 101.64 117.473 101.64C117.473 101.64 115.198 105.707 115.269 106.674C115.34 107.641 112.099 114.188 112.099 114.188C112.099 114.188 113.684 106.052 104.445 102.536C104.445 102.536 104.374 99.7778 105.064 99.0208C105.753 98.2637 106.829 97.8964 106.154 94.0886C105.48 90.2808 105.96 85.6896 105.96 84.7714C105.96 83.8532 108.028 78.1302 108.028 78.1302L115.295 79.9966Z" fill="black"/>
<path d="M116.45 74L118.721 74.7496C118.721 74.7496 119.759 78.7485 119.759 80.8848C119.759 83.0211 121.206 83.231 121.206 83.231C121.206 83.231 122.791 85.1049 121.956 86.4729C121.12 87.8408 120.783 91.2289 120.783 91.2289C120.783 91.2289 121.06 97.7089 119.819 98.6047C118.579 99.5004 118.32 101.64 118.32 101.64C118.32 101.64 116.045 105.707 116.116 106.674C116.188 107.641 112.942 114.188 112.942 114.188C112.942 114.188 114.527 106.052 105.289 102.536C105.289 102.536 105.221 99.7778 105.911 99.0207C106.601 98.2636 107.676 97.8963 107.002 94.0885C106.327 90.2807 106.807 85.6896 106.807 84.7713C106.807 83.8531 108.876 78.1301 108.876 78.1301L116.45 74Z" fill="white"/>
<g opacity="0.1">
<path opacity="0.1" d="M99.0952 21.7136C98.6342 22.1146 98.042 22.3957 97.7347 22.9242C97.4724 23.3776 97.4649 23.9398 97.255 24.4233C97.0451 24.9068 96.4342 25.3078 96.007 25.0005C95.9095 21.6274 94.2492 18.4605 92.2066 15.762C91.6355 14.9488 90.9413 14.2293 90.1491 13.6295C89.3474 13.025 88.349 12.7417 87.3494 12.8349C86.2251 12.9886 85.2356 13.7531 84.1 13.8506C82.6009 13.9743 81.2554 12.9361 79.7675 12.8874C79.163 12.892 78.5665 13.0262 78.0182 13.2809C77.4699 13.5356 76.9827 13.905 76.5893 14.3641C75.8069 15.2868 75.2261 16.363 74.8841 17.5235C74.2951 19.2845 73.9742 21.124 73.9321 22.9804C73.9096 24.026 73.8122 25.3303 72.8452 25.7201C72.8677 25.9982 72.8677 26.2777 72.8452 26.5558C73.8234 26.181 73.9208 24.858 73.9433 23.8086C73.9854 21.9523 74.3063 20.1128 74.8953 18.3518C75.2373 17.1913 75.8182 16.1151 76.6006 15.1923C76.9942 14.7333 77.4814 14.3638 78.0296 14.1085C78.5777 13.8531 79.1741 13.7179 79.7788 13.7119C81.2779 13.7644 82.6271 14.8025 84.1113 14.6751C85.2356 14.5814 86.2326 13.8169 87.3607 13.6632C88.3598 13.5689 89.3582 13.8509 90.1603 14.454C90.9527 15.0552 91.6468 15.7759 92.2179 16.5903C94.2605 19.2887 95.9208 22.4444 96.0182 25.8287C96.4455 26.1361 97.0564 25.7313 97.2662 25.2516C97.4761 24.7718 97.4836 24.2097 97.746 23.7524C98.0533 23.224 98.6455 22.9391 99.1065 22.5419C100.276 21.5337 100.568 19.8359 100.523 18.2955C100.523 18.2468 100.523 18.2019 100.523 18.1531C100.448 19.4949 100.092 20.8553 99.0952 21.7136Z" fill="black"/>
<path opacity="0.1" d="M71.4245 21.4513C70.5662 20.5031 69.3894 19.866 68.5986 18.8615C67.9307 17.9749 67.5501 16.9051 67.508 15.7958C67.3904 17.1828 67.7776 18.5656 68.5986 19.6898C69.3894 20.6942 70.5662 21.3276 71.4245 22.2758C72.2535 23.2028 72.7517 24.3785 72.8412 25.6189C72.8975 24.8647 72.8011 24.1068 72.5577 23.3907C72.3142 22.6746 71.9288 22.015 71.4245 21.4513Z" fill="black"/>
<path opacity="0.1" d="M101.25 10.1328C101.029 11.051 100.635 11.9242 100.455 12.85C100.347 13.4759 100.309 14.1119 100.339 14.7464C100.352 14.3879 100.39 14.0309 100.455 13.6782C100.635 12.7525 101.029 11.8793 101.25 10.961C101.377 10.4543 101.419 9.92991 101.374 9.40942C101.35 9.65314 101.308 9.89485 101.25 10.1328Z" fill="black"/>
</g>
<defs>
<linearGradient id="paint0_linear" x1="32.6594" y1="217.637" x2="32.6594" y2="1.1423" gradientUnits="userSpaceOnUse">
<stop stop-color="#808080" stop-opacity="0.25"/>
<stop offset="0.54" stop-color="#808080" stop-opacity="0.12"/>
<stop offset="1" stop-color="#808080" stop-opacity="0.1"/>
</linearGradient>
<linearGradient id="paint1_linear" x1="71073.3" y1="202799" x2="71073.3" y2="60896.6" gradientUnits="userSpaceOnUse">
<stop stop-color="#808080" stop-opacity="0.25"/>
<stop offset="0.54" stop-color="#808080" stop-opacity="0.12"/>
<stop offset="1" stop-color="#808080" stop-opacity="0.1"/>
</linearGradient>
</defs>
</svg>
