<svg width="120" height="122" viewBox="0 0 120 122" fill="none" xmlns="http://www.w3.org/2000/svg">
<path d="M77.831 51.5643L40.6661 51.9264C38.9192 43.3265 33.0499 20.7616 38.3357 14.6068C38.5766 12.2903 39.7017 10.156 41.4767 8.64813C43.2517 7.14028 45.5398 6.3751 47.8648 6.51186C53.6251 -2.505 63.2198 -1.15117 69.7046 4.48025C76.2309 6.73218 78.6914 10.7329 77.831 16.162C82.6643 20.3927 83.5559 25.5399 81.3863 31.3991L77.831 51.5643Z" fill="#2F2E41"/>
<path d="M74.2518 74.4589L47.4384 70.7463L42.0757 62.9085C49.4629 58.0084 52.077 51.1643 48.6759 41.8703L67.2391 41.4578C66.3693 49.7342 69.1063 56.1424 76.7269 60.0209L74.2518 74.4589Z" fill="#FFB9B9"/>
<path d="M58.9894 48.4704C69.2416 48.4704 77.5526 40.1594 77.5526 29.9073C77.5526 19.6551 69.2416 11.3441 58.9894 11.3441C48.7373 11.3441 40.4263 19.6551 40.4263 29.9073C40.4263 40.1594 48.7373 48.4704 58.9894 48.4704Z" fill="#FFB9B9"/>
<path d="M95.7032 177.175L20.6255 178C31.7674 135.584 38.4323 96.1832 26.8132 69.0962L45.3764 60.0208C54.3271 69.3567 64.2953 68.3942 75.0774 59.1958L92.8156 63.7335C89.7775 99.2539 91.1392 137.297 95.7032 177.175Z" fill="#EC4794"/>
<path d="M0 133.448L46.6142 152.012L57.0359 155.077C57.5021 155.214 57.9912 155.255 58.4737 155.199C58.9563 155.142 59.4225 154.988 59.8442 154.747C60.2659 154.506 60.6344 154.181 60.9277 153.794C61.2209 153.407 61.4329 152.964 61.5507 152.492C61.7574 151.666 61.6646 150.793 61.2889 150.028C60.9132 149.264 60.2788 148.657 59.4982 148.315L48.6767 144.999L16.0881 126.023L22.8946 108.079L8.6628 100.447L0 133.448Z" fill="#FFB9B9"/>
<path d="M0.412598 99.6223C9.28141 103.082 16.3354 108.987 21.8634 116.948L39.189 91.7845L26.8136 69.0962L0.412598 99.6223Z" fill="#EC4794"/>
<path d="M79.9117 26.8988C72.3775 24.9576 64.97 24.6911 57.7692 27.1534C53.1823 29.3749 47.6739 29.1702 41.5479 27.3398V8.81934L74.6201 9.70126L79.9117 26.8988Z" fill="#2F2E41"/>
<path d="M116.857 130.017L76.2262 146.195L73.1609 147.416C73.0632 147.454 72.9656 147.486 72.8625 147.519L62.5923 150.541C61.2794 150.926 59.4619 149.157 58.3985 147.937C57.872 147.348 57.5737 146.591 57.5578 145.801C57.5419 145.012 57.8093 144.243 58.3117 143.634C58.4536 143.471 58.6097 143.32 58.7783 143.184C59.1741 142.876 59.6401 142.671 60.1346 142.587L70.394 140.569C70.762 140.497 71.1157 140.365 71.4411 140.178L76.2263 137.39L101.069 122.926C101.76 122.524 102.286 121.89 102.553 121.137C102.82 120.384 102.812 119.56 102.528 118.813L97.7866 106.308C97.4958 105.543 97.4935 104.698 97.78 103.931C98.0666 103.164 98.6224 102.528 99.3437 102.141L107.2 97.931C107.649 97.69 108.146 97.554 108.655 97.5333C109.164 97.5126 109.671 97.6077 110.138 97.8114C110.605 98.0151 111.02 98.3221 111.351 98.7094C111.682 99.0966 111.921 99.5539 112.05 100.047L118.87 126.024C119.079 126.82 118.99 127.666 118.62 128.401C118.249 129.137 117.622 129.711 116.857 130.017Z" fill="#FFB9B9"/>
<path d="M119.217 95.0846C110.348 98.5446 103.294 104.45 97.7661 112.41L80.4404 87.2469L92.8159 63.7335L119.217 95.0846Z" fill="#EC4794"/>
<path d="M71.3438 46.4295C63.223 49.8074 54.7078 49.6702 45.8446 46.4295C48.4236 42.0273 44.5685 38.5796 42.5894 34.1357L75.6841 33.1522C73.1532 37.0127 69.4189 41.5738 71.3438 46.4295Z" fill="white"/>
<path d="M75.3338 33.8868L74.9497 33.5032L75.4922 32.9607L78.7334 29.1781L79.1457 29.5307L75.8905 33.3285L75.3338 33.8868Z" fill="white"/>
<path d="M40.3211 31.5875L39.9736 32.0045L43.2288 34.7172L43.5763 34.3002L40.3211 31.5875Z" fill="white"/>
<path d="M76.2683 37.0764L70.5703 46.0273L71.0281 46.3187L76.726 37.3678L76.2683 37.0764Z" fill="white"/>
<path d="M40.9197 37.0756L40.4619 37.3669L46.1585 46.3188L46.6164 46.0274L40.9197 37.0756Z" fill="white"/>
</svg>
