<svg width="71" height="69" viewBox="0 0 71 69" fill="none" xmlns="http://www.w3.org/2000/svg">
<path d="M47.394 1.84694C47.218 1.44068 46.9232 1.0935 46.5463 0.848365C46.1694 0.603234 45.7267 0.470914 45.2732 0.467773H2.94168C2.33318 0.468088 1.7497 0.703178 1.31943 1.12139C0.889156 1.5396 0.647296 2.10672 0.646973 2.69816V54.7505C0.647296 55.342 0.889156 55.9091 1.31943 56.3273C1.7497 56.7455 2.33318 56.9806 2.94168 56.9809H45.2747C45.8831 56.9802 46.4663 56.7449 46.8964 56.3268C47.3266 55.9087 47.5686 55.3418 47.5694 54.7505V2.69816C47.5705 2.40599 47.5113 2.11656 47.3955 1.84694H47.394ZM47.0583 54.7505C47.0578 55.2105 46.8695 55.6516 46.5349 55.9768C46.2002 56.3021 45.7465 56.4851 45.2732 56.4856H2.94168C2.46831 56.4856 2.01436 56.3028 1.67961 55.9775C1.34486 55.6521 1.15672 55.2109 1.15656 54.7509V2.69846C1.15721 2.23848 1.34549 1.79752 1.68012 1.47227C2.01476 1.14701 2.46843 0.964008 2.94168 0.96338H45.2747C45.6312 0.964695 45.9793 1.06923 46.2744 1.26363C46.5695 1.45803 46.7983 1.73349 46.9317 2.05486C46.9576 2.11889 46.9801 2.18423 46.9988 2.2506C47.0393 2.39663 47.0599 2.54722 47.0599 2.69846L47.0583 54.7505Z" fill="#3F3D56"/>
<path d="M38.5595 12.757H25.8087C25.5381 12.757 25.2787 12.6525 25.0874 12.4666C24.8961 12.2806 24.7886 12.0284 24.7886 11.7654C24.7886 11.5025 24.8961 11.2503 25.0874 11.0643C25.2787 10.8784 25.5381 10.7739 25.8087 10.7739H38.5595C38.8301 10.7739 39.0896 10.8784 39.2809 11.0643C39.4722 11.2503 39.5797 11.5025 39.5797 11.7654C39.5797 12.0284 39.4722 12.2806 39.2809 12.4666C39.0896 12.6525 38.8301 12.757 38.5595 12.757Z" fill="#3F3D56"/>
<path d="M38.5595 17.9625H25.8087C25.5381 17.9625 25.2787 17.8581 25.0874 17.6721C24.8961 17.4862 24.7886 17.234 24.7886 16.971C24.7886 16.708 24.8961 16.4559 25.0874 16.2699C25.2787 16.084 25.5381 15.9795 25.8087 15.9795H38.5595C38.8301 15.9795 39.0896 16.084 39.2809 16.2699C39.4722 16.4559 39.5797 16.708 39.5797 16.971C39.5797 17.234 39.4722 17.4862 39.2809 17.6721C39.0896 17.8581 38.8301 17.9625 38.5595 17.9625Z" fill="#3F3D56"/>
<path d="M19.2667 20.9264H9.94844C9.64416 20.9261 9.35243 20.8085 9.13727 20.5993C8.92212 20.3902 8.8011 20.1067 8.80078 19.8109V9.12281C8.8011 8.82706 8.92212 8.54351 9.13727 8.33439C9.35243 8.12526 9.64416 8.00764 9.94844 8.00732H19.2667C19.571 8.00764 19.8627 8.12526 20.0779 8.33439C20.293 8.54351 20.414 8.82706 20.4144 9.12281V19.8109C20.414 20.1067 20.293 20.3902 20.0779 20.5993C19.8627 20.8085 19.571 20.9261 19.2667 20.9264Z" fill="#EC4794"/>
<path d="M38.4713 28.6207H9.65439C9.38384 28.6207 9.12437 28.5163 8.93306 28.3303C8.74176 28.1444 8.63428 27.8922 8.63428 27.6292C8.63428 27.3663 8.74176 27.1141 8.93306 26.9281C9.12437 26.7422 9.38384 26.6377 9.65439 26.6377H38.4713C38.6052 26.6377 38.7379 26.6633 38.8616 26.7132C38.9854 26.763 39.0979 26.836 39.1926 26.9281C39.2873 27.0202 39.3625 27.1295 39.4137 27.2498C39.465 27.3701 39.4914 27.499 39.4914 27.6292C39.4914 27.7594 39.465 27.8884 39.4137 28.0086C39.3625 28.1289 39.2873 28.2382 39.1926 28.3303C39.0979 28.4224 38.9854 28.4954 38.8616 28.5452C38.7379 28.5951 38.6052 28.6207 38.4713 28.6207Z" fill="#CCCCCC"/>
<path d="M38.4713 33.8263H9.65439C9.38384 33.8263 9.12437 33.7218 8.93306 33.5359C8.74176 33.3499 8.63428 33.0977 8.63428 32.8348C8.63428 32.5718 8.74176 32.3196 8.93306 32.1337C9.12437 31.9477 9.38384 31.8433 9.65439 31.8433H38.4713C38.7418 31.8433 39.0013 31.9477 39.1926 32.1337C39.3839 32.3196 39.4914 32.5718 39.4914 32.8348C39.4914 33.0977 39.3839 33.3499 39.1926 33.5359C39.0013 33.7218 38.7418 33.8263 38.4713 33.8263Z" fill="#CCCCCC"/>
<path d="M38.4713 39.0314H9.65439C9.38384 39.0314 9.12437 38.9269 8.93306 38.741C8.74176 38.555 8.63428 38.3028 8.63428 38.0399C8.63428 37.7769 8.74176 37.5247 8.93306 37.3387C9.12437 37.1528 9.38384 37.0483 9.65439 37.0483H38.4713C38.7418 37.0483 39.0013 37.1528 39.1926 37.3387C39.3839 37.5247 39.4914 37.7769 39.4914 38.0399C39.4914 38.3028 39.3839 38.555 39.1926 38.741C39.0013 38.9269 38.7418 39.0314 38.4713 39.0314Z" fill="#CCCCCC"/>
<path d="M38.4713 44.2364H9.65439C9.38384 44.2364 9.12437 44.132 8.93306 43.946C8.74176 43.7601 8.63428 43.5079 8.63428 43.2449C8.63428 42.982 8.74176 42.7298 8.93306 42.5438C9.12437 42.3579 9.38384 42.2534 9.65439 42.2534H38.4713C38.7418 42.2534 39.0013 42.3579 39.1926 42.5438C39.3839 42.7298 39.4914 42.982 39.4914 43.2449C39.4914 43.5079 39.3839 43.7601 39.1926 43.946C39.0013 44.132 38.7418 44.2364 38.4713 44.2364Z" fill="#CCCCCC"/>
<path d="M38.4713 49.442H9.65439C9.38384 49.442 9.12437 49.3376 8.93306 49.1516C8.74176 48.9657 8.63428 48.7135 8.63428 48.4505C8.63428 48.1875 8.74176 47.9353 8.93306 47.7494C9.12437 47.5634 9.38384 47.459 9.65439 47.459H38.4713C38.7418 47.459 39.0013 47.5634 39.1926 47.7494C39.3839 47.9353 39.4914 48.1875 39.4914 48.4505C39.4914 48.7135 39.3839 48.9657 39.1926 49.1516C39.0013 49.3376 38.7418 49.442 38.4713 49.442Z" fill="#CCCCCC"/>
<path opacity="0.1" d="M57.4688 30.0156H54.0566V33.4278H57.4688V30.0156Z" fill="#EC4794"/>
<path opacity="0.1" d="M57.4688 38.4321H54.0566V41.8443H57.4688V38.4321Z" fill="#EC4794"/>
<path opacity="0.1" d="M57.4688 46.8472H54.0566V50.2593H57.4688V46.8472Z" fill="#EC4794"/>
<path opacity="0.1" d="M57.4688 55.2637H54.0566V58.6758H57.4688V55.2637Z" fill="#EC4794"/>
<path d="M67.8873 44.4277C67.8873 44.4277 65.9065 34.5727 66.6648 33.3465C66.6648 33.3465 66.6923 32.2067 66.6468 30.7538C66.6468 30.6986 66.6468 30.6434 66.6468 30.587C66.7802 30.676 66.9192 30.7561 67.0631 30.827C67.7617 31.1859 68.5638 31.2894 69.3307 31.1197L68.7308 30.4514C68.5868 30.2919 68.4368 30.1191 68.4056 29.9079C68.3744 29.6968 68.4608 29.5084 68.5352 29.32C69.1051 27.8803 69.1351 26.0698 68.0373 24.9708C67.1099 24.047 66.8843 22.8544 65.8777 22.011C65.1422 21.3931 64.7379 20.4873 64.3564 19.6114C64.0336 18.8712 63.7085 18.1249 63.5237 17.3402C63.3798 16.7272 63.3222 16.0925 63.1242 15.4938C62.9262 14.8951 62.5555 14.3132 61.976 14.0457C61.7697 13.9509 61.5405 13.8969 61.3521 13.7709C61.105 13.6041 60.9562 13.333 60.7774 13.0954C59.8692 11.8957 56.8278 12.6023 55.388 13.0894C54.9966 13.2121 54.6342 13.4129 54.3226 13.6797L54.3358 13.6581C54.3466 13.6401 54.3598 13.6221 54.3718 13.6041C54.2142 13.7316 54.0781 13.8835 53.9687 14.0541C53.7587 14.3864 53.6711 14.7739 53.496 15.1339C53.2848 15.5598 52.1102 16.7488 52.6153 17.2275C52.6507 17.2596 52.6913 17.2856 52.7353 17.3043C52.9249 17.3832 53.1337 17.4041 53.3352 17.3642L53.3136 17.4158C53.1411 17.8382 53.0527 18.2902 53.0533 18.7464C53.0533 20.7176 54.679 22.3157 56.6862 22.3157C57.0635 22.3161 57.4387 22.2582 57.7984 22.1442C57.8068 22.1898 57.814 22.2354 57.8224 22.2809C57.8224 22.2989 57.8284 22.3169 57.8308 22.3349L57.7672 22.4237C57.764 22.4182 57.7604 22.413 57.7564 22.4081L55.8727 25.0404C55.5848 25.2432 53.9267 26.443 53.8331 27.3428C53.7347 28.3278 53.6363 29.4808 53.6363 29.4808L53.6232 29.728C53.5408 29.7968 53.4446 29.8469 53.341 29.8748C53.2374 29.9028 53.129 29.9079 53.0233 29.8899C52.4354 29.794 52.4354 32.0495 52.4354 32.0495C52.4354 32.0495 52.0442 32.4095 51.7755 32.0975C51.5067 31.7856 50.7965 32.8426 50.7965 32.8426L46.3453 33.0346L46.2433 33.0406L46.0034 32.2979C45.9775 32.2196 45.9218 32.1546 45.8484 32.1171C45.7749 32.0796 45.6896 32.0725 45.611 32.0975C45.5924 32.1037 45.5744 32.1113 45.557 32.1203L45.5402 32.1299L45.509 32.1515L45.4934 32.1659C45.4848 32.1737 45.4768 32.1822 45.4694 32.1911L45.4551 32.2079L45.4479 32.2151C45.4201 32.2534 45.4018 32.2977 45.3943 32.3444C45.3868 32.391 45.3904 32.4388 45.4047 32.4839L45.611 33.1209C44.752 33.2937 43.8737 33.7808 44.59 35.1222L40.9595 34.4515L42.1341 35.4377L48.1977 36.6891C48.1174 36.8331 48.1701 37.0418 48.4209 37.3358C49.5007 38.6039 51.4683 38.9483 52.2602 39.0371C52.4693 39.5049 52.7305 39.9476 53.0389 40.3568L52.9705 41.6202C52.9705 41.6202 50.9656 51.2496 50.5985 51.7379C50.7838 51.5279 50.9535 51.3046 51.106 51.0697C50.5241 53.0481 49.7107 55.756 49.4971 56.1615C49.154 56.8094 48.836 59.4309 49.2272 59.5989C49.3471 59.6505 49.6903 59.6253 50.1798 59.5881V59.8052L50.1582 68.0345C50.1582 68.0345 50.2566 73.082 49.9866 73.5631C49.7167 74.0442 49.6447 75.0532 49.6447 75.0532C49.6447 75.0532 48.5649 77.0437 47.7094 77.8439C47.7036 77.8502 47.6972 77.8558 47.6902 77.8607L47.6638 77.6736C47.6638 77.6736 46.6356 78.9717 44.3609 78.8985C44.3609 78.8985 42.9919 79.7888 45.0219 79.8368C47.052 79.8848 49.6447 79.7648 49.6447 79.7648C49.6447 79.7648 51.4552 77.0053 52.9717 77.3652V79.4564H53.436V77.3316C53.6513 77.1899 53.8356 77.0059 53.9777 76.7908C54.1198 76.5757 54.2167 76.3339 54.2626 76.0803C54.3024 75.8188 54.2733 75.5514 54.1782 75.3047C54.0831 75.0579 53.9253 74.8401 53.7203 74.6729C53.6283 74.5897 53.5544 74.4883 53.5034 74.3752C53.4524 74.262 53.4254 74.1395 53.424 74.0154L53.4072 74.0298C53.4072 73.9878 53.3964 73.9446 53.3916 73.9003C53.2584 72.8205 53.0916 70.5925 53.6807 68.944C54.4882 66.6836 54.7329 63.5354 54.1451 61.6613C53.9554 61.0623 53.7995 60.453 53.6783 59.8364C53.6639 59.7585 53.6507 59.6841 53.6388 59.6145C54.0406 59.6688 54.4386 59.749 54.8301 59.8544C56.1919 60.23 59.1709 60.2996 61.7145 60.2792C61.7205 60.3487 61.7277 60.4219 61.7361 60.4951C61.7814 61.0038 61.8762 61.5069 62.0192 61.9972C62.3384 62.9571 62.4847 67.1887 62.4847 67.1887C62.4847 67.1887 62.8962 70.668 62.6719 72.0838C62.5519 72.8708 62.4319 73.6615 62.3635 74.4558V74.4714C62.3635 74.4714 61.6893 76.391 61.1962 77.4336C61.1842 77.46 61.171 77.4864 61.159 77.5116C61.0275 77.5236 60.8981 77.5522 60.7738 77.5968C60.7738 77.5968 60.1128 78.9165 59.4541 79.1349C58.7954 79.3533 59.0138 80.0719 60.5051 79.808C61.9964 79.544 64.2484 79.3281 64.2484 79.3281L64.3456 77.9819L64.8039 77.4084L64.6839 78.751L65.1722 78.655L65.1074 77.0221L65.8573 76.0839C65.8573 76.0839 66.7631 75.2776 65.417 73.6915V73.7263C65.4026 73.7035 65.3894 73.6795 65.3738 73.6567V73.6495C65.1506 73.304 64.9731 72.6597 65.2982 71.5163C65.8861 69.4503 66.228 67.575 66.228 67.575C66.228 67.575 67.5406 62.5515 65.9629 60.1748H66.0325C65.8708 59.8403 65.7565 59.485 65.6929 59.119C65.6849 59.0758 65.6777 59.0314 65.6713 58.9858C66.8387 58.9186 67.9845 58.7075 68.9191 58.2515C68.9155 58.2467 68.3528 46.3257 67.8873 44.4277ZM53.0665 36.1132V36.1372L52.8265 36.1492L53.0665 36.1132ZM52.2434 36.2272C52.204 36.2359 52.167 36.2536 52.1354 36.2788C52.0323 36.4247 51.9675 36.5943 51.9471 36.7719L51.5727 36.6879C51.5727 36.6879 51.31 36.6315 50.932 36.5679L50.7533 36.3879C51.2452 36.3472 51.7563 36.2872 52.2434 36.2272Z" fill="url(#paint0_linear)"/>
<path d="M53.7068 68.9663C53.1297 70.61 53.2929 72.8284 53.4225 73.9058C53.4704 74.3041 53.5148 74.5465 53.5148 74.5465C53.5148 74.5465 52.6522 76.5117 52.5802 76.5861C52.5082 76.6605 50.0415 78.1662 50.0415 78.1662L48.3174 79.1728C48.3174 79.1728 46.5681 78.4062 47.4068 78.1422C47.5781 78.0735 47.7324 77.9682 47.8591 77.8339C48.6989 77.036 49.7535 75.0528 49.7535 75.0528C49.7535 75.0528 49.8255 74.0462 50.0895 73.5675C50.3534 73.0887 50.2574 68.0581 50.2574 68.0581L50.2778 59.8576V58.7886L53.5592 58.8126C53.5799 59.1755 53.6272 59.5364 53.7008 59.8924C53.8186 60.5068 53.9712 61.1141 54.1579 61.7112C54.7362 63.5817 54.4963 66.7143 53.7068 68.9663Z" fill="#FFB0B1"/>
<path d="M65.0848 71.529C64.7656 72.6688 64.9396 73.3107 65.1579 73.6551V73.6623C65.438 74.0874 65.6328 74.5629 65.7314 75.0624L65.7506 75.1704L63.4998 78.4518L62.2785 78.9317C62.2785 78.9317 60.3144 78.261 60.6732 78.069C60.7632 78.0222 60.9035 77.7727 61.0643 77.4284C61.5442 76.3905 62.2065 74.4757 62.2065 74.4757V74.4601C62.2761 73.6694 62.3865 72.8812 62.5088 72.0965C62.7284 70.6844 62.3253 67.2182 62.3253 67.2182C62.3253 67.2182 62.1813 63.0034 61.8693 62.0448C61.7285 61.5574 61.6349 61.0576 61.5898 60.5523C61.525 59.9524 61.5106 59.4581 61.5106 59.4581C61.5106 59.4581 62.804 57.6584 65.1747 59.602C65.3643 59.7571 65.5311 59.938 65.6703 60.1395C67.308 62.4695 65.9894 67.6022 65.9894 67.6022C65.9894 67.6022 65.6594 69.469 65.0848 71.529Z" fill="#FFB0B1"/>
<path opacity="0.1" d="M53.5628 58.8106C53.5835 59.1735 53.6308 59.5344 53.7044 59.8904C52.3535 59.6924 51.0997 59.7908 50.2778 59.8556V58.7866L53.5628 58.8106Z" fill="black"/>
<path opacity="0.1" d="M65.8032 60.4385C65.8032 60.4385 63.8835 60.5321 61.5943 60.5513C61.5295 59.9514 61.5151 59.4571 61.5151 59.4571C61.5151 59.4571 62.8085 57.6574 65.1793 59.6011C65.3688 59.7561 65.5357 59.937 65.6748 60.1386C65.712 60.2408 65.7548 60.341 65.8032 60.4385Z" fill="black"/>
<path d="M65.803 60.2224C65.803 60.2224 57.3949 60.6291 54.8322 59.9104C52.2694 59.1918 49.7295 59.8145 49.3468 59.6477C48.964 59.4809 49.2748 56.869 49.6107 56.2223C49.9467 55.5756 51.7895 49.0356 51.7895 49.0356L53.5628 39.7901L55.4309 39.2754L55.5628 39.2382L58.8178 38.3408L61.203 37.6821C61.203 37.6821 65.9457 56.1983 65.539 57.5637C65.3913 58.0865 65.3675 58.6365 65.4694 59.1702C65.5316 59.5346 65.6438 59.8887 65.803 60.2224Z" fill="#1D2366"/>
<path d="M47.3819 33.4678C47.3819 33.4678 45.7022 35.2674 46.974 36.2705C48.2457 37.2735 49.082 36.3664 49.082 36.3664L47.3819 33.4678Z" fill="#C7DAF5"/>
<path opacity="0.1" d="M47.3819 33.4678C47.3819 33.4678 45.7022 35.2674 46.974 36.2705C48.2457 37.2735 49.082 36.3664 49.082 36.3664L47.3819 33.4678Z" fill="black"/>
<path d="M60.9527 21.6354C60.9527 21.6354 60.756 21.8226 60.4596 22.0985C60.0373 22.4932 59.4122 23.0703 58.8579 23.5538C58.09 24.2221 57.4566 24.7128 57.6833 24.2941C57.9101 23.8754 57.8669 23.1459 57.7541 22.4632C57.7457 22.4177 57.7385 22.3721 57.7301 22.3277C57.6367 21.8263 57.5129 21.3311 57.3594 20.8447C57.3594 20.8447 58.5999 19.2418 59.2862 18.6096C59.5418 18.3696 59.7205 18.2712 59.7313 18.438C59.7433 18.6623 59.9113 19.1579 60.1201 19.6834C60.1261 19.7002 60.1321 19.7158 60.1393 19.7325C60.2784 20.0925 60.4356 20.462 60.5736 20.7812C60.7848 21.2707 60.9527 21.6354 60.9527 21.6354Z" fill="#FFB0B1"/>
<path opacity="0.1" d="M60.1393 19.7321C60.0227 20.3592 59.7398 20.9434 59.3203 21.4238C58.9007 21.9041 58.3598 22.263 57.7541 22.4628C57.6587 21.9151 57.5268 21.3744 57.3594 20.8443C57.3594 20.8443 59.6953 17.8269 59.7313 18.4376C59.7397 18.6691 59.9221 19.1826 60.1393 19.7321Z" fill="black"/>
<path opacity="0.1" d="M57.5213 23.2692L57.8236 22.8433C57.8236 22.8433 58.024 24.0646 58.7606 23.5259C59.4973 22.9872 59.5333 27.58 59.5333 27.58L58.7426 39.4014L53.0293 39.0595L53.1913 33.3473L53.8379 30.4679L55.4373 26.2818L56.3887 24.8985L57.5213 23.2692Z" fill="black"/>
<path d="M59.5336 27.6534L58.8137 38.3422L58.7382 39.4748L55.5527 39.284L55.4328 39.2768L53.0332 39.1329L53.1952 33.4195L53.8419 30.54L55.4412 26.354L56.3926 24.9707L57.5252 23.3354L57.8275 22.9106C57.8275 22.9106 58.0279 24.132 58.7646 23.5933L58.7802 23.5825C59.5 23.1266 59.5336 27.6534 59.5336 27.6534Z" fill="#1D2366"/>
<path d="M53.9219 29.5391C53.9219 29.5391 53.6352 30.139 53.0593 30.0418C52.4834 29.9446 52.4846 32.2014 52.4846 32.2014C52.4846 32.2014 52.1018 32.5613 51.8379 32.2494C51.5739 31.9374 50.8781 32.992 50.8781 32.992L46.5181 33.184C46.5181 33.184 48.4581 34.0706 48.0778 36.7533C48.0778 36.7533 54.6646 36.3454 54.8805 35.7227C55.0965 35.1 53.9219 29.5391 53.9219 29.5391Z" fill="white"/>
<path opacity="0.03" d="M53.9219 29.5391C53.9219 29.5391 53.6352 30.139 53.0593 30.0418C52.4834 29.9446 52.4846 32.2014 52.4846 32.2014C52.4846 32.2014 52.1018 32.5613 51.8379 32.2494C51.5739 31.9374 50.8781 32.992 50.8781 32.992L46.5181 33.184C46.5181 33.184 48.4581 34.0706 48.0778 36.7533C48.0778 36.7533 54.6646 36.3454 54.8805 35.7227C55.0965 35.1 53.9219 29.5391 53.9219 29.5391Z" fill="black"/>
<path d="M41.2505 34.5938L42.3999 35.5752L51.8613 37.5632L50.688 36.3658L41.2505 34.5938Z" fill="white"/>
<path d="M57.539 23.6472C57.3818 23.8871 56.9319 25.1157 56.5564 26.1883C56.2432 27.0822 55.9817 27.868 55.9817 27.868C55.9817 27.868 55.371 31.8441 55.059 32.5627C54.7471 33.2814 54.9163 36.0841 54.9163 36.0841L53.7537 43.0056C53.7537 43.0056 53.227 46.575 52.4135 48.707C51.6109 50.8054 50.717 51.7892 50.6895 51.8204C51.0494 51.3333 53.011 41.7423 53.011 41.7423L53.6589 29.6461C53.6589 29.6461 53.7537 28.4967 53.8497 27.5141C53.9457 26.5315 55.8893 25.1901 55.8893 25.1901L57.7634 22.5254C57.9517 22.7773 57.8257 23.2165 57.539 23.6472Z" fill="white"/>
<path d="M52.6522 39.1929C52.6522 39.1929 49.8927 39.0729 48.5562 37.4676C47.2196 35.8623 51.6456 36.8269 51.6456 36.8269L52.7962 37.0909L52.6522 39.1929Z" fill="#FFB0B1"/>
<path opacity="0.1" d="M65.5393 57.5652C65.3916 58.088 65.3678 58.6381 65.4697 59.1717C62.4595 59.3852 59.2393 58.5718 59.2393 58.5718C58.6394 59.1237 57.0592 59.9371 57.0592 59.9371L56.1978 49.2591C55.6471 47.8194 55.4312 40.2764 55.4312 40.2764C55.4312 40.2764 55.4803 39.8816 55.5511 39.2901C55.5511 39.2757 55.5511 39.2601 55.5571 39.2457C55.7719 37.5936 56.1978 34.4922 56.4066 34.0735C56.6945 33.4976 55.5211 31.9655 55.5211 31.9655L56.055 27.4123L56.1198 26.8628C57.2452 26.3601 58.1079 24.7548 58.1079 24.7548L58.7701 23.5946C59.49 23.1327 59.5272 27.6595 59.5272 27.6595L58.8073 38.3483L61.1925 37.6896C61.1925 37.6896 65.946 56.1998 65.5393 57.5652Z" fill="black"/>
<path d="M68.6288 58.3028C65.3474 59.9321 59.3833 58.4227 59.3833 58.4227C58.7834 58.9746 57.2033 59.7881 57.2033 59.7881L56.3407 49.11C55.7912 47.6703 55.5752 40.1273 55.5752 40.1273C55.5752 40.1273 56.2687 34.4991 56.5566 33.9244C56.6406 33.7565 56.5998 33.5069 56.5002 33.2382C56.0106 31.959 55.8306 30.5822 55.9747 29.2201L56.2051 27.2633L56.2687 26.715C57.3953 26.211 58.2579 24.6057 58.2579 24.6057L58.8578 23.5547L59.9616 21.6183L60.4847 20.7017L60.5735 20.782L61.2514 21.3963C61.2514 21.3963 61.5393 21.6363 61.9712 21.9962C62.9106 22.7881 64.5339 24.1822 65.3714 25.0353C66.1081 25.7863 66.3408 28.7078 66.408 30.907C66.4524 32.3551 66.426 33.4901 66.426 33.4901C65.6833 34.7127 67.6258 44.5281 67.6258 44.5281C68.0781 46.4249 68.6288 58.3028 68.6288 58.3028Z" fill="white"/>
<path opacity="0.03" d="M62.3299 24.5813C62.3299 24.5813 60.0779 28.8681 60.3395 30.4974C60.601 32.1268 61.3449 33.9708 60.9862 34.4015C60.8629 34.5647 60.7036 34.6972 60.5206 34.7885C60.3377 34.8799 60.1361 34.9277 59.9316 34.9282C59.5716 34.9522 58.6118 35.6229 58.6118 35.6949C58.6118 35.7669 57.7252 35.7669 56.9321 36.1028C56.1391 36.4388 54.9681 36.6295 54.9681 36.6295C54.9681 36.6295 52.6885 36.5575 52.4761 36.7735C52.2638 36.9895 52.0454 38.2816 52.5001 39.3122C52.9548 40.3428 53.46 41.1119 53.8415 41.2523C54.223 41.3927 56.6442 40.5816 58.6082 40.3896C60.5723 40.1977 62.7043 38.6416 62.7043 38.6416C62.7043 38.6416 65.0522 37.8017 65.4637 36.3896C65.8753 34.9774 64.961 27.2161 64.961 27.2161C64.961 27.2161 64.27 23.5987 62.3299 24.5813Z" fill="black"/>
<path opacity="0.03" d="M62.0418 24.2216C62.0418 24.2216 59.7898 28.5096 60.0537 30.1377C60.3177 31.7658 61.0592 33.6111 60.6992 34.043C60.5764 34.2064 60.4173 34.339 60.2345 34.4304C60.0517 34.5218 59.8502 34.5695 59.6458 34.5697C59.2859 34.5937 58.3261 35.2644 58.3261 35.3364C58.3261 35.4084 57.4394 35.4084 56.6464 35.7431C55.8533 36.0779 54.6823 36.2698 54.6823 36.2698C54.6823 36.2698 52.4028 36.1978 52.1916 36.4138C51.9804 36.6297 51.7597 37.9231 52.2156 38.9525C52.6715 39.9819 53.1754 40.7522 53.5569 40.8926C53.9385 41.0329 56.3596 40.2219 58.3237 40.0311C60.2877 39.8404 62.4197 38.2818 62.4197 38.2818C62.4197 38.2818 64.7665 37.442 65.1732 36.0311C65.5799 34.6201 64.6705 26.8563 64.6705 26.8563C64.6705 26.8563 63.9818 23.2402 62.0418 24.2216Z" fill="black"/>
<path d="M62.2592 24.3658C62.2592 24.3658 60.0072 28.6538 60.2711 30.2819C60.5351 31.91 61.2765 33.7553 60.9178 34.186C60.795 34.3497 60.6358 34.4827 60.4528 34.5743C60.2697 34.6659 60.0679 34.7137 59.8632 34.7139C59.5033 34.7379 58.5435 35.4086 58.5435 35.4794C58.5435 35.5501 57.658 35.5513 56.8638 35.8873C56.0695 36.2232 54.8997 36.414 54.8997 36.414C54.8997 36.414 52.6201 36.342 52.4078 36.558C52.1954 36.7739 51.9771 38.0673 52.4318 39.0967C52.8865 40.1261 53.3916 40.8964 53.7731 41.0367C54.1547 41.1771 56.5758 40.3661 58.5399 40.1741C60.5039 39.9821 62.6359 38.426 62.6359 38.426C62.6359 38.426 64.9839 37.5862 65.3954 36.174C65.8069 34.7619 64.8987 27.0005 64.8987 27.0005C64.8987 27.0005 64.198 23.3892 62.2592 24.3658Z" fill="white"/>
<path opacity="0.1" d="M62.21 35.8669C62.21 35.8669 60.4104 35.5069 61.0367 36.1068C61.6629 36.7067 61.6593 37.2322 62.426 37.2082C63.1927 37.1842 62.21 35.8669 62.21 35.8669Z" fill="black"/>
<path opacity="0.1" d="M65.2516 48.7739C65.2516 48.7739 64.4381 49.3246 65.9942 50.594C67.5504 51.8634 65.2516 48.7739 65.2516 48.7739Z" fill="black"/>
<path opacity="0.1" d="M63.699 53.3003C63.699 53.3723 63.4111 55.9398 64.4885 56.5817C65.5659 57.2236 63.699 53.3003 63.699 53.3003Z" fill="black"/>
<path d="M46.5927 33.1782C45.7241 33.2082 43.8476 33.4734 44.8206 35.2886C45.6809 36.8951 47.1266 35.8213 47.9401 35.0067C47.7416 34.2472 47.2594 33.5927 46.5927 33.1782Z" fill="#FFB0B1"/>
<path d="M47.9507 34.993L47.9874 34.9551L47.9507 34.993Z" fill="#FFB0B1"/>
<path opacity="0.1" d="M61.9712 22.0694C61.0498 22.6993 60.2771 23.2308 60.126 23.3412C59.7132 23.6471 58.9262 25.4432 58.4187 26.3598C58.0143 27.0977 56.7006 27.2873 56.2051 27.3341L56.2687 26.7858C57.3953 26.2818 58.2579 24.6765 58.2579 24.6765L60.4847 20.7725L61.2514 21.4695C61.2514 21.4695 61.5393 21.7095 61.9712 22.0694Z" fill="black"/>
<path d="M61.9712 21.9976C61.0498 22.6275 60.2771 23.159 60.126 23.2706C59.7132 23.5754 58.9262 25.3714 58.4187 26.2881C58.0143 27.0259 56.7006 27.2155 56.2051 27.2623L56.2687 26.714C57.3953 26.2101 58.2579 24.6048 58.2579 24.6048L60.4847 20.7007L61.2514 21.3954C61.2514 21.3954 61.5393 21.6329 61.9712 21.9976Z" fill="#DCE7FF"/>
<path d="M60.1982 18.9407C60.1987 19.661 59.9802 20.3643 59.5719 20.9576C59.0896 21.659 58.3718 22.1643 57.5488 22.3818C56.7258 22.5993 55.8521 22.5146 55.0862 22.143C54.3204 21.7714 53.7131 21.1376 53.3746 20.3566C53.036 19.5755 52.9887 18.699 53.2411 17.886C53.4936 17.0731 54.0291 16.3776 54.7505 15.9257C55.4719 15.4738 56.3314 15.2954 57.173 15.423C58.0146 15.5506 58.7826 15.9757 59.3377 16.6211C59.8927 17.2665 60.198 18.0895 60.1982 18.9407Z" fill="#FFB0B1"/>
<path opacity="0.1" d="M66.4085 30.9086C65.9213 30.6088 65.5245 30.1826 65.2604 29.6752C65.06 29.2793 64.9268 28.8221 64.5849 28.5414C64.2765 28.2894 63.865 28.2283 63.4811 28.1155C62.2189 27.7423 61.1607 26.5906 61.1211 25.2756C61.1019 24.6565 61.2951 24.0386 61.2075 23.4255C61.1577 23.0786 61.0197 22.7501 60.8068 22.4717C60.701 22.3385 60.5851 22.2138 60.46 22.0986C60.2921 21.9402 60.1157 21.7866 59.9621 21.6187C59.8654 21.5147 59.7809 21.3999 59.7102 21.2767C59.6531 21.1759 59.6069 21.0693 59.5722 20.9588C59.3322 20.2245 59.5506 19.3535 59.2867 18.6108L59.2723 18.57C59.1727 18.3061 58.9699 18.0421 58.688 18.0217C58.406 18.0013 58.1649 18.2353 57.8961 18.3397C57.3334 18.558 56.7263 18.1861 56.2572 17.807C55.7881 17.4278 55.259 16.9947 54.6627 17.0787C54.268 17.1351 53.956 17.4038 53.5925 17.543C53.5104 17.5748 53.4257 17.5993 53.3394 17.6162C53.647 16.849 54.2123 16.2128 54.938 15.817C55.6637 15.4213 56.5046 15.2906 57.3162 15.4475C58.1278 15.6043 58.8595 16.039 59.3855 16.6767C59.9114 17.3144 60.1989 18.1153 60.1985 18.942C60.1989 19.1916 60.1727 19.4405 60.1205 19.6846C60.1265 19.7014 60.1325 19.717 60.1397 19.7338C60.2789 20.0937 60.4361 20.4633 60.574 20.7824L61.2519 21.3967C61.2519 21.3967 61.5398 21.6367 61.9718 21.9966C62.9112 22.7885 64.5345 24.1826 65.3719 25.0356C66.1086 25.7891 66.339 28.7094 66.4085 30.9086Z" fill="black"/>
<path d="M53.5497 15.3505C53.7213 15.0014 53.8064 14.6103 54.0116 14.2791C54.3128 13.7992 54.8383 13.4921 55.3782 13.3061C56.7879 12.8202 59.767 12.1147 60.6572 13.3061C60.8324 13.5461 60.9775 13.8124 61.2199 13.978C61.4047 14.104 61.6278 14.1579 61.8306 14.2527C62.3981 14.5191 62.7604 15.0998 62.9536 15.6925C63.1467 16.2852 63.2043 16.921 63.3459 17.5317C63.5271 18.3152 63.845 19.0578 64.1617 19.7957C64.5349 20.6667 64.9308 21.5702 65.6507 22.1857C66.6333 23.0255 66.8505 24.2145 67.7623 25.1359C68.8421 26.2301 68.8073 28.0358 68.2506 29.4695C68.1774 29.6579 68.0946 29.8547 68.1234 30.055C68.1522 30.2554 68.301 30.4378 68.4414 30.5973L69.0316 31.2632C67.6351 31.6003 66.055 30.8709 65.4047 29.5907C65.2044 29.1948 65.0712 28.7389 64.728 28.4569C64.4209 28.205 64.0082 28.145 63.6254 28.0322C62.3633 27.6579 61.3051 26.5049 61.2655 25.1899C61.2463 24.572 61.4394 23.9541 61.3519 23.3423C61.3031 22.9929 61.1646 22.6622 60.9499 22.3824C60.62 21.9517 60.1221 21.6626 59.8533 21.1827C59.3986 20.38 59.7442 19.3374 59.4166 18.4759C59.3158 18.212 59.1143 17.948 58.8323 17.9277C58.5504 17.9073 58.3092 18.1412 58.0393 18.2456C57.4778 18.464 56.8707 18.0932 56.4016 17.7129C55.9325 17.3326 55.4034 16.9006 54.8059 16.9858C54.4111 17.041 54.1004 17.3098 53.7369 17.4501C53.4681 17.5533 52.9234 17.6457 52.6883 17.4189C52.1915 16.9618 53.3421 15.7776 53.5497 15.3505Z" fill="#591D4B"/>
<path opacity="0.1" d="M65.7382 29.1947C65.5367 28.7988 65.4047 28.3429 65.0616 28.0621C64.7544 27.8102 64.3417 27.749 63.9578 27.6362C62.6968 27.2631 61.6386 26.1101 61.5978 24.7951C61.5786 24.1773 61.7718 23.5582 61.6854 22.9463C61.6351 22.5992 61.4968 22.2708 61.2835 21.9925C60.9523 21.5617 60.4544 21.2726 60.1869 20.7927C59.7321 19.9912 60.0777 18.9486 59.7489 18.086C59.6494 17.8232 59.4466 17.5593 59.1658 17.5377C58.8851 17.5161 58.6415 17.7524 58.3728 17.8568C57.8113 18.0752 57.203 17.7032 56.7351 17.3241C56.2672 16.945 55.7357 16.5119 55.1394 16.5958C54.7447 16.6522 54.4327 16.921 54.0704 17.0602C53.8016 17.1633 53.2557 17.2569 53.0206 17.0302C52.5263 16.5503 53.6769 15.3685 53.8832 14.9437C54.0548 14.5934 54.14 14.2035 54.3463 13.8723C54.3571 13.8544 54.3691 13.8364 54.3811 13.8184C54.2268 13.9462 54.0936 14.0977 53.9864 14.2671C53.7812 14.5982 53.6961 14.9869 53.5245 15.3385C53.3169 15.7632 52.1663 16.9486 52.6618 17.4249C52.9018 17.6529 53.4417 17.5593 53.7105 17.4561C54.0704 17.3157 54.3847 17.047 54.7795 16.9918C55.3793 16.9066 55.9073 17.3397 56.3752 17.7188C56.8431 18.098 57.455 18.4699 58.0141 18.2515C58.2828 18.1472 58.518 17.912 58.8059 17.9336C59.0939 17.9552 59.2858 18.218 59.3902 18.4819C59.7178 19.3433 59.3722 20.386 59.8269 21.1886C60.0957 21.6601 60.5936 21.9553 60.9235 22.3884C61.1382 22.6682 61.2767 22.9989 61.3255 23.3482C61.413 23.9601 61.2199 24.578 61.2391 25.1959C61.2787 26.5156 62.3369 27.6638 63.599 28.0381C63.9794 28.1509 64.3945 28.2109 64.7016 28.4629C65.046 28.7448 65.1815 29.2007 65.3783 29.5967C66.0286 30.8768 67.6087 31.6063 69.0052 31.2691L68.7269 30.9548C67.5163 30.9728 66.2913 30.2841 65.7382 29.1947Z" fill="black"/>
<path opacity="0.1" d="M57.4668 23.7192C57.3096 23.9592 56.8597 25.1878 56.4841 26.2604C56.1326 26.1236 55.8135 25.2514 55.8135 25.2514L57.6875 22.5854C57.8795 22.8494 57.7535 23.2873 57.4668 23.7192Z" fill="black"/>
<path d="M57.539 23.6472C57.3819 23.8872 56.9319 25.1158 56.5564 26.1884C56.2049 26.0528 55.8857 25.1794 55.8857 25.1794L57.7598 22.5146C57.9518 22.7774 57.8258 23.2165 57.539 23.6472Z" fill="#DCE7FF"/>
<path d="M46.642 35.9042L45.603 32.6276C45.5907 32.5892 45.5861 32.5488 45.5894 32.5087C45.5928 32.4685 45.6041 32.4294 45.6226 32.3937C45.6411 32.3579 45.6665 32.3261 45.6973 32.3002C45.7281 32.2742 45.7637 32.2546 45.8022 32.2425C45.8795 32.2183 45.9632 32.2257 46.0351 32.263C46.107 32.3003 46.1613 32.3645 46.1861 32.4416L47.2251 35.7146L47.1219 36.3997L46.642 35.9042Z" fill="#BE8B87"/>
<path opacity="0.1" d="M45.7013 32.3393C45.7788 32.3147 45.8628 32.3219 45.935 32.3593C46.0072 32.3966 46.0616 32.461 46.0864 32.5384L47.1254 35.8114L47.0474 36.3249L47.123 36.4041L47.2262 35.719L46.1812 32.446C46.1564 32.3689 46.1021 32.3047 46.0302 32.2674C45.9583 32.2301 45.8746 32.2227 45.7973 32.2469C45.7322 32.268 45.676 32.3102 45.6377 32.3668C45.6581 32.3559 45.6794 32.3467 45.7013 32.3393Z" fill="white"/>
<path d="M46.6421 35.904L47.2252 35.7192L47.14 36.2807L47.122 36.4043L46.9516 36.2267L46.6421 35.904Z" fill="#EFC8C4"/>
<path d="M45.5972 33.7915C45.5972 33.7915 47.6812 33.7795 47.1905 34.6661C46.6998 35.5528 45.9331 35.6596 45.9331 35.6596L45.5972 33.7915Z" fill="#FFB0B1"/>
<defs>
<linearGradient id="paint0_linear" x1="26728.9" y1="55691.4" x2="26728.9" y2="17795.3" gradientUnits="userSpaceOnUse">
<stop stop-color="#808080" stop-opacity="0.25"/>
<stop offset="0.54" stop-color="#808080" stop-opacity="0.12"/>
<stop offset="1" stop-color="#808080" stop-opacity="0.1"/>
</linearGradient>
</defs>
</svg>
