<svg width="47" height="70" viewBox="0 0 47 70" fill="none" xmlns="http://www.w3.org/2000/svg">
<path d="M45.7504 20.3261C46.3262 19.6827 46.101 18.6801 46.101 18.6801C46.101 18.6801 43.3838 11.755 43.0824 11.6789C42.7811 11.6028 42.0251 9.85597 42.0251 9.85597C42.0251 9.85597 34.7795 2.96847 34.5189 2.96847C34.2583 2.96847 31.6129 1.06618 31.2741 1.02865C30.9352 0.991118 30.4055 0.800246 29.8393 0.492491C29.2731 0.184735 23.5362 0.531094 23.31 0.797028C23.0837 1.06296 22.0232 1.25384 22.0232 1.25384C22.0232 1.25384 19.8721 1.3675 19.5697 1.74817C19.2673 2.12885 17.0423 2.33044 17.0423 2.33044C17.0423 2.33044 15.9474 2.73792 17.4337 3.81989C16.9575 3.89496 16.401 3.95286 15.8359 3.99361C15.6944 4.00326 15.5507 4.01291 15.407 4.02042H15.3223C15.2274 3.73348 15.0423 3.48487 14.7947 3.31161C14.6328 3.2237 14.4655 3.14598 14.2939 3.07892C14.0282 2.93761 13.7792 2.76675 13.5519 2.56957C12.4517 1.6947 11.2778 0.916856 10.0432 0.244785C9.85266 0.125468 9.64007 0.0456113 9.41807 0.00994741C8.95805 -0.0340176 8.54735 0.28875 8.09698 0.397054C7.30561 0.586855 6.50781 0.104311 5.69392 0.0968049C4.67736 0.087154 3.75195 0.878525 3.44205 1.85433C3.32731 2.21571 3.27584 2.61783 3.02813 2.90413C2.70644 3.27837 2.16277 3.33306 1.72205 3.55503C1.4027 3.7216 1.13511 3.97249 0.948326 4.28045C0.761546 4.58841 0.662724 4.94166 0.662598 5.30184V5.31041C0.662598 5.36725 0.662597 5.42408 0.672248 5.48091C0.722647 5.93987 0.934965 6.36343 1.09045 6.79879C1.25024 7.24488 1.35117 7.70989 1.3907 8.18208C1.39123 8.18707 1.39123 8.1921 1.3907 8.19709C1.39714 8.27537 1.4025 8.35365 1.40571 8.43301C1.40571 8.44909 1.40571 8.46625 1.40571 8.48341C1.40571 8.55847 1.40571 8.6346 1.40571 8.71074C1.40571 9.12036 1.39177 9.5332 1.39285 9.94283V9.96428V10.1498C1.39285 10.1648 1.39285 10.1798 1.39285 10.1948C1.39285 10.2495 1.39285 10.3021 1.39928 10.36V10.4179C1.39928 10.4683 1.40679 10.5197 1.41215 10.5701C1.41215 10.5916 1.41215 10.6141 1.41751 10.6355C1.41751 10.6849 1.4293 10.7331 1.43574 10.7814L1.44539 10.85C1.45289 10.8983 1.46147 10.9465 1.47005 10.9948L1.48292 11.0613C1.49364 11.1127 1.50651 11.1685 1.51938 11.2157C1.52474 11.2339 1.52796 11.2511 1.53225 11.2693C1.55155 11.3408 1.57299 11.4094 1.59659 11.4752C1.75714 11.9254 2.02223 12.3312 2.37008 12.6591C2.71792 12.987 3.13859 13.2277 3.59753 13.3614C3.77033 13.409 3.94912 13.4314 4.12833 13.4279C4.45003 13.4204 4.75778 13.3206 4.94865 13.1008C4.99584 13.1544 5.04194 13.208 5.09127 13.2617C5.79066 14.0223 6.66315 14.603 7.63475 14.9547C8.60635 15.3063 9.64843 15.4185 10.6726 15.2817C11.6968 15.1449 12.6729 14.7632 13.5182 14.1688C14.3634 13.5745 15.0529 12.7851 15.5281 11.8676C15.6407 11.843 15.7523 11.8205 15.8649 11.799C16.06 11.7626 16.2562 11.7282 16.4536 11.6918L16.6434 11.6618L16.7184 11.6489C17.6835 11.4966 18.6207 11.3947 19.292 11.3272L16.6391 11.6564C16.6391 11.6564 15.9957 14.7457 15.8102 15.0878C15.6247 15.4299 16.4536 16.0004 16.4536 16.0004C16.4536 16.0004 17.1709 16.8754 17.1709 17.1424C17.1709 17.4094 18.0009 18.1697 18.2272 18.5879C18.2559 18.6409 18.292 18.6896 18.3344 18.7326C18.1669 18.7974 18.0122 18.8915 17.8776 19.0103C17.3532 19.5068 17.528 20.3776 17.2878 21.0595C17.1377 21.4885 16.8235 21.8359 16.5211 22.1737C16.4125 22.284 16.3214 22.4102 16.2509 22.5479C16.2116 22.6392 16.1873 22.7363 16.179 22.8353C16.1737 22.8902 16.1715 22.9453 16.1726 23.0004V23.0197C16.1726 23.0626 16.1726 23.1045 16.1812 23.1463C16.1812 23.1645 16.1812 23.1827 16.1812 23.201C16.2337 23.6492 16.386 24.0824 16.4321 24.5306C16.4782 24.9789 16.4225 25.4303 16.5147 25.8668C16.5466 26.0189 16.5963 26.1668 16.6627 26.3075L15.1271 28.0232C15.1271 28.0232 15.1174 28.1079 15.1142 28.2473C13.8339 29.31 11.8544 31.3152 12.561 33.0835C12.6382 33.2772 12.7097 33.4627 12.7755 33.64C12.2554 33.9713 12.0839 34.3649 12.8634 34.7573C12.9867 34.8195 13.1058 34.8731 13.2227 34.9214C13.6226 36.0956 13.7792 36.4226 14.4494 35.5573C14.5212 35.4629 14.6049 35.3428 14.696 35.2131C15.6397 35.1938 16.1855 34.7573 16.1855 34.7573C16.1855 34.7573 18.8266 34.6051 19.5097 35.0243C19.8517 35.2388 20.656 35.2817 21.368 35.2763C21.3584 36.0434 21.3942 36.8104 21.4752 37.5732C21.4752 37.5732 21.3616 40.8074 21.6639 41.4926C21.9663 42.1778 22.1336 43.3573 22.1336 43.3573C22.1336 43.3573 21.6264 44.4983 21.9277 45.1074C22.2291 45.7164 21.6639 46.5914 21.6639 46.5914V48.8358L21.8784 48.8208C21.8623 48.972 21.842 49.1307 21.8151 49.2819C21.753 49.6325 21.6597 49.9467 21.516 50.0486C21.1385 50.3199 21.101 51.7643 21.101 51.7643C21.101 51.7643 20.4973 53.5154 20.6099 53.8199C20.7225 54.1245 19.8935 54.7325 20.0823 55.1893C20.271 55.6461 20.657 58.5371 20.9927 59.3713C21.3283 60.2056 20.3085 59.9804 20.3085 59.9804L20.6099 62.1486C20.6099 62.1486 20.9123 64.3555 20.686 64.5077C20.4597 64.66 19.1579 65.7634 20.0533 66.41C20.123 66.4604 20.1938 66.5065 20.2678 66.5505C20.2718 66.6506 20.2693 66.7509 20.2603 66.8507C20.2431 67.0212 20.2002 67.1574 20.1048 67.1724C19.8389 67.211 19.3102 67.477 19.1987 67.3633C19.0872 67.2496 18.4481 67.6507 17.8047 67.7815L17.7157 67.7955L16.8803 67.581C15.6717 67.1206 14.345 67.0716 13.1058 67.4416C13.1058 67.4416 12.4999 67.536 12.2061 67.9885C12.057 68.2201 11.9916 68.5461 12.1246 69.0007C12.5278 70.3454 15.2761 70.8087 15.2761 70.8087C15.2761 70.8087 16.2284 71.0049 17.3725 71.2644C17.335 71.2644 17.2964 71.2644 17.2578 71.2644C16.942 71.2622 16.6369 71.3785 16.4026 71.5903C16.1684 71.8021 16.022 72.094 15.9925 72.4084C15.9629 72.7228 16.0523 73.0369 16.243 73.2886C16.4337 73.5403 16.7118 73.7114 17.0225 73.7681C17.3331 73.8248 17.6538 73.763 17.9211 73.5948C18.1884 73.4267 18.3829 73.1645 18.4664 72.8599C18.5498 72.5553 18.516 72.2305 18.3716 71.9496C18.2273 71.6688 17.9829 71.4522 17.6867 71.3427C18.9735 71.6386 20.3986 71.9989 20.9777 72.2531C21.4088 72.4154 21.8506 72.548 22.2998 72.6498C22.322 72.916 22.4285 73.1681 22.6038 73.3695C22.7792 73.5709 23.0142 73.7111 23.2747 73.7697C23.5353 73.8284 23.8077 73.8023 24.0524 73.6954C24.2971 73.5885 24.5013 73.4063 24.6353 73.1753C26.3864 73.5409 28.0732 73.8508 28.0732 73.8508L30.8902 73.8969H30.9095C30.5775 73.8992 30.2599 74.033 30.0264 74.269C29.7928 74.5049 29.6623 74.8238 29.6634 75.1558C29.6646 75.4878 29.7973 75.8058 30.0324 76.0402C30.2676 76.2746 30.5861 76.4061 30.9181 76.4061C31.2501 76.4061 31.5685 76.2746 31.8037 76.0402C32.0388 75.8058 32.1715 75.4878 32.1727 75.1558C32.1738 74.8238 32.0433 74.5049 31.8097 74.269C31.5762 74.033 31.2586 73.8992 30.9266 73.8969L35.1912 73.9667C35.14 74.1402 35.1269 74.3227 35.1526 74.5018C35.1783 74.6809 35.2424 74.8524 35.3403 75.0045C35.4383 75.1566 35.5679 75.2858 35.7204 75.3833C35.8728 75.4808 36.0445 75.5443 36.2236 75.5695C36.4028 75.5946 36.5853 75.5809 36.7587 75.5291C36.9321 75.4774 37.0923 75.3889 37.2284 75.2697C37.3645 75.1504 37.4732 75.0032 37.5473 74.8381C37.6214 74.6731 37.659 74.4939 37.6576 74.313C37.6574 74.2096 37.6444 74.1066 37.619 74.0063L41.3807 74.0675L42.1313 73.2418C42.1732 73.1615 42.1984 73.0736 42.2053 72.9833C42.2278 72.712 42.0873 72.3003 41.1265 72.1255C41.0557 72.1126 39.0956 72.1437 37.3638 72.1727V71.4928C37.3638 71.4928 37.3155 71.1186 37.2855 70.6778C37.2769 70.5481 37.2694 70.413 37.2662 70.28C37.3642 70.3471 37.473 70.3968 37.5879 70.4269C38.3052 70.5417 39.2864 68.4485 39.2864 68.4485C39.2864 68.4485 39.2864 67.269 39.5127 66.3178C39.7389 65.3667 40.1561 62.1701 40.1561 62.1701L41.0633 58.328C41.0633 58.328 41.4386 50.4893 41.2498 50.1848C41.0611 49.8802 41.4772 49.3473 41.4772 49.3473C41.4772 49.3473 41.7785 47.6734 41.326 47.1029C40.8735 46.5325 41.5898 45.9609 41.5898 45.9609C41.5898 45.9609 41.7785 43.9825 41.2498 43.2222C40.7212 42.4619 41.4975 41.929 41.4975 41.929L41.6863 38.8472C42.4787 38.0483 43.195 33.2926 43.2336 32.2653C43.2435 31.687 43.372 31.1169 43.6111 30.5903C43.6111 30.5903 44.1387 29.7914 44.2148 29.2585C44.2909 28.7256 44.8582 27.6232 44.8582 27.6232L45.8394 23.9698C46.235 22.4965 46.1342 21.407 45.8715 20.6306C45.8329 20.5212 45.7922 20.4215 45.7504 20.3261ZM28.0239 20.5405C28.6276 20.9212 28.4389 21.0349 28.6276 21.2633C28.8163 21.4917 28.6651 21.4531 28.5139 21.8338C28.3627 22.2144 28.4764 22.1008 28.5514 22.519C28.6265 22.9372 28.59 22.9372 28.59 22.9372L28.7788 22.964L28.5161 24.7301C28.0871 25.01 27.8909 25.5461 27.8019 26.0994C27.5488 25.7692 27.2936 25.426 27.0652 25.1065C27.1435 24.9317 27.1285 24.7237 27.1306 24.5274C27.1392 23.884 27.3794 23.2696 27.4899 22.6359C27.6027 21.9912 27.5819 21.3302 27.4287 20.6939C27.3738 20.4545 27.2891 20.2228 27.1767 20.0044C27.4212 20.1674 27.7311 20.3604 28.0239 20.5448V20.5405ZM28.7026 57.8283C28.7026 57.8283 29.1798 57.5066 29.6431 57.2138C29.7986 58.343 29.9455 59.5172 30.0495 60.5788C29.8833 60.2099 29.7675 59.959 29.7675 59.959C29.5972 59.7544 29.4953 59.5017 29.4758 59.2362C29.4576 58.8223 28.7026 57.8326 28.7026 57.8326V57.8283ZM25.8728 18.7187C25.98 18.7337 26.1323 18.8699 26.276 19.0329C26.143 18.9256 26.009 18.8184 25.8717 18.7176L25.8728 18.7187ZM18.966 32.7961C18.5306 32.9333 17.0551 32.913 16.178 32.8615C16.5061 32.3007 16.8321 31.7302 17.1216 31.2187C17.2924 31.2629 17.4662 31.2941 17.6417 31.312L20.5144 28.7888C21.595 29.1678 22.7737 29.1602 23.8493 28.7674L23.9276 28.8896C23.9609 28.9432 23.9962 28.9968 24.0348 29.0569L23.963 28.94C23.963 28.94 22.8542 29.6006 22.9668 29.9051C23.0794 30.2096 22.8167 30.9699 22.4017 31.7849C22.2945 31.9886 22.2012 32.1902 22.1111 32.3929C21.1718 32.4808 19.4014 32.6588 18.966 32.7961ZM24.4166 67.9509L24.4005 67.6496C24.5828 67.6099 24.7029 67.5735 24.7029 67.5735C24.6652 67.1263 24.6022 66.6817 24.5142 66.2417C24.4005 65.7849 24.4595 65.9371 24.9013 65.5983C25.3431 65.2594 24.9013 61.4162 24.9013 61.4162C24.9013 61.4162 25.1157 61.1492 25.4557 61.8344C25.7956 62.5197 26.1366 62.9379 26.2503 62.9754C26.3639 63.0129 25.7967 63.7753 26.2503 64.4981C26.5319 64.9656 26.7236 65.4817 26.8154 66.0197C26.8154 66.0197 26.514 67.2282 26.9666 67.7654C27.0277 67.828 27.1006 67.878 27.181 67.9123C27.181 68.0121 27.181 68.1182 27.181 68.2179C27.181 68.4185 27.181 68.59 27.1714 68.6265C27.167 68.6522 27.156 68.6763 27.1396 68.6965C27.1231 68.7168 27.1017 68.7324 27.0774 68.7419C27.0531 68.7514 27.0268 68.7544 27.001 68.7507C26.9752 68.7471 26.9508 68.7368 26.9301 68.7209C26.8132 68.6447 26.0722 68.8152 26.1226 69.2924C25.9474 69.4995 25.7488 69.6855 25.5307 69.8468L24.5024 69.5809L24.4166 67.9509Z" fill="url(#paint0_linear)"/>
<path d="M15.1552 28.5316C15.1552 28.5316 14.796 31.4751 17.6451 31.7764L18.074 29.739L17.1765 28.5316L15.8908 28.0962L15.1552 28.5316Z" fill="#EC4794"/>
<path opacity="0.1" d="M15.8908 28.0962L15.1552 28.5305C15.1552 28.5305 14.796 31.474 17.6451 31.7753" fill="black"/>
<path d="M20.324 11.8879C20.324 11.8879 18.4013 12.0059 16.4733 12.3254C16.276 12.359 16.0797 12.3948 15.8846 12.4326C15.7709 12.4541 15.6594 12.4766 15.5479 12.5013C14.5377 12.7093 13.6177 12.9795 13.0815 13.3248C12.4381 13.7377 12.2237 12.6257 12.2033 11.0805C12.1947 10.5368 12.213 9.94058 12.2419 9.33794C12.2794 8.64093 12.3341 7.93534 12.392 7.30053C12.5196 5.89365 12.6665 4.79988 12.6665 4.79988C12.6665 4.79988 13.34 4.79988 14.2396 4.76879L14.5292 4.75806C14.8112 4.74734 15.1104 4.73233 15.4117 4.7141C15.5543 4.70659 15.698 4.69801 15.8406 4.68729C16.4111 4.64654 16.974 4.58864 17.4491 4.51358C17.9552 4.43208 18.3659 4.32914 18.589 4.19188C19.6077 3.58495 20.324 11.8879 20.324 11.8879Z" fill="#F8BDC5"/>
<path d="M28.8918 22.757L28.5165 25.248C28.5165 25.248 27.6984 26.2667 27.8056 26.8329C27.9128 27.3991 28.8565 52.4205 28.8565 52.4205C28.8565 52.4205 30.7062 62.9872 30.0639 64.3458C29.4216 65.7044 30.0264 68.8753 30.0264 68.8753L33.876 68.2715L35.1628 22.0771L28.8918 22.757Z" fill="#474463"/>
<path opacity="0.1" d="M28.8918 22.757L28.5165 25.248C28.5165 25.248 27.6984 26.2667 27.8056 26.8329C27.9128 27.3991 28.8565 52.4205 28.8565 52.4205C28.8565 52.4205 30.7062 62.9872 30.0639 64.3458C29.4216 65.7044 30.0264 68.8753 30.0264 68.8753L33.876 68.2715L35.1628 22.0771L28.8918 22.757Z" fill="black"/>
<path d="M37.3833 69.5168C37.261 69.7195 37.2707 70.3157 37.305 70.8229C37.335 71.2593 37.3833 71.6304 37.3833 71.6304V74.1964C37.3833 74.1964 33.2699 72.7627 31.0051 71.2529C30.0711 70.6299 29.8052 70.0508 29.8567 69.5876C29.9317 68.9281 30.6502 68.4981 31.0051 68.4981C31.344 68.4981 32.4142 67.9073 33.2913 67.3851C33.9808 66.9765 34.5534 66.6108 34.5534 66.6108C34.5534 66.6108 37.6095 69.1394 37.3833 69.5168Z" fill="#575988"/>
<path opacity="0.1" d="M37.383 69.5168C37.2607 69.7195 37.2704 70.3157 37.3047 70.8229C36.39 70.394 33.558 67.6467 33.291 67.3851C33.9805 66.9765 34.5531 66.6108 34.5531 66.6108C34.5531 66.6108 37.6092 69.1394 37.383 69.5168Z" fill="black"/>
<path d="M45.8371 24.4935L44.856 28.1168C44.856 28.1168 44.2898 29.2106 44.2126 29.7392C44.1354 30.2679 43.6089 31.0603 43.6089 31.0603C43.3706 31.5819 43.2421 32.1469 43.2314 32.7203C43.1939 33.7401 42.4808 38.4572 41.684 39.2496L41.4953 42.3068C41.4953 42.3068 40.7447 42.8344 41.2691 43.5936C41.7934 44.3528 41.609 46.3108 41.609 46.3108C41.609 46.3108 40.8916 46.877 41.3452 47.4432C41.7988 48.0094 41.4953 49.6704 41.4953 49.6704C41.4953 49.6704 41.0803 50.198 41.2691 50.5004C41.4578 50.8028 41.0825 58.5771 41.0825 58.5771L40.1753 62.3881C40.1753 62.3881 39.7592 65.5589 39.5319 66.5026C39.3046 67.4462 39.3056 68.6151 39.3056 68.6151C39.3056 68.6151 38.3245 70.6911 37.6071 70.5785C36.8897 70.4659 33.4186 67.0677 33.4186 67.0677L33.9087 55.5939C33.9087 55.5939 34.3237 50.7256 34.0599 49.7819C33.7961 48.8383 33.6073 44.1212 33.6073 44.1212L33.0787 36.6868L27.8007 28.3838C27.8007 28.3838 27.4179 25.9679 28.5117 25.2516L28.7101 23.9466L28.8891 22.7606L35.1547 22.0807L44.7402 19.5908C44.7402 19.5908 45.479 20.0466 45.8661 21.1843C46.1309 21.951 46.2328 23.0319 45.8371 24.4935Z" fill="#474463"/>
<path d="M29.1596 28.3105C29.1596 28.3105 24.7063 33.7794 24.895 32.2513C25.013 31.2916 24.4039 30.1195 23.9299 29.3786C23.6501 28.9379 23.4185 28.6494 23.4185 28.6494C23.4185 28.6494 26.1357 23.6685 26.2869 24.3473C26.3352 24.5617 26.6493 25.0539 27.0536 25.6158C27.9061 26.7932 29.1596 28.3105 29.1596 28.3105Z" fill="#FFC1C8"/>
<path d="M42.2246 73.122C42.2176 73.2116 42.1924 73.2988 42.1506 73.3783L41.4 74.1965L30.9084 74.0282L28.0872 73.982C28.0872 73.982 22.1487 72.9011 20.9917 72.3972C19.8346 71.8932 15.2858 70.971 15.2858 70.971C15.2858 70.971 12.5386 70.5099 12.1354 69.177C11.9992 68.7255 12.0678 68.4028 12.2169 68.1733C12.5096 67.724 13.1165 67.6296 13.1165 67.6296C14.3563 67.2634 15.6817 67.3124 16.8911 67.769L34.4771 72.2931L34.7495 72.3628C34.7495 72.3628 41.0183 72.246 41.1448 72.2685C42.1067 72.4443 42.2471 72.8529 42.2246 73.122Z" fill="#EC4794"/>
<path opacity="0.3" d="M42.2246 73.1216C41.1695 72.9843 39.3294 72.7817 38.8554 72.9768C38.8554 72.9768 35.5087 72.5629 30.9042 74.0277L28.0872 73.9816C28.0872 73.9816 22.1487 72.9007 20.9917 72.3967C19.8346 71.8927 15.2858 70.9705 15.2858 70.9705C15.2858 70.9705 12.5386 70.5094 12.1354 69.1765C11.9992 68.7251 12.0678 68.4023 12.2169 68.1729C12.4045 68.7197 12.7659 69.5122 13.3428 69.7341C14.2489 70.0826 17.9731 70.7925 17.9731 70.7925L25.3442 72.5972C25.3442 72.5972 29.6002 73.5205 31.257 72.9189C31.9357 72.6744 33.2096 72.4568 34.4739 72.2863L34.7463 72.356C34.7463 72.356 41.015 72.2391 41.1416 72.2616C42.1067 72.4439 42.2471 72.8525 42.2246 73.1216Z" fill="white"/>
<path d="M32.0452 71.7634C32.0363 71.9214 32.0165 72.0787 31.9862 72.2341C31.9862 72.2341 27.817 72.3832 25.6467 72.0615C25.0472 71.9725 24.7084 71.7805 24.54 71.551C24.4649 71.4426 24.4183 71.317 24.4046 71.1858C24.3909 71.0546 24.4106 70.922 24.4618 70.8004C24.4858 70.7305 24.5163 70.663 24.5529 70.5988C24.7148 70.3157 24.9636 70.1152 25.0998 70.142C25.4772 70.2182 26.1249 69.4439 26.1249 69.4439C26.0735 68.9711 26.8166 68.8006 26.9324 68.8778C26.953 68.8937 26.9775 68.904 27.0033 68.9076C27.0291 68.9113 27.0554 68.9083 27.0797 68.8988C27.104 68.8893 27.1254 68.8737 27.1418 68.8534C27.1583 68.8332 27.1693 68.8091 27.1737 68.7834C27.1812 68.748 27.1833 68.5775 27.1833 68.3781C27.1833 68.0456 27.1737 67.6274 27.1737 67.6274L31.3643 68.1368L31.5305 68.9378C31.6828 69.652 31.8951 70.6331 31.9862 70.9688C32.0496 71.2286 32.0695 71.4971 32.0452 71.7634Z" fill="#474463"/>
<path d="M24.5486 70.5966C24.5531 70.6353 24.5471 70.6745 24.531 70.71C24.5149 70.7455 24.4895 70.776 24.4574 70.7982C23.9298 71.2056 21.3981 70.7628 21.3981 70.7628C21.3981 70.7628 16.2252 70.4411 15.4521 69.9135C15.3823 69.8676 15.324 69.8064 15.2816 69.7344C14.9599 69.1532 16.1244 68.1774 16.2252 68.1774C16.326 68.1774 17.7168 67.9876 17.8101 67.9694C18.4535 67.8396 19.0969 67.4407 19.2041 67.5544C19.3114 67.6681 19.8475 67.4032 20.1092 67.3657C20.2046 67.3517 20.2486 67.2166 20.2647 67.044C20.2797 66.8104 20.2718 66.5758 20.2411 66.3438L24.3727 67.4557L24.4092 68.1141L24.5282 70.306L24.5432 70.5751C24.5458 70.582 24.5476 70.5892 24.5486 70.5966Z" fill="#474463"/>
<path d="M18.1362 29.8901C18.1362 29.8901 17.8981 30.319 17.54 30.956C16.6821 32.4701 15.1391 35.1541 14.4753 36.0034C13.5317 37.2108 13.6078 36.0795 12.588 33.551C11.831 31.6702 14.1611 29.518 15.4071 28.5401C15.8361 28.2001 16.1363 28.0039 16.1363 28.0039L18.1362 29.8901Z" fill="#F8BDC5"/>
<path d="M22.7018 32.7964C22.7018 32.7964 19.5696 33.0602 18.9659 33.2489C18.3622 33.4376 15.7586 33.324 15.5345 33.2489C15.3103 33.1738 10.8538 34.1925 12.8923 35.2112C14.9307 36.23 16.2164 35.2112 16.2164 35.2112C16.2164 35.2112 18.8586 35.0601 19.5406 35.4761C20.2226 35.8922 22.7104 35.6648 22.7104 35.6648L22.7018 32.7964Z" fill="#FFC1C8"/>
<path opacity="0.1" d="M16.1947 9.69973C16.5808 10.6873 16.3395 11.5473 15.8848 12.4298C14.746 12.6443 13.6748 12.9392 13.0786 13.322C11.38 14.4169 12.6636 4.7928 12.6636 4.7928C12.6636 4.7928 13.485 4.7928 14.5262 4.75098C14.211 6.19003 15.4055 7.68377 16.1947 9.69973Z" fill="black"/>
<path d="M16.2912 9.48508C16.2891 11.0658 15.7053 12.5904 14.6511 13.7681C13.5968 14.9458 12.1459 15.6943 10.5751 15.8706C9.00428 16.047 7.42352 15.6389 6.13435 14.7243C4.84518 13.8096 3.93782 12.4524 3.58535 10.9116C3.23288 9.37068 3.45997 7.75397 4.22331 6.36983C4.98664 4.98569 6.2328 3.93098 7.72406 3.4069C9.21532 2.88282 10.8473 2.92604 12.3088 3.52832C13.7702 4.1306 14.9588 5.24979 15.6478 6.67239C16.0724 7.54916 16.2924 8.5109 16.2912 9.48508Z" fill="#F8BDC5"/>
<path opacity="0.1" d="M45.8686 21.1809C45.6649 21.4773 45.3598 21.689 45.0108 21.776C43.5385 22.191 33.1595 24.682 32.4807 24.5308C31.8813 24.3978 29.3088 24.0279 28.7158 23.9432L28.8949 22.7572L35.1605 22.0773L44.7459 19.5874C44.7459 19.5874 45.4815 20.0431 45.8686 21.1809Z" fill="black"/>
<path opacity="0.1" d="M20.3246 11.8883C19.0979 11.9618 17.8756 12.0978 16.6627 12.2958C16.6799 12.2406 16.6776 12.1811 16.6562 12.1274L19.1655 11.8175C19.1655 11.8175 18.7987 5.91978 17.4498 4.50647C17.9559 4.42497 18.3666 4.32203 18.5896 4.18477C19.6083 3.58534 20.3246 11.8883 20.3246 11.8883Z" fill="black"/>
<path d="M17.0431 3.03119C17.0431 3.03119 19.2703 2.83066 19.5716 2.45321C19.8729 2.07575 22.025 1.96316 22.025 1.96316C22.025 1.96316 23.0813 1.77443 23.3118 1.50957C23.5424 1.24471 29.2739 0.905853 29.8401 1.20825C30.4063 1.51064 30.9349 1.6983 31.2749 1.7369C31.6148 1.7755 34.2559 3.66064 34.5197 3.66064C34.7835 3.66064 42.0259 10.4924 42.0259 10.4924C42.0259 10.4924 42.7765 12.2285 43.0832 12.3035C43.3899 12.3786 46.1029 19.2479 46.1029 19.2479C46.1029 19.2479 46.4803 20.9078 45.0091 21.3239C43.5379 21.7399 33.1579 24.2298 32.4791 24.0786C31.8003 23.9274 28.5919 23.4749 28.5919 23.4749C28.5919 23.4749 28.6294 23.4749 28.5544 23.0599C28.4793 22.645 28.3657 22.7575 28.5158 22.3801C28.6659 22.0026 28.8182 22.0402 28.6294 21.8139C28.4407 21.5877 28.6294 21.474 28.0257 21.0965C27.422 20.7191 26.739 20.3041 26.7046 20.1915C26.6703 20.0789 26.1385 19.3229 25.8747 19.2854C25.6109 19.2479 18.213 17.1718 18.213 17.1718L16.4769 16.6057C16.4769 16.6057 15.6469 16.0395 15.8335 15.7006C16.0201 15.3618 16.6624 12.296 16.6624 12.296L19.3164 11.969C19.3164 11.969 18.9207 5.57794 17.4344 4.50562C15.9482 3.43331 17.0431 3.03119 17.0431 3.03119Z" fill="#EC4794"/>
<path opacity="0.1" d="M18.1358 29.8901C18.1358 29.8901 17.8977 30.319 17.5396 30.956C17.4838 28.9872 16.107 28.6055 15.4067 28.5401C15.8357 28.2001 16.1359 28.0039 16.1359 28.0039L18.1358 29.8901Z" fill="black"/>
<path d="M16.292 15.5869L16.4743 16.6056C16.4743 16.6056 17.1917 17.4742 17.1917 17.738C17.1917 18.0018 18.0217 18.7567 18.249 19.1717C18.4763 19.5867 19.2677 19.6628 18.9653 20.3802C18.6629 21.0976 16.9279 26.5696 16.9279 26.5696L15.1543 28.5319C15.1543 28.5319 18.0978 28.2671 17.6442 31.7768L21.4563 28.4526L24.4416 23.0213C24.4416 23.0213 21.5357 17.5117 21.4231 17.0592C21.3105 16.6067 16.292 15.5869 16.292 15.5869Z" fill="#EC4794"/>
<path opacity="0.1" d="M25.1177 17.4741C25.1177 17.4741 27.5325 15.7756 27.5325 15.5868C27.5325 15.3981 25.1177 17.4741 25.1177 17.4741Z" fill="black"/>
<path opacity="0.1" d="M29.1592 19.5871C29.1592 19.5871 30.446 19.2847 30.5532 18.6059C30.6604 17.9271 29.1592 19.5871 29.1592 19.5871Z" fill="black"/>
<path opacity="0.1" d="M30.2124 21.3237C30.2124 21.3237 32.0246 20.4261 31.9485 20.2706C31.8724 20.1152 30.2124 21.3237 30.2124 21.3237Z" fill="black"/>
<path opacity="0.1" d="M37.2705 47.3638C37.2705 47.3638 40.0253 47.8924 40.1004 48.0812C40.1754 48.2699 37.2705 47.3638 37.2705 47.3638Z" fill="black"/>
<path opacity="0.1" d="M38.252 49.1748C38.252 49.1748 39.7232 50.0809 39.7607 50.3447C39.7982 50.6085 38.252 49.1748 38.252 49.1748Z" fill="black"/>
<path opacity="0.1" d="M37.9121 51.2134C37.9121 51.2134 38.1384 52.2321 38.5158 52.3833C38.8933 52.5345 37.9121 51.2134 37.9121 51.2134Z" fill="black"/>
<path opacity="0.1" d="M15.655 6.63949C15.655 6.65021 15.655 6.66201 15.6496 6.67273C15.5982 7.00836 15.4609 7.37188 15.1456 7.4834C14.9552 7.53698 14.7516 7.51827 14.5741 7.43086C14.0379 7.19602 13.5608 6.63198 12.9881 6.76817C12.7158 6.8325 12.5249 7.03946 12.3898 7.2936C12.2961 7.47654 12.2241 7.66979 12.1753 7.86943C12.0681 8.28978 11.9823 8.74659 12.1464 9.14657C12.1734 9.21199 12.2056 9.27511 12.2429 9.33529C12.3952 9.57871 12.6096 9.78567 12.7597 10.0312C12.9463 10.3379 12.9946 10.7979 12.704 11.0081C12.6311 11.056 12.5484 11.0872 12.462 11.0992C12.3756 11.1113 12.2875 11.104 12.2043 11.0778C11.9914 11.0109 11.7867 10.9203 11.5941 10.8076C11.2145 10.6092 10.7363 10.4859 10.376 10.7154C10.2516 10.7926 10.1519 10.9041 10.0328 10.9856C9.78543 11.1388 9.49194 11.1999 9.20393 11.1582C8.52194 11.0885 8.26673 10.6564 7.74558 10.3218C7.36384 10.0752 6.56603 9.97011 6.3387 10.4741C6.19287 10.7958 6.40948 11.2011 6.26686 11.5293C6.12424 11.8574 5.67065 11.9582 5.46047 12.2627C5.18381 12.6638 5.44117 13.2439 5.2385 13.6889C5.20746 13.7578 5.16585 13.8215 5.11519 13.8776C3.97885 12.6532 3.3616 11.0358 3.39325 9.36563C3.4249 7.69544 4.10297 6.10261 5.28488 4.92209C6.46678 3.74157 8.06041 3.06537 9.73063 3.03569C11.4009 3.00601 13.0175 3.62515 14.2406 4.76293L14.5301 4.75221C14.8122 4.74148 15.1113 4.72647 15.4127 4.70824C15.4839 4.85911 15.5396 5.01684 15.5789 5.17899C15.6955 5.65675 15.7214 6.15218 15.655 6.63949Z" fill="black"/>
<path d="M6.18496 10.3235C6.03806 10.6452 6.25466 11.0506 6.11312 11.3776C5.97157 11.7047 5.51476 11.8065 5.30674 12.1111C5.029 12.5132 5.28636 13.0933 5.08476 13.5373C4.85314 14.0445 4.15399 14.1238 3.61783 13.9758C3.15979 13.845 2.73944 13.6071 2.39151 13.2818C2.04358 12.9564 1.77806 12.5529 1.61689 12.1046C1.25337 11.0699 1.48821 9.93106 1.39385 8.83837C1.35367 8.37012 1.25273 7.90908 1.0936 7.46687C0.93811 7.03795 0.725792 6.61545 0.675393 6.15972C0.639321 5.77303 0.719954 5.38441 0.906887 5.044C1.09382 4.70358 1.37847 4.42699 1.72412 4.24992C2.16592 4.03546 2.70958 3.97433 3.03128 3.60653C3.27791 3.32129 3.33045 2.92346 3.44519 2.56424C3.75509 1.59915 4.6805 0.812069 5.69706 0.82172C6.50988 0.828154 7.30554 1.30748 8.10012 1.11875C8.54942 1.01152 8.95798 0.689826 9.42122 0.735936C9.64309 0.770829 9.85569 0.84996 10.0464 0.968629C11.2797 1.63479 12.4533 2.40614 13.5539 3.27411C13.7816 3.47019 14.0309 3.63964 14.2971 3.77917C14.4684 3.84597 14.6356 3.92295 14.7978 4.00972C15.1442 4.22419 15.3254 4.63274 15.4241 5.0295C15.5425 5.50695 15.5694 6.00252 15.5034 6.48999C15.4562 6.83421 15.3211 7.22024 14.9941 7.33498C14.803 7.38828 14.599 7.36879 14.4214 7.28029C13.8853 7.0476 13.4092 6.48356 12.8366 6.61867C12.369 6.7259 12.1438 7.25563 12.0216 7.71994C11.9144 8.14029 11.8264 8.5971 11.9926 8.99814C12.1299 9.33056 12.4216 9.57398 12.6049 9.88173C12.7883 10.1895 12.8408 10.6495 12.5492 10.8586C12.2275 11.0913 11.791 10.8436 11.4382 10.6592C11.0608 10.4608 10.5804 10.3375 10.2212 10.5659C10.0979 10.6431 9.99813 10.7546 9.87803 10.8372C9.63044 10.9889 9.3377 11.0496 9.0502 11.0087C8.36713 10.939 8.11192 10.5069 7.59185 10.1723C7.20903 9.92356 6.41337 9.81847 6.18496 10.3235Z" fill="#474463"/>
<path opacity="0.1" d="M27.0546 25.611C27.0256 25.7719 26.8047 25.7901 26.7597 25.9467C26.3308 27.4597 25.3871 28.8205 23.9309 29.3781C23.6511 28.9374 23.4194 28.6489 23.4194 28.6489C23.4194 28.6489 26.1367 23.668 26.2879 24.3468C26.3361 24.558 26.6503 25.0491 27.0546 25.611Z" fill="black"/>
<path d="M27.1354 24.5684C27.1356 25.5537 26.8436 26.5171 26.2963 27.3365C25.749 28.1559 24.971 28.7946 24.0606 29.1719C23.1503 29.5491 22.1486 29.6479 21.1821 29.4558C20.2156 29.2637 19.3278 28.7893 18.631 28.0926C17.9341 27.3959 17.4595 26.5082 17.2672 25.5418C17.0749 24.5753 17.1735 23.5735 17.5505 22.6631C17.9276 21.7527 18.5661 20.9746 19.3854 20.4271C20.2047 19.8797 21.168 19.5874 22.1534 19.5874C22.8082 19.585 23.457 19.7122 24.0625 19.9617C24.668 20.2111 25.2181 20.5779 25.6812 21.0409C26.1443 21.5039 26.5112 22.0539 26.7607 22.6593C27.0103 23.2647 27.1376 23.9135 27.1354 24.5684Z" fill="#FFC1C8"/>
<path opacity="0.1" d="M24.3812 67.4587L24.4176 68.1171C23.9812 68.2136 23.1512 68.3401 22.6676 68.0442C22.0424 67.6613 21.1192 67.568 20.2731 67.0469C20.2882 66.8133 20.2803 66.5788 20.2495 66.3467L24.3812 67.4587Z" fill="black"/>
<path opacity="0.1" d="M31.5305 68.9402C31.5015 69.0871 31.4747 69.1771 31.4747 69.1771C31.4747 69.1771 28.1452 68.8361 27.1854 68.3761C27.1854 68.0437 27.1758 67.6255 27.1758 67.6255L31.3664 68.1348L31.5305 68.9402Z" fill="black"/>
<path d="M30.7785 53.9682C30.5522 54.5719 30.4386 54.6855 30.6659 54.9869C30.8932 55.2882 30.7785 56.8741 30.4182 57.0243C30.0579 57.1744 28.7025 58.0805 28.7025 58.0805C28.7025 58.0805 29.4531 59.0617 29.4756 59.4745C29.4953 59.7383 29.5974 59.9892 29.7673 60.1919C29.7673 60.1919 30.9297 62.6829 31.1613 63.4753C31.3929 64.2678 31.6052 65.5127 31.6052 65.5127C31.6052 65.5127 31.1988 66.6451 31.4798 67.2874C31.7607 67.9297 31.4798 68.8723 31.4798 68.8723C31.4798 68.8723 27.4253 68.4573 26.976 67.9244C26.5267 67.3914 26.8259 66.1926 26.8259 66.1926C26.7333 65.6583 26.5412 65.1462 26.2597 64.6828C25.8061 63.9654 26.367 63.2115 26.2597 63.1729C26.1525 63.1343 25.8061 62.7204 25.4651 62.0416C25.1241 61.3629 24.9118 61.6256 24.9118 61.6256C24.9118 61.6256 25.3536 65.4377 24.9118 65.7776C24.47 66.1175 24.41 65.9663 24.5237 66.421C24.6117 66.8574 24.6747 67.2985 24.7124 67.7421C24.7124 67.7421 23.3538 68.1571 22.675 67.7421C21.9962 67.3271 20.9743 67.2509 20.0767 66.6097C19.1792 65.9685 20.4832 64.8736 20.7094 64.7224C20.9357 64.5712 20.6344 62.3826 20.6344 62.3826L20.332 60.2316C20.332 60.2316 21.3507 60.4578 21.0161 59.6278C20.6815 58.7979 20.2944 55.9294 20.1057 55.4769C19.917 55.0244 20.7491 54.4196 20.6344 54.1183C20.5196 53.8169 21.1244 52.0809 21.1244 52.0809C21.1244 52.0809 21.163 50.6472 21.5394 50.378C21.6831 50.2772 21.7764 49.9641 21.8386 49.6178C21.9046 49.209 21.9436 48.7963 21.9555 48.3824C21.9555 48.3824 30.5973 47.7787 31.9934 48.6087C32.6218 48.9819 32.5778 49.6692 32.3151 50.3652C31.9934 51.2144 31.3329 52.0809 31.1667 52.3951C30.8546 52.9741 31.0047 53.3644 30.7785 53.9682Z" fill="#575988"/>
<path opacity="0.1" d="M32.3049 50.3652C31.2326 50.6665 29.8042 51.1093 29.5715 51.3635C29.1941 51.7795 27.9105 49.0237 27.9105 49.0237C27.9105 49.0237 27.9866 51.0954 26.2881 50.229C24.8179 49.4784 22.4449 49.577 21.8315 49.6178C21.8975 49.209 21.9366 48.7963 21.9484 48.3824C21.9484 48.3824 30.5902 47.7787 31.9864 48.6087C32.6148 48.9819 32.5708 49.6692 32.3049 50.3652Z" fill="black"/>
<path d="M27.9102 27.5507C27.9102 27.5507 28.6608 26.6446 28.8163 26.9845C28.9718 27.3244 29.8575 28.0032 29.8575 28.0032C29.8575 28.0032 30.1117 28.7956 30.5588 28.9093C31.006 29.023 34.3645 33.5514 34.3645 33.5514L33.156 36.0038L32.1748 41.9669C32.1748 41.9669 32.2177 42.9106 31.9507 43.2537C31.6837 43.5968 30.6639 43.5175 31.1368 43.9325C31.6097 44.3475 32.2885 44.7249 32.6659 46.6133C33.0434 48.5016 33.4959 49.5943 33.4959 49.5943C33.4959 49.5943 29.9487 50.5004 29.5712 50.9154C29.1938 51.3304 27.9102 48.5756 27.9102 48.5756C27.9102 48.5756 27.9863 50.6463 26.2878 49.7809C24.5892 48.9155 21.6833 49.1793 21.6833 49.1793V46.9489C21.6833 46.9489 22.2494 46.0803 21.9481 45.4766C21.6468 44.8729 22.154 43.7405 22.154 43.7405C22.154 43.7405 21.9857 42.5706 21.6833 41.8919C21.3809 41.2131 21.4945 38.0047 21.4945 38.0047C21.4945 38.0047 21.2651 35.9287 21.4742 34.8714C21.6516 33.955 21.965 33.0702 22.4039 32.2464C22.8188 31.4378 23.0816 30.6829 22.969 30.3805C22.8564 30.0781 23.9652 29.424 23.9652 29.424L24.5796 30.4181L24.7362 31.0121C24.7362 31.0121 27.9863 28.683 27.9102 27.5507Z" fill="#DCE6F2"/>
<path d="M33.3417 32.7964C33.3417 32.7964 35.4552 34.8713 35.6815 35.2112C35.9078 35.5512 36.6659 37.3184 35.6847 37.8545C34.7036 38.3907 30.8593 39.2174 30.4775 38.9322C30.0958 38.647 27.7968 39.2539 27.7968 39.2539C27.7968 39.2539 23.9514 40.1975 24.7814 38.6502C25.6114 37.1028 27.5748 37.3634 27.5748 37.3634C27.5748 37.3634 30.7467 37.358 31.0856 37.0417C31.4244 36.7254 33.9808 36.0466 33.4018 34.6483C32.8227 33.25 33.3417 32.7964 33.3417 32.7964Z" fill="#FFC1C8"/>
<path opacity="0.1" d="M27.1347 42.0806C27.1347 42.0806 22.2117 46.3452 22.7018 46.3452C23.1918 46.3452 27.1347 42.0806 27.1347 42.0806Z" fill="black"/>
<path opacity="0.1" d="M30.4186 43.8164C30.4186 43.8164 28.8541 44.1928 29.1565 44.4201C29.4589 44.6475 30.4186 43.8164 30.4186 43.8164Z" fill="black"/>
<path opacity="0.1" d="M24.9014 33.4751C24.9014 33.4751 26.8541 33.6499 26.5098 34.2611C26.1656 34.8723 24.9014 33.4751 24.9014 33.4751Z" fill="black"/>
<path opacity="0.1" d="M23.6846 51.8042C23.6846 51.8042 23.4197 52.572 23.6846 52.9837C23.9495 53.3955 23.6846 54.3778 23.6846 54.3778V57.8092C23.6846 57.8092 23.6482 60.3002 24.5521 61.1677L23.6846 51.8042Z" fill="black"/>
<path opacity="0.1" d="M21.0986 62.4976C21.0986 62.4976 21.6262 63.2707 21.7023 63.5538C21.7785 63.8369 21.0986 62.4976 21.0986 62.4976Z" fill="black"/>
<path opacity="0.1" d="M21.231 60.9496C21.231 60.9496 22.4577 60.7234 22.6464 60.8553C22.8351 60.9872 21.231 60.9496 21.231 60.9496Z" fill="black"/>
<path opacity="0.1" d="M20.8727 65.5732C20.8727 65.5732 20.5134 65.6108 21.2308 66.0022C21.9482 66.3936 23.3444 66.889 23.3626 66.7196C23.3808 66.5501 20.8727 65.5732 20.8727 65.5732Z" fill="black"/>
<path opacity="0.1" d="M26.124 61.8176C26.2506 61.8176 27.8301 61.7233 27.7389 61.9688C27.6478 62.2144 26.124 61.8176 26.124 61.8176Z" fill="black"/>
<path opacity="0.1" d="M28.2695 59.6099C28.2695 59.6099 28.6277 58.9879 28.7596 59.2517C28.8915 59.5155 28.2695 59.6099 28.2695 59.6099Z" fill="black"/>
<path opacity="0.1" d="M27.1353 24.568C27.1358 25.0311 27.0716 25.492 26.9444 25.9373C26.7364 26.1261 26.3771 26.1282 26.1209 25.9877C25.8206 25.8226 25.6244 25.5223 25.4292 25.2371C25.2341 24.9519 25.0121 24.6666 24.6925 24.5444C24.2883 24.3921 23.8272 24.5444 23.4754 24.7975C23.1237 25.0505 22.8428 25.3851 22.5104 25.6553C22.1779 25.9255 21.7544 26.1443 21.3308 26.0778C21.0574 26.036 20.815 25.8816 20.5802 25.7325C20.2585 25.5298 19.9132 25.2146 19.5604 25.0784C19.2076 24.9422 18.917 25.1856 18.5814 25.1856C18.3144 25.2821 18.0238 25.502 18.0774 25.7797C18.1061 25.8827 18.1526 25.98 18.2147 26.0671C18.3224 26.2794 18.365 26.5188 18.3369 26.7552C18.3089 26.9917 18.2115 27.2145 18.057 27.3957C17.6126 26.7531 17.3254 26.015 17.2189 25.2409C17.1124 24.4669 17.1894 23.6787 17.4437 22.9399C17.698 22.2011 18.1225 21.5325 18.683 20.9881C19.2434 20.4437 19.924 20.0387 20.6699 19.8059C21.4157 19.5731 22.2058 19.519 22.9764 19.6479C23.7471 19.7768 24.4766 20.0852 25.106 20.5481C25.7354 21.011 26.2472 21.6155 26.5999 22.3127C26.9526 23.0098 27.1363 23.7802 27.1363 24.5615L27.1353 24.568Z" fill="black"/>
<path d="M18.5797 25.0415C18.3127 25.138 18.0221 25.3578 18.0746 25.6366C18.1044 25.7391 18.1512 25.8359 18.213 25.9229C18.5261 26.4816 18.2612 27.2837 17.6768 27.5432C17.5852 27.5909 17.4806 27.6075 17.3787 27.5904C17.2979 27.5653 17.2244 27.5212 17.1643 27.4617C16.8499 27.1808 16.6332 26.8071 16.5455 26.3947C16.4533 25.9658 16.5101 25.5112 16.463 25.0704C16.4158 24.6297 16.2646 24.1954 16.212 23.7515C16.1748 23.5321 16.1982 23.3066 16.2796 23.0995C16.3503 22.9628 16.4414 22.8377 16.5498 22.7285C16.8511 22.3928 17.1653 22.0497 17.3165 21.624C17.5556 20.9463 17.3819 20.0831 17.9052 19.5866C18.1476 19.3593 18.4864 19.2745 18.7867 19.1309C19.0694 18.9808 19.34 18.809 19.5963 18.6172C20.5667 17.9502 21.7463 17.4377 22.9001 17.6736C23.3611 17.7852 23.8025 17.966 24.2094 18.2097C24.9651 18.6263 25.6828 19.1086 26.354 19.6509C26.6443 19.8656 26.8978 20.126 27.1046 20.4219C27.2587 20.6753 27.3696 20.9525 27.4328 21.2423C27.5869 21.8744 27.608 22.5317 27.495 23.1724C27.3877 23.8008 27.1443 24.411 27.1347 25.049C27.1347 25.2634 27.1518 25.4951 27.0414 25.6795C26.8644 25.9733 26.4259 26.0012 26.1256 25.8382C25.8254 25.6752 25.6291 25.3728 25.435 25.0876C25.241 24.8023 25.0179 24.5171 24.6984 24.3959C24.2941 24.2426 23.833 24.3959 23.4813 24.6479C23.1296 24.8999 22.8497 25.2356 22.5162 25.5058C22.1827 25.776 21.7656 25.9948 21.3366 25.9283C21.0632 25.8865 20.8209 25.7331 20.586 25.5841C20.2643 25.3803 19.919 25.0651 19.5673 24.93C19.2156 24.7948 18.9143 25.0415 18.5797 25.0415Z" fill="#794F6A"/>
<path d="M30.0236 32.7964C30.0236 32.7964 24.4765 37.9285 25.6078 40.4946C26.739 43.0606 31.72 38.5322 31.72 38.5322L33.4957 34.4231L30.0236 32.7964Z" fill="#F8BDC5"/>
<g opacity="0.1">
<path opacity="0.1" d="M17.6754 27.2387C17.5841 27.2864 17.4798 27.3029 17.3783 27.2858C17.2972 27.261 17.2235 27.2164 17.1639 27.1561C16.8495 26.8755 16.6325 26.5022 16.5441 26.0902C16.4529 25.6559 16.5097 25.2056 16.4626 24.7648C16.4154 24.3241 16.2631 23.8909 16.2116 23.4459C16.2116 23.4244 16.2116 23.4019 16.2063 23.3794C16.1947 23.5022 16.1965 23.6259 16.2116 23.7483C16.2631 24.1922 16.4154 24.6211 16.4626 25.0672C16.5097 25.5133 16.4529 25.9583 16.5441 26.3915C16.6322 26.804 16.8493 27.1776 17.1639 27.4585C17.2238 27.5182 17.2975 27.5623 17.3783 27.5872C17.4798 27.6043 17.5841 27.5877 17.6754 27.54C18.1365 27.3352 18.397 26.7958 18.3359 26.3025C18.3135 26.5016 18.2413 26.6917 18.1258 26.8554C18.0103 27.019 17.8554 27.1509 17.6754 27.2387Z" fill="black"/>
<path opacity="0.1" d="M27.4885 22.8688C27.3813 23.4972 27.1379 24.1074 27.1293 24.7454C27.1293 24.9598 27.1464 25.1915 27.0349 25.3759C26.8591 25.6697 26.4205 25.6976 26.1202 25.5346C25.82 25.3716 25.6237 25.0703 25.4286 24.784C25.2334 24.4977 25.0125 24.2135 24.6919 24.0923C24.2887 23.9401 23.8276 24.0923 23.4759 24.3454C23.1242 24.5985 22.8432 24.932 22.5108 25.2033C22.1784 25.4746 21.7548 25.6922 21.3313 25.6268C21.0578 25.5839 20.8155 25.4306 20.5806 25.2815C20.2589 25.0778 19.9137 24.7636 19.5619 24.6274C19.2102 24.4912 18.9185 24.7347 18.5829 24.7347C18.3159 24.8322 18.0253 25.051 18.0768 25.3309C18.0833 25.3611 18.093 25.3906 18.1057 25.4188C18.2108 25.2358 18.3813 25.0994 18.5829 25.0371C18.9175 25.0371 19.2134 24.7969 19.5619 24.9298C19.9104 25.0628 20.2622 25.3802 20.5806 25.5839C20.8133 25.733 21.0557 25.8863 21.3313 25.9281C21.7602 25.9946 22.1805 25.7791 22.5108 25.5057C22.8411 25.2322 23.1252 24.8944 23.4759 24.6478C23.8265 24.4012 24.2887 24.2425 24.6919 24.3958C25.0136 24.517 25.2345 24.8054 25.4286 25.0875C25.6227 25.3695 25.82 25.6686 26.1202 25.8381C26.4205 26.0075 26.8591 25.9732 27.0349 25.6794C27.1421 25.4949 27.1261 25.2644 27.1293 25.0488C27.1379 24.4108 27.3781 23.8007 27.4885 23.1723C27.5451 22.8495 27.5681 22.5218 27.5571 22.1943C27.5503 22.4205 27.5274 22.6459 27.4885 22.8688Z" fill="black"/>
</g>
<path opacity="0.1" d="M23.3818 6.67944C23.3818 6.67944 21.3444 10.3779 24.1325 12.2651C26.9205 14.1524 27.1896 13.9637 27.1896 13.9637C27.1896 13.9637 27.151 14.4162 27.1896 14.5299C27.2282 14.6435 27.9403 14.9063 27.9403 14.9063C27.9403 14.9063 28.8078 16.3003 30.0527 16.9072C31.2977 17.5141 31.525 18.9446 31.525 18.9446C31.525 18.9446 31.525 19.4357 32.1684 19.8883C32.8118 20.3408 33.3072 21.6619 33.3072 21.6619V22.8704C33.3072 23.0591 33.5335 23.621 33.0434 23.681C32.5534 23.7411 32.9673 24.8702 32.9673 24.8702C32.9673 24.8702 32.4397 25.5136 32.5523 25.8139C32.6649 26.1141 32.326 26.7189 32.326 26.7189C32.326 26.7189 31.9111 27.3226 31.9486 27.4363C31.9861 27.55 31.4961 27.965 31.6087 28.2287C31.7213 28.4925 31.0436 28.8325 31.1561 29.1349C31.2687 29.4373 30.6736 29.5874 30.6736 29.5874L29.0426 33.3619C29.0426 33.3619 32.474 34.1126 33.3598 36.0031L37.6855 28.0775C37.6855 28.0775 40.1003 22.153 40.1765 21.7755C40.2526 21.3981 39.6478 20.0395 39.6478 20.0395L36.7043 14.6779L32.2885 8.45091C32.2885 8.45091 28.7788 0.981144 23.3818 6.67944Z" fill="black"/>
<path opacity="0.1" d="M27.7387 8.24008C27.7387 8.24008 22.4371 10.1006 25.2294 11.9878C28.0217 13.8751 28.2866 13.6853 28.2866 13.6853C28.2866 13.6853 28.2491 14.1389 28.2866 14.2515C28.3241 14.3641 29.0372 14.629 29.0372 14.629C29.0372 14.629 29.9058 16.023 31.1508 16.6299C32.3957 17.2368 32.6231 18.6673 32.6231 18.6673C32.6231 18.6673 32.6231 19.1584 33.2665 19.6109C33.9098 20.0635 34.3988 21.3846 34.3988 21.3846V22.592C34.3988 22.7807 34.6251 23.3426 34.134 23.4037C33.6428 23.4649 34.0589 24.5929 34.0589 24.5929C34.0589 24.5929 33.5302 25.2363 33.6439 25.5355C33.7576 25.8347 33.4177 26.4416 33.4177 26.4416C33.4177 26.4416 33.0027 27.0453 33.0402 27.159C33.0777 27.2727 32.5866 27.6876 32.7003 27.9514C32.8139 28.2152 32.1341 28.5551 32.2477 28.8575C32.3614 29.1599 31.7641 29.3101 31.7641 29.3101L30.1342 33.0835C30.1342 33.0835 32.9608 33.2294 33.853 35.121L38.776 27.8045C38.776 27.8045 41.192 21.88 41.267 21.5025C41.3421 21.1251 40.7405 19.7621 40.7405 19.7621L37.797 14.4006L31.0821 10.5273C31.0821 10.5273 33.1356 2.54071 27.7387 8.24008Z" fill="black"/>
<path d="M23.6841 6.68002C23.6841 6.68002 21.6467 10.3784 24.4347 12.2657C27.2227 14.153 27.4919 13.9643 27.4919 13.9643C27.4919 13.9643 27.4544 14.4168 27.4919 14.5305C27.5294 14.6441 28.2425 14.9068 28.2425 14.9068C28.2425 14.9068 29.1111 16.3009 30.356 16.9078C31.601 17.5147 31.8283 18.9452 31.8283 18.9452C31.8283 18.9452 31.8283 19.4363 32.4717 19.8888C33.1151 20.3413 33.6095 21.6624 33.6095 21.6624V22.8709C33.6095 23.0597 33.8357 23.6216 33.3446 23.6816C32.8535 23.7417 33.2695 24.8708 33.2695 24.8708C33.2695 24.8708 32.7409 25.5142 32.8546 25.8145C32.9682 26.1147 32.6283 26.7195 32.6283 26.7195C32.6283 26.7195 32.2133 27.3232 32.2508 27.4369C32.2884 27.5505 31.7972 27.9655 31.9109 28.2293C32.0246 28.4931 31.3447 28.833 31.4584 29.1354C31.5721 29.4378 30.9748 29.5879 30.9748 29.5879L29.3448 33.3625C29.3448 33.3625 32.7698 34.1131 33.6609 36.0036L37.9867 28.0781C37.9867 28.0781 40.4026 22.1536 40.4777 21.7761C40.5527 21.3987 39.949 20.04 39.949 20.04L37.0055 14.6784L32.5908 8.45363C32.5908 8.45363 29.08 0.98172 23.6841 6.68002Z" fill="#EC4794"/>
<g opacity="0.1">
<path opacity="0.1" d="M1.39389 8.53737C1.35422 8.06869 1.25328 7.60723 1.09364 7.1648C0.93815 6.73587 0.725832 6.31338 0.675433 5.85764C0.675433 5.8437 0.675433 5.83083 0.675433 5.81689C0.664179 5.931 0.664179 6.04593 0.675433 6.16004C0.725832 6.61577 0.93815 7.03505 1.09364 7.46719C1.25328 7.90925 1.35423 8.37036 1.39389 8.83869C1.4089 9.01455 1.41533 9.19255 1.41748 9.37485C1.4207 9.09068 1.41748 8.81295 1.39389 8.53737Z" fill="black"/>
<path opacity="0.1" d="M5.08512 13.2363C4.85457 13.7425 4.15435 13.8229 3.61819 13.6738C3.16049 13.5427 2.74046 13.3047 2.3926 12.9796C2.04475 12.6545 1.77902 12.2515 1.61725 11.8037C1.46819 11.3429 1.39575 10.8607 1.40278 10.3765C1.39635 10.9673 1.41887 11.5507 1.61725 12.105C1.77896 12.553 2.04465 12.9562 2.3925 13.2815C2.74035 13.6068 3.16042 13.8449 3.61819 13.9762C4.15435 14.1242 4.85457 14.0449 5.08512 13.5377C5.1827 13.3232 5.17305 13.0744 5.16876 12.8299C5.16678 12.9695 5.1384 13.1074 5.08512 13.2363Z" fill="black"/>
<path opacity="0.1" d="M15.503 6.18696C15.4569 6.5301 15.3207 6.91613 14.9936 7.03087C14.803 7.08412 14.5995 7.06503 14.4221 6.97726C13.8859 6.74349 13.4087 6.17945 12.8361 6.31564C12.3686 6.42287 12.1445 6.95152 12.0212 7.41691C11.9317 7.71097 11.8929 8.01809 11.9064 8.32516C11.9269 8.11989 11.9653 7.91681 12.0212 7.71823C12.1445 7.25392 12.3686 6.72848 12.8361 6.61696C13.4087 6.48185 13.8816 7.04589 14.4221 7.27858C14.5992 7.36711 14.8029 7.3866 14.9936 7.33327C15.3207 7.21853 15.4569 6.83249 15.503 6.48828C15.5325 6.26905 15.5432 6.04771 15.5352 5.82666C15.5298 5.94676 15.5191 6.06793 15.503 6.18696Z" fill="black"/>
<path opacity="0.1" d="M12.5493 10.5551C12.2276 10.7878 11.7911 10.5401 11.4383 10.3546C11.0609 10.1562 10.5805 10.0329 10.2213 10.2613C10.0979 10.3385 9.99822 10.4501 9.87812 10.5326C9.63098 10.6855 9.33782 10.7462 9.05029 10.7042C8.36722 10.6345 8.11201 10.2024 7.59193 9.86779C7.21019 9.62223 6.41238 9.51714 6.18505 10.0211C6.13052 10.1695 6.11538 10.3295 6.14109 10.4854C6.14813 10.4297 6.16293 10.3752 6.18505 10.3235C6.41346 9.81846 7.21019 9.92355 7.59193 10.1702C8.11201 10.5047 8.36722 10.9369 9.05029 11.0066C9.33793 11.0478 9.63091 10.9867 9.87812 10.8339C9.99822 10.7525 10.0979 10.6409 10.2213 10.5637C10.5837 10.3385 11.0609 10.4565 11.4383 10.657C11.7911 10.8415 12.2254 11.0859 12.5493 10.8565C12.738 10.7214 12.783 10.4812 12.7412 10.2442C12.7192 10.3685 12.6505 10.4797 12.5493 10.5551Z" fill="black"/>
<path opacity="0.1" d="M6.11388 11.0764C5.96697 11.4131 5.51552 11.5053 5.30749 11.8088C5.15201 12.034 5.16488 12.3149 5.17024 12.5969C5.16827 12.4252 5.21593 12.2565 5.30749 12.1112C5.51552 11.8077 5.96697 11.7144 6.11388 11.3777C6.16526 11.2312 6.17926 11.0742 6.15462 10.9209C6.14802 10.9743 6.13432 11.0266 6.11388 11.0764Z" fill="black"/>
</g>
<defs>
<linearGradient id="paint0_linear" x1="23.4043" y1="76.4458" x2="23.4043" y2="0.0110166" gradientUnits="userSpaceOnUse">
<stop stop-color="#808080" stop-opacity="0.25"/>
<stop offset="0.54" stop-color="#808080" stop-opacity="0.12"/>
<stop offset="1" stop-color="#808080" stop-opacity="0.1"/>
</linearGradient>
</defs>
</svg>
